%TF.GenerationSoftware,KiCad,Pcbnew,(6.0.5)*%
%TF.CreationDate,2023-08-08T13:15:33+01:00*%
%TF.ProjectId,Melty-daughter,4d656c74-792d-4646-9175-67687465722e,rev?*%
%TF.SameCoordinates,Original*%
%TF.FileFunction,Copper,L1,Top*%
%TF.FilePolarity,Positive*%
%FSLAX46Y46*%
G04 Gerber Fmt 4.6, Leading zero omitted, Abs format (unit mm)*
G04 Created by KiCad (PCBNEW (6.0.5)) date 2023-08-08 13:15:33*
%MOMM*%
%LPD*%
G01*
G04 APERTURE LIST*
G04 Aperture macros list*
%AMRoundRect*
0 Rectangle with rounded corners*
0 $1 Rounding radius*
0 $2 $3 $4 $5 $6 $7 $8 $9 X,Y pos of 4 corners*
0 Add a 4 corners polygon primitive as box body*
4,1,4,$2,$3,$4,$5,$6,$7,$8,$9,$2,$3,0*
0 Add four circle primitives for the rounded corners*
1,1,$1+$1,$2,$3*
1,1,$1+$1,$4,$5*
1,1,$1+$1,$6,$7*
1,1,$1+$1,$8,$9*
0 Add four rect primitives between the rounded corners*
20,1,$1+$1,$2,$3,$4,$5,0*
20,1,$1+$1,$4,$5,$6,$7,0*
20,1,$1+$1,$6,$7,$8,$9,0*
20,1,$1+$1,$8,$9,$2,$3,0*%
G04 Aperture macros list end*
%TA.AperFunction,SMDPad,CuDef*%
%ADD10RoundRect,0.060000X0.340000X-0.240000X0.340000X0.240000X-0.340000X0.240000X-0.340000X-0.240000X0*%
%TD*%
%TA.AperFunction,SMDPad,CuDef*%
%ADD11RoundRect,0.070000X0.280000X-0.430000X0.280000X0.430000X-0.280000X0.430000X-0.280000X-0.430000X0*%
%TD*%
%TA.AperFunction,SMDPad,CuDef*%
%ADD12RoundRect,0.500000X-0.500000X-1.500000X0.500000X-1.500000X0.500000X1.500000X-0.500000X1.500000X0*%
%TD*%
%TA.AperFunction,ComponentPad*%
%ADD13C,1.400000*%
%TD*%
%TA.AperFunction,ComponentPad*%
%ADD14O,1.400000X1.400000*%
%TD*%
%TA.AperFunction,SMDPad,CuDef*%
%ADD15RoundRect,0.250000X0.350000X0.450000X-0.350000X0.450000X-0.350000X-0.450000X0.350000X-0.450000X0*%
%TD*%
%TA.AperFunction,SMDPad,CuDef*%
%ADD16RoundRect,0.060000X-0.340000X0.240000X-0.340000X-0.240000X0.340000X-0.240000X0.340000X0.240000X0*%
%TD*%
%TA.AperFunction,SMDPad,CuDef*%
%ADD17RoundRect,0.070000X-0.280000X0.430000X-0.280000X-0.430000X0.280000X-0.430000X0.280000X0.430000X0*%
%TD*%
%TA.AperFunction,SMDPad,CuDef*%
%ADD18R,3.000000X1.200000*%
%TD*%
%TA.AperFunction,ComponentPad*%
%ADD19R,1.700000X1.700000*%
%TD*%
%TA.AperFunction,ComponentPad*%
%ADD20O,1.700000X1.700000*%
%TD*%
%TA.AperFunction,SMDPad,CuDef*%
%ADD21RoundRect,0.237500X0.250000X0.237500X-0.250000X0.237500X-0.250000X-0.237500X0.250000X-0.237500X0*%
%TD*%
%TA.AperFunction,ViaPad*%
%ADD22C,0.800000*%
%TD*%
%TA.AperFunction,Conductor*%
%ADD23C,0.500000*%
%TD*%
G04 APERTURE END LIST*
D10*
%TO.P,RV3,1,1*%
%TO.N,unconnected-(RV3-Pad1)*%
X107550000Y-98150000D03*
D11*
%TO.P,RV3,2,2*%
%TO.N,Net-(R5-Pad2)*%
X105200000Y-97500000D03*
D10*
%TO.P,RV3,3,3*%
%TO.N,GND*%
X107550000Y-96850000D03*
%TD*%
D12*
%TO.P,P1,1*%
%TO.N,IR_out*%
X125950000Y-96850000D03*
%TD*%
D13*
%TO.P,R3,1*%
%TO.N,IR_out*%
X117160000Y-98000000D03*
D14*
%TO.P,R3,2*%
%TO.N,GND*%
X109540000Y-98000000D03*
%TD*%
D15*
%TO.P,R2,1*%
%TO.N,IR_out*%
X121450000Y-85600000D03*
%TO.P,R2,2*%
%TO.N,GND*%
X119450000Y-85600000D03*
%TD*%
D16*
%TO.P,RV1,1,1*%
%TO.N,unconnected-(RV1-Pad1)*%
X113700000Y-84400000D03*
D17*
%TO.P,RV1,2,2*%
%TO.N,IR_out*%
X116050000Y-85050000D03*
D16*
%TO.P,RV1,3,3*%
%TO.N,GND*%
X113700000Y-85700000D03*
%TD*%
D18*
%TO.P,Q3,1,C*%
%TO.N,+3V3*%
X115450000Y-91250000D03*
%TO.P,Q3,2,E*%
%TO.N,IR_out*%
X115450000Y-88750000D03*
%TD*%
%TO.P,Q2,1,C*%
%TO.N,+3V3*%
X120400000Y-91250000D03*
%TO.P,Q2,2,E*%
%TO.N,IR_out*%
X120400000Y-88750000D03*
%TD*%
D19*
%TO.P,J2,1,Pin_1*%
%TO.N,+3V3*%
X106250000Y-86200000D03*
D20*
%TO.P,J2,2,Pin_2*%
%TO.N,IR_out*%
X106250000Y-88740000D03*
%TO.P,J2,3,Pin_3*%
%TO.N,Net-(J1-Pad3)*%
X106250000Y-91280000D03*
%TO.P,J2,4,Pin_4*%
%TO.N,GND*%
X106250000Y-93820000D03*
%TD*%
D19*
%TO.P,RV2,1,1*%
%TO.N,GND*%
X110250000Y-86200000D03*
D20*
%TO.P,RV2,2,2*%
%TO.N,IR_out*%
X110250000Y-88740000D03*
%TO.P,RV2,3,3*%
%TO.N,unconnected-(RV2-Pad3)*%
X110250000Y-91280000D03*
%TD*%
D21*
%TO.P,R1,1*%
%TO.N,IR_out*%
X121362500Y-81550000D03*
%TO.P,R1,2*%
%TO.N,GND*%
X119537500Y-81550000D03*
%TD*%
D15*
%TO.P,R4,1*%
%TO.N,IR_out*%
X121450000Y-83500000D03*
%TO.P,R4,2*%
%TO.N,GND*%
X119450000Y-83500000D03*
%TD*%
D18*
%TO.P,Q1,1,C*%
%TO.N,+3V3*%
X125350000Y-91250000D03*
%TO.P,Q1,2,E*%
%TO.N,IR_out*%
X125350000Y-88750000D03*
%TD*%
D19*
%TO.P,J1,1,Pin_1*%
%TO.N,+3V3*%
X102250000Y-86200000D03*
D20*
%TO.P,J1,2,Pin_2*%
%TO.N,IR_out*%
X102250000Y-88740000D03*
%TO.P,J1,3,Pin_3*%
%TO.N,Net-(J1-Pad3)*%
X102250000Y-91280000D03*
%TO.P,J1,4,Pin_4*%
%TO.N,GND*%
X102250000Y-93820000D03*
%TD*%
D13*
%TO.P,R5,1*%
%TO.N,IR_out*%
X117160000Y-94850000D03*
D14*
%TO.P,R5,2*%
%TO.N,Net-(R5-Pad2)*%
X109540000Y-94850000D03*
%TD*%
D22*
%TO.N,GND*%
X118050000Y-83500000D03*
X113700000Y-87000000D03*
%TD*%
D23*
%TO.N,GND*%
X108390000Y-96850000D02*
X109540000Y-98000000D01*
X107550000Y-96850000D02*
X108390000Y-96850000D01*
%TO.N,Net-(R5-Pad2)*%
X108440000Y-95950000D02*
X106750000Y-95950000D01*
X109540000Y-94850000D02*
X108440000Y-95950000D01*
X106750000Y-95950000D02*
X105200000Y-97500000D01*
%TO.N,GND*%
X113700000Y-87000000D02*
X113700000Y-85700000D01*
%TO.N,+3V3*%
X113100000Y-91250000D02*
X115450000Y-91250000D01*
X112350000Y-84600000D02*
X112350000Y-90500000D01*
X111700000Y-83950000D02*
X112350000Y-84600000D01*
X106250000Y-84700000D02*
X107000000Y-83950000D01*
X112350000Y-90500000D02*
X113100000Y-91250000D01*
X106250000Y-86200000D02*
X106250000Y-84700000D01*
X107000000Y-83950000D02*
X111700000Y-83950000D01*
X125350000Y-91250000D02*
X120400000Y-91250000D01*
X120400000Y-91250000D02*
X115450000Y-91250000D01*
X102250000Y-86200000D02*
X106250000Y-86200000D01*
%TO.N,GND*%
X119450000Y-85600000D02*
X119450000Y-83500000D01*
X119537500Y-82362500D02*
X119450000Y-82450000D01*
X119450000Y-83500000D02*
X118050000Y-83500000D01*
X119450000Y-82450000D02*
X119450000Y-83500000D01*
X119537500Y-81550000D02*
X119537500Y-82362500D01*
%TD*%
%TA.AperFunction,Conductor*%
%TO.N,IR_out*%
G36*
X127924098Y-78081049D02*
G01*
X127975101Y-78130437D01*
X127991500Y-78192594D01*
X127991500Y-101807406D01*
X127971498Y-101875527D01*
X127917842Y-101922020D01*
X127854492Y-101932924D01*
X100623489Y-99544240D01*
X100557377Y-99518362D01*
X100515751Y-99460849D01*
X100508500Y-99418722D01*
X100508500Y-97967918D01*
X104341500Y-97967918D01*
X104356390Y-98081019D01*
X104414681Y-98221746D01*
X104507409Y-98342591D01*
X104628254Y-98435319D01*
X104768981Y-98493610D01*
X104882082Y-98508500D01*
X105517918Y-98508500D01*
X105631019Y-98493610D01*
X105771746Y-98435319D01*
X105892591Y-98342591D01*
X105985319Y-98221746D01*
X106043610Y-98081019D01*
X106058500Y-97967918D01*
X106058500Y-97766371D01*
X106078502Y-97698250D01*
X106095405Y-97677276D01*
X106487100Y-97285581D01*
X106549412Y-97251555D01*
X106620227Y-97256620D01*
X106677063Y-97299167D01*
X106692603Y-97326456D01*
X106713416Y-97376703D01*
X106749170Y-97423298D01*
X106774769Y-97489516D01*
X106760504Y-97559065D01*
X106749173Y-97576698D01*
X106713416Y-97623297D01*
X106656132Y-97761592D01*
X106641500Y-97872735D01*
X106641501Y-98427264D01*
X106642039Y-98431348D01*
X106642039Y-98431354D01*
X106655054Y-98530221D01*
X106656132Y-98538408D01*
X106713416Y-98676703D01*
X106804541Y-98795459D01*
X106923297Y-98886584D01*
X107061592Y-98943868D01*
X107069780Y-98944946D01*
X107168641Y-98957961D01*
X107172735Y-98958500D01*
X107549954Y-98958500D01*
X107927264Y-98958499D01*
X107931348Y-98957961D01*
X107931354Y-98957961D01*
X108030221Y-98944946D01*
X108030223Y-98944945D01*
X108038408Y-98943868D01*
X108176703Y-98886584D01*
X108295459Y-98795459D01*
X108361420Y-98709497D01*
X108418758Y-98667630D01*
X108489629Y-98663409D01*
X108551532Y-98698174D01*
X108564588Y-98713922D01*
X108610699Y-98779776D01*
X108760224Y-98929301D01*
X108933442Y-99050589D01*
X108938420Y-99052910D01*
X108938423Y-99052912D01*
X109116853Y-99136115D01*
X109125090Y-99139956D01*
X109130398Y-99141378D01*
X109130400Y-99141379D01*
X109324030Y-99193262D01*
X109324032Y-99193262D01*
X109329345Y-99194686D01*
X109540000Y-99213116D01*
X109750655Y-99194686D01*
X109755968Y-99193262D01*
X109755970Y-99193262D01*
X109949600Y-99141379D01*
X109949602Y-99141378D01*
X109954910Y-99139956D01*
X109963147Y-99136115D01*
X110141577Y-99052912D01*
X110141580Y-99052910D01*
X110146558Y-99050589D01*
X110198440Y-99014261D01*
X116510294Y-99014261D01*
X116519590Y-99026276D01*
X116549189Y-99047001D01*
X116558677Y-99052479D01*
X116740277Y-99137159D01*
X116750571Y-99140907D01*
X116944122Y-99192769D01*
X116954909Y-99194671D01*
X117154525Y-99212135D01*
X117165475Y-99212135D01*
X117365091Y-99194671D01*
X117375878Y-99192769D01*
X117569429Y-99140907D01*
X117579723Y-99137159D01*
X117761323Y-99052479D01*
X117770811Y-99047001D01*
X117801248Y-99025689D01*
X117809623Y-99015212D01*
X117802554Y-99001764D01*
X117172812Y-98372022D01*
X117158868Y-98364408D01*
X117157035Y-98364539D01*
X117150420Y-98368790D01*
X116516724Y-99002486D01*
X116510294Y-99014261D01*
X110198440Y-99014261D01*
X110319776Y-98929301D01*
X110469301Y-98779776D01*
X110590589Y-98606558D01*
X110664651Y-98447733D01*
X110677633Y-98419892D01*
X110677634Y-98419891D01*
X110679956Y-98414910D01*
X110734686Y-98210655D01*
X110752637Y-98005475D01*
X115947865Y-98005475D01*
X115965329Y-98205091D01*
X115967231Y-98215878D01*
X116019093Y-98409429D01*
X116022841Y-98419723D01*
X116107521Y-98601323D01*
X116112999Y-98610811D01*
X116134311Y-98641248D01*
X116144788Y-98649623D01*
X116158236Y-98642554D01*
X116787978Y-98012812D01*
X116794356Y-98001132D01*
X117524408Y-98001132D01*
X117524539Y-98002965D01*
X117528790Y-98009580D01*
X118162486Y-98643276D01*
X118174261Y-98649706D01*
X118186276Y-98640410D01*
X118207001Y-98610811D01*
X118212479Y-98601323D01*
X118297159Y-98419723D01*
X118300907Y-98409429D01*
X118352769Y-98215878D01*
X118354671Y-98205091D01*
X118372135Y-98005475D01*
X118372135Y-97994525D01*
X118354671Y-97794909D01*
X118352769Y-97784122D01*
X118300907Y-97590571D01*
X118297159Y-97580277D01*
X118212479Y-97398677D01*
X118207001Y-97389189D01*
X118185689Y-97358752D01*
X118175212Y-97350377D01*
X118161764Y-97357446D01*
X117532022Y-97987188D01*
X117524408Y-98001132D01*
X116794356Y-98001132D01*
X116795592Y-97998868D01*
X116795461Y-97997035D01*
X116791210Y-97990420D01*
X116157514Y-97356724D01*
X116145739Y-97350294D01*
X116133724Y-97359590D01*
X116112999Y-97389189D01*
X116107521Y-97398677D01*
X116022841Y-97580277D01*
X116019093Y-97590571D01*
X115967231Y-97784122D01*
X115965329Y-97794909D01*
X115947865Y-97994525D01*
X115947865Y-98005475D01*
X110752637Y-98005475D01*
X110753116Y-98000000D01*
X110734686Y-97789345D01*
X110727250Y-97761592D01*
X110681379Y-97590400D01*
X110681378Y-97590398D01*
X110679956Y-97585090D01*
X110676046Y-97576704D01*
X110592912Y-97398423D01*
X110592910Y-97398420D01*
X110590589Y-97393442D01*
X110469301Y-97220224D01*
X110319776Y-97070699D01*
X110197082Y-96984788D01*
X116510377Y-96984788D01*
X116517446Y-96998236D01*
X117147188Y-97627978D01*
X117161132Y-97635592D01*
X117162965Y-97635461D01*
X117169580Y-97631210D01*
X117800790Y-97000000D01*
X118986540Y-97000000D01*
X119006359Y-97315020D01*
X119065505Y-97625072D01*
X119163044Y-97925266D01*
X119164731Y-97928852D01*
X119164733Y-97928856D01*
X119295750Y-98207283D01*
X119295754Y-98207290D01*
X119297438Y-98210869D01*
X119466568Y-98477375D01*
X119477385Y-98490450D01*
X119662266Y-98713932D01*
X119667767Y-98720582D01*
X119897860Y-98936654D01*
X119901062Y-98938981D01*
X119901064Y-98938982D01*
X119953631Y-98977174D01*
X120153221Y-99122184D01*
X120156690Y-99124091D01*
X120156693Y-99124093D01*
X120366111Y-99239222D01*
X120429821Y-99274247D01*
X120433490Y-99275700D01*
X120433495Y-99275702D01*
X120719628Y-99388990D01*
X120723298Y-99390443D01*
X121029025Y-99468940D01*
X121342179Y-99508500D01*
X121657821Y-99508500D01*
X121970975Y-99468940D01*
X122276702Y-99390443D01*
X122280372Y-99388990D01*
X122566505Y-99275702D01*
X122566510Y-99275700D01*
X122570179Y-99274247D01*
X122633889Y-99239222D01*
X122843307Y-99124093D01*
X122843310Y-99124091D01*
X122846779Y-99122184D01*
X123046369Y-98977174D01*
X123098936Y-98938982D01*
X123098938Y-98938981D01*
X123102140Y-98936654D01*
X123332233Y-98720582D01*
X123337735Y-98713932D01*
X123522615Y-98490450D01*
X123533432Y-98477375D01*
X123554180Y-98444681D01*
X124442000Y-98444681D01*
X124442077Y-98447733D01*
X124443233Y-98456945D01*
X124480162Y-98640091D01*
X124483752Y-98651833D01*
X124554978Y-98822943D01*
X124560778Y-98833759D01*
X124663885Y-98987779D01*
X124671678Y-98997266D01*
X124802734Y-99128322D01*
X124812221Y-99136115D01*
X124966241Y-99239222D01*
X124977057Y-99245022D01*
X125148167Y-99316248D01*
X125159909Y-99319838D01*
X125343055Y-99356767D01*
X125352267Y-99357923D01*
X125355319Y-99358000D01*
X125677885Y-99358000D01*
X125693124Y-99353525D01*
X125694329Y-99352135D01*
X125696000Y-99344452D01*
X125696000Y-99339885D01*
X126204000Y-99339885D01*
X126208475Y-99355124D01*
X126209865Y-99356329D01*
X126217548Y-99358000D01*
X126544681Y-99358000D01*
X126547733Y-99357923D01*
X126556945Y-99356767D01*
X126740091Y-99319838D01*
X126751833Y-99316248D01*
X126922943Y-99245022D01*
X126933759Y-99239222D01*
X127087779Y-99136115D01*
X127097266Y-99128322D01*
X127228322Y-98997266D01*
X127236115Y-98987779D01*
X127339222Y-98833759D01*
X127345022Y-98822943D01*
X127416248Y-98651833D01*
X127419838Y-98640091D01*
X127456767Y-98456945D01*
X127457923Y-98447733D01*
X127458000Y-98444681D01*
X127458000Y-97122115D01*
X127453525Y-97106876D01*
X127452135Y-97105671D01*
X127444452Y-97104000D01*
X126222115Y-97104000D01*
X126206876Y-97108475D01*
X126205671Y-97109865D01*
X126204000Y-97117548D01*
X126204000Y-99339885D01*
X125696000Y-99339885D01*
X125696000Y-97122115D01*
X125691525Y-97106876D01*
X125690135Y-97105671D01*
X125682452Y-97104000D01*
X124460115Y-97104000D01*
X124444876Y-97108475D01*
X124443671Y-97109865D01*
X124442000Y-97117548D01*
X124442000Y-98444681D01*
X123554180Y-98444681D01*
X123702562Y-98210869D01*
X123704246Y-98207290D01*
X123704250Y-98207283D01*
X123835267Y-97928856D01*
X123835269Y-97928852D01*
X123836956Y-97925266D01*
X123934495Y-97625072D01*
X123993641Y-97315020D01*
X124013460Y-97000000D01*
X123993641Y-96684980D01*
X123973211Y-96577885D01*
X124442000Y-96577885D01*
X124446475Y-96593124D01*
X124447865Y-96594329D01*
X124455548Y-96596000D01*
X125677885Y-96596000D01*
X125693124Y-96591525D01*
X125694329Y-96590135D01*
X125696000Y-96582452D01*
X125696000Y-96577885D01*
X126204000Y-96577885D01*
X126208475Y-96593124D01*
X126209865Y-96594329D01*
X126217548Y-96596000D01*
X127439885Y-96596000D01*
X127455124Y-96591525D01*
X127456329Y-96590135D01*
X127458000Y-96582452D01*
X127458000Y-95255319D01*
X127457923Y-95252267D01*
X127456767Y-95243055D01*
X127419838Y-95059909D01*
X127416248Y-95048167D01*
X127345022Y-94877057D01*
X127339222Y-94866241D01*
X127236115Y-94712221D01*
X127228322Y-94702734D01*
X127097266Y-94571678D01*
X127087779Y-94563885D01*
X126933759Y-94460778D01*
X126922943Y-94454978D01*
X126751833Y-94383752D01*
X126740091Y-94380162D01*
X126556945Y-94343233D01*
X126547733Y-94342077D01*
X126544681Y-94342000D01*
X126222115Y-94342000D01*
X126206876Y-94346475D01*
X126205671Y-94347865D01*
X126204000Y-94355548D01*
X126204000Y-96577885D01*
X125696000Y-96577885D01*
X125696000Y-94360115D01*
X125691525Y-94344876D01*
X125690135Y-94343671D01*
X125682452Y-94342000D01*
X125355319Y-94342000D01*
X125352267Y-94342077D01*
X125343055Y-94343233D01*
X125159909Y-94380162D01*
X125148167Y-94383752D01*
X124977057Y-94454978D01*
X124966241Y-94460778D01*
X124812221Y-94563885D01*
X124802734Y-94571678D01*
X124671678Y-94702734D01*
X124663885Y-94712221D01*
X124560778Y-94866241D01*
X124554978Y-94877057D01*
X124483752Y-95048167D01*
X124480162Y-95059909D01*
X124443233Y-95243055D01*
X124442077Y-95252267D01*
X124442000Y-95255319D01*
X124442000Y-96577885D01*
X123973211Y-96577885D01*
X123934495Y-96374928D01*
X123836956Y-96074734D01*
X123831264Y-96062637D01*
X123704250Y-95792717D01*
X123704246Y-95792710D01*
X123702562Y-95789131D01*
X123698329Y-95782460D01*
X123670052Y-95737903D01*
X123533432Y-95522625D01*
X123332233Y-95279418D01*
X123102140Y-95063346D01*
X123097410Y-95059909D01*
X122963916Y-94962921D01*
X122846779Y-94877816D01*
X122825725Y-94866241D01*
X122573648Y-94727660D01*
X122573647Y-94727659D01*
X122570179Y-94725753D01*
X122566510Y-94724300D01*
X122566505Y-94724298D01*
X122280372Y-94611010D01*
X122280371Y-94611010D01*
X122276702Y-94609557D01*
X121970975Y-94531060D01*
X121657821Y-94491500D01*
X121342179Y-94491500D01*
X121029025Y-94531060D01*
X120723298Y-94609557D01*
X120719629Y-94611010D01*
X120719628Y-94611010D01*
X120433495Y-94724298D01*
X120433490Y-94724300D01*
X120429821Y-94725753D01*
X120426353Y-94727659D01*
X120426352Y-94727660D01*
X120174276Y-94866241D01*
X120153221Y-94877816D01*
X120036084Y-94962921D01*
X119902591Y-95059909D01*
X119897860Y-95063346D01*
X119667767Y-95279418D01*
X119466568Y-95522625D01*
X119329948Y-95737903D01*
X119301672Y-95782460D01*
X119297438Y-95789131D01*
X119295754Y-95792710D01*
X119295750Y-95792717D01*
X119168736Y-96062637D01*
X119163044Y-96074734D01*
X119065505Y-96374928D01*
X119006359Y-96684980D01*
X118999237Y-96798182D01*
X118989525Y-96952566D01*
X118988833Y-96963559D01*
X118986540Y-97000000D01*
X117800790Y-97000000D01*
X117803276Y-96997514D01*
X117809706Y-96985739D01*
X117800410Y-96973724D01*
X117770811Y-96952999D01*
X117761323Y-96947521D01*
X117579723Y-96862841D01*
X117569429Y-96859093D01*
X117375878Y-96807231D01*
X117365091Y-96805329D01*
X117165475Y-96787865D01*
X117154525Y-96787865D01*
X116954909Y-96805329D01*
X116944122Y-96807231D01*
X116750571Y-96859093D01*
X116740277Y-96862841D01*
X116558677Y-96947521D01*
X116549189Y-96952999D01*
X116518752Y-96974311D01*
X116510377Y-96984788D01*
X110197082Y-96984788D01*
X110146558Y-96949411D01*
X110141580Y-96947090D01*
X110141577Y-96947088D01*
X109959892Y-96862367D01*
X109959891Y-96862366D01*
X109954910Y-96860044D01*
X109949602Y-96858622D01*
X109949600Y-96858621D01*
X109755970Y-96806738D01*
X109755968Y-96806738D01*
X109750655Y-96805314D01*
X109540000Y-96786884D01*
X109534525Y-96787363D01*
X109534524Y-96787363D01*
X109469392Y-96793061D01*
X109399787Y-96779071D01*
X109369316Y-96756635D01*
X109126776Y-96514095D01*
X109092750Y-96451783D01*
X109097815Y-96380968D01*
X109126776Y-96335905D01*
X109369316Y-96093365D01*
X109431628Y-96059339D01*
X109469392Y-96056939D01*
X109534524Y-96062637D01*
X109534525Y-96062637D01*
X109540000Y-96063116D01*
X109750655Y-96044686D01*
X109755968Y-96043262D01*
X109755970Y-96043262D01*
X109949600Y-95991379D01*
X109949602Y-95991378D01*
X109954910Y-95989956D01*
X110128122Y-95909186D01*
X110141577Y-95902912D01*
X110141580Y-95902910D01*
X110146558Y-95900589D01*
X110198440Y-95864261D01*
X116510294Y-95864261D01*
X116519590Y-95876276D01*
X116549189Y-95897001D01*
X116558677Y-95902479D01*
X116740277Y-95987159D01*
X116750571Y-95990907D01*
X116944122Y-96042769D01*
X116954909Y-96044671D01*
X117154525Y-96062135D01*
X117165475Y-96062135D01*
X117365091Y-96044671D01*
X117375878Y-96042769D01*
X117569429Y-95990907D01*
X117579723Y-95987159D01*
X117761323Y-95902479D01*
X117770811Y-95897001D01*
X117801248Y-95875689D01*
X117809623Y-95865212D01*
X117802554Y-95851764D01*
X117172812Y-95222022D01*
X117158868Y-95214408D01*
X117157035Y-95214539D01*
X117150420Y-95218790D01*
X116516724Y-95852486D01*
X116510294Y-95864261D01*
X110198440Y-95864261D01*
X110319776Y-95779301D01*
X110469301Y-95629776D01*
X110590589Y-95456558D01*
X110633683Y-95364144D01*
X110677633Y-95269892D01*
X110677634Y-95269891D01*
X110679956Y-95264910D01*
X110682438Y-95255649D01*
X110733262Y-95065970D01*
X110733262Y-95065968D01*
X110734686Y-95060655D01*
X110752637Y-94855475D01*
X115947865Y-94855475D01*
X115965329Y-95055091D01*
X115967231Y-95065878D01*
X116019093Y-95259429D01*
X116022841Y-95269723D01*
X116107521Y-95451323D01*
X116112999Y-95460811D01*
X116134311Y-95491248D01*
X116144788Y-95499623D01*
X116158236Y-95492554D01*
X116787978Y-94862812D01*
X116794356Y-94851132D01*
X117524408Y-94851132D01*
X117524539Y-94852965D01*
X117528790Y-94859580D01*
X118162486Y-95493276D01*
X118174261Y-95499706D01*
X118186276Y-95490410D01*
X118207001Y-95460811D01*
X118212479Y-95451323D01*
X118297159Y-95269723D01*
X118300907Y-95259429D01*
X118352769Y-95065878D01*
X118354671Y-95055091D01*
X118372135Y-94855475D01*
X118372135Y-94844525D01*
X118354671Y-94644909D01*
X118352769Y-94634122D01*
X118300907Y-94440571D01*
X118297159Y-94430277D01*
X118212479Y-94248677D01*
X118207001Y-94239189D01*
X118185689Y-94208752D01*
X118175212Y-94200377D01*
X118161764Y-94207446D01*
X117532022Y-94837188D01*
X117524408Y-94851132D01*
X116794356Y-94851132D01*
X116795592Y-94848868D01*
X116795461Y-94847035D01*
X116791210Y-94840420D01*
X116157514Y-94206724D01*
X116145739Y-94200294D01*
X116133724Y-94209590D01*
X116112999Y-94239189D01*
X116107521Y-94248677D01*
X116022841Y-94430277D01*
X116019093Y-94440571D01*
X115967231Y-94634122D01*
X115965329Y-94644909D01*
X115947865Y-94844525D01*
X115947865Y-94855475D01*
X110752637Y-94855475D01*
X110753116Y-94850000D01*
X110734686Y-94639345D01*
X110733262Y-94634030D01*
X110681379Y-94440400D01*
X110681378Y-94440398D01*
X110679956Y-94435090D01*
X110642865Y-94355548D01*
X110592912Y-94248423D01*
X110592910Y-94248420D01*
X110590589Y-94243442D01*
X110469301Y-94070224D01*
X110319776Y-93920699D01*
X110197082Y-93834788D01*
X116510377Y-93834788D01*
X116517446Y-93848236D01*
X117147188Y-94477978D01*
X117161132Y-94485592D01*
X117162965Y-94485461D01*
X117169580Y-94481210D01*
X117803276Y-93847514D01*
X117809706Y-93835739D01*
X117800410Y-93823724D01*
X117770811Y-93802999D01*
X117761323Y-93797521D01*
X117579723Y-93712841D01*
X117569429Y-93709093D01*
X117375878Y-93657231D01*
X117365091Y-93655329D01*
X117165475Y-93637865D01*
X117154525Y-93637865D01*
X116954909Y-93655329D01*
X116944122Y-93657231D01*
X116750571Y-93709093D01*
X116740277Y-93712841D01*
X116558677Y-93797521D01*
X116549189Y-93802999D01*
X116518752Y-93824311D01*
X116510377Y-93834788D01*
X110197082Y-93834788D01*
X110146558Y-93799411D01*
X110141580Y-93797090D01*
X110141577Y-93797088D01*
X109959892Y-93712367D01*
X109959891Y-93712366D01*
X109954910Y-93710044D01*
X109949602Y-93708622D01*
X109949600Y-93708621D01*
X109755970Y-93656738D01*
X109755968Y-93656738D01*
X109750655Y-93655314D01*
X109540000Y-93636884D01*
X109329345Y-93655314D01*
X109324032Y-93656738D01*
X109324030Y-93656738D01*
X109130400Y-93708621D01*
X109130398Y-93708622D01*
X109125090Y-93710044D01*
X109120109Y-93712366D01*
X109120108Y-93712367D01*
X108938423Y-93797088D01*
X108938420Y-93797090D01*
X108933442Y-93799411D01*
X108760224Y-93920699D01*
X108610699Y-94070224D01*
X108489411Y-94243442D01*
X108487090Y-94248420D01*
X108487088Y-94248423D01*
X108437135Y-94355548D01*
X108400044Y-94435090D01*
X108398622Y-94440398D01*
X108398621Y-94440400D01*
X108346738Y-94634030D01*
X108345314Y-94639345D01*
X108326884Y-94850000D01*
X108327363Y-94855475D01*
X108327363Y-94855476D01*
X108333061Y-94920608D01*
X108319071Y-94990213D01*
X108296635Y-95020684D01*
X108162724Y-95154595D01*
X108100412Y-95188621D01*
X108073629Y-95191500D01*
X107060382Y-95191500D01*
X106992261Y-95171498D01*
X106945768Y-95117842D01*
X106935664Y-95047568D01*
X106965158Y-94982988D01*
X106987214Y-94962921D01*
X107028703Y-94933327D01*
X107129860Y-94861173D01*
X107144048Y-94847035D01*
X107284435Y-94707137D01*
X107288096Y-94703489D01*
X107347594Y-94620689D01*
X107415435Y-94526277D01*
X107418453Y-94522077D01*
X107433320Y-94491997D01*
X107515136Y-94326453D01*
X107515137Y-94326451D01*
X107517430Y-94321811D01*
X107582370Y-94108069D01*
X107611529Y-93886590D01*
X107612484Y-93847514D01*
X107613074Y-93823365D01*
X107613074Y-93823361D01*
X107613156Y-93820000D01*
X107594852Y-93597361D01*
X107540431Y-93380702D01*
X107451354Y-93175840D01*
X107330014Y-92988277D01*
X107179670Y-92823051D01*
X107175619Y-92819852D01*
X107175615Y-92819848D01*
X107008414Y-92687800D01*
X107008410Y-92687798D01*
X107004359Y-92684598D01*
X106963053Y-92661796D01*
X106913084Y-92611364D01*
X106898312Y-92541921D01*
X106923428Y-92475516D01*
X106950780Y-92448909D01*
X106994603Y-92417650D01*
X107129860Y-92321173D01*
X107288096Y-92163489D01*
X107347594Y-92080689D01*
X107415435Y-91986277D01*
X107418453Y-91982077D01*
X107422138Y-91974622D01*
X107515136Y-91786453D01*
X107515137Y-91786451D01*
X107517430Y-91781811D01*
X107582370Y-91568069D01*
X107611529Y-91346590D01*
X107613156Y-91280000D01*
X107594852Y-91057361D01*
X107540431Y-90840702D01*
X107451354Y-90635840D01*
X107383608Y-90531120D01*
X107332822Y-90452617D01*
X107332820Y-90452614D01*
X107330014Y-90448277D01*
X107179670Y-90283051D01*
X107175619Y-90279852D01*
X107175615Y-90279848D01*
X107008414Y-90147800D01*
X107008410Y-90147798D01*
X107004359Y-90144598D01*
X106999416Y-90141869D01*
X106962569Y-90121529D01*
X106912598Y-90071097D01*
X106897826Y-90001654D01*
X106922942Y-89935248D01*
X106950294Y-89908641D01*
X107125328Y-89783792D01*
X107133200Y-89777139D01*
X107284052Y-89626812D01*
X107290730Y-89618965D01*
X107415003Y-89446020D01*
X107420313Y-89437183D01*
X107514670Y-89246267D01*
X107518469Y-89236672D01*
X107580377Y-89032910D01*
X107582555Y-89022837D01*
X107583986Y-89011962D01*
X107581775Y-88997778D01*
X107568617Y-88994000D01*
X104933225Y-88994000D01*
X104919694Y-88997973D01*
X104918257Y-89007966D01*
X104948565Y-89142446D01*
X104951645Y-89152275D01*
X105031770Y-89349603D01*
X105036413Y-89358794D01*
X105147694Y-89540388D01*
X105153777Y-89548699D01*
X105293213Y-89709667D01*
X105300580Y-89716883D01*
X105464434Y-89852916D01*
X105472881Y-89858831D01*
X105541969Y-89899203D01*
X105590693Y-89950842D01*
X105603764Y-90020625D01*
X105577033Y-90086396D01*
X105536584Y-90119752D01*
X105523607Y-90126507D01*
X105519474Y-90129610D01*
X105519471Y-90129612D01*
X105349100Y-90257530D01*
X105344965Y-90260635D01*
X105190629Y-90422138D01*
X105187715Y-90426410D01*
X105187714Y-90426411D01*
X105116287Y-90531120D01*
X105064743Y-90606680D01*
X104970688Y-90809305D01*
X104910989Y-91024570D01*
X104887251Y-91246695D01*
X104887548Y-91251848D01*
X104887548Y-91251851D01*
X104893011Y-91346590D01*
X104900110Y-91469715D01*
X104901247Y-91474761D01*
X104901248Y-91474767D01*
X104921119Y-91562939D01*
X104949222Y-91687639D01*
X105009173Y-91835281D01*
X105029497Y-91885333D01*
X105033266Y-91894616D01*
X105078061Y-91967715D01*
X105147130Y-92080425D01*
X105149987Y-92085088D01*
X105296250Y-92253938D01*
X105468126Y-92396632D01*
X105538595Y-92437811D01*
X105541445Y-92439476D01*
X105590169Y-92491114D01*
X105603240Y-92560897D01*
X105576509Y-92626669D01*
X105536055Y-92660027D01*
X105523607Y-92666507D01*
X105519474Y-92669610D01*
X105519471Y-92669612D01*
X105495247Y-92687800D01*
X105344965Y-92800635D01*
X105190629Y-92962138D01*
X105064743Y-93146680D01*
X104970688Y-93349305D01*
X104910989Y-93564570D01*
X104887251Y-93786695D01*
X104887548Y-93791848D01*
X104887548Y-93791851D01*
X104893011Y-93886590D01*
X104900110Y-94009715D01*
X104901247Y-94014761D01*
X104901248Y-94014767D01*
X104913746Y-94070224D01*
X104949222Y-94227639D01*
X105033266Y-94434616D01*
X105068429Y-94491997D01*
X105140470Y-94609557D01*
X105149987Y-94625088D01*
X105296250Y-94793938D01*
X105468126Y-94936632D01*
X105661000Y-95049338D01*
X105665825Y-95051180D01*
X105665826Y-95051181D01*
X105738612Y-95078975D01*
X105869692Y-95129030D01*
X105874760Y-95130061D01*
X105874763Y-95130062D01*
X105982017Y-95151883D01*
X106088597Y-95173567D01*
X106093771Y-95173757D01*
X106093773Y-95173757D01*
X106123801Y-95174858D01*
X106150317Y-95175830D01*
X106217658Y-95198314D01*
X106262154Y-95253637D01*
X106269676Y-95324234D01*
X106237171Y-95388398D01*
X106206871Y-95420383D01*
X106204494Y-95422825D01*
X105172724Y-96454595D01*
X105110412Y-96488621D01*
X105083629Y-96491500D01*
X104882082Y-96491500D01*
X104768981Y-96506390D01*
X104628254Y-96564681D01*
X104507409Y-96657409D01*
X104414681Y-96778254D01*
X104356390Y-96918981D01*
X104341500Y-97032082D01*
X104341500Y-97967918D01*
X100508500Y-97967918D01*
X100508500Y-93786695D01*
X100887251Y-93786695D01*
X100887548Y-93791848D01*
X100887548Y-93791851D01*
X100893011Y-93886590D01*
X100900110Y-94009715D01*
X100901247Y-94014761D01*
X100901248Y-94014767D01*
X100913746Y-94070224D01*
X100949222Y-94227639D01*
X101033266Y-94434616D01*
X101068429Y-94491997D01*
X101140470Y-94609557D01*
X101149987Y-94625088D01*
X101296250Y-94793938D01*
X101468126Y-94936632D01*
X101661000Y-95049338D01*
X101665825Y-95051180D01*
X101665826Y-95051181D01*
X101738612Y-95078975D01*
X101869692Y-95129030D01*
X101874760Y-95130061D01*
X101874763Y-95130062D01*
X101982017Y-95151883D01*
X102088597Y-95173567D01*
X102093772Y-95173757D01*
X102093774Y-95173757D01*
X102306673Y-95181564D01*
X102306677Y-95181564D01*
X102311837Y-95181753D01*
X102316957Y-95181097D01*
X102316959Y-95181097D01*
X102528288Y-95154025D01*
X102528289Y-95154025D01*
X102533416Y-95153368D01*
X102538366Y-95151883D01*
X102742429Y-95090661D01*
X102742434Y-95090659D01*
X102747384Y-95089174D01*
X102947994Y-94990896D01*
X103129860Y-94861173D01*
X103144048Y-94847035D01*
X103284435Y-94707137D01*
X103288096Y-94703489D01*
X103347594Y-94620689D01*
X103415435Y-94526277D01*
X103418453Y-94522077D01*
X103433320Y-94491997D01*
X103515136Y-94326453D01*
X103515137Y-94326451D01*
X103517430Y-94321811D01*
X103582370Y-94108069D01*
X103611529Y-93886590D01*
X103612484Y-93847514D01*
X103613074Y-93823365D01*
X103613074Y-93823361D01*
X103613156Y-93820000D01*
X103594852Y-93597361D01*
X103540431Y-93380702D01*
X103451354Y-93175840D01*
X103330014Y-92988277D01*
X103179670Y-92823051D01*
X103175619Y-92819852D01*
X103175615Y-92819848D01*
X103008414Y-92687800D01*
X103008410Y-92687798D01*
X103004359Y-92684598D01*
X102963053Y-92661796D01*
X102913084Y-92611364D01*
X102898312Y-92541921D01*
X102923428Y-92475516D01*
X102950780Y-92448909D01*
X102994603Y-92417650D01*
X103129860Y-92321173D01*
X103288096Y-92163489D01*
X103347594Y-92080689D01*
X103415435Y-91986277D01*
X103418453Y-91982077D01*
X103422138Y-91974622D01*
X103515136Y-91786453D01*
X103515137Y-91786451D01*
X103517430Y-91781811D01*
X103582370Y-91568069D01*
X103611529Y-91346590D01*
X103613156Y-91280000D01*
X103594852Y-91057361D01*
X103540431Y-90840702D01*
X103451354Y-90635840D01*
X103383608Y-90531120D01*
X103332822Y-90452617D01*
X103332820Y-90452614D01*
X103330014Y-90448277D01*
X103179670Y-90283051D01*
X103175619Y-90279852D01*
X103175615Y-90279848D01*
X103008414Y-90147800D01*
X103008410Y-90147798D01*
X103004359Y-90144598D01*
X102999416Y-90141869D01*
X102962569Y-90121529D01*
X102912598Y-90071097D01*
X102897826Y-90001654D01*
X102922942Y-89935248D01*
X102950294Y-89908641D01*
X103125328Y-89783792D01*
X103133200Y-89777139D01*
X103284052Y-89626812D01*
X103290730Y-89618965D01*
X103415003Y-89446020D01*
X103420313Y-89437183D01*
X103514670Y-89246267D01*
X103518469Y-89236672D01*
X103580377Y-89032910D01*
X103582555Y-89022837D01*
X103583986Y-89011962D01*
X103581775Y-88997778D01*
X103568617Y-88994000D01*
X100933225Y-88994000D01*
X100919694Y-88997973D01*
X100918257Y-89007966D01*
X100948565Y-89142446D01*
X100951645Y-89152275D01*
X101031770Y-89349603D01*
X101036413Y-89358794D01*
X101147694Y-89540388D01*
X101153777Y-89548699D01*
X101293213Y-89709667D01*
X101300580Y-89716883D01*
X101464434Y-89852916D01*
X101472881Y-89858831D01*
X101541969Y-89899203D01*
X101590693Y-89950842D01*
X101603764Y-90020625D01*
X101577033Y-90086396D01*
X101536584Y-90119752D01*
X101523607Y-90126507D01*
X101519474Y-90129610D01*
X101519471Y-90129612D01*
X101349100Y-90257530D01*
X101344965Y-90260635D01*
X101190629Y-90422138D01*
X101187715Y-90426410D01*
X101187714Y-90426411D01*
X101116287Y-90531120D01*
X101064743Y-90606680D01*
X100970688Y-90809305D01*
X100910989Y-91024570D01*
X100887251Y-91246695D01*
X100887548Y-91251848D01*
X100887548Y-91251851D01*
X100893011Y-91346590D01*
X100900110Y-91469715D01*
X100901247Y-91474761D01*
X100901248Y-91474767D01*
X100921119Y-91562939D01*
X100949222Y-91687639D01*
X101009173Y-91835281D01*
X101029497Y-91885333D01*
X101033266Y-91894616D01*
X101078061Y-91967715D01*
X101147130Y-92080425D01*
X101149987Y-92085088D01*
X101296250Y-92253938D01*
X101468126Y-92396632D01*
X101538595Y-92437811D01*
X101541445Y-92439476D01*
X101590169Y-92491114D01*
X101603240Y-92560897D01*
X101576509Y-92626669D01*
X101536055Y-92660027D01*
X101523607Y-92666507D01*
X101519474Y-92669610D01*
X101519471Y-92669612D01*
X101495247Y-92687800D01*
X101344965Y-92800635D01*
X101190629Y-92962138D01*
X101064743Y-93146680D01*
X100970688Y-93349305D01*
X100910989Y-93564570D01*
X100887251Y-93786695D01*
X100508500Y-93786695D01*
X100508500Y-87098134D01*
X100891500Y-87098134D01*
X100898255Y-87160316D01*
X100949385Y-87296705D01*
X101036739Y-87413261D01*
X101153295Y-87500615D01*
X101161704Y-87503767D01*
X101161705Y-87503768D01*
X101270960Y-87544726D01*
X101327725Y-87587367D01*
X101352425Y-87653929D01*
X101337218Y-87723278D01*
X101317825Y-87749759D01*
X101194590Y-87878717D01*
X101188104Y-87886727D01*
X101068098Y-88062649D01*
X101063000Y-88071623D01*
X100973338Y-88264783D01*
X100969775Y-88274470D01*
X100914389Y-88474183D01*
X100915912Y-88482607D01*
X100928292Y-88486000D01*
X103568344Y-88486000D01*
X103581875Y-88482027D01*
X103583180Y-88472947D01*
X103541214Y-88305875D01*
X103537894Y-88296124D01*
X103452972Y-88100814D01*
X103448105Y-88091739D01*
X103332426Y-87912926D01*
X103326136Y-87904757D01*
X103182293Y-87746677D01*
X103151241Y-87682831D01*
X103159635Y-87612333D01*
X103204812Y-87557564D01*
X103231256Y-87543895D01*
X103338297Y-87503767D01*
X103346705Y-87500615D01*
X103463261Y-87413261D01*
X103550615Y-87296705D01*
X103601745Y-87160316D01*
X103608500Y-87098134D01*
X103608500Y-87084500D01*
X103628502Y-87016379D01*
X103682158Y-86969886D01*
X103734500Y-86958500D01*
X104765500Y-86958500D01*
X104833621Y-86978502D01*
X104880114Y-87032158D01*
X104891500Y-87084500D01*
X104891500Y-87098134D01*
X104898255Y-87160316D01*
X104949385Y-87296705D01*
X105036739Y-87413261D01*
X105153295Y-87500615D01*
X105161704Y-87503767D01*
X105161705Y-87503768D01*
X105270960Y-87544726D01*
X105327725Y-87587367D01*
X105352425Y-87653929D01*
X105337218Y-87723278D01*
X105317825Y-87749759D01*
X105194590Y-87878717D01*
X105188104Y-87886727D01*
X105068098Y-88062649D01*
X105063000Y-88071623D01*
X104973338Y-88264783D01*
X104969775Y-88274470D01*
X104914389Y-88474183D01*
X104915912Y-88482607D01*
X104928292Y-88486000D01*
X107568344Y-88486000D01*
X107581875Y-88482027D01*
X107583180Y-88472947D01*
X107541214Y-88305875D01*
X107537894Y-88296124D01*
X107452972Y-88100814D01*
X107448105Y-88091739D01*
X107332426Y-87912926D01*
X107326136Y-87904757D01*
X107182293Y-87746677D01*
X107151241Y-87682831D01*
X107159635Y-87612333D01*
X107204812Y-87557564D01*
X107231256Y-87543895D01*
X107338297Y-87503767D01*
X107346705Y-87500615D01*
X107463261Y-87413261D01*
X107550615Y-87296705D01*
X107601745Y-87160316D01*
X107608500Y-87098134D01*
X107608500Y-85301866D01*
X107601745Y-85239684D01*
X107550615Y-85103295D01*
X107463261Y-84986739D01*
X107394661Y-84935326D01*
X107352146Y-84878467D01*
X107347120Y-84807648D01*
X107381180Y-84745355D01*
X107443511Y-84711365D01*
X107470226Y-84708500D01*
X109029774Y-84708500D01*
X109097895Y-84728502D01*
X109144388Y-84782158D01*
X109154492Y-84852432D01*
X109124998Y-84917012D01*
X109105339Y-84935326D01*
X109036739Y-84986739D01*
X108949385Y-85103295D01*
X108898255Y-85239684D01*
X108891500Y-85301866D01*
X108891500Y-87098134D01*
X108898255Y-87160316D01*
X108949385Y-87296705D01*
X109036739Y-87413261D01*
X109153295Y-87500615D01*
X109161704Y-87503767D01*
X109161705Y-87503768D01*
X109270960Y-87544726D01*
X109327725Y-87587367D01*
X109352425Y-87653929D01*
X109337218Y-87723278D01*
X109317825Y-87749759D01*
X109194590Y-87878717D01*
X109188104Y-87886727D01*
X109068098Y-88062649D01*
X109063000Y-88071623D01*
X108973338Y-88264783D01*
X108969775Y-88274470D01*
X108914389Y-88474183D01*
X108915912Y-88482607D01*
X108928292Y-88486000D01*
X110378000Y-88486000D01*
X110446121Y-88506002D01*
X110492614Y-88559658D01*
X110504000Y-88612000D01*
X110504000Y-88868000D01*
X110483998Y-88936121D01*
X110430342Y-88982614D01*
X110378000Y-88994000D01*
X108933225Y-88994000D01*
X108919694Y-88997973D01*
X108918257Y-89007966D01*
X108948565Y-89142446D01*
X108951645Y-89152275D01*
X109031770Y-89349603D01*
X109036413Y-89358794D01*
X109147694Y-89540388D01*
X109153777Y-89548699D01*
X109293213Y-89709667D01*
X109300580Y-89716883D01*
X109464434Y-89852916D01*
X109472881Y-89858831D01*
X109541969Y-89899203D01*
X109590693Y-89950842D01*
X109603764Y-90020625D01*
X109577033Y-90086396D01*
X109536584Y-90119752D01*
X109523607Y-90126507D01*
X109519474Y-90129610D01*
X109519471Y-90129612D01*
X109349100Y-90257530D01*
X109344965Y-90260635D01*
X109190629Y-90422138D01*
X109187715Y-90426410D01*
X109187714Y-90426411D01*
X109116287Y-90531120D01*
X109064743Y-90606680D01*
X108970688Y-90809305D01*
X108910989Y-91024570D01*
X108887251Y-91246695D01*
X108887548Y-91251848D01*
X108887548Y-91251851D01*
X108893011Y-91346590D01*
X108900110Y-91469715D01*
X108901247Y-91474761D01*
X108901248Y-91474767D01*
X108921119Y-91562939D01*
X108949222Y-91687639D01*
X109009173Y-91835281D01*
X109029497Y-91885333D01*
X109033266Y-91894616D01*
X109078061Y-91967715D01*
X109147130Y-92080425D01*
X109149987Y-92085088D01*
X109296250Y-92253938D01*
X109468126Y-92396632D01*
X109661000Y-92509338D01*
X109869692Y-92589030D01*
X109874760Y-92590061D01*
X109874763Y-92590062D01*
X109979466Y-92611364D01*
X110088597Y-92633567D01*
X110093772Y-92633757D01*
X110093774Y-92633757D01*
X110306673Y-92641564D01*
X110306677Y-92641564D01*
X110311837Y-92641753D01*
X110316957Y-92641097D01*
X110316959Y-92641097D01*
X110528288Y-92614025D01*
X110528289Y-92614025D01*
X110533416Y-92613368D01*
X110540096Y-92611364D01*
X110742429Y-92550661D01*
X110742434Y-92550659D01*
X110747384Y-92549174D01*
X110947994Y-92450896D01*
X111129860Y-92321173D01*
X111288096Y-92163489D01*
X111347594Y-92080689D01*
X111415435Y-91986277D01*
X111418453Y-91982077D01*
X111422138Y-91974622D01*
X111515136Y-91786453D01*
X111515137Y-91786451D01*
X111517430Y-91781811D01*
X111582370Y-91568069D01*
X111611529Y-91346590D01*
X111613156Y-91280000D01*
X111609103Y-91230704D01*
X111601536Y-91138655D01*
X111615889Y-91069124D01*
X111665555Y-91018391D01*
X111734765Y-91002564D01*
X111801545Y-91026666D01*
X111813770Y-91036863D01*
X111820388Y-91043133D01*
X111822825Y-91045506D01*
X112516230Y-91738911D01*
X112528616Y-91753323D01*
X112537149Y-91764918D01*
X112537154Y-91764923D01*
X112541492Y-91770818D01*
X112547070Y-91775557D01*
X112547073Y-91775560D01*
X112581768Y-91805035D01*
X112589284Y-91811965D01*
X112594979Y-91817660D01*
X112597861Y-91819940D01*
X112617251Y-91835281D01*
X112620655Y-91838072D01*
X112670703Y-91880591D01*
X112676285Y-91885333D01*
X112682801Y-91888661D01*
X112687850Y-91892028D01*
X112692979Y-91895195D01*
X112698716Y-91899734D01*
X112764875Y-91930655D01*
X112768769Y-91932558D01*
X112833808Y-91965769D01*
X112840916Y-91967508D01*
X112846559Y-91969607D01*
X112852322Y-91971524D01*
X112858950Y-91974622D01*
X112866112Y-91976112D01*
X112866113Y-91976112D01*
X112930412Y-91989486D01*
X112934696Y-91990456D01*
X113005610Y-92007808D01*
X113011212Y-92008156D01*
X113011215Y-92008156D01*
X113016764Y-92008500D01*
X113016762Y-92008536D01*
X113020755Y-92008775D01*
X113024947Y-92009149D01*
X113032115Y-92010640D01*
X113109520Y-92008546D01*
X113112928Y-92008500D01*
X113378991Y-92008500D01*
X113447112Y-92028502D01*
X113493605Y-92082158D01*
X113495903Y-92087694D01*
X113496232Y-92088296D01*
X113499385Y-92096705D01*
X113586739Y-92213261D01*
X113703295Y-92300615D01*
X113839684Y-92351745D01*
X113901866Y-92358500D01*
X116998134Y-92358500D01*
X117060316Y-92351745D01*
X117196705Y-92300615D01*
X117313261Y-92213261D01*
X117400615Y-92096705D01*
X117403767Y-92088296D01*
X117408077Y-92080425D01*
X117409741Y-92081336D01*
X117445663Y-92033510D01*
X117512224Y-92008807D01*
X117521009Y-92008500D01*
X118328991Y-92008500D01*
X118397112Y-92028502D01*
X118443605Y-92082158D01*
X118445903Y-92087694D01*
X118446232Y-92088296D01*
X118449385Y-92096705D01*
X118536739Y-92213261D01*
X118653295Y-92300615D01*
X118789684Y-92351745D01*
X118851866Y-92358500D01*
X121948134Y-92358500D01*
X122010316Y-92351745D01*
X122146705Y-92300615D01*
X122263261Y-92213261D01*
X122350615Y-92096705D01*
X122353767Y-92088296D01*
X122358077Y-92080425D01*
X122359741Y-92081336D01*
X122395663Y-92033510D01*
X122462224Y-92008807D01*
X122471009Y-92008500D01*
X123278991Y-92008500D01*
X123347112Y-92028502D01*
X123393605Y-92082158D01*
X123395903Y-92087694D01*
X123396232Y-92088296D01*
X123399385Y-92096705D01*
X123486739Y-92213261D01*
X123603295Y-92300615D01*
X123739684Y-92351745D01*
X123801866Y-92358500D01*
X126898134Y-92358500D01*
X126960316Y-92351745D01*
X127096705Y-92300615D01*
X127213261Y-92213261D01*
X127300615Y-92096705D01*
X127351745Y-91960316D01*
X127358500Y-91898134D01*
X127358500Y-90601866D01*
X127351745Y-90539684D01*
X127300615Y-90403295D01*
X127213261Y-90286739D01*
X127096705Y-90199385D01*
X126960316Y-90148255D01*
X126898134Y-90141500D01*
X123801866Y-90141500D01*
X123739684Y-90148255D01*
X123603295Y-90199385D01*
X123486739Y-90286739D01*
X123399385Y-90403295D01*
X123396233Y-90411703D01*
X123391923Y-90419575D01*
X123390259Y-90418664D01*
X123354337Y-90466490D01*
X123287776Y-90491193D01*
X123278991Y-90491500D01*
X122471009Y-90491500D01*
X122402888Y-90471498D01*
X122356395Y-90417842D01*
X122354097Y-90412306D01*
X122353767Y-90411703D01*
X122350615Y-90403295D01*
X122263261Y-90286739D01*
X122146705Y-90199385D01*
X122010316Y-90148255D01*
X121948134Y-90141500D01*
X118851866Y-90141500D01*
X118789684Y-90148255D01*
X118653295Y-90199385D01*
X118536739Y-90286739D01*
X118449385Y-90403295D01*
X118446233Y-90411703D01*
X118441923Y-90419575D01*
X118440259Y-90418664D01*
X118404337Y-90466490D01*
X118337776Y-90491193D01*
X118328991Y-90491500D01*
X117521009Y-90491500D01*
X117452888Y-90471498D01*
X117406395Y-90417842D01*
X117404097Y-90412306D01*
X117403767Y-90411703D01*
X117400615Y-90403295D01*
X117313261Y-90286739D01*
X117196705Y-90199385D01*
X117060316Y-90148255D01*
X116998134Y-90141500D01*
X113901866Y-90141500D01*
X113839684Y-90148255D01*
X113703295Y-90199385D01*
X113586739Y-90286739D01*
X113581358Y-90293919D01*
X113512255Y-90386123D01*
X113455396Y-90428638D01*
X113384577Y-90433664D01*
X113322334Y-90399653D01*
X113145405Y-90222724D01*
X113111379Y-90160412D01*
X113108500Y-90133629D01*
X113108500Y-89394669D01*
X113442001Y-89394669D01*
X113442371Y-89401490D01*
X113447895Y-89452352D01*
X113451521Y-89467604D01*
X113496676Y-89588054D01*
X113505214Y-89603649D01*
X113581715Y-89705724D01*
X113594276Y-89718285D01*
X113696351Y-89794786D01*
X113711946Y-89803324D01*
X113832394Y-89848478D01*
X113847649Y-89852105D01*
X113898514Y-89857631D01*
X113905328Y-89858000D01*
X115177885Y-89858000D01*
X115193124Y-89853525D01*
X115194329Y-89852135D01*
X115196000Y-89844452D01*
X115196000Y-89839884D01*
X115704000Y-89839884D01*
X115708475Y-89855123D01*
X115709865Y-89856328D01*
X115717548Y-89857999D01*
X116994669Y-89857999D01*
X117001490Y-89857629D01*
X117052352Y-89852105D01*
X117067604Y-89848479D01*
X117188054Y-89803324D01*
X117203649Y-89794786D01*
X117305724Y-89718285D01*
X117318285Y-89705724D01*
X117394786Y-89603649D01*
X117403324Y-89588054D01*
X117448478Y-89467606D01*
X117452105Y-89452351D01*
X117457631Y-89401486D01*
X117458000Y-89394672D01*
X117458000Y-89394669D01*
X118392001Y-89394669D01*
X118392371Y-89401490D01*
X118397895Y-89452352D01*
X118401521Y-89467604D01*
X118446676Y-89588054D01*
X118455214Y-89603649D01*
X118531715Y-89705724D01*
X118544276Y-89718285D01*
X118646351Y-89794786D01*
X118661946Y-89803324D01*
X118782394Y-89848478D01*
X118797649Y-89852105D01*
X118848514Y-89857631D01*
X118855328Y-89858000D01*
X120127885Y-89858000D01*
X120143124Y-89853525D01*
X120144329Y-89852135D01*
X120146000Y-89844452D01*
X120146000Y-89839884D01*
X120654000Y-89839884D01*
X120658475Y-89855123D01*
X120659865Y-89856328D01*
X120667548Y-89857999D01*
X121944669Y-89857999D01*
X121951490Y-89857629D01*
X122002352Y-89852105D01*
X122017604Y-89848479D01*
X122138054Y-89803324D01*
X122153649Y-89794786D01*
X122255724Y-89718285D01*
X122268285Y-89705724D01*
X122344786Y-89603649D01*
X122353324Y-89588054D01*
X122398478Y-89467606D01*
X122402105Y-89452351D01*
X122407631Y-89401486D01*
X122408000Y-89394672D01*
X122408000Y-89394669D01*
X123342001Y-89394669D01*
X123342371Y-89401490D01*
X123347895Y-89452352D01*
X123351521Y-89467604D01*
X123396676Y-89588054D01*
X123405214Y-89603649D01*
X123481715Y-89705724D01*
X123494276Y-89718285D01*
X123596351Y-89794786D01*
X123611946Y-89803324D01*
X123732394Y-89848478D01*
X123747649Y-89852105D01*
X123798514Y-89857631D01*
X123805328Y-89858000D01*
X125077885Y-89858000D01*
X125093124Y-89853525D01*
X125094329Y-89852135D01*
X125096000Y-89844452D01*
X125096000Y-89839884D01*
X125604000Y-89839884D01*
X125608475Y-89855123D01*
X125609865Y-89856328D01*
X125617548Y-89857999D01*
X126894669Y-89857999D01*
X126901490Y-89857629D01*
X126952352Y-89852105D01*
X126967604Y-89848479D01*
X127088054Y-89803324D01*
X127103649Y-89794786D01*
X127205724Y-89718285D01*
X127218285Y-89705724D01*
X127294786Y-89603649D01*
X127303324Y-89588054D01*
X127348478Y-89467606D01*
X127352105Y-89452351D01*
X127357631Y-89401486D01*
X127358000Y-89394672D01*
X127358000Y-89022115D01*
X127353525Y-89006876D01*
X127352135Y-89005671D01*
X127344452Y-89004000D01*
X125622115Y-89004000D01*
X125606876Y-89008475D01*
X125605671Y-89009865D01*
X125604000Y-89017548D01*
X125604000Y-89839884D01*
X125096000Y-89839884D01*
X125096000Y-89022115D01*
X125091525Y-89006876D01*
X125090135Y-89005671D01*
X125082452Y-89004000D01*
X123360116Y-89004000D01*
X123344877Y-89008475D01*
X123343672Y-89009865D01*
X123342001Y-89017548D01*
X123342001Y-89394669D01*
X122408000Y-89394669D01*
X122408000Y-89022115D01*
X122403525Y-89006876D01*
X122402135Y-89005671D01*
X122394452Y-89004000D01*
X120672115Y-89004000D01*
X120656876Y-89008475D01*
X120655671Y-89009865D01*
X120654000Y-89017548D01*
X120654000Y-89839884D01*
X120146000Y-89839884D01*
X120146000Y-89022115D01*
X120141525Y-89006876D01*
X120140135Y-89005671D01*
X120132452Y-89004000D01*
X118410116Y-89004000D01*
X118394877Y-89008475D01*
X118393672Y-89009865D01*
X118392001Y-89017548D01*
X118392001Y-89394669D01*
X117458000Y-89394669D01*
X117458000Y-89022115D01*
X117453525Y-89006876D01*
X117452135Y-89005671D01*
X117444452Y-89004000D01*
X115722115Y-89004000D01*
X115706876Y-89008475D01*
X115705671Y-89009865D01*
X115704000Y-89017548D01*
X115704000Y-89839884D01*
X115196000Y-89839884D01*
X115196000Y-89022115D01*
X115191525Y-89006876D01*
X115190135Y-89005671D01*
X115182452Y-89004000D01*
X113460116Y-89004000D01*
X113444877Y-89008475D01*
X113443672Y-89009865D01*
X113442001Y-89017548D01*
X113442001Y-89394669D01*
X113108500Y-89394669D01*
X113108500Y-87925148D01*
X113128502Y-87857027D01*
X113182158Y-87810534D01*
X113252432Y-87800430D01*
X113285748Y-87810041D01*
X113390866Y-87856842D01*
X113444962Y-87902822D01*
X113465612Y-87970749D01*
X113457601Y-88016176D01*
X113451522Y-88032392D01*
X113447895Y-88047649D01*
X113442369Y-88098514D01*
X113442000Y-88105328D01*
X113442000Y-88477885D01*
X113446475Y-88493124D01*
X113447865Y-88494329D01*
X113455548Y-88496000D01*
X115177885Y-88496000D01*
X115193124Y-88491525D01*
X115194329Y-88490135D01*
X115196000Y-88482452D01*
X115196000Y-88477885D01*
X115704000Y-88477885D01*
X115708475Y-88493124D01*
X115709865Y-88494329D01*
X115717548Y-88496000D01*
X117439884Y-88496000D01*
X117455123Y-88491525D01*
X117456328Y-88490135D01*
X117457999Y-88482452D01*
X117457999Y-88477885D01*
X118392000Y-88477885D01*
X118396475Y-88493124D01*
X118397865Y-88494329D01*
X118405548Y-88496000D01*
X120127885Y-88496000D01*
X120143124Y-88491525D01*
X120144329Y-88490135D01*
X120146000Y-88482452D01*
X120146000Y-88477885D01*
X120654000Y-88477885D01*
X120658475Y-88493124D01*
X120659865Y-88494329D01*
X120667548Y-88496000D01*
X122389884Y-88496000D01*
X122405123Y-88491525D01*
X122406328Y-88490135D01*
X122407999Y-88482452D01*
X122407999Y-88477885D01*
X123342000Y-88477885D01*
X123346475Y-88493124D01*
X123347865Y-88494329D01*
X123355548Y-88496000D01*
X125077885Y-88496000D01*
X125093124Y-88491525D01*
X125094329Y-88490135D01*
X125096000Y-88482452D01*
X125096000Y-88477885D01*
X125604000Y-88477885D01*
X125608475Y-88493124D01*
X125609865Y-88494329D01*
X125617548Y-88496000D01*
X127339884Y-88496000D01*
X127355123Y-88491525D01*
X127356328Y-88490135D01*
X127357999Y-88482452D01*
X127357999Y-88105331D01*
X127357629Y-88098510D01*
X127352105Y-88047648D01*
X127348479Y-88032396D01*
X127303324Y-87911946D01*
X127294786Y-87896351D01*
X127218285Y-87794276D01*
X127205724Y-87781715D01*
X127103649Y-87705214D01*
X127088054Y-87696676D01*
X126967606Y-87651522D01*
X126952351Y-87647895D01*
X126901486Y-87642369D01*
X126894672Y-87642000D01*
X125622115Y-87642000D01*
X125606876Y-87646475D01*
X125605671Y-87647865D01*
X125604000Y-87655548D01*
X125604000Y-88477885D01*
X125096000Y-88477885D01*
X125096000Y-87660116D01*
X125091525Y-87644877D01*
X125090135Y-87643672D01*
X125082452Y-87642001D01*
X123805331Y-87642001D01*
X123798510Y-87642371D01*
X123747648Y-87647895D01*
X123732396Y-87651521D01*
X123611946Y-87696676D01*
X123596351Y-87705214D01*
X123494276Y-87781715D01*
X123481715Y-87794276D01*
X123405214Y-87896351D01*
X123396676Y-87911946D01*
X123351522Y-88032394D01*
X123347895Y-88047649D01*
X123342369Y-88098514D01*
X123342000Y-88105328D01*
X123342000Y-88477885D01*
X122407999Y-88477885D01*
X122407999Y-88105331D01*
X122407629Y-88098510D01*
X122402105Y-88047648D01*
X122398479Y-88032396D01*
X122353324Y-87911946D01*
X122344786Y-87896351D01*
X122268285Y-87794276D01*
X122255724Y-87781715D01*
X122153649Y-87705214D01*
X122138054Y-87696676D01*
X122017606Y-87651522D01*
X122002351Y-87647895D01*
X121951486Y-87642369D01*
X121944672Y-87642000D01*
X120672115Y-87642000D01*
X120656876Y-87646475D01*
X120655671Y-87647865D01*
X120654000Y-87655548D01*
X120654000Y-88477885D01*
X120146000Y-88477885D01*
X120146000Y-87660116D01*
X120141525Y-87644877D01*
X120140135Y-87643672D01*
X120132452Y-87642001D01*
X118855331Y-87642001D01*
X118848510Y-87642371D01*
X118797648Y-87647895D01*
X118782396Y-87651521D01*
X118661946Y-87696676D01*
X118646351Y-87705214D01*
X118544276Y-87781715D01*
X118531715Y-87794276D01*
X118455214Y-87896351D01*
X118446676Y-87911946D01*
X118401522Y-88032394D01*
X118397895Y-88047649D01*
X118392369Y-88098514D01*
X118392000Y-88105328D01*
X118392000Y-88477885D01*
X117457999Y-88477885D01*
X117457999Y-88105331D01*
X117457629Y-88098510D01*
X117452105Y-88047648D01*
X117448479Y-88032396D01*
X117403324Y-87911946D01*
X117394786Y-87896351D01*
X117318285Y-87794276D01*
X117305724Y-87781715D01*
X117203649Y-87705214D01*
X117188054Y-87696676D01*
X117067606Y-87651522D01*
X117052351Y-87647895D01*
X117001486Y-87642369D01*
X116994672Y-87642000D01*
X115722115Y-87642000D01*
X115706876Y-87646475D01*
X115705671Y-87647865D01*
X115704000Y-87655548D01*
X115704000Y-88477885D01*
X115196000Y-88477885D01*
X115196000Y-87660116D01*
X115191525Y-87644877D01*
X115190135Y-87643672D01*
X115182452Y-87642001D01*
X114596624Y-87642001D01*
X114528503Y-87621999D01*
X114482010Y-87568343D01*
X114471906Y-87498069D01*
X114487505Y-87453001D01*
X114531223Y-87377279D01*
X114531224Y-87377278D01*
X114534527Y-87371556D01*
X114593542Y-87189928D01*
X114613504Y-87000000D01*
X114612814Y-86993435D01*
X114594232Y-86816635D01*
X114594232Y-86816633D01*
X114593542Y-86810072D01*
X114534527Y-86628444D01*
X114475381Y-86526000D01*
X114458500Y-86463001D01*
X114458500Y-86371236D01*
X114478502Y-86303115D01*
X114484537Y-86294532D01*
X114531557Y-86233254D01*
X114536584Y-86226703D01*
X114593868Y-86088408D01*
X114608500Y-85977265D01*
X114608499Y-85513763D01*
X115192001Y-85513763D01*
X115192539Y-85521975D01*
X115205799Y-85622701D01*
X115210037Y-85638516D01*
X115261958Y-85763864D01*
X115270145Y-85778045D01*
X115352743Y-85885690D01*
X115364310Y-85897257D01*
X115471955Y-85979855D01*
X115486136Y-85988042D01*
X115611483Y-86039963D01*
X115627301Y-86044201D01*
X115728026Y-86057462D01*
X115736235Y-86058000D01*
X115777885Y-86058000D01*
X115793124Y-86053525D01*
X115794329Y-86052135D01*
X115796000Y-86044452D01*
X115796000Y-86039884D01*
X116304000Y-86039884D01*
X116308475Y-86055123D01*
X116309865Y-86056328D01*
X116317548Y-86057999D01*
X116363763Y-86057999D01*
X116371975Y-86057461D01*
X116472701Y-86044201D01*
X116488516Y-86039963D01*
X116613864Y-85988042D01*
X116628045Y-85979855D01*
X116735690Y-85897257D01*
X116747257Y-85885690D01*
X116829855Y-85778045D01*
X116838042Y-85763864D01*
X116889963Y-85638517D01*
X116894201Y-85622699D01*
X116907462Y-85521974D01*
X116908000Y-85513765D01*
X116908000Y-85322115D01*
X116903525Y-85306876D01*
X116902135Y-85305671D01*
X116894452Y-85304000D01*
X116322115Y-85304000D01*
X116306876Y-85308475D01*
X116305671Y-85309865D01*
X116304000Y-85317548D01*
X116304000Y-86039884D01*
X115796000Y-86039884D01*
X115796000Y-85322115D01*
X115791525Y-85306876D01*
X115790135Y-85305671D01*
X115782452Y-85304000D01*
X115210116Y-85304000D01*
X115194877Y-85308475D01*
X115193672Y-85309865D01*
X115192001Y-85317548D01*
X115192001Y-85513763D01*
X114608499Y-85513763D01*
X114608499Y-85422736D01*
X114598398Y-85346000D01*
X114594946Y-85319779D01*
X114594945Y-85319777D01*
X114593868Y-85311592D01*
X114536584Y-85173297D01*
X114500830Y-85126702D01*
X114475231Y-85060484D01*
X114489496Y-84990935D01*
X114500827Y-84973302D01*
X114536584Y-84926703D01*
X114593868Y-84788408D01*
X114595253Y-84777885D01*
X115192000Y-84777885D01*
X115196475Y-84793124D01*
X115197865Y-84794329D01*
X115205548Y-84796000D01*
X115777885Y-84796000D01*
X115793124Y-84791525D01*
X115794329Y-84790135D01*
X115796000Y-84782452D01*
X115796000Y-84777885D01*
X116304000Y-84777885D01*
X116308475Y-84793124D01*
X116309865Y-84794329D01*
X116317548Y-84796000D01*
X116889884Y-84796000D01*
X116905123Y-84791525D01*
X116906328Y-84790135D01*
X116907999Y-84782452D01*
X116907999Y-84586237D01*
X116907461Y-84578025D01*
X116894201Y-84477299D01*
X116889963Y-84461484D01*
X116838042Y-84336136D01*
X116829855Y-84321955D01*
X116747257Y-84214310D01*
X116735690Y-84202743D01*
X116628045Y-84120145D01*
X116613864Y-84111958D01*
X116488517Y-84060037D01*
X116472699Y-84055799D01*
X116371974Y-84042538D01*
X116363765Y-84042000D01*
X116322115Y-84042000D01*
X116306876Y-84046475D01*
X116305671Y-84047865D01*
X116304000Y-84055548D01*
X116304000Y-84777885D01*
X115796000Y-84777885D01*
X115796000Y-84060116D01*
X115791525Y-84044877D01*
X115790135Y-84043672D01*
X115782452Y-84042001D01*
X115736237Y-84042001D01*
X115728025Y-84042539D01*
X115627299Y-84055799D01*
X115611484Y-84060037D01*
X115486136Y-84111958D01*
X115471955Y-84120145D01*
X115364310Y-84202743D01*
X115352743Y-84214310D01*
X115270145Y-84321955D01*
X115261958Y-84336136D01*
X115210037Y-84461483D01*
X115205799Y-84477301D01*
X115192538Y-84578026D01*
X115192000Y-84586235D01*
X115192000Y-84777885D01*
X114595253Y-84777885D01*
X114604030Y-84711221D01*
X114607962Y-84681352D01*
X114607962Y-84681351D01*
X114608500Y-84677265D01*
X114608499Y-84122736D01*
X114607081Y-84111958D01*
X114594946Y-84019779D01*
X114594945Y-84019777D01*
X114593868Y-84011592D01*
X114536584Y-83873297D01*
X114445459Y-83754541D01*
X114326703Y-83663416D01*
X114188408Y-83606132D01*
X114180220Y-83605054D01*
X114081352Y-83592038D01*
X114081351Y-83592038D01*
X114077265Y-83591500D01*
X113700046Y-83591500D01*
X113322736Y-83591501D01*
X113318652Y-83592039D01*
X113318646Y-83592039D01*
X113219779Y-83605054D01*
X113219777Y-83605055D01*
X113211592Y-83606132D01*
X113073297Y-83663416D01*
X112954541Y-83754541D01*
X112949515Y-83761091D01*
X112878182Y-83854053D01*
X112820844Y-83895920D01*
X112749973Y-83900142D01*
X112689125Y-83866444D01*
X112322681Y-83500000D01*
X117136496Y-83500000D01*
X117137186Y-83506565D01*
X117153672Y-83663416D01*
X117156458Y-83689928D01*
X117215473Y-83871556D01*
X117218776Y-83877278D01*
X117218777Y-83877279D01*
X117231977Y-83900142D01*
X117310960Y-84036944D01*
X117315378Y-84041851D01*
X117315379Y-84041852D01*
X117372113Y-84104861D01*
X117438747Y-84178866D01*
X117537843Y-84250864D01*
X117576235Y-84278757D01*
X117593248Y-84291118D01*
X117599276Y-84293802D01*
X117599278Y-84293803D01*
X117757097Y-84364068D01*
X117767712Y-84368794D01*
X117854046Y-84387145D01*
X117948056Y-84407128D01*
X117948061Y-84407128D01*
X117954513Y-84408500D01*
X118145487Y-84408500D01*
X118151939Y-84407128D01*
X118151944Y-84407128D01*
X118290660Y-84377642D01*
X118332288Y-84368794D01*
X118338324Y-84366107D01*
X118344598Y-84364068D01*
X118345049Y-84365457D01*
X118407886Y-84357035D01*
X118472181Y-84387145D01*
X118495902Y-84415267D01*
X118501522Y-84424348D01*
X118506704Y-84429521D01*
X118506708Y-84429526D01*
X118538108Y-84460871D01*
X118572188Y-84523153D01*
X118567185Y-84593973D01*
X118538265Y-84639061D01*
X118537895Y-84639432D01*
X118500695Y-84676697D01*
X118496855Y-84682927D01*
X118496854Y-84682928D01*
X118429914Y-84791525D01*
X118407885Y-84827262D01*
X118352203Y-84995139D01*
X118341500Y-85099600D01*
X118341500Y-86100400D01*
X118341837Y-86103646D01*
X118341837Y-86103650D01*
X118351618Y-86197914D01*
X118352474Y-86206166D01*
X118354655Y-86212702D01*
X118354655Y-86212704D01*
X118361511Y-86233254D01*
X118408450Y-86373946D01*
X118501522Y-86524348D01*
X118626697Y-86649305D01*
X118632927Y-86653145D01*
X118632928Y-86653146D01*
X118770288Y-86737816D01*
X118777262Y-86742115D01*
X118857005Y-86768564D01*
X118938611Y-86795632D01*
X118938613Y-86795632D01*
X118945139Y-86797797D01*
X118951975Y-86798497D01*
X118951978Y-86798498D01*
X118995031Y-86802909D01*
X119049600Y-86808500D01*
X119850400Y-86808500D01*
X119853646Y-86808163D01*
X119853650Y-86808163D01*
X119949308Y-86798238D01*
X119949312Y-86798237D01*
X119956166Y-86797526D01*
X119962702Y-86795345D01*
X119962704Y-86795345D01*
X120094806Y-86751272D01*
X120123946Y-86741550D01*
X120274348Y-86648478D01*
X120361137Y-86561537D01*
X120423421Y-86527458D01*
X120494241Y-86532461D01*
X120539329Y-86561382D01*
X120621829Y-86643739D01*
X120633240Y-86652751D01*
X120771243Y-86737816D01*
X120784424Y-86743963D01*
X120938710Y-86795138D01*
X120952086Y-86798005D01*
X121046438Y-86807672D01*
X121052854Y-86808000D01*
X121177885Y-86808000D01*
X121193124Y-86803525D01*
X121194329Y-86802135D01*
X121196000Y-86794452D01*
X121196000Y-86789884D01*
X121704000Y-86789884D01*
X121708475Y-86805123D01*
X121709865Y-86806328D01*
X121717548Y-86807999D01*
X121847095Y-86807999D01*
X121853614Y-86807662D01*
X121949206Y-86797743D01*
X121962600Y-86794851D01*
X122116784Y-86743412D01*
X122129962Y-86737239D01*
X122267807Y-86651937D01*
X122279208Y-86642901D01*
X122393739Y-86528171D01*
X122402751Y-86516760D01*
X122487816Y-86378757D01*
X122493963Y-86365576D01*
X122545138Y-86211290D01*
X122548005Y-86197914D01*
X122557672Y-86103562D01*
X122558000Y-86097146D01*
X122558000Y-85872115D01*
X122553525Y-85856876D01*
X122552135Y-85855671D01*
X122544452Y-85854000D01*
X121722115Y-85854000D01*
X121706876Y-85858475D01*
X121705671Y-85859865D01*
X121704000Y-85867548D01*
X121704000Y-86789884D01*
X121196000Y-86789884D01*
X121196000Y-85327885D01*
X121704000Y-85327885D01*
X121708475Y-85343124D01*
X121709865Y-85344329D01*
X121717548Y-85346000D01*
X122539884Y-85346000D01*
X122555123Y-85341525D01*
X122556328Y-85340135D01*
X122557999Y-85332452D01*
X122557999Y-85102905D01*
X122557662Y-85096386D01*
X122547743Y-85000794D01*
X122544851Y-84987400D01*
X122493412Y-84833216D01*
X122487239Y-84820038D01*
X122401937Y-84682193D01*
X122392901Y-84670792D01*
X122361183Y-84639129D01*
X122327104Y-84576846D01*
X122332107Y-84506026D01*
X122361029Y-84460937D01*
X122393739Y-84428171D01*
X122402751Y-84416760D01*
X122487816Y-84278757D01*
X122493963Y-84265576D01*
X122545138Y-84111290D01*
X122548005Y-84097914D01*
X122557672Y-84003562D01*
X122558000Y-83997146D01*
X122558000Y-83772115D01*
X122553525Y-83756876D01*
X122552135Y-83755671D01*
X122544452Y-83754000D01*
X121722115Y-83754000D01*
X121706876Y-83758475D01*
X121705671Y-83759865D01*
X121704000Y-83767548D01*
X121704000Y-85327885D01*
X121196000Y-85327885D01*
X121196000Y-82591115D01*
X121191525Y-82575876D01*
X121172111Y-82559053D01*
X121145405Y-82544471D01*
X121111380Y-82482159D01*
X121108500Y-82455375D01*
X121108500Y-82233885D01*
X121616500Y-82233885D01*
X121620975Y-82249124D01*
X121640389Y-82265947D01*
X121667095Y-82280529D01*
X121701120Y-82342841D01*
X121704000Y-82369625D01*
X121704000Y-83227885D01*
X121708475Y-83243124D01*
X121709865Y-83244329D01*
X121717548Y-83246000D01*
X122539884Y-83246000D01*
X122555123Y-83241525D01*
X122556328Y-83240135D01*
X122557999Y-83232452D01*
X122557999Y-83002905D01*
X122557662Y-82996386D01*
X122547743Y-82900794D01*
X122544851Y-82887400D01*
X122493412Y-82733216D01*
X122487239Y-82720038D01*
X122401937Y-82582193D01*
X122392901Y-82570792D01*
X122278171Y-82456261D01*
X122266759Y-82447249D01*
X122239313Y-82430331D01*
X122191818Y-82377559D01*
X122180394Y-82307488D01*
X122202953Y-82253566D01*
X122201534Y-82252691D01*
X122288912Y-82110937D01*
X122295056Y-82097759D01*
X122345315Y-81946234D01*
X122348181Y-81932868D01*
X122357672Y-81840230D01*
X122358000Y-81833815D01*
X122358000Y-81822115D01*
X122353525Y-81806876D01*
X122352135Y-81805671D01*
X122344452Y-81804000D01*
X121634615Y-81804000D01*
X121619376Y-81808475D01*
X121618171Y-81809865D01*
X121616500Y-81817548D01*
X121616500Y-82233885D01*
X121108500Y-82233885D01*
X121108500Y-81277885D01*
X121616500Y-81277885D01*
X121620975Y-81293124D01*
X121622365Y-81294329D01*
X121630048Y-81296000D01*
X122339885Y-81296000D01*
X122355124Y-81291525D01*
X122356329Y-81290135D01*
X122358000Y-81282452D01*
X122358000Y-81266234D01*
X122357663Y-81259718D01*
X122347925Y-81165868D01*
X122345032Y-81152472D01*
X122294512Y-81001047D01*
X122288347Y-80987885D01*
X122204574Y-80852508D01*
X122195540Y-80841110D01*
X122082871Y-80728637D01*
X122071460Y-80719625D01*
X121935937Y-80636088D01*
X121922759Y-80629944D01*
X121771234Y-80579685D01*
X121757868Y-80576819D01*
X121665230Y-80567328D01*
X121658815Y-80567000D01*
X121634615Y-80567000D01*
X121619376Y-80571475D01*
X121618171Y-80572865D01*
X121616500Y-80580548D01*
X121616500Y-81277885D01*
X121108500Y-81277885D01*
X121108500Y-80585115D01*
X121104025Y-80569876D01*
X121102635Y-80568671D01*
X121094952Y-80567000D01*
X121066234Y-80567000D01*
X121059718Y-80567337D01*
X120965868Y-80577075D01*
X120952472Y-80579968D01*
X120801047Y-80630488D01*
X120787885Y-80636653D01*
X120652508Y-80720426D01*
X120641110Y-80729460D01*
X120539607Y-80831140D01*
X120477324Y-80865219D01*
X120406504Y-80860216D01*
X120361416Y-80831295D01*
X120258183Y-80728242D01*
X120253003Y-80723071D01*
X120104920Y-80631791D01*
X119939809Y-80577026D01*
X119932973Y-80576326D01*
X119932970Y-80576325D01*
X119881474Y-80571049D01*
X119837072Y-80566500D01*
X119237928Y-80566500D01*
X119234682Y-80566837D01*
X119234678Y-80566837D01*
X119140765Y-80576581D01*
X119140761Y-80576582D01*
X119133907Y-80577293D01*
X119127371Y-80579474D01*
X119127369Y-80579474D01*
X118994605Y-80623768D01*
X118968893Y-80632346D01*
X118820969Y-80723884D01*
X118815796Y-80729066D01*
X118703242Y-80841816D01*
X118703238Y-80841821D01*
X118698071Y-80846997D01*
X118606791Y-80995080D01*
X118552026Y-81160191D01*
X118541500Y-81262928D01*
X118541500Y-81837072D01*
X118541837Y-81840318D01*
X118541837Y-81840322D01*
X118551440Y-81932868D01*
X118552293Y-81941093D01*
X118607346Y-82106107D01*
X118684099Y-82230138D01*
X118702936Y-82298588D01*
X118699344Y-82326383D01*
X118692192Y-82355610D01*
X118691993Y-82358819D01*
X118662291Y-82422471D01*
X118634050Y-82446324D01*
X118631881Y-82447667D01*
X118631879Y-82447669D01*
X118625652Y-82451522D01*
X118500695Y-82576697D01*
X118495897Y-82584481D01*
X118494966Y-82585319D01*
X118492317Y-82588673D01*
X118491743Y-82588220D01*
X118443129Y-82631975D01*
X118373058Y-82643402D01*
X118344734Y-82635520D01*
X118344600Y-82635932D01*
X118338320Y-82633892D01*
X118332288Y-82631206D01*
X118238887Y-82611353D01*
X118151944Y-82592872D01*
X118151939Y-82592872D01*
X118145487Y-82591500D01*
X117954513Y-82591500D01*
X117948061Y-82592872D01*
X117948056Y-82592872D01*
X117861113Y-82611353D01*
X117767712Y-82631206D01*
X117761682Y-82633891D01*
X117761681Y-82633891D01*
X117599278Y-82706197D01*
X117599276Y-82706198D01*
X117593248Y-82708882D01*
X117438747Y-82821134D01*
X117310960Y-82963056D01*
X117215473Y-83128444D01*
X117156458Y-83310072D01*
X117155768Y-83316633D01*
X117155768Y-83316635D01*
X117143939Y-83429182D01*
X117136496Y-83500000D01*
X112322681Y-83500000D01*
X112283770Y-83461089D01*
X112271384Y-83446677D01*
X112262851Y-83435082D01*
X112262846Y-83435077D01*
X112258508Y-83429182D01*
X112252930Y-83424443D01*
X112252927Y-83424440D01*
X112218232Y-83394965D01*
X112210716Y-83388035D01*
X112205021Y-83382340D01*
X112188736Y-83369456D01*
X112182749Y-83364719D01*
X112179345Y-83361928D01*
X112129297Y-83319409D01*
X112129295Y-83319408D01*
X112123715Y-83314667D01*
X112117199Y-83311339D01*
X112112150Y-83307972D01*
X112107021Y-83304805D01*
X112101284Y-83300266D01*
X112035125Y-83269345D01*
X112031225Y-83267439D01*
X111966192Y-83234231D01*
X111959084Y-83232492D01*
X111953441Y-83230393D01*
X111947678Y-83228476D01*
X111941050Y-83225378D01*
X111869583Y-83210513D01*
X111865299Y-83209543D01*
X111830958Y-83201140D01*
X111794390Y-83192192D01*
X111788788Y-83191844D01*
X111788785Y-83191844D01*
X111783236Y-83191500D01*
X111783238Y-83191464D01*
X111779245Y-83191225D01*
X111775053Y-83190851D01*
X111767885Y-83189360D01*
X111704120Y-83191085D01*
X111690479Y-83191454D01*
X111687072Y-83191500D01*
X107067069Y-83191500D01*
X107048121Y-83190067D01*
X107040780Y-83188950D01*
X107033883Y-83187901D01*
X107033881Y-83187901D01*
X107026651Y-83186801D01*
X107019359Y-83187394D01*
X107019356Y-83187394D01*
X106973982Y-83191085D01*
X106963767Y-83191500D01*
X106955707Y-83191500D01*
X106942417Y-83193049D01*
X106927493Y-83194789D01*
X106923118Y-83195222D01*
X106857661Y-83200546D01*
X106857658Y-83200547D01*
X106850363Y-83201140D01*
X106843399Y-83203396D01*
X106837440Y-83204587D01*
X106831585Y-83205971D01*
X106824319Y-83206818D01*
X106755673Y-83231735D01*
X106751545Y-83233152D01*
X106689064Y-83253393D01*
X106689062Y-83253394D01*
X106682101Y-83255649D01*
X106675846Y-83259445D01*
X106670372Y-83261951D01*
X106664942Y-83264670D01*
X106658063Y-83267167D01*
X106651943Y-83271180D01*
X106651942Y-83271180D01*
X106597024Y-83307186D01*
X106593320Y-83309523D01*
X106530893Y-83347405D01*
X106522516Y-83354803D01*
X106522492Y-83354776D01*
X106519500Y-83357429D01*
X106516267Y-83360132D01*
X106510148Y-83364144D01*
X106480951Y-83394965D01*
X106456872Y-83420383D01*
X106454494Y-83422825D01*
X105761089Y-84116230D01*
X105746677Y-84128616D01*
X105735082Y-84137149D01*
X105735077Y-84137154D01*
X105729182Y-84141492D01*
X105724443Y-84147070D01*
X105724440Y-84147073D01*
X105694965Y-84181768D01*
X105688035Y-84189284D01*
X105682340Y-84194979D01*
X105680060Y-84197861D01*
X105664719Y-84217251D01*
X105661928Y-84220655D01*
X105623765Y-84265576D01*
X105614667Y-84276285D01*
X105611339Y-84282801D01*
X105607972Y-84287850D01*
X105604805Y-84292979D01*
X105600266Y-84298716D01*
X105569345Y-84364875D01*
X105567442Y-84368769D01*
X105534231Y-84433808D01*
X105532492Y-84440916D01*
X105530393Y-84446559D01*
X105528476Y-84452322D01*
X105525378Y-84458950D01*
X105523888Y-84466112D01*
X105523888Y-84466113D01*
X105510514Y-84530412D01*
X105509544Y-84534696D01*
X105492192Y-84605610D01*
X105491500Y-84616764D01*
X105491464Y-84616762D01*
X105491225Y-84620755D01*
X105490851Y-84624947D01*
X105489360Y-84632115D01*
X105489558Y-84639432D01*
X105491454Y-84709521D01*
X105491500Y-84712928D01*
X105491500Y-84715500D01*
X105471498Y-84783621D01*
X105417842Y-84830114D01*
X105365500Y-84841500D01*
X105351866Y-84841500D01*
X105289684Y-84848255D01*
X105153295Y-84899385D01*
X105036739Y-84986739D01*
X104949385Y-85103295D01*
X104898255Y-85239684D01*
X104891500Y-85301866D01*
X104891500Y-85315500D01*
X104871498Y-85383621D01*
X104817842Y-85430114D01*
X104765500Y-85441500D01*
X103734500Y-85441500D01*
X103666379Y-85421498D01*
X103619886Y-85367842D01*
X103608500Y-85315500D01*
X103608500Y-85301866D01*
X103601745Y-85239684D01*
X103550615Y-85103295D01*
X103463261Y-84986739D01*
X103346705Y-84899385D01*
X103210316Y-84848255D01*
X103148134Y-84841500D01*
X101351866Y-84841500D01*
X101289684Y-84848255D01*
X101153295Y-84899385D01*
X101036739Y-84986739D01*
X100949385Y-85103295D01*
X100898255Y-85239684D01*
X100891500Y-85301866D01*
X100891500Y-87098134D01*
X100508500Y-87098134D01*
X100508500Y-80581278D01*
X100528502Y-80513157D01*
X100582158Y-80466664D01*
X100623489Y-80455760D01*
X127854491Y-78067076D01*
X127924098Y-78081049D01*
G37*
%TD.AperFunction*%
%TD*%
M02*
