%TF.GenerationSoftware,KiCad,Pcbnew,(6.0.5)*%
%TF.CreationDate,2023-08-08T13:15:34+01:00*%
%TF.ProjectId,Melty-daughter,4d656c74-792d-4646-9175-67687465722e,rev?*%
%TF.SameCoordinates,Original*%
%TF.FileFunction,Legend,Top*%
%TF.FilePolarity,Positive*%
%FSLAX46Y46*%
G04 Gerber Fmt 4.6, Leading zero omitted, Abs format (unit mm)*
G04 Created by KiCad (PCBNEW (6.0.5)) date 2023-08-08 13:15:34*
%MOMM*%
%LPD*%
G01*
G04 APERTURE LIST*
%ADD10C,0.150000*%
%ADD11C,0.120000*%
%ADD12C,0.200000*%
%ADD13C,0.100000*%
G04 APERTURE END LIST*
D10*
X123528571Y-94152380D02*
X123528571Y-93152380D01*
X124576190Y-94152380D02*
X124242857Y-93676190D01*
X124004761Y-94152380D02*
X124004761Y-93152380D01*
X124385714Y-93152380D01*
X124480952Y-93200000D01*
X124528571Y-93247619D01*
X124576190Y-93342857D01*
X124576190Y-93485714D01*
X124528571Y-93580952D01*
X124480952Y-93628571D01*
X124385714Y-93676190D01*
X124004761Y-93676190D01*
X124766666Y-94247619D02*
X125528571Y-94247619D01*
X125909523Y-94152380D02*
X125814285Y-94104761D01*
X125766666Y-94057142D01*
X125719047Y-93961904D01*
X125719047Y-93676190D01*
X125766666Y-93580952D01*
X125814285Y-93533333D01*
X125909523Y-93485714D01*
X126052380Y-93485714D01*
X126147619Y-93533333D01*
X126195238Y-93580952D01*
X126242857Y-93676190D01*
X126242857Y-93961904D01*
X126195238Y-94057142D01*
X126147619Y-94104761D01*
X126052380Y-94152380D01*
X125909523Y-94152380D01*
X127100000Y-93485714D02*
X127100000Y-94152380D01*
X126671428Y-93485714D02*
X126671428Y-94009523D01*
X126719047Y-94104761D01*
X126814285Y-94152380D01*
X126957142Y-94152380D01*
X127052380Y-94104761D01*
X127100000Y-94057142D01*
X127433333Y-93485714D02*
X127814285Y-93485714D01*
X127576190Y-93152380D02*
X127576190Y-94009523D01*
X127623809Y-94104761D01*
X127719047Y-94152380D01*
X127814285Y-94152380D01*
%TO.C,RV3*%
X105554761Y-99902380D02*
X105221428Y-99426190D01*
X104983333Y-99902380D02*
X104983333Y-98902380D01*
X105364285Y-98902380D01*
X105459523Y-98950000D01*
X105507142Y-98997619D01*
X105554761Y-99092857D01*
X105554761Y-99235714D01*
X105507142Y-99330952D01*
X105459523Y-99378571D01*
X105364285Y-99426190D01*
X104983333Y-99426190D01*
X105840476Y-98902380D02*
X106173809Y-99902380D01*
X106507142Y-98902380D01*
X106745238Y-98902380D02*
X107364285Y-98902380D01*
X107030952Y-99283333D01*
X107173809Y-99283333D01*
X107269047Y-99330952D01*
X107316666Y-99378571D01*
X107364285Y-99473809D01*
X107364285Y-99711904D01*
X107316666Y-99807142D01*
X107269047Y-99854761D01*
X107173809Y-99902380D01*
X106888095Y-99902380D01*
X106792857Y-99854761D01*
X106745238Y-99807142D01*
%TO.C,R3*%
X113233333Y-98452380D02*
X112900000Y-97976190D01*
X112661904Y-98452380D02*
X112661904Y-97452380D01*
X113042857Y-97452380D01*
X113138095Y-97500000D01*
X113185714Y-97547619D01*
X113233333Y-97642857D01*
X113233333Y-97785714D01*
X113185714Y-97880952D01*
X113138095Y-97928571D01*
X113042857Y-97976190D01*
X112661904Y-97976190D01*
X113566666Y-97452380D02*
X114185714Y-97452380D01*
X113852380Y-97833333D01*
X113995238Y-97833333D01*
X114090476Y-97880952D01*
X114138095Y-97928571D01*
X114185714Y-98023809D01*
X114185714Y-98261904D01*
X114138095Y-98357142D01*
X114090476Y-98404761D01*
X113995238Y-98452380D01*
X113709523Y-98452380D01*
X113614285Y-98404761D01*
X113566666Y-98357142D01*
%TO.C,R2*%
X123183333Y-86052380D02*
X122850000Y-85576190D01*
X122611904Y-86052380D02*
X122611904Y-85052380D01*
X122992857Y-85052380D01*
X123088095Y-85100000D01*
X123135714Y-85147619D01*
X123183333Y-85242857D01*
X123183333Y-85385714D01*
X123135714Y-85480952D01*
X123088095Y-85528571D01*
X122992857Y-85576190D01*
X122611904Y-85576190D01*
X123564285Y-85147619D02*
X123611904Y-85100000D01*
X123707142Y-85052380D01*
X123945238Y-85052380D01*
X124040476Y-85100000D01*
X124088095Y-85147619D01*
X124135714Y-85242857D01*
X124135714Y-85338095D01*
X124088095Y-85480952D01*
X123516666Y-86052380D01*
X124135714Y-86052380D01*
%TO.C,RV1*%
X114504761Y-83602380D02*
X114171428Y-83126190D01*
X113933333Y-83602380D02*
X113933333Y-82602380D01*
X114314285Y-82602380D01*
X114409523Y-82650000D01*
X114457142Y-82697619D01*
X114504761Y-82792857D01*
X114504761Y-82935714D01*
X114457142Y-83030952D01*
X114409523Y-83078571D01*
X114314285Y-83126190D01*
X113933333Y-83126190D01*
X114790476Y-82602380D02*
X115123809Y-83602380D01*
X115457142Y-82602380D01*
X116314285Y-83602380D02*
X115742857Y-83602380D01*
X116028571Y-83602380D02*
X116028571Y-82602380D01*
X115933333Y-82745238D01*
X115838095Y-82840476D01*
X115742857Y-82888095D01*
%TO.C,Q3*%
X115354761Y-87847619D02*
X115259523Y-87800000D01*
X115164285Y-87704761D01*
X115021428Y-87561904D01*
X114926190Y-87514285D01*
X114830952Y-87514285D01*
X114878571Y-87752380D02*
X114783333Y-87704761D01*
X114688095Y-87609523D01*
X114640476Y-87419047D01*
X114640476Y-87085714D01*
X114688095Y-86895238D01*
X114783333Y-86800000D01*
X114878571Y-86752380D01*
X115069047Y-86752380D01*
X115164285Y-86800000D01*
X115259523Y-86895238D01*
X115307142Y-87085714D01*
X115307142Y-87419047D01*
X115259523Y-87609523D01*
X115164285Y-87704761D01*
X115069047Y-87752380D01*
X114878571Y-87752380D01*
X115640476Y-86752380D02*
X116259523Y-86752380D01*
X115926190Y-87133333D01*
X116069047Y-87133333D01*
X116164285Y-87180952D01*
X116211904Y-87228571D01*
X116259523Y-87323809D01*
X116259523Y-87561904D01*
X116211904Y-87657142D01*
X116164285Y-87704761D01*
X116069047Y-87752380D01*
X115783333Y-87752380D01*
X115688095Y-87704761D01*
X115640476Y-87657142D01*
%TO.C,Q2*%
X120304761Y-87847619D02*
X120209523Y-87800000D01*
X120114285Y-87704761D01*
X119971428Y-87561904D01*
X119876190Y-87514285D01*
X119780952Y-87514285D01*
X119828571Y-87752380D02*
X119733333Y-87704761D01*
X119638095Y-87609523D01*
X119590476Y-87419047D01*
X119590476Y-87085714D01*
X119638095Y-86895238D01*
X119733333Y-86800000D01*
X119828571Y-86752380D01*
X120019047Y-86752380D01*
X120114285Y-86800000D01*
X120209523Y-86895238D01*
X120257142Y-87085714D01*
X120257142Y-87419047D01*
X120209523Y-87609523D01*
X120114285Y-87704761D01*
X120019047Y-87752380D01*
X119828571Y-87752380D01*
X120638095Y-86847619D02*
X120685714Y-86800000D01*
X120780952Y-86752380D01*
X121019047Y-86752380D01*
X121114285Y-86800000D01*
X121161904Y-86847619D01*
X121209523Y-86942857D01*
X121209523Y-87038095D01*
X121161904Y-87180952D01*
X120590476Y-87752380D01*
X121209523Y-87752380D01*
%TO.C,J2*%
X105916666Y-83322380D02*
X105916666Y-84036666D01*
X105869047Y-84179523D01*
X105773809Y-84274761D01*
X105630952Y-84322380D01*
X105535714Y-84322380D01*
X106345238Y-83417619D02*
X106392857Y-83370000D01*
X106488095Y-83322380D01*
X106726190Y-83322380D01*
X106821428Y-83370000D01*
X106869047Y-83417619D01*
X106916666Y-83512857D01*
X106916666Y-83608095D01*
X106869047Y-83750952D01*
X106297619Y-84322380D01*
X106916666Y-84322380D01*
%TO.C,RV2*%
X109654761Y-84322380D02*
X109321428Y-83846190D01*
X109083333Y-84322380D02*
X109083333Y-83322380D01*
X109464285Y-83322380D01*
X109559523Y-83370000D01*
X109607142Y-83417619D01*
X109654761Y-83512857D01*
X109654761Y-83655714D01*
X109607142Y-83750952D01*
X109559523Y-83798571D01*
X109464285Y-83846190D01*
X109083333Y-83846190D01*
X109940476Y-83322380D02*
X110273809Y-84322380D01*
X110607142Y-83322380D01*
X110892857Y-83417619D02*
X110940476Y-83370000D01*
X111035714Y-83322380D01*
X111273809Y-83322380D01*
X111369047Y-83370000D01*
X111416666Y-83417619D01*
X111464285Y-83512857D01*
X111464285Y-83608095D01*
X111416666Y-83750952D01*
X110845238Y-84322380D01*
X111464285Y-84322380D01*
%TO.C,R1*%
X123183333Y-82052380D02*
X122850000Y-81576190D01*
X122611904Y-82052380D02*
X122611904Y-81052380D01*
X122992857Y-81052380D01*
X123088095Y-81100000D01*
X123135714Y-81147619D01*
X123183333Y-81242857D01*
X123183333Y-81385714D01*
X123135714Y-81480952D01*
X123088095Y-81528571D01*
X122992857Y-81576190D01*
X122611904Y-81576190D01*
X124135714Y-82052380D02*
X123564285Y-82052380D01*
X123850000Y-82052380D02*
X123850000Y-81052380D01*
X123754761Y-81195238D01*
X123659523Y-81290476D01*
X123564285Y-81338095D01*
%TO.C,R4*%
X123183333Y-83952380D02*
X122850000Y-83476190D01*
X122611904Y-83952380D02*
X122611904Y-82952380D01*
X122992857Y-82952380D01*
X123088095Y-83000000D01*
X123135714Y-83047619D01*
X123183333Y-83142857D01*
X123183333Y-83285714D01*
X123135714Y-83380952D01*
X123088095Y-83428571D01*
X122992857Y-83476190D01*
X122611904Y-83476190D01*
X124040476Y-83285714D02*
X124040476Y-83952380D01*
X123802380Y-82904761D02*
X123564285Y-83619047D01*
X124183333Y-83619047D01*
%TO.C,Q1*%
X125254761Y-87847619D02*
X125159523Y-87800000D01*
X125064285Y-87704761D01*
X124921428Y-87561904D01*
X124826190Y-87514285D01*
X124730952Y-87514285D01*
X124778571Y-87752380D02*
X124683333Y-87704761D01*
X124588095Y-87609523D01*
X124540476Y-87419047D01*
X124540476Y-87085714D01*
X124588095Y-86895238D01*
X124683333Y-86800000D01*
X124778571Y-86752380D01*
X124969047Y-86752380D01*
X125064285Y-86800000D01*
X125159523Y-86895238D01*
X125207142Y-87085714D01*
X125207142Y-87419047D01*
X125159523Y-87609523D01*
X125064285Y-87704761D01*
X124969047Y-87752380D01*
X124778571Y-87752380D01*
X126159523Y-87752380D02*
X125588095Y-87752380D01*
X125873809Y-87752380D02*
X125873809Y-86752380D01*
X125778571Y-86895238D01*
X125683333Y-86990476D01*
X125588095Y-87038095D01*
%TO.C,J1*%
X101916666Y-83322380D02*
X101916666Y-84036666D01*
X101869047Y-84179523D01*
X101773809Y-84274761D01*
X101630952Y-84322380D01*
X101535714Y-84322380D01*
X102916666Y-84322380D02*
X102345238Y-84322380D01*
X102630952Y-84322380D02*
X102630952Y-83322380D01*
X102535714Y-83465238D01*
X102440476Y-83560476D01*
X102345238Y-83608095D01*
%TO.C,R5*%
X113183333Y-95302380D02*
X112850000Y-94826190D01*
X112611904Y-95302380D02*
X112611904Y-94302380D01*
X112992857Y-94302380D01*
X113088095Y-94350000D01*
X113135714Y-94397619D01*
X113183333Y-94492857D01*
X113183333Y-94635714D01*
X113135714Y-94730952D01*
X113088095Y-94778571D01*
X112992857Y-94826190D01*
X112611904Y-94826190D01*
X114088095Y-94302380D02*
X113611904Y-94302380D01*
X113564285Y-94778571D01*
X113611904Y-94730952D01*
X113707142Y-94683333D01*
X113945238Y-94683333D01*
X114040476Y-94730952D01*
X114088095Y-94778571D01*
X114135714Y-94873809D01*
X114135714Y-95111904D01*
X114088095Y-95207142D01*
X114040476Y-95254761D01*
X113945238Y-95302380D01*
X113707142Y-95302380D01*
X113611904Y-95254761D01*
X113564285Y-95207142D01*
%TO.C,G\u002A\u002A\u002A*%
G36*
X106338430Y-80150828D02*
G01*
X106323776Y-80156659D01*
X106280918Y-80174668D01*
X106257555Y-80180493D01*
X106248483Y-80175152D01*
X106247773Y-80171558D01*
X106258238Y-80155388D01*
X106288372Y-80150274D01*
X106292182Y-80150504D01*
X106311628Y-80144285D01*
X106330365Y-80133744D01*
X106364721Y-80122565D01*
X106402104Y-80127446D01*
X106436340Y-80132678D01*
X106453709Y-80124599D01*
X106456481Y-80120203D01*
X106465233Y-80109939D01*
X106467767Y-80118048D01*
X106481277Y-80128155D01*
X106513253Y-80129028D01*
X106514610Y-80128865D01*
X106554555Y-80127567D01*
X106585183Y-80132222D01*
X106606024Y-80133590D01*
X106609213Y-80125745D01*
X106596742Y-80113042D01*
X106586938Y-80112135D01*
X106567686Y-80105791D01*
X106564723Y-80099193D01*
X106572776Y-80090548D01*
X106579778Y-80092649D01*
X106602524Y-80096045D01*
X106641711Y-80095330D01*
X106664175Y-80093375D01*
X106707701Y-80090922D01*
X106729246Y-80096574D01*
X106733997Y-80106108D01*
X106744783Y-80119219D01*
X106754624Y-80117148D01*
X106777410Y-80116855D01*
X106784154Y-80122263D01*
X106800793Y-80130457D01*
X106805708Y-80128456D01*
X106826546Y-80126783D01*
X106860873Y-80134767D01*
X106897595Y-80148652D01*
X106925616Y-80164687D01*
X106932188Y-80171252D01*
X106952977Y-80188117D01*
X106987899Y-80206627D01*
X106996098Y-80210113D01*
X107051531Y-80240012D01*
X107105583Y-80281869D01*
X107153145Y-80330107D01*
X107189105Y-80379149D01*
X107208350Y-80423418D01*
X107209984Y-80443482D01*
X107212228Y-80467820D01*
X107222754Y-80469134D01*
X107232296Y-80471185D01*
X107238323Y-80490899D01*
X107241405Y-80531819D01*
X107242129Y-80589928D01*
X107234150Y-80609552D01*
X107213904Y-80642139D01*
X107186876Y-80680296D01*
X107158551Y-80716624D01*
X107134415Y-80743728D01*
X107120305Y-80754200D01*
X107105781Y-80763238D01*
X107079369Y-80784964D01*
X107069495Y-80793784D01*
X107037490Y-80818928D01*
X107010687Y-80833365D01*
X107005614Y-80834513D01*
X106980999Y-80844889D01*
X106951501Y-80867252D01*
X106951375Y-80867369D01*
X106917569Y-80890505D01*
X106885294Y-80901261D01*
X106848111Y-80912660D01*
X106825017Y-80927003D01*
X106803548Y-80939912D01*
X106761088Y-80961390D01*
X106702453Y-80989144D01*
X106632466Y-81020881D01*
X106571860Y-81047457D01*
X106473108Y-81090517D01*
X106397611Y-81124592D01*
X106342683Y-81151243D01*
X106305636Y-81172034D01*
X106283784Y-81188527D01*
X106274438Y-81202282D01*
X106274912Y-81214863D01*
X106276751Y-81218996D01*
X106287835Y-81246016D01*
X106301518Y-81286927D01*
X106306413Y-81303300D01*
X106322838Y-81346634D01*
X106349038Y-81401705D01*
X106379437Y-81456822D01*
X106380422Y-81458465D01*
X106416106Y-81518187D01*
X106453885Y-81582033D01*
X106483098Y-81631921D01*
X106511467Y-81677224D01*
X106538730Y-81714948D01*
X106556405Y-81734439D01*
X106577986Y-81759795D01*
X106585089Y-81777896D01*
X106597708Y-81795430D01*
X106607522Y-81797016D01*
X106629704Y-81805944D01*
X106655114Y-81830024D01*
X106656206Y-81831410D01*
X106692985Y-81871104D01*
X106730419Y-81899060D01*
X106760767Y-81909570D01*
X106762108Y-81909525D01*
X106780379Y-81920043D01*
X106797789Y-81945351D01*
X106807667Y-81975524D01*
X106798200Y-81998217D01*
X106787840Y-82009122D01*
X106742576Y-82039982D01*
X106683650Y-82063421D01*
X106622293Y-82076221D01*
X106569736Y-82075167D01*
X106562989Y-82073526D01*
X106547205Y-82061015D01*
X106547685Y-82052276D01*
X106544052Y-82044615D01*
X106526281Y-82049540D01*
X106502671Y-82053672D01*
X106496157Y-82046653D01*
X106483268Y-82036387D01*
X106460978Y-82034728D01*
X106424863Y-82029473D01*
X106404349Y-82018599D01*
X106373180Y-82003698D01*
X106354794Y-82001852D01*
X106322809Y-81995756D01*
X106282797Y-81976899D01*
X106243537Y-81950998D01*
X106213811Y-81923770D01*
X106206906Y-81910939D01*
X106206115Y-81909469D01*
X106223710Y-81909469D01*
X106227098Y-81921581D01*
X106241468Y-81934597D01*
X106248732Y-81932914D01*
X106260714Y-81934431D01*
X106261836Y-81938876D01*
X106273288Y-81952186D01*
X106277196Y-81952418D01*
X106281386Y-81942445D01*
X106271400Y-81924814D01*
X106250528Y-81905876D01*
X106231887Y-81900560D01*
X106223710Y-81909469D01*
X106206115Y-81909469D01*
X106202444Y-81902646D01*
X106194266Y-81880576D01*
X106185239Y-81876129D01*
X106177352Y-81885290D01*
X106179628Y-81889704D01*
X106179113Y-81907611D01*
X106173968Y-81913042D01*
X106164654Y-81912283D01*
X106164038Y-81887744D01*
X106165333Y-81876391D01*
X106168196Y-81845877D01*
X106163820Y-81838616D01*
X106150119Y-81849855D01*
X106129236Y-81863459D01*
X106118973Y-81862846D01*
X106119950Y-81854443D01*
X106125501Y-81853243D01*
X106140950Y-81845941D01*
X106136015Y-81833951D01*
X106115412Y-81825000D01*
X106107725Y-81824106D01*
X106082398Y-81814799D01*
X106076479Y-81791264D01*
X106072400Y-81769351D01*
X106055721Y-81770017D01*
X106053617Y-81770951D01*
X106038551Y-81774630D01*
X106039480Y-81769523D01*
X106036846Y-81753681D01*
X106022935Y-81741067D01*
X106005182Y-81728377D01*
X106010954Y-81723555D01*
X106021068Y-81722271D01*
X106037500Y-81713658D01*
X106033821Y-81698354D01*
X106014403Y-81683260D01*
X105991863Y-81676184D01*
X105965202Y-81666926D01*
X105955987Y-81656141D01*
X105963678Y-81647033D01*
X105968405Y-81648524D01*
X105986166Y-81645207D01*
X105989614Y-81640470D01*
X105984293Y-81629927D01*
X105965623Y-81628284D01*
X105944543Y-81626600D01*
X105947915Y-81614593D01*
X105955332Y-81587012D01*
X105943051Y-81556316D01*
X105915586Y-81533459D01*
X105914245Y-81532866D01*
X105893762Y-81515117D01*
X105891613Y-81500152D01*
X105886858Y-81483692D01*
X105872941Y-81481781D01*
X105849444Y-81470418D01*
X105819137Y-81434030D01*
X105804047Y-81410501D01*
X105779961Y-81374923D01*
X105778387Y-81372597D01*
X105806543Y-81372597D01*
X105814105Y-81392936D01*
X105829943Y-81423754D01*
X105851422Y-81453397D01*
X105869444Y-81459831D01*
X105879259Y-81443020D01*
X105879468Y-81424157D01*
X105871175Y-81402503D01*
X105862327Y-81398374D01*
X105852775Y-81390926D01*
X105854114Y-81386636D01*
X105848077Y-81374343D01*
X105832297Y-81368777D01*
X105812524Y-81366486D01*
X105806543Y-81372597D01*
X105778387Y-81372597D01*
X105777997Y-81372021D01*
X105754981Y-81346023D01*
X105742040Y-81338620D01*
X105727569Y-81352079D01*
X105710088Y-81385267D01*
X105692529Y-81430547D01*
X105677829Y-81480279D01*
X105668917Y-81526828D01*
X105668566Y-81529948D01*
X105662921Y-81564264D01*
X105655855Y-81584400D01*
X105655171Y-81585167D01*
X105644919Y-81604229D01*
X105631348Y-81640875D01*
X105617412Y-81685402D01*
X105606073Y-81728101D01*
X105600286Y-81759267D01*
X105600131Y-81765774D01*
X105593293Y-81794855D01*
X105583035Y-81811349D01*
X105569041Y-81842952D01*
X105566935Y-81868328D01*
X105565138Y-81900461D01*
X105557361Y-81947503D01*
X105548977Y-81984368D01*
X105538002Y-82034288D01*
X105531582Y-82077611D01*
X105530849Y-82098489D01*
X105525148Y-82127763D01*
X105513053Y-82140850D01*
X105499771Y-82160285D01*
X105502356Y-82174742D01*
X105501376Y-82197821D01*
X105481400Y-82211563D01*
X105422500Y-82229838D01*
X105371704Y-82233491D01*
X105341617Y-82224920D01*
X105320020Y-82205684D01*
X105314276Y-82193563D01*
X105302111Y-82176404D01*
X105276042Y-82158188D01*
X105248742Y-82136261D01*
X105237020Y-82113804D01*
X105224387Y-82085340D01*
X105212426Y-82073684D01*
X105194744Y-82049046D01*
X105186433Y-82017574D01*
X105190243Y-81984127D01*
X105203105Y-81967137D01*
X105220106Y-81947952D01*
X105221625Y-81937846D01*
X105211505Y-81921082D01*
X105194027Y-81925140D01*
X105186274Y-81935415D01*
X105171971Y-81951563D01*
X105159815Y-81941427D01*
X105150852Y-81906707D01*
X105147255Y-81872065D01*
X105145239Y-81830863D01*
X105146722Y-81815806D01*
X105152009Y-81825221D01*
X105154450Y-81832782D01*
X105172932Y-81865775D01*
X105198697Y-81875569D01*
X105224546Y-81871603D01*
X105225566Y-81857842D01*
X105201618Y-81837716D01*
X105200291Y-81836917D01*
X105181183Y-81819342D01*
X105178632Y-81796357D01*
X105178472Y-81794919D01*
X105195065Y-81794919D01*
X105206820Y-81806738D01*
X105210162Y-81806825D01*
X105221411Y-81794399D01*
X105222208Y-81783857D01*
X105214183Y-81770011D01*
X105207111Y-81771952D01*
X105195255Y-81790959D01*
X105195065Y-81794919D01*
X105178472Y-81794919D01*
X105178220Y-81792645D01*
X105180893Y-81775867D01*
X105186314Y-81738315D01*
X105186848Y-81712115D01*
X105183096Y-81702515D01*
X105175659Y-81714760D01*
X105174332Y-81718597D01*
X105167174Y-81736130D01*
X105163022Y-81728812D01*
X105160521Y-81710093D01*
X105161692Y-81678950D01*
X105169248Y-81662952D01*
X105178506Y-81642691D01*
X105179328Y-81622587D01*
X105178920Y-81593278D01*
X105178899Y-81591768D01*
X105196179Y-81591768D01*
X105198831Y-81596980D01*
X105212530Y-81609190D01*
X105214824Y-81609637D01*
X105219871Y-81598320D01*
X105219755Y-81595149D01*
X105207858Y-81582675D01*
X105203762Y-81582493D01*
X105196179Y-81591768D01*
X105178899Y-81591768D01*
X105178623Y-81572013D01*
X105185295Y-81529617D01*
X105197665Y-81503044D01*
X105206644Y-81497907D01*
X105219200Y-81489576D01*
X105216979Y-81482966D01*
X105213755Y-81462664D01*
X105216013Y-81425168D01*
X105222252Y-81379592D01*
X105230972Y-81335050D01*
X105240674Y-81300654D01*
X105249452Y-81285669D01*
X105258431Y-81268931D01*
X105259537Y-81246574D01*
X105262191Y-81222348D01*
X105278747Y-81219651D01*
X105279679Y-81219910D01*
X105294471Y-81221779D01*
X105289871Y-81209805D01*
X105282404Y-81199525D01*
X105270016Y-81175188D01*
X105275265Y-81149024D01*
X105282372Y-81134735D01*
X105296466Y-81100739D01*
X105300794Y-81075522D01*
X105306524Y-81056000D01*
X105312870Y-81052887D01*
X105323105Y-81040195D01*
X105324330Y-81023212D01*
X105327900Y-80992708D01*
X105334779Y-80968772D01*
X105339850Y-80951126D01*
X105344953Y-80937634D01*
X105350398Y-80921277D01*
X105877639Y-80921277D01*
X105886044Y-80920217D01*
X105906054Y-80901441D01*
X105920155Y-80885103D01*
X105943974Y-80853110D01*
X105949885Y-80835233D01*
X105939752Y-80825763D01*
X105939554Y-80825682D01*
X105933343Y-80819807D01*
X105953536Y-80818577D01*
X105956021Y-80818685D01*
X105985206Y-80815141D01*
X105987495Y-80813368D01*
X105990334Y-80811170D01*
X106012622Y-80811170D01*
X106018548Y-80821448D01*
X106032653Y-80833488D01*
X106058744Y-80850695D01*
X106067942Y-80846812D01*
X106061265Y-80826376D01*
X106040251Y-80809309D01*
X106027321Y-80807656D01*
X106012622Y-80811170D01*
X105990334Y-80811170D01*
X105997992Y-80805240D01*
X106012967Y-80792318D01*
X106042257Y-80783470D01*
X106072276Y-80778395D01*
X106086265Y-80775530D01*
X106097169Y-80773937D01*
X106111084Y-80764406D01*
X106117131Y-80758004D01*
X106120687Y-80754239D01*
X106160163Y-80754239D01*
X106161490Y-80759016D01*
X106171872Y-80770412D01*
X106194841Y-80788137D01*
X106207718Y-80791874D01*
X106217308Y-80788272D01*
X106216126Y-80787161D01*
X106200682Y-80778015D01*
X106180281Y-80765699D01*
X106160163Y-80754239D01*
X106120687Y-80754239D01*
X106124233Y-80750484D01*
X106150904Y-80730336D01*
X106167892Y-80725080D01*
X106196305Y-80714831D01*
X106205035Y-80707439D01*
X106221731Y-80698213D01*
X106226781Y-80695422D01*
X106260488Y-80686979D01*
X106350136Y-80686979D01*
X106353058Y-80700497D01*
X106375128Y-80714019D01*
X106390505Y-80718550D01*
X106392696Y-80707972D01*
X106392258Y-80698422D01*
X106379474Y-80680906D01*
X106369503Y-80679330D01*
X106350136Y-80686979D01*
X106260488Y-80686979D01*
X106262959Y-80686360D01*
X106268618Y-80685564D01*
X106299186Y-80678872D01*
X106311569Y-80670235D01*
X106310909Y-80668144D01*
X106313879Y-80656916D01*
X106339091Y-80651382D01*
X106356510Y-80651306D01*
X106371989Y-80643043D01*
X106372871Y-80637484D01*
X106383633Y-80624933D01*
X106401756Y-80620285D01*
X106430540Y-80610838D01*
X106469691Y-80589802D01*
X106490361Y-80576155D01*
X106525005Y-80553896D01*
X106550047Y-80542099D01*
X106557305Y-80541795D01*
X106571577Y-80537630D01*
X106596125Y-80518304D01*
X106602299Y-80512330D01*
X106631185Y-80485809D01*
X106654051Y-80468864D01*
X106656186Y-80467765D01*
X106665403Y-80454965D01*
X106662126Y-80449494D01*
X106643442Y-80448325D01*
X106603827Y-80455362D01*
X106548582Y-80469012D01*
X106483012Y-80487683D01*
X106412418Y-80509782D01*
X106342103Y-80533716D01*
X106277369Y-80557893D01*
X106223520Y-80580719D01*
X106220445Y-80582154D01*
X106118809Y-80631023D01*
X106040401Y-80671778D01*
X105982456Y-80706734D01*
X105942211Y-80738198D01*
X105916899Y-80768483D01*
X105903757Y-80799899D01*
X105900021Y-80834755D01*
X105900502Y-80849548D01*
X105897754Y-80880945D01*
X105889572Y-80897014D01*
X105877786Y-80917041D01*
X105877639Y-80921277D01*
X105350398Y-80921277D01*
X105362472Y-80885011D01*
X105363813Y-80850910D01*
X105349021Y-80831020D01*
X105346018Y-80829308D01*
X105320562Y-80806696D01*
X105297129Y-80772692D01*
X105285645Y-80741707D01*
X105285641Y-80741657D01*
X105293177Y-80719053D01*
X105313672Y-80689805D01*
X105315088Y-80688199D01*
X105334015Y-80659713D01*
X105338183Y-80637273D01*
X105337673Y-80635999D01*
X105337747Y-80614747D01*
X105353727Y-80604268D01*
X105373757Y-80611684D01*
X105375303Y-80613411D01*
X105384007Y-80620328D01*
X105379684Y-80603446D01*
X105378749Y-80600944D01*
X105373891Y-80578953D01*
X105385884Y-80575881D01*
X105389780Y-80576885D01*
X105407780Y-80573830D01*
X105410143Y-80558148D01*
X105412288Y-80541317D01*
X105426140Y-80548217D01*
X105451513Y-80560642D01*
X105472704Y-80558374D01*
X105479260Y-80544876D01*
X105468297Y-80536438D01*
X105457688Y-80539295D01*
X105439752Y-80541156D01*
X105436285Y-80535644D01*
X105447012Y-80523642D01*
X105463000Y-80519691D01*
X105484987Y-80510264D01*
X105489338Y-80499407D01*
X105497780Y-80477261D01*
X105513915Y-80459014D01*
X105533418Y-80429029D01*
X105537273Y-80404673D01*
X105542883Y-80378259D01*
X105555414Y-80371049D01*
X105572540Y-80363922D01*
X105573770Y-80358901D01*
X105569828Y-80318158D01*
X105579088Y-80290713D01*
X105592263Y-80283492D01*
X105607208Y-80277940D01*
X105605530Y-80273082D01*
X105603572Y-80256309D01*
X105609035Y-80245224D01*
X105620352Y-80223532D01*
X105638297Y-80183438D01*
X105659445Y-80132673D01*
X105664686Y-80119589D01*
X105686834Y-80066283D01*
X105704122Y-80033639D01*
X105720934Y-80015885D01*
X105741660Y-80007249D01*
X105751684Y-80005118D01*
X105794767Y-80005033D01*
X105829545Y-80015876D01*
X105863183Y-80029662D01*
X105886546Y-80032853D01*
X105909120Y-80040632D01*
X105944732Y-80062828D01*
X105986560Y-80094116D01*
X106027784Y-80129172D01*
X106061578Y-80162670D01*
X106076177Y-80180862D01*
X106089242Y-80211751D01*
X106089723Y-80232386D01*
X106091643Y-80250607D01*
X106098802Y-80253231D01*
X106112703Y-80242478D01*
X106113061Y-80238368D01*
X106122615Y-80229799D01*
X106133506Y-80231056D01*
X106151489Y-80229223D01*
X106150673Y-80213876D01*
X106138521Y-80199858D01*
X106137525Y-80189016D01*
X106157649Y-80182834D01*
X106189820Y-80188290D01*
X106201860Y-80203564D01*
X106218861Y-80225672D01*
X106237307Y-80222107D01*
X106244822Y-80211386D01*
X106263097Y-80200391D01*
X106272190Y-80201259D01*
X106294755Y-80195975D01*
X106321239Y-80175666D01*
X106324675Y-80171824D01*
X106327985Y-80168123D01*
X106366977Y-80168123D01*
X106369407Y-80176176D01*
X106382536Y-80185664D01*
X106387337Y-80169260D01*
X106386601Y-80154259D01*
X106382496Y-80134325D01*
X106374687Y-80140415D01*
X106372600Y-80144271D01*
X106366977Y-80168123D01*
X106327985Y-80168123D01*
X106339575Y-80155165D01*
X106338430Y-80150828D01*
G37*
G36*
X113751523Y-81256723D02*
G01*
X113750606Y-81255332D01*
X113767414Y-81255332D01*
X113773504Y-81270351D01*
X113785125Y-81279977D01*
X113785746Y-81278654D01*
X113808203Y-81278654D01*
X113819573Y-81291973D01*
X113823445Y-81292206D01*
X113836615Y-81286259D01*
X113836856Y-81284834D01*
X113826040Y-81273781D01*
X113821614Y-81271283D01*
X113808858Y-81273514D01*
X113808203Y-81278654D01*
X113785746Y-81278654D01*
X113790307Y-81268937D01*
X113788507Y-81247152D01*
X113785474Y-81243112D01*
X113771775Y-81241036D01*
X113767414Y-81255332D01*
X113750606Y-81255332D01*
X113749838Y-81254168D01*
X113741468Y-81230650D01*
X113727322Y-81222148D01*
X113716147Y-81233680D01*
X113715873Y-81234681D01*
X113712993Y-81236380D01*
X113712568Y-81215234D01*
X113712591Y-81214607D01*
X113710143Y-81188712D01*
X113694890Y-81176509D01*
X113663537Y-81171411D01*
X113629982Y-81165487D01*
X113616995Y-81152774D01*
X113616506Y-81132808D01*
X113614910Y-81107697D01*
X113607920Y-81100227D01*
X113597137Y-81112370D01*
X113596547Y-81118792D01*
X113592066Y-81121882D01*
X113581827Y-81106023D01*
X113564762Y-81083166D01*
X113552068Y-81077002D01*
X113537279Y-81068190D01*
X113536488Y-81064751D01*
X113546040Y-81056182D01*
X113556931Y-81057438D01*
X113574728Y-81053695D01*
X113576748Y-81042964D01*
X113562861Y-81026612D01*
X113532361Y-81017584D01*
X113502174Y-81010289D01*
X113488595Y-80999248D01*
X113488569Y-80999016D01*
X113498082Y-80990148D01*
X113508982Y-80991355D01*
X113526843Y-80989174D01*
X113529258Y-80982111D01*
X113516708Y-80969682D01*
X113505490Y-80968632D01*
X113488901Y-80961440D01*
X113489273Y-80948967D01*
X113485114Y-80931096D01*
X113471413Y-80928458D01*
X113455452Y-80927894D01*
X113464859Y-80920900D01*
X113471802Y-80917377D01*
X113487424Y-80907176D01*
X113482898Y-80895971D01*
X113465160Y-80881628D01*
X113441528Y-80857909D01*
X113432430Y-80839316D01*
X113419554Y-80824261D01*
X113406346Y-80822330D01*
X113382907Y-80810611D01*
X113354757Y-80774117D01*
X113325905Y-80719487D01*
X113323698Y-80715310D01*
X113319449Y-80705862D01*
X113339450Y-80705862D01*
X113340001Y-80718254D01*
X113356859Y-80747626D01*
X113372306Y-80769448D01*
X113396729Y-80795511D01*
X113410634Y-80796567D01*
X113412010Y-80774289D01*
X113403640Y-80743361D01*
X113392382Y-80720764D01*
X113383726Y-80717473D01*
X113367514Y-80718703D01*
X113355891Y-80712819D01*
X113339450Y-80705862D01*
X113319449Y-80705862D01*
X113317034Y-80700491D01*
X113300168Y-80682793D01*
X113279326Y-80679888D01*
X113266207Y-80691946D01*
X113265607Y-80699756D01*
X113257979Y-80725671D01*
X113249978Y-80736095D01*
X113236599Y-80760208D01*
X113223178Y-80800205D01*
X113212826Y-80844146D01*
X113208655Y-80880091D01*
X113209689Y-80890732D01*
X113204251Y-80912269D01*
X113194176Y-80925435D01*
X113178272Y-80952688D01*
X113176143Y-80967541D01*
X113170231Y-80996977D01*
X113159575Y-81019151D01*
X113146094Y-81055224D01*
X113144195Y-81079229D01*
X113138151Y-81114810D01*
X113127832Y-81133194D01*
X113115913Y-81162211D01*
X113112800Y-81201912D01*
X113113026Y-81204941D01*
X113112473Y-81240353D01*
X113105471Y-81262484D01*
X113104118Y-81263778D01*
X113095002Y-81283950D01*
X113093902Y-81307668D01*
X113091280Y-81333912D01*
X113082932Y-81342937D01*
X113074785Y-81356006D01*
X113072814Y-81386561D01*
X113073254Y-81392979D01*
X113069233Y-81438206D01*
X113054455Y-81469294D01*
X113039667Y-81496480D01*
X113039164Y-81514738D01*
X113035491Y-81536031D01*
X113022074Y-81550336D01*
X112994521Y-81563170D01*
X112958174Y-81572450D01*
X112922712Y-81576771D01*
X112897825Y-81574728D01*
X112891895Y-81569239D01*
X112879514Y-81559174D01*
X112868367Y-81558489D01*
X112851719Y-81551199D01*
X112851838Y-81539912D01*
X112844985Y-81518552D01*
X112821744Y-81500054D01*
X112795349Y-81481473D01*
X112784457Y-81465819D01*
X112774686Y-81445966D01*
X112752900Y-81418680D01*
X112752152Y-81417879D01*
X112729449Y-81386630D01*
X112718863Y-81358700D01*
X112726375Y-81329216D01*
X112742383Y-81306219D01*
X112761424Y-81283243D01*
X112767350Y-81270277D01*
X112756948Y-81263666D01*
X112736270Y-81269680D01*
X112717338Y-81284004D01*
X112713646Y-81289565D01*
X112702467Y-81297268D01*
X112691321Y-81281094D01*
X112682089Y-81245109D01*
X112677957Y-81212451D01*
X112675810Y-81179933D01*
X112679576Y-81171750D01*
X112692522Y-81184352D01*
X112697940Y-81190769D01*
X112726647Y-81211865D01*
X112751905Y-81217286D01*
X112770821Y-81214514D01*
X112771020Y-81206849D01*
X112751486Y-81187933D01*
X112746482Y-81183456D01*
X112722943Y-81157721D01*
X112718109Y-81131874D01*
X112718873Y-81127984D01*
X112719248Y-81126076D01*
X112740678Y-81126076D01*
X112749630Y-81144524D01*
X112756529Y-81146603D01*
X112769203Y-81135406D01*
X112769330Y-81132257D01*
X112757538Y-81114252D01*
X112753479Y-81111730D01*
X112741814Y-81115937D01*
X112740678Y-81126076D01*
X112719248Y-81126076D01*
X112723082Y-81106582D01*
X112727538Y-81074596D01*
X112725175Y-81050628D01*
X112718263Y-81040576D01*
X112709073Y-81050340D01*
X112705405Y-81060647D01*
X112698837Y-81079275D01*
X112695255Y-81071149D01*
X112693564Y-81058240D01*
X112699283Y-81022803D01*
X112709829Y-81004215D01*
X112721306Y-80979647D01*
X112718768Y-80965792D01*
X112714657Y-80945436D01*
X112715296Y-80938545D01*
X112715481Y-80936545D01*
X112738152Y-80936545D01*
X112749520Y-80949864D01*
X112753393Y-80950098D01*
X112766563Y-80944149D01*
X112766804Y-80942726D01*
X112755988Y-80931671D01*
X112751562Y-80929174D01*
X112738805Y-80931405D01*
X112738152Y-80936545D01*
X112715481Y-80936545D01*
X112717621Y-80913477D01*
X112725383Y-80879763D01*
X112735668Y-80854144D01*
X112746198Y-80846468D01*
X112746335Y-80846535D01*
X112754628Y-80839966D01*
X112755494Y-80820670D01*
X112754821Y-80780095D01*
X112758820Y-80732169D01*
X112766130Y-80685025D01*
X112775385Y-80646798D01*
X112785226Y-80625620D01*
X112788493Y-80623746D01*
X112798379Y-80611133D01*
X112795377Y-80587802D01*
X112791758Y-80563240D01*
X112802975Y-80558528D01*
X112807897Y-80559705D01*
X112823201Y-80558728D01*
X112820389Y-80538649D01*
X112820378Y-80538618D01*
X112818931Y-80512304D01*
X112825137Y-80474655D01*
X112836219Y-80435546D01*
X112849399Y-80404853D01*
X112861484Y-80392469D01*
X112866153Y-80381746D01*
X112863046Y-80372523D01*
X112862694Y-80350017D01*
X112871227Y-80311007D01*
X112872195Y-80308027D01*
X112883390Y-80273562D01*
X112888049Y-80260980D01*
X113409944Y-80260980D01*
X113421699Y-80272799D01*
X113425041Y-80272886D01*
X113437792Y-80262485D01*
X113437936Y-80259618D01*
X113445460Y-80241809D01*
X113465305Y-80213796D01*
X113469210Y-80209045D01*
X113488663Y-80180757D01*
X113487058Y-80169070D01*
X113486715Y-80166571D01*
X113482914Y-80164872D01*
X113482155Y-80163039D01*
X113555987Y-80163039D01*
X113568368Y-80174426D01*
X113578131Y-80175157D01*
X113597440Y-80182292D01*
X113600479Y-80189600D01*
X113606660Y-80198800D01*
X113609839Y-80196415D01*
X113611523Y-80177319D01*
X113607632Y-80166155D01*
X113590993Y-80151093D01*
X113569747Y-80147966D01*
X113556509Y-80157537D01*
X113555987Y-80163039D01*
X113482155Y-80163039D01*
X113480735Y-80159610D01*
X113501577Y-80154858D01*
X113501731Y-80154839D01*
X113532424Y-80146195D01*
X113547172Y-80134560D01*
X113565470Y-80124354D01*
X113589255Y-80124118D01*
X113614400Y-80123521D01*
X113622132Y-80115794D01*
X113631854Y-80107405D01*
X113644918Y-80108893D01*
X113660838Y-80109387D01*
X113659320Y-80105062D01*
X113657892Y-80100999D01*
X113659033Y-80096686D01*
X113693976Y-80096686D01*
X113694410Y-80101992D01*
X113704395Y-80112614D01*
X113726817Y-80129001D01*
X113744825Y-80132864D01*
X113749485Y-80125522D01*
X113737783Y-80115845D01*
X113716069Y-80105060D01*
X113693976Y-80096686D01*
X113659033Y-80096686D01*
X113661525Y-80087271D01*
X113690836Y-80073982D01*
X113695277Y-80072692D01*
X113726815Y-80060725D01*
X113740347Y-80050147D01*
X113742259Y-80048653D01*
X113742594Y-80046759D01*
X113754264Y-80037828D01*
X113755563Y-80037530D01*
X113884569Y-80037530D01*
X113895029Y-80047623D01*
X113897412Y-80048848D01*
X113917143Y-80049071D01*
X113932027Y-80037032D01*
X113931711Y-80021918D01*
X113929852Y-80020069D01*
X113913956Y-80021046D01*
X113899952Y-80026548D01*
X113884569Y-80037530D01*
X113755563Y-80037530D01*
X113784661Y-80030855D01*
X113795813Y-80029612D01*
X113837001Y-80020817D01*
X113855882Y-80004727D01*
X113855994Y-80004354D01*
X113873221Y-79989144D01*
X113893511Y-79989230D01*
X113915228Y-79989364D01*
X113913760Y-79979340D01*
X113915566Y-79966696D01*
X113941800Y-79960617D01*
X113977285Y-79949612D01*
X114018170Y-79926286D01*
X114030429Y-79917048D01*
X114063102Y-79894519D01*
X114088533Y-79884177D01*
X114095088Y-79884711D01*
X114115168Y-79881582D01*
X114132026Y-79867947D01*
X114158370Y-79840042D01*
X114185987Y-79813067D01*
X114218472Y-79782733D01*
X114186241Y-79785086D01*
X114136181Y-79793080D01*
X114071772Y-79809896D01*
X113996750Y-79833896D01*
X113914856Y-79863448D01*
X113829828Y-79896915D01*
X113745405Y-79932661D01*
X113665327Y-79969052D01*
X113593332Y-80004452D01*
X113533157Y-80037226D01*
X113488544Y-80065738D01*
X113463230Y-80088353D01*
X113460256Y-80102620D01*
X113459561Y-80121405D01*
X113449305Y-80138345D01*
X113434429Y-80171093D01*
X113432293Y-80195119D01*
X113429550Y-80224722D01*
X113421990Y-80238013D01*
X113410133Y-80257020D01*
X113409944Y-80260980D01*
X112888049Y-80260980D01*
X112912997Y-80193600D01*
X112876050Y-80160125D01*
X112838919Y-80116494D01*
X112828903Y-80076038D01*
X112845675Y-80036346D01*
X112857444Y-80022573D01*
X112880029Y-79993110D01*
X112879432Y-79976685D01*
X112877769Y-79975655D01*
X112869592Y-79963954D01*
X112878648Y-79954288D01*
X112904104Y-79949517D01*
X112914135Y-79953743D01*
X112925641Y-79957191D01*
X112922448Y-79939090D01*
X112921386Y-79936051D01*
X112917505Y-79914725D01*
X112927629Y-79914448D01*
X112942056Y-79913874D01*
X112943333Y-79907976D01*
X112954052Y-79898164D01*
X112977656Y-79898640D01*
X113005653Y-79897873D01*
X113011869Y-79888057D01*
X113002561Y-79879062D01*
X112997249Y-79881613D01*
X112984299Y-79881632D01*
X112982763Y-79876683D01*
X112993388Y-79863663D01*
X113009368Y-79859470D01*
X113031354Y-79850043D01*
X113035705Y-79839185D01*
X113044147Y-79817039D01*
X113060282Y-79798792D01*
X113079785Y-79768808D01*
X113083640Y-79744451D01*
X113087955Y-79719201D01*
X113098293Y-79711123D01*
X113110657Y-79697891D01*
X113114613Y-79671474D01*
X113118623Y-79641253D01*
X113128287Y-79626950D01*
X113140776Y-79609321D01*
X113141348Y-79600778D01*
X113147557Y-79582291D01*
X113153302Y-79579819D01*
X113165118Y-79566780D01*
X113173187Y-79539426D01*
X113184091Y-79498438D01*
X113201188Y-79456156D01*
X113218374Y-79419708D01*
X113230317Y-79391439D01*
X113230721Y-79390321D01*
X113245826Y-79363968D01*
X113252524Y-79357004D01*
X113284199Y-79344830D01*
X113327537Y-79342893D01*
X113368121Y-79351227D01*
X113379196Y-79356696D01*
X113412260Y-79370256D01*
X113433296Y-79372598D01*
X113455032Y-79377135D01*
X113459749Y-79384340D01*
X113471727Y-79396680D01*
X113476510Y-79396930D01*
X113495446Y-79405385D01*
X113525463Y-79428140D01*
X113559219Y-79458399D01*
X113589375Y-79489368D01*
X113608591Y-79514251D01*
X113611784Y-79522137D01*
X113621776Y-79537620D01*
X113626525Y-79538417D01*
X113634819Y-79549185D01*
X113635211Y-79569283D01*
X113633647Y-79591173D01*
X113640549Y-79587163D01*
X113649602Y-79574307D01*
X113665841Y-79556972D01*
X113677466Y-79563762D01*
X113678080Y-79564787D01*
X113683068Y-79567984D01*
X113680502Y-79553758D01*
X113680406Y-79531644D01*
X113701185Y-79526036D01*
X113702521Y-79526064D01*
X113735056Y-79526553D01*
X113749345Y-79526501D01*
X113760984Y-79536732D01*
X113760246Y-79547801D01*
X113763311Y-79565187D01*
X113778149Y-79566279D01*
X113789728Y-79554066D01*
X113806587Y-79541389D01*
X113837574Y-79529148D01*
X113866150Y-79516586D01*
X113877739Y-79503055D01*
X113877723Y-79502736D01*
X113867715Y-79490278D01*
X113850393Y-79495690D01*
X113842819Y-79505439D01*
X113824170Y-79518878D01*
X113808344Y-79522510D01*
X113787737Y-79517787D01*
X113778312Y-79505674D01*
X113786585Y-79495559D01*
X113789189Y-79494904D01*
X113854718Y-79477191D01*
X113886611Y-79465561D01*
X113909551Y-79459063D01*
X113914262Y-79470099D01*
X113912083Y-79482082D01*
X113912926Y-79508789D01*
X113920771Y-79519349D01*
X113931876Y-79514490D01*
X113933469Y-79497307D01*
X113938480Y-79474062D01*
X113955717Y-79470445D01*
X113983644Y-79462396D01*
X113996162Y-79450367D01*
X114007267Y-79436197D01*
X114006658Y-79447106D01*
X114004807Y-79454603D01*
X114003168Y-79471669D01*
X114015031Y-79475476D01*
X114046873Y-79468089D01*
X114047020Y-79468048D01*
X114084371Y-79461902D01*
X114105718Y-79467174D01*
X114106326Y-79467898D01*
X114127573Y-79478602D01*
X114140030Y-79479124D01*
X114151644Y-79474408D01*
X114141361Y-79462217D01*
X114126228Y-79451338D01*
X114088866Y-79425928D01*
X114124670Y-79433538D01*
X114163311Y-79436640D01*
X114208973Y-79433919D01*
X114212508Y-79433422D01*
X114246178Y-79431814D01*
X114264670Y-79437483D01*
X114265791Y-79439982D01*
X114278487Y-79450567D01*
X114294939Y-79451828D01*
X114318077Y-79455144D01*
X114323943Y-79462030D01*
X114335619Y-79468454D01*
X114350770Y-79465486D01*
X114376867Y-79464228D01*
X114387190Y-79470643D01*
X114408643Y-79481554D01*
X114425401Y-79482580D01*
X114452825Y-79489873D01*
X114463053Y-79500969D01*
X114481738Y-79519409D01*
X114515605Y-79539448D01*
X114526134Y-79544233D01*
X114584168Y-79575664D01*
X114640212Y-79617825D01*
X114689667Y-79665731D01*
X114727936Y-79714396D01*
X114750420Y-79758834D01*
X114753449Y-79790698D01*
X114752400Y-79811067D01*
X114766596Y-79810062D01*
X114770400Y-79808289D01*
X114787406Y-79804383D01*
X114786787Y-79821471D01*
X114786589Y-79822166D01*
X114782666Y-79853769D01*
X114783420Y-79894158D01*
X114780788Y-79933381D01*
X114768770Y-79963159D01*
X114768411Y-79963596D01*
X114753323Y-79988655D01*
X114750626Y-80001295D01*
X114742667Y-80016451D01*
X114739155Y-80017359D01*
X114723527Y-80027638D01*
X114696360Y-80053062D01*
X114671984Y-80078882D01*
X114641094Y-80110478D01*
X114617003Y-80130215D01*
X114606935Y-80133922D01*
X114591392Y-80139238D01*
X114580857Y-80150835D01*
X114555896Y-80170927D01*
X114541128Y-80175241D01*
X114514139Y-80185919D01*
X114483794Y-80208368D01*
X114453481Y-80230910D01*
X114427222Y-80241428D01*
X114398885Y-80250572D01*
X114368476Y-80267569D01*
X114344060Y-80281176D01*
X114299069Y-80303397D01*
X114238662Y-80331791D01*
X114167996Y-80363917D01*
X114116696Y-80386660D01*
X114012246Y-80432841D01*
X113931405Y-80469627D01*
X113871919Y-80498369D01*
X113831534Y-80520419D01*
X113807997Y-80537128D01*
X113799058Y-80549847D01*
X113802460Y-80559927D01*
X113814408Y-80567957D01*
X113825277Y-80584563D01*
X113836679Y-80618031D01*
X113839494Y-80629511D01*
X113852822Y-80668667D01*
X113876515Y-80720837D01*
X113905747Y-80775511D01*
X113909466Y-80781858D01*
X113946315Y-80844223D01*
X113986356Y-80912280D01*
X114019064Y-80968123D01*
X114047582Y-81014051D01*
X114073691Y-81051087D01*
X114092040Y-81071677D01*
X114092906Y-81072314D01*
X114112915Y-81098402D01*
X114117047Y-81113628D01*
X114126666Y-81134764D01*
X114136795Y-81138522D01*
X114155890Y-81146459D01*
X114187997Y-81168402D01*
X114220119Y-81194483D01*
X114257612Y-81224376D01*
X114288805Y-81244476D01*
X114304689Y-81250103D01*
X114321224Y-81260863D01*
X114336116Y-81289224D01*
X114337000Y-81291930D01*
X114341554Y-81328093D01*
X114326950Y-81356196D01*
X114289853Y-81380423D01*
X114254765Y-81395080D01*
X114190401Y-81412966D01*
X114136017Y-81416100D01*
X114097995Y-81404207D01*
X114095130Y-81402006D01*
X114067663Y-81390846D01*
X114051197Y-81393298D01*
X114032574Y-81394528D01*
X114028551Y-81387381D01*
X114020498Y-81377354D01*
X114016300Y-81379194D01*
X113997896Y-81378823D01*
X113966150Y-81367655D01*
X113958409Y-81364005D01*
X113922848Y-81349023D01*
X113896309Y-81342293D01*
X113893552Y-81342296D01*
X113865966Y-81336462D01*
X113828815Y-81319166D01*
X113791082Y-81295918D01*
X113773472Y-81281693D01*
X113761752Y-81272226D01*
X113751523Y-81256723D01*
G37*
G36*
X122718143Y-80479171D02*
G01*
X122685047Y-80446867D01*
X122684423Y-80446464D01*
X122682191Y-80445022D01*
X123283917Y-80445022D01*
X123286569Y-80450235D01*
X123300267Y-80462445D01*
X123302561Y-80462891D01*
X123307608Y-80451575D01*
X123307492Y-80448404D01*
X123295596Y-80435930D01*
X123291499Y-80435748D01*
X123283917Y-80445022D01*
X122682191Y-80445022D01*
X122650305Y-80424423D01*
X122643341Y-80421719D01*
X122625987Y-80413726D01*
X123058625Y-80413726D01*
X123062717Y-80425591D01*
X123072850Y-80426765D01*
X123091697Y-80421857D01*
X123094059Y-80418711D01*
X123082698Y-80406586D01*
X123064281Y-80407904D01*
X123058625Y-80413726D01*
X122625987Y-80413726D01*
X122608051Y-80405465D01*
X122567095Y-80379872D01*
X122565816Y-80378933D01*
X122557368Y-80372729D01*
X122529331Y-80350389D01*
X122522281Y-80337908D01*
X122538418Y-80330373D01*
X122579689Y-80322913D01*
X122607409Y-80313679D01*
X122622416Y-80294376D01*
X122622945Y-80293697D01*
X122627986Y-80260398D01*
X123010793Y-80260398D01*
X123024078Y-80261888D01*
X123026301Y-80261742D01*
X123043726Y-80268832D01*
X123045485Y-80292117D01*
X123044009Y-80313893D01*
X123051053Y-80309725D01*
X123057636Y-80300421D01*
X123463213Y-80300421D01*
X123472166Y-80318869D01*
X123479065Y-80320948D01*
X123491739Y-80309750D01*
X123491866Y-80306601D01*
X123480074Y-80288598D01*
X123476014Y-80286076D01*
X123464349Y-80290283D01*
X123463213Y-80300421D01*
X123057636Y-80300421D01*
X123059400Y-80297927D01*
X123086558Y-80275510D01*
X123107121Y-80269155D01*
X123130409Y-80262202D01*
X123135887Y-80254178D01*
X123122858Y-80244336D01*
X123104428Y-80241279D01*
X123093325Y-80239438D01*
X123058427Y-80239936D01*
X123029300Y-80246282D01*
X123023041Y-80249605D01*
X123010793Y-80260398D01*
X122627986Y-80260398D01*
X122628447Y-80257353D01*
X122627642Y-80236815D01*
X123155451Y-80236815D01*
X123176756Y-80247884D01*
X123185393Y-80248251D01*
X123202739Y-80238875D01*
X123204273Y-80232544D01*
X123191573Y-80222345D01*
X123174331Y-80221107D01*
X123155514Y-80228165D01*
X123155451Y-80236815D01*
X122627642Y-80236815D01*
X122626257Y-80201463D01*
X122625880Y-80193658D01*
X122625826Y-80192550D01*
X122638545Y-80192550D01*
X122645318Y-80219739D01*
X122656019Y-80231893D01*
X122664918Y-80224183D01*
X122666522Y-80216107D01*
X122660216Y-80187647D01*
X122652656Y-80178109D01*
X122640206Y-80174093D01*
X122638545Y-80192550D01*
X122625826Y-80192550D01*
X122624011Y-80155035D01*
X122624152Y-80153337D01*
X122625945Y-80131720D01*
X122631862Y-80133820D01*
X122631954Y-80134003D01*
X122642658Y-80151684D01*
X122649265Y-80143915D01*
X122652102Y-80134604D01*
X122656432Y-80115368D01*
X123058148Y-80115368D01*
X123063579Y-80154648D01*
X123073476Y-80187445D01*
X123086254Y-80207974D01*
X123100323Y-80210449D01*
X123110266Y-80197987D01*
X123110267Y-80197986D01*
X123110036Y-80195612D01*
X123137412Y-80195612D01*
X123153913Y-80200468D01*
X123175561Y-80195108D01*
X123185935Y-80183648D01*
X123185921Y-80183451D01*
X123173765Y-80180061D01*
X123156721Y-80180481D01*
X123137723Y-80187332D01*
X123137412Y-80195612D01*
X123110036Y-80195612D01*
X123108177Y-80176541D01*
X123099064Y-80163504D01*
X123096695Y-80160464D01*
X123088413Y-80149835D01*
X123101306Y-80150489D01*
X123106305Y-80151871D01*
X123124654Y-80153223D01*
X123124628Y-80153071D01*
X123181190Y-80153071D01*
X123187577Y-80158981D01*
X123210044Y-80163824D01*
X123242651Y-80166286D01*
X123277338Y-80165243D01*
X123314115Y-80160310D01*
X123324125Y-80154033D01*
X123317462Y-80149269D01*
X123301517Y-80133989D01*
X123306024Y-80111370D01*
X123315944Y-80075959D01*
X123309863Y-80057165D01*
X123301219Y-80055393D01*
X123289833Y-80067774D01*
X123289101Y-80077537D01*
X123279553Y-80097007D01*
X123270008Y-80100291D01*
X123252642Y-80113110D01*
X123250968Y-80123657D01*
X123243557Y-80142075D01*
X123235219Y-80144453D01*
X123205277Y-80146156D01*
X123196825Y-80147411D01*
X123181190Y-80153071D01*
X123124628Y-80153071D01*
X123121982Y-80137858D01*
X123121807Y-80137497D01*
X123119455Y-80121196D01*
X123130138Y-80121067D01*
X123147370Y-80114003D01*
X123154126Y-80097168D01*
X123164972Y-80072974D01*
X123175886Y-80066359D01*
X123187541Y-80076719D01*
X123187011Y-80100151D01*
X123186094Y-80124701D01*
X123197030Y-80127515D01*
X123201759Y-80125468D01*
X123216661Y-80105256D01*
X123219298Y-80082970D01*
X123223441Y-80051492D01*
X123238461Y-80036583D01*
X123258267Y-80043548D01*
X123261071Y-80046564D01*
X123270596Y-80054002D01*
X123267926Y-80037738D01*
X123266727Y-80033814D01*
X123265343Y-80010634D01*
X123265204Y-80008294D01*
X123269177Y-80006096D01*
X123317211Y-80006096D01*
X123325583Y-80017592D01*
X123336484Y-80044233D01*
X123335295Y-80057658D01*
X123334756Y-80089115D01*
X123347538Y-80113454D01*
X123364305Y-80120153D01*
X123373546Y-80107662D01*
X123370926Y-80085608D01*
X123367036Y-80062127D01*
X123379552Y-80058185D01*
X123395337Y-80062042D01*
X123420701Y-80065504D01*
X123427490Y-80053694D01*
X123427340Y-80051040D01*
X123414318Y-80035096D01*
X123399005Y-80032783D01*
X123372284Y-80021795D01*
X123354223Y-79994533D01*
X123345332Y-79978023D01*
X123344395Y-79976283D01*
X123365221Y-79976283D01*
X123372403Y-79992008D01*
X123393970Y-80003060D01*
X123406447Y-80003573D01*
X123420905Y-79999834D01*
X123412659Y-79990463D01*
X123401337Y-79983081D01*
X123380092Y-79973607D01*
X123375418Y-79971522D01*
X123365221Y-79976283D01*
X123344395Y-79976283D01*
X123340404Y-79968873D01*
X123434206Y-79968873D01*
X123439856Y-79980935D01*
X123462270Y-79999698D01*
X123463570Y-80000584D01*
X123490280Y-80015241D01*
X123505469Y-80017330D01*
X123505661Y-80017127D01*
X123500012Y-80005064D01*
X123477598Y-79986301D01*
X123476298Y-79985415D01*
X123449588Y-79970758D01*
X123434399Y-79968669D01*
X123434206Y-79968873D01*
X123340404Y-79968873D01*
X123339238Y-79966708D01*
X123327860Y-79954716D01*
X123327452Y-79954709D01*
X123325594Y-79963738D01*
X123328090Y-79967737D01*
X123327753Y-79985734D01*
X123323200Y-79990500D01*
X123317211Y-80006096D01*
X123269177Y-80006096D01*
X123278026Y-80001200D01*
X123297948Y-79987808D01*
X123303497Y-79974374D01*
X123316534Y-79953788D01*
X123328894Y-79941323D01*
X123337754Y-79932389D01*
X123431014Y-79932389D01*
X123442215Y-79942995D01*
X123463219Y-79940846D01*
X123479714Y-79927430D01*
X123479767Y-79927327D01*
X123476161Y-79914679D01*
X123468853Y-79913593D01*
X123466767Y-79908579D01*
X123485167Y-79894983D01*
X123490709Y-79891739D01*
X123511730Y-79876996D01*
X123512246Y-79869798D01*
X123509474Y-79869647D01*
X123483381Y-79878683D01*
X123454905Y-79898647D01*
X123434704Y-79921017D01*
X123431014Y-79932389D01*
X123337754Y-79932389D01*
X123344912Y-79925171D01*
X123380316Y-79895471D01*
X123414430Y-79871643D01*
X123438937Y-79860638D01*
X123439655Y-79860558D01*
X123451700Y-79850320D01*
X123451755Y-79848130D01*
X123458010Y-79828896D01*
X123470044Y-79807877D01*
X123483701Y-79788876D01*
X123486090Y-79794321D01*
X123482654Y-79814519D01*
X123479699Y-79838418D01*
X123486925Y-79838609D01*
X123497114Y-79829230D01*
X123501798Y-79821856D01*
X123503562Y-79819078D01*
X123533547Y-79819078D01*
X123540318Y-79846268D01*
X123551020Y-79858421D01*
X123559919Y-79850711D01*
X123561524Y-79842636D01*
X123555218Y-79814174D01*
X123547657Y-79804638D01*
X123535208Y-79800622D01*
X123533547Y-79819078D01*
X123503562Y-79819078D01*
X123510630Y-79807950D01*
X123509892Y-79798191D01*
X123509804Y-79797018D01*
X123512121Y-79791414D01*
X123587350Y-79791414D01*
X123599730Y-79802800D01*
X123609493Y-79803532D01*
X123627397Y-79794376D01*
X123629196Y-79787753D01*
X123616815Y-79776366D01*
X123607052Y-79775634D01*
X123589148Y-79784790D01*
X123587350Y-79791414D01*
X123512121Y-79791414D01*
X123514800Y-79784937D01*
X123536666Y-79773488D01*
X123560076Y-79762719D01*
X123564821Y-79755277D01*
X123568104Y-79744905D01*
X123568943Y-79742255D01*
X123571695Y-79738199D01*
X123644756Y-79738199D01*
X123654353Y-79750752D01*
X123673763Y-79763428D01*
X123682110Y-79758271D01*
X123675011Y-79742513D01*
X123654798Y-79730031D01*
X123649681Y-79729738D01*
X123644756Y-79738199D01*
X123571695Y-79738199D01*
X123587223Y-79715313D01*
X123604466Y-79693760D01*
X123613317Y-79685228D01*
X123619004Y-79679746D01*
X123675969Y-79679746D01*
X123687786Y-79683626D01*
X123697373Y-79683398D01*
X123715300Y-79674473D01*
X123717114Y-79668056D01*
X123706218Y-79661276D01*
X123695711Y-79664404D01*
X123678224Y-79675911D01*
X123675969Y-79679746D01*
X123619004Y-79679746D01*
X123647395Y-79652379D01*
X123687200Y-79635237D01*
X123691819Y-79634689D01*
X123722461Y-79626190D01*
X123737122Y-79611791D01*
X123736605Y-79600300D01*
X123721656Y-79605907D01*
X123710735Y-79612776D01*
X123689518Y-79625661D01*
X123687078Y-79620854D01*
X123699281Y-79597573D01*
X123720621Y-79572511D01*
X123741695Y-79564177D01*
X123760578Y-79558560D01*
X123763104Y-79551092D01*
X123764344Y-79547897D01*
X123768588Y-79536969D01*
X123889253Y-79536969D01*
X123902067Y-79538725D01*
X123905243Y-79538495D01*
X123929842Y-79529181D01*
X123936249Y-79521942D01*
X123936297Y-79509522D01*
X123919844Y-79513025D01*
X123901377Y-79524993D01*
X123889253Y-79536969D01*
X123768588Y-79536969D01*
X123770838Y-79531176D01*
X123791462Y-79503137D01*
X123793816Y-79500495D01*
X123815293Y-79472097D01*
X123824492Y-79450522D01*
X123824476Y-79449289D01*
X123834705Y-79434670D01*
X123846338Y-79431419D01*
X123861687Y-79426164D01*
X123860446Y-79421715D01*
X123863681Y-79407904D01*
X123881607Y-79380306D01*
X123901499Y-79355430D01*
X123929092Y-79320834D01*
X123946835Y-79294006D01*
X123950573Y-79284020D01*
X123958553Y-79264734D01*
X123970206Y-79250698D01*
X123990585Y-79220814D01*
X124000558Y-79196281D01*
X124013694Y-79172738D01*
X124027160Y-79170950D01*
X124036829Y-79171852D01*
X124032181Y-79163443D01*
X124029609Y-79140495D01*
X124037682Y-79122137D01*
X124053093Y-79093568D01*
X124070982Y-79051870D01*
X124077151Y-79035396D01*
X124091480Y-78998942D01*
X124102801Y-78976473D01*
X124106096Y-78973113D01*
X124108252Y-78959910D01*
X124107724Y-78925607D01*
X124104663Y-78876963D01*
X124103599Y-78864239D01*
X124094143Y-78756149D01*
X124010593Y-78765129D01*
X123933535Y-78780988D01*
X123849322Y-78814086D01*
X123822399Y-78827274D01*
X123769556Y-78852468D01*
X123722428Y-78872022D01*
X123689377Y-78882545D01*
X123684067Y-78883387D01*
X123655405Y-78890682D01*
X123643590Y-78899829D01*
X123629260Y-78915965D01*
X123599964Y-78942524D01*
X123562531Y-78973966D01*
X123523788Y-79004750D01*
X123490567Y-79029337D01*
X123469692Y-79042188D01*
X123467207Y-79042917D01*
X123444019Y-79056531D01*
X123414950Y-79089504D01*
X123384013Y-79134996D01*
X123355222Y-79186170D01*
X123332589Y-79236187D01*
X123320129Y-79278207D01*
X123319059Y-79295356D01*
X123310761Y-79323159D01*
X123292214Y-79345572D01*
X123274972Y-79362725D01*
X123274898Y-79368967D01*
X123278335Y-79377162D01*
X123272240Y-79388804D01*
X123261863Y-79412359D01*
X123261913Y-79421332D01*
X123259171Y-79439265D01*
X123248087Y-79475524D01*
X123230995Y-79522545D01*
X123229443Y-79526534D01*
X123211530Y-79574881D01*
X123198929Y-79613804D01*
X123194213Y-79635310D01*
X123194239Y-79635895D01*
X123187353Y-79657961D01*
X123172543Y-79681287D01*
X123157543Y-79708455D01*
X123156062Y-79726083D01*
X123154557Y-79747451D01*
X123142561Y-79781382D01*
X123138231Y-79790590D01*
X123122744Y-79827726D01*
X123115535Y-79856839D01*
X123115493Y-79860807D01*
X123111558Y-79888011D01*
X123099843Y-79923520D01*
X123088044Y-79957443D01*
X123083787Y-79980946D01*
X123083802Y-79981146D01*
X123079675Y-80004191D01*
X123067900Y-80038423D01*
X123067044Y-80040508D01*
X123058775Y-80075393D01*
X123058148Y-80115368D01*
X122656432Y-80115368D01*
X122658121Y-80107863D01*
X122651610Y-80099215D01*
X122636934Y-80099455D01*
X122622562Y-80095604D01*
X122626555Y-80075574D01*
X122627600Y-80073085D01*
X122629455Y-80064061D01*
X122629725Y-80062746D01*
X122644497Y-80062746D01*
X122647307Y-80076536D01*
X122657579Y-80084143D01*
X122684216Y-80094255D01*
X122692006Y-80089873D01*
X122677629Y-80073138D01*
X122655394Y-80060938D01*
X122644497Y-80062746D01*
X122629725Y-80062746D01*
X122634102Y-80041463D01*
X122635404Y-79997548D01*
X122634625Y-79984622D01*
X122633423Y-79948703D01*
X122638369Y-79938468D01*
X122644344Y-79943787D01*
X122660894Y-79955224D01*
X122667986Y-79952600D01*
X122667381Y-79935264D01*
X122659941Y-79924930D01*
X122651208Y-79905422D01*
X122649538Y-79868567D01*
X122654714Y-79809446D01*
X122654758Y-79809084D01*
X122662507Y-79746881D01*
X122668966Y-79707735D01*
X122675797Y-79686858D01*
X122684667Y-79679460D01*
X122697239Y-79680749D01*
X122699167Y-79681287D01*
X122713229Y-79682639D01*
X122711191Y-79670094D01*
X122701426Y-79651735D01*
X122689595Y-79620524D01*
X122693365Y-79605076D01*
X122704039Y-79580797D01*
X122705954Y-79541440D01*
X122698770Y-79498634D01*
X122696664Y-79491979D01*
X122684282Y-79470059D01*
X122662953Y-79468380D01*
X122648745Y-79472669D01*
X122613174Y-79490228D01*
X122591530Y-79507156D01*
X122562088Y-79526497D01*
X122544061Y-79531297D01*
X122511466Y-79541985D01*
X122491016Y-79554972D01*
X122469402Y-79567811D01*
X122427185Y-79588916D01*
X122369619Y-79615800D01*
X122301958Y-79645972D01*
X122268704Y-79660349D01*
X122192539Y-79693573D01*
X122118610Y-79726934D01*
X122054013Y-79757154D01*
X122005847Y-79780954D01*
X121994861Y-79786790D01*
X121953151Y-79810240D01*
X121932226Y-79825731D01*
X121928245Y-79838637D01*
X121937362Y-79854330D01*
X121942155Y-79860484D01*
X121958058Y-79887207D01*
X121960438Y-79904539D01*
X121962804Y-79925116D01*
X121977842Y-79964355D01*
X122002876Y-80017490D01*
X122035232Y-80079760D01*
X122072238Y-80146399D01*
X122111217Y-80212644D01*
X122149496Y-80273731D01*
X122184400Y-80324894D01*
X122213254Y-80361372D01*
X122221831Y-80370164D01*
X122240907Y-80394953D01*
X122243913Y-80413913D01*
X122246930Y-80427279D01*
X122254244Y-80428337D01*
X122273793Y-80436249D01*
X122306231Y-80458193D01*
X122338392Y-80484226D01*
X122375884Y-80514119D01*
X122407078Y-80534219D01*
X122422962Y-80539846D01*
X122439498Y-80550606D01*
X122454388Y-80578967D01*
X122455272Y-80581673D01*
X122459826Y-80617836D01*
X122445222Y-80645940D01*
X122408126Y-80670166D01*
X122373038Y-80684823D01*
X122306485Y-80703117D01*
X122251127Y-80705246D01*
X122212566Y-80691024D01*
X122211553Y-80690198D01*
X122189609Y-80677640D01*
X122179224Y-80678848D01*
X122163001Y-80680091D01*
X122151377Y-80674210D01*
X122135004Y-80667147D01*
X122132177Y-80670371D01*
X122121680Y-80671267D01*
X122094265Y-80661569D01*
X122080878Y-80655497D01*
X122043875Y-80640047D01*
X122016034Y-80632299D01*
X122011364Y-80632079D01*
X121983974Y-80626215D01*
X121946965Y-80608882D01*
X121909324Y-80585610D01*
X121891788Y-80571432D01*
X121888034Y-80568397D01*
X121926477Y-80568397D01*
X121937845Y-80581716D01*
X121941718Y-80581949D01*
X121954888Y-80576002D01*
X121955129Y-80574578D01*
X121944312Y-80563524D01*
X121939888Y-80561026D01*
X121927130Y-80563257D01*
X121926477Y-80568397D01*
X121888034Y-80568397D01*
X121880035Y-80561929D01*
X121874685Y-80553845D01*
X121873967Y-80552760D01*
X121887085Y-80552760D01*
X121890852Y-80558854D01*
X121903750Y-80565856D01*
X121912501Y-80554381D01*
X121914063Y-80535012D01*
X121907798Y-80530744D01*
X121887593Y-80534280D01*
X121887085Y-80552760D01*
X121873967Y-80552760D01*
X121868112Y-80543911D01*
X121859741Y-80520393D01*
X121845595Y-80511892D01*
X121834421Y-80523423D01*
X121834145Y-80524424D01*
X121831382Y-80525763D01*
X121831027Y-80504411D01*
X121831117Y-80502064D01*
X121830377Y-80475498D01*
X121822743Y-80472638D01*
X121813816Y-80480309D01*
X121789105Y-80493539D01*
X121776321Y-80493441D01*
X121769863Y-80487718D01*
X121782100Y-80484579D01*
X121803077Y-80475649D01*
X121801011Y-80462929D01*
X121778358Y-80454211D01*
X121772369Y-80453672D01*
X121746036Y-80443295D01*
X121738949Y-80420775D01*
X121734652Y-80400054D01*
X121722723Y-80404114D01*
X121720137Y-80406572D01*
X121705725Y-80414786D01*
X121700951Y-80400486D01*
X121687801Y-80376933D01*
X121677307Y-80371219D01*
X121657677Y-80359382D01*
X121654630Y-80353002D01*
X121664354Y-80345710D01*
X121675204Y-80347181D01*
X121692855Y-80343282D01*
X121694869Y-80330964D01*
X121681706Y-80313259D01*
X121666718Y-80310840D01*
X121635129Y-80303394D01*
X121621039Y-80293431D01*
X121609539Y-80279198D01*
X121620649Y-80279257D01*
X121625216Y-80280513D01*
X121644408Y-80279256D01*
X121647530Y-80271855D01*
X121634980Y-80259425D01*
X121623763Y-80258375D01*
X121607175Y-80251183D01*
X121607546Y-80238710D01*
X121603388Y-80220839D01*
X121589686Y-80218201D01*
X121573725Y-80217637D01*
X121583132Y-80210643D01*
X121590074Y-80207120D01*
X121605697Y-80196919D01*
X121601170Y-80185714D01*
X121583433Y-80171371D01*
X121559903Y-80148264D01*
X121550846Y-80130686D01*
X121537695Y-80114742D01*
X121520810Y-80108696D01*
X121497019Y-80097663D01*
X121490790Y-80086880D01*
X121494588Y-80076715D01*
X121511748Y-80085450D01*
X121530352Y-80095880D01*
X121534899Y-80095688D01*
X121534058Y-80047018D01*
X121517307Y-80016884D01*
X121517253Y-80016842D01*
X121501153Y-80008019D01*
X121498163Y-80010500D01*
X121489393Y-80011248D01*
X121474089Y-80002619D01*
X121457523Y-79992604D01*
X121459435Y-80000770D01*
X121468105Y-80014552D01*
X121485183Y-80045170D01*
X121484096Y-80056025D01*
X121467139Y-80047887D01*
X121446231Y-80022384D01*
X121438625Y-80003123D01*
X121426004Y-79982410D01*
X121406091Y-79970990D01*
X121388777Y-79972006D01*
X121383539Y-79985599D01*
X121376967Y-80010173D01*
X121366908Y-80026918D01*
X121354120Y-80054417D01*
X121342034Y-80097360D01*
X121337263Y-80121981D01*
X121328240Y-80167083D01*
X121318117Y-80202411D01*
X121313235Y-80213383D01*
X121298383Y-80247256D01*
X121283335Y-80296577D01*
X121271521Y-80349027D01*
X121267244Y-80378531D01*
X121258475Y-80410664D01*
X121244761Y-80427682D01*
X121232775Y-80447796D01*
X121230663Y-80487163D01*
X121230907Y-80490199D01*
X121230782Y-80527130D01*
X121224570Y-80551061D01*
X121222390Y-80553521D01*
X121213275Y-80573693D01*
X121212175Y-80597411D01*
X121209554Y-80623655D01*
X121201205Y-80632680D01*
X121193439Y-80645803D01*
X121191318Y-80676966D01*
X121191988Y-80687988D01*
X121190242Y-80730099D01*
X121179005Y-80759403D01*
X121177315Y-80761272D01*
X121161785Y-80789550D01*
X121160072Y-80805165D01*
X121149910Y-80830654D01*
X121119975Y-80850427D01*
X121078320Y-80861958D01*
X121032991Y-80862727D01*
X121001640Y-80854810D01*
X120979559Y-80839319D01*
X120975085Y-80826493D01*
X120966810Y-80809456D01*
X120941602Y-80790649D01*
X120941451Y-80790567D01*
X120914002Y-80769093D01*
X120902006Y-80747287D01*
X120890670Y-80721814D01*
X120867616Y-80695174D01*
X120847142Y-80665650D01*
X120840357Y-80632222D01*
X120847265Y-80604369D01*
X120867569Y-80591591D01*
X120884853Y-80578822D01*
X120886395Y-80568860D01*
X120875642Y-80552051D01*
X120855649Y-80552366D01*
X120838023Y-80568229D01*
X120834914Y-80575851D01*
X120828075Y-80591580D01*
X120819262Y-80582172D01*
X120815103Y-80574070D01*
X120804609Y-80542087D01*
X120797125Y-80500859D01*
X120797004Y-80499761D01*
X120794330Y-80468379D01*
X120798213Y-80461435D01*
X120812030Y-80475544D01*
X120816212Y-80480512D01*
X120843970Y-80501631D01*
X120867746Y-80507242D01*
X120890482Y-80501341D01*
X120888278Y-80488411D01*
X120860762Y-80466395D01*
X120860342Y-80466113D01*
X120837697Y-80446415D01*
X120835225Y-80424062D01*
X120837145Y-80417727D01*
X120837723Y-80415820D01*
X120858951Y-80415820D01*
X120867904Y-80434268D01*
X120874802Y-80436346D01*
X120887476Y-80425149D01*
X120887603Y-80422000D01*
X120875810Y-80403995D01*
X120871751Y-80401473D01*
X120860086Y-80405680D01*
X120858951Y-80415820D01*
X120837723Y-80415820D01*
X120840954Y-80405158D01*
X120850472Y-80370004D01*
X120852863Y-80346241D01*
X120843308Y-80328757D01*
X120827949Y-80332396D01*
X120820800Y-80346195D01*
X120818531Y-80348272D01*
X120819370Y-80328891D01*
X120826224Y-80298433D01*
X120834973Y-80284235D01*
X120841244Y-80265298D01*
X120838538Y-80255670D01*
X120836142Y-80234225D01*
X120836821Y-80228004D01*
X120837008Y-80226289D01*
X120856424Y-80226289D01*
X120867793Y-80239607D01*
X120871666Y-80239841D01*
X120884836Y-80233892D01*
X120885077Y-80232469D01*
X120874260Y-80221415D01*
X120869836Y-80218917D01*
X120857079Y-80221148D01*
X120856424Y-80226289D01*
X120837008Y-80226289D01*
X120839668Y-80201942D01*
X120847006Y-80168315D01*
X120856046Y-80142831D01*
X120864679Y-80134980D01*
X120865283Y-80135394D01*
X120869944Y-80125864D01*
X120875109Y-80094406D01*
X120879873Y-80047061D01*
X120881222Y-80028710D01*
X120887414Y-79967209D01*
X120895952Y-79927841D01*
X120906139Y-79913544D01*
X120916699Y-79900931D01*
X120913649Y-79877545D01*
X120910031Y-79852983D01*
X120921249Y-79848271D01*
X120926170Y-79849448D01*
X120941304Y-79848636D01*
X120938871Y-79829023D01*
X120938095Y-79826806D01*
X120937148Y-79798539D01*
X120945279Y-79758670D01*
X120958995Y-79718721D01*
X120974801Y-79690215D01*
X120981285Y-79684391D01*
X120984253Y-79670459D01*
X120981302Y-79665219D01*
X120980671Y-79646018D01*
X120988974Y-79609219D01*
X120991399Y-79601879D01*
X121003065Y-79566578D01*
X121007906Y-79553661D01*
X121542529Y-79553661D01*
X121550930Y-79548195D01*
X121571583Y-79526841D01*
X121584576Y-79512133D01*
X121608646Y-79481341D01*
X121614082Y-79464346D01*
X121607096Y-79458658D01*
X121604296Y-79456378D01*
X121599985Y-79452782D01*
X121674260Y-79452782D01*
X121686642Y-79464169D01*
X121696404Y-79464900D01*
X121715713Y-79472036D01*
X121718751Y-79479344D01*
X121724933Y-79488543D01*
X121728112Y-79486159D01*
X121729796Y-79467062D01*
X121725905Y-79455898D01*
X121709267Y-79440836D01*
X121688021Y-79437709D01*
X121674781Y-79447280D01*
X121674260Y-79452782D01*
X121599985Y-79452782D01*
X121596368Y-79449765D01*
X121615990Y-79444878D01*
X121618028Y-79444634D01*
X121651425Y-79434526D01*
X121669103Y-79421960D01*
X121687597Y-79410178D01*
X121713750Y-79418174D01*
X121735552Y-79426386D01*
X121741251Y-79417258D01*
X121741002Y-79412364D01*
X121746034Y-79402552D01*
X121748606Y-79397538D01*
X121763191Y-79398636D01*
X121779100Y-79399097D01*
X121777980Y-79395714D01*
X121824194Y-79395714D01*
X121831577Y-79409972D01*
X121853290Y-79421402D01*
X121864840Y-79422053D01*
X121878033Y-79418341D01*
X121868024Y-79408411D01*
X121858821Y-79402646D01*
X121832692Y-79390835D01*
X121824194Y-79395714D01*
X121777980Y-79395714D01*
X121776469Y-79391149D01*
X121780250Y-79377441D01*
X121807778Y-79363904D01*
X121810362Y-79363090D01*
X121845397Y-79349775D01*
X121868405Y-79336536D01*
X121868800Y-79336169D01*
X121885347Y-79327824D01*
X121891612Y-79324665D01*
X121923522Y-79316501D01*
X122014777Y-79316501D01*
X122017698Y-79330018D01*
X122039768Y-79343540D01*
X122055145Y-79348071D01*
X122057336Y-79337493D01*
X122056898Y-79327944D01*
X122044114Y-79310428D01*
X122034144Y-79308851D01*
X122014777Y-79316501D01*
X121923522Y-79316501D01*
X121926743Y-79315677D01*
X121956773Y-79307668D01*
X121969875Y-79298076D01*
X121969894Y-79297427D01*
X121981125Y-79288122D01*
X122003805Y-79283394D01*
X122029602Y-79276326D01*
X122037457Y-79266394D01*
X122048267Y-79254325D01*
X122066397Y-79249807D01*
X122095421Y-79240334D01*
X122134454Y-79219352D01*
X122153355Y-79206844D01*
X122188360Y-79184035D01*
X122214403Y-79170749D01*
X122221862Y-79169225D01*
X122240314Y-79162765D01*
X122252685Y-79152683D01*
X122276791Y-79129108D01*
X122304272Y-79102957D01*
X122336744Y-79072477D01*
X122297514Y-79075441D01*
X122256727Y-79082806D01*
X122196446Y-79099105D01*
X122122906Y-79122214D01*
X122042341Y-79150008D01*
X121960986Y-79180360D01*
X121885073Y-79211145D01*
X121837685Y-79232200D01*
X121741777Y-79278379D01*
X121670362Y-79316216D01*
X121621597Y-79346886D01*
X121593637Y-79371562D01*
X121584639Y-79391416D01*
X121584708Y-79393139D01*
X121580895Y-79414758D01*
X121574613Y-79419334D01*
X121566819Y-79432041D01*
X121557371Y-79462352D01*
X121548681Y-79500159D01*
X121543163Y-79535357D01*
X121542529Y-79553661D01*
X121007906Y-79553661D01*
X121034949Y-79481507D01*
X120996167Y-79448965D01*
X120957532Y-79406324D01*
X120946657Y-79366240D01*
X120963463Y-79328208D01*
X120975563Y-79315570D01*
X120999285Y-79288482D01*
X121000141Y-79269687D01*
X120996895Y-79265620D01*
X120991074Y-79248907D01*
X121003719Y-79238630D01*
X121025350Y-79239348D01*
X121037589Y-79246038D01*
X121049269Y-79251970D01*
X121046571Y-79237122D01*
X121043300Y-79228624D01*
X121037525Y-79205851D01*
X121046643Y-79204564D01*
X121060545Y-79203444D01*
X121061606Y-79197719D01*
X121072324Y-79187907D01*
X121095928Y-79188383D01*
X121123926Y-79187616D01*
X121130142Y-79177800D01*
X121120834Y-79168805D01*
X121115523Y-79171356D01*
X121102572Y-79171375D01*
X121101035Y-79166426D01*
X121111661Y-79153406D01*
X121127641Y-79149213D01*
X121149626Y-79139786D01*
X121153977Y-79128928D01*
X121162420Y-79106782D01*
X121178555Y-79088536D01*
X121198057Y-79058551D01*
X121201912Y-79034194D01*
X121206392Y-79008938D01*
X121217011Y-79000837D01*
X121229942Y-78987544D01*
X121234699Y-78960637D01*
X121238889Y-78930382D01*
X121247927Y-78916140D01*
X121259415Y-78899024D01*
X121259751Y-78892013D01*
X121269189Y-78870545D01*
X121278374Y-78863885D01*
X121292787Y-78843871D01*
X121295567Y-78819408D01*
X121301843Y-78786413D01*
X121315704Y-78768437D01*
X121329625Y-78755725D01*
X121327584Y-78752644D01*
X121325536Y-78742383D01*
X121333212Y-78717036D01*
X121346700Y-78685974D01*
X121362090Y-78658570D01*
X121371815Y-78646658D01*
X121401803Y-78634681D01*
X121443991Y-78632523D01*
X121484346Y-78640208D01*
X121497469Y-78646439D01*
X121530156Y-78660009D01*
X121550797Y-78662409D01*
X121573321Y-78670263D01*
X121608159Y-78692428D01*
X121648289Y-78723129D01*
X121686691Y-78756590D01*
X121716346Y-78787037D01*
X121730232Y-78808693D01*
X121730490Y-78810237D01*
X121740718Y-78826780D01*
X121747044Y-78827964D01*
X121756422Y-78838261D01*
X121754743Y-78858805D01*
X121751728Y-78880320D01*
X121759997Y-78878289D01*
X121766778Y-78871930D01*
X121787982Y-78860319D01*
X121798148Y-78862269D01*
X121804002Y-78859157D01*
X121800680Y-78843335D01*
X121798619Y-78821510D01*
X121817629Y-78815764D01*
X121820793Y-78815807D01*
X121853329Y-78816296D01*
X121867618Y-78816244D01*
X121879257Y-78826475D01*
X121878520Y-78837545D01*
X121881584Y-78854930D01*
X121896422Y-78856023D01*
X121908002Y-78843809D01*
X121924860Y-78831132D01*
X121955846Y-78818891D01*
X121984422Y-78806329D01*
X121993015Y-78796298D01*
X121995627Y-78793249D01*
X122027858Y-78793249D01*
X122031199Y-78801879D01*
X122046250Y-78814988D01*
X122052101Y-78801659D01*
X122051516Y-78784460D01*
X122046328Y-78764521D01*
X122034962Y-78770303D01*
X122034666Y-78770653D01*
X122027858Y-78793249D01*
X121995627Y-78793249D01*
X121996013Y-78792798D01*
X121995995Y-78792479D01*
X121985987Y-78780021D01*
X121968666Y-78785434D01*
X121961092Y-78795182D01*
X121944961Y-78807252D01*
X121920609Y-78812532D01*
X121901713Y-78809100D01*
X121898610Y-78803975D01*
X121910089Y-78791629D01*
X121940634Y-78778308D01*
X121981509Y-78766358D01*
X122023975Y-78758127D01*
X122059292Y-78755968D01*
X122070807Y-78757681D01*
X122097864Y-78761535D01*
X122104997Y-78750671D01*
X122104993Y-78750618D01*
X122108279Y-78742008D01*
X122117360Y-78751387D01*
X122141159Y-78761896D01*
X122172458Y-78756286D01*
X122206387Y-78750879D01*
X122224325Y-78757273D01*
X122245837Y-78768304D01*
X122258303Y-78768867D01*
X122269917Y-78764151D01*
X122259635Y-78751961D01*
X122244501Y-78741081D01*
X122207138Y-78715671D01*
X122242944Y-78723281D01*
X122281513Y-78726369D01*
X122327240Y-78723655D01*
X122331079Y-78723117D01*
X122372684Y-78722041D01*
X122393030Y-78735104D01*
X122393401Y-78735834D01*
X122408465Y-78748579D01*
X122416680Y-78746414D01*
X122435123Y-78746931D01*
X122443825Y-78754662D01*
X122454970Y-78764384D01*
X122456386Y-78755545D01*
X122465989Y-78748250D01*
X122497777Y-78755159D01*
X122520529Y-78763276D01*
X122558273Y-78779619D01*
X122582383Y-78793733D01*
X122586919Y-78799167D01*
X122599219Y-78810799D01*
X122628937Y-78826975D01*
X122642592Y-78833042D01*
X122734634Y-78885704D01*
X122811349Y-78957907D01*
X122825563Y-78976066D01*
X122850613Y-79005983D01*
X122870679Y-79022903D01*
X122875658Y-79024392D01*
X122882303Y-79015193D01*
X122879763Y-79010423D01*
X122878536Y-78990804D01*
X122886083Y-78955165D01*
X122893218Y-78932711D01*
X122906429Y-78892309D01*
X122914159Y-78862647D01*
X122915064Y-78854769D01*
X122922961Y-78834925D01*
X122932499Y-78823390D01*
X122947988Y-78796377D01*
X122956347Y-78764331D01*
X122966374Y-78728152D01*
X122980195Y-78705272D01*
X122995217Y-78677175D01*
X122996644Y-78662627D01*
X123002597Y-78636469D01*
X123020070Y-78599757D01*
X123028570Y-78585732D01*
X123052410Y-78547668D01*
X123070870Y-78516096D01*
X123074573Y-78509087D01*
X123088152Y-78494137D01*
X123114231Y-78488128D01*
X123153271Y-78488530D01*
X123190714Y-78492722D01*
X123212009Y-78499564D01*
X123214045Y-78503854D01*
X123219907Y-78511956D01*
X123232636Y-78511829D01*
X123258695Y-78516085D01*
X123297981Y-78530715D01*
X123340187Y-78550913D01*
X123375006Y-78571873D01*
X123390110Y-78585255D01*
X123411943Y-78595159D01*
X123446070Y-78595107D01*
X123480104Y-78586933D01*
X123501656Y-78572472D01*
X123503542Y-78568460D01*
X123511024Y-78554543D01*
X123524551Y-78562850D01*
X123530863Y-78569584D01*
X123546665Y-78584936D01*
X123550657Y-78578561D01*
X123550245Y-78569131D01*
X123555663Y-78543261D01*
X123561669Y-78535775D01*
X123569791Y-78537327D01*
X123568299Y-78548421D01*
X123570336Y-78566726D01*
X123577765Y-78569407D01*
X123595052Y-78556614D01*
X123599948Y-78546024D01*
X123611695Y-78531691D01*
X123624226Y-78536472D01*
X123649140Y-78538905D01*
X123669050Y-78526377D01*
X123692277Y-78511837D01*
X123704426Y-78510997D01*
X123720211Y-78508473D01*
X123747968Y-78492998D01*
X123753284Y-78489309D01*
X123778442Y-78466962D01*
X123778592Y-78453092D01*
X123775510Y-78451070D01*
X123770267Y-78442896D01*
X123787948Y-78438789D01*
X123816560Y-78441856D01*
X123828332Y-78449095D01*
X123848561Y-78458305D01*
X123871399Y-78459383D01*
X123901068Y-78462093D01*
X123914466Y-78469671D01*
X123935310Y-78479913D01*
X123949674Y-78480646D01*
X123980675Y-78488109D01*
X123994095Y-78497689D01*
X124014593Y-78510039D01*
X124024039Y-78508829D01*
X124040505Y-78510750D01*
X124047829Y-78517813D01*
X124066513Y-78532463D01*
X124102571Y-78553852D01*
X124144131Y-78575325D01*
X124190461Y-78603051D01*
X124239589Y-78640970D01*
X124286691Y-78684155D01*
X124326941Y-78727682D01*
X124355511Y-78766625D01*
X124367578Y-78796059D01*
X124367103Y-78802888D01*
X124370613Y-78820458D01*
X124379283Y-78822564D01*
X124398007Y-78834478D01*
X124415552Y-78871881D01*
X124431168Y-78932263D01*
X124444102Y-79013110D01*
X124448842Y-79055425D01*
X124454523Y-79131679D01*
X124453726Y-79191967D01*
X124445898Y-79247693D01*
X124437801Y-79282882D01*
X124415162Y-79356366D01*
X124389878Y-79411888D01*
X124363837Y-79446109D01*
X124339854Y-79455818D01*
X124320678Y-79457552D01*
X124320077Y-79473227D01*
X124328667Y-79493156D01*
X124330933Y-79523046D01*
X124321314Y-79536021D01*
X124302295Y-79563395D01*
X124294304Y-79585546D01*
X124281063Y-79611276D01*
X124266680Y-79619534D01*
X124245913Y-79632816D01*
X124239207Y-79645926D01*
X124223194Y-79681384D01*
X124199700Y-79712979D01*
X124175723Y-79732555D01*
X124162833Y-79734877D01*
X124148199Y-79740998D01*
X124146420Y-79755325D01*
X124138393Y-79773938D01*
X124115672Y-79807137D01*
X124082797Y-79849594D01*
X124044310Y-79895982D01*
X124004752Y-79940975D01*
X123968665Y-79979246D01*
X123940591Y-80005468D01*
X123925557Y-80014371D01*
X123909610Y-80024243D01*
X123891450Y-80044999D01*
X123868116Y-80068807D01*
X123849704Y-80077813D01*
X123830045Y-80089849D01*
X123805914Y-80117299D01*
X123800873Y-80124608D01*
X123774501Y-80155946D01*
X123748745Y-80164800D01*
X123741062Y-80163932D01*
X123722710Y-80162272D01*
X123730271Y-80169403D01*
X123730670Y-80169631D01*
X123738793Y-80181254D01*
X123727151Y-80199664D01*
X123707014Y-80218303D01*
X123660281Y-80255700D01*
X123619722Y-80283276D01*
X123591805Y-80296720D01*
X123588475Y-80297320D01*
X123572425Y-80307794D01*
X123548492Y-80332106D01*
X123544933Y-80336268D01*
X123516155Y-80362720D01*
X123488792Y-80376222D01*
X123486742Y-80376499D01*
X123458676Y-80388846D01*
X123437566Y-80408912D01*
X123411239Y-80433912D01*
X123388576Y-80439440D01*
X123375950Y-80424397D01*
X123375257Y-80419671D01*
X123370025Y-80405259D01*
X123355004Y-80415117D01*
X123354641Y-80415475D01*
X123343278Y-80439972D01*
X123345385Y-80453145D01*
X123343537Y-80470009D01*
X123328164Y-80474707D01*
X123297588Y-80485775D01*
X123286289Y-80495237D01*
X123273013Y-80504455D01*
X123269855Y-80500189D01*
X123256695Y-80493377D01*
X123224733Y-80491396D01*
X123205926Y-80492429D01*
X123163926Y-80498756D01*
X123144985Y-80507570D01*
X123151109Y-80517492D01*
X123162834Y-80522029D01*
X123165108Y-80527840D01*
X123146258Y-80533387D01*
X123075371Y-80544174D01*
X123031352Y-80548067D01*
X123014321Y-80545055D01*
X123014428Y-80542925D01*
X123010189Y-80530514D01*
X122983636Y-80526694D01*
X122939164Y-80531628D01*
X122905484Y-80538911D01*
X122845744Y-80550556D01*
X122809494Y-80549585D01*
X122795191Y-80535928D01*
X122794912Y-80533912D01*
X122782734Y-80523565D01*
X122774697Y-80523129D01*
X122754560Y-80514156D01*
X122731413Y-80493360D01*
X122727328Y-80489689D01*
X122718143Y-80479171D01*
G37*
G36*
X103360816Y-81736268D02*
G01*
X103368795Y-81725678D01*
X103372035Y-81716170D01*
X103364393Y-81715521D01*
X103350595Y-81704419D01*
X103343530Y-81678478D01*
X103335540Y-81650000D01*
X103730003Y-81650000D01*
X103733467Y-81724041D01*
X103740299Y-81793537D01*
X103750143Y-81850483D01*
X103761518Y-81884845D01*
X103780634Y-81915048D01*
X103802532Y-81926918D01*
X103839286Y-81926757D01*
X103841460Y-81926571D01*
X103884777Y-81917082D01*
X103915053Y-81899961D01*
X103916973Y-81897876D01*
X103932717Y-81882668D01*
X103937741Y-81882801D01*
X103947315Y-81881556D01*
X103967610Y-81867136D01*
X104003491Y-81848017D01*
X104039028Y-81839995D01*
X104065713Y-81839386D01*
X104067249Y-81844058D01*
X104054495Y-81851710D01*
X104039833Y-81862556D01*
X104044027Y-81865693D01*
X104071103Y-81868970D01*
X104085371Y-81872402D01*
X104101880Y-81873560D01*
X104102532Y-81858522D01*
X104097651Y-81842908D01*
X104092510Y-81812959D01*
X104106023Y-81796651D01*
X104108944Y-81795211D01*
X104130847Y-81779933D01*
X104164486Y-81750894D01*
X104190729Y-81725788D01*
X104193601Y-81723040D01*
X104222137Y-81723040D01*
X104223528Y-81735275D01*
X104235227Y-81729294D01*
X104261740Y-81715758D01*
X104270669Y-81713695D01*
X104286285Y-81705204D01*
X104287156Y-81701339D01*
X104285294Y-81678262D01*
X104285177Y-81676914D01*
X104273697Y-81664268D01*
X104270445Y-81664147D01*
X104263385Y-81674955D01*
X104266139Y-81684207D01*
X104264492Y-81700111D01*
X104251291Y-81703076D01*
X104228007Y-81712977D01*
X104222137Y-81723040D01*
X104193601Y-81723040D01*
X104199591Y-81717310D01*
X104238598Y-81682319D01*
X104274880Y-81656702D01*
X104298813Y-81646501D01*
X104316960Y-81641757D01*
X104313313Y-81637033D01*
X104294530Y-81624789D01*
X104298530Y-81612475D01*
X104321203Y-81607832D01*
X104328397Y-81608626D01*
X104355018Y-81608277D01*
X104362792Y-81600113D01*
X104350285Y-81588855D01*
X104338463Y-81587918D01*
X104322971Y-81587265D01*
X104326221Y-81576162D01*
X104336232Y-81562410D01*
X104351965Y-81537539D01*
X104356200Y-81524772D01*
X104362773Y-81507906D01*
X104366684Y-81501115D01*
X104367110Y-81500375D01*
X104375149Y-81500375D01*
X104379211Y-81512181D01*
X104388672Y-81513247D01*
X104412056Y-81502954D01*
X104416996Y-81496714D01*
X104412935Y-81484908D01*
X104403473Y-81483841D01*
X104380089Y-81494134D01*
X104375149Y-81500375D01*
X104367110Y-81500375D01*
X104380360Y-81477370D01*
X104389469Y-81463232D01*
X104423288Y-81424167D01*
X104458951Y-81408770D01*
X104461982Y-81408444D01*
X104491628Y-81400100D01*
X104497902Y-81385363D01*
X104480534Y-81370023D01*
X104462699Y-81371441D01*
X104458987Y-81378106D01*
X104446969Y-81394751D01*
X104442634Y-81396081D01*
X104440442Y-81385719D01*
X104449332Y-81358337D01*
X104455944Y-81343529D01*
X104472472Y-81310977D01*
X104482825Y-81300765D01*
X104492362Y-81309714D01*
X104497623Y-81318799D01*
X104516648Y-81342993D01*
X104536238Y-81340884D01*
X104554776Y-81322612D01*
X104567196Y-81293594D01*
X104557942Y-81271392D01*
X104531843Y-81264383D01*
X104522298Y-81266248D01*
X104500930Y-81270886D01*
X104499392Y-81262708D01*
X104511590Y-81241633D01*
X104528708Y-81221689D01*
X104539295Y-81223771D01*
X104556195Y-81245231D01*
X104574981Y-81239055D01*
X104595165Y-81205508D01*
X104601539Y-81189833D01*
X104602256Y-81188161D01*
X104602765Y-81186974D01*
X104615822Y-81186974D01*
X104620162Y-81194705D01*
X104630342Y-81208726D01*
X104629354Y-81219013D01*
X104633974Y-81235830D01*
X104646329Y-81237702D01*
X104661211Y-81230639D01*
X104654544Y-81212387D01*
X104644677Y-81182270D01*
X104645382Y-81167507D01*
X104647035Y-81153764D01*
X104636561Y-81160269D01*
X104627974Y-81168517D01*
X104615822Y-81186974D01*
X104602765Y-81186974D01*
X104618856Y-81149444D01*
X104635031Y-81120359D01*
X104641474Y-81112842D01*
X104647081Y-81097325D01*
X104632187Y-81076470D01*
X104614687Y-81059522D01*
X104612137Y-81064194D01*
X104616947Y-81081095D01*
X104618620Y-81103463D01*
X104608982Y-81105987D01*
X104597039Y-81089158D01*
X104593342Y-81052414D01*
X104593360Y-81051777D01*
X104596382Y-81020158D01*
X104604875Y-81011665D01*
X104615543Y-81016821D01*
X104632673Y-81023271D01*
X104635028Y-81016671D01*
X104637453Y-80991724D01*
X104641108Y-80975765D01*
X104644208Y-80958165D01*
X104634251Y-80963363D01*
X104626599Y-80970578D01*
X104608816Y-80982073D01*
X104603441Y-80976947D01*
X104611860Y-80955443D01*
X104615339Y-80952272D01*
X104625281Y-80931770D01*
X104626840Y-80911784D01*
X104626599Y-80890269D01*
X104632638Y-80895408D01*
X104639575Y-80907985D01*
X104650914Y-80923496D01*
X104654744Y-80920714D01*
X104660516Y-80919559D01*
X104669913Y-80933442D01*
X104680620Y-80951171D01*
X104683183Y-80943537D01*
X104682505Y-80927997D01*
X104686253Y-80906083D01*
X104695371Y-80903104D01*
X104708189Y-80901340D01*
X104708854Y-80896555D01*
X104696908Y-80877934D01*
X104691649Y-80874561D01*
X104680417Y-80855932D01*
X104680246Y-80839589D01*
X104676696Y-80817787D01*
X104666702Y-80814249D01*
X104645196Y-80804209D01*
X104632954Y-80776071D01*
X104633743Y-80741471D01*
X104636179Y-80721394D01*
X104626919Y-80724947D01*
X104622218Y-80729414D01*
X104603056Y-80739003D01*
X104576753Y-80729827D01*
X104566999Y-80723905D01*
X104525912Y-80708402D01*
X104478622Y-80704517D01*
X104478403Y-80704535D01*
X104432519Y-80700891D01*
X104411265Y-80685968D01*
X104396774Y-80671581D01*
X104377969Y-80675544D01*
X104362615Y-80684854D01*
X104332951Y-80698013D01*
X104312710Y-80698083D01*
X104290005Y-80699551D01*
X104277124Y-80708287D01*
X104261082Y-80718853D01*
X104256917Y-80711266D01*
X104245116Y-80699198D01*
X104220863Y-80699983D01*
X104195915Y-80712397D01*
X104190056Y-80718205D01*
X104177083Y-80729118D01*
X104173317Y-80719670D01*
X104160208Y-80708782D01*
X104131783Y-80706436D01*
X104100331Y-80716562D01*
X104067389Y-80744275D01*
X104039605Y-80777437D01*
X104012166Y-80815216D01*
X103993731Y-80844903D01*
X103988645Y-80858065D01*
X103981557Y-80875018D01*
X103961756Y-80907923D01*
X103933230Y-80950248D01*
X103927290Y-80958622D01*
X103897390Y-81004692D01*
X103876039Y-81045771D01*
X103867297Y-81073890D01*
X103867313Y-81076374D01*
X103861172Y-81107496D01*
X103842794Y-81144904D01*
X103838595Y-81151195D01*
X103818654Y-81187818D01*
X103809862Y-81220595D01*
X103809918Y-81225060D01*
X103806392Y-81249003D01*
X103798539Y-81255652D01*
X103786953Y-81267964D01*
X103786319Y-81276633D01*
X103779415Y-81298369D01*
X103773790Y-81302575D01*
X103765417Y-81319028D01*
X103760498Y-81353657D01*
X103759922Y-81374081D01*
X103756431Y-81424051D01*
X103747234Y-81469635D01*
X103743414Y-81480695D01*
X103734618Y-81520321D01*
X103730268Y-81579425D01*
X103730003Y-81650000D01*
X103335540Y-81650000D01*
X103332730Y-81639984D01*
X103311483Y-81600854D01*
X103311216Y-81600485D01*
X103280765Y-81554783D01*
X103266998Y-81524691D01*
X103271019Y-81512663D01*
X103271648Y-81512585D01*
X103285034Y-81523193D01*
X103294272Y-81541616D01*
X103304921Y-81561843D01*
X103311665Y-81563762D01*
X103311779Y-81546572D01*
X103302943Y-81515813D01*
X103302289Y-81514087D01*
X103293766Y-81483381D01*
X103302062Y-81465184D01*
X103320101Y-81453197D01*
X103341567Y-81437126D01*
X103344764Y-81426352D01*
X103328874Y-81428416D01*
X103315556Y-81438465D01*
X103298848Y-81452137D01*
X103287810Y-81447987D01*
X103276565Y-81422079D01*
X103272265Y-81409449D01*
X103266629Y-81382946D01*
X103273699Y-81377994D01*
X103290229Y-81373323D01*
X103299283Y-81360363D01*
X103301188Y-81336428D01*
X103279820Y-81313888D01*
X103278425Y-81312895D01*
X103257005Y-81296815D01*
X103257789Y-81291472D01*
X103274592Y-81291554D01*
X103309004Y-81297793D01*
X103323517Y-81303330D01*
X103337600Y-81306000D01*
X103335048Y-81288190D01*
X103334486Y-81286594D01*
X103336199Y-81255379D01*
X103348163Y-81241702D01*
X103366235Y-81216062D01*
X103377472Y-81178554D01*
X103377629Y-81177394D01*
X103387398Y-81133712D01*
X103401267Y-81097967D01*
X103410436Y-81068091D01*
X103407058Y-81049401D01*
X103403914Y-81039370D01*
X103411501Y-81041761D01*
X103428198Y-81036849D01*
X103441695Y-81016693D01*
X103457800Y-80986820D01*
X103470122Y-80972075D01*
X103475695Y-80954927D01*
X103462528Y-80931210D01*
X103449100Y-80906373D01*
X103455851Y-80895055D01*
X103469302Y-80877139D01*
X103469696Y-80870764D01*
X103476854Y-80849999D01*
X103496751Y-80817576D01*
X103509245Y-80800679D01*
X103553248Y-80742752D01*
X103589620Y-80691516D01*
X103614604Y-80652429D01*
X103623468Y-80634770D01*
X103626607Y-80634547D01*
X103626318Y-80656596D01*
X103625689Y-80664624D01*
X103625257Y-80695939D01*
X103632445Y-80703343D01*
X103637351Y-80700612D01*
X103645908Y-80678728D01*
X103643923Y-80638815D01*
X103643051Y-80633782D01*
X103637373Y-80599535D01*
X103639313Y-80588840D01*
X103651136Y-80597759D01*
X103659116Y-80605910D01*
X103684515Y-80628397D01*
X103695254Y-80627199D01*
X103692217Y-80601920D01*
X103689582Y-80592383D01*
X103684914Y-80562868D01*
X103691145Y-80555371D01*
X103696523Y-80548898D01*
X103765125Y-80548898D01*
X103773608Y-80570749D01*
X103776344Y-80573550D01*
X103789817Y-80580711D01*
X103793855Y-80567367D01*
X103792706Y-80546350D01*
X103785638Y-80520553D01*
X103775706Y-80512698D01*
X103765775Y-80524775D01*
X103765125Y-80548898D01*
X103696523Y-80548898D01*
X103697900Y-80547241D01*
X103713533Y-80540824D01*
X103739162Y-80524778D01*
X103747131Y-80507408D01*
X103753221Y-80493496D01*
X103770734Y-80496252D01*
X103792335Y-80511548D01*
X103810693Y-80535259D01*
X103815357Y-80545803D01*
X103827411Y-80566974D01*
X103838068Y-80567766D01*
X103842126Y-80547216D01*
X103835897Y-80519811D01*
X103823617Y-80498969D01*
X103815144Y-80495192D01*
X103805890Y-80485446D01*
X103805984Y-80478424D01*
X103805675Y-80468626D01*
X103803753Y-80471679D01*
X103790569Y-80477290D01*
X103774997Y-80467670D01*
X103770895Y-80457706D01*
X103781455Y-80444446D01*
X103798160Y-80436110D01*
X103823459Y-80415124D01*
X103831500Y-80396214D01*
X103836453Y-80375578D01*
X103846161Y-80376530D01*
X103863000Y-80391997D01*
X103880542Y-80406937D01*
X103894185Y-80406755D01*
X103912387Y-80388729D01*
X103926289Y-80371613D01*
X103947811Y-80337026D01*
X103948661Y-80335662D01*
X103950882Y-80327506D01*
X104056628Y-80327506D01*
X104061870Y-80332657D01*
X104072321Y-80332135D01*
X104096998Y-80321933D01*
X104103303Y-80314434D01*
X104106263Y-80295033D01*
X104093461Y-80291692D01*
X104073044Y-80305894D01*
X104070749Y-80308512D01*
X104056628Y-80327506D01*
X103950882Y-80327506D01*
X103957082Y-80304738D01*
X103956430Y-80299116D01*
X103956541Y-80291898D01*
X103956576Y-80289654D01*
X103982193Y-80289654D01*
X103986340Y-80307521D01*
X103991121Y-80307321D01*
X103992817Y-80288360D01*
X103989883Y-80280489D01*
X103983227Y-80275748D01*
X103982193Y-80289654D01*
X103956576Y-80289654D01*
X103956770Y-80277013D01*
X103963514Y-80271376D01*
X103977215Y-80258588D01*
X103981561Y-80245200D01*
X103985392Y-80228209D01*
X103988611Y-80238874D01*
X103989643Y-80245470D01*
X104001390Y-80263826D01*
X104024476Y-80263506D01*
X104045800Y-80252890D01*
X104051914Y-80229111D01*
X104050761Y-80210277D01*
X104046050Y-80164250D01*
X104103351Y-80168744D01*
X104141958Y-80174750D01*
X104167815Y-80184201D01*
X104171346Y-80187245D01*
X104187744Y-80192159D01*
X104201419Y-80182087D01*
X104230554Y-80172012D01*
X104272427Y-80186852D01*
X104312600Y-80214652D01*
X104345171Y-80236734D01*
X104364489Y-80247034D01*
X104383459Y-80268818D01*
X104393465Y-80305608D01*
X104392288Y-80345227D01*
X104385844Y-80364254D01*
X104379821Y-80389315D01*
X104379622Y-80421154D01*
X104384372Y-80448147D01*
X104392946Y-80458697D01*
X104401247Y-80446538D01*
X104401577Y-80436857D01*
X104408529Y-80417349D01*
X104426409Y-80417814D01*
X104435410Y-80426256D01*
X104454220Y-80432268D01*
X104464610Y-80429226D01*
X104482325Y-80428537D01*
X104485750Y-80435018D01*
X104498800Y-80444881D01*
X104528125Y-80446870D01*
X104560616Y-80448238D01*
X104578722Y-80456117D01*
X104597571Y-80466502D01*
X104632773Y-80476606D01*
X104644804Y-80478989D01*
X104684155Y-80490882D01*
X104702572Y-80507410D01*
X104703166Y-80510233D01*
X104711258Y-80523677D01*
X104718139Y-80521659D01*
X104737521Y-80522775D01*
X104771655Y-80538001D01*
X104814219Y-80563009D01*
X104858884Y-80593473D01*
X104899326Y-80625066D01*
X104929219Y-80653461D01*
X104942237Y-80674330D01*
X104942324Y-80675006D01*
X104951249Y-80685870D01*
X104957264Y-80683411D01*
X104969482Y-80685528D01*
X104972361Y-80695317D01*
X104984830Y-80713388D01*
X104995187Y-80715232D01*
X105015363Y-80723022D01*
X105018998Y-80730719D01*
X105022739Y-80754172D01*
X105028896Y-80793664D01*
X105032128Y-80814603D01*
X105040114Y-80858195D01*
X105048495Y-80891670D01*
X105051731Y-80900363D01*
X105049678Y-80922997D01*
X105038475Y-80935537D01*
X105024611Y-80947765D01*
X105034781Y-80950256D01*
X105036823Y-80950137D01*
X105055216Y-80961521D01*
X105064365Y-80986808D01*
X105071413Y-81027107D01*
X105079724Y-81074070D01*
X105080428Y-81078019D01*
X105084186Y-81114680D01*
X105075995Y-81134972D01*
X105058014Y-81146612D01*
X105036422Y-81161697D01*
X105038379Y-81180188D01*
X105043001Y-81187885D01*
X105059506Y-81223945D01*
X105057954Y-81249815D01*
X105041958Y-81259312D01*
X105028147Y-81267379D01*
X105030122Y-81274503D01*
X105028510Y-81290714D01*
X105018958Y-81298067D01*
X105001394Y-81317118D01*
X104999583Y-81327774D01*
X104993090Y-81346061D01*
X104987333Y-81348426D01*
X104975915Y-81357323D01*
X104976166Y-81359944D01*
X104976049Y-81396456D01*
X104963553Y-81443273D01*
X104942489Y-81487842D01*
X104933289Y-81501246D01*
X104911676Y-81535747D01*
X104901043Y-81565853D01*
X104900804Y-81569663D01*
X104893967Y-81598928D01*
X104876807Y-81635480D01*
X104874540Y-81639281D01*
X104857166Y-81671936D01*
X104849241Y-81695383D01*
X104849203Y-81697468D01*
X104841733Y-81730248D01*
X104818356Y-81772225D01*
X104785600Y-81812667D01*
X104755283Y-81852361D01*
X104732523Y-81895450D01*
X104708477Y-81937877D01*
X104677198Y-81972926D01*
X104611729Y-82028975D01*
X104567307Y-82070320D01*
X104542262Y-82098634D01*
X104534907Y-82115390D01*
X104524498Y-82131885D01*
X104514980Y-82134702D01*
X104496915Y-82142269D01*
X104495015Y-82147493D01*
X104484300Y-82158460D01*
X104471681Y-82161935D01*
X104440129Y-82171109D01*
X104395983Y-82189146D01*
X104350959Y-82211003D01*
X104329591Y-82223116D01*
X104304491Y-82233538D01*
X104261577Y-82246865D01*
X104213295Y-82259431D01*
X104161573Y-82271897D01*
X104117752Y-82282809D01*
X104092788Y-82289400D01*
X104056833Y-82294297D01*
X104029922Y-82293796D01*
X103997458Y-82287037D01*
X103980819Y-82279294D01*
X103958875Y-82276832D01*
X103943935Y-82283453D01*
X103921795Y-82289993D01*
X103910553Y-82277797D01*
X103896155Y-82264233D01*
X103888605Y-82265764D01*
X103870527Y-82264598D01*
X103857757Y-82255298D01*
X103828635Y-82239892D01*
X103812513Y-82238328D01*
X103790249Y-82234048D01*
X103785103Y-82226670D01*
X103772722Y-82215283D01*
X103762958Y-82214552D01*
X103743709Y-82208260D01*
X103740751Y-82201708D01*
X103727742Y-82188463D01*
X103698017Y-82176542D01*
X103696345Y-82176107D01*
X103666240Y-82165487D01*
X103652345Y-82154722D01*
X103652265Y-82154242D01*
X103642165Y-82139853D01*
X103616703Y-82112940D01*
X103583679Y-82081458D01*
X103546323Y-82044995D01*
X103527946Y-82019778D01*
X103525051Y-82000345D01*
X103527272Y-81993372D01*
X103531202Y-81974441D01*
X103515608Y-81969510D01*
X103503131Y-81970226D01*
X103475137Y-81966414D01*
X103465301Y-81945108D01*
X103465254Y-81944599D01*
X103459209Y-81924899D01*
X103452347Y-81923631D01*
X103439261Y-81918533D01*
X103422460Y-81895449D01*
X103388457Y-81830833D01*
X103367771Y-81785680D01*
X103359353Y-81756772D01*
X103359017Y-81755617D01*
X103360816Y-81736268D01*
G37*
G36*
X108980999Y-81308382D02*
G01*
X108974130Y-81301270D01*
X108968078Y-81284783D01*
X108971549Y-81259385D01*
X108975177Y-81231568D01*
X108968008Y-81225053D01*
X108956794Y-81213986D01*
X108951305Y-81190814D01*
X108941923Y-81156537D01*
X108923834Y-81117881D01*
X109341096Y-81117881D01*
X109344434Y-81216528D01*
X109351390Y-81310985D01*
X109359524Y-81357903D01*
X109373106Y-81399463D01*
X109375181Y-81403779D01*
X109391791Y-81427689D01*
X109415106Y-81436691D01*
X109451030Y-81435797D01*
X109519004Y-81415970D01*
X109556179Y-81391458D01*
X109610214Y-81359359D01*
X109653603Y-81348783D01*
X109683339Y-81347925D01*
X109688089Y-81352094D01*
X109675911Y-81359899D01*
X109658584Y-81371139D01*
X109658468Y-81374493D01*
X109678626Y-81378103D01*
X109692811Y-81381806D01*
X109709596Y-81382594D01*
X109710901Y-81366329D01*
X109707396Y-81352418D01*
X109703362Y-81325568D01*
X109708133Y-81314913D01*
X109722799Y-81305391D01*
X109751828Y-81280988D01*
X109789627Y-81246469D01*
X109800024Y-81236595D01*
X109817647Y-81220998D01*
X109819098Y-81219714D01*
X109832314Y-81219714D01*
X109834078Y-81232532D01*
X109838863Y-81233197D01*
X109857691Y-81221293D01*
X109860212Y-81217274D01*
X109858449Y-81204455D01*
X109857330Y-81204300D01*
X109853663Y-81203791D01*
X109834835Y-81215695D01*
X109832314Y-81219714D01*
X109819098Y-81219714D01*
X109841860Y-81199569D01*
X109863984Y-81183078D01*
X109879618Y-81183078D01*
X109879987Y-81202317D01*
X109886839Y-81221314D01*
X109895119Y-81221627D01*
X109901130Y-81202816D01*
X109898088Y-81192426D01*
X109885517Y-81174382D01*
X109879618Y-81183078D01*
X109863984Y-81183078D01*
X109879631Y-81171415D01*
X109906358Y-81157218D01*
X109909907Y-81156488D01*
X109928063Y-81152160D01*
X109919776Y-81143792D01*
X109919012Y-81143393D01*
X109908158Y-81130502D01*
X109917833Y-81120067D01*
X109940762Y-81117894D01*
X109948790Y-81119620D01*
X109967464Y-81118021D01*
X109970365Y-81110750D01*
X109957859Y-81098167D01*
X109947440Y-81097196D01*
X109934409Y-81095143D01*
X109937458Y-81080958D01*
X109947915Y-81062458D01*
X109970926Y-81035411D01*
X109993513Y-81023329D01*
X110016407Y-81014731D01*
X110025393Y-81000760D01*
X110015005Y-80990220D01*
X110014198Y-80990014D01*
X110003376Y-80978253D01*
X110010279Y-80958052D01*
X110029404Y-80936615D01*
X110055247Y-80921143D01*
X110069317Y-80917866D01*
X110099482Y-80911223D01*
X110104241Y-80896068D01*
X110091773Y-80875561D01*
X110078857Y-80866282D01*
X110066855Y-80881327D01*
X110065124Y-80884921D01*
X110054621Y-80900814D01*
X110050573Y-80898035D01*
X110055802Y-80876414D01*
X110069131Y-80848702D01*
X110084909Y-80825422D01*
X110097164Y-80824384D01*
X110108346Y-80835359D01*
X110134049Y-80849033D01*
X110149256Y-80846361D01*
X110166955Y-80831497D01*
X110170714Y-80805654D01*
X110166603Y-80777803D01*
X110168652Y-80760059D01*
X110176433Y-80759577D01*
X110190644Y-80754284D01*
X110197735Y-80738166D01*
X110210681Y-80715311D01*
X110229442Y-80707677D01*
X110243804Y-80717687D01*
X110245992Y-80726712D01*
X110255407Y-80744589D01*
X110262263Y-80746372D01*
X110268739Y-80736760D01*
X110260472Y-80720265D01*
X110251078Y-80695313D01*
X110253249Y-80683519D01*
X110250798Y-80678438D01*
X110238299Y-80682662D01*
X110222050Y-80687470D01*
X110222708Y-80674895D01*
X110227759Y-80662339D01*
X110234233Y-80635040D01*
X110221340Y-80618194D01*
X110220454Y-80617614D01*
X110204593Y-80590795D01*
X110204141Y-80582058D01*
X110204066Y-80580603D01*
X110220771Y-80580603D01*
X110229427Y-80600511D01*
X110244585Y-80617532D01*
X110259410Y-80619173D01*
X110263666Y-80607414D01*
X110252533Y-80590070D01*
X110240153Y-80579638D01*
X110221894Y-80570135D01*
X110220771Y-80580603D01*
X110204066Y-80580603D01*
X110202729Y-80554802D01*
X110207124Y-80523864D01*
X110215506Y-80519082D01*
X110219494Y-80523210D01*
X110233058Y-80534045D01*
X110243601Y-80521101D01*
X110251981Y-80490138D01*
X110252107Y-80480203D01*
X110248919Y-80466613D01*
X110240414Y-80478398D01*
X110239094Y-80480934D01*
X110224513Y-80494826D01*
X110216722Y-80493198D01*
X110214490Y-80476328D01*
X110220594Y-80465859D01*
X110232643Y-80437412D01*
X110234256Y-80419217D01*
X110235576Y-80401873D01*
X110242778Y-80410490D01*
X110265830Y-80441874D01*
X110289791Y-80445402D01*
X110307042Y-80431157D01*
X110320706Y-80409682D01*
X110313776Y-80395423D01*
X110306299Y-80389816D01*
X110290564Y-80367309D01*
X110290293Y-80353166D01*
X110284063Y-80330215D01*
X110265284Y-80313854D01*
X110241878Y-80291194D01*
X110240001Y-80259359D01*
X110241901Y-80235291D01*
X110234384Y-80234687D01*
X110228633Y-80239865D01*
X110208777Y-80248170D01*
X110179841Y-80236649D01*
X110174467Y-80233315D01*
X110133379Y-80217812D01*
X110086090Y-80213927D01*
X110085870Y-80213945D01*
X110041978Y-80210897D01*
X110019661Y-80196744D01*
X110003275Y-80183308D01*
X109980203Y-80191632D01*
X109977517Y-80193353D01*
X109946414Y-80205111D01*
X109927086Y-80204818D01*
X109898749Y-80208188D01*
X109884992Y-80217300D01*
X109868616Y-80228069D01*
X109864383Y-80220676D01*
X109852583Y-80208608D01*
X109828331Y-80209393D01*
X109803383Y-80221808D01*
X109797523Y-80227615D01*
X109784550Y-80238529D01*
X109780784Y-80229080D01*
X109767742Y-80217707D01*
X109743226Y-80215499D01*
X109711517Y-80228222D01*
X109674324Y-80262906D01*
X109651934Y-80290251D01*
X109623523Y-80328942D01*
X109603777Y-80359359D01*
X109597237Y-80373947D01*
X109589784Y-80390363D01*
X109569616Y-80422748D01*
X109540797Y-80464648D01*
X109535037Y-80472660D01*
X109505028Y-80517874D01*
X109483547Y-80557480D01*
X109474678Y-80583812D01*
X109474679Y-80586050D01*
X109469134Y-80614560D01*
X109452443Y-80652436D01*
X109446284Y-80663148D01*
X109427316Y-80700758D01*
X109417955Y-80732409D01*
X109417751Y-80738654D01*
X109413203Y-80760365D01*
X109406006Y-80765063D01*
X109394419Y-80777374D01*
X109393785Y-80786043D01*
X109386599Y-80807906D01*
X109380791Y-80812186D01*
X109372813Y-80828665D01*
X109368776Y-80863629D01*
X109368807Y-80888199D01*
X109366779Y-80939584D01*
X109358451Y-80987105D01*
X109353729Y-81001555D01*
X109344195Y-81046266D01*
X109341096Y-81117881D01*
X108923834Y-81117881D01*
X108922366Y-81114743D01*
X108915524Y-81103143D01*
X108895215Y-81067042D01*
X108883346Y-81038949D01*
X108882151Y-81032830D01*
X108886627Y-81029705D01*
X108897749Y-81047003D01*
X108912809Y-81070254D01*
X108920091Y-81069586D01*
X108917844Y-81048426D01*
X108909755Y-81023497D01*
X108901233Y-80992791D01*
X108909529Y-80974594D01*
X108927568Y-80962607D01*
X108949035Y-80946536D01*
X108952231Y-80935762D01*
X108936296Y-80937750D01*
X108923550Y-80947353D01*
X108907752Y-80957019D01*
X108894430Y-80945252D01*
X108886041Y-80929425D01*
X108874548Y-80897472D01*
X108873025Y-80876327D01*
X108878601Y-80870217D01*
X108880642Y-80877790D01*
X108889840Y-80893514D01*
X108903418Y-80887655D01*
X108912611Y-80865359D01*
X108907910Y-80839772D01*
X108897277Y-80832003D01*
X108878617Y-80819968D01*
X108876189Y-80814199D01*
X108885894Y-80802767D01*
X108908586Y-80800278D01*
X108930508Y-80807362D01*
X108934926Y-80811510D01*
X108950372Y-80818045D01*
X108954805Y-80815011D01*
X108953925Y-80797843D01*
X108945246Y-80785811D01*
X108935617Y-80769135D01*
X108951241Y-80757029D01*
X108953307Y-80756152D01*
X108975573Y-80733453D01*
X108990382Y-80691994D01*
X108994437Y-80653486D01*
X108999944Y-80630943D01*
X109009802Y-80606169D01*
X109017450Y-80575910D01*
X109013889Y-80557959D01*
X109011739Y-80548750D01*
X109018581Y-80550976D01*
X109035035Y-80545380D01*
X109056078Y-80521529D01*
X109061361Y-80513154D01*
X109078014Y-80478399D01*
X109077938Y-80452416D01*
X109069949Y-80434931D01*
X109060214Y-80409905D01*
X109064993Y-80401338D01*
X109076953Y-80388368D01*
X109084078Y-80364528D01*
X109093768Y-80337324D01*
X109105701Y-80327471D01*
X109120538Y-80315361D01*
X109142829Y-80285390D01*
X109162853Y-80252509D01*
X109189134Y-80211125D01*
X109190643Y-80209280D01*
X109193499Y-80205786D01*
X109230575Y-80205786D01*
X109239830Y-80212597D01*
X109244989Y-80209893D01*
X109256800Y-80190240D01*
X109256964Y-80186103D01*
X109247708Y-80179293D01*
X109242549Y-80181996D01*
X109230738Y-80201649D01*
X109230575Y-80205786D01*
X109193499Y-80205786D01*
X109214501Y-80180094D01*
X109229292Y-80168471D01*
X109248955Y-80147312D01*
X109252283Y-80127488D01*
X109252423Y-80106299D01*
X109261805Y-80110300D01*
X109270729Y-80119794D01*
X109294121Y-80139663D01*
X109304534Y-80134928D01*
X109300630Y-80106449D01*
X109299128Y-80101449D01*
X109293697Y-80072061D01*
X109305710Y-80056617D01*
X109321623Y-80050019D01*
X109347112Y-80036505D01*
X109355252Y-80024283D01*
X109364420Y-80011522D01*
X109385469Y-80009751D01*
X109403983Y-80020126D01*
X109402432Y-80028249D01*
X109391338Y-80026756D01*
X109373969Y-80029736D01*
X109371462Y-80048911D01*
X109379937Y-80075700D01*
X109388664Y-80084879D01*
X109400330Y-80080671D01*
X109401465Y-80070532D01*
X109407078Y-80050810D01*
X109413512Y-80047565D01*
X109426449Y-80057995D01*
X109429535Y-80070058D01*
X109435788Y-80084419D01*
X109444006Y-80078999D01*
X109448743Y-80056998D01*
X109445085Y-80020736D01*
X109442699Y-80010146D01*
X109433236Y-79978673D01*
X109426433Y-79972618D01*
X109421892Y-79983876D01*
X109415405Y-80002452D01*
X109406383Y-79997985D01*
X109395439Y-79982068D01*
X109383868Y-79959784D01*
X109390833Y-79951502D01*
X109396960Y-79950624D01*
X109420412Y-79938976D01*
X109442376Y-79917351D01*
X109461506Y-79896869D01*
X109474192Y-79897898D01*
X109480549Y-79905599D01*
X109492338Y-79914673D01*
X109509360Y-79907576D01*
X109537879Y-79881643D01*
X109538608Y-79880915D01*
X109565069Y-79850481D01*
X109567616Y-79845357D01*
X109571811Y-79836916D01*
X109664094Y-79836916D01*
X109669336Y-79842068D01*
X109679787Y-79841546D01*
X109704465Y-79831343D01*
X109710769Y-79823844D01*
X109713730Y-79804443D01*
X109700928Y-79801102D01*
X109680511Y-79815304D01*
X109678215Y-79817922D01*
X109664094Y-79836916D01*
X109571811Y-79836916D01*
X109574199Y-79832111D01*
X109566659Y-79829301D01*
X109543106Y-79845543D01*
X109533561Y-79854141D01*
X109503626Y-79879481D01*
X109487817Y-79884579D01*
X109482498Y-79872144D01*
X109492890Y-79856832D01*
X109520264Y-79837253D01*
X109528794Y-79832529D01*
X109556788Y-79813783D01*
X109567774Y-79797906D01*
X109566829Y-79794780D01*
X109566648Y-79782127D01*
X109571035Y-79780782D01*
X109586702Y-79790999D01*
X109593299Y-79803431D01*
X109600104Y-79820158D01*
X109601423Y-79810062D01*
X109601296Y-79802731D01*
X109612103Y-79781838D01*
X109637177Y-79774995D01*
X109660783Y-79770272D01*
X109668197Y-79756148D01*
X109663706Y-79723990D01*
X109663357Y-79722288D01*
X109657961Y-79689696D01*
X109664079Y-79677157D01*
X109687281Y-79677359D01*
X109696648Y-79678575D01*
X109733109Y-79682564D01*
X109757679Y-79683827D01*
X109774727Y-79691662D01*
X109776346Y-79696387D01*
X109787222Y-79701811D01*
X109801001Y-79697038D01*
X109841220Y-79684641D01*
X109880336Y-79694175D01*
X109923895Y-79726098D01*
X109955682Y-79750687D01*
X109980662Y-79762922D01*
X109987731Y-79762902D01*
X109999776Y-79768388D01*
X110006181Y-79792110D01*
X110006154Y-79824720D01*
X109998902Y-79856872D01*
X109996210Y-79863056D01*
X109989425Y-79897772D01*
X109993540Y-79933569D01*
X110002382Y-79959203D01*
X110008833Y-79959742D01*
X110013247Y-79947831D01*
X110023739Y-79929361D01*
X110042075Y-79935395D01*
X110042827Y-79935912D01*
X110067361Y-79943759D01*
X110078210Y-79940598D01*
X110091546Y-79939974D01*
X110093276Y-79945097D01*
X110106267Y-79954906D01*
X110132967Y-79956957D01*
X110173134Y-79961328D01*
X110200233Y-79972155D01*
X110237050Y-79985615D01*
X110261746Y-79987410D01*
X110290817Y-79992388D01*
X110303656Y-80003558D01*
X110323609Y-80020489D01*
X110346216Y-80027890D01*
X110369587Y-80038376D01*
X110406276Y-80061982D01*
X110450305Y-80093988D01*
X110495701Y-80129679D01*
X110536483Y-80164335D01*
X110566677Y-80193240D01*
X110580308Y-80211678D01*
X110580538Y-80212851D01*
X110592760Y-80224330D01*
X110600415Y-80224838D01*
X110620399Y-80234582D01*
X110638040Y-80256686D01*
X110648030Y-80281067D01*
X110645159Y-80291202D01*
X110639847Y-80304092D01*
X110642302Y-80336116D01*
X110651532Y-80379813D01*
X110661304Y-80412778D01*
X110663733Y-80437645D01*
X110646942Y-80446647D01*
X110631412Y-80450564D01*
X110642995Y-80457044D01*
X110644104Y-80457437D01*
X110656612Y-80464124D01*
X110665825Y-80477690D01*
X110673883Y-80504076D01*
X110682924Y-80549225D01*
X110688503Y-80580820D01*
X110693209Y-80620105D01*
X110688250Y-80640778D01*
X110672486Y-80650866D01*
X110656120Y-80661190D01*
X110653030Y-80681180D01*
X110659794Y-80713472D01*
X110666798Y-80748720D01*
X110662570Y-80764835D01*
X110651475Y-80768543D01*
X110633512Y-80775473D01*
X110631893Y-80780798D01*
X110634302Y-80802171D01*
X110635034Y-80819177D01*
X110633129Y-80837877D01*
X110623240Y-80831229D01*
X110620257Y-80827497D01*
X110608326Y-80815620D01*
X110606599Y-80829055D01*
X110606827Y-80832187D01*
X110601178Y-80853535D01*
X110593308Y-80857967D01*
X110584770Y-80868901D01*
X110587516Y-80879106D01*
X110589331Y-80901565D01*
X110584547Y-80908307D01*
X110574570Y-80928876D01*
X110574004Y-80941449D01*
X110567276Y-80968124D01*
X110548107Y-81001124D01*
X110545973Y-81003940D01*
X110522924Y-81044406D01*
X110510213Y-81086288D01*
X110498369Y-81126484D01*
X110480467Y-81155843D01*
X110465042Y-81181474D01*
X110464561Y-81198608D01*
X110462624Y-81221020D01*
X110452758Y-81235180D01*
X110436770Y-81260767D01*
X110434484Y-81274611D01*
X110425132Y-81297339D01*
X110416021Y-81304105D01*
X110398762Y-81321248D01*
X110375313Y-81355209D01*
X110357576Y-81386084D01*
X110335668Y-81424944D01*
X110318264Y-81451437D01*
X110310694Y-81458975D01*
X110297237Y-81468790D01*
X110271098Y-81493485D01*
X110244666Y-81520655D01*
X110209431Y-81555549D01*
X110178252Y-81582188D01*
X110162583Y-81592357D01*
X110146059Y-81608766D01*
X110146530Y-81620807D01*
X110142417Y-81638722D01*
X110111821Y-81656649D01*
X110075443Y-81669157D01*
X110043090Y-81681349D01*
X109999390Y-81700654D01*
X109957692Y-81720980D01*
X109937787Y-81731976D01*
X109920011Y-81740328D01*
X109889431Y-81750704D01*
X109842109Y-81764256D01*
X109774104Y-81782135D01*
X109714180Y-81797315D01*
X109674292Y-81803586D01*
X109644438Y-81803447D01*
X109609472Y-81796675D01*
X109594307Y-81792754D01*
X109561400Y-81789833D01*
X109548511Y-81791439D01*
X109527605Y-81789135D01*
X109523106Y-81782207D01*
X109512329Y-81774192D01*
X109503786Y-81776626D01*
X109480305Y-81775186D01*
X109465947Y-81765440D01*
X109436891Y-81749584D01*
X109419979Y-81747738D01*
X109397717Y-81743458D01*
X109392569Y-81736081D01*
X109380770Y-81723466D01*
X109377400Y-81723352D01*
X109356660Y-81716476D01*
X109334804Y-81702481D01*
X109305381Y-81680563D01*
X109266284Y-81652345D01*
X109252929Y-81642879D01*
X109220900Y-81618192D01*
X109201002Y-81598810D01*
X109198016Y-81593485D01*
X109186209Y-81578285D01*
X109159948Y-81557810D01*
X109158496Y-81556852D01*
X109133079Y-81534905D01*
X109131859Y-81516224D01*
X109133503Y-81513556D01*
X109138832Y-81491688D01*
X109120200Y-81480779D01*
X109100808Y-81480493D01*
X109078382Y-81471526D01*
X109072722Y-81454009D01*
X109066515Y-81434448D01*
X109059376Y-81433367D01*
X109048099Y-81426484D01*
X109030663Y-81400164D01*
X109017658Y-81374542D01*
X109001021Y-81341638D01*
X108997927Y-81335518D01*
X108980999Y-81308382D01*
G37*
G36*
X116914616Y-79109277D02*
G01*
X116970083Y-79103711D01*
X117022136Y-79103426D01*
X117063795Y-79108297D01*
X117088076Y-79118194D01*
X117091489Y-79124422D01*
X117104258Y-79132632D01*
X117127881Y-79133699D01*
X117158234Y-79138488D01*
X117173051Y-79150830D01*
X117193338Y-79166005D01*
X117213278Y-79168394D01*
X117241374Y-79176528D01*
X117282584Y-79202140D01*
X117320998Y-79232763D01*
X117365897Y-79274790D01*
X117394053Y-79311058D01*
X117412167Y-79351127D01*
X117418562Y-79372000D01*
X117433373Y-79443988D01*
X117431296Y-79495297D01*
X117412197Y-79527685D01*
X117406533Y-79531911D01*
X117386934Y-79553453D01*
X117383287Y-79567861D01*
X117374983Y-79592012D01*
X117361271Y-79607945D01*
X117338532Y-79636060D01*
X117330505Y-79653812D01*
X117313043Y-79679546D01*
X117292232Y-79694350D01*
X117260435Y-79716198D01*
X117244378Y-79733465D01*
X117221228Y-79754201D01*
X117206661Y-79759312D01*
X117183999Y-79770933D01*
X117158119Y-79796522D01*
X117157014Y-79797927D01*
X117135447Y-79820772D01*
X117120603Y-79827830D01*
X117119648Y-79827297D01*
X117109192Y-79831854D01*
X117104040Y-79843585D01*
X117085988Y-79864858D01*
X117071667Y-79869512D01*
X117046116Y-79878670D01*
X117038572Y-79886677D01*
X117022189Y-79903413D01*
X116992223Y-79924360D01*
X116988524Y-79926571D01*
X116938864Y-79956430D01*
X116910311Y-79976798D01*
X116899527Y-79991850D01*
X116903180Y-80005764D01*
X116914549Y-80019194D01*
X116948214Y-80041854D01*
X116979358Y-80051794D01*
X117008297Y-80062336D01*
X117020311Y-80078081D01*
X117031834Y-80095564D01*
X117040411Y-80097139D01*
X117059231Y-80107050D01*
X117088714Y-80135315D01*
X117124657Y-80176555D01*
X117162855Y-80225396D01*
X117199101Y-80276458D01*
X117229190Y-80324365D01*
X117248904Y-80363713D01*
X117270443Y-80428210D01*
X117279574Y-80479179D01*
X117275705Y-80512183D01*
X117269793Y-80519824D01*
X117262289Y-80539009D01*
X117260623Y-80573785D01*
X117261163Y-80581848D01*
X117260162Y-80621274D01*
X117251762Y-80650231D01*
X117249819Y-80652993D01*
X117236510Y-80674516D01*
X117234807Y-80682227D01*
X117226746Y-80699017D01*
X117205399Y-80728275D01*
X117177137Y-80762524D01*
X117148326Y-80794286D01*
X117125338Y-80816083D01*
X117116277Y-80821397D01*
X117097925Y-80832662D01*
X117087566Y-80844776D01*
X117066970Y-80864705D01*
X117031777Y-80890538D01*
X117010228Y-80904239D01*
X116973758Y-80927144D01*
X116948461Y-80944865D01*
X116942041Y-80950692D01*
X116925700Y-80962301D01*
X116894930Y-80977837D01*
X116861532Y-80991422D01*
X116857865Y-80992655D01*
X116840946Y-81000098D01*
X116824019Y-81007438D01*
X116806389Y-81016641D01*
X116776474Y-81035005D01*
X116771216Y-81038406D01*
X116732931Y-81059818D01*
X116678557Y-81084037D01*
X116604251Y-81112657D01*
X116523007Y-81141480D01*
X116470731Y-81160176D01*
X116412731Y-81181794D01*
X116393646Y-81189129D01*
X116331756Y-81210584D01*
X116274063Y-81225975D01*
X116226769Y-81234073D01*
X116196071Y-81233653D01*
X116188738Y-81229677D01*
X116170612Y-81223518D01*
X116133538Y-81220786D01*
X116097105Y-81221550D01*
X116045705Y-81223250D01*
X116000898Y-81222612D01*
X115980606Y-81220871D01*
X115939279Y-81216897D01*
X115914630Y-81216458D01*
X115889625Y-81213259D01*
X115882175Y-81206967D01*
X115870116Y-81198101D01*
X115841462Y-81202408D01*
X115803276Y-81218078D01*
X115775577Y-81234233D01*
X115725792Y-81267070D01*
X115691993Y-81234518D01*
X115663725Y-81212492D01*
X115641089Y-81203309D01*
X115640070Y-81203336D01*
X115630898Y-81200172D01*
X115641648Y-81189696D01*
X115642394Y-81188805D01*
X115652825Y-81176341D01*
X115643290Y-81164463D01*
X115920622Y-81164463D01*
X115932355Y-81169892D01*
X115949817Y-81166225D01*
X115967737Y-81153928D01*
X115963127Y-81143707D01*
X115941529Y-81139397D01*
X115923485Y-81152242D01*
X115920622Y-81164463D01*
X115643290Y-81164463D01*
X115642113Y-81162997D01*
X115631680Y-81156092D01*
X115612161Y-81142198D01*
X115615798Y-81136463D01*
X115626382Y-81134917D01*
X115646486Y-81126137D01*
X115649533Y-81118389D01*
X115639778Y-81106721D01*
X115611737Y-81108666D01*
X115600655Y-81099315D01*
X115580308Y-81075056D01*
X115556994Y-81044263D01*
X115537007Y-81015312D01*
X115526645Y-80996578D01*
X115526295Y-80995015D01*
X115538365Y-80990093D01*
X115569159Y-80983400D01*
X115583702Y-80980885D01*
X115623252Y-80970076D01*
X115644717Y-80955074D01*
X115646211Y-80951569D01*
X115643630Y-80939325D01*
X115637491Y-80941632D01*
X115623022Y-80938876D01*
X115614391Y-80924492D01*
X115615533Y-80894666D01*
X115626295Y-80882659D01*
X115632143Y-80873103D01*
X115640804Y-80858949D01*
X115640835Y-80858403D01*
X115800170Y-80858403D01*
X115805032Y-80871460D01*
X115817089Y-80886978D01*
X115822480Y-80886606D01*
X115822621Y-80869348D01*
X115821101Y-80865262D01*
X115817760Y-80856291D01*
X115816937Y-80855232D01*
X115935736Y-80855232D01*
X115943679Y-80876922D01*
X115952053Y-80881086D01*
X115961404Y-80868215D01*
X115962187Y-80855447D01*
X115962271Y-80854081D01*
X115977801Y-80854081D01*
X115982850Y-80882350D01*
X115991824Y-80885298D01*
X115995785Y-80881340D01*
X116017821Y-80870851D01*
X116053000Y-80875425D01*
X116088141Y-80879552D01*
X116103911Y-80872521D01*
X116119810Y-80860754D01*
X116152898Y-80843326D01*
X116194113Y-80824335D01*
X116234396Y-80807877D01*
X116264685Y-80798053D01*
X116270978Y-80796961D01*
X116291762Y-80789895D01*
X116323899Y-80774311D01*
X116326974Y-80772646D01*
X116390532Y-80738110D01*
X116435360Y-80714394D01*
X116467131Y-80698588D01*
X116491526Y-80687788D01*
X116497170Y-80685516D01*
X116543293Y-80663054D01*
X116603926Y-80627660D01*
X116671870Y-80584093D01*
X116739925Y-80537116D01*
X116800895Y-80491486D01*
X116840481Y-80458482D01*
X116894215Y-80403605D01*
X116931938Y-80351273D01*
X116951188Y-80305730D01*
X116949508Y-80271218D01*
X116949302Y-80270788D01*
X116931063Y-80258839D01*
X116893637Y-80247559D01*
X116845821Y-80238647D01*
X116796416Y-80233797D01*
X116759468Y-80234163D01*
X116719469Y-80243190D01*
X116695415Y-80252896D01*
X116668771Y-80265179D01*
X116624051Y-80284436D01*
X116569199Y-80307274D01*
X116545736Y-80316839D01*
X116493787Y-80339178D01*
X116453622Y-80358925D01*
X116430984Y-80373130D01*
X116428035Y-80377259D01*
X116417189Y-80388237D01*
X116400776Y-80392046D01*
X116374749Y-80403482D01*
X116366241Y-80416150D01*
X116350184Y-80432061D01*
X116310943Y-80441689D01*
X116292490Y-80443687D01*
X116238400Y-80453979D01*
X116191435Y-80478150D01*
X116166593Y-80496868D01*
X116129699Y-80523995D01*
X116098755Y-80541984D01*
X116086666Y-80546028D01*
X116070913Y-80560418D01*
X116054975Y-80601365D01*
X116042293Y-80651814D01*
X116028193Y-80706200D01*
X116012329Y-80752459D01*
X115997920Y-80781325D01*
X115996724Y-80782849D01*
X115981464Y-80816140D01*
X115977801Y-80854081D01*
X115962271Y-80854081D01*
X115962879Y-80844170D01*
X115956374Y-80820826D01*
X115946561Y-80818316D01*
X115936564Y-80839015D01*
X115935736Y-80855232D01*
X115816937Y-80855232D01*
X115805703Y-80840772D01*
X115800312Y-80841144D01*
X115800170Y-80858403D01*
X115640835Y-80858403D01*
X115643367Y-80813662D01*
X115642703Y-80803995D01*
X115641221Y-80765973D01*
X115643388Y-80742653D01*
X115645648Y-80739270D01*
X115645665Y-80739223D01*
X115650234Y-80726574D01*
X115650183Y-80711258D01*
X115965306Y-80711258D01*
X115977106Y-80723874D01*
X115980476Y-80723986D01*
X115993091Y-80712187D01*
X115993204Y-80708817D01*
X115981405Y-80696203D01*
X115978035Y-80696089D01*
X115965420Y-80707888D01*
X115965306Y-80711258D01*
X115650183Y-80711258D01*
X115650136Y-80696910D01*
X115650013Y-80695440D01*
X115652035Y-80661408D01*
X115662085Y-80640551D01*
X115670306Y-80619881D01*
X115666873Y-80606070D01*
X115663608Y-80589539D01*
X115679052Y-80590062D01*
X115697913Y-80588593D01*
X115700933Y-80581279D01*
X115688859Y-80567550D01*
X115683925Y-80567208D01*
X115675265Y-80562075D01*
X115682794Y-80547590D01*
X115689891Y-80528565D01*
X115681506Y-80522824D01*
X115674050Y-80508941D01*
X115683727Y-80475582D01*
X115695821Y-80440999D01*
X115700469Y-80416614D01*
X115700427Y-80415837D01*
X115709783Y-80395296D01*
X115715907Y-80390955D01*
X115723949Y-80380589D01*
X115710505Y-80369388D01*
X115697289Y-80358442D01*
X115706528Y-80354610D01*
X115718300Y-80346726D01*
X115716551Y-80341782D01*
X115713341Y-80322597D01*
X115716931Y-80291876D01*
X115724869Y-80259988D01*
X115734706Y-80237310D01*
X115742306Y-80232771D01*
X115747898Y-80225368D01*
X115745541Y-80199360D01*
X115745020Y-80196867D01*
X115741524Y-80167521D01*
X115745547Y-80154223D01*
X115745855Y-80154175D01*
X115755069Y-80141142D01*
X115756189Y-80137342D01*
X115764135Y-80110380D01*
X115766320Y-80098579D01*
X116199251Y-80098579D01*
X116211074Y-80099469D01*
X116238843Y-80084165D01*
X116251896Y-80076371D01*
X116284432Y-80054463D01*
X116302422Y-80037203D01*
X116303712Y-80031576D01*
X116310225Y-80023211D01*
X116332087Y-80018552D01*
X116365177Y-80005529D01*
X116400308Y-79976763D01*
X116405316Y-79971199D01*
X116432303Y-79944997D01*
X116449033Y-79939960D01*
X116451381Y-79942571D01*
X116456679Y-79942946D01*
X116457696Y-79923228D01*
X116458670Y-79900595D01*
X116466763Y-79902805D01*
X116470969Y-79907943D01*
X116484419Y-79919386D01*
X116497376Y-79908368D01*
X116503020Y-79899477D01*
X116504107Y-79898471D01*
X116518743Y-79884922D01*
X116658964Y-79884922D01*
X116668277Y-79891742D01*
X116689761Y-79896733D01*
X116692086Y-79884473D01*
X116686795Y-79875779D01*
X116668488Y-79868892D01*
X116662446Y-79871704D01*
X116658964Y-79884922D01*
X116518743Y-79884922D01*
X116524363Y-79879719D01*
X116539267Y-79880977D01*
X116551242Y-79883585D01*
X116547042Y-79875317D01*
X116547243Y-79857379D01*
X116556686Y-79849714D01*
X116574305Y-79831478D01*
X116576193Y-79821519D01*
X116587588Y-79803414D01*
X116620824Y-79787204D01*
X116649833Y-79779607D01*
X116665562Y-79766005D01*
X116677924Y-79744910D01*
X116688723Y-79723121D01*
X116693689Y-79725955D01*
X116696237Y-79740718D01*
X116700749Y-79757350D01*
X116706428Y-79746887D01*
X116706438Y-79746853D01*
X116719827Y-79721405D01*
X116742665Y-79691646D01*
X116763257Y-79664234D01*
X116771515Y-79644358D01*
X116771493Y-79643938D01*
X116780969Y-79627456D01*
X116803995Y-79606816D01*
X116829480Y-79591172D01*
X116839051Y-79588165D01*
X116852753Y-79577280D01*
X116875072Y-79552029D01*
X116880319Y-79545403D01*
X116904974Y-79517951D01*
X116924587Y-79503310D01*
X116927128Y-79502655D01*
X116937167Y-79489778D01*
X116938765Y-79467327D01*
X116942188Y-79436614D01*
X116951223Y-79421764D01*
X116961743Y-79420143D01*
X116960125Y-79433048D01*
X116964439Y-79455669D01*
X116974307Y-79461783D01*
X116993956Y-79479100D01*
X116996891Y-79489082D01*
X117005937Y-79507277D01*
X117012708Y-79509223D01*
X117024581Y-79497021D01*
X117025070Y-79489860D01*
X117015668Y-79459269D01*
X116996850Y-79427800D01*
X116975682Y-79405678D01*
X116963773Y-79401169D01*
X116950949Y-79395318D01*
X116951904Y-79389941D01*
X116968771Y-79381862D01*
X117002070Y-79378336D01*
X117009275Y-79378371D01*
X117043430Y-79376369D01*
X117053807Y-79367321D01*
X117052459Y-79362152D01*
X117034073Y-79349719D01*
X117014796Y-79348515D01*
X116990724Y-79346938D01*
X116983907Y-79340677D01*
X116970969Y-79334101D01*
X116940467Y-79332919D01*
X116934073Y-79333378D01*
X116901498Y-79332699D01*
X116884614Y-79325495D01*
X116884032Y-79323701D01*
X116874702Y-79313571D01*
X116857227Y-79319905D01*
X116842176Y-79338331D01*
X116840899Y-79341530D01*
X116834271Y-79353595D01*
X116830184Y-79338817D01*
X116829983Y-79337250D01*
X116823764Y-79320174D01*
X116809049Y-79328696D01*
X116808952Y-79328791D01*
X116781497Y-79340391D01*
X116766279Y-79339226D01*
X116739610Y-79342752D01*
X116730748Y-79352634D01*
X116721693Y-79365775D01*
X116718235Y-79354054D01*
X116712136Y-79342829D01*
X116699060Y-79352030D01*
X116672823Y-79371234D01*
X116636849Y-79389939D01*
X116599739Y-79404698D01*
X116570093Y-79412063D01*
X116556694Y-79409113D01*
X116541923Y-79396338D01*
X116528443Y-79404744D01*
X116526721Y-79416708D01*
X116516950Y-79439074D01*
X116490894Y-79451365D01*
X116468249Y-79450203D01*
X116450120Y-79457322D01*
X116441711Y-79477563D01*
X116435686Y-79500517D01*
X116428383Y-79497767D01*
X116420310Y-79483745D01*
X116409437Y-79469736D01*
X116406312Y-79475044D01*
X116395643Y-79489518D01*
X116383671Y-79491080D01*
X116362603Y-79501807D01*
X116342297Y-79532163D01*
X116326977Y-79573992D01*
X116321063Y-79611902D01*
X116315426Y-79640774D01*
X116307102Y-79652947D01*
X116296722Y-79669996D01*
X116296480Y-79676867D01*
X116292528Y-79701893D01*
X116280794Y-79736650D01*
X116280728Y-79736810D01*
X116268973Y-79773619D01*
X116265363Y-79802183D01*
X116260187Y-79828070D01*
X116254146Y-79835619D01*
X116246335Y-79854993D01*
X116244831Y-79889186D01*
X116245151Y-79893458D01*
X116244147Y-79925727D01*
X116236203Y-79942264D01*
X116234461Y-79942758D01*
X116226869Y-79954366D01*
X116230867Y-79971185D01*
X116234362Y-79993117D01*
X116228213Y-79999528D01*
X116215038Y-80012456D01*
X116207989Y-80032923D01*
X116199510Y-80077671D01*
X116199251Y-80098579D01*
X115766320Y-80098579D01*
X115771220Y-80072112D01*
X115774499Y-80036562D01*
X115772143Y-80013955D01*
X115771219Y-80012350D01*
X115771774Y-80003445D01*
X115783311Y-80004977D01*
X115801643Y-80003137D01*
X115804335Y-79995950D01*
X115794392Y-79981968D01*
X115790662Y-79981586D01*
X115776625Y-79971116D01*
X115768597Y-79955386D01*
X115766027Y-79936588D01*
X115772186Y-79934818D01*
X115782285Y-79929415D01*
X115783524Y-79916275D01*
X115784388Y-79899389D01*
X115794833Y-79908162D01*
X115796882Y-79910763D01*
X115807433Y-79919489D01*
X115809887Y-79904588D01*
X115809153Y-79892818D01*
X115813775Y-79859857D01*
X115826471Y-79841253D01*
X115839015Y-79824145D01*
X115831621Y-79797198D01*
X115830303Y-79794538D01*
X115813734Y-79761704D01*
X115816057Y-79798433D01*
X115812687Y-79823601D01*
X115802681Y-79848137D01*
X115790580Y-79864910D01*
X115780924Y-79866789D01*
X115778202Y-79857896D01*
X115787173Y-79842115D01*
X115791721Y-79840936D01*
X115799756Y-79829468D01*
X115796877Y-79815888D01*
X115794855Y-79780470D01*
X115818659Y-79753282D01*
X115824975Y-79749883D01*
X115837930Y-79741983D01*
X115824383Y-79740843D01*
X115823545Y-79740872D01*
X115805696Y-79729412D01*
X115795352Y-79699001D01*
X115793438Y-79657910D01*
X115800880Y-79614409D01*
X115807386Y-79596567D01*
X115828943Y-79553938D01*
X115852032Y-79516435D01*
X115852446Y-79515857D01*
X115865050Y-79492470D01*
X115860868Y-79483510D01*
X115860345Y-79483540D01*
X115845140Y-79473414D01*
X115841992Y-79462424D01*
X115849116Y-79445435D01*
X115868556Y-79444728D01*
X115887987Y-79444904D01*
X115895958Y-79432587D01*
X115894635Y-79401717D01*
X115891606Y-79380296D01*
X115892654Y-79348802D01*
X115901452Y-79331993D01*
X115911641Y-79330758D01*
X115909723Y-79352623D01*
X115908194Y-79375679D01*
X115920421Y-79377114D01*
X115920885Y-79376919D01*
X115934115Y-79360576D01*
X115940025Y-79333680D01*
X115938007Y-79307980D01*
X115927454Y-79295223D01*
X115925116Y-79295150D01*
X115913730Y-79283984D01*
X115913237Y-79250405D01*
X115911148Y-79203774D01*
X115899897Y-79157627D01*
X115889573Y-79124979D01*
X115887399Y-79105172D01*
X115888024Y-79103862D01*
X115905412Y-79097525D01*
X115941029Y-79091552D01*
X115985814Y-79086713D01*
X116030706Y-79083783D01*
X116066646Y-79083532D01*
X116084574Y-79086732D01*
X116084907Y-79087088D01*
X116103169Y-79093647D01*
X116133883Y-79094161D01*
X116163260Y-79095631D01*
X116176097Y-79104163D01*
X116188579Y-79118270D01*
X116217307Y-79134179D01*
X116219992Y-79135307D01*
X116253458Y-79155773D01*
X116274183Y-79180438D01*
X116274237Y-79180570D01*
X116290800Y-79206574D01*
X116316880Y-79235805D01*
X116344074Y-79259947D01*
X116363982Y-79270682D01*
X116365290Y-79270695D01*
X116368068Y-79261542D01*
X116365163Y-79256693D01*
X116368194Y-79249873D01*
X116394945Y-79254754D01*
X116394947Y-79254755D01*
X116428268Y-79258913D01*
X116456719Y-79245624D01*
X116469593Y-79234989D01*
X116506904Y-79212558D01*
X116534939Y-79209159D01*
X116559170Y-79207049D01*
X116563743Y-79197246D01*
X116572868Y-79185627D01*
X116583876Y-79186376D01*
X116601927Y-79185554D01*
X116604405Y-79180037D01*
X116615605Y-79173431D01*
X116646270Y-79175856D01*
X116647416Y-79176076D01*
X116675997Y-79180504D01*
X116681525Y-79176196D01*
X116670934Y-79163743D01*
X116659555Y-79149196D01*
X116669544Y-79145315D01*
X116688632Y-79146696D01*
X116720249Y-79143811D01*
X116731958Y-79132974D01*
X116746682Y-79115727D01*
X116772031Y-79105110D01*
X116796712Y-79103713D01*
X116809430Y-79114128D01*
X116809565Y-79115169D01*
X116816907Y-79126790D01*
X116839957Y-79126040D01*
X116861636Y-79120528D01*
X116862719Y-79120252D01*
X116893876Y-79113663D01*
X116940104Y-79113663D01*
X116950641Y-79121094D01*
X116973995Y-79131692D01*
X116976547Y-79126708D01*
X116971564Y-79119263D01*
X116950032Y-79107783D01*
X116945128Y-79107736D01*
X116940104Y-79113663D01*
X116893876Y-79113663D01*
X116914616Y-79109277D01*
G37*
G36*
X117469696Y-80487574D02*
G01*
X117462798Y-80481855D01*
X117451661Y-80470782D01*
X117446199Y-80447608D01*
X117436816Y-80413330D01*
X117417259Y-80371536D01*
X117410417Y-80359937D01*
X117405917Y-80351938D01*
X117835701Y-80351938D01*
X117836095Y-80418168D01*
X117839674Y-80489029D01*
X117845995Y-80557221D01*
X117854624Y-80615446D01*
X117865119Y-80656402D01*
X117870538Y-80667560D01*
X117900891Y-80689567D01*
X117945088Y-80693781D01*
X117995999Y-80680965D01*
X118046497Y-80651880D01*
X118051073Y-80648251D01*
X118107609Y-80615191D01*
X118148553Y-80606214D01*
X118174273Y-80606454D01*
X118177786Y-80610347D01*
X118173912Y-80612054D01*
X118152822Y-80625348D01*
X118157936Y-80636567D01*
X118181375Y-80640126D01*
X118202335Y-80634789D01*
X118203602Y-80614441D01*
X118201790Y-80607451D01*
X118202261Y-80576710D01*
X118221606Y-80558742D01*
X118246776Y-80540029D01*
X118282203Y-80508396D01*
X118311713Y-80479322D01*
X118313472Y-80477709D01*
X118314782Y-80476508D01*
X118327208Y-80476508D01*
X118328972Y-80489326D01*
X118333757Y-80489990D01*
X118352585Y-80478086D01*
X118355106Y-80474067D01*
X118353342Y-80461248D01*
X118352224Y-80461093D01*
X118348557Y-80460584D01*
X118329729Y-80472488D01*
X118327208Y-80476508D01*
X118314782Y-80476508D01*
X118348886Y-80445245D01*
X118356458Y-80439871D01*
X118374512Y-80439871D01*
X118374881Y-80459110D01*
X118381733Y-80478107D01*
X118390013Y-80478420D01*
X118396024Y-80459610D01*
X118392982Y-80449219D01*
X118380410Y-80431175D01*
X118374512Y-80439871D01*
X118356458Y-80439871D01*
X118383218Y-80420879D01*
X118403285Y-80412520D01*
X118420034Y-80407749D01*
X118415674Y-80403236D01*
X118396891Y-80390992D01*
X118400891Y-80378678D01*
X118423564Y-80374036D01*
X118430758Y-80374830D01*
X118457378Y-80374480D01*
X118465152Y-80366317D01*
X118452720Y-80354807D01*
X118442334Y-80353989D01*
X118429303Y-80351936D01*
X118432352Y-80337751D01*
X118442809Y-80319251D01*
X118465820Y-80292204D01*
X118488407Y-80280122D01*
X118511301Y-80271524D01*
X118520287Y-80257553D01*
X118509899Y-80247013D01*
X118509092Y-80246807D01*
X118498270Y-80235046D01*
X118505173Y-80214845D01*
X118524297Y-80193408D01*
X118550141Y-80177936D01*
X118564211Y-80174659D01*
X118594376Y-80168016D01*
X118599135Y-80152861D01*
X118586667Y-80132355D01*
X118573750Y-80123075D01*
X118561749Y-80138120D01*
X118560018Y-80141714D01*
X118549551Y-80157748D01*
X118545592Y-80155203D01*
X118550693Y-80134332D01*
X118565199Y-80102191D01*
X118566896Y-80099005D01*
X118582723Y-80071846D01*
X118591894Y-80067200D01*
X118600551Y-80082672D01*
X118601701Y-80085418D01*
X118618265Y-80109612D01*
X118638635Y-80106925D01*
X118656544Y-80089521D01*
X118667855Y-80057237D01*
X118664830Y-80037404D01*
X118661414Y-80016494D01*
X118669594Y-80015498D01*
X118683686Y-80010450D01*
X118689769Y-79994847D01*
X118703721Y-79970845D01*
X118718319Y-79964396D01*
X118735978Y-79970950D01*
X118735841Y-79983946D01*
X118739623Y-80001723D01*
X118750619Y-80003737D01*
X118763734Y-79997096D01*
X118755518Y-79977291D01*
X118755366Y-79977059D01*
X118745972Y-79952106D01*
X118748143Y-79940312D01*
X118745692Y-79935232D01*
X118733193Y-79939455D01*
X118716944Y-79944263D01*
X118717602Y-79931688D01*
X118722652Y-79919132D01*
X118729127Y-79891833D01*
X118716234Y-79874987D01*
X118715348Y-79874407D01*
X118699487Y-79847588D01*
X118698585Y-79830185D01*
X118698497Y-79828485D01*
X118718018Y-79828485D01*
X118719842Y-79844473D01*
X118730513Y-79864939D01*
X118746860Y-79884038D01*
X118755736Y-79886224D01*
X118753913Y-79870237D01*
X118743241Y-79849770D01*
X118726894Y-79830671D01*
X118718018Y-79828485D01*
X118698497Y-79828485D01*
X118697622Y-79811595D01*
X118702018Y-79780657D01*
X118710400Y-79775875D01*
X118714388Y-79780003D01*
X118727952Y-79790838D01*
X118738495Y-79777894D01*
X118746874Y-79746931D01*
X118747000Y-79736996D01*
X118743813Y-79723406D01*
X118735308Y-79735191D01*
X118733988Y-79737727D01*
X118719407Y-79751619D01*
X118711616Y-79749992D01*
X118709384Y-79733121D01*
X118715488Y-79722652D01*
X118727537Y-79694205D01*
X118729148Y-79676010D01*
X118730469Y-79658666D01*
X118737672Y-79667283D01*
X118757504Y-79694617D01*
X118765249Y-79702060D01*
X118783876Y-79705733D01*
X118798398Y-79690891D01*
X118804308Y-79667021D01*
X118797103Y-79643610D01*
X118794450Y-79640560D01*
X118781671Y-79615531D01*
X118781935Y-79603095D01*
X118775381Y-79582676D01*
X118758144Y-79568932D01*
X118736423Y-79549147D01*
X118734788Y-79516821D01*
X118736794Y-79492354D01*
X118729505Y-79491315D01*
X118723526Y-79496659D01*
X118703671Y-79504963D01*
X118674735Y-79493442D01*
X118669361Y-79490108D01*
X118628273Y-79474605D01*
X118580983Y-79470720D01*
X118580763Y-79470738D01*
X118534879Y-79467095D01*
X118513626Y-79452171D01*
X118499135Y-79437784D01*
X118480329Y-79441748D01*
X118464975Y-79451057D01*
X118435311Y-79464217D01*
X118415071Y-79464286D01*
X118392365Y-79465755D01*
X118379484Y-79474490D01*
X118363443Y-79485057D01*
X118359277Y-79477469D01*
X118347385Y-79465895D01*
X118323676Y-79465552D01*
X118301494Y-79475377D01*
X118295713Y-79482533D01*
X118282452Y-79491372D01*
X118271176Y-79484680D01*
X118239370Y-79472288D01*
X118203448Y-79485923D01*
X118162425Y-79526093D01*
X118144235Y-79549886D01*
X118117044Y-79589113D01*
X118098126Y-79619151D01*
X118091761Y-79632886D01*
X118084464Y-79647725D01*
X118064448Y-79678814D01*
X118035740Y-79719956D01*
X118029817Y-79728149D01*
X117999756Y-79773388D01*
X117978280Y-79813196D01*
X117969489Y-79839827D01*
X117969502Y-79842031D01*
X117963987Y-79871102D01*
X117947283Y-79909310D01*
X117941178Y-79919941D01*
X117922210Y-79957551D01*
X117912849Y-79989202D01*
X117912645Y-79995447D01*
X117908097Y-80017158D01*
X117900900Y-80021856D01*
X117889313Y-80034167D01*
X117888679Y-80042837D01*
X117881874Y-80064528D01*
X117876312Y-80068708D01*
X117868476Y-80085011D01*
X117863794Y-80120077D01*
X117863150Y-80146956D01*
X117860137Y-80198788D01*
X117851439Y-80246536D01*
X117846212Y-80262572D01*
X117838926Y-80297639D01*
X117835701Y-80351938D01*
X117405917Y-80351938D01*
X117390109Y-80323835D01*
X117378240Y-80295742D01*
X117377045Y-80289624D01*
X117381521Y-80286499D01*
X117392643Y-80303796D01*
X117407703Y-80327047D01*
X117414985Y-80326379D01*
X117412737Y-80305219D01*
X117404649Y-80280290D01*
X117396127Y-80249584D01*
X117404423Y-80231387D01*
X117422462Y-80219400D01*
X117443929Y-80203329D01*
X117447124Y-80192555D01*
X117431189Y-80194543D01*
X117418444Y-80204146D01*
X117402646Y-80213812D01*
X117389324Y-80202045D01*
X117380935Y-80186218D01*
X117369442Y-80154265D01*
X117367918Y-80133120D01*
X117373495Y-80127010D01*
X117375536Y-80134583D01*
X117384734Y-80150307D01*
X117398312Y-80144449D01*
X117407505Y-80122152D01*
X117402804Y-80096565D01*
X117392171Y-80088796D01*
X117372730Y-80076288D01*
X117378570Y-80062381D01*
X117397853Y-80055675D01*
X117420793Y-80057764D01*
X117426785Y-80065038D01*
X117436110Y-80071610D01*
X117441836Y-80068625D01*
X117446727Y-80052377D01*
X117437615Y-80040053D01*
X117427197Y-80024591D01*
X117435421Y-80020412D01*
X117451410Y-80008016D01*
X117469771Y-79980298D01*
X117484930Y-79948070D01*
X117491319Y-79922145D01*
X117489665Y-79915153D01*
X117490020Y-79896677D01*
X117501540Y-79868058D01*
X117512050Y-79836987D01*
X117509420Y-79815605D01*
X117506272Y-79805546D01*
X117513475Y-79807769D01*
X117529929Y-79802173D01*
X117550972Y-79778322D01*
X117556254Y-79769947D01*
X117572908Y-79735192D01*
X117572832Y-79709209D01*
X117564842Y-79691724D01*
X117555334Y-79667818D01*
X117558640Y-79658240D01*
X117569660Y-79645367D01*
X117576479Y-79621539D01*
X117586601Y-79594287D01*
X117599349Y-79584373D01*
X117614849Y-79572186D01*
X117637625Y-79542113D01*
X117657935Y-79508969D01*
X117681497Y-79469723D01*
X117700769Y-79442570D01*
X117710095Y-79434154D01*
X117722991Y-79422003D01*
X117725509Y-79415236D01*
X117728312Y-79413863D01*
X117728690Y-79435198D01*
X117728633Y-79436744D01*
X117731212Y-79462818D01*
X117740082Y-79466539D01*
X117747614Y-79447411D01*
X117749463Y-79412751D01*
X117749017Y-79405322D01*
X117747617Y-79373227D01*
X117752147Y-79364789D01*
X117764986Y-79375887D01*
X117765623Y-79376587D01*
X117789015Y-79396456D01*
X117799428Y-79391721D01*
X117795524Y-79363243D01*
X117794022Y-79358242D01*
X117788591Y-79328854D01*
X117800603Y-79313410D01*
X117816517Y-79306812D01*
X117842006Y-79293298D01*
X117850146Y-79281076D01*
X117859314Y-79268315D01*
X117880362Y-79266544D01*
X117898877Y-79276919D01*
X117897326Y-79285042D01*
X117886232Y-79283550D01*
X117868863Y-79286529D01*
X117866356Y-79305704D01*
X117874831Y-79332493D01*
X117883558Y-79341672D01*
X117895223Y-79337464D01*
X117896359Y-79327326D01*
X117901972Y-79307603D01*
X117908406Y-79304358D01*
X117921343Y-79314788D01*
X117924429Y-79326851D01*
X117930574Y-79340818D01*
X117937470Y-79336252D01*
X117941679Y-79314459D01*
X117938567Y-79277981D01*
X117936400Y-79266770D01*
X117928032Y-79234818D01*
X117921689Y-79228406D01*
X117917023Y-79240040D01*
X117910453Y-79259272D01*
X117901636Y-79255312D01*
X117890332Y-79238861D01*
X117878762Y-79216577D01*
X117885727Y-79208295D01*
X117891854Y-79207417D01*
X117915306Y-79195770D01*
X117937270Y-79174144D01*
X117956400Y-79153662D01*
X117969086Y-79154691D01*
X117975442Y-79162392D01*
X117987231Y-79171466D01*
X118004254Y-79164369D01*
X118032773Y-79138436D01*
X118033502Y-79137708D01*
X118060387Y-79106821D01*
X118062660Y-79102137D01*
X118066749Y-79093709D01*
X118158988Y-79093709D01*
X118164230Y-79098861D01*
X118174681Y-79098339D01*
X118199359Y-79088136D01*
X118205663Y-79080637D01*
X118208624Y-79061236D01*
X118195822Y-79057895D01*
X118175405Y-79072097D01*
X118173109Y-79074715D01*
X118158988Y-79093709D01*
X118066749Y-79093709D01*
X118069152Y-79088755D01*
X118060711Y-79086790D01*
X118035970Y-79104210D01*
X118026572Y-79112702D01*
X118000408Y-79132441D01*
X117982300Y-79137622D01*
X117980878Y-79136830D01*
X117981653Y-79123015D01*
X117998287Y-79103871D01*
X118022094Y-79087548D01*
X118039229Y-79082077D01*
X118054410Y-79069441D01*
X118055656Y-79059557D01*
X118060912Y-79040161D01*
X118075283Y-79041145D01*
X118088193Y-79060224D01*
X118094998Y-79076951D01*
X118096317Y-79066855D01*
X118096190Y-79059524D01*
X118106997Y-79038631D01*
X118132071Y-79031788D01*
X118155743Y-79027023D01*
X118163108Y-79012776D01*
X118158519Y-78980384D01*
X118158341Y-78979521D01*
X118148214Y-78930438D01*
X118205612Y-78934939D01*
X118244012Y-78940684D01*
X118269454Y-78949495D01*
X118272895Y-78952361D01*
X118292267Y-78956845D01*
X118307783Y-78949487D01*
X118337218Y-78938660D01*
X118368702Y-78946044D01*
X118408546Y-78973606D01*
X118421889Y-78985057D01*
X118453447Y-79008308D01*
X118478527Y-79018866D01*
X118484609Y-79018401D01*
X118494307Y-79025369D01*
X118499120Y-79050359D01*
X118498875Y-79083787D01*
X118493393Y-79116070D01*
X118486689Y-79132314D01*
X118482829Y-79156948D01*
X118488194Y-79190383D01*
X118497194Y-79216018D01*
X118503696Y-79216593D01*
X118508141Y-79204624D01*
X118518633Y-79186154D01*
X118536969Y-79192188D01*
X118537721Y-79192705D01*
X118562255Y-79200552D01*
X118573104Y-79197391D01*
X118586440Y-79196767D01*
X118588170Y-79201890D01*
X118601182Y-79211282D01*
X118630485Y-79213073D01*
X118662976Y-79214441D01*
X118681083Y-79222321D01*
X118699932Y-79232705D01*
X118735133Y-79242809D01*
X118747164Y-79245192D01*
X118782606Y-79254056D01*
X118802926Y-79264092D01*
X118804713Y-79267127D01*
X118817546Y-79278086D01*
X118840079Y-79284517D01*
X118863751Y-79295039D01*
X118900697Y-79318655D01*
X118944935Y-79350660D01*
X118990486Y-79386351D01*
X119031371Y-79421023D01*
X119061606Y-79449972D01*
X119075212Y-79468494D01*
X119075432Y-79469644D01*
X119087577Y-79481412D01*
X119094070Y-79481850D01*
X119113201Y-79491700D01*
X119130681Y-79513786D01*
X119141149Y-79538069D01*
X119139040Y-79548084D01*
X119134392Y-79560890D01*
X119137123Y-79592578D01*
X119146129Y-79635344D01*
X119156198Y-79669571D01*
X119158627Y-79694438D01*
X119141836Y-79703440D01*
X119126306Y-79707357D01*
X119137889Y-79713837D01*
X119138998Y-79714230D01*
X119151679Y-79721140D01*
X119160959Y-79735229D01*
X119168932Y-79762443D01*
X119177695Y-79808730D01*
X119182536Y-79837885D01*
X119186787Y-79877535D01*
X119181437Y-79898402D01*
X119166654Y-79907918D01*
X119150780Y-79918287D01*
X119148036Y-79938767D01*
X119154688Y-79970266D01*
X119161692Y-80005513D01*
X119157464Y-80021628D01*
X119146368Y-80025336D01*
X119128406Y-80032266D01*
X119126787Y-80037591D01*
X119129195Y-80058964D01*
X119129928Y-80075970D01*
X119128023Y-80094670D01*
X119118133Y-80088023D01*
X119115151Y-80084290D01*
X119103220Y-80072413D01*
X119101493Y-80085849D01*
X119101721Y-80088980D01*
X119096971Y-80110264D01*
X119090132Y-80114591D01*
X119083068Y-80125397D01*
X119085816Y-80134631D01*
X119086228Y-80157326D01*
X119080916Y-80163999D01*
X119069627Y-80185635D01*
X119068898Y-80198242D01*
X119062170Y-80224917D01*
X119043001Y-80257917D01*
X119040867Y-80260733D01*
X119017818Y-80301199D01*
X119005107Y-80343081D01*
X118993263Y-80383277D01*
X118975361Y-80412636D01*
X118959936Y-80438267D01*
X118959455Y-80455401D01*
X118957517Y-80477813D01*
X118947651Y-80491973D01*
X118931597Y-80515613D01*
X118929046Y-80527611D01*
X118920117Y-80547731D01*
X118904834Y-80562751D01*
X118884085Y-80586360D01*
X118859854Y-80624934D01*
X118847743Y-80648434D01*
X118828350Y-80685930D01*
X118812616Y-80710394D01*
X118806612Y-80715679D01*
X118792588Y-80725560D01*
X118766037Y-80750330D01*
X118739559Y-80777448D01*
X118704325Y-80812343D01*
X118673146Y-80838981D01*
X118657477Y-80849150D01*
X118640891Y-80866287D01*
X118642071Y-80878929D01*
X118639956Y-80895540D01*
X118623878Y-80900334D01*
X118601930Y-80907857D01*
X118597562Y-80915818D01*
X118587017Y-80927617D01*
X118574242Y-80930415D01*
X118542503Y-80938189D01*
X118497834Y-80955747D01*
X118451305Y-80978455D01*
X118429977Y-80990806D01*
X118402542Y-81002802D01*
X118359170Y-81016708D01*
X118327553Y-81025031D01*
X118276032Y-81037438D01*
X118229063Y-81048854D01*
X118209045Y-81053778D01*
X118170770Y-81058217D01*
X118119933Y-81057968D01*
X118093268Y-81055866D01*
X118051691Y-81049373D01*
X118024198Y-81041370D01*
X118017751Y-81036162D01*
X118007070Y-81030676D01*
X117998680Y-81033419D01*
X117975199Y-81031979D01*
X117960841Y-81022233D01*
X117931784Y-81006377D01*
X117914873Y-81004531D01*
X117892610Y-81000251D01*
X117887463Y-80992874D01*
X117875664Y-80980259D01*
X117872294Y-80980145D01*
X117851554Y-80973269D01*
X117829698Y-80959274D01*
X117800274Y-80937356D01*
X117761178Y-80909139D01*
X117747821Y-80899673D01*
X117715794Y-80874985D01*
X117695896Y-80855604D01*
X117692908Y-80850278D01*
X117681103Y-80835078D01*
X117654842Y-80814603D01*
X117653390Y-80813646D01*
X117627973Y-80791698D01*
X117626753Y-80773018D01*
X117628397Y-80770349D01*
X117633726Y-80748481D01*
X117615094Y-80737572D01*
X117595702Y-80737286D01*
X117573276Y-80728319D01*
X117567616Y-80710802D01*
X117561570Y-80691102D01*
X117554708Y-80689834D01*
X117542130Y-80684185D01*
X117524725Y-80660237D01*
X117521789Y-80654890D01*
X117499394Y-80613534D01*
X117479216Y-80577742D01*
X117465936Y-80535923D01*
X117467009Y-80521633D01*
X117467732Y-80511982D01*
X117469696Y-80487574D01*
G37*
G36*
X119510158Y-79996041D02*
G01*
X119539118Y-79980600D01*
X119568809Y-79989475D01*
X119574468Y-79994910D01*
X119583896Y-79996644D01*
X119585091Y-79986953D01*
X119594705Y-79962041D01*
X119619148Y-79933619D01*
X119649357Y-79909829D01*
X119676266Y-79898818D01*
X119682637Y-79899306D01*
X119700490Y-79898588D01*
X119702845Y-79893400D01*
X119690009Y-79882340D01*
X119667730Y-79875951D01*
X119641127Y-79866176D01*
X119624506Y-79851044D01*
X119623135Y-79837526D01*
X119635002Y-79832659D01*
X119648546Y-79837911D01*
X119647815Y-79843251D01*
X119651584Y-79854131D01*
X119655258Y-79854313D01*
X119671325Y-79841908D01*
X119674377Y-79835071D01*
X119679898Y-79825645D01*
X119682664Y-79836067D01*
X119688604Y-79847550D01*
X119704254Y-79836501D01*
X119704844Y-79835919D01*
X119720579Y-79813060D01*
X119722974Y-79802158D01*
X119716214Y-79795071D01*
X119713325Y-79797574D01*
X119696586Y-79799432D01*
X119684871Y-79793657D01*
X119658000Y-79788336D01*
X119647762Y-79793512D01*
X119644357Y-79794394D01*
X119657684Y-79779023D01*
X119662338Y-79774089D01*
X119686198Y-79752622D01*
X119703080Y-79750692D01*
X119715526Y-79759023D01*
X119740854Y-79769461D01*
X119757648Y-79758309D01*
X119759904Y-79742292D01*
X119768838Y-79721661D01*
X119785324Y-79705299D01*
X119803988Y-79683690D01*
X119799378Y-79670356D01*
X119776071Y-79670625D01*
X119760687Y-79676610D01*
X119734527Y-79685339D01*
X119728598Y-79676182D01*
X119742986Y-79648732D01*
X119775986Y-79604804D01*
X119803378Y-79567225D01*
X119815933Y-79545086D01*
X119818899Y-79539855D01*
X119875722Y-79539855D01*
X119877486Y-79552674D01*
X119882270Y-79553338D01*
X119901099Y-79541434D01*
X119903619Y-79537415D01*
X119901855Y-79524597D01*
X119897071Y-79523932D01*
X119878242Y-79535836D01*
X119875722Y-79539855D01*
X119818899Y-79539855D01*
X119821069Y-79536029D01*
X119824970Y-79522065D01*
X119835613Y-79505375D01*
X119856368Y-79499382D01*
X119881408Y-79490420D01*
X119892739Y-79464161D01*
X119894310Y-79452964D01*
X119902050Y-79423814D01*
X119914686Y-79417284D01*
X119914981Y-79417427D01*
X119925809Y-79415015D01*
X119924876Y-79406951D01*
X119928112Y-79384530D01*
X119929900Y-79380503D01*
X119930525Y-79379095D01*
X119945991Y-79379095D01*
X119947755Y-79391913D01*
X119952540Y-79392578D01*
X119971368Y-79380674D01*
X119973890Y-79376655D01*
X119972126Y-79363835D01*
X119967341Y-79363172D01*
X119948512Y-79375076D01*
X119945991Y-79379095D01*
X119930525Y-79379095D01*
X119943340Y-79350230D01*
X119951357Y-79336458D01*
X119973472Y-79295920D01*
X119999189Y-79241438D01*
X120020909Y-79189816D01*
X120041831Y-79136641D01*
X120055442Y-79105023D01*
X120064990Y-79090582D01*
X120073721Y-79088937D01*
X120084879Y-79095707D01*
X120088653Y-79098356D01*
X120104039Y-79105837D01*
X120102510Y-79091654D01*
X120101353Y-79088331D01*
X120102699Y-79060286D01*
X120118471Y-79027406D01*
X120142069Y-78998849D01*
X120166894Y-78983766D01*
X120176681Y-78983807D01*
X120199466Y-78982905D01*
X120205732Y-78977317D01*
X120200053Y-78965409D01*
X120187249Y-78961741D01*
X120177802Y-78956023D01*
X120182623Y-78939789D01*
X120203523Y-78909375D01*
X120228896Y-78877435D01*
X120235721Y-78868612D01*
X120239606Y-78863590D01*
X120293128Y-78863590D01*
X120295069Y-78870661D01*
X120314075Y-78882518D01*
X120318036Y-78882708D01*
X120329854Y-78870953D01*
X120329940Y-78867611D01*
X120317516Y-78856362D01*
X120306974Y-78855564D01*
X120293128Y-78863590D01*
X120239606Y-78863590D01*
X120260869Y-78836103D01*
X120284060Y-78802006D01*
X120294086Y-78781673D01*
X120294183Y-78780208D01*
X120305010Y-78752369D01*
X120339624Y-78727115D01*
X120393806Y-78707099D01*
X120419962Y-78701162D01*
X120473780Y-78687387D01*
X120505713Y-78669875D01*
X120517204Y-78655887D01*
X120538372Y-78634786D01*
X120555694Y-78632089D01*
X120573379Y-78630270D01*
X120575676Y-78623896D01*
X120563254Y-78607555D01*
X120558586Y-78605833D01*
X120550887Y-78591866D01*
X120557559Y-78555931D01*
X120560368Y-78546749D01*
X120575920Y-78509956D01*
X120592801Y-78497196D01*
X120600957Y-78498033D01*
X120629170Y-78503199D01*
X120670781Y-78507867D01*
X120682616Y-78508807D01*
X120724528Y-78515359D01*
X120756281Y-78526482D01*
X120761549Y-78529982D01*
X120792449Y-78543486D01*
X120808691Y-78544612D01*
X120831491Y-78550952D01*
X120837274Y-78561480D01*
X120849758Y-78581973D01*
X120872164Y-78598792D01*
X120892497Y-78614345D01*
X120903850Y-78638477D01*
X120909854Y-78679952D01*
X120910797Y-78692002D01*
X120910092Y-78783653D01*
X120895626Y-78867360D01*
X120868954Y-78934200D01*
X120868538Y-78934911D01*
X120849730Y-78980001D01*
X120840147Y-79026422D01*
X120832882Y-79064819D01*
X120820084Y-79091961D01*
X120818758Y-79093398D01*
X120806389Y-79119870D01*
X120804253Y-79147988D01*
X120800542Y-79188095D01*
X120791062Y-79214186D01*
X120773338Y-79249257D01*
X120751584Y-79297406D01*
X120728622Y-79351669D01*
X120707273Y-79405077D01*
X120690364Y-79450664D01*
X120680716Y-79481463D01*
X120679516Y-79489463D01*
X120671792Y-79514257D01*
X120661743Y-79527310D01*
X120647428Y-79555821D01*
X120645240Y-79579670D01*
X120643259Y-79605436D01*
X120636425Y-79613859D01*
X120626646Y-79626842D01*
X120615595Y-79658416D01*
X120611289Y-79675796D01*
X120600848Y-79716229D01*
X120590591Y-79745312D01*
X120587504Y-79750966D01*
X120579689Y-79776205D01*
X120579417Y-79791251D01*
X120575552Y-79824517D01*
X120567301Y-79849237D01*
X120553925Y-79900307D01*
X120553005Y-79969639D01*
X120554076Y-79984053D01*
X120551277Y-80022634D01*
X120545216Y-80043617D01*
X120542002Y-80065135D01*
X120557528Y-80083690D01*
X120576639Y-80096036D01*
X120609521Y-80112676D01*
X120633175Y-80120000D01*
X120634945Y-80119994D01*
X120650411Y-80128560D01*
X120651449Y-80132606D01*
X120663364Y-80145051D01*
X120667615Y-80145247D01*
X120691129Y-80152537D01*
X120712524Y-80171435D01*
X120721544Y-80191927D01*
X120720378Y-80196745D01*
X120701360Y-80211151D01*
X120691112Y-80213470D01*
X120677471Y-80218997D01*
X120687005Y-80233271D01*
X120693864Y-80251885D01*
X120673103Y-80265948D01*
X120624719Y-80275464D01*
X120610220Y-80276962D01*
X120553964Y-80284239D01*
X120520628Y-80296375D01*
X120505129Y-80317818D01*
X120502387Y-80353020D01*
X120503581Y-80370356D01*
X120503943Y-80422630D01*
X120497798Y-80472675D01*
X120494590Y-80485463D01*
X120487418Y-80534375D01*
X120492838Y-80597951D01*
X120497519Y-80623967D01*
X120505967Y-80670734D01*
X120510760Y-80705408D01*
X120510927Y-80720011D01*
X120506002Y-80715478D01*
X120505183Y-80709973D01*
X120493932Y-80695491D01*
X120488932Y-80694996D01*
X120480079Y-80707423D01*
X120481217Y-80727297D01*
X120480698Y-80751532D01*
X120470586Y-80756338D01*
X120455308Y-80765131D01*
X120454404Y-80772199D01*
X120445557Y-80796545D01*
X120422678Y-80823092D01*
X120396389Y-80840763D01*
X120386634Y-80842873D01*
X120358023Y-80840533D01*
X120343757Y-80838472D01*
X120316343Y-80826931D01*
X120283851Y-80804741D01*
X120276308Y-80797932D01*
X120271128Y-80793257D01*
X120329745Y-80793257D01*
X120341544Y-80805872D01*
X120344914Y-80805986D01*
X120357529Y-80794186D01*
X120357642Y-80790817D01*
X120345843Y-80778202D01*
X120342473Y-80778088D01*
X120329858Y-80789888D01*
X120329745Y-80793257D01*
X120271128Y-80793257D01*
X120255997Y-80779601D01*
X120252584Y-80774447D01*
X120249859Y-80770331D01*
X120299628Y-80770331D01*
X120308090Y-80775257D01*
X120320642Y-80765661D01*
X120333773Y-80747324D01*
X120333417Y-80740331D01*
X120317903Y-80741387D01*
X120303032Y-80756872D01*
X120299628Y-80770331D01*
X120249859Y-80770331D01*
X120242496Y-80759212D01*
X120242335Y-80758099D01*
X120230569Y-80746097D01*
X120227221Y-80746004D01*
X120214573Y-80739232D01*
X120214406Y-80736584D01*
X120211686Y-80717499D01*
X120203507Y-80682538D01*
X120203491Y-80682480D01*
X120199809Y-80668648D01*
X120197160Y-80661161D01*
X120447173Y-80661161D01*
X120454922Y-80680543D01*
X120466643Y-80682891D01*
X120483726Y-80669572D01*
X120486046Y-80651910D01*
X120476908Y-80632102D01*
X120461308Y-80632937D01*
X120448860Y-80652126D01*
X120447173Y-80661161D01*
X120197160Y-80661161D01*
X120186868Y-80632078D01*
X120173336Y-80619289D01*
X120163860Y-80621209D01*
X120149884Y-80623077D01*
X120149683Y-80604458D01*
X120150943Y-80598431D01*
X120153204Y-80576254D01*
X120143485Y-80576872D01*
X120141393Y-80578363D01*
X120129637Y-80581841D01*
X120131207Y-80567679D01*
X120128826Y-80540654D01*
X120114120Y-80505805D01*
X120112004Y-80502237D01*
X120096076Y-80471080D01*
X120097044Y-80453386D01*
X120102614Y-80447757D01*
X120109663Y-80435145D01*
X120093448Y-80423926D01*
X120065667Y-80418562D01*
X120027705Y-80424425D01*
X119976888Y-80442600D01*
X119910546Y-80474175D01*
X119826007Y-80520234D01*
X119754298Y-80561838D01*
X119707878Y-80588336D01*
X119667052Y-80610064D01*
X119643523Y-80621084D01*
X119620158Y-80634471D01*
X119613920Y-80644199D01*
X119602407Y-80654156D01*
X119572724Y-80666431D01*
X119534214Y-80678094D01*
X119496215Y-80686214D01*
X119473699Y-80688214D01*
X119453745Y-80697768D01*
X119450953Y-80709381D01*
X119446216Y-80723143D01*
X119424667Y-80728982D01*
X119392971Y-80729427D01*
X119348964Y-80728796D01*
X119313519Y-80728987D01*
X119307113Y-80729196D01*
X119287589Y-80722351D01*
X119287181Y-80709224D01*
X119285069Y-80686792D01*
X119279187Y-80680982D01*
X119266926Y-80683766D01*
X119266419Y-80688677D01*
X119260421Y-80703681D01*
X119244801Y-80701237D01*
X119229572Y-80683870D01*
X119227465Y-80678859D01*
X119211470Y-80657415D01*
X119198433Y-80653288D01*
X119181214Y-80643284D01*
X119177214Y-80630547D01*
X119178558Y-80614793D01*
X119189088Y-80624193D01*
X119209506Y-80636433D01*
X119218876Y-80635337D01*
X119222654Y-80621998D01*
X119203154Y-80597709D01*
X119176889Y-80562420D01*
X119169864Y-80529850D01*
X119183272Y-80506913D01*
X119187077Y-80504752D01*
X119204109Y-80486009D01*
X119205666Y-80476252D01*
X119214242Y-80454052D01*
X119232849Y-80433427D01*
X119257193Y-80417932D01*
X119273240Y-80423051D01*
X119275384Y-80425395D01*
X119288468Y-80434345D01*
X119294654Y-80423492D01*
X119311720Y-80405664D01*
X119319024Y-80403790D01*
X119335384Y-80390962D01*
X119346175Y-80365238D01*
X119346383Y-80341177D01*
X119342566Y-80335429D01*
X119329507Y-80340122D01*
X119311822Y-80360181D01*
X119289718Y-80382305D01*
X119267647Y-80380368D01*
X119267552Y-80380316D01*
X119255402Y-80370937D01*
X119268802Y-80366372D01*
X119275777Y-80365622D01*
X119301528Y-80353529D01*
X119308610Y-80338661D01*
X119321168Y-80319537D01*
X119356466Y-80309950D01*
X119359806Y-80309584D01*
X119394312Y-80301583D01*
X119403606Y-80287859D01*
X119403500Y-80287468D01*
X119406777Y-80271041D01*
X119411496Y-80269199D01*
X119424629Y-80256444D01*
X119430965Y-80239180D01*
X119442318Y-80219401D01*
X119453569Y-80218425D01*
X119463044Y-80217111D01*
X119459198Y-80204989D01*
X119457934Y-80182649D01*
X119464745Y-80175196D01*
X119465892Y-80169644D01*
X119448446Y-80168686D01*
X119443740Y-80168696D01*
X119428644Y-80168729D01*
X119425442Y-80161898D01*
X119439324Y-80142216D01*
X119451819Y-80126910D01*
X119479233Y-80099716D01*
X119496770Y-80096038D01*
X119498613Y-80097848D01*
X119499737Y-80117553D01*
X119494262Y-80123780D01*
X119484439Y-80137630D01*
X119486016Y-80141292D01*
X119500795Y-80138337D01*
X119514648Y-80128535D01*
X119515379Y-80127590D01*
X119913582Y-80127590D01*
X119916147Y-80146368D01*
X119927488Y-80161112D01*
X119942677Y-80152910D01*
X119948183Y-80147412D01*
X119976477Y-80128682D01*
X119993600Y-80124091D01*
X120014844Y-80128182D01*
X120019069Y-80134052D01*
X120030832Y-80144299D01*
X120034859Y-80144383D01*
X120042813Y-80135249D01*
X120040616Y-80131004D01*
X120042707Y-80113466D01*
X120058903Y-80084377D01*
X120066432Y-80074091D01*
X120100201Y-80029859D01*
X120118680Y-80001907D01*
X120124057Y-79984630D01*
X120118518Y-79972424D01*
X120109409Y-79963974D01*
X120090021Y-79936659D01*
X120085627Y-79919569D01*
X120086781Y-79903230D01*
X120095057Y-79913043D01*
X120095696Y-79914170D01*
X120117853Y-79931236D01*
X120135175Y-79934904D01*
X120150309Y-79933103D01*
X120145230Y-79929339D01*
X120129535Y-79914869D01*
X120125701Y-79894792D01*
X120135922Y-79882635D01*
X120137608Y-79882391D01*
X120150083Y-79870494D01*
X120150266Y-79866399D01*
X120140594Y-79859680D01*
X120132453Y-79863628D01*
X120124197Y-79866207D01*
X120133013Y-79850353D01*
X120142869Y-79830144D01*
X120132597Y-79828897D01*
X120102645Y-79846578D01*
X120092767Y-79853498D01*
X120062268Y-79883072D01*
X120043486Y-79914033D01*
X120029504Y-79940032D01*
X120017249Y-79949144D01*
X120005674Y-79961567D01*
X120004870Y-79971752D01*
X119995621Y-79996014D01*
X119986518Y-80002973D01*
X119969516Y-80022158D01*
X119967997Y-80032264D01*
X119961686Y-80050536D01*
X119956069Y-80052887D01*
X119937366Y-80066377D01*
X119921444Y-80095399D01*
X119913582Y-80127590D01*
X119515379Y-80127590D01*
X119527374Y-80112073D01*
X119526024Y-80090272D01*
X119514901Y-80062062D01*
X119502155Y-80026743D01*
X119503168Y-80013892D01*
X119503321Y-80011949D01*
X119525380Y-80011949D01*
X119529621Y-80033081D01*
X119535709Y-80047496D01*
X119553135Y-80076050D01*
X119568783Y-80086655D01*
X119577270Y-80076911D01*
X119577396Y-80066083D01*
X119567236Y-80029427D01*
X119547857Y-80007778D01*
X119536166Y-80005290D01*
X119525380Y-80011949D01*
X119503321Y-80011949D01*
X119503862Y-80005095D01*
X119510158Y-79996041D01*
G37*
G36*
X111902316Y-81480971D02*
G01*
X111896785Y-81476300D01*
X111945650Y-81476300D01*
X111946707Y-81491814D01*
X111962191Y-81506686D01*
X111975651Y-81510090D01*
X111980576Y-81501628D01*
X111970980Y-81489075D01*
X111952644Y-81475946D01*
X111945650Y-81476300D01*
X111896785Y-81476300D01*
X111894955Y-81474754D01*
X111875196Y-81458065D01*
X111869140Y-81448089D01*
X112199737Y-81448089D01*
X112203829Y-81459955D01*
X112213962Y-81461129D01*
X112232809Y-81456221D01*
X112235170Y-81453076D01*
X112223810Y-81440950D01*
X112205392Y-81442269D01*
X112199737Y-81448089D01*
X111869140Y-81448089D01*
X111860981Y-81434648D01*
X111857705Y-81415821D01*
X111854968Y-81400096D01*
X111854788Y-81396755D01*
X112075631Y-81396755D01*
X112085007Y-81414101D01*
X112091338Y-81415635D01*
X112101537Y-81402935D01*
X112102774Y-81385693D01*
X112095717Y-81366876D01*
X112087067Y-81366814D01*
X112075997Y-81388118D01*
X112075631Y-81396755D01*
X111854788Y-81396755D01*
X111853370Y-81370389D01*
X111854797Y-81321774D01*
X111862357Y-81288982D01*
X111868080Y-81280950D01*
X111878080Y-81259028D01*
X111875197Y-81246211D01*
X111872256Y-81227500D01*
X111877461Y-81223512D01*
X111883641Y-81210727D01*
X111882371Y-81180698D01*
X111881247Y-81173985D01*
X111878413Y-81141842D01*
X111883041Y-81125105D01*
X111884674Y-81124490D01*
X111893093Y-81111752D01*
X111894154Y-81089693D01*
X111898057Y-81060478D01*
X111908024Y-81047422D01*
X111917753Y-81040220D01*
X111907313Y-81039285D01*
X111893939Y-81028597D01*
X111887011Y-81004507D01*
X111888154Y-80980144D01*
X111898567Y-80968662D01*
X111906159Y-80957055D01*
X111902161Y-80940236D01*
X111898556Y-80918308D01*
X111904529Y-80911918D01*
X111913813Y-80898646D01*
X111921062Y-80866663D01*
X111922783Y-80850584D01*
X111927924Y-80809690D01*
X111935231Y-80780144D01*
X111937762Y-80774907D01*
X111945935Y-80751134D01*
X111951895Y-80714096D01*
X111952228Y-80710391D01*
X111959840Y-80642989D01*
X111969684Y-80591499D01*
X111980726Y-80560403D01*
X111988580Y-80553172D01*
X111995003Y-80541180D01*
X111990987Y-80519408D01*
X111988991Y-80488031D01*
X112009866Y-80461533D01*
X112026513Y-80444179D01*
X112024677Y-80437571D01*
X112024447Y-80437588D01*
X112016707Y-80426686D01*
X112015163Y-80398596D01*
X112018758Y-80363181D01*
X112026438Y-80330303D01*
X112037148Y-80309825D01*
X112038206Y-80308942D01*
X112048312Y-80290746D01*
X112047866Y-80286667D01*
X112044715Y-80255084D01*
X112055422Y-80240903D01*
X112062987Y-80241398D01*
X112087196Y-80237220D01*
X112106584Y-80224894D01*
X112123402Y-80207300D01*
X112118960Y-80193743D01*
X112104160Y-80180988D01*
X112084841Y-80166824D01*
X112082973Y-80173456D01*
X112089588Y-80191092D01*
X112095268Y-80214765D01*
X112084244Y-80218915D01*
X112083860Y-80218826D01*
X112061135Y-80203053D01*
X112061749Y-80177408D01*
X112070376Y-80164670D01*
X112081523Y-80136263D01*
X112079674Y-80120433D01*
X112079450Y-80099806D01*
X112086853Y-80094792D01*
X112095404Y-80082320D01*
X112089785Y-80055882D01*
X112082530Y-80030684D01*
X112088319Y-80027173D01*
X112102149Y-80035720D01*
X112126355Y-80046255D01*
X112135409Y-80040288D01*
X112123565Y-80023007D01*
X112119732Y-80019839D01*
X112106841Y-80004850D01*
X112117619Y-79991296D01*
X112125306Y-79986309D01*
X112149066Y-79964623D01*
X112157060Y-79949651D01*
X112154575Y-79937446D01*
X112146856Y-79940830D01*
X112132786Y-79942567D01*
X112130657Y-79937176D01*
X112140241Y-79922195D01*
X112145058Y-79921032D01*
X112153564Y-79908137D01*
X112148521Y-79877863D01*
X112143540Y-79850295D01*
X112149292Y-79842654D01*
X112150035Y-79842985D01*
X112164986Y-79837189D01*
X112177707Y-79817337D01*
X112184944Y-79791081D01*
X112175165Y-79780837D01*
X112175130Y-79780829D01*
X112164169Y-79770273D01*
X112172208Y-79755990D01*
X112192263Y-79748233D01*
X112210639Y-79758023D01*
X112214344Y-79769106D01*
X112219078Y-79783640D01*
X112233161Y-79775019D01*
X112236430Y-79771847D01*
X112246726Y-79757260D01*
X112237150Y-79746921D01*
X112212365Y-79737771D01*
X112181521Y-79721891D01*
X112166429Y-79702532D01*
X112166232Y-79701165D01*
X112172006Y-79685812D01*
X112181119Y-79687225D01*
X112191034Y-79685587D01*
X112186262Y-79661897D01*
X112185787Y-79660514D01*
X112180782Y-79633507D01*
X112194508Y-79620683D01*
X112204591Y-79617713D01*
X112227811Y-79613947D01*
X112251808Y-79616540D01*
X112285242Y-79627376D01*
X112327395Y-79644411D01*
X112360557Y-79655324D01*
X112381464Y-79656785D01*
X112383450Y-79655539D01*
X112398803Y-79655929D01*
X112418740Y-79667395D01*
X112441988Y-79680420D01*
X112453183Y-79680259D01*
X112465934Y-79684813D01*
X112492965Y-79703989D01*
X112528564Y-79732794D01*
X112567020Y-79766239D01*
X112602619Y-79799334D01*
X112629651Y-79827086D01*
X112642406Y-79844505D01*
X112642732Y-79845888D01*
X112633396Y-79865288D01*
X112627234Y-79869577D01*
X112618366Y-79879700D01*
X112630540Y-79889807D01*
X112642483Y-79909695D01*
X112651928Y-79948337D01*
X112657927Y-79996524D01*
X112659536Y-80045050D01*
X112655807Y-80084706D01*
X112651911Y-80097730D01*
X112640212Y-80130129D01*
X112626150Y-80176740D01*
X112611699Y-80229856D01*
X112598832Y-80281775D01*
X112589523Y-80324790D01*
X112585746Y-80351196D01*
X112586033Y-80354894D01*
X112584293Y-80377709D01*
X112573931Y-80410410D01*
X112564810Y-80444622D01*
X112566354Y-80469233D01*
X112564038Y-80486318D01*
X112554915Y-80489569D01*
X112541045Y-80501095D01*
X112543415Y-80523054D01*
X112542302Y-80557946D01*
X112531952Y-80574973D01*
X112515827Y-80604002D01*
X112513799Y-80621388D01*
X112510285Y-80643596D01*
X112503885Y-80648646D01*
X112494051Y-80661665D01*
X112487046Y-80691690D01*
X112486870Y-80693213D01*
X112474504Y-80732914D01*
X112450326Y-80774206D01*
X112445484Y-80780304D01*
X112422510Y-80814705D01*
X112422612Y-80835234D01*
X112423842Y-80836424D01*
X112426685Y-80854651D01*
X112417041Y-80884342D01*
X112400067Y-80915215D01*
X112380920Y-80936987D01*
X112371222Y-80941366D01*
X112364520Y-80952891D01*
X112368364Y-80969197D01*
X112371450Y-81002036D01*
X112364523Y-81029269D01*
X112353388Y-81058442D01*
X112350066Y-81073744D01*
X112340739Y-81090804D01*
X112332626Y-81098113D01*
X112322318Y-81121610D01*
X112326721Y-81140284D01*
X112330732Y-81164654D01*
X112317368Y-81168905D01*
X112296320Y-81155943D01*
X112282077Y-81148949D01*
X112280191Y-81164382D01*
X112288093Y-81184143D01*
X112294909Y-81186990D01*
X112304831Y-81195092D01*
X112301851Y-81215641D01*
X112289490Y-81238397D01*
X112272345Y-81252695D01*
X112252684Y-81267225D01*
X112248559Y-81282269D01*
X112262526Y-81288210D01*
X112262911Y-81288178D01*
X112274441Y-81299199D01*
X112279911Y-81321830D01*
X112278449Y-81348387D01*
X112272002Y-81357662D01*
X112262760Y-81370154D01*
X112261200Y-81383204D01*
X112256892Y-81444154D01*
X112244075Y-81487414D01*
X112224224Y-81508605D01*
X112218485Y-81509928D01*
X112189401Y-81520660D01*
X112178712Y-81530716D01*
X112157244Y-81541981D01*
X112146202Y-81538775D01*
X112133186Y-81528564D01*
X112144561Y-81520022D01*
X112156118Y-81508553D01*
X112145024Y-81498505D01*
X112116602Y-81492623D01*
X112090915Y-81492357D01*
X112056400Y-81499096D01*
X112038325Y-81512241D01*
X112037948Y-81513306D01*
X112021929Y-81525339D01*
X111989829Y-81523234D01*
X111948680Y-81508668D01*
X111923449Y-81493849D01*
X111905513Y-81483315D01*
X111902316Y-81480971D01*
G37*
G36*
X107027645Y-81627706D02*
G01*
X107042271Y-81618424D01*
X107059181Y-81605378D01*
X107061677Y-81592129D01*
X107063312Y-81579183D01*
X107072284Y-81591203D01*
X107075787Y-81597922D01*
X107092852Y-81620780D01*
X107105546Y-81626944D01*
X107118353Y-81617485D01*
X107109970Y-81598016D01*
X107100432Y-81588632D01*
X107090273Y-81570111D01*
X107099369Y-81550062D01*
X107108034Y-81530974D01*
X107093547Y-81522576D01*
X107086400Y-81521215D01*
X107058604Y-81504953D01*
X107047353Y-81486690D01*
X107034017Y-81452962D01*
X107016285Y-81415326D01*
X107003595Y-81383947D01*
X107005655Y-81363101D01*
X107006077Y-81358833D01*
X107054431Y-81358833D01*
X107066248Y-81362713D01*
X107075834Y-81362485D01*
X107093762Y-81353561D01*
X107095575Y-81347144D01*
X107084679Y-81340363D01*
X107074172Y-81343492D01*
X107056685Y-81354998D01*
X107054431Y-81358833D01*
X107006077Y-81358833D01*
X107006166Y-81357931D01*
X107021310Y-81328382D01*
X107022140Y-81326520D01*
X107023280Y-81323961D01*
X107051380Y-81323961D01*
X107056015Y-81334768D01*
X107072491Y-81331047D01*
X107085383Y-81325038D01*
X107099472Y-81310864D01*
X107098248Y-81303443D01*
X107081063Y-81298848D01*
X107060311Y-81308080D01*
X107051380Y-81323961D01*
X107023280Y-81323961D01*
X107038453Y-81289898D01*
X107045253Y-81255539D01*
X107045115Y-81252350D01*
X107046169Y-81231055D01*
X107058788Y-81232974D01*
X107064841Y-81236938D01*
X107079164Y-81244028D01*
X107080791Y-81232804D01*
X107074948Y-81210339D01*
X107069400Y-81180324D01*
X107069286Y-81179704D01*
X107075450Y-81170166D01*
X107185510Y-81170166D01*
X107206886Y-81181371D01*
X107214628Y-81181674D01*
X107237251Y-81170784D01*
X107241306Y-81165285D01*
X107235402Y-81155439D01*
X107212187Y-81153777D01*
X107188326Y-81160236D01*
X107185510Y-81170166D01*
X107075450Y-81170166D01*
X107079531Y-81163850D01*
X107096740Y-81156403D01*
X107121153Y-81141465D01*
X107121611Y-81118699D01*
X107121566Y-81118576D01*
X107109258Y-81101164D01*
X107100578Y-81101277D01*
X107089167Y-81098825D01*
X107087296Y-81091740D01*
X107097990Y-81076220D01*
X107120087Y-81068464D01*
X107144122Y-81067838D01*
X107146725Y-81080333D01*
X107142646Y-81091088D01*
X107138053Y-81112789D01*
X107143753Y-81117596D01*
X107155368Y-81104663D01*
X107162381Y-81080827D01*
X107172517Y-81053185D01*
X107185168Y-81042707D01*
X107187946Y-81037444D01*
X107173306Y-81030677D01*
X107158907Y-81024695D01*
X107156264Y-81023597D01*
X107163750Y-81019362D01*
X107177621Y-81017503D01*
X107241110Y-81017503D01*
X107243051Y-81024575D01*
X107262057Y-81036432D01*
X107266017Y-81036621D01*
X107277836Y-81024866D01*
X107277922Y-81021524D01*
X107265498Y-81010275D01*
X107254956Y-81009477D01*
X107241110Y-81017503D01*
X107177621Y-81017503D01*
X107183456Y-81016721D01*
X107208778Y-81009671D01*
X107212711Y-80999117D01*
X107210713Y-80986256D01*
X107214238Y-80984928D01*
X107225965Y-80972387D01*
X107232273Y-80958753D01*
X107233425Y-80956263D01*
X107260738Y-80956263D01*
X107264882Y-80984444D01*
X107275496Y-80993625D01*
X107284069Y-80982020D01*
X107279978Y-80965029D01*
X107278193Y-80939858D01*
X107299801Y-80921268D01*
X107330954Y-80904719D01*
X107296375Y-80911118D01*
X107269693Y-80923527D01*
X107260888Y-80952489D01*
X107260738Y-80956263D01*
X107233425Y-80956263D01*
X107239529Y-80943069D01*
X107241008Y-80938883D01*
X107249681Y-80906536D01*
X107245534Y-80890048D01*
X107236791Y-80883957D01*
X107222314Y-80880691D01*
X107214324Y-80878888D01*
X107208027Y-80880901D01*
X107201290Y-80878001D01*
X107253063Y-80878001D01*
X107261476Y-80887091D01*
X107282186Y-80894054D01*
X107302197Y-80889538D01*
X107307708Y-80880001D01*
X107294960Y-80867992D01*
X107278093Y-80862823D01*
X107254288Y-80864570D01*
X107253063Y-80878001D01*
X107201290Y-80878001D01*
X107196344Y-80875872D01*
X107183091Y-80857646D01*
X107177908Y-80842295D01*
X107189889Y-80839332D01*
X107219105Y-80836291D01*
X107219547Y-80836257D01*
X107249250Y-80837120D01*
X107262348Y-80843530D01*
X107262360Y-80843645D01*
X107274123Y-80852713D01*
X107278739Y-80852784D01*
X107287203Y-80840639D01*
X107283921Y-80820705D01*
X107263979Y-80756212D01*
X107254359Y-80713299D01*
X107255307Y-80693473D01*
X107263410Y-80694900D01*
X107291621Y-80703297D01*
X107304293Y-80700895D01*
X107311536Y-80700917D01*
X107298055Y-80713081D01*
X107279939Y-80731991D01*
X107286188Y-80746775D01*
X107287293Y-80747654D01*
X107305593Y-80750681D01*
X107327237Y-80729881D01*
X107329688Y-80726521D01*
X107352692Y-80701220D01*
X107371920Y-80690165D01*
X107386459Y-80682173D01*
X107386776Y-80678177D01*
X107382960Y-80640441D01*
X107389767Y-80612246D01*
X107401639Y-80603085D01*
X107414336Y-80591928D01*
X107410758Y-80571978D01*
X107407434Y-80551242D01*
X107415608Y-80550312D01*
X107427669Y-80544566D01*
X107436910Y-80523668D01*
X107438483Y-80508499D01*
X107438785Y-80505590D01*
X107471731Y-80505590D01*
X107480888Y-80523494D01*
X107487511Y-80525294D01*
X107498897Y-80512914D01*
X107499629Y-80503150D01*
X107490473Y-80485247D01*
X107483849Y-80483447D01*
X107472463Y-80495827D01*
X107471731Y-80505590D01*
X107438785Y-80505590D01*
X107439319Y-80500446D01*
X107434630Y-80489538D01*
X107429123Y-80494511D01*
X107429143Y-80500776D01*
X107421879Y-80511993D01*
X107415935Y-80510472D01*
X107404344Y-80514754D01*
X107403173Y-80525256D01*
X107393977Y-80550261D01*
X107384893Y-80557301D01*
X107368737Y-80577925D01*
X107366910Y-80592742D01*
X107361709Y-80619998D01*
X107354543Y-80629217D01*
X107346366Y-80625463D01*
X107344698Y-80601509D01*
X107349041Y-80564271D01*
X107358900Y-80520663D01*
X107363426Y-80505594D01*
X107380379Y-80475779D01*
X107409575Y-80466805D01*
X107411557Y-80466779D01*
X107451652Y-80456266D01*
X107474009Y-80428594D01*
X107476495Y-80404275D01*
X107473206Y-80386960D01*
X107466081Y-80395579D01*
X107462040Y-80403951D01*
X107443887Y-80422084D01*
X107430579Y-80423365D01*
X107416684Y-80407628D01*
X107418388Y-80380007D01*
X107434205Y-80350800D01*
X107442250Y-80342585D01*
X107456550Y-80320274D01*
X107462919Y-80292039D01*
X107460320Y-80268908D01*
X107449866Y-80261529D01*
X107432279Y-80250860D01*
X107412592Y-80222470D01*
X107396018Y-80185673D01*
X107387843Y-80150733D01*
X107388441Y-80124845D01*
X107398423Y-80122148D01*
X107403837Y-80125419D01*
X107423748Y-80131064D01*
X107430958Y-80123079D01*
X107446886Y-80112879D01*
X107452525Y-80114312D01*
X107464493Y-80111192D01*
X107464920Y-80106429D01*
X107471767Y-80094093D01*
X107475173Y-80094161D01*
X107492156Y-80087573D01*
X107521185Y-80068048D01*
X107533926Y-80058040D01*
X107568322Y-80022030D01*
X107574781Y-80004412D01*
X107583188Y-79981482D01*
X107583754Y-79976398D01*
X107894976Y-79976398D01*
X107896917Y-79983470D01*
X107915924Y-79995327D01*
X107919884Y-79995517D01*
X107931703Y-79983761D01*
X107931789Y-79980419D01*
X107923530Y-79972943D01*
X107919365Y-79969171D01*
X107908822Y-79968373D01*
X107894976Y-79976398D01*
X107583754Y-79976398D01*
X107585015Y-79965061D01*
X107591995Y-79932730D01*
X107603661Y-79918361D01*
X107614747Y-79924974D01*
X107619494Y-79945321D01*
X107628010Y-79962773D01*
X107649632Y-79956711D01*
X107660823Y-79948913D01*
X107689580Y-79943982D01*
X107714562Y-79953483D01*
X107745236Y-79963768D01*
X107784193Y-79969284D01*
X107822276Y-79969838D01*
X107850326Y-79965238D01*
X107859419Y-79956511D01*
X107865202Y-79952660D01*
X108155362Y-79952660D01*
X108159509Y-79970528D01*
X108164289Y-79970327D01*
X108165986Y-79951367D01*
X108163052Y-79943496D01*
X108156396Y-79938754D01*
X108155362Y-79952660D01*
X107865202Y-79952660D01*
X107870304Y-79949262D01*
X107894160Y-79949875D01*
X107930312Y-79947139D01*
X107949219Y-79936576D01*
X107965875Y-79926114D01*
X107969788Y-79932766D01*
X107980065Y-79940078D01*
X108000984Y-79933619D01*
X108021777Y-79917670D01*
X108027516Y-79909819D01*
X108041083Y-79903581D01*
X108051655Y-79913303D01*
X108068440Y-79924612D01*
X108075707Y-79921862D01*
X108093032Y-79919300D01*
X108104854Y-79924955D01*
X108120653Y-79930858D01*
X108122952Y-79916221D01*
X108131535Y-79898691D01*
X108152342Y-79890818D01*
X108172298Y-79894970D01*
X108178737Y-79906105D01*
X108184989Y-79913272D01*
X108195837Y-79900736D01*
X108216653Y-79883643D01*
X108244580Y-79875088D01*
X108269887Y-79875879D01*
X108282837Y-79886828D01*
X108282576Y-79893507D01*
X108285132Y-79898411D01*
X108298498Y-79882649D01*
X108301815Y-79877768D01*
X108318871Y-79854442D01*
X108326600Y-79853443D01*
X108329131Y-79866557D01*
X108334788Y-79883682D01*
X108349282Y-79875281D01*
X108349490Y-79875075D01*
X108376782Y-79863658D01*
X108393073Y-79864902D01*
X108410400Y-79866628D01*
X108405942Y-79854942D01*
X108406307Y-79844372D01*
X108425217Y-79842611D01*
X108455045Y-79848515D01*
X108488158Y-79860940D01*
X108504267Y-79869675D01*
X108522430Y-79882499D01*
X108516469Y-79884205D01*
X108510074Y-79882802D01*
X108489353Y-79883420D01*
X108488620Y-79894306D01*
X108507509Y-79906488D01*
X108511081Y-79907612D01*
X108540059Y-79906409D01*
X108552677Y-79887615D01*
X108544303Y-79859064D01*
X108541837Y-79855579D01*
X108529343Y-79836786D01*
X108537109Y-79835715D01*
X108550875Y-79841256D01*
X108582217Y-79861724D01*
X108596365Y-79876768D01*
X108608932Y-79889030D01*
X108611419Y-79881302D01*
X108617641Y-79857676D01*
X108633461Y-79836427D01*
X108650456Y-79827495D01*
X108655424Y-79829359D01*
X108674877Y-79834354D01*
X108709894Y-79835831D01*
X108717380Y-79835606D01*
X108760785Y-79834178D01*
X108782260Y-79835521D01*
X108787845Y-79840985D01*
X108784272Y-79850554D01*
X108787069Y-79861834D01*
X108794938Y-79861460D01*
X108828263Y-79863539D01*
X108868767Y-79880369D01*
X108909254Y-79906713D01*
X108942532Y-79937338D01*
X108961404Y-79967009D01*
X108962513Y-79983388D01*
X108961822Y-80000651D01*
X108977966Y-79997190D01*
X108997619Y-79993598D01*
X108999539Y-80006323D01*
X108982853Y-80029322D01*
X108982640Y-80029533D01*
X108971253Y-80050908D01*
X108978396Y-80062453D01*
X108981263Y-80076851D01*
X108957773Y-80094770D01*
X108955046Y-80096231D01*
X108917240Y-80106931D01*
X108869490Y-80108841D01*
X108822847Y-80102799D01*
X108788362Y-80089645D01*
X108780810Y-80083035D01*
X108771275Y-80077533D01*
X108770550Y-80086247D01*
X108760452Y-80102702D01*
X108750938Y-80105533D01*
X108732940Y-80113764D01*
X108731083Y-80119569D01*
X108744471Y-80129204D01*
X108776773Y-80136413D01*
X108818916Y-80139766D01*
X108853161Y-80138757D01*
X108885943Y-80143292D01*
X108898844Y-80160201D01*
X108888098Y-80183554D01*
X108884061Y-80187381D01*
X108856453Y-80201874D01*
X108818853Y-80211073D01*
X108781706Y-80213749D01*
X108755461Y-80208670D01*
X108749829Y-80203176D01*
X108734486Y-80199065D01*
X108704433Y-80213701D01*
X108672105Y-80229200D01*
X108654565Y-80224241D01*
X108654490Y-80224141D01*
X108635893Y-80218003D01*
X108627228Y-80222003D01*
X108601968Y-80233020D01*
X108553765Y-80244840D01*
X108480721Y-80257871D01*
X108420695Y-80266949D01*
X108323825Y-80283082D01*
X108220732Y-80303954D01*
X108120725Y-80327435D01*
X108033110Y-80351389D01*
X107986642Y-80366406D01*
X107934943Y-80386138D01*
X107902726Y-80403698D01*
X107882508Y-80424468D01*
X107867631Y-80452008D01*
X107845927Y-80496946D01*
X107823986Y-80538366D01*
X107821626Y-80542488D01*
X107808802Y-80572989D01*
X107808601Y-80593687D01*
X107808940Y-80594185D01*
X107828319Y-80600954D01*
X107863648Y-80601276D01*
X107903921Y-80596289D01*
X107938127Y-80587133D01*
X107951992Y-80579396D01*
X107975773Y-80571271D01*
X108012046Y-80570973D01*
X108014533Y-80571277D01*
X108060914Y-80573428D01*
X108118676Y-80570700D01*
X108178725Y-80564172D01*
X108231966Y-80554918D01*
X108269307Y-80544018D01*
X108276602Y-80540236D01*
X108304987Y-80530101D01*
X108321201Y-80532154D01*
X108347016Y-80540759D01*
X108353344Y-80541389D01*
X108383462Y-80546733D01*
X108419697Y-80559831D01*
X108452444Y-80576261D01*
X108472093Y-80591605D01*
X108474108Y-80596936D01*
X108484304Y-80611214D01*
X108502936Y-80616176D01*
X108536456Y-80625999D01*
X108552143Y-80636802D01*
X108579375Y-80652011D01*
X108593292Y-80653656D01*
X108608409Y-80654625D01*
X108598517Y-80665205D01*
X108596565Y-80666705D01*
X108587081Y-80678873D01*
X108600772Y-80688312D01*
X108612858Y-80692284D01*
X108634329Y-80700492D01*
X108629583Y-80705179D01*
X108623317Y-80706146D01*
X108608095Y-80710002D01*
X108609225Y-80720441D01*
X108627881Y-80744247D01*
X108630426Y-80747238D01*
X108654783Y-80777185D01*
X108660740Y-80792005D01*
X108648515Y-80797493D01*
X108632374Y-80798723D01*
X108607359Y-80807922D01*
X108602723Y-80821284D01*
X108613102Y-80839061D01*
X108620827Y-80840785D01*
X108646096Y-80847338D01*
X108649563Y-80868588D01*
X108643337Y-80880642D01*
X108620067Y-80901364D01*
X108598325Y-80902326D01*
X108586861Y-80883252D01*
X108586772Y-80882417D01*
X108582848Y-80866894D01*
X108573969Y-80878255D01*
X108573633Y-80878902D01*
X108550629Y-80896484D01*
X108501251Y-80913087D01*
X108427122Y-80928337D01*
X108329864Y-80941859D01*
X108276431Y-80947531D01*
X108209848Y-80955396D01*
X108147528Y-80965181D01*
X108098908Y-80975304D01*
X108082497Y-80980061D01*
X108030343Y-80996275D01*
X107976817Y-81010206D01*
X107972768Y-81011111D01*
X107925964Y-81022047D01*
X107869402Y-81036188D01*
X107842059Y-81043341D01*
X107788038Y-81057041D01*
X107721813Y-81072844D01*
X107663834Y-81085971D01*
X107606964Y-81100034D01*
X107570179Y-81114252D01*
X107545783Y-81132280D01*
X107532547Y-81148291D01*
X107515431Y-81177384D01*
X107510777Y-81196751D01*
X107511468Y-81198231D01*
X107507674Y-81211760D01*
X107497453Y-81218827D01*
X107483332Y-81236427D01*
X107484757Y-81247474D01*
X107482837Y-81269697D01*
X107466513Y-81300317D01*
X107463239Y-81304710D01*
X107445665Y-81336115D01*
X107451505Y-81352713D01*
X107479455Y-81352858D01*
X107497296Y-81347679D01*
X107534467Y-81343108D01*
X107558754Y-81347956D01*
X107591017Y-81353201D01*
X107608143Y-81349361D01*
X107621746Y-81337329D01*
X107611114Y-81320091D01*
X107610319Y-81319282D01*
X107600886Y-81306702D01*
X107610736Y-81303177D01*
X107638656Y-81305891D01*
X107677287Y-81306063D01*
X107696406Y-81292644D01*
X107696695Y-81292099D01*
X107705593Y-81280643D01*
X107709199Y-81294434D01*
X107714336Y-81307713D01*
X107730763Y-81307527D01*
X107759009Y-81297127D01*
X107791655Y-81278332D01*
X107798192Y-81260219D01*
X107797844Y-81259446D01*
X107798067Y-81248285D01*
X107817026Y-81244626D01*
X107847484Y-81246074D01*
X107884750Y-81246941D01*
X107897038Y-81241104D01*
X107895015Y-81236130D01*
X107890040Y-81222462D01*
X107906729Y-81224897D01*
X107933671Y-81237760D01*
X107964209Y-81246058D01*
X107996810Y-81244304D01*
X108020688Y-81234272D01*
X108026401Y-81222490D01*
X108013834Y-81210928D01*
X108000443Y-81206947D01*
X107983505Y-81203092D01*
X107993709Y-81199864D01*
X107998921Y-81199021D01*
X108024286Y-81202319D01*
X108031778Y-81207959D01*
X108050594Y-81213985D01*
X108060901Y-81210966D01*
X108073568Y-81196616D01*
X108071803Y-81189542D01*
X108069669Y-81178104D01*
X108089887Y-81181049D01*
X108108667Y-81188285D01*
X108131513Y-81193657D01*
X108135648Y-81185924D01*
X108147093Y-81175370D01*
X108176919Y-81167914D01*
X108184029Y-81167141D01*
X108217728Y-81167497D01*
X108226189Y-81177032D01*
X108225107Y-81179817D01*
X108225777Y-81189611D01*
X108247281Y-81183673D01*
X108249143Y-81182885D01*
X108315659Y-81166473D01*
X108375156Y-81177128D01*
X108396456Y-81188638D01*
X108431666Y-81206354D01*
X108461667Y-81213088D01*
X108463074Y-81213006D01*
X108491362Y-81221533D01*
X108508835Y-81237113D01*
X108531155Y-81257236D01*
X108546267Y-81261951D01*
X108563177Y-81267239D01*
X108564766Y-81271055D01*
X108577128Y-81283133D01*
X108598287Y-81292720D01*
X108626580Y-81313171D01*
X108638080Y-81334739D01*
X108649181Y-81358486D01*
X108659754Y-81364467D01*
X108668905Y-81374025D01*
X108667654Y-81386128D01*
X108667697Y-81414199D01*
X108672079Y-81423799D01*
X108686022Y-81456125D01*
X108690309Y-81493698D01*
X108685998Y-81514251D01*
X108673680Y-81521770D01*
X108643235Y-81527865D01*
X108591834Y-81532861D01*
X108516648Y-81537081D01*
X108470204Y-81538966D01*
X108397083Y-81542373D01*
X108334509Y-81546609D01*
X108287530Y-81551230D01*
X108261193Y-81555792D01*
X108257403Y-81557735D01*
X108242886Y-81570130D01*
X108231970Y-81560751D01*
X108231986Y-81545963D01*
X108234609Y-81529097D01*
X108227275Y-81535880D01*
X108220446Y-81545567D01*
X108192447Y-81565283D01*
X108150858Y-81574846D01*
X108104712Y-81582832D01*
X108064038Y-81595972D01*
X108061952Y-81596944D01*
X108020763Y-81614704D01*
X107974451Y-81631884D01*
X107936562Y-81643554D01*
X107929842Y-81645060D01*
X107895753Y-81654228D01*
X107848735Y-81670083D01*
X107796794Y-81689506D01*
X107747940Y-81709388D01*
X107710179Y-81726611D01*
X107691962Y-81737585D01*
X107665546Y-81754777D01*
X107627604Y-81770367D01*
X107624631Y-81771282D01*
X107586459Y-81786501D01*
X107558599Y-81804054D01*
X107557328Y-81805281D01*
X107530381Y-81823298D01*
X107494114Y-81838331D01*
X107452218Y-81857332D01*
X107419741Y-81880385D01*
X107384892Y-81903923D01*
X107341525Y-81922340D01*
X107338342Y-81923268D01*
X107303546Y-81935730D01*
X107282531Y-81948349D01*
X107280909Y-81950532D01*
X107261255Y-81961642D01*
X107222585Y-81964753D01*
X107184575Y-81961084D01*
X107152566Y-81946831D01*
X107135540Y-81931866D01*
X107112407Y-81912899D01*
X107097819Y-81908733D01*
X107076709Y-81900103D01*
X107057670Y-81882522D01*
X107034606Y-81855605D01*
X107002502Y-81818992D01*
X106986434Y-81800906D01*
X106951839Y-81756395D01*
X106928347Y-81714749D01*
X106918759Y-81682053D01*
X106924089Y-81665483D01*
X106943568Y-81664440D01*
X106972828Y-81672977D01*
X106999973Y-81681838D01*
X107011631Y-81674220D01*
X107015443Y-81657494D01*
X107015715Y-81656302D01*
X107029065Y-81656302D01*
X107031717Y-81661515D01*
X107045416Y-81673725D01*
X107047709Y-81674171D01*
X107052757Y-81662855D01*
X107052640Y-81659684D01*
X107040744Y-81647210D01*
X107036649Y-81647028D01*
X107029065Y-81656302D01*
X107015715Y-81656302D01*
X107016145Y-81654412D01*
X107027645Y-81627706D01*
G37*
G36*
X120176221Y-80645049D02*
G01*
X120169857Y-80652633D01*
X120162273Y-80646269D01*
X120168637Y-80638685D01*
X120176221Y-80645049D01*
G37*
G36*
X113684847Y-81197450D02*
G01*
X113681241Y-81204154D01*
X113667180Y-81206378D01*
X113651998Y-81204274D01*
X113658015Y-81198688D01*
X113679671Y-81195118D01*
X113684847Y-81197450D01*
G37*
G36*
X120124611Y-80537118D02*
G01*
X120118247Y-80544703D01*
X120110662Y-80538339D01*
X120117027Y-80530754D01*
X120124611Y-80537118D01*
G37*
G36*
X105930568Y-81579813D02*
G01*
X105929378Y-81588274D01*
X105922083Y-81589926D01*
X105910154Y-81585827D01*
X105911969Y-81581440D01*
X105928377Y-81578324D01*
X105930568Y-81579813D01*
G37*
G36*
X103295676Y-81625556D02*
G01*
X103309870Y-81658506D01*
X103322751Y-81695608D01*
X103330758Y-81726699D01*
X103330794Y-81741207D01*
X103323868Y-81732410D01*
X103310699Y-81703873D01*
X103297545Y-81670691D01*
X103284774Y-81632598D01*
X103280177Y-81609847D01*
X103283733Y-81606927D01*
X103295676Y-81625556D01*
G37*
G36*
X113413817Y-80840780D02*
G01*
X113416934Y-80857189D01*
X113415445Y-80859379D01*
X113406984Y-80858190D01*
X113405332Y-80850893D01*
X113409431Y-80838965D01*
X113413817Y-80840780D01*
G37*
G36*
X117398527Y-80384477D02*
G01*
X117410106Y-80408373D01*
X117421929Y-80440940D01*
X117430637Y-80472954D01*
X117432913Y-80494897D01*
X117427534Y-80497350D01*
X117417123Y-80477375D01*
X117407989Y-80451689D01*
X117396447Y-80412057D01*
X117390521Y-80385064D01*
X117390548Y-80378482D01*
X117398527Y-80384477D01*
G37*
G36*
X121532090Y-80130523D02*
G01*
X121535208Y-80146932D01*
X121533717Y-80149122D01*
X121525257Y-80147933D01*
X121523604Y-80140636D01*
X121527703Y-80128709D01*
X121532090Y-80130523D01*
G37*
G36*
X105872303Y-81502920D02*
G01*
X105865939Y-81510504D01*
X105858354Y-81504140D01*
X105864718Y-81496556D01*
X105872303Y-81502920D01*
G37*
G36*
X108903846Y-81130285D02*
G01*
X108916058Y-81158229D01*
X108927990Y-81192374D01*
X108935979Y-81222268D01*
X108936497Y-81237316D01*
X108927638Y-81232595D01*
X108921279Y-81219658D01*
X108903789Y-81168693D01*
X108894471Y-81133573D01*
X108894578Y-81119112D01*
X108895017Y-81118993D01*
X108903846Y-81130285D01*
G37*
G36*
X107600750Y-81337645D02*
G01*
X107594384Y-81345229D01*
X107586800Y-81338865D01*
X107593164Y-81331281D01*
X107600750Y-81337645D01*
G37*
G36*
X119373551Y-80227791D02*
G01*
X119370141Y-80247705D01*
X119356811Y-80264862D01*
X119344447Y-80262768D01*
X119333317Y-80251083D01*
X119345585Y-80233177D01*
X119345705Y-80233058D01*
X119366510Y-80218253D01*
X119373551Y-80227791D01*
G37*
G36*
X121509599Y-80034101D02*
G01*
X121512717Y-80050509D01*
X121511226Y-80052699D01*
X121502766Y-80051510D01*
X121501113Y-80044214D01*
X121505212Y-80032286D01*
X121509599Y-80034101D01*
G37*
G36*
X119375385Y-80166941D02*
G01*
X119389789Y-80178311D01*
X119390626Y-80180492D01*
X119380358Y-80187427D01*
X119377216Y-80187864D01*
X119362865Y-80178314D01*
X119361974Y-80174312D01*
X119369791Y-80165234D01*
X119375385Y-80166941D01*
G37*
G36*
X105017062Y-81366908D02*
G01*
X105010698Y-81374493D01*
X105003114Y-81368129D01*
X105009478Y-81360544D01*
X105017062Y-81366908D01*
G37*
G36*
X105027350Y-81323841D02*
G01*
X105020986Y-81331425D01*
X105013401Y-81325061D01*
X105019765Y-81317477D01*
X105027350Y-81323841D01*
G37*
G36*
X119492383Y-80058315D02*
G01*
X119486019Y-80065899D01*
X119478434Y-80059535D01*
X119484798Y-80051950D01*
X119492383Y-80058315D01*
G37*
G36*
X119617608Y-79883069D02*
G01*
X119611647Y-79908540D01*
X119599354Y-79915427D01*
X119581839Y-79928211D01*
X119580262Y-79938181D01*
X119570124Y-79956238D01*
X119554195Y-79961545D01*
X119530974Y-79957069D01*
X119524946Y-79948545D01*
X119534277Y-79938330D01*
X119545221Y-79939301D01*
X119563170Y-79937746D01*
X119565614Y-79931406D01*
X119572612Y-79911087D01*
X119589658Y-79884926D01*
X119614937Y-79852540D01*
X119617608Y-79883069D01*
G37*
G36*
X107132970Y-81024835D02*
G01*
X107131781Y-81033295D01*
X107124485Y-81034948D01*
X107112557Y-81030849D01*
X107114371Y-81026462D01*
X107130780Y-81023344D01*
X107132970Y-81024835D01*
G37*
G36*
X107186035Y-80898283D02*
G01*
X107202262Y-80916330D01*
X107205397Y-80933164D01*
X107204581Y-80934358D01*
X107184652Y-80944682D01*
X107159827Y-80945424D01*
X107144434Y-80936659D01*
X107143767Y-80934042D01*
X107151931Y-80925612D01*
X107159677Y-80927928D01*
X107170211Y-80927687D01*
X107165941Y-80914153D01*
X107162131Y-80894978D01*
X107166807Y-80890689D01*
X107186035Y-80898283D01*
G37*
G36*
X115690258Y-80137956D02*
G01*
X115683894Y-80145540D01*
X115676309Y-80139176D01*
X115682673Y-80131590D01*
X115690258Y-80137956D01*
G37*
G36*
X115710862Y-80105698D02*
G01*
X115709673Y-80114159D01*
X115702376Y-80115811D01*
X115690448Y-80111712D01*
X115692264Y-80107325D01*
X115708672Y-80104208D01*
X115710862Y-80105698D01*
G37*
G36*
X103362871Y-81099910D02*
G01*
X103363688Y-81107458D01*
X103360746Y-81132394D01*
X103352699Y-81140045D01*
X103338602Y-81133208D01*
X103338048Y-81130786D01*
X103343306Y-81110617D01*
X103349037Y-81098199D01*
X103358254Y-81086353D01*
X103362871Y-81099910D01*
G37*
G36*
X108969295Y-80616713D02*
G01*
X108972212Y-80626489D01*
X108969378Y-80647045D01*
X108956771Y-80642060D01*
X108952650Y-80637029D01*
X108952832Y-80618960D01*
X108956899Y-80614744D01*
X108969295Y-80616713D01*
G37*
G36*
X117465437Y-79867882D02*
G01*
X117466048Y-79873662D01*
X117465154Y-79901025D01*
X117455555Y-79902976D01*
X117448854Y-79895578D01*
X117447610Y-79875671D01*
X117452047Y-79863674D01*
X117460850Y-79852948D01*
X117465437Y-79867882D01*
G37*
G36*
X107236544Y-80762771D02*
G01*
X107239661Y-80779180D01*
X107238171Y-80781370D01*
X107229710Y-80780181D01*
X107228058Y-80772884D01*
X107232157Y-80760956D01*
X107236544Y-80762771D01*
G37*
G36*
X115759307Y-79963246D02*
G01*
X115752942Y-79970830D01*
X115745358Y-79964466D01*
X115751722Y-79956882D01*
X115759307Y-79963246D01*
G37*
G36*
X107322341Y-80613458D02*
G01*
X107320104Y-80629644D01*
X107309575Y-80657705D01*
X107295371Y-80668605D01*
X107284960Y-80664203D01*
X107289156Y-80644235D01*
X107296526Y-80627244D01*
X107313268Y-80595983D01*
X107321971Y-80591397D01*
X107322341Y-80613458D01*
G37*
G36*
X103423578Y-80986259D02*
G01*
X103417214Y-80993844D01*
X103409629Y-80987480D01*
X103415993Y-80979895D01*
X103423578Y-80986259D01*
G37*
G36*
X109031045Y-80495669D02*
G01*
X109024680Y-80503254D01*
X109017096Y-80496890D01*
X109023460Y-80489305D01*
X109031045Y-80495669D01*
G37*
G36*
X117525938Y-79752463D02*
G01*
X117519574Y-79760047D01*
X117511989Y-79753683D01*
X117518354Y-79746098D01*
X117525938Y-79752463D01*
G37*
G36*
X103443157Y-80943963D02*
G01*
X103441450Y-80949557D01*
X103430080Y-80963961D01*
X103427899Y-80964798D01*
X103420964Y-80954530D01*
X103420527Y-80951387D01*
X103430077Y-80937037D01*
X103434079Y-80936146D01*
X103443157Y-80943963D01*
G37*
G36*
X109054990Y-80454583D02*
G01*
X109055892Y-80458357D01*
X109052322Y-80472359D01*
X109050961Y-80472844D01*
X109038197Y-80464111D01*
X109034969Y-80460187D01*
X109034950Y-80447237D01*
X109039899Y-80445701D01*
X109054990Y-80454583D01*
G37*
G36*
X115761080Y-79876414D02*
G01*
X115759891Y-79884874D01*
X115752595Y-79886527D01*
X115740667Y-79882428D01*
X115742482Y-79878041D01*
X115758890Y-79874923D01*
X115761080Y-79876414D01*
G37*
G36*
X117549883Y-79711376D02*
G01*
X117550786Y-79715150D01*
X117547215Y-79729153D01*
X117545855Y-79729637D01*
X117533090Y-79720904D01*
X117529863Y-79716981D01*
X117529844Y-79704030D01*
X117534793Y-79702494D01*
X117549883Y-79711376D01*
G37*
G36*
X119871386Y-79464561D02*
G01*
X119869620Y-79470111D01*
X119852316Y-79485156D01*
X119848271Y-79486034D01*
X119839956Y-79478102D01*
X119841723Y-79472552D01*
X119859025Y-79457507D01*
X119863072Y-79456628D01*
X119871386Y-79464561D01*
G37*
G36*
X112826143Y-80014397D02*
G01*
X112817688Y-80035008D01*
X112814168Y-80038188D01*
X112801238Y-80038676D01*
X112799753Y-80034080D01*
X112808207Y-80013470D01*
X112811727Y-80010290D01*
X112824658Y-80009801D01*
X112826143Y-80014397D01*
G37*
G36*
X105289061Y-80670490D02*
G01*
X105286894Y-80675656D01*
X105274917Y-80690127D01*
X105272519Y-80690969D01*
X105270779Y-80682042D01*
X105272945Y-80676876D01*
X105284923Y-80662405D01*
X105287320Y-80661563D01*
X105289061Y-80670490D01*
G37*
G36*
X120944123Y-79302644D02*
G01*
X120944560Y-79305787D01*
X120935010Y-79320138D01*
X120931008Y-79321029D01*
X120921930Y-79313212D01*
X120923637Y-79307618D01*
X120935007Y-79293214D01*
X120937188Y-79292377D01*
X120944123Y-79302644D01*
G37*
G36*
X108981558Y-80145830D02*
G01*
X108991308Y-80149974D01*
X108995088Y-80166402D01*
X108979661Y-80184491D01*
X108952507Y-80197415D01*
X108936676Y-80199814D01*
X108912391Y-80200127D01*
X108914831Y-80197132D01*
X108931518Y-80192153D01*
X108952609Y-80182546D01*
X108948930Y-80169041D01*
X108944973Y-80164778D01*
X108935599Y-80149941D01*
X108951347Y-80144244D01*
X108954046Y-80143986D01*
X108981558Y-80145830D01*
G37*
G36*
X109238888Y-80140149D02*
G01*
X109232523Y-80147733D01*
X109224939Y-80141369D01*
X109231303Y-80133785D01*
X109238888Y-80140149D01*
G37*
G36*
X106215084Y-80170144D02*
G01*
X106218654Y-80191798D01*
X106216322Y-80196975D01*
X106209618Y-80193370D01*
X106207394Y-80179308D01*
X106209499Y-80164126D01*
X106215084Y-80170144D01*
G37*
G36*
X103935654Y-80324660D02*
G01*
X103922694Y-80345226D01*
X103898264Y-80370501D01*
X103880879Y-80375326D01*
X103875136Y-80363936D01*
X103884737Y-80347192D01*
X103907686Y-80328211D01*
X103931938Y-80316570D01*
X103935448Y-80315998D01*
X103935654Y-80324660D01*
G37*
G36*
X113765490Y-79505176D02*
G01*
X113759126Y-79512761D01*
X113751541Y-79506397D01*
X113757906Y-79498812D01*
X113765490Y-79505176D01*
G37*
G36*
X121877690Y-78779052D02*
G01*
X121880808Y-78795460D01*
X121879317Y-78797651D01*
X121870857Y-78796461D01*
X121869204Y-78789165D01*
X121873303Y-78777237D01*
X121877690Y-78779052D01*
G37*
G36*
X106517485Y-80094785D02*
G01*
X106516296Y-80103245D01*
X106508999Y-80104897D01*
X106497071Y-80100798D01*
X106498886Y-80096412D01*
X106515295Y-80093294D01*
X106517485Y-80094785D01*
G37*
G36*
X114054756Y-79437701D02*
G01*
X114048392Y-79445286D01*
X114040807Y-79438922D01*
X114047171Y-79431337D01*
X114054756Y-79437701D01*
G37*
G36*
X122173030Y-78727444D02*
G01*
X122166664Y-78735029D01*
X122159080Y-78728665D01*
X122165444Y-78721080D01*
X122173030Y-78727444D01*
G37*
G36*
X123493295Y-78555713D02*
G01*
X123486931Y-78563299D01*
X123479346Y-78556934D01*
X123485711Y-78549349D01*
X123493295Y-78555713D01*
G37*
G36*
X123609297Y-78490925D02*
G01*
X123607590Y-78496519D01*
X123596219Y-78510923D01*
X123594038Y-78511761D01*
X123587103Y-78501493D01*
X123586666Y-78498350D01*
X123596217Y-78483999D01*
X123600218Y-78483108D01*
X123609297Y-78490925D01*
G37*
G36*
X123666781Y-78484767D02*
G01*
X123654235Y-78501615D01*
X123642309Y-78507537D01*
X123637963Y-78499843D01*
X123644913Y-78487644D01*
X123660701Y-78472052D01*
X123666481Y-78470766D01*
X123666781Y-78484767D01*
G37*
G36*
X123736967Y-78453729D02*
G01*
X123737664Y-78457027D01*
X123728234Y-78471500D01*
X123724935Y-78472197D01*
X123710463Y-78462767D01*
X123709766Y-78459468D01*
X123719196Y-78444996D01*
X123722494Y-78444299D01*
X123736967Y-78453729D01*
G37*
G36*
X113391325Y-80744358D02*
G01*
X113394443Y-80760766D01*
X113392952Y-80762956D01*
X113384492Y-80761767D01*
X113382840Y-80754471D01*
X113386939Y-80742543D01*
X113391325Y-80744358D01*
G37*
G36*
X104604208Y-80829947D02*
G01*
X104610336Y-80839659D01*
X104615625Y-80859001D01*
X104605921Y-80856006D01*
X104598557Y-80847388D01*
X104592672Y-80829507D01*
X104594126Y-80826086D01*
X104604208Y-80829947D01*
G37*
G36*
X104584157Y-80761422D02*
G01*
X104590285Y-80771134D01*
X104595574Y-80790477D01*
X104585870Y-80787481D01*
X104578505Y-80778864D01*
X104572620Y-80760982D01*
X104574076Y-80757561D01*
X104584157Y-80761422D01*
G37*
G36*
X110146458Y-80733535D02*
G01*
X110149440Y-80747711D01*
X110140052Y-80770159D01*
X110130606Y-80777154D01*
X110116934Y-80780355D01*
X110119691Y-80764918D01*
X110122423Y-80758290D01*
X110136893Y-80732689D01*
X110146458Y-80733535D01*
G37*
G36*
X110211674Y-80339357D02*
G01*
X110217803Y-80349069D01*
X110223092Y-80368411D01*
X110213388Y-80365416D01*
X110206023Y-80356798D01*
X110200138Y-80338917D01*
X110201594Y-80335496D01*
X110211674Y-80339357D01*
G37*
G36*
X110194674Y-80271347D02*
G01*
X110206885Y-80288170D01*
X110206048Y-80294246D01*
X110191436Y-80295089D01*
X110189358Y-80293598D01*
X110178284Y-80272928D01*
X110177985Y-80270698D01*
X110184608Y-80264893D01*
X110194674Y-80271347D01*
G37*
G36*
X116029034Y-80797045D02*
G01*
X116022670Y-80804630D01*
X116015086Y-80798266D01*
X116021450Y-80790680D01*
X116029034Y-80797045D01*
G37*
G36*
X116828350Y-79544093D02*
G01*
X116831468Y-79560501D01*
X116829977Y-79562691D01*
X116821517Y-79561502D01*
X116819864Y-79554206D01*
X116823964Y-79542278D01*
X116828350Y-79544093D01*
G37*
G36*
X116853220Y-79502534D02*
G01*
X116846157Y-79513487D01*
X116835200Y-79523327D01*
X116836904Y-79509095D01*
X116837666Y-79506361D01*
X116847221Y-79488313D01*
X116853494Y-79487641D01*
X116853220Y-79502534D01*
G37*
G36*
X118641352Y-79990328D02*
G01*
X118644333Y-80004504D01*
X118634946Y-80026952D01*
X118625500Y-80033948D01*
X118611828Y-80037148D01*
X118614584Y-80021711D01*
X118617317Y-80015083D01*
X118631787Y-79989482D01*
X118641352Y-79990328D01*
G37*
G36*
X118706568Y-79596150D02*
G01*
X118712697Y-79605862D01*
X118717986Y-79625205D01*
X118708281Y-79622209D01*
X118700917Y-79613591D01*
X118695032Y-79595710D01*
X118696487Y-79592289D01*
X118706568Y-79596150D01*
G37*
G36*
X118689568Y-79528140D02*
G01*
X118701779Y-79544963D01*
X118700942Y-79551039D01*
X118686330Y-79551883D01*
X118684252Y-79550391D01*
X118673177Y-79529722D01*
X118672878Y-79527491D01*
X118679502Y-79521686D01*
X118689568Y-79528140D01*
G37*
G36*
X120103403Y-79979921D02*
G01*
X120104305Y-79983695D01*
X120100734Y-79997698D01*
X120099374Y-79998182D01*
X120086609Y-79989449D01*
X120083381Y-79985526D01*
X120083363Y-79972575D01*
X120088312Y-79971039D01*
X120103403Y-79979921D01*
G37*
G36*
X119556053Y-80036346D02*
G01*
X119559171Y-80052754D01*
X119557681Y-80054945D01*
X119549221Y-80053755D01*
X119547569Y-80046459D01*
X119551668Y-80034531D01*
X119556053Y-80036346D01*
G37*
D11*
%TO.C,RV3*%
X105050000Y-96400000D02*
X107650000Y-96400000D01*
X105050000Y-98600000D02*
X107650000Y-98600000D01*
X105380239Y-98151337D02*
G75*
G03*
X105388000Y-96839600I769761J651337D01*
G01*
%TO.C,R3*%
X111430000Y-98920000D02*
X115270000Y-98920000D01*
X115270000Y-97080000D02*
X111430000Y-97080000D01*
X115270000Y-98920000D02*
X115270000Y-97080000D01*
X116220000Y-98000000D02*
X115270000Y-98000000D01*
X110480000Y-98000000D02*
X111430000Y-98000000D01*
X111430000Y-97080000D02*
X111430000Y-98920000D01*
%TO.C,R2*%
X120677064Y-86335000D02*
X120222936Y-86335000D01*
X120677064Y-84865000D02*
X120222936Y-84865000D01*
%TO.C,RV1*%
X116200000Y-83950000D02*
X113600000Y-83950000D01*
X116200000Y-86150000D02*
X113600000Y-86150000D01*
X115869761Y-84398663D02*
G75*
G03*
X115862000Y-85710400I-769761J-651337D01*
G01*
D12*
%TO.C,Q3*%
X113650000Y-92000000D02*
X113650000Y-88000000D01*
D13*
X115250000Y-92400000D02*
X115250000Y-92400000D01*
D12*
X117250000Y-92000000D02*
X117250000Y-88000000D01*
D13*
X115250000Y-92300000D02*
X115250000Y-92300000D01*
X115250000Y-92300000D02*
G75*
G03*
X115250000Y-92400000I0J-50000D01*
G01*
X115250000Y-92400000D02*
G75*
G03*
X115250000Y-92300000I0J50000D01*
G01*
D12*
%TO.C,Q2*%
X118600000Y-92000000D02*
X118600000Y-88000000D01*
D13*
X120200000Y-92300000D02*
X120200000Y-92300000D01*
D12*
X122200000Y-92000000D02*
X122200000Y-88000000D01*
D13*
X120200000Y-92400000D02*
X120200000Y-92400000D01*
X120200000Y-92400000D02*
G75*
G03*
X120200000Y-92300000I0J50000D01*
G01*
X120200000Y-92300000D02*
G75*
G03*
X120200000Y-92400000I0J-50000D01*
G01*
D11*
%TO.C,J2*%
X104920000Y-84870000D02*
X106250000Y-84870000D01*
X107580000Y-87470000D02*
X107580000Y-95150000D01*
X104920000Y-87470000D02*
X104920000Y-95150000D01*
X104920000Y-86200000D02*
X104920000Y-84870000D01*
X104920000Y-95150000D02*
X107580000Y-95150000D01*
X104920000Y-87470000D02*
X107580000Y-87470000D01*
%TO.C,RV2*%
X108920000Y-92610000D02*
X111580000Y-92610000D01*
X108920000Y-87470000D02*
X108920000Y-92610000D01*
X108920000Y-86200000D02*
X108920000Y-84870000D01*
X111580000Y-87470000D02*
X111580000Y-92610000D01*
X108920000Y-87470000D02*
X111580000Y-87470000D01*
X108920000Y-84870000D02*
X110250000Y-84870000D01*
%TO.C,R1*%
X120704724Y-81027500D02*
X120195276Y-81027500D01*
X120704724Y-82072500D02*
X120195276Y-82072500D01*
%TO.C,R4*%
X120677064Y-84235000D02*
X120222936Y-84235000D01*
X120677064Y-82765000D02*
X120222936Y-82765000D01*
D12*
%TO.C,Q1*%
X123550000Y-92000000D02*
X123550000Y-88000000D01*
X127150000Y-92000000D02*
X127150000Y-88000000D01*
D13*
X125150000Y-92400000D02*
X125150000Y-92400000D01*
X125150000Y-92300000D02*
X125150000Y-92300000D01*
X125150000Y-92400000D02*
G75*
G03*
X125150000Y-92300000I0J50000D01*
G01*
X125150000Y-92300000D02*
G75*
G03*
X125150000Y-92400000I0J-50000D01*
G01*
D11*
%TO.C,J1*%
X100920000Y-87470000D02*
X100920000Y-95150000D01*
X100920000Y-86200000D02*
X100920000Y-84870000D01*
X100920000Y-95150000D02*
X103580000Y-95150000D01*
X100920000Y-84870000D02*
X102250000Y-84870000D01*
X103580000Y-87470000D02*
X103580000Y-95150000D01*
X100920000Y-87470000D02*
X103580000Y-87470000D01*
%TO.C,R5*%
X111430000Y-93930000D02*
X111430000Y-95770000D01*
X115270000Y-93930000D02*
X111430000Y-93930000D01*
X110480000Y-94850000D02*
X111430000Y-94850000D01*
X111430000Y-95770000D02*
X115270000Y-95770000D01*
X115270000Y-95770000D02*
X115270000Y-93930000D01*
X116220000Y-94850000D02*
X115270000Y-94850000D01*
%TD*%
G36*
X107592121Y-87420002D02*
G01*
X107638614Y-87473658D01*
X107650000Y-87526000D01*
X107650000Y-89924000D01*
X107629998Y-89992121D01*
X107576342Y-90038614D01*
X107524000Y-90050000D01*
X100976000Y-90050000D01*
X100907879Y-90029998D01*
X100861386Y-89976342D01*
X100850000Y-89924000D01*
X100850000Y-87526000D01*
X100870002Y-87457879D01*
X100923658Y-87411386D01*
X100976000Y-87400000D01*
X107524000Y-87400000D01*
X107592121Y-87420002D01*
G37*
M02*
