%TF.GenerationSoftware,KiCad,Pcbnew,(6.0.5)*%
%TF.CreationDate,2023-08-08T13:15:34+01:00*%
%TF.ProjectId,Melty-daughter,4d656c74-792d-4646-9175-67687465722e,rev?*%
%TF.SameCoordinates,Original*%
%TF.FileFunction,Copper,L2,Bot*%
%TF.FilePolarity,Positive*%
%FSLAX46Y46*%
G04 Gerber Fmt 4.6, Leading zero omitted, Abs format (unit mm)*
G04 Created by KiCad (PCBNEW (6.0.5)) date 2023-08-08 13:15:34*
%MOMM*%
%LPD*%
G01*
G04 APERTURE LIST*
G04 Aperture macros list*
%AMRoundRect*
0 Rectangle with rounded corners*
0 $1 Rounding radius*
0 $2 $3 $4 $5 $6 $7 $8 $9 X,Y pos of 4 corners*
0 Add a 4 corners polygon primitive as box body*
4,1,4,$2,$3,$4,$5,$6,$7,$8,$9,$2,$3,0*
0 Add four circle primitives for the rounded corners*
1,1,$1+$1,$2,$3*
1,1,$1+$1,$4,$5*
1,1,$1+$1,$6,$7*
1,1,$1+$1,$8,$9*
0 Add four rect primitives between the rounded corners*
20,1,$1+$1,$2,$3,$4,$5,0*
20,1,$1+$1,$4,$5,$6,$7,0*
20,1,$1+$1,$6,$7,$8,$9,0*
20,1,$1+$1,$8,$9,$2,$3,0*%
G04 Aperture macros list end*
%TA.AperFunction,SMDPad,CuDef*%
%ADD10RoundRect,0.500000X-0.500000X-1.500000X0.500000X-1.500000X0.500000X1.500000X-0.500000X1.500000X0*%
%TD*%
%TA.AperFunction,ComponentPad*%
%ADD11C,1.400000*%
%TD*%
%TA.AperFunction,ComponentPad*%
%ADD12O,1.400000X1.400000*%
%TD*%
%TA.AperFunction,ComponentPad*%
%ADD13R,1.700000X1.700000*%
%TD*%
%TA.AperFunction,ComponentPad*%
%ADD14O,1.700000X1.700000*%
%TD*%
%TA.AperFunction,ViaPad*%
%ADD15C,0.800000*%
%TD*%
%TA.AperFunction,Conductor*%
%ADD16C,0.500000*%
%TD*%
G04 APERTURE END LIST*
D10*
%TO.P,P2,1*%
%TO.N,GND*%
X125950000Y-96850000D03*
%TD*%
D11*
%TO.P,R3,1*%
%TO.N,IR_out*%
X117160000Y-98000000D03*
D12*
%TO.P,R3,2*%
%TO.N,GND*%
X109540000Y-98000000D03*
%TD*%
D13*
%TO.P,J2,1,Pin_1*%
%TO.N,+3V3*%
X106250000Y-86200000D03*
D14*
%TO.P,J2,2,Pin_2*%
%TO.N,IR_out*%
X106250000Y-88740000D03*
%TO.P,J2,3,Pin_3*%
%TO.N,Net-(J1-Pad3)*%
X106250000Y-91280000D03*
%TO.P,J2,4,Pin_4*%
%TO.N,GND*%
X106250000Y-93820000D03*
%TD*%
D13*
%TO.P,RV2,1,1*%
%TO.N,GND*%
X110250000Y-86200000D03*
D14*
%TO.P,RV2,2,2*%
%TO.N,IR_out*%
X110250000Y-88740000D03*
%TO.P,RV2,3,3*%
%TO.N,unconnected-(RV2-Pad3)*%
X110250000Y-91280000D03*
%TD*%
D13*
%TO.P,J1,1,Pin_1*%
%TO.N,+3V3*%
X102250000Y-86200000D03*
D14*
%TO.P,J1,2,Pin_2*%
%TO.N,IR_out*%
X102250000Y-88740000D03*
%TO.P,J1,3,Pin_3*%
%TO.N,Net-(J1-Pad3)*%
X102250000Y-91280000D03*
%TO.P,J1,4,Pin_4*%
%TO.N,GND*%
X102250000Y-93820000D03*
%TD*%
D11*
%TO.P,R5,1*%
%TO.N,IR_out*%
X117160000Y-94850000D03*
D12*
%TO.P,R5,2*%
%TO.N,Net-(R5-Pad2)*%
X109540000Y-94850000D03*
%TD*%
D15*
%TO.N,GND*%
X118050000Y-83500000D03*
X113700000Y-87000000D03*
%TD*%
D16*
%TO.N,Net-(J1-Pad3)*%
X102250000Y-91280000D02*
X106250000Y-91280000D01*
%TO.N,IR_out*%
X102250000Y-88740000D02*
X106250000Y-88740000D01*
%TD*%
%TA.AperFunction,Conductor*%
%TO.N,GND*%
G36*
X127924098Y-78081049D02*
G01*
X127975101Y-78130437D01*
X127991500Y-78192594D01*
X127991500Y-101807406D01*
X127971498Y-101875527D01*
X127917842Y-101922020D01*
X127854492Y-101932924D01*
X100623489Y-99544240D01*
X100557377Y-99518362D01*
X100515751Y-99460849D01*
X100508500Y-99418722D01*
X100508500Y-98266522D01*
X108360801Y-98266522D01*
X108399092Y-98409423D01*
X108402842Y-98419727D01*
X108487521Y-98601323D01*
X108492998Y-98610811D01*
X108607925Y-98774942D01*
X108614981Y-98783350D01*
X108756650Y-98925019D01*
X108765058Y-98932075D01*
X108929189Y-99047002D01*
X108938677Y-99052479D01*
X109120273Y-99137158D01*
X109130577Y-99140908D01*
X109268503Y-99177866D01*
X109282599Y-99177530D01*
X109286000Y-99169588D01*
X109286000Y-99164439D01*
X109794000Y-99164439D01*
X109797973Y-99177970D01*
X109806522Y-99179199D01*
X109949423Y-99140908D01*
X109959727Y-99137158D01*
X110141323Y-99052479D01*
X110150811Y-99047002D01*
X110314942Y-98932075D01*
X110323350Y-98925019D01*
X110465019Y-98783350D01*
X110472075Y-98774942D01*
X110587002Y-98610811D01*
X110592479Y-98601323D01*
X110677158Y-98419727D01*
X110680908Y-98409423D01*
X110717866Y-98271497D01*
X110717530Y-98257401D01*
X110709588Y-98254000D01*
X109812115Y-98254000D01*
X109796876Y-98258475D01*
X109795671Y-98259865D01*
X109794000Y-98267548D01*
X109794000Y-99164439D01*
X109286000Y-99164439D01*
X109286000Y-98272115D01*
X109281525Y-98256876D01*
X109280135Y-98255671D01*
X109272452Y-98254000D01*
X108375561Y-98254000D01*
X108362030Y-98257973D01*
X108360801Y-98266522D01*
X100508500Y-98266522D01*
X100508500Y-98000000D01*
X115946884Y-98000000D01*
X115965314Y-98210655D01*
X115966738Y-98215968D01*
X115966738Y-98215970D01*
X115981617Y-98271497D01*
X116020044Y-98414910D01*
X116022366Y-98419891D01*
X116022367Y-98419892D01*
X116035350Y-98447733D01*
X116109411Y-98606558D01*
X116230699Y-98779776D01*
X116380224Y-98929301D01*
X116553442Y-99050589D01*
X116558420Y-99052910D01*
X116558423Y-99052912D01*
X116740108Y-99137633D01*
X116745090Y-99139956D01*
X116750398Y-99141378D01*
X116750400Y-99141379D01*
X116944030Y-99193262D01*
X116944032Y-99193262D01*
X116949345Y-99194686D01*
X117160000Y-99213116D01*
X117370655Y-99194686D01*
X117375968Y-99193262D01*
X117375970Y-99193262D01*
X117569600Y-99141379D01*
X117569602Y-99141378D01*
X117574910Y-99139956D01*
X117579892Y-99137633D01*
X117761577Y-99052912D01*
X117761580Y-99052910D01*
X117766558Y-99050589D01*
X117939776Y-98929301D01*
X118089301Y-98779776D01*
X118210589Y-98606558D01*
X118284651Y-98447733D01*
X118297633Y-98419892D01*
X118297634Y-98419891D01*
X118299956Y-98414910D01*
X118338384Y-98271497D01*
X118353262Y-98215970D01*
X118353262Y-98215968D01*
X118354686Y-98210655D01*
X118373116Y-98000000D01*
X118354686Y-97789345D01*
X118342301Y-97743124D01*
X118301379Y-97590400D01*
X118301378Y-97590398D01*
X118299956Y-97585090D01*
X118210589Y-97393442D01*
X118089301Y-97220224D01*
X117939776Y-97070699D01*
X117838807Y-97000000D01*
X118986540Y-97000000D01*
X119006359Y-97315020D01*
X119065505Y-97625072D01*
X119163044Y-97925266D01*
X119164731Y-97928852D01*
X119164733Y-97928856D01*
X119295750Y-98207283D01*
X119295754Y-98207290D01*
X119297438Y-98210869D01*
X119466568Y-98477375D01*
X119667767Y-98720582D01*
X119897860Y-98936654D01*
X120153221Y-99122184D01*
X120156690Y-99124091D01*
X120156693Y-99124093D01*
X120366111Y-99239222D01*
X120429821Y-99274247D01*
X120433490Y-99275700D01*
X120433495Y-99275702D01*
X120719628Y-99388990D01*
X120723298Y-99390443D01*
X121029025Y-99468940D01*
X121342179Y-99508500D01*
X121657821Y-99508500D01*
X121970975Y-99468940D01*
X122276702Y-99390443D01*
X122280372Y-99388990D01*
X122566505Y-99275702D01*
X122566510Y-99275700D01*
X122570179Y-99274247D01*
X122633889Y-99239222D01*
X122843307Y-99124093D01*
X122843310Y-99124091D01*
X122846779Y-99122184D01*
X123102140Y-98936654D01*
X123332233Y-98720582D01*
X123533432Y-98477375D01*
X123554180Y-98444681D01*
X124442000Y-98444681D01*
X124442077Y-98447733D01*
X124443233Y-98456945D01*
X124480162Y-98640091D01*
X124483752Y-98651833D01*
X124554978Y-98822943D01*
X124560778Y-98833759D01*
X124663885Y-98987779D01*
X124671678Y-98997266D01*
X124802734Y-99128322D01*
X124812221Y-99136115D01*
X124966241Y-99239222D01*
X124977057Y-99245022D01*
X125148167Y-99316248D01*
X125159909Y-99319838D01*
X125343055Y-99356767D01*
X125352267Y-99357923D01*
X125355319Y-99358000D01*
X125677885Y-99358000D01*
X125693124Y-99353525D01*
X125694329Y-99352135D01*
X125696000Y-99344452D01*
X125696000Y-99339885D01*
X126204000Y-99339885D01*
X126208475Y-99355124D01*
X126209865Y-99356329D01*
X126217548Y-99358000D01*
X126544681Y-99358000D01*
X126547733Y-99357923D01*
X126556945Y-99356767D01*
X126740091Y-99319838D01*
X126751833Y-99316248D01*
X126922943Y-99245022D01*
X126933759Y-99239222D01*
X127087779Y-99136115D01*
X127097266Y-99128322D01*
X127228322Y-98997266D01*
X127236115Y-98987779D01*
X127339222Y-98833759D01*
X127345022Y-98822943D01*
X127416248Y-98651833D01*
X127419838Y-98640091D01*
X127456767Y-98456945D01*
X127457923Y-98447733D01*
X127458000Y-98444681D01*
X127458000Y-97122115D01*
X127453525Y-97106876D01*
X127452135Y-97105671D01*
X127444452Y-97104000D01*
X126222115Y-97104000D01*
X126206876Y-97108475D01*
X126205671Y-97109865D01*
X126204000Y-97117548D01*
X126204000Y-99339885D01*
X125696000Y-99339885D01*
X125696000Y-97122115D01*
X125691525Y-97106876D01*
X125690135Y-97105671D01*
X125682452Y-97104000D01*
X124460115Y-97104000D01*
X124444876Y-97108475D01*
X124443671Y-97109865D01*
X124442000Y-97117548D01*
X124442000Y-98444681D01*
X123554180Y-98444681D01*
X123702562Y-98210869D01*
X123704246Y-98207290D01*
X123704250Y-98207283D01*
X123835267Y-97928856D01*
X123835269Y-97928852D01*
X123836956Y-97925266D01*
X123934495Y-97625072D01*
X123993641Y-97315020D01*
X124013460Y-97000000D01*
X123993641Y-96684980D01*
X123973211Y-96577885D01*
X124442000Y-96577885D01*
X124446475Y-96593124D01*
X124447865Y-96594329D01*
X124455548Y-96596000D01*
X125677885Y-96596000D01*
X125693124Y-96591525D01*
X125694329Y-96590135D01*
X125696000Y-96582452D01*
X125696000Y-96577885D01*
X126204000Y-96577885D01*
X126208475Y-96593124D01*
X126209865Y-96594329D01*
X126217548Y-96596000D01*
X127439885Y-96596000D01*
X127455124Y-96591525D01*
X127456329Y-96590135D01*
X127458000Y-96582452D01*
X127458000Y-95255319D01*
X127457923Y-95252267D01*
X127456767Y-95243055D01*
X127419838Y-95059909D01*
X127416248Y-95048167D01*
X127345022Y-94877057D01*
X127339222Y-94866241D01*
X127236115Y-94712221D01*
X127228322Y-94702734D01*
X127097266Y-94571678D01*
X127087779Y-94563885D01*
X126933759Y-94460778D01*
X126922943Y-94454978D01*
X126751833Y-94383752D01*
X126740091Y-94380162D01*
X126556945Y-94343233D01*
X126547733Y-94342077D01*
X126544681Y-94342000D01*
X126222115Y-94342000D01*
X126206876Y-94346475D01*
X126205671Y-94347865D01*
X126204000Y-94355548D01*
X126204000Y-96577885D01*
X125696000Y-96577885D01*
X125696000Y-94360115D01*
X125691525Y-94344876D01*
X125690135Y-94343671D01*
X125682452Y-94342000D01*
X125355319Y-94342000D01*
X125352267Y-94342077D01*
X125343055Y-94343233D01*
X125159909Y-94380162D01*
X125148167Y-94383752D01*
X124977057Y-94454978D01*
X124966241Y-94460778D01*
X124812221Y-94563885D01*
X124802734Y-94571678D01*
X124671678Y-94702734D01*
X124663885Y-94712221D01*
X124560778Y-94866241D01*
X124554978Y-94877057D01*
X124483752Y-95048167D01*
X124480162Y-95059909D01*
X124443233Y-95243055D01*
X124442077Y-95252267D01*
X124442000Y-95255319D01*
X124442000Y-96577885D01*
X123973211Y-96577885D01*
X123934495Y-96374928D01*
X123836956Y-96074734D01*
X123822817Y-96044686D01*
X123704250Y-95792717D01*
X123704246Y-95792710D01*
X123702562Y-95789131D01*
X123698329Y-95782460D01*
X123670052Y-95737903D01*
X123533432Y-95522625D01*
X123332233Y-95279418D01*
X123102140Y-95063346D01*
X123097410Y-95059909D01*
X122930759Y-94938831D01*
X122846779Y-94877816D01*
X122825725Y-94866241D01*
X122573648Y-94727660D01*
X122573647Y-94727659D01*
X122570179Y-94725753D01*
X122566510Y-94724300D01*
X122566505Y-94724298D01*
X122280372Y-94611010D01*
X122280371Y-94611010D01*
X122276702Y-94609557D01*
X121970975Y-94531060D01*
X121657821Y-94491500D01*
X121342179Y-94491500D01*
X121029025Y-94531060D01*
X120723298Y-94609557D01*
X120719629Y-94611010D01*
X120719628Y-94611010D01*
X120433495Y-94724298D01*
X120433490Y-94724300D01*
X120429821Y-94725753D01*
X120426353Y-94727659D01*
X120426352Y-94727660D01*
X120174276Y-94866241D01*
X120153221Y-94877816D01*
X120069241Y-94938831D01*
X119902591Y-95059909D01*
X119897860Y-95063346D01*
X119667767Y-95279418D01*
X119466568Y-95522625D01*
X119329948Y-95737903D01*
X119301672Y-95782460D01*
X119297438Y-95789131D01*
X119295754Y-95792710D01*
X119295750Y-95792717D01*
X119177183Y-96044686D01*
X119163044Y-96074734D01*
X119065505Y-96374928D01*
X119006359Y-96684980D01*
X119006110Y-96688942D01*
X118989525Y-96952566D01*
X118988833Y-96963559D01*
X118986540Y-97000000D01*
X117838807Y-97000000D01*
X117766558Y-96949411D01*
X117761580Y-96947090D01*
X117761577Y-96947088D01*
X117579892Y-96862367D01*
X117579891Y-96862366D01*
X117574910Y-96860044D01*
X117569602Y-96858622D01*
X117569600Y-96858621D01*
X117375970Y-96806738D01*
X117375968Y-96806738D01*
X117370655Y-96805314D01*
X117160000Y-96786884D01*
X116949345Y-96805314D01*
X116944032Y-96806738D01*
X116944030Y-96806738D01*
X116750400Y-96858621D01*
X116750398Y-96858622D01*
X116745090Y-96860044D01*
X116740109Y-96862366D01*
X116740108Y-96862367D01*
X116558423Y-96947088D01*
X116558420Y-96947090D01*
X116553442Y-96949411D01*
X116380224Y-97070699D01*
X116230699Y-97220224D01*
X116109411Y-97393442D01*
X116020044Y-97585090D01*
X116018622Y-97590398D01*
X116018621Y-97590400D01*
X115977699Y-97743124D01*
X115965314Y-97789345D01*
X115946884Y-98000000D01*
X100508500Y-98000000D01*
X100508500Y-97728503D01*
X108362134Y-97728503D01*
X108362470Y-97742599D01*
X108370412Y-97746000D01*
X109267885Y-97746000D01*
X109283124Y-97741525D01*
X109284329Y-97740135D01*
X109286000Y-97732452D01*
X109286000Y-97727885D01*
X109794000Y-97727885D01*
X109798475Y-97743124D01*
X109799865Y-97744329D01*
X109807548Y-97746000D01*
X110704439Y-97746000D01*
X110717970Y-97742027D01*
X110719199Y-97733478D01*
X110680908Y-97590577D01*
X110677158Y-97580273D01*
X110592479Y-97398677D01*
X110587002Y-97389189D01*
X110472075Y-97225058D01*
X110465019Y-97216650D01*
X110323350Y-97074981D01*
X110314942Y-97067925D01*
X110150811Y-96952998D01*
X110141323Y-96947521D01*
X109959727Y-96862842D01*
X109949423Y-96859092D01*
X109811497Y-96822134D01*
X109797401Y-96822470D01*
X109794000Y-96830412D01*
X109794000Y-97727885D01*
X109286000Y-97727885D01*
X109286000Y-96835561D01*
X109282027Y-96822030D01*
X109273478Y-96820801D01*
X109130577Y-96859092D01*
X109120273Y-96862842D01*
X108938677Y-96947521D01*
X108929189Y-96952998D01*
X108765058Y-97067925D01*
X108756650Y-97074981D01*
X108614981Y-97216650D01*
X108607925Y-97225058D01*
X108492998Y-97389189D01*
X108487521Y-97398677D01*
X108402842Y-97580273D01*
X108399092Y-97590577D01*
X108362134Y-97728503D01*
X100508500Y-97728503D01*
X100508500Y-94087966D01*
X100918257Y-94087966D01*
X100948565Y-94222446D01*
X100951645Y-94232275D01*
X101031770Y-94429603D01*
X101036413Y-94438794D01*
X101147694Y-94620388D01*
X101153777Y-94628699D01*
X101293213Y-94789667D01*
X101300580Y-94796883D01*
X101464434Y-94932916D01*
X101472881Y-94938831D01*
X101656756Y-95046279D01*
X101666042Y-95050729D01*
X101865001Y-95126703D01*
X101874899Y-95129579D01*
X101978250Y-95150606D01*
X101992299Y-95149410D01*
X101996000Y-95139065D01*
X101996000Y-95138517D01*
X102504000Y-95138517D01*
X102508064Y-95152359D01*
X102521478Y-95154393D01*
X102528184Y-95153534D01*
X102538262Y-95151392D01*
X102742255Y-95090191D01*
X102751842Y-95086433D01*
X102943095Y-94992739D01*
X102951945Y-94987464D01*
X103125328Y-94863792D01*
X103133200Y-94857139D01*
X103284052Y-94706812D01*
X103290730Y-94698965D01*
X103415003Y-94526020D01*
X103420313Y-94517183D01*
X103514670Y-94326267D01*
X103518469Y-94316672D01*
X103580377Y-94112910D01*
X103582555Y-94102837D01*
X103583986Y-94091962D01*
X103583363Y-94087966D01*
X104918257Y-94087966D01*
X104948565Y-94222446D01*
X104951645Y-94232275D01*
X105031770Y-94429603D01*
X105036413Y-94438794D01*
X105147694Y-94620388D01*
X105153777Y-94628699D01*
X105293213Y-94789667D01*
X105300580Y-94796883D01*
X105464434Y-94932916D01*
X105472881Y-94938831D01*
X105656756Y-95046279D01*
X105666042Y-95050729D01*
X105865001Y-95126703D01*
X105874899Y-95129579D01*
X105978250Y-95150606D01*
X105992299Y-95149410D01*
X105996000Y-95139065D01*
X105996000Y-95138517D01*
X106504000Y-95138517D01*
X106508064Y-95152359D01*
X106521478Y-95154393D01*
X106528184Y-95153534D01*
X106538262Y-95151392D01*
X106742255Y-95090191D01*
X106751842Y-95086433D01*
X106943095Y-94992739D01*
X106951945Y-94987464D01*
X107125328Y-94863792D01*
X107133200Y-94857139D01*
X107140364Y-94850000D01*
X108326884Y-94850000D01*
X108345314Y-95060655D01*
X108346738Y-95065968D01*
X108346738Y-95065970D01*
X108363012Y-95126703D01*
X108400044Y-95264910D01*
X108489411Y-95456558D01*
X108610699Y-95629776D01*
X108760224Y-95779301D01*
X108933442Y-95900589D01*
X108938420Y-95902910D01*
X108938423Y-95902912D01*
X108951878Y-95909186D01*
X109125090Y-95989956D01*
X109130398Y-95991378D01*
X109130400Y-95991379D01*
X109324030Y-96043262D01*
X109324032Y-96043262D01*
X109329345Y-96044686D01*
X109540000Y-96063116D01*
X109750655Y-96044686D01*
X109755968Y-96043262D01*
X109755970Y-96043262D01*
X109949600Y-95991379D01*
X109949602Y-95991378D01*
X109954910Y-95989956D01*
X110128122Y-95909186D01*
X110141577Y-95902912D01*
X110141580Y-95902910D01*
X110146558Y-95900589D01*
X110319776Y-95779301D01*
X110469301Y-95629776D01*
X110590589Y-95456558D01*
X110679956Y-95264910D01*
X110716989Y-95126703D01*
X110733262Y-95065970D01*
X110733262Y-95065968D01*
X110734686Y-95060655D01*
X110753116Y-94850000D01*
X115946884Y-94850000D01*
X115965314Y-95060655D01*
X115966738Y-95065968D01*
X115966738Y-95065970D01*
X115983012Y-95126703D01*
X116020044Y-95264910D01*
X116109411Y-95456558D01*
X116230699Y-95629776D01*
X116380224Y-95779301D01*
X116553442Y-95900589D01*
X116558420Y-95902910D01*
X116558423Y-95902912D01*
X116571878Y-95909186D01*
X116745090Y-95989956D01*
X116750398Y-95991378D01*
X116750400Y-95991379D01*
X116944030Y-96043262D01*
X116944032Y-96043262D01*
X116949345Y-96044686D01*
X117160000Y-96063116D01*
X117370655Y-96044686D01*
X117375968Y-96043262D01*
X117375970Y-96043262D01*
X117569600Y-95991379D01*
X117569602Y-95991378D01*
X117574910Y-95989956D01*
X117748122Y-95909186D01*
X117761577Y-95902912D01*
X117761580Y-95902910D01*
X117766558Y-95900589D01*
X117939776Y-95779301D01*
X118089301Y-95629776D01*
X118210589Y-95456558D01*
X118299956Y-95264910D01*
X118336989Y-95126703D01*
X118353262Y-95065970D01*
X118353262Y-95065968D01*
X118354686Y-95060655D01*
X118373116Y-94850000D01*
X118354686Y-94639345D01*
X118353262Y-94634030D01*
X118301379Y-94440400D01*
X118301378Y-94440398D01*
X118299956Y-94435090D01*
X118297633Y-94430108D01*
X118212912Y-94248423D01*
X118212910Y-94248420D01*
X118210589Y-94243442D01*
X118089301Y-94070224D01*
X117939776Y-93920699D01*
X117766558Y-93799411D01*
X117761580Y-93797090D01*
X117761577Y-93797088D01*
X117579892Y-93712367D01*
X117579891Y-93712366D01*
X117574910Y-93710044D01*
X117569602Y-93708622D01*
X117569600Y-93708621D01*
X117375970Y-93656738D01*
X117375968Y-93656738D01*
X117370655Y-93655314D01*
X117160000Y-93636884D01*
X116949345Y-93655314D01*
X116944032Y-93656738D01*
X116944030Y-93656738D01*
X116750400Y-93708621D01*
X116750398Y-93708622D01*
X116745090Y-93710044D01*
X116740109Y-93712366D01*
X116740108Y-93712367D01*
X116558423Y-93797088D01*
X116558420Y-93797090D01*
X116553442Y-93799411D01*
X116380224Y-93920699D01*
X116230699Y-94070224D01*
X116109411Y-94243442D01*
X116107090Y-94248420D01*
X116107088Y-94248423D01*
X116022367Y-94430108D01*
X116020044Y-94435090D01*
X116018622Y-94440398D01*
X116018621Y-94440400D01*
X115966738Y-94634030D01*
X115965314Y-94639345D01*
X115946884Y-94850000D01*
X110753116Y-94850000D01*
X110734686Y-94639345D01*
X110733262Y-94634030D01*
X110681379Y-94440400D01*
X110681378Y-94440398D01*
X110679956Y-94435090D01*
X110677633Y-94430108D01*
X110592912Y-94248423D01*
X110592910Y-94248420D01*
X110590589Y-94243442D01*
X110469301Y-94070224D01*
X110319776Y-93920699D01*
X110146558Y-93799411D01*
X110141580Y-93797090D01*
X110141577Y-93797088D01*
X109959892Y-93712367D01*
X109959891Y-93712366D01*
X109954910Y-93710044D01*
X109949602Y-93708622D01*
X109949600Y-93708621D01*
X109755970Y-93656738D01*
X109755968Y-93656738D01*
X109750655Y-93655314D01*
X109540000Y-93636884D01*
X109329345Y-93655314D01*
X109324032Y-93656738D01*
X109324030Y-93656738D01*
X109130400Y-93708621D01*
X109130398Y-93708622D01*
X109125090Y-93710044D01*
X109120109Y-93712366D01*
X109120108Y-93712367D01*
X108938423Y-93797088D01*
X108938420Y-93797090D01*
X108933442Y-93799411D01*
X108760224Y-93920699D01*
X108610699Y-94070224D01*
X108489411Y-94243442D01*
X108487090Y-94248420D01*
X108487088Y-94248423D01*
X108402367Y-94430108D01*
X108400044Y-94435090D01*
X108398622Y-94440398D01*
X108398621Y-94440400D01*
X108346738Y-94634030D01*
X108345314Y-94639345D01*
X108326884Y-94850000D01*
X107140364Y-94850000D01*
X107284052Y-94706812D01*
X107290730Y-94698965D01*
X107415003Y-94526020D01*
X107420313Y-94517183D01*
X107514670Y-94326267D01*
X107518469Y-94316672D01*
X107580377Y-94112910D01*
X107582555Y-94102837D01*
X107583986Y-94091962D01*
X107581775Y-94077778D01*
X107568617Y-94074000D01*
X106522115Y-94074000D01*
X106506876Y-94078475D01*
X106505671Y-94079865D01*
X106504000Y-94087548D01*
X106504000Y-95138517D01*
X105996000Y-95138517D01*
X105996000Y-94092115D01*
X105991525Y-94076876D01*
X105990135Y-94075671D01*
X105982452Y-94074000D01*
X104933225Y-94074000D01*
X104919694Y-94077973D01*
X104918257Y-94087966D01*
X103583363Y-94087966D01*
X103581775Y-94077778D01*
X103568617Y-94074000D01*
X102522115Y-94074000D01*
X102506876Y-94078475D01*
X102505671Y-94079865D01*
X102504000Y-94087548D01*
X102504000Y-95138517D01*
X101996000Y-95138517D01*
X101996000Y-94092115D01*
X101991525Y-94076876D01*
X101990135Y-94075671D01*
X101982452Y-94074000D01*
X100933225Y-94074000D01*
X100919694Y-94077973D01*
X100918257Y-94087966D01*
X100508500Y-94087966D01*
X100508500Y-91246695D01*
X100887251Y-91246695D01*
X100887548Y-91251848D01*
X100887548Y-91251851D01*
X100893011Y-91346590D01*
X100900110Y-91469715D01*
X100901247Y-91474761D01*
X100901248Y-91474767D01*
X100921119Y-91562939D01*
X100949222Y-91687639D01*
X101033266Y-91894616D01*
X101149987Y-92085088D01*
X101296250Y-92253938D01*
X101468126Y-92396632D01*
X101541955Y-92439774D01*
X101590679Y-92491412D01*
X101603750Y-92561195D01*
X101577019Y-92626967D01*
X101536562Y-92660327D01*
X101528457Y-92664546D01*
X101519738Y-92670036D01*
X101349433Y-92797905D01*
X101341726Y-92804748D01*
X101194590Y-92958717D01*
X101188104Y-92966727D01*
X101068098Y-93142649D01*
X101063000Y-93151623D01*
X100973338Y-93344783D01*
X100969775Y-93354470D01*
X100914389Y-93554183D01*
X100915912Y-93562607D01*
X100928292Y-93566000D01*
X103568344Y-93566000D01*
X103581875Y-93562027D01*
X103583180Y-93552947D01*
X103541214Y-93385875D01*
X103537894Y-93376124D01*
X103452972Y-93180814D01*
X103448105Y-93171739D01*
X103332426Y-92992926D01*
X103326136Y-92984757D01*
X103182806Y-92827240D01*
X103175273Y-92820215D01*
X103008139Y-92688222D01*
X102999556Y-92682520D01*
X102962602Y-92662120D01*
X102912631Y-92611687D01*
X102897859Y-92542245D01*
X102922975Y-92475839D01*
X102950327Y-92449232D01*
X102973797Y-92432491D01*
X103129860Y-92321173D01*
X103288096Y-92163489D01*
X103340203Y-92090974D01*
X103396198Y-92047326D01*
X103442526Y-92038500D01*
X105052491Y-92038500D01*
X105120612Y-92058502D01*
X105149402Y-92085595D01*
X105149987Y-92085088D01*
X105296250Y-92253938D01*
X105468126Y-92396632D01*
X105541955Y-92439774D01*
X105590679Y-92491412D01*
X105603750Y-92561195D01*
X105577019Y-92626967D01*
X105536562Y-92660327D01*
X105528457Y-92664546D01*
X105519738Y-92670036D01*
X105349433Y-92797905D01*
X105341726Y-92804748D01*
X105194590Y-92958717D01*
X105188104Y-92966727D01*
X105068098Y-93142649D01*
X105063000Y-93151623D01*
X104973338Y-93344783D01*
X104969775Y-93354470D01*
X104914389Y-93554183D01*
X104915912Y-93562607D01*
X104928292Y-93566000D01*
X107568344Y-93566000D01*
X107581875Y-93562027D01*
X107583180Y-93552947D01*
X107541214Y-93385875D01*
X107537894Y-93376124D01*
X107452972Y-93180814D01*
X107448105Y-93171739D01*
X107332426Y-92992926D01*
X107326136Y-92984757D01*
X107182806Y-92827240D01*
X107175273Y-92820215D01*
X107008139Y-92688222D01*
X106999556Y-92682520D01*
X106962602Y-92662120D01*
X106912631Y-92611687D01*
X106897859Y-92542245D01*
X106922975Y-92475839D01*
X106950327Y-92449232D01*
X106973797Y-92432491D01*
X107129860Y-92321173D01*
X107288096Y-92163489D01*
X107347594Y-92080689D01*
X107415435Y-91986277D01*
X107418453Y-91982077D01*
X107517430Y-91781811D01*
X107582370Y-91568069D01*
X107611529Y-91346590D01*
X107613156Y-91280000D01*
X107610418Y-91246695D01*
X108887251Y-91246695D01*
X108887548Y-91251848D01*
X108887548Y-91251851D01*
X108893011Y-91346590D01*
X108900110Y-91469715D01*
X108901247Y-91474761D01*
X108901248Y-91474767D01*
X108921119Y-91562939D01*
X108949222Y-91687639D01*
X109033266Y-91894616D01*
X109149987Y-92085088D01*
X109296250Y-92253938D01*
X109468126Y-92396632D01*
X109661000Y-92509338D01*
X109869692Y-92589030D01*
X109874760Y-92590061D01*
X109874763Y-92590062D01*
X109981054Y-92611687D01*
X110088597Y-92633567D01*
X110093772Y-92633757D01*
X110093774Y-92633757D01*
X110306673Y-92641564D01*
X110306677Y-92641564D01*
X110311837Y-92641753D01*
X110316957Y-92641097D01*
X110316959Y-92641097D01*
X110528288Y-92614025D01*
X110528289Y-92614025D01*
X110533416Y-92613368D01*
X110539019Y-92611687D01*
X110742429Y-92550661D01*
X110742434Y-92550659D01*
X110747384Y-92549174D01*
X110947994Y-92450896D01*
X111129860Y-92321173D01*
X111288096Y-92163489D01*
X111347594Y-92080689D01*
X111415435Y-91986277D01*
X111418453Y-91982077D01*
X111517430Y-91781811D01*
X111582370Y-91568069D01*
X111611529Y-91346590D01*
X111613156Y-91280000D01*
X111594852Y-91057361D01*
X111540431Y-90840702D01*
X111451354Y-90635840D01*
X111377384Y-90521500D01*
X111332822Y-90452617D01*
X111332818Y-90452612D01*
X111330014Y-90448277D01*
X111179670Y-90283051D01*
X111175619Y-90279852D01*
X111175615Y-90279848D01*
X111008414Y-90147800D01*
X111008410Y-90147798D01*
X111004359Y-90144598D01*
X110963053Y-90121796D01*
X110913084Y-90071364D01*
X110898312Y-90001921D01*
X110923428Y-89935516D01*
X110950780Y-89908909D01*
X110994603Y-89877650D01*
X111129860Y-89781173D01*
X111288096Y-89623489D01*
X111347594Y-89540689D01*
X111415435Y-89446277D01*
X111418453Y-89442077D01*
X111517430Y-89241811D01*
X111582370Y-89028069D01*
X111611529Y-88806590D01*
X111613156Y-88740000D01*
X111594852Y-88517361D01*
X111540431Y-88300702D01*
X111451354Y-88095840D01*
X111377384Y-87981500D01*
X111332822Y-87912617D01*
X111332818Y-87912612D01*
X111330014Y-87908277D01*
X111326540Y-87904459D01*
X111326533Y-87904450D01*
X111182435Y-87746088D01*
X111151383Y-87682242D01*
X111159779Y-87611744D01*
X111204956Y-87556976D01*
X111231400Y-87543307D01*
X111338052Y-87503325D01*
X111353649Y-87494786D01*
X111455724Y-87418285D01*
X111468285Y-87405724D01*
X111544786Y-87303649D01*
X111553324Y-87288054D01*
X111598478Y-87167606D01*
X111602105Y-87152351D01*
X111607631Y-87101486D01*
X111608000Y-87094672D01*
X111608000Y-86472115D01*
X111603525Y-86456876D01*
X111602135Y-86455671D01*
X111594452Y-86454000D01*
X108910116Y-86454000D01*
X108894877Y-86458475D01*
X108893672Y-86459865D01*
X108892001Y-86467548D01*
X108892001Y-87094669D01*
X108892371Y-87101490D01*
X108897895Y-87152352D01*
X108901521Y-87167604D01*
X108946676Y-87288054D01*
X108955214Y-87303649D01*
X109031715Y-87405724D01*
X109044276Y-87418285D01*
X109146351Y-87494786D01*
X109161946Y-87503324D01*
X109270827Y-87544142D01*
X109327591Y-87586784D01*
X109352291Y-87653345D01*
X109337083Y-87722694D01*
X109317691Y-87749175D01*
X109194200Y-87878401D01*
X109190629Y-87882138D01*
X109187720Y-87886403D01*
X109187714Y-87886411D01*
X109136493Y-87961498D01*
X109064743Y-88066680D01*
X108970688Y-88269305D01*
X108910989Y-88484570D01*
X108887251Y-88706695D01*
X108887548Y-88711848D01*
X108887548Y-88711851D01*
X108893011Y-88806590D01*
X108900110Y-88929715D01*
X108901247Y-88934761D01*
X108901248Y-88934767D01*
X108921119Y-89022939D01*
X108949222Y-89147639D01*
X109033266Y-89354616D01*
X109149987Y-89545088D01*
X109296250Y-89713938D01*
X109468126Y-89856632D01*
X109538595Y-89897811D01*
X109541445Y-89899476D01*
X109590169Y-89951114D01*
X109603240Y-90020897D01*
X109576509Y-90086669D01*
X109536055Y-90120027D01*
X109523607Y-90126507D01*
X109519474Y-90129610D01*
X109519471Y-90129612D01*
X109495247Y-90147800D01*
X109344965Y-90260635D01*
X109190629Y-90422138D01*
X109187720Y-90426403D01*
X109187714Y-90426411D01*
X109136493Y-90501498D01*
X109064743Y-90606680D01*
X108970688Y-90809305D01*
X108910989Y-91024570D01*
X108887251Y-91246695D01*
X107610418Y-91246695D01*
X107594852Y-91057361D01*
X107540431Y-90840702D01*
X107451354Y-90635840D01*
X107377384Y-90521500D01*
X107332822Y-90452617D01*
X107332818Y-90452612D01*
X107330014Y-90448277D01*
X107179670Y-90283051D01*
X107175619Y-90279852D01*
X107175615Y-90279848D01*
X107008414Y-90147800D01*
X107008410Y-90147798D01*
X107004359Y-90144598D01*
X106963053Y-90121796D01*
X106913084Y-90071364D01*
X106898312Y-90001921D01*
X106923428Y-89935516D01*
X106950780Y-89908909D01*
X106994603Y-89877650D01*
X107129860Y-89781173D01*
X107288096Y-89623489D01*
X107347594Y-89540689D01*
X107415435Y-89446277D01*
X107418453Y-89442077D01*
X107517430Y-89241811D01*
X107582370Y-89028069D01*
X107611529Y-88806590D01*
X107613156Y-88740000D01*
X107594852Y-88517361D01*
X107540431Y-88300702D01*
X107451354Y-88095840D01*
X107377384Y-87981500D01*
X107332822Y-87912617D01*
X107332818Y-87912612D01*
X107330014Y-87908277D01*
X107326532Y-87904450D01*
X107182798Y-87746488D01*
X107151746Y-87682642D01*
X107160141Y-87612143D01*
X107205317Y-87557375D01*
X107231761Y-87543706D01*
X107338297Y-87503767D01*
X107346705Y-87500615D01*
X107463261Y-87413261D01*
X107550615Y-87296705D01*
X107601745Y-87160316D01*
X107608500Y-87098134D01*
X107608500Y-85927885D01*
X108892000Y-85927885D01*
X108896475Y-85943124D01*
X108897865Y-85944329D01*
X108905548Y-85946000D01*
X109977885Y-85946000D01*
X109993124Y-85941525D01*
X109994329Y-85940135D01*
X109996000Y-85932452D01*
X109996000Y-85927885D01*
X110504000Y-85927885D01*
X110508475Y-85943124D01*
X110509865Y-85944329D01*
X110517548Y-85946000D01*
X111589884Y-85946000D01*
X111605123Y-85941525D01*
X111606328Y-85940135D01*
X111607999Y-85932452D01*
X111607999Y-85305331D01*
X111607629Y-85298510D01*
X111602105Y-85247648D01*
X111598479Y-85232396D01*
X111553324Y-85111946D01*
X111544786Y-85096351D01*
X111468285Y-84994276D01*
X111455724Y-84981715D01*
X111353649Y-84905214D01*
X111338054Y-84896676D01*
X111217606Y-84851522D01*
X111202351Y-84847895D01*
X111151486Y-84842369D01*
X111144672Y-84842000D01*
X110522115Y-84842000D01*
X110506876Y-84846475D01*
X110505671Y-84847865D01*
X110504000Y-84855548D01*
X110504000Y-85927885D01*
X109996000Y-85927885D01*
X109996000Y-84860116D01*
X109991525Y-84844877D01*
X109990135Y-84843672D01*
X109982452Y-84842001D01*
X109355331Y-84842001D01*
X109348510Y-84842371D01*
X109297648Y-84847895D01*
X109282396Y-84851521D01*
X109161946Y-84896676D01*
X109146351Y-84905214D01*
X109044276Y-84981715D01*
X109031715Y-84994276D01*
X108955214Y-85096351D01*
X108946676Y-85111946D01*
X108901522Y-85232394D01*
X108897895Y-85247649D01*
X108892369Y-85298514D01*
X108892000Y-85305328D01*
X108892000Y-85927885D01*
X107608500Y-85927885D01*
X107608500Y-85301866D01*
X107601745Y-85239684D01*
X107550615Y-85103295D01*
X107463261Y-84986739D01*
X107346705Y-84899385D01*
X107210316Y-84848255D01*
X107148134Y-84841500D01*
X105351866Y-84841500D01*
X105289684Y-84848255D01*
X105153295Y-84899385D01*
X105036739Y-84986739D01*
X104949385Y-85103295D01*
X104898255Y-85239684D01*
X104891500Y-85301866D01*
X104891500Y-87098134D01*
X104898255Y-87160316D01*
X104949385Y-87296705D01*
X105036739Y-87413261D01*
X105153295Y-87500615D01*
X105161704Y-87503767D01*
X105161705Y-87503768D01*
X105270451Y-87544535D01*
X105327216Y-87587176D01*
X105351916Y-87653738D01*
X105336709Y-87723087D01*
X105317316Y-87749568D01*
X105190629Y-87882138D01*
X105160363Y-87926507D01*
X105105455Y-87971507D01*
X105056277Y-87981500D01*
X103445939Y-87981500D01*
X103377818Y-87961498D01*
X103340147Y-87923941D01*
X103332822Y-87912617D01*
X103330014Y-87908277D01*
X103326532Y-87904450D01*
X103182798Y-87746488D01*
X103151746Y-87682642D01*
X103160141Y-87612143D01*
X103205317Y-87557375D01*
X103231761Y-87543706D01*
X103338297Y-87503767D01*
X103346705Y-87500615D01*
X103463261Y-87413261D01*
X103550615Y-87296705D01*
X103601745Y-87160316D01*
X103608500Y-87098134D01*
X103608500Y-85301866D01*
X103601745Y-85239684D01*
X103550615Y-85103295D01*
X103463261Y-84986739D01*
X103346705Y-84899385D01*
X103210316Y-84848255D01*
X103148134Y-84841500D01*
X101351866Y-84841500D01*
X101289684Y-84848255D01*
X101153295Y-84899385D01*
X101036739Y-84986739D01*
X100949385Y-85103295D01*
X100898255Y-85239684D01*
X100891500Y-85301866D01*
X100891500Y-87098134D01*
X100898255Y-87160316D01*
X100949385Y-87296705D01*
X101036739Y-87413261D01*
X101153295Y-87500615D01*
X101161704Y-87503767D01*
X101161705Y-87503768D01*
X101270451Y-87544535D01*
X101327216Y-87587176D01*
X101351916Y-87653738D01*
X101336709Y-87723087D01*
X101317316Y-87749568D01*
X101190629Y-87882138D01*
X101187720Y-87886403D01*
X101187714Y-87886411D01*
X101136493Y-87961498D01*
X101064743Y-88066680D01*
X100970688Y-88269305D01*
X100910989Y-88484570D01*
X100887251Y-88706695D01*
X100887548Y-88711848D01*
X100887548Y-88711851D01*
X100893011Y-88806590D01*
X100900110Y-88929715D01*
X100901247Y-88934761D01*
X100901248Y-88934767D01*
X100921119Y-89022939D01*
X100949222Y-89147639D01*
X101033266Y-89354616D01*
X101149987Y-89545088D01*
X101296250Y-89713938D01*
X101468126Y-89856632D01*
X101538595Y-89897811D01*
X101541445Y-89899476D01*
X101590169Y-89951114D01*
X101603240Y-90020897D01*
X101576509Y-90086669D01*
X101536055Y-90120027D01*
X101523607Y-90126507D01*
X101519474Y-90129610D01*
X101519471Y-90129612D01*
X101495247Y-90147800D01*
X101344965Y-90260635D01*
X101190629Y-90422138D01*
X101187720Y-90426403D01*
X101187714Y-90426411D01*
X101136493Y-90501498D01*
X101064743Y-90606680D01*
X100970688Y-90809305D01*
X100910989Y-91024570D01*
X100887251Y-91246695D01*
X100508500Y-91246695D01*
X100508500Y-80581278D01*
X100528502Y-80513157D01*
X100582158Y-80466664D01*
X100623489Y-80455760D01*
X127854491Y-78067076D01*
X127924098Y-78081049D01*
G37*
%TD.AperFunction*%
%TD*%
M02*
