%TF.GenerationSoftware,KiCad,Pcbnew,(6.0.5)*%
%TF.CreationDate,2023-02-02T09:11:55+00:00*%
%TF.ProjectId,Melty,4d656c74-792e-46b6-9963-61645f706362,rev?*%
%TF.SameCoordinates,Original*%
%TF.FileFunction,Copper,L1,Top*%
%TF.FilePolarity,Positive*%
%FSLAX46Y46*%
G04 Gerber Fmt 4.6, Leading zero omitted, Abs format (unit mm)*
G04 Created by KiCad (PCBNEW (6.0.5)) date 2023-02-02 09:11:55*
%MOMM*%
%LPD*%
G01*
G04 APERTURE LIST*
G04 Aperture macros list*
%AMRoundRect*
0 Rectangle with rounded corners*
0 $1 Rounding radius*
0 $2 $3 $4 $5 $6 $7 $8 $9 X,Y pos of 4 corners*
0 Add a 4 corners polygon primitive as box body*
4,1,4,$2,$3,$4,$5,$6,$7,$8,$9,$2,$3,0*
0 Add four circle primitives for the rounded corners*
1,1,$1+$1,$2,$3*
1,1,$1+$1,$4,$5*
1,1,$1+$1,$6,$7*
1,1,$1+$1,$8,$9*
0 Add four rect primitives between the rounded corners*
20,1,$1+$1,$2,$3,$4,$5,0*
20,1,$1+$1,$4,$5,$6,$7,0*
20,1,$1+$1,$6,$7,$8,$9,0*
20,1,$1+$1,$8,$9,$2,$3,0*%
%AMRotRect*
0 Rectangle, with rotation*
0 The origin of the aperture is its center*
0 $1 length*
0 $2 width*
0 $3 Rotation angle, in degrees counterclockwise*
0 Add horizontal line*
21,1,$1,$2,0,0,$3*%
%AMFreePoly0*
4,1,9,3.862500,-0.866500,0.737500,-0.866500,0.737500,-0.450000,-0.737500,-0.450000,-0.737500,0.450000,0.737500,0.450000,0.737500,0.866500,3.862500,0.866500,3.862500,-0.866500,3.862500,-0.866500,$1*%
G04 Aperture macros list end*
%TA.AperFunction,SMDPad,CuDef*%
%ADD10RoundRect,0.250000X-0.475000X0.250000X-0.475000X-0.250000X0.475000X-0.250000X0.475000X0.250000X0*%
%TD*%
%TA.AperFunction,SMDPad,CuDef*%
%ADD11RoundRect,0.135000X0.135000X0.185000X-0.135000X0.185000X-0.135000X-0.185000X0.135000X-0.185000X0*%
%TD*%
%TA.AperFunction,SMDPad,CuDef*%
%ADD12RoundRect,0.218750X0.026517X-0.335876X0.335876X-0.026517X-0.026517X0.335876X-0.335876X0.026517X0*%
%TD*%
%TA.AperFunction,SMDPad,CuDef*%
%ADD13RoundRect,0.135000X0.035355X-0.226274X0.226274X-0.035355X-0.035355X0.226274X-0.226274X0.035355X0*%
%TD*%
%TA.AperFunction,SMDPad,CuDef*%
%ADD14RoundRect,0.250000X0.512652X0.159099X0.159099X0.512652X-0.512652X-0.159099X-0.159099X-0.512652X0*%
%TD*%
%TA.AperFunction,SMDPad,CuDef*%
%ADD15RoundRect,0.135000X-0.135000X-0.185000X0.135000X-0.185000X0.135000X0.185000X-0.135000X0.185000X0*%
%TD*%
%TA.AperFunction,SMDPad,CuDef*%
%ADD16RoundRect,0.250000X0.250000X0.475000X-0.250000X0.475000X-0.250000X-0.475000X0.250000X-0.475000X0*%
%TD*%
%TA.AperFunction,SMDPad,CuDef*%
%ADD17R,2.200000X1.200000*%
%TD*%
%TA.AperFunction,SMDPad,CuDef*%
%ADD18R,6.400000X5.800000*%
%TD*%
%TA.AperFunction,SMDPad,CuDef*%
%ADD19R,0.510000X0.700000*%
%TD*%
%TA.AperFunction,SMDPad,CuDef*%
%ADD20RoundRect,0.135000X0.226274X0.035355X0.035355X0.226274X-0.226274X-0.035355X-0.035355X-0.226274X0*%
%TD*%
%TA.AperFunction,SMDPad,CuDef*%
%ADD21RoundRect,0.140000X-0.170000X0.140000X-0.170000X-0.140000X0.170000X-0.140000X0.170000X0.140000X0*%
%TD*%
%TA.AperFunction,SMDPad,CuDef*%
%ADD22RoundRect,0.135000X-0.185000X0.135000X-0.185000X-0.135000X0.185000X-0.135000X0.185000X0.135000X0*%
%TD*%
%TA.AperFunction,SMDPad,CuDef*%
%ADD23RoundRect,0.250000X0.159099X-0.512652X0.512652X-0.159099X-0.159099X0.512652X-0.512652X0.159099X0*%
%TD*%
%TA.AperFunction,SMDPad,CuDef*%
%ADD24RoundRect,0.140000X-0.140000X-0.170000X0.140000X-0.170000X0.140000X0.170000X-0.140000X0.170000X0*%
%TD*%
%TA.AperFunction,SMDPad,CuDef*%
%ADD25RoundRect,0.225000X-0.335876X-0.017678X-0.017678X-0.335876X0.335876X0.017678X0.017678X0.335876X0*%
%TD*%
%TA.AperFunction,SMDPad,CuDef*%
%ADD26RoundRect,0.135000X0.185000X-0.135000X0.185000X0.135000X-0.185000X0.135000X-0.185000X-0.135000X0*%
%TD*%
%TA.AperFunction,ComponentPad*%
%ADD27R,1.700000X1.700000*%
%TD*%
%TA.AperFunction,ComponentPad*%
%ADD28O,1.700000X1.700000*%
%TD*%
%TA.AperFunction,SMDPad,CuDef*%
%ADD29RoundRect,0.140000X0.140000X0.170000X-0.140000X0.170000X-0.140000X-0.170000X0.140000X-0.170000X0*%
%TD*%
%TA.AperFunction,SMDPad,CuDef*%
%ADD30RoundRect,0.150000X0.587500X0.150000X-0.587500X0.150000X-0.587500X-0.150000X0.587500X-0.150000X0*%
%TD*%
%TA.AperFunction,SMDPad,CuDef*%
%ADD31RoundRect,0.250000X-0.325000X-0.650000X0.325000X-0.650000X0.325000X0.650000X-0.325000X0.650000X0*%
%TD*%
%TA.AperFunction,SMDPad,CuDef*%
%ADD32RoundRect,0.140000X-0.021213X0.219203X-0.219203X0.021213X0.021213X-0.219203X0.219203X-0.021213X0*%
%TD*%
%TA.AperFunction,SMDPad,CuDef*%
%ADD33RoundRect,0.250000X0.250000X0.750000X-0.250000X0.750000X-0.250000X-0.750000X0.250000X-0.750000X0*%
%TD*%
%TA.AperFunction,SMDPad,CuDef*%
%ADD34R,0.900000X1.300000*%
%TD*%
%TA.AperFunction,SMDPad,CuDef*%
%ADD35FreePoly0,90.000000*%
%TD*%
%TA.AperFunction,SMDPad,CuDef*%
%ADD36RoundRect,0.250000X0.325000X0.650000X-0.325000X0.650000X-0.325000X-0.650000X0.325000X-0.650000X0*%
%TD*%
%TA.AperFunction,SMDPad,CuDef*%
%ADD37RoundRect,0.140000X0.170000X-0.140000X0.170000X0.140000X-0.170000X0.140000X-0.170000X-0.140000X0*%
%TD*%
%TA.AperFunction,SMDPad,CuDef*%
%ADD38RoundRect,0.250000X-0.250000X-0.475000X0.250000X-0.475000X0.250000X0.475000X-0.250000X0.475000X0*%
%TD*%
%TA.AperFunction,SMDPad,CuDef*%
%ADD39RoundRect,0.140000X0.021213X-0.219203X0.219203X-0.021213X-0.021213X0.219203X-0.219203X0.021213X0*%
%TD*%
%TA.AperFunction,SMDPad,CuDef*%
%ADD40RoundRect,0.135000X-0.226274X-0.035355X-0.035355X-0.226274X0.226274X0.035355X0.035355X0.226274X0*%
%TD*%
%TA.AperFunction,SMDPad,CuDef*%
%ADD41RoundRect,0.062500X-0.274004X0.185616X0.185616X-0.274004X0.274004X-0.185616X-0.185616X0.274004X0*%
%TD*%
%TA.AperFunction,SMDPad,CuDef*%
%ADD42RoundRect,0.062500X-0.274004X-0.185616X-0.185616X-0.274004X0.274004X0.185616X0.185616X0.274004X0*%
%TD*%
%TA.AperFunction,SMDPad,CuDef*%
%ADD43RotRect,2.450000X2.450000X315.000000*%
%TD*%
%TA.AperFunction,SMDPad,CuDef*%
%ADD44RoundRect,0.062500X0.062500X-0.325000X0.062500X0.325000X-0.062500X0.325000X-0.062500X-0.325000X0*%
%TD*%
%TA.AperFunction,SMDPad,CuDef*%
%ADD45RoundRect,0.062500X0.325000X-0.062500X0.325000X0.062500X-0.325000X0.062500X-0.325000X-0.062500X0*%
%TD*%
%TA.AperFunction,SMDPad,CuDef*%
%ADD46R,2.450000X2.450000*%
%TD*%
%TA.AperFunction,SMDPad,CuDef*%
%ADD47RoundRect,0.250000X-1.075000X0.375000X-1.075000X-0.375000X1.075000X-0.375000X1.075000X0.375000X0*%
%TD*%
%TA.AperFunction,ComponentPad*%
%ADD48R,1.350000X1.350000*%
%TD*%
%TA.AperFunction,ComponentPad*%
%ADD49O,1.350000X1.350000*%
%TD*%
%TA.AperFunction,SMDPad,CuDef*%
%ADD50RoundRect,0.140000X-0.219203X-0.021213X-0.021213X-0.219203X0.219203X0.021213X0.021213X0.219203X0*%
%TD*%
%TA.AperFunction,SMDPad,CuDef*%
%ADD51RoundRect,0.140000X0.219203X0.021213X0.021213X0.219203X-0.219203X-0.021213X-0.021213X-0.219203X0*%
%TD*%
%TA.AperFunction,SMDPad,CuDef*%
%ADD52RoundRect,0.250000X0.132583X-0.503814X0.503814X-0.132583X-0.132583X0.503814X-0.503814X0.132583X0*%
%TD*%
%TA.AperFunction,SMDPad,CuDef*%
%ADD53RoundRect,0.075000X-0.441942X-0.548008X0.548008X0.441942X0.441942X0.548008X-0.548008X-0.441942X0*%
%TD*%
%TA.AperFunction,SMDPad,CuDef*%
%ADD54RoundRect,0.075000X0.441942X-0.548008X0.548008X-0.441942X-0.441942X0.548008X-0.548008X0.441942X0*%
%TD*%
%TA.AperFunction,SMDPad,CuDef*%
%ADD55RotRect,1.400000X1.200000X315.000000*%
%TD*%
%TA.AperFunction,SMDPad,CuDef*%
%ADD56R,0.300000X0.600000*%
%TD*%
%TA.AperFunction,SMDPad,CuDef*%
%ADD57R,0.600000X0.300000*%
%TD*%
%TA.AperFunction,ViaPad*%
%ADD58C,0.500000*%
%TD*%
%TA.AperFunction,Conductor*%
%ADD59C,0.250000*%
%TD*%
%TA.AperFunction,Conductor*%
%ADD60C,0.300000*%
%TD*%
%TA.AperFunction,Conductor*%
%ADD61C,0.500000*%
%TD*%
%TA.AperFunction,Conductor*%
%ADD62C,0.800000*%
%TD*%
%TA.AperFunction,Conductor*%
%ADD63C,0.450000*%
%TD*%
G04 APERTURE END LIST*
D10*
%TO.P,C16,1*%
%TO.N,A1*%
X115214403Y-51805800D03*
%TO.P,C16,2*%
%TO.N,/BSTA1*%
X115214403Y-53705800D03*
%TD*%
D11*
%TO.P,R23,1*%
%TO.N,B1*%
X118569200Y-48844200D03*
%TO.P,R23,2*%
%TO.N,B1_Vsense*%
X117549200Y-48844200D03*
%TD*%
D12*
%TO.P,D2,1,K*%
%TO.N,/PWR_LED*%
X108895282Y-73640085D03*
%TO.P,D2,2,A*%
%TO.N,+3V3*%
X110008976Y-72526391D03*
%TD*%
D13*
%TO.P,R25,1*%
%TO.N,A2*%
X97683376Y-83977424D03*
%TO.P,R25,2*%
%TO.N,A2_Vsense*%
X98404624Y-83256176D03*
%TD*%
D11*
%TO.P,R19,1*%
%TO.N,/GLB2*%
X89283000Y-69621400D03*
%TO.P,R19,2*%
%TO.N,/GLB2'*%
X88263000Y-69621400D03*
%TD*%
D14*
%TO.P,C20,1*%
%TO.N,A2*%
X96886951Y-82485151D03*
%TO.P,C20,2*%
%TO.N,/BSTA2*%
X95543449Y-81141649D03*
%TD*%
D15*
%TO.P,R17,1*%
%TO.N,/GLB1*%
X123137200Y-71780400D03*
%TO.P,R17,2*%
%TO.N,/GLB1'*%
X124157200Y-71780400D03*
%TD*%
D16*
%TO.P,C22,1*%
%TO.N,B1*%
X119382979Y-50596800D03*
%TO.P,C22,2*%
%TO.N,/BSTB1*%
X117482979Y-50596800D03*
%TD*%
D17*
%TO.P,Q1,1,G*%
%TO.N,/GHA1'*%
X134800000Y-53480000D03*
D18*
%TO.P,Q1,2,D*%
%TO.N,+BATT*%
X128500000Y-51200000D03*
D17*
%TO.P,Q1,3,S*%
%TO.N,A1*%
X134800000Y-48920000D03*
%TD*%
D19*
%TO.P,U2,1,VEN*%
%TO.N,Heading_Red*%
X106365000Y-83024200D03*
%TO.P,U2,2,IOUT*%
%TO.N,Red_LED_anode*%
X107315000Y-83024200D03*
%TO.P,U2,3,IOUT*%
X108265000Y-83024200D03*
%TO.P,U2,4,GND*%
%TO.N,GND*%
X108265000Y-80704200D03*
%TO.P,U2,5,IOUT*%
%TO.N,Red_LED_anode*%
X107315000Y-80704200D03*
%TO.P,U2,6,REXT*%
%TO.N,/R_REXT*%
X106365000Y-80704200D03*
%TD*%
D20*
%TO.P,R13,1*%
%TO.N,/GLA2*%
X89362224Y-63530424D03*
%TO.P,R13,2*%
%TO.N,/GLA2'*%
X88640976Y-62809176D03*
%TD*%
D21*
%TO.P,C3,1*%
%TO.N,+3V3*%
X118922800Y-81308000D03*
%TO.P,C3,2*%
%TO.N,GND*%
X118922800Y-82268000D03*
%TD*%
D22*
%TO.P,R6,1*%
%TO.N,/GHA1*%
X124053600Y-53363400D03*
%TO.P,R6,2*%
%TO.N,/GHA1'*%
X124053600Y-54383400D03*
%TD*%
D23*
%TO.P,C21,1*%
%TO.N,C2*%
X90895249Y-87742951D03*
%TO.P,C21,2*%
%TO.N,/BSTC2*%
X92238751Y-86399449D03*
%TD*%
D11*
%TO.P,R30,1*%
%TO.N,C1_Vsense*%
X120982200Y-48844200D03*
%TO.P,R30,2*%
%TO.N,M1_COM*%
X119962200Y-48844200D03*
%TD*%
D24*
%TO.P,C5,1*%
%TO.N,+3.3VA*%
X112270600Y-83261200D03*
%TO.P,C5,2*%
%TO.N,GND*%
X113230600Y-83261200D03*
%TD*%
D25*
%TO.P,C9,1*%
%TO.N,+3V3*%
X107833792Y-66076192D03*
%TO.P,C9,2*%
%TO.N,GND*%
X108929808Y-67172208D03*
%TD*%
D26*
%TO.P,R4,1*%
%TO.N,+BATT*%
X115417600Y-77319600D03*
%TO.P,R4,2*%
%TO.N,VDC_sense*%
X115417600Y-76299600D03*
%TD*%
D16*
%TO.P,C19,1*%
%TO.N,C1*%
X123200204Y-50596800D03*
%TO.P,C19,2*%
%TO.N,/BSTC1*%
X121300204Y-50596800D03*
%TD*%
D22*
%TO.P,R15,1*%
%TO.N,/GLC2*%
X88138000Y-83919600D03*
%TO.P,R15,2*%
%TO.N,/GLC2'*%
X88138000Y-84939600D03*
%TD*%
D19*
%TO.P,U8,1,VEN*%
%TO.N,Heading_Green*%
X102478800Y-83024200D03*
%TO.P,U8,2,IOUT*%
%TO.N,Green_LED_anode*%
X103428800Y-83024200D03*
%TO.P,U8,3,IOUT*%
X104378800Y-83024200D03*
%TO.P,U8,4,GND*%
%TO.N,GND*%
X104378800Y-80704200D03*
%TO.P,U8,5,IOUT*%
%TO.N,Green_LED_anode*%
X103428800Y-80704200D03*
%TO.P,U8,6,REXT*%
%TO.N,/G_REXT*%
X102478800Y-80704200D03*
%TD*%
D27*
%TO.P,J11,1,Pin_1*%
%TO.N,GND*%
X80792000Y-48031800D03*
D28*
%TO.P,J11,2,Pin_2*%
%TO.N,+BATT*%
X83332000Y-48031800D03*
%TD*%
D11*
%TO.P,R18,1*%
%TO.N,/GHB2*%
X89283000Y-68021200D03*
%TO.P,R18,2*%
%TO.N,/GHB2'*%
X88263000Y-68021200D03*
%TD*%
D29*
%TO.P,C11,1*%
%TO.N,+3V3*%
X100098800Y-74701400D03*
%TO.P,C11,2*%
%TO.N,GND*%
X99138800Y-74701400D03*
%TD*%
D21*
%TO.P,C7,1*%
%TO.N,+5V*%
X118897400Y-83921600D03*
%TO.P,C7,2*%
%TO.N,GND*%
X118897400Y-84881600D03*
%TD*%
D27*
%TO.P,J1,1,Pin_1*%
%TO.N,+3V3*%
X89408000Y-49001600D03*
D28*
%TO.P,J1,2,Pin_2*%
%TO.N,SWDCLK*%
X89408000Y-51541600D03*
%TO.P,J1,3,Pin_3*%
%TO.N,GND*%
X89408000Y-54081600D03*
%TO.P,J1,4,Pin_4*%
%TO.N,SWDIO*%
X89408000Y-56621600D03*
%TO.P,J1,5,Pin_5*%
%TO.N,SWO*%
X89408000Y-59161600D03*
%TD*%
D30*
%TO.P,U1,1,GND*%
%TO.N,GND*%
X117294900Y-80833000D03*
%TO.P,U1,2,VO*%
%TO.N,+3V3*%
X117294900Y-78933000D03*
%TO.P,U1,3,VI*%
%TO.N,+BATT*%
X115419900Y-79883000D03*
%TD*%
D31*
%TO.P,C26,1*%
%TO.N,+BATT*%
X130222200Y-74726800D03*
%TO.P,C26,2*%
%TO.N,GND*%
X133172200Y-74726800D03*
%TD*%
D26*
%TO.P,R28,1*%
%TO.N,A1_Vsense*%
X112979200Y-50827400D03*
%TO.P,R28,2*%
%TO.N,M1_COM*%
X112979200Y-49807400D03*
%TD*%
D32*
%TO.P,C13,1*%
%TO.N,+3V3*%
X108060811Y-69154989D03*
%TO.P,C13,2*%
%TO.N,GND*%
X107381989Y-69833811D03*
%TD*%
D33*
%TO.P,J14,1,Pin_1*%
%TO.N,/R_REXT*%
X107670600Y-77546200D03*
%TD*%
D34*
%TO.P,U10,1,GND*%
%TO.N,GND*%
X120699400Y-85543600D03*
D35*
%TO.P,U10,2,VO*%
%TO.N,+5V*%
X122199400Y-85456100D03*
D34*
%TO.P,U10,3,VI*%
%TO.N,+BATT*%
X123699400Y-85543600D03*
%TD*%
D17*
%TO.P,Q5,1,G*%
%TO.N,/GHC1'*%
X134800000Y-85780000D03*
D18*
%TO.P,Q5,2,D*%
%TO.N,+BATT*%
X128500000Y-83500000D03*
D17*
%TO.P,Q5,3,S*%
%TO.N,C1*%
X134800000Y-81220000D03*
%TD*%
D15*
%TO.P,R16,1*%
%TO.N,/GHB1*%
X123137200Y-73685400D03*
%TO.P,R16,2*%
%TO.N,/GHB1'*%
X124157200Y-73685400D03*
%TD*%
D11*
%TO.P,R24,1*%
%TO.N,C1*%
X123192000Y-48844199D03*
%TO.P,R24,2*%
%TO.N,C1_Vsense*%
X122172000Y-48844199D03*
%TD*%
D36*
%TO.P,C18,1*%
%TO.N,+BATT*%
X82145400Y-66497200D03*
%TO.P,C18,2*%
%TO.N,GND*%
X79195400Y-66497200D03*
%TD*%
D20*
%TO.P,R12,1*%
%TO.N,/GHA2*%
X88752624Y-64876624D03*
%TO.P,R12,2*%
%TO.N,/GHA2'*%
X88031376Y-64155376D03*
%TD*%
D17*
%TO.P,Q9,1,G*%
%TO.N,/GHC2'*%
X77200000Y-88520000D03*
D18*
%TO.P,Q9,2,D*%
%TO.N,+BATT*%
X83500000Y-90800000D03*
D17*
%TO.P,Q9,3,S*%
%TO.N,C2*%
X77200000Y-93080000D03*
%TD*%
D13*
%TO.P,R32,1*%
%TO.N,B2_Vsense*%
X97810376Y-85831624D03*
%TO.P,R32,2*%
%TO.N,M2_COM*%
X98531624Y-85110376D03*
%TD*%
D37*
%TO.P,C14,1*%
%TO.N,+3V3*%
X108686600Y-56436200D03*
%TO.P,C14,2*%
%TO.N,GND*%
X108686600Y-55476200D03*
%TD*%
D22*
%TO.P,R7,1*%
%TO.N,/GLA1*%
X123977400Y-56665400D03*
%TO.P,R7,2*%
%TO.N,/GLA1'*%
X123977400Y-57685400D03*
%TD*%
D23*
%TO.P,C23,1*%
%TO.N,B2*%
X94019449Y-85558551D03*
%TO.P,C23,2*%
%TO.N,/BSTB2*%
X95362951Y-84215049D03*
%TD*%
D38*
%TO.P,C1,1*%
%TO.N,+BATT*%
X115407400Y-82829400D03*
%TO.P,C1,2*%
%TO.N,GND*%
X117307400Y-82829400D03*
%TD*%
D39*
%TO.P,C10,1*%
%TO.N,+3V3*%
X91303789Y-63941011D03*
%TO.P,C10,2*%
%TO.N,GND*%
X91982611Y-63262189D03*
%TD*%
D17*
%TO.P,Q8,1,G*%
%TO.N,/GLA2'*%
X77200000Y-53480000D03*
D18*
%TO.P,Q8,2,D*%
%TO.N,A2*%
X70900000Y-51200000D03*
D17*
%TO.P,Q8,3,S*%
%TO.N,GND*%
X77200000Y-48920000D03*
%TD*%
%TO.P,Q11,1,G*%
%TO.N,/GHB1'*%
X134800000Y-69630000D03*
D18*
%TO.P,Q11,2,D*%
%TO.N,+BATT*%
X128500000Y-67350000D03*
D17*
%TO.P,Q11,3,S*%
%TO.N,B1*%
X134800000Y-65070000D03*
%TD*%
D36*
%TO.P,C6,1*%
%TO.N,+BATT*%
X123674400Y-87925000D03*
%TO.P,C6,2*%
%TO.N,GND*%
X120724400Y-87925000D03*
%TD*%
D17*
%TO.P,Q14,1,G*%
%TO.N,/GLB2'*%
X77200000Y-69630000D03*
D18*
%TO.P,Q14,2,D*%
%TO.N,B2*%
X70900000Y-67350000D03*
D17*
%TO.P,Q14,3,S*%
%TO.N,GND*%
X77200000Y-65070000D03*
%TD*%
D40*
%TO.P,R31,1*%
%TO.N,A2_Vsense*%
X97810376Y-80817776D03*
%TO.P,R31,2*%
%TO.N,M2_COM*%
X98531624Y-81539024D03*
%TD*%
D36*
%TO.P,C17,1*%
%TO.N,+BATT*%
X82424800Y-51028600D03*
%TO.P,C17,2*%
%TO.N,GND*%
X79474800Y-51028600D03*
%TD*%
D31*
%TO.P,C25,1*%
%TO.N,+BATT*%
X129893800Y-59258200D03*
%TO.P,C25,2*%
%TO.N,GND*%
X132843800Y-59258200D03*
%TD*%
D17*
%TO.P,Q12,1,G*%
%TO.N,/GLB1'*%
X134800000Y-72370000D03*
D18*
%TO.P,Q12,2,D*%
%TO.N,B1*%
X141100000Y-74650000D03*
D17*
%TO.P,Q12,3,S*%
%TO.N,GND*%
X134800000Y-76930000D03*
%TD*%
%TO.P,Q7,1,G*%
%TO.N,/GHA2'*%
X77200000Y-56220000D03*
D18*
%TO.P,Q7,2,D*%
%TO.N,+BATT*%
X83500000Y-58500000D03*
D17*
%TO.P,Q7,3,S*%
%TO.N,A2*%
X77200000Y-60780000D03*
%TD*%
D41*
%TO.P,U7,1,INLA*%
%TO.N,A2_INL*%
X90232709Y-79117742D03*
%TO.P,U7,2,INLB*%
%TO.N,B2_INL*%
X89879155Y-79471295D03*
%TO.P,U7,3,INLC*%
%TO.N,C2_INL*%
X89525602Y-79824849D03*
%TO.P,U7,4,GVDD*%
%TO.N,+BATT*%
X89172049Y-80178402D03*
%TO.P,U7,5,MODE*%
%TO.N,unconnected-(U7-Pad5)*%
X88818495Y-80531955D03*
%TO.P,U7,6,GND*%
%TO.N,GND*%
X88464942Y-80885509D03*
D42*
%TO.P,U7,7*%
%TO.N,N/C*%
X88464942Y-81928491D03*
%TO.P,U7,8*%
X88818495Y-82282045D03*
%TO.P,U7,9,GLC*%
%TO.N,/GLC2*%
X89172049Y-82635598D03*
%TO.P,U7,10,GLB*%
%TO.N,/GLB2*%
X89525602Y-82989151D03*
%TO.P,U7,11,GLA*%
%TO.N,/GLA2*%
X89879155Y-83342705D03*
%TO.P,U7,12,SHC*%
%TO.N,C2*%
X90232709Y-83696258D03*
D41*
%TO.P,U7,13,GHC*%
%TO.N,/GHC2*%
X91275691Y-83696258D03*
%TO.P,U7,14,BSTC*%
%TO.N,/BSTC2*%
X91629245Y-83342705D03*
%TO.P,U7,15,SHB*%
%TO.N,B2*%
X91982798Y-82989151D03*
%TO.P,U7,16,GHB*%
%TO.N,/GHB2*%
X92336351Y-82635598D03*
%TO.P,U7,17,BSTB*%
%TO.N,/BSTB2*%
X92689905Y-82282045D03*
%TO.P,U7,18,SHA*%
%TO.N,A2*%
X93043458Y-81928491D03*
D42*
%TO.P,U7,19,GHA*%
%TO.N,/GHA2*%
X93043458Y-80885509D03*
%TO.P,U7,20,BSTA*%
%TO.N,/BSTA2*%
X92689905Y-80531955D03*
%TO.P,U7,21,DT*%
%TO.N,unconnected-(U7-Pad21)*%
X92336351Y-80178402D03*
%TO.P,U7,22,INHA*%
%TO.N,A2_INH*%
X91982798Y-79824849D03*
%TO.P,U7,23,INHB*%
%TO.N,B2_INH*%
X91629245Y-79471295D03*
%TO.P,U7,24,INHC*%
%TO.N,C2_INH*%
X91275691Y-79117742D03*
D43*
%TO.P,U7,25*%
%TO.N,N/C*%
X90754200Y-81407000D03*
%TD*%
D22*
%TO.P,R5,1*%
%TO.N,VDC_sense*%
X113792000Y-76299600D03*
%TO.P,R5,2*%
%TO.N,GND*%
X113792000Y-77319600D03*
%TD*%
D44*
%TO.P,U4,1,INLA*%
%TO.N,A1_INL*%
X117901400Y-56851500D03*
%TO.P,U4,2,INLB*%
%TO.N,B1_INL*%
X118401400Y-56851500D03*
%TO.P,U4,3,INLC*%
%TO.N,C1_INL*%
X118901400Y-56851500D03*
%TO.P,U4,4,GVDD*%
%TO.N,+BATT*%
X119401400Y-56851500D03*
%TO.P,U4,5,MODE*%
%TO.N,unconnected-(U4-Pad5)*%
X119901400Y-56851500D03*
%TO.P,U4,6,GND*%
%TO.N,GND*%
X120401400Y-56851500D03*
D45*
%TO.P,U4,7*%
%TO.N,N/C*%
X121138900Y-56114000D03*
%TO.P,U4,8*%
X121138900Y-55614000D03*
%TO.P,U4,9,GLC*%
%TO.N,/GLC1*%
X121138900Y-55114000D03*
%TO.P,U4,10,GLB*%
%TO.N,/GLB1*%
X121138900Y-54614000D03*
%TO.P,U4,11,GLA*%
%TO.N,/GLA1*%
X121138900Y-54114000D03*
%TO.P,U4,12,SHC*%
%TO.N,C1*%
X121138900Y-53614000D03*
D44*
%TO.P,U4,13,GHC*%
%TO.N,/GHC1*%
X120401400Y-52876500D03*
%TO.P,U4,14,BSTC*%
%TO.N,/BSTC1*%
X119901400Y-52876500D03*
%TO.P,U4,15,SHB*%
%TO.N,B1*%
X119401400Y-52876500D03*
%TO.P,U4,16,GHB*%
%TO.N,/GHB1*%
X118901400Y-52876500D03*
%TO.P,U4,17,BSTB*%
%TO.N,/BSTB1*%
X118401400Y-52876500D03*
%TO.P,U4,18,SHA*%
%TO.N,A1*%
X117901400Y-52876500D03*
D45*
%TO.P,U4,19,GHA*%
%TO.N,/GHA1*%
X117163900Y-53614000D03*
%TO.P,U4,20,BSTA*%
%TO.N,/BSTA1*%
X117163900Y-54114000D03*
%TO.P,U4,21,DT*%
%TO.N,unconnected-(U4-Pad21)*%
X117163900Y-54614000D03*
%TO.P,U4,22,INHA*%
%TO.N,A1_INH*%
X117163900Y-55114000D03*
%TO.P,U4,23,INHB*%
%TO.N,B1_INH*%
X117163900Y-55614000D03*
%TO.P,U4,24,INHC*%
%TO.N,C1_INH*%
X117163900Y-56114000D03*
D46*
%TO.P,U4,25*%
%TO.N,N/C*%
X119151400Y-54864000D03*
%TD*%
D17*
%TO.P,Q6,1,G*%
%TO.N,/GLC1'*%
X134800000Y-88520000D03*
D18*
%TO.P,Q6,2,D*%
%TO.N,C1*%
X141100000Y-90800000D03*
D17*
%TO.P,Q6,3,S*%
%TO.N,GND*%
X134800000Y-93080000D03*
%TD*%
D15*
%TO.P,R11,1*%
%TO.N,/GLC1*%
X123137200Y-78765400D03*
%TO.P,R11,2*%
%TO.N,/GLC1'*%
X124157200Y-78765400D03*
%TD*%
D11*
%TO.P,R14,1*%
%TO.N,/GHC2*%
X89105200Y-86563200D03*
%TO.P,R14,2*%
%TO.N,/GHC2'*%
X88085200Y-86563200D03*
%TD*%
D47*
%TO.P,L1,1*%
%TO.N,+3V3*%
X112572800Y-78965600D03*
%TO.P,L1,2*%
%TO.N,+3.3VA*%
X112572800Y-81765600D03*
%TD*%
D20*
%TO.P,R1,1*%
%TO.N,/BOOT0*%
X93121424Y-62641424D03*
%TO.P,R1,2*%
%TO.N,GND*%
X92400176Y-61920176D03*
%TD*%
D48*
%TO.P,J12,1,Pin_1*%
%TO.N,+BATT*%
X117157000Y-88519000D03*
D49*
%TO.P,J12,2,Pin_2*%
X115157000Y-88519000D03*
%TO.P,J12,3,Pin_3*%
%TO.N,Net-(J12-Pad3)*%
X113157000Y-88519000D03*
%TO.P,J12,4,Pin_4*%
%TO.N,Net-(J12-Pad4)*%
X111157000Y-88519000D03*
%TO.P,J12,5,Pin_5*%
%TO.N,+3V3*%
X109157000Y-88519000D03*
%TO.P,J12,6,Pin_6*%
%TO.N,IR_top*%
X107157000Y-88519000D03*
%TO.P,J12,7,Pin_7*%
%TO.N,GND*%
X105157000Y-88519000D03*
%TD*%
D15*
%TO.P,R26,1*%
%TO.N,B2*%
X95783400Y-86766400D03*
%TO.P,R26,2*%
%TO.N,B2_Vsense*%
X96803400Y-86766400D03*
%TD*%
D50*
%TO.P,C12,1*%
%TO.N,+3V3*%
X102174989Y-58207589D03*
%TO.P,C12,2*%
%TO.N,GND*%
X102853811Y-58886411D03*
%TD*%
D11*
%TO.P,R29,1*%
%TO.N,B1_Vsense*%
X116207000Y-48844200D03*
%TO.P,R29,2*%
%TO.N,M1_COM*%
X115187000Y-48844200D03*
%TD*%
D51*
%TO.P,C8,1*%
%TO.N,+3.3VA*%
X96021211Y-73796211D03*
%TO.P,C8,2*%
%TO.N,GND*%
X95342389Y-73117389D03*
%TD*%
D52*
%TO.P,R3,1*%
%TO.N,/PWR_LED*%
X107477815Y-72435318D03*
%TO.P,R3,2*%
%TO.N,GND*%
X108768285Y-71144848D03*
%TD*%
D17*
%TO.P,Q10,1,G*%
%TO.N,/GLC2'*%
X77200000Y-85780000D03*
D18*
%TO.P,Q10,2,D*%
%TO.N,C2*%
X70900000Y-83500000D03*
D17*
%TO.P,Q10,3,S*%
%TO.N,GND*%
X77200000Y-81220000D03*
%TD*%
D26*
%TO.P,R22,1*%
%TO.N,A1*%
X113004600Y-53037200D03*
%TO.P,R22,2*%
%TO.N,A1_Vsense*%
X113004600Y-52017200D03*
%TD*%
D53*
%TO.P,U3,1,VBAT*%
%TO.N,+3V3*%
X92979719Y-68061581D03*
%TO.P,U3,2,PC13*%
%TO.N,unconnected-(U3-Pad2)*%
X93333272Y-68415134D03*
%TO.P,U3,3,PC14*%
%TO.N,unconnected-(U3-Pad3)*%
X93686825Y-68768687D03*
%TO.P,U3,4,PC15*%
%TO.N,unconnected-(U3-Pad4)*%
X94040379Y-69122241D03*
%TO.P,U3,5,PF0*%
%TO.N,/OSC_in*%
X94393932Y-69475794D03*
%TO.P,U3,6,PF1*%
%TO.N,/OSC_out*%
X94747486Y-69829348D03*
%TO.P,U3,7,NRST*%
%TO.N,unconnected-(U3-Pad7)*%
X95101039Y-70182901D03*
%TO.P,U3,8,PC0*%
%TO.N,unconnected-(U3-Pad8)*%
X95454592Y-70536454D03*
%TO.P,U3,9,PC1*%
%TO.N,A2_Vsense*%
X95808146Y-70890008D03*
%TO.P,U3,10,PC2*%
%TO.N,unconnected-(U3-Pad10)*%
X96161699Y-71243561D03*
%TO.P,U3,11,PC3*%
%TO.N,unconnected-(U3-Pad11)*%
X96515252Y-71597114D03*
%TO.P,U3,12,VSSA*%
%TO.N,GND*%
X96868806Y-71950668D03*
%TO.P,U3,13,VDDA*%
%TO.N,+3.3VA*%
X97222359Y-72304221D03*
%TO.P,U3,14,PA0*%
%TO.N,B2_INL*%
X97575913Y-72657775D03*
%TO.P,U3,15,PA1*%
%TO.N,B2_INH*%
X97929466Y-73011328D03*
%TO.P,U3,16,PA2*%
%TO.N,IR_top*%
X98283019Y-73364881D03*
D54*
%TO.P,U3,17,PA3*%
%TO.N,B2_Vsense*%
X101005381Y-73364881D03*
%TO.P,U3,18,PF4*%
%TO.N,IR_bottom*%
X101358934Y-73011328D03*
%TO.P,U3,19,VDD*%
%TO.N,+3V3*%
X101712487Y-72657775D03*
%TO.P,U3,20,PA4*%
%TO.N,M2_COM*%
X102066041Y-72304221D03*
%TO.P,U3,21,PA5*%
%TO.N,M1_COM*%
X102419594Y-71950668D03*
%TO.P,U3,22,PA6*%
%TO.N,A2_INL*%
X102773148Y-71597114D03*
%TO.P,U3,23,PA7*%
%TO.N,Heading_Green*%
X103126701Y-71243561D03*
%TO.P,U3,24,PC4*%
%TO.N,Heading_Red*%
X103480254Y-70890008D03*
%TO.P,U3,25,PC5*%
%TO.N,Heading_Blue*%
X103833808Y-70536454D03*
%TO.P,U3,26,PB0*%
%TO.N,C2_Vsense*%
X104187361Y-70182901D03*
%TO.P,U3,27,PB1*%
%TO.N,A2_INH*%
X104540914Y-69829348D03*
%TO.P,U3,28,PB2*%
%TO.N,VDC_sense*%
X104894468Y-69475794D03*
%TO.P,U3,29,PB10*%
%TO.N,unconnected-(U3-Pad29)*%
X105248021Y-69122241D03*
%TO.P,U3,30,PB11*%
%TO.N,B1_Vsense*%
X105601575Y-68768687D03*
%TO.P,U3,31,VSS*%
%TO.N,GND*%
X105955128Y-68415134D03*
%TO.P,U3,32,VDD*%
%TO.N,+3V3*%
X106308681Y-68061581D03*
D53*
%TO.P,U3,33,PB12*%
%TO.N,unconnected-(U3-Pad33)*%
X106308681Y-65339219D03*
%TO.P,U3,34,PB13*%
%TO.N,A1_Vsense*%
X105955128Y-64985666D03*
%TO.P,U3,35,PB14*%
%TO.N,C1_Vsense*%
X105601575Y-64632113D03*
%TO.P,U3,36,PB15*%
%TO.N,unconnected-(U3-Pad36)*%
X105248021Y-64278559D03*
%TO.P,U3,37,PC6*%
%TO.N,unconnected-(U3-Pad37)*%
X104894468Y-63925006D03*
%TO.P,U3,38,PC7*%
%TO.N,C1_INL*%
X104540914Y-63571452D03*
%TO.P,U3,39,PC8*%
%TO.N,C1_INH*%
X104187361Y-63217899D03*
%TO.P,U3,40,PC9*%
%TO.N,unconnected-(U3-Pad40)*%
X103833808Y-62864346D03*
%TO.P,U3,41,PA8*%
%TO.N,PPM*%
X103480254Y-62510792D03*
%TO.P,U3,42,PA9*%
%TO.N,B1_INL*%
X103126701Y-62157239D03*
%TO.P,U3,43,PA10*%
%TO.N,B1_INH*%
X102773148Y-61803686D03*
%TO.P,U3,44,PA11*%
%TO.N,PWM2*%
X102419594Y-61450132D03*
%TO.P,U3,45,PA12*%
%TO.N,PWM3*%
X102066041Y-61096579D03*
%TO.P,U3,46,PA13*%
%TO.N,SWDIO*%
X101712487Y-60743025D03*
%TO.P,U3,47,VSS*%
%TO.N,GND*%
X101358934Y-60389472D03*
%TO.P,U3,48,VDD*%
%TO.N,+3V3*%
X101005381Y-60035919D03*
D54*
%TO.P,U3,49,PA14*%
%TO.N,SWDCLK*%
X98283019Y-60035919D03*
%TO.P,U3,50,PA15*%
%TO.N,unconnected-(U3-Pad50)*%
X97929466Y-60389472D03*
%TO.P,U3,51,PC10*%
%TO.N,SPIx_SCK*%
X97575913Y-60743025D03*
%TO.P,U3,52,PC11*%
%TO.N,SPIx_MISO*%
X97222359Y-61096579D03*
%TO.P,U3,53,PC12*%
%TO.N,SPIx_MOSI*%
X96868806Y-61450132D03*
%TO.P,U3,54,PD2*%
%TO.N,unconnected-(U3-Pad54)*%
X96515252Y-61803686D03*
%TO.P,U3,55,PB3*%
%TO.N,SWO*%
X96161699Y-62157239D03*
%TO.P,U3,56,PB4*%
%TO.N,unconnected-(U3-Pad56)*%
X95808146Y-62510792D03*
%TO.P,U3,57,PB5*%
%TO.N,unconnected-(U3-Pad57)*%
X95454592Y-62864346D03*
%TO.P,U3,58,PB6*%
%TO.N,A1_INL*%
X95101039Y-63217899D03*
%TO.P,U3,59,PB7*%
%TO.N,A1_INH*%
X94747486Y-63571452D03*
%TO.P,U3,60,BOOT0*%
%TO.N,/BOOT0*%
X94393932Y-63925006D03*
%TO.P,U3,61,PB8*%
%TO.N,C2_INL*%
X94040379Y-64278559D03*
%TO.P,U3,62,PB9*%
%TO.N,C2_INH*%
X93686825Y-64632113D03*
%TO.P,U3,63,VSS*%
%TO.N,GND*%
X93333272Y-64985666D03*
%TO.P,U3,64,VDD*%
%TO.N,+3V3*%
X92979719Y-65339219D03*
%TD*%
D48*
%TO.P,J13,1,Pin_1*%
%TO.N,Net-(J12-Pad3)*%
X115118400Y-85521800D03*
D49*
%TO.P,J13,2,Pin_2*%
%TO.N,Net-(J12-Pad4)*%
X113118400Y-85521800D03*
%TO.P,J13,3,Pin_3*%
%TO.N,Red_LED_anode*%
X111118400Y-85521800D03*
%TO.P,J13,4,Pin_4*%
%TO.N,Green_LED_anode*%
X109118400Y-85521800D03*
%TO.P,J13,5,Pin_5*%
%TO.N,+3V3*%
X107118400Y-85521800D03*
%TO.P,J13,6,Pin_6*%
%TO.N,IR_bottom*%
X105118400Y-85521800D03*
%TO.P,J13,7,Pin_7*%
%TO.N,GND*%
X103118400Y-85521800D03*
%TD*%
D15*
%TO.P,R10,1*%
%TO.N,/GHC1*%
X123137200Y-77038200D03*
%TO.P,R10,2*%
%TO.N,/GHC1'*%
X124157200Y-77038200D03*
%TD*%
D33*
%TO.P,J15,1,Pin_1*%
%TO.N,GND*%
X109880400Y-78079600D03*
%TD*%
D55*
%TO.P,Y1,1,1*%
%TO.N,/OSC_in*%
X91254942Y-73737223D03*
%TO.P,Y1,2*%
%TO.N,N/C*%
X92810577Y-75292858D03*
%TO.P,Y1,3,3*%
%TO.N,/OSC_out*%
X94012658Y-74090777D03*
%TO.P,Y1,4*%
%TO.N,N/C*%
X92457023Y-72535142D03*
%TD*%
D39*
%TO.P,C2,1*%
%TO.N,/OSC_in*%
X90272065Y-72231087D03*
%TO.P,C2,2*%
%TO.N,GND*%
X90950887Y-71552265D03*
%TD*%
D17*
%TO.P,Q13,1,G*%
%TO.N,/GHB2'*%
X77200000Y-72370000D03*
D18*
%TO.P,Q13,2,D*%
%TO.N,+BATT*%
X83500000Y-74650000D03*
D17*
%TO.P,Q13,3,S*%
%TO.N,B2*%
X77200000Y-76930000D03*
%TD*%
D56*
%TO.P,AC1,1,VDD_IO*%
%TO.N,+3V3*%
X107000000Y-55797600D03*
%TO.P,AC1,2,NC_1*%
%TO.N,unconnected-(AC1-Pad2)*%
X106500000Y-55797600D03*
%TO.P,AC1,3,NC_2*%
%TO.N,unconnected-(AC1-Pad3)*%
X106000000Y-55797600D03*
%TO.P,AC1,4,SCL_SPC*%
%TO.N,SPIx_SCK*%
X105500000Y-55797600D03*
%TO.P,AC1,5,GND_1*%
%TO.N,GND*%
X105000000Y-55797600D03*
D57*
%TO.P,AC1,6,SDA_SDI_SDO*%
%TO.N,SPIx_MOSI*%
X104800000Y-56497600D03*
%TO.P,AC1,7,SDO_SA0*%
%TO.N,SPIx_MISO*%
X104800000Y-56997600D03*
%TO.P,AC1,8,CS*%
%TO.N,GND*%
X104800000Y-57497600D03*
D56*
%TO.P,AC1,9,INT2*%
%TO.N,unconnected-(AC1-Pad9)*%
X105000000Y-58197600D03*
%TO.P,AC1,10,RSVD_1*%
%TO.N,GND*%
X105500000Y-58197600D03*
%TO.P,AC1,11,INT1*%
%TO.N,unconnected-(AC1-Pad11)*%
X106000000Y-58197600D03*
%TO.P,AC1,12,GND_2*%
%TO.N,GND*%
X106500000Y-58197600D03*
%TO.P,AC1,13,GND_3*%
X107000000Y-58197600D03*
D57*
%TO.P,AC1,14,VDD*%
%TO.N,+3V3*%
X107200000Y-57497600D03*
%TO.P,AC1,15,RSVD_2*%
X107200000Y-56997600D03*
%TO.P,AC1,16,GND_4*%
%TO.N,GND*%
X107200000Y-56497600D03*
%TD*%
D21*
%TO.P,C15,1*%
%TO.N,+3V3*%
X108686600Y-57559000D03*
%TO.P,C15,2*%
%TO.N,GND*%
X108686600Y-58519000D03*
%TD*%
D36*
%TO.P,C24,1*%
%TO.N,+BATT*%
X82170800Y-82042000D03*
%TO.P,C24,2*%
%TO.N,GND*%
X79220800Y-82042000D03*
%TD*%
D15*
%TO.P,R33,1*%
%TO.N,C2_Vsense*%
X95908400Y-88290400D03*
%TO.P,R33,2*%
%TO.N,M2_COM*%
X96928400Y-88290400D03*
%TD*%
D17*
%TO.P,Q2,1,G*%
%TO.N,/GLA1'*%
X134800000Y-56220000D03*
D18*
%TO.P,Q2,2,D*%
%TO.N,A1*%
X141100000Y-58500000D03*
D17*
%TO.P,Q2,3,S*%
%TO.N,GND*%
X134800000Y-60780000D03*
%TD*%
D31*
%TO.P,C27,1*%
%TO.N,+BATT*%
X129815800Y-93954600D03*
%TO.P,C27,2*%
%TO.N,GND*%
X132765800Y-93954600D03*
%TD*%
D39*
%TO.P,C4,1*%
%TO.N,/OSC_out*%
X94316715Y-76275737D03*
%TO.P,C4,2*%
%TO.N,GND*%
X94995537Y-75596915D03*
%TD*%
D15*
%TO.P,R27,1*%
%TO.N,C2*%
X93495400Y-88290400D03*
%TO.P,R27,2*%
%TO.N,C2_Vsense*%
X94515400Y-88290400D03*
%TD*%
D58*
%TO.N,+BATT*%
X115417600Y-78257400D03*
X115407400Y-80736400D03*
%TO.N,GND*%
X79019400Y-48895000D03*
X75488800Y-65024000D03*
X77241400Y-47447200D03*
X108254800Y-81508600D03*
X133019800Y-62585600D03*
X136982200Y-62204600D03*
X79121000Y-52603400D03*
X134747000Y-62052200D03*
X136601200Y-93065600D03*
X75209400Y-85369400D03*
X75285600Y-72034400D03*
X136245600Y-74980800D03*
X77216000Y-79984600D03*
X135026400Y-57581800D03*
X134797800Y-91871800D03*
X114427000Y-78130400D03*
X108929808Y-68315208D03*
X77190600Y-63855600D03*
X77216000Y-84226400D03*
X133273800Y-93065600D03*
X79095600Y-80365600D03*
X136652000Y-60731400D03*
X79095600Y-65049400D03*
X136677400Y-72390000D03*
X91300000Y-66100000D03*
X75514200Y-48895000D03*
X133045200Y-90043000D03*
X133680200Y-95199200D03*
X107975400Y-55727600D03*
X104394000Y-81584800D03*
X136626600Y-78689200D03*
X136677400Y-56515000D03*
X134797800Y-59537600D03*
X87172800Y-80391000D03*
X78333600Y-50876200D03*
X77190600Y-51841400D03*
X136169400Y-58674000D03*
X75514200Y-67081400D03*
X77216000Y-82499200D03*
X132359400Y-76504800D03*
X124841000Y-59639200D03*
X136525000Y-76936600D03*
X77190600Y-66294000D03*
X136804400Y-86029800D03*
X133070600Y-76936600D03*
X134797800Y-75768200D03*
X75285600Y-83362800D03*
X133070600Y-60756800D03*
X134848600Y-94234000D03*
X114173000Y-83261200D03*
X136728200Y-53746400D03*
X136702800Y-69723000D03*
X133654800Y-58267600D03*
X78841600Y-68199000D03*
X75285600Y-69113400D03*
X133070600Y-78105000D03*
X136601200Y-90017600D03*
X136779000Y-88366600D03*
X134797800Y-73888600D03*
X75260200Y-52603400D03*
X119684800Y-85189000D03*
X107880000Y-58197600D03*
X77190600Y-50139600D03*
X120699400Y-86638200D03*
X78943200Y-84429600D03*
X132207000Y-91592400D03*
X102100000Y-54900000D03*
X75285600Y-81203800D03*
X75488800Y-50952400D03*
X134797800Y-78079600D03*
X77216000Y-68072000D03*
X75209400Y-87960200D03*
X132867400Y-73329800D03*
%TO.N,+3V3*%
X103352600Y-65405000D03*
X110058200Y-83540600D03*
X95986600Y-65074800D03*
X103200200Y-54914800D03*
X91948000Y-64592200D03*
X101676200Y-58928000D03*
%TO.N,+3.3VA*%
X96064308Y-74776108D03*
X112572800Y-80619600D03*
%TO.N,SWDIO*%
X99593400Y-62001400D03*
%TO.N,SWDCLK*%
X97205800Y-58953400D03*
%TO.N,SWO*%
X95123000Y-61112400D03*
%TO.N,SPIx_SCK*%
X104100000Y-58200000D03*
X105700000Y-56800000D03*
%TO.N,A1_INL*%
X117373400Y-56845200D03*
X113588800Y-55753000D03*
%TO.N,B1_INL*%
X113334800Y-58064400D03*
X115595400Y-57734200D03*
%TO.N,A1*%
X113004600Y-53670200D03*
X131749800Y-47396400D03*
X115214400Y-50850800D03*
%TO.N,/GHA1*%
X122986800Y-52044600D03*
X117170200Y-53086000D03*
%TO.N,IR_top*%
X97358200Y-76631800D03*
%TO.N,IR_bottom*%
X102160999Y-73811521D03*
X104486536Y-76850385D03*
%TO.N,/GHA1'*%
X124764800Y-55092600D03*
X132359400Y-55092600D03*
%TO.N,/GHC1'*%
X131749800Y-77901800D03*
X124917200Y-77038200D03*
%TO.N,C1*%
X121138902Y-53105098D03*
X133680200Y-79933800D03*
%TO.N,/GLC1'*%
X131749800Y-78816200D03*
X124891800Y-78384400D03*
%TO.N,/GHA2'*%
X87325200Y-63449200D03*
X80289400Y-63449200D03*
%TO.N,A2*%
X80289400Y-64262000D03*
X93726000Y-82473800D03*
%TO.N,/GLA2'*%
X87325200Y-62636400D03*
X80314800Y-62611000D03*
%TO.N,/GHC2'*%
X87249000Y-86563200D03*
X79959200Y-86563200D03*
%TO.N,/GLC2'*%
X87249000Y-84937600D03*
X80289400Y-84937600D03*
%TO.N,/GHB1'*%
X131749800Y-72618600D03*
X124866400Y-73685400D03*
%TO.N,B1*%
X118948200Y-49479200D03*
X131749800Y-63093600D03*
%TO.N,/GLB1'*%
X132740400Y-71755000D03*
X124841000Y-71780400D03*
%TO.N,/GHB2'*%
X80060800Y-68021200D03*
X87249000Y-68021200D03*
%TO.N,/GLB2'*%
X87249000Y-69621400D03*
X79248000Y-69621400D03*
%TO.N,/GLC1*%
X122072400Y-77876400D03*
X120970900Y-58775600D03*
%TO.N,/GLB1*%
X123113800Y-70662800D03*
X123113800Y-58216800D03*
%TO.N,/GHC1*%
X120650000Y-52222400D03*
X122123200Y-76047600D03*
%TO.N,/GHB1*%
X122478800Y-73025000D03*
X118599800Y-51631000D03*
%TO.N,/GLB2*%
X88400000Y-70700000D03*
X88925400Y-83693000D03*
%TO.N,/GLA2*%
X89509600Y-84302600D03*
X89100000Y-71200000D03*
%TO.N,/GHB2*%
X93500000Y-83800000D03*
X89865200Y-68630800D03*
%TO.N,/GHA2*%
X89509600Y-65887600D03*
X93472000Y-81305400D03*
%TO.N,C2*%
X90601800Y-84048600D03*
X80600000Y-85725000D03*
X90474800Y-86283800D03*
%TO.N,B2*%
X80670400Y-68808600D03*
X92700000Y-84200000D03*
%TO.N,A2_INL*%
X97017104Y-78943947D03*
X95570100Y-77600000D03*
%TO.N,C2_INL*%
X93449893Y-76349893D03*
X95200000Y-65300000D03*
%TO.N,C2_INH*%
X93000000Y-78275981D03*
X95191311Y-66276489D03*
%TO.N,/GLA1'*%
X131699000Y-57683400D03*
X124841000Y-57683400D03*
%TO.N,M2_COM*%
X99060000Y-82270600D03*
X98641589Y-78441589D03*
%TO.N,M1_COM*%
X103301800Y-67716400D03*
X112236141Y-50518588D03*
%TO.N,A1_Vsense*%
X107200000Y-62400000D03*
X112344200Y-52197000D03*
%TO.N,B1_Vsense*%
X104600000Y-67700000D03*
X113900000Y-54200000D03*
%TO.N,C1_Vsense*%
X111300000Y-51700000D03*
X106375200Y-63195200D03*
%TO.N,A2_Vsense*%
X96164400Y-80051500D03*
X94970600Y-72110600D03*
%TO.N,B2_Vsense*%
X97700000Y-78000000D03*
X97332800Y-86309200D03*
%TO.N,C2_Vsense*%
X100153839Y-79229339D03*
X95199200Y-88290400D03*
%TO.N,VDC_sense*%
X106349800Y-70383400D03*
X111963200Y-73431400D03*
%TO.N,Heading_Red*%
X105181411Y-73600000D03*
X107100000Y-75600000D03*
%TO.N,Heading_Green*%
X106212141Y-75782428D03*
X104653144Y-74300144D03*
%TO.N,+5V*%
X121361200Y-81076800D03*
%TO.N,PPM*%
X104851200Y-61569600D03*
%TO.N,PWM2*%
X102285800Y-67665600D03*
%TO.N,PWM3*%
X101500000Y-68400000D03*
%TD*%
D59*
%TO.N,+BATT*%
X89170002Y-80178402D02*
X88671400Y-79679800D01*
X115407400Y-82829400D02*
X115407400Y-80736400D01*
X88671400Y-79679800D02*
X86233000Y-79679800D01*
X115419900Y-80723900D02*
X115407400Y-80736400D01*
X119401400Y-59559000D02*
X120294400Y-60452000D01*
X115407400Y-83022400D02*
X117157000Y-84772000D01*
X115419900Y-79883000D02*
X115419900Y-80723900D01*
X120294400Y-60452000D02*
X126085600Y-60452000D01*
X117157000Y-84772000D02*
X117157000Y-88519000D01*
X115407400Y-82829400D02*
X115407400Y-83022400D01*
X119401400Y-56851500D02*
X119401400Y-59559000D01*
X89172049Y-80178402D02*
X89170002Y-80178402D01*
X115417600Y-78257400D02*
X115417600Y-77319600D01*
D60*
%TO.N,GND*%
X107381989Y-69833811D02*
X107448178Y-69900000D01*
X98044000Y-70775474D02*
X96868806Y-71950668D01*
D61*
X118713693Y-84881600D02*
X117307400Y-83475307D01*
D60*
X105500000Y-57517200D02*
X105519600Y-57497600D01*
X95342389Y-73117389D02*
X95702085Y-73117389D01*
X107000000Y-58197600D02*
X106500000Y-58197600D01*
X104378800Y-81569600D02*
X104394000Y-81584800D01*
X108768285Y-71144848D02*
X108915200Y-70997933D01*
X107448178Y-69900000D02*
X108500000Y-69900000D01*
X98044000Y-69977000D02*
X98044000Y-70775474D01*
X94400000Y-66333016D02*
X98043984Y-69977000D01*
X99415600Y-71348600D02*
X99415600Y-74424600D01*
X93333272Y-64985666D02*
X93333272Y-64986344D01*
X107975400Y-56187400D02*
X107975400Y-55727600D01*
X92176600Y-63068200D02*
X92176600Y-62143752D01*
X117444400Y-82829400D02*
X118005800Y-82268000D01*
D61*
X119684800Y-85189000D02*
X120039400Y-85543600D01*
D60*
X99415600Y-74424600D02*
X99138800Y-74701400D01*
X91982611Y-63262189D02*
X91982611Y-63635005D01*
D62*
X120699400Y-85543600D02*
X120699400Y-86638200D01*
D61*
X120039400Y-85543600D02*
X120699400Y-85543600D01*
D59*
X88464942Y-80884830D02*
X87971112Y-80391000D01*
D60*
X94400000Y-66053072D02*
X94400000Y-66333016D01*
X87604600Y-59994800D02*
X89529976Y-61920176D01*
X89529976Y-61920176D02*
X92400176Y-61920176D01*
D63*
X109880400Y-78079600D02*
X109880400Y-78613000D01*
D60*
X95702085Y-73117389D02*
X96868806Y-71950668D01*
X118005800Y-82268000D02*
X117294900Y-81557100D01*
X92176600Y-62143752D02*
X92400176Y-61920176D01*
X87604600Y-55885000D02*
X87604600Y-59994800D01*
X113792000Y-77319600D02*
X113792000Y-77495400D01*
X95300000Y-75292452D02*
X94995537Y-75596915D01*
X104378800Y-80704200D02*
X104378800Y-81569600D01*
X120200000Y-58400000D02*
X120401400Y-58198600D01*
X107665200Y-56497600D02*
X107837000Y-56325800D01*
X117294900Y-82816900D02*
X117307400Y-82829400D01*
X108915200Y-69161660D02*
X108915200Y-68329816D01*
X98043984Y-69977000D02*
X98044000Y-69977000D01*
X91300000Y-66100000D02*
X91300000Y-71203152D01*
X104802400Y-55600000D02*
X105000000Y-55797600D01*
X105317022Y-59029600D02*
X102997000Y-59029600D01*
X124841000Y-59639200D02*
X120639200Y-59639200D01*
D59*
X120401400Y-56851500D02*
X120401400Y-57498600D01*
D60*
X102800000Y-55600000D02*
X104802400Y-55600000D01*
X118922800Y-82268000D02*
X118005800Y-82268000D01*
X102100000Y-54900000D02*
X102800000Y-55600000D01*
X105500000Y-58197600D02*
X105500000Y-57517200D01*
X107000000Y-58197600D02*
X107880000Y-58197600D01*
X107837000Y-56325800D02*
X107975400Y-56187400D01*
D59*
X87971112Y-80391000D02*
X87172800Y-80391000D01*
D60*
X108915200Y-70997933D02*
X108915200Y-69484800D01*
X107975400Y-55727600D02*
X108226800Y-55476200D01*
X120699400Y-87900000D02*
X120724400Y-87925000D01*
X89408000Y-54081600D02*
X87604600Y-55885000D01*
X106449022Y-57497600D02*
X105697400Y-57497600D01*
D61*
X118897400Y-84881600D02*
X118713693Y-84881600D01*
D60*
X93333272Y-64986344D02*
X94400000Y-66053072D01*
X120200000Y-59200000D02*
X120200000Y-58400000D01*
X102997000Y-59029600D02*
X102853811Y-58886411D01*
X117307400Y-82829400D02*
X117444400Y-82829400D01*
X108929808Y-67172208D02*
X108929808Y-68315208D01*
X108915200Y-69484800D02*
X108915200Y-69190876D01*
X102853811Y-58894595D02*
X101358934Y-60389472D01*
X108265000Y-80704200D02*
X108265000Y-81498400D01*
X113792000Y-77495400D02*
X114427000Y-78130400D01*
D61*
X117307400Y-83475307D02*
X117307400Y-82829400D01*
D60*
X95342389Y-73117389D02*
X95300000Y-73159778D01*
X120401400Y-58198600D02*
X120401400Y-57498600D01*
X106500000Y-57548578D02*
X106449022Y-57497600D01*
D61*
X119377400Y-84881600D02*
X119684800Y-85189000D01*
D60*
X106500000Y-58197600D02*
X106500000Y-57548578D01*
X105519600Y-57497600D02*
X105697400Y-57497600D01*
X120639200Y-59639200D02*
X120200000Y-59200000D01*
X107381989Y-69833811D02*
X107373805Y-69833811D01*
X108915200Y-68329816D02*
X108929808Y-68315208D01*
X105500000Y-58197600D02*
X105500000Y-58846622D01*
D62*
X120699400Y-86638200D02*
X120699400Y-87900000D01*
D60*
X108500000Y-69900000D02*
X108915200Y-69484800D01*
X117294900Y-81557100D02*
X117294900Y-82816900D01*
X107373805Y-69833811D02*
X105955128Y-68415134D01*
D61*
X118897400Y-84881600D02*
X119377400Y-84881600D01*
D60*
X105500000Y-58846622D02*
X105317022Y-59029600D01*
X113230600Y-83261200D02*
X114173000Y-83261200D01*
X108201400Y-58519000D02*
X107880000Y-58197600D01*
X108265000Y-81498400D02*
X108254800Y-81508600D01*
X117294900Y-80833000D02*
X117294900Y-81557100D01*
D63*
X108265000Y-80228400D02*
X108265000Y-80704200D01*
D60*
X108686600Y-58519000D02*
X108201400Y-58519000D01*
X98044000Y-69977000D02*
X99415600Y-71348600D01*
X91982611Y-63262189D02*
X92176600Y-63068200D01*
X91300000Y-71203152D02*
X90950887Y-71552265D01*
X91982611Y-63635005D02*
X93333272Y-64985666D01*
X108226800Y-55476200D02*
X108686600Y-55476200D01*
X107200000Y-56497600D02*
X107665200Y-56497600D01*
X95300000Y-73159778D02*
X95300000Y-75292452D01*
D63*
X109880400Y-78613000D02*
X108265000Y-80228400D01*
D60*
X105697400Y-57497600D02*
X104800000Y-57497600D01*
X102853811Y-58886411D02*
X102853811Y-58894595D01*
D59*
X88464942Y-80885509D02*
X88464942Y-80884830D01*
D60*
%TO.N,+3V3*%
X95986600Y-64744600D02*
X99898200Y-60833000D01*
X101005381Y-60035919D02*
X101005381Y-60030619D01*
X118303000Y-78933000D02*
X117294900Y-78933000D01*
X109400000Y-55100000D02*
X109100000Y-54800000D01*
X103352600Y-65405000D02*
X104547600Y-66600000D01*
X104847100Y-66600000D02*
X106308681Y-68061581D01*
X101676200Y-59359800D02*
X101676200Y-58928000D01*
X109157000Y-88519000D02*
X109157000Y-88024200D01*
X106999511Y-55234311D02*
X106999511Y-55797111D01*
X106308681Y-68061581D02*
X106308681Y-67601303D01*
X118922800Y-79552800D02*
X118303000Y-78933000D01*
X109400000Y-55900000D02*
X109400000Y-55100000D01*
X99974400Y-70983700D02*
X99974400Y-72263000D01*
X109974279Y-72491694D02*
X109974279Y-66794279D01*
X99974400Y-74577000D02*
X99974400Y-72313800D01*
X99974400Y-72313800D02*
X99999800Y-72288400D01*
X100098800Y-74701400D02*
X99974400Y-74577000D01*
X106308681Y-67601303D02*
X107833792Y-66076192D01*
X93485080Y-67556220D02*
X92979719Y-68061581D01*
X107118400Y-85985600D02*
X107118400Y-85521800D01*
X104547600Y-66600000D02*
X104847100Y-66600000D01*
X112572800Y-75090215D02*
X110008976Y-72526391D01*
X107200000Y-57497600D02*
X108625200Y-57497600D01*
X108125200Y-56997600D02*
X108686600Y-56436200D01*
X92232700Y-64592200D02*
X92979719Y-65339219D01*
X101000081Y-60035919D02*
X101005381Y-60035919D01*
X99898200Y-60833000D02*
X100203000Y-60833000D01*
X108686600Y-56436200D02*
X108863800Y-56436200D01*
X110058200Y-81480200D02*
X112572800Y-78965600D01*
X118922800Y-81308000D02*
X118922800Y-79552800D01*
X117294900Y-78933000D02*
X112605400Y-78933000D01*
X108625200Y-57497600D02*
X108686600Y-57559000D01*
X106999511Y-55797111D02*
X107000000Y-55797600D01*
X91303789Y-63947989D02*
X91948000Y-64592200D01*
X109974279Y-66794279D02*
X109256192Y-66076192D01*
X108863800Y-56436200D02*
X109400000Y-55900000D01*
X99974400Y-72263000D02*
X99999800Y-72288400D01*
X101005381Y-60030619D02*
X101676200Y-59359800D01*
X100406200Y-71882000D02*
X99999800Y-72288400D01*
X100203000Y-60833000D02*
X101000081Y-60035919D01*
X93485080Y-65844580D02*
X93485080Y-67556220D01*
X107200000Y-56997600D02*
X108125200Y-56997600D01*
X106308681Y-68061581D02*
X106308681Y-68062259D01*
X95986600Y-66995900D02*
X99974400Y-70983700D01*
X92979719Y-65339219D02*
X93485080Y-65844580D01*
X110008976Y-72526391D02*
X109974279Y-72491694D01*
X100936712Y-71882000D02*
X100406200Y-71882000D01*
X109157000Y-88024200D02*
X107118400Y-85985600D01*
X102174989Y-58207589D02*
X102168011Y-58207589D01*
X107046422Y-68800000D02*
X107705822Y-68800000D01*
X106680000Y-54914800D02*
X106999511Y-55234311D01*
X109256192Y-66076192D02*
X107833792Y-66076192D01*
X91303789Y-63941011D02*
X91303789Y-63947989D01*
X107433822Y-54800000D02*
X106999511Y-55234311D01*
X101712487Y-72657775D02*
X100936712Y-71882000D01*
X91948000Y-64592200D02*
X92232700Y-64592200D01*
X112572800Y-78965600D02*
X112572800Y-75090215D01*
X112605400Y-78933000D02*
X112572800Y-78965600D01*
X101676200Y-58699400D02*
X101676200Y-58928000D01*
X103200200Y-54914800D02*
X106680000Y-54914800D01*
X107705822Y-68800000D02*
X108060811Y-69154989D01*
X95986600Y-65074800D02*
X95986600Y-66995900D01*
X107200000Y-57497600D02*
X107200000Y-56997600D01*
X102168011Y-58207589D02*
X101676200Y-58699400D01*
X110058200Y-83540600D02*
X110058200Y-81480200D01*
X95986600Y-65074800D02*
X95986600Y-64744600D01*
X109100000Y-54800000D02*
X107433822Y-54800000D01*
X106308681Y-68062259D02*
X107046422Y-68800000D01*
%TO.N,+3.3VA*%
X112270600Y-83261200D02*
X112270600Y-83004600D01*
X112572800Y-80619600D02*
X112572800Y-81765600D01*
X96021211Y-73505369D02*
X97222359Y-72304221D01*
X96021211Y-73796211D02*
X96021211Y-73505369D01*
X112572800Y-82702400D02*
X112572800Y-81765600D01*
X96064308Y-74776108D02*
X96021211Y-74733011D01*
X112270600Y-83004600D02*
X112572800Y-82702400D01*
X96021211Y-74733011D02*
X96021211Y-73796211D01*
D59*
%TO.N,/BOOT0*%
X93799958Y-63319958D02*
X93121424Y-62641424D01*
X93799958Y-63331032D02*
X94393932Y-63925006D01*
X93799958Y-63331032D02*
X93799958Y-63319958D01*
%TO.N,SWDIO*%
X101702749Y-60743025D02*
X100444374Y-62001400D01*
X100444374Y-62001400D02*
X99593400Y-62001400D01*
X101712487Y-60743025D02*
X101702749Y-60743025D01*
%TO.N,SWDCLK*%
X98283019Y-60035919D02*
X98283019Y-60030619D01*
X98283019Y-60030619D02*
X97205800Y-58953400D01*
%TO.N,SWO*%
X96161699Y-62151099D02*
X95123000Y-61112400D01*
X96161699Y-62157239D02*
X96161699Y-62151099D01*
%TO.N,SPIx_SCK*%
X104100000Y-58200000D02*
X103373866Y-57473866D01*
X97802141Y-57473866D02*
X96570800Y-58705207D01*
X105714800Y-56787200D02*
X105714800Y-56447111D01*
X103226134Y-57473866D02*
X97802141Y-57473866D01*
X105500000Y-55797600D02*
X105500000Y-56198600D01*
X96570800Y-58705207D02*
X96570800Y-59737912D01*
X105500000Y-56198600D02*
X105714800Y-56413400D01*
X96570800Y-59737912D02*
X97575913Y-60743025D01*
X103373866Y-57473866D02*
X103226134Y-57473866D01*
%TO.N,SPIx_MOSI*%
X96868806Y-61450132D02*
X95571760Y-60153086D01*
X97325173Y-56474827D02*
X104425173Y-56474827D01*
X95571761Y-58228239D02*
X97325173Y-56474827D01*
X104425173Y-56474827D02*
X104427889Y-56472111D01*
X104427889Y-56472111D02*
X104800000Y-56472111D01*
X95571760Y-60153086D02*
X95571761Y-58228239D01*
%TO.N,SPIx_MISO*%
X104102400Y-56997600D02*
X104800000Y-56997600D01*
X104074347Y-56974347D02*
X104100000Y-57000000D01*
X97595232Y-56974347D02*
X104074347Y-56974347D01*
X96071280Y-59945500D02*
X96071281Y-59400000D01*
X104100000Y-57000000D02*
X104102400Y-56997600D01*
X96071281Y-58498298D02*
X97595232Y-56974347D01*
X96071281Y-59400000D02*
X96071281Y-58498298D01*
X97222359Y-61096579D02*
X96071280Y-59945500D01*
%TO.N,A1_INL*%
X98500000Y-54200000D02*
X109700000Y-54200000D01*
X95101039Y-63217899D02*
X94349520Y-62466380D01*
X109700000Y-54200000D02*
X111253000Y-55753000D01*
X94349520Y-62466380D02*
X94349520Y-58350480D01*
X94349520Y-58350480D02*
X98500000Y-54200000D01*
X111253000Y-55753000D02*
X113588800Y-55753000D01*
X117379700Y-56851500D02*
X117373400Y-56845200D01*
X117901400Y-56851500D02*
X117379700Y-56851500D01*
%TO.N,B1_INL*%
X110999200Y-60400000D02*
X104883940Y-60400000D01*
X104883940Y-60400000D02*
X103126701Y-62157239D01*
X118401400Y-56851500D02*
X118401400Y-57498600D01*
X118165800Y-57734200D02*
X115595400Y-57734200D01*
X118401400Y-57498600D02*
X118165800Y-57734200D01*
X113334800Y-58064400D02*
X110999200Y-60400000D01*
%TO.N,C1_INL*%
X104540914Y-63559086D02*
X104540914Y-63571452D01*
X117845311Y-61554689D02*
X106545311Y-61554689D01*
X118901400Y-56851500D02*
X118901400Y-60498600D01*
X106545311Y-61554689D02*
X104540914Y-63559086D01*
X118901400Y-60498600D02*
X117845311Y-61554689D01*
%TO.N,A1*%
X115214400Y-51805797D02*
X115214403Y-51805800D01*
X113004600Y-53670200D02*
X113004600Y-53037200D01*
X115214400Y-50850800D02*
X115214400Y-51805797D01*
X133273400Y-48920000D02*
X131749800Y-47396400D01*
X115214402Y-51805800D02*
X116830701Y-51805800D01*
X116830701Y-51805800D02*
X117901400Y-52876499D01*
X134800000Y-48920000D02*
X133273400Y-48920000D01*
%TO.N,/GLA1*%
X122714000Y-54114000D02*
X121138900Y-54114000D01*
X123977400Y-55377400D02*
X122714000Y-54114000D01*
X123977400Y-56665400D02*
X123977400Y-55377400D01*
%TO.N,A1_INH*%
X93900000Y-57540176D02*
X93970088Y-57470088D01*
X94711450Y-63571452D02*
X93900000Y-62760002D01*
X94747486Y-63571452D02*
X94711450Y-63571452D01*
X117163900Y-55114000D02*
X111614000Y-55114000D01*
X111614000Y-55114000D02*
X110000000Y-53500000D01*
X110000000Y-53500000D02*
X97940176Y-53500000D01*
X97940176Y-53500000D02*
X93970088Y-57470088D01*
X93900000Y-62760002D02*
X93900000Y-57540176D01*
%TO.N,B1_INH*%
X102773148Y-61767650D02*
X104740798Y-59800000D01*
X102773148Y-61803686D02*
X102773148Y-61767650D01*
X114786000Y-55614000D02*
X117163900Y-55614000D01*
X104740798Y-59800000D02*
X110600000Y-59800000D01*
X110600000Y-59800000D02*
X114786000Y-55614000D01*
%TO.N,C1_INH*%
X117163900Y-56114000D02*
X116186000Y-56114000D01*
X116186000Y-56114000D02*
X111400000Y-60900000D01*
X111400000Y-60900000D02*
X106505260Y-60900000D01*
X106505260Y-60900000D02*
X104187361Y-63217899D01*
%TO.N,/GHA1*%
X122986800Y-52044600D02*
X124053600Y-53111400D01*
X117163900Y-53092300D02*
X117163900Y-53614000D01*
X117170200Y-53086000D02*
X117163900Y-53092300D01*
X124053600Y-53111400D02*
X124053600Y-53363400D01*
%TO.N,/BSTA1*%
X116572601Y-54113998D02*
X116164403Y-53705800D01*
X117163901Y-54114000D02*
X116572601Y-54113998D01*
X116164403Y-53705800D02*
X115214402Y-53705800D01*
%TO.N,IR_top*%
X98300000Y-74200000D02*
X98500000Y-74000000D01*
X98300000Y-75700000D02*
X98300000Y-74200000D01*
X97368200Y-76631800D02*
X98300000Y-75700000D01*
X98500000Y-73581862D02*
X98300358Y-73382220D01*
X97358200Y-76631800D02*
X97368200Y-76631800D01*
X98500000Y-74000000D02*
X98500000Y-73581862D01*
%TO.N,IR_bottom*%
X101200481Y-79899519D02*
X101200481Y-83200481D01*
X102160999Y-73811521D02*
X102159127Y-73811521D01*
X102159127Y-73811521D02*
X101358934Y-73011328D01*
X102100000Y-84100000D02*
X104100000Y-84100000D01*
X105118400Y-85118400D02*
X105118400Y-85521800D01*
X104249615Y-76850385D02*
X101200481Y-79899519D01*
X104486536Y-76850385D02*
X104249615Y-76850385D01*
X104100000Y-84100000D02*
X105118400Y-85118400D01*
X101200481Y-83200481D02*
X102100000Y-84100000D01*
%TO.N,/GHA1'*%
X124764800Y-55092600D02*
X124762800Y-55092600D01*
X124762800Y-55092600D02*
X124053600Y-54383400D01*
X133972000Y-53480000D02*
X132359400Y-55092600D01*
X134800000Y-53480000D02*
X133972000Y-53480000D01*
%TO.N,/GHC1'*%
X131749800Y-77901800D02*
X133045200Y-79197200D01*
X124917200Y-77038200D02*
X124157200Y-77038200D01*
X133045200Y-79197200D02*
X133045200Y-84025200D01*
X133045200Y-84025200D02*
X134800000Y-85780000D01*
%TO.N,C1*%
X123200204Y-50699796D02*
X123200204Y-50596800D01*
X121138902Y-53105098D02*
X121138902Y-52761098D01*
X121138902Y-52761098D02*
X123200204Y-50699796D01*
X134800000Y-81053600D02*
X133680200Y-79933800D01*
X134800000Y-81220000D02*
X134800000Y-81053600D01*
X123200204Y-50596800D02*
X123200204Y-48852403D01*
X121138902Y-53613998D02*
X121138900Y-53614000D01*
X121138902Y-53105098D02*
X121138902Y-53613998D01*
X123200204Y-48852403D02*
X123192000Y-48844199D01*
%TO.N,/GLC1'*%
X124157200Y-78765400D02*
X124510800Y-78765400D01*
X132257800Y-85977800D02*
X134800000Y-88520000D01*
X131749800Y-78816200D02*
X132257800Y-79324200D01*
X132257800Y-79324200D02*
X132257800Y-85977800D01*
X124510800Y-78765400D02*
X124891800Y-78384400D01*
%TO.N,/GHA2'*%
X78968600Y-57683400D02*
X77505200Y-56220000D01*
X87325200Y-63449200D02*
X88031376Y-64155376D01*
X80289400Y-63449200D02*
X78968600Y-62128400D01*
X78968600Y-62128400D02*
X78968600Y-57683400D01*
X77505200Y-56220000D02*
X77200000Y-56220000D01*
%TO.N,A2*%
X80289400Y-64262000D02*
X79962000Y-64262000D01*
X93588767Y-82473800D02*
X93043458Y-81928491D01*
X96886951Y-83180999D02*
X97683376Y-83977424D01*
X96875600Y-82473800D02*
X96886951Y-82485151D01*
X93726000Y-82473800D02*
X93588767Y-82473800D01*
X77200000Y-61500000D02*
X77200000Y-60780000D01*
X96886951Y-82485151D02*
X96886951Y-83180999D01*
X93726000Y-82473800D02*
X96875600Y-82473800D01*
X79962000Y-64262000D02*
X77200000Y-61500000D01*
%TO.N,/GLA2'*%
X77200000Y-53480000D02*
X78016400Y-53480000D01*
X79552800Y-55016400D02*
X79552800Y-61849000D01*
X79552800Y-61849000D02*
X80314800Y-62611000D01*
X78016400Y-53480000D02*
X79552800Y-55016400D01*
X87325200Y-62636400D02*
X88468200Y-62636400D01*
X88468200Y-62636400D02*
X88640976Y-62809176D01*
%TO.N,/GHC2'*%
X79959200Y-86563200D02*
X78002400Y-88520000D01*
X78002400Y-88520000D02*
X77200000Y-88520000D01*
X87249000Y-86563200D02*
X88085200Y-86563200D01*
%TO.N,/GLC2'*%
X80289400Y-84937600D02*
X79629000Y-84937600D01*
X78786600Y-85780000D02*
X77200000Y-85780000D01*
X87249000Y-84937600D02*
X88136000Y-84937600D01*
X79629000Y-84937600D02*
X78786600Y-85780000D01*
X88136000Y-84937600D02*
X88138000Y-84939600D01*
%TO.N,/GHB1'*%
X124866400Y-73685400D02*
X124157200Y-73685400D01*
X133450000Y-69630000D02*
X134800000Y-69630000D01*
X131749800Y-71330200D02*
X133450000Y-69630000D01*
X131749800Y-72618600D02*
X131749800Y-71330200D01*
%TO.N,B1*%
X134800000Y-65070000D02*
X133726200Y-65070000D01*
X118948200Y-49448200D02*
X118569200Y-49069200D01*
X119382979Y-49913979D02*
X118948200Y-49479200D01*
X119401400Y-50615221D02*
X119382979Y-50596800D01*
X133726200Y-65070000D02*
X131749800Y-63093600D01*
X118948200Y-49479200D02*
X118948200Y-49448200D01*
X119382979Y-50596800D02*
X119382979Y-49913979D01*
X118569200Y-49069200D02*
X118569200Y-48844200D01*
X119401400Y-52876500D02*
X119401400Y-50615221D01*
%TO.N,/GLB1'*%
X124841000Y-71780400D02*
X124157200Y-71780400D01*
X133355400Y-72370000D02*
X134800000Y-72370000D01*
X132740400Y-71755000D02*
X133355400Y-72370000D01*
%TO.N,/GHB2'*%
X78048800Y-72370000D02*
X77200000Y-72370000D01*
X87249000Y-68021200D02*
X88263000Y-68021200D01*
X80060800Y-70358000D02*
X78048800Y-72370000D01*
X80060800Y-68021200D02*
X80060800Y-70358000D01*
%TO.N,/GLB2'*%
X79239400Y-69630000D02*
X77200000Y-69630000D01*
X87249000Y-69621400D02*
X88263000Y-69621400D01*
X79248000Y-69621400D02*
X79239400Y-69630000D01*
%TO.N,/GLC1*%
X121138900Y-55114000D02*
X121714000Y-55114000D01*
X122000000Y-55400000D02*
X122000000Y-57746500D01*
X122000000Y-57746500D02*
X120970900Y-58775600D01*
X122072400Y-77876400D02*
X122961400Y-78765400D01*
X121714000Y-55114000D02*
X122000000Y-55400000D01*
X122961400Y-78765400D02*
X123137200Y-78765400D01*
%TO.N,/GLB1*%
X123113800Y-70662800D02*
X123113800Y-71757000D01*
X122110000Y-54610000D02*
X121142900Y-54610000D01*
X123113800Y-71757000D02*
X123137200Y-71780400D01*
X123113800Y-55613800D02*
X122110000Y-54610000D01*
X123113800Y-58216800D02*
X123113800Y-55613800D01*
X121142900Y-54610000D02*
X121138900Y-54614000D01*
%TO.N,/GHC1*%
X122146600Y-76047600D02*
X123137200Y-77038200D01*
X120650000Y-52222400D02*
X120401400Y-52471000D01*
X122123200Y-76047600D02*
X122146600Y-76047600D01*
X120401400Y-52471000D02*
X120401400Y-52876500D01*
%TO.N,/BSTC1*%
X119901401Y-52876499D02*
X119901403Y-51995600D01*
X119901403Y-51995600D02*
X121300200Y-50596800D01*
%TO.N,/GHB1*%
X118901402Y-51932602D02*
X118901402Y-52876500D01*
X122478800Y-73025000D02*
X123137200Y-73683400D01*
X118599800Y-51631000D02*
X118901402Y-51932602D01*
X123137200Y-73683400D02*
X123137200Y-73685400D01*
%TO.N,/BSTB1*%
X118401402Y-52336000D02*
X117482979Y-51417577D01*
X117482979Y-51417577D02*
X117482982Y-50596800D01*
X118401400Y-52876499D02*
X118401402Y-52336000D01*
%TO.N,/GLC2*%
X88807647Y-83000000D02*
X88500000Y-83000000D01*
X89172049Y-82635598D02*
X88807647Y-83000000D01*
X88138000Y-83362000D02*
X88138000Y-83919600D01*
X88500000Y-83000000D02*
X88138000Y-83362000D01*
%TO.N,/GLB2*%
X88925400Y-83693000D02*
X88925400Y-83589353D01*
X88925400Y-83589353D02*
X89525602Y-82989151D01*
X88400000Y-70700000D02*
X89283000Y-69817000D01*
X89283000Y-69817000D02*
X89283000Y-69621400D01*
%TO.N,/GLA2*%
X89509600Y-83712260D02*
X89879155Y-83342705D01*
X89362224Y-63530424D02*
X90489711Y-64657911D01*
X90489711Y-69810289D02*
X89100000Y-71200000D01*
X89509600Y-84302600D02*
X89509600Y-83712260D01*
X90489711Y-64657911D02*
X90489711Y-69810289D01*
%TO.N,/GHC2*%
X91499280Y-83925308D02*
X91414600Y-83840628D01*
X91499280Y-84319520D02*
X91499280Y-83925308D01*
X89255600Y-86563200D02*
X91499280Y-84319520D01*
X89105200Y-86563200D02*
X89255600Y-86563200D01*
%TO.N,/BSTC2*%
X91998800Y-86159498D02*
X92238751Y-86399449D01*
X91629245Y-83342705D02*
X91629245Y-83348845D01*
X91629245Y-83348845D02*
X91998800Y-83718400D01*
X91998800Y-83718400D02*
X91998800Y-86159498D01*
%TO.N,/GHB2*%
X89865200Y-68630800D02*
X89865200Y-68603400D01*
X93500000Y-83800000D02*
X93500000Y-83799247D01*
X89865200Y-68603400D02*
X89283000Y-68021200D01*
X93500000Y-83799247D02*
X92336351Y-82635598D01*
%TO.N,/BSTB2*%
X95362951Y-84215049D02*
X95362951Y-84212351D01*
X94234000Y-83083400D02*
X93491260Y-83083400D01*
X95362951Y-84212351D02*
X94234000Y-83083400D01*
X93491260Y-83083400D02*
X92689905Y-82282045D01*
%TO.N,/GHA2*%
X89509600Y-65633600D02*
X89509600Y-65887600D01*
X93463349Y-81305400D02*
X93043458Y-80885509D01*
X88752624Y-64876624D02*
X89509600Y-65633600D01*
X93472000Y-81305400D02*
X93463349Y-81305400D01*
%TO.N,/BSTA2*%
X92689905Y-80531955D02*
X92696045Y-80531955D01*
X94589600Y-80187800D02*
X95543449Y-81141649D01*
X92696045Y-80531955D02*
X93040200Y-80187800D01*
X93040200Y-80187800D02*
X94589600Y-80187800D01*
%TO.N,C2*%
X90474800Y-87322502D02*
X90895249Y-87742951D01*
X77920000Y-93080000D02*
X77200000Y-93080000D01*
X90474800Y-86283800D02*
X90483800Y-86283800D01*
X90474800Y-86283800D02*
X90474800Y-87322502D01*
X90585051Y-84048600D02*
X90232709Y-83696258D01*
X90895249Y-87742951D02*
X90942951Y-87742951D01*
X80600000Y-87000000D02*
X79600000Y-88000000D01*
X91490400Y-88290400D02*
X93495400Y-88290400D01*
X90601800Y-84048600D02*
X90585051Y-84048600D01*
X79600000Y-88000000D02*
X79600000Y-91400000D01*
X79600000Y-91400000D02*
X77920000Y-93080000D01*
X80600000Y-85725000D02*
X80600000Y-87000000D01*
X90942951Y-87742951D02*
X91490400Y-88290400D01*
%TO.N,B2*%
X94019449Y-85558551D02*
X94058551Y-85558551D01*
X95266400Y-86766400D02*
X95783400Y-86766400D01*
X80670400Y-70629600D02*
X79300000Y-72000000D01*
X94058551Y-85558551D02*
X95266400Y-86766400D01*
X92700000Y-84200000D02*
X92700000Y-84239102D01*
X79300000Y-74830000D02*
X77200000Y-76930000D01*
X92700000Y-84200000D02*
X92700000Y-83706353D01*
X79300000Y-72000000D02*
X79300000Y-74830000D01*
X80670400Y-68808600D02*
X80670400Y-70629600D01*
X92700000Y-84239102D02*
X94019449Y-85558551D01*
X92700000Y-83706353D02*
X91982798Y-82989151D01*
%TO.N,A2_INL*%
X102797114Y-71597114D02*
X103700000Y-72500000D01*
X102773148Y-71597114D02*
X102797114Y-71597114D01*
X93585657Y-77585657D02*
X92312344Y-77585657D01*
X90232709Y-78367291D02*
X90232709Y-79117742D01*
X91300480Y-77299520D02*
X90232709Y-78367291D01*
X93585657Y-77585657D02*
X95555757Y-77585657D01*
X99400000Y-79100000D02*
X103700000Y-74800000D01*
X92312344Y-77585657D02*
X92026207Y-77299520D01*
X97017104Y-78943947D02*
X97173157Y-79100000D01*
X103700000Y-72500000D02*
X103700000Y-72800000D01*
X103700000Y-72800000D02*
X103700000Y-72600000D01*
X95555757Y-77585657D02*
X95570100Y-77600000D01*
X97173157Y-79100000D02*
X99400000Y-79100000D01*
X92026207Y-77299520D02*
X91300480Y-77299520D01*
X103700000Y-74800000D02*
X103700000Y-72800000D01*
%TO.N,B2_INL*%
X92519251Y-77086137D02*
X94637456Y-77086137D01*
X97575913Y-72657775D02*
X97575913Y-72692451D01*
X92233113Y-76800000D02*
X92519251Y-77086137D01*
X89521006Y-79113825D02*
X89521006Y-78085422D01*
X90806428Y-76800000D02*
X92233113Y-76800000D01*
X94637456Y-77086137D02*
X96834182Y-74889411D01*
X96834182Y-74889411D02*
X96834182Y-73434182D01*
X89879155Y-79471295D02*
X89879155Y-79471974D01*
X97575913Y-72692451D02*
X96834182Y-73434182D01*
X89521006Y-78085422D02*
X90806428Y-76800000D01*
X89879155Y-79471974D02*
X89521006Y-79113825D01*
%TO.N,C2_INL*%
X89525602Y-79824849D02*
X89000000Y-79299247D01*
X90600000Y-76300000D02*
X92439541Y-76300000D01*
X92439541Y-76300000D02*
X92726158Y-76586617D01*
X93213169Y-76586617D02*
X93449893Y-76349893D01*
X89000000Y-79299247D02*
X89000000Y-77900000D01*
X94634353Y-64872533D02*
X94040379Y-64278559D01*
X89000000Y-77900000D02*
X90600000Y-76300000D01*
X94772533Y-64872533D02*
X94634353Y-64872533D01*
X92726158Y-76586617D02*
X93213169Y-76586617D01*
X95200000Y-65300000D02*
X94772533Y-64872533D01*
%TO.N,A2_INH*%
X96996093Y-80000000D02*
X100300000Y-80000000D01*
X106200000Y-72600000D02*
X106200000Y-71488434D01*
X106500000Y-74400000D02*
X106500000Y-72900000D01*
X106200000Y-71488434D02*
X104540914Y-69829348D01*
X106500000Y-72900000D02*
X106200000Y-72600000D01*
X91982798Y-79824849D02*
X92407647Y-79400000D01*
X100300000Y-80000000D02*
X104600000Y-75700000D01*
X92407647Y-79400000D02*
X96396093Y-79400000D01*
X96396093Y-79400000D02*
X96996093Y-80000000D01*
X105200000Y-75700000D02*
X106500000Y-74400000D01*
X104600000Y-75700000D02*
X105200000Y-75700000D01*
%TO.N,B2_INH*%
X96500000Y-77600000D02*
X95199519Y-78900481D01*
X97929466Y-73011328D02*
X97333702Y-73607092D01*
X97333702Y-73607092D02*
X97333701Y-75266299D01*
X92200740Y-78900480D02*
X91629924Y-79471295D01*
X95199519Y-78900481D02*
X92200740Y-78900480D01*
X97333701Y-75266299D02*
X96500000Y-76100000D01*
X96500000Y-76100000D02*
X96500000Y-77600000D01*
X91629924Y-79471295D02*
X91629245Y-79471295D01*
%TO.N,C2_INH*%
X92952441Y-78323540D02*
X93000000Y-78275981D01*
X92069893Y-78323540D02*
X91275691Y-79117742D01*
X93686825Y-64632113D02*
X95191311Y-66136599D01*
X92069893Y-78323540D02*
X92952441Y-78323540D01*
X95191311Y-66136599D02*
X95191311Y-66276489D01*
%TO.N,/GLA1'*%
X133336600Y-57683400D02*
X134800000Y-56220000D01*
X124839000Y-57685400D02*
X123977400Y-57685400D01*
X131699000Y-57683400D02*
X133336600Y-57683400D01*
X124841000Y-57683400D02*
X124839000Y-57685400D01*
%TO.N,M2_COM*%
X99140418Y-82351018D02*
X99060000Y-82270600D01*
X97109600Y-88290400D02*
X98900000Y-86500000D01*
X98531624Y-81742224D02*
X99060000Y-82270600D01*
X98900000Y-86500000D02*
X98900000Y-85478752D01*
X103000000Y-74400000D02*
X103000000Y-73238180D01*
X96928400Y-88290400D02*
X97109600Y-88290400D01*
X98589624Y-85110376D02*
X99140418Y-84559582D01*
X98641589Y-78441589D02*
X98958411Y-78441589D01*
X98531624Y-85110376D02*
X98589624Y-85110376D01*
X98900000Y-85478752D02*
X98531624Y-85110376D01*
X99140418Y-84559582D02*
X99140418Y-82351018D01*
X103000000Y-73238180D02*
X102066041Y-72304221D01*
X98958411Y-78441589D02*
X103000000Y-74400000D01*
X98531624Y-81539024D02*
X98531624Y-81742224D01*
%TO.N,M1_COM*%
X112947329Y-49807400D02*
X112236141Y-50518588D01*
X115187000Y-48513000D02*
X115187000Y-48844200D01*
X115600000Y-48100000D02*
X115187000Y-48513000D01*
X119100000Y-48100000D02*
X115600000Y-48100000D01*
X119844200Y-48844200D02*
X119100000Y-48100000D01*
X119962200Y-48844200D02*
X119844200Y-48844200D01*
X101600000Y-71100000D02*
X102419594Y-71919594D01*
X103301800Y-67716400D02*
X101600000Y-69418200D01*
X101600000Y-69418200D02*
X101600000Y-71100000D01*
X115187000Y-48844200D02*
X113942400Y-48844200D01*
X113942400Y-48844200D02*
X112979200Y-49807400D01*
X112979200Y-49807400D02*
X112947329Y-49807400D01*
X102419594Y-71919594D02*
X102419594Y-71950668D01*
%TO.N,A1_Vsense*%
X112979200Y-51991800D02*
X113004600Y-52017200D01*
X113004600Y-52017200D02*
X112524000Y-52017200D01*
X112524000Y-52017200D02*
X112344200Y-52197000D01*
X107200000Y-62400000D02*
X107200000Y-63740794D01*
X107200000Y-63740794D02*
X105955128Y-64985666D01*
X112979200Y-50827400D02*
X112979200Y-51991800D01*
%TO.N,B1_Vsense*%
X105601575Y-68768687D02*
X104600000Y-67767112D01*
X104600000Y-67767112D02*
X104600000Y-67700000D01*
X116207000Y-48993000D02*
X115400000Y-49800000D01*
X117549200Y-48844200D02*
X116207000Y-48844200D01*
X114800000Y-49900000D02*
X114000000Y-50700000D01*
X115400000Y-49800000D02*
X115300000Y-49900000D01*
X113900000Y-50800000D02*
X113900000Y-54200000D01*
X116207000Y-48844200D02*
X116207000Y-48993000D01*
X114000000Y-50700000D02*
X113900000Y-50800000D01*
X115300000Y-49900000D02*
X114800000Y-49900000D01*
%TO.N,C1_Vsense*%
X106375200Y-63858488D02*
X106375200Y-63195200D01*
X111300000Y-51700000D02*
X111600000Y-51400000D01*
X122172000Y-48844199D02*
X120982200Y-48844200D01*
X114000000Y-47500000D02*
X120200000Y-47500000D01*
X120200000Y-47500000D02*
X120982200Y-48282200D01*
X106375200Y-63858488D02*
X105601575Y-64632113D01*
X111600000Y-51400000D02*
X111600000Y-49900000D01*
X111600000Y-49900000D02*
X114000000Y-47500000D01*
X120982200Y-48282200D02*
X120982200Y-48844200D01*
%TO.N,A2_Vsense*%
X94970600Y-72110600D02*
X94970600Y-71727554D01*
X97728377Y-80899775D02*
X97810376Y-80817776D01*
X96712900Y-80600000D02*
X96164400Y-80051500D01*
X97728377Y-81771622D02*
X97728377Y-80899775D01*
X97810376Y-80817776D02*
X97592600Y-80600000D01*
X98404624Y-82447869D02*
X97728377Y-81771622D01*
X98404624Y-83256176D02*
X98404624Y-82447869D01*
X97592600Y-80600000D02*
X96712900Y-80600000D01*
X94970600Y-71727554D02*
X95808146Y-70890008D01*
%TO.N,B2_Vsense*%
X101600000Y-73959500D02*
X101005381Y-73364881D01*
X98200000Y-78000000D02*
X101600000Y-74600000D01*
X101600000Y-74600000D02*
X101600000Y-73959500D01*
X96803400Y-86766400D02*
X96875600Y-86766400D01*
X96875600Y-86766400D02*
X97810376Y-85831624D01*
X97700000Y-78000000D02*
X98200000Y-78000000D01*
%TO.N,C2_Vsense*%
X105655920Y-71655920D02*
X105655920Y-72895727D01*
X104187361Y-70187361D02*
X105655920Y-71655920D01*
X100153839Y-79146161D02*
X100153839Y-79229339D01*
X104900000Y-75100000D02*
X104200000Y-75100000D01*
X105655920Y-72895727D02*
X105805911Y-73045718D01*
X104187361Y-70182901D02*
X104187361Y-70187361D01*
X94515400Y-88290400D02*
X95908400Y-88290400D01*
X105805911Y-74194089D02*
X104900000Y-75100000D01*
X105805911Y-73045718D02*
X105805911Y-74194089D01*
X104200000Y-75100000D02*
X100153839Y-79146161D01*
%TO.N,/OSC_in*%
X91254942Y-73737223D02*
X90759967Y-73242248D01*
X93172563Y-70300000D02*
X93566894Y-70300000D01*
X90759967Y-73242248D02*
X90759967Y-72712596D01*
X90700000Y-72659022D02*
X90272065Y-72231087D01*
X93566894Y-70300000D02*
X93733447Y-70133447D01*
X93733447Y-70133447D02*
X93736279Y-70133447D01*
X93736279Y-70133447D02*
X94393932Y-69475794D01*
X90759967Y-72712596D02*
X93172563Y-70300000D01*
X91254942Y-73737223D02*
X90700000Y-73182281D01*
X90700000Y-73182281D02*
X90700000Y-72659022D01*
%TO.N,/OSC_out*%
X94012658Y-74090777D02*
X94012658Y-70560664D01*
X94103512Y-70473322D02*
X94747486Y-69829348D01*
X94100000Y-70473322D02*
X94103512Y-70473322D01*
X94261814Y-76220836D02*
X94316715Y-76275737D01*
X94012658Y-74090777D02*
X94261814Y-74339933D01*
X94261814Y-74339933D02*
X94261814Y-76220836D01*
X94012658Y-70560664D02*
X94100000Y-70473322D01*
%TO.N,/PWR_LED*%
X108682582Y-73640085D02*
X107477815Y-72435318D01*
X108895282Y-73640085D02*
X108682582Y-73640085D01*
%TO.N,VDC_sense*%
X105802074Y-70383400D02*
X104894468Y-69475794D01*
X111963200Y-73431400D02*
X113792000Y-75260200D01*
X106349800Y-70383400D02*
X105802074Y-70383400D01*
X113792000Y-75260200D02*
X113792000Y-76299600D01*
X113792000Y-76299600D02*
X115417600Y-76299600D01*
%TO.N,Heading_Red*%
X105100000Y-72500000D02*
X103490008Y-70890008D01*
X103490008Y-70890008D02*
X103480254Y-70890008D01*
X107100000Y-76000000D02*
X106300000Y-76800000D01*
X105181411Y-73600000D02*
X105100000Y-73518589D01*
X106300000Y-76800000D02*
X106300000Y-78600000D01*
X105100000Y-73518589D02*
X105100000Y-72500000D01*
X105500000Y-79400000D02*
X105500000Y-81300000D01*
X106300000Y-78600000D02*
X105500000Y-79400000D01*
X106365000Y-82165000D02*
X106365000Y-83024200D01*
X105500000Y-81300000D02*
X106365000Y-82165000D01*
X107100000Y-75600000D02*
X107100000Y-76000000D01*
%TO.N,Heading_Green*%
X104500000Y-72616860D02*
X103126701Y-71243561D01*
X101700000Y-82245400D02*
X102478800Y-83024200D01*
X105500000Y-76500000D02*
X105500000Y-77000000D01*
X105500000Y-77000000D02*
X104700000Y-77800000D01*
X101700000Y-80128978D02*
X101700000Y-82245400D01*
X106212141Y-75782428D02*
X106212141Y-75787859D01*
X104028978Y-77800000D02*
X101700000Y-80128978D01*
X104700000Y-77800000D02*
X104028978Y-77800000D01*
X106212141Y-75787859D02*
X105500000Y-76500000D01*
X104500000Y-74147000D02*
X104500000Y-72616860D01*
X104653144Y-74300144D02*
X104500000Y-74147000D01*
D63*
%TO.N,/R_REXT*%
X106365000Y-80704200D02*
X106365000Y-80035000D01*
X106365000Y-80035000D02*
X107670600Y-78729400D01*
X107670600Y-78729400D02*
X107670600Y-77546200D01*
D61*
%TO.N,+5V*%
X122199400Y-85456100D02*
X122199400Y-81915000D01*
X122047000Y-83921600D02*
X118897400Y-83921600D01*
X122199400Y-81915000D02*
X121361200Y-81076800D01*
D59*
%TO.N,PPM*%
X104421446Y-61569600D02*
X104851200Y-61569600D01*
X103480254Y-62510792D02*
X104421446Y-61569600D01*
%TO.N,PWM2*%
X102419594Y-61480406D02*
X101600000Y-62300000D01*
X102419594Y-61450132D02*
X102419594Y-61480406D01*
X101600000Y-62300000D02*
X101600000Y-66979800D01*
X101600000Y-66979800D02*
X102285800Y-67665600D01*
%TO.N,PWM3*%
X100863400Y-67763400D02*
X100863400Y-62299220D01*
X100863400Y-62299220D02*
X102066041Y-61096579D01*
X101500000Y-68400000D02*
X100863400Y-67763400D01*
%TO.N,Red_LED_anode*%
X108620800Y-83024200D02*
X111118400Y-85521800D01*
X107315000Y-83024200D02*
X108265000Y-83024200D01*
X108265000Y-83024200D02*
X108620800Y-83024200D01*
X107315000Y-80704200D02*
X107315000Y-83024200D01*
%TO.N,Green_LED_anode*%
X105024200Y-83024200D02*
X106100000Y-84100000D01*
X107696600Y-84100000D02*
X109118400Y-85521800D01*
X103428800Y-83024200D02*
X104378800Y-83024200D01*
X103428800Y-80704200D02*
X103428800Y-83024200D01*
X106100000Y-84100000D02*
X107696600Y-84100000D01*
X104378800Y-83024200D02*
X105024200Y-83024200D01*
%TO.N,Net-(J12-Pad3)*%
X113157000Y-87483200D02*
X115118400Y-85521800D01*
X113157000Y-88519000D02*
X113157000Y-87483200D01*
%TO.N,Net-(J12-Pad4)*%
X111157000Y-88519000D02*
X111157000Y-87483200D01*
X111157000Y-87483200D02*
X113118400Y-85521800D01*
%TD*%
%TA.AperFunction,Conductor*%
%TO.N,B2*%
G36*
X73874627Y-63859027D02*
G01*
X74367773Y-64352173D01*
X74371200Y-64360446D01*
X74371200Y-73964800D01*
X74833234Y-74160385D01*
X78047687Y-75521105D01*
X78052903Y-75525452D01*
X78505775Y-76214421D01*
X78507698Y-76220934D01*
X78489711Y-78666986D01*
X78486245Y-78675212D01*
X77989431Y-79167382D01*
X77981173Y-79170770D01*
X72302528Y-79159181D01*
X66544826Y-79147430D01*
X66536583Y-79144008D01*
X66203932Y-78811784D01*
X66200500Y-78803506D01*
X66200500Y-64159946D01*
X66203927Y-64151673D01*
X66496573Y-63859027D01*
X66504846Y-63855600D01*
X73866354Y-63855600D01*
X73874627Y-63859027D01*
G37*
%TD.AperFunction*%
%TD*%
%TA.AperFunction,Conductor*%
%TO.N,GND*%
G36*
X133675903Y-82530112D02*
G01*
X133693012Y-82548256D01*
X133718321Y-82581188D01*
X133722612Y-82585471D01*
X133725835Y-82587939D01*
X133725840Y-82587943D01*
X133782773Y-82631533D01*
X133782777Y-82631536D01*
X133785997Y-82634001D01*
X137325773Y-84672054D01*
X137374048Y-84722562D01*
X137387900Y-84779514D01*
X137387900Y-93779954D01*
X137411157Y-93896870D01*
X137414584Y-93905143D01*
X137480806Y-94004248D01*
X137631681Y-94155123D01*
X137665166Y-94216446D01*
X137668000Y-94242804D01*
X137668000Y-94935238D01*
X137648315Y-95002277D01*
X137631681Y-95022919D01*
X136991419Y-95663181D01*
X136930096Y-95696666D01*
X136903738Y-95699500D01*
X132514062Y-95699500D01*
X132447023Y-95679815D01*
X132426381Y-95663181D01*
X131786119Y-95022919D01*
X131752634Y-94961596D01*
X131749800Y-94935238D01*
X131749800Y-86787334D01*
X131769485Y-86720295D01*
X131823464Y-86674010D01*
X131862691Y-86656586D01*
X131873153Y-86651939D01*
X131952241Y-86572713D01*
X131970663Y-86531044D01*
X132015775Y-86477689D01*
X132082571Y-86457193D01*
X132149844Y-86476064D01*
X132171755Y-86493503D01*
X133380854Y-87702602D01*
X133414339Y-87763925D01*
X133409355Y-87833617D01*
X133406583Y-87840423D01*
X133406264Y-87841144D01*
X133406263Y-87841148D01*
X133402494Y-87849673D01*
X133399500Y-87875354D01*
X133399500Y-89164646D01*
X133402618Y-89190846D01*
X133448061Y-89293153D01*
X133527287Y-89372241D01*
X133537758Y-89376870D01*
X133537759Y-89376871D01*
X133621147Y-89413737D01*
X133621149Y-89413738D01*
X133629673Y-89417506D01*
X133655354Y-89420500D01*
X135944646Y-89420500D01*
X135948300Y-89420065D01*
X135948302Y-89420065D01*
X135953266Y-89419474D01*
X135970846Y-89417382D01*
X136073153Y-89371939D01*
X136152241Y-89292713D01*
X136197506Y-89190327D01*
X136200500Y-89164646D01*
X136200500Y-87875354D01*
X136197382Y-87849154D01*
X136151939Y-87746847D01*
X136072713Y-87667759D01*
X136062242Y-87663130D01*
X136062241Y-87663129D01*
X135978853Y-87626263D01*
X135978851Y-87626262D01*
X135970327Y-87622494D01*
X135944646Y-87619500D01*
X134552610Y-87619500D01*
X134485571Y-87599815D01*
X134464929Y-87583181D01*
X133773929Y-86892181D01*
X133740444Y-86830858D01*
X133745428Y-86761166D01*
X133787300Y-86705233D01*
X133852764Y-86680816D01*
X133861610Y-86680500D01*
X135944646Y-86680500D01*
X135948300Y-86680065D01*
X135948302Y-86680065D01*
X135953266Y-86679474D01*
X135970846Y-86677382D01*
X136073153Y-86631939D01*
X136152241Y-86552713D01*
X136178418Y-86493503D01*
X136193737Y-86458853D01*
X136193738Y-86458851D01*
X136197506Y-86450327D01*
X136200500Y-86424646D01*
X136200500Y-85135354D01*
X136197382Y-85109154D01*
X136151939Y-85006847D01*
X136072713Y-84927759D01*
X136062242Y-84923130D01*
X136062241Y-84923129D01*
X135978853Y-84886263D01*
X135978851Y-84886262D01*
X135970327Y-84882494D01*
X135944646Y-84879500D01*
X134552610Y-84879500D01*
X134485571Y-84859815D01*
X134464929Y-84843181D01*
X133507019Y-83885271D01*
X133473534Y-83823948D01*
X133470700Y-83797590D01*
X133470700Y-82623825D01*
X133490385Y-82556786D01*
X133543189Y-82511031D01*
X133612347Y-82501087D01*
X133675903Y-82530112D01*
G37*
%TD.AperFunction*%
%TA.AperFunction,Conductor*%
G36*
X131955003Y-63900997D02*
G01*
X131961481Y-63907029D01*
X133160581Y-65106129D01*
X133194066Y-65167452D01*
X133196900Y-65193810D01*
X133196900Y-65689136D01*
X133208121Y-65771174D01*
X133209809Y-65777229D01*
X133242675Y-65853284D01*
X133244851Y-65856882D01*
X133244852Y-65856884D01*
X133679927Y-66576299D01*
X133679931Y-66576305D01*
X133682109Y-66579906D01*
X133734187Y-66644319D01*
X133738765Y-66648626D01*
X133806223Y-66696677D01*
X133809953Y-66698633D01*
X137296087Y-68526729D01*
X137346317Y-68575296D01*
X137362500Y-68636546D01*
X137362500Y-77650954D01*
X137385757Y-77767870D01*
X137389184Y-77776143D01*
X137455406Y-77875248D01*
X137631681Y-78051523D01*
X137665166Y-78112846D01*
X137668000Y-78139204D01*
X137668000Y-79021700D01*
X137648315Y-79088739D01*
X137595511Y-79134494D01*
X137544000Y-79145700D01*
X134007246Y-79145700D01*
X134001270Y-79146889D01*
X134001267Y-79146889D01*
X133928428Y-79161379D01*
X133890330Y-79168957D01*
X133882057Y-79172384D01*
X133782952Y-79238606D01*
X133682381Y-79339177D01*
X133621058Y-79372662D01*
X133551366Y-79367678D01*
X133495433Y-79325806D01*
X133471016Y-79260342D01*
X133470700Y-79251496D01*
X133470700Y-79129807D01*
X133463236Y-79106836D01*
X133458696Y-79087921D01*
X133456446Y-79073713D01*
X133456445Y-79073711D01*
X133454919Y-79064074D01*
X133443954Y-79042553D01*
X133436511Y-79024584D01*
X133432064Y-79010898D01*
X133429049Y-79001619D01*
X133423318Y-78993731D01*
X133423316Y-78993727D01*
X133414854Y-78982081D01*
X133404691Y-78965497D01*
X133393728Y-78943980D01*
X132327764Y-77878016D01*
X132294279Y-77816693D01*
X132292506Y-77806521D01*
X132289174Y-77781212D01*
X132286130Y-77758091D01*
X132230661Y-77624175D01*
X132142421Y-77509179D01*
X132027425Y-77420939D01*
X131991393Y-77406014D01*
X131901023Y-77368582D01*
X131901021Y-77368581D01*
X131893509Y-77365470D01*
X131885449Y-77364409D01*
X131885446Y-77364408D01*
X131857614Y-77360744D01*
X131793717Y-77332477D01*
X131755247Y-77274152D01*
X131749800Y-77237805D01*
X131749800Y-73282595D01*
X131769485Y-73215556D01*
X131822289Y-73169801D01*
X131857614Y-73159656D01*
X131885446Y-73155992D01*
X131885449Y-73155991D01*
X131893509Y-73154930D01*
X131901021Y-73151819D01*
X131901023Y-73151818D01*
X132019914Y-73102572D01*
X132019913Y-73102572D01*
X132027425Y-73099461D01*
X132142421Y-73011221D01*
X132230661Y-72896225D01*
X132278919Y-72779719D01*
X132283018Y-72769823D01*
X132283019Y-72769821D01*
X132286130Y-72762309D01*
X132305050Y-72618600D01*
X132286130Y-72474891D01*
X132235783Y-72353341D01*
X132228314Y-72283872D01*
X132259589Y-72221393D01*
X132319679Y-72185741D01*
X132389504Y-72188235D01*
X132425830Y-72207513D01*
X132456324Y-72230912D01*
X132456330Y-72230915D01*
X132462775Y-72235861D01*
X132596691Y-72291330D01*
X132641292Y-72297202D01*
X132645121Y-72297706D01*
X132709017Y-72325973D01*
X132716616Y-72332964D01*
X133102180Y-72718528D01*
X133123697Y-72729491D01*
X133140281Y-72739654D01*
X133151927Y-72748116D01*
X133151931Y-72748118D01*
X133159819Y-72753849D01*
X133169098Y-72756864D01*
X133182784Y-72761311D01*
X133200753Y-72768754D01*
X133222274Y-72779719D01*
X133231911Y-72781245D01*
X133231913Y-72781246D01*
X133246121Y-72783496D01*
X133265036Y-72788036D01*
X133288007Y-72795500D01*
X133295856Y-72795500D01*
X133358032Y-72824975D01*
X133394964Y-72884286D01*
X133399500Y-72917519D01*
X133399500Y-73014646D01*
X133402618Y-73040846D01*
X133448061Y-73143153D01*
X133527287Y-73222241D01*
X133537758Y-73226870D01*
X133537759Y-73226871D01*
X133621147Y-73263737D01*
X133621149Y-73263738D01*
X133629673Y-73267506D01*
X133655354Y-73270500D01*
X135944646Y-73270500D01*
X135948300Y-73270065D01*
X135948302Y-73270065D01*
X135953266Y-73269474D01*
X135970846Y-73267382D01*
X136073153Y-73221939D01*
X136152241Y-73142713D01*
X136156871Y-73132241D01*
X136193737Y-73048853D01*
X136193738Y-73048851D01*
X136197506Y-73040327D01*
X136200500Y-73014646D01*
X136200500Y-71725354D01*
X136197382Y-71699154D01*
X136151939Y-71596847D01*
X136072713Y-71517759D01*
X136062242Y-71513130D01*
X136062241Y-71513129D01*
X135978853Y-71476263D01*
X135978851Y-71476262D01*
X135970327Y-71472494D01*
X135944646Y-71469500D01*
X133655354Y-71469500D01*
X133651700Y-71469935D01*
X133651698Y-71469935D01*
X133646734Y-71470526D01*
X133629154Y-71472618D01*
X133526847Y-71518061D01*
X133467204Y-71577808D01*
X133454019Y-71591016D01*
X133392725Y-71624554D01*
X133323029Y-71619630D01*
X133267059Y-71577808D01*
X133251700Y-71550863D01*
X133224372Y-71484885D01*
X133224371Y-71484883D01*
X133221261Y-71477375D01*
X133133021Y-71362379D01*
X133018025Y-71274139D01*
X132981993Y-71259214D01*
X132891623Y-71221782D01*
X132891621Y-71221781D01*
X132884109Y-71218670D01*
X132876049Y-71217609D01*
X132876046Y-71217608D01*
X132792094Y-71206556D01*
X132761354Y-71202509D01*
X132697458Y-71174243D01*
X132658987Y-71115918D01*
X132658156Y-71046053D01*
X132689859Y-70991889D01*
X133275649Y-70406099D01*
X133336972Y-70372614D01*
X133406664Y-70377598D01*
X133450935Y-70406022D01*
X133527287Y-70482241D01*
X133537758Y-70486870D01*
X133537759Y-70486871D01*
X133621147Y-70523737D01*
X133621149Y-70523738D01*
X133629673Y-70527506D01*
X133655354Y-70530500D01*
X135944646Y-70530500D01*
X135948300Y-70530065D01*
X135948302Y-70530065D01*
X135953266Y-70529474D01*
X135970846Y-70527382D01*
X136073153Y-70481939D01*
X136152241Y-70402713D01*
X136156871Y-70392241D01*
X136193737Y-70308853D01*
X136193738Y-70308851D01*
X136197506Y-70300327D01*
X136200500Y-70274646D01*
X136200500Y-68985354D01*
X136197382Y-68959154D01*
X136151939Y-68856847D01*
X136072713Y-68777759D01*
X136062242Y-68773130D01*
X136062241Y-68773129D01*
X135978853Y-68736263D01*
X135978851Y-68736262D01*
X135970327Y-68732494D01*
X135944646Y-68729500D01*
X133655354Y-68729500D01*
X133651700Y-68729935D01*
X133651698Y-68729935D01*
X133646734Y-68730526D01*
X133629154Y-68732618D01*
X133526847Y-68778061D01*
X133447759Y-68857287D01*
X133402494Y-68959673D01*
X133399500Y-68985354D01*
X133399500Y-69104948D01*
X133379815Y-69171987D01*
X133327011Y-69217742D01*
X133322971Y-69219315D01*
X133316874Y-69220281D01*
X133295353Y-69231246D01*
X133277384Y-69238689D01*
X133254419Y-69246151D01*
X133246531Y-69251882D01*
X133246527Y-69251884D01*
X133234881Y-69260346D01*
X133218297Y-69270509D01*
X133196780Y-69281472D01*
X132212181Y-70266071D01*
X132150858Y-70299556D01*
X132081166Y-70294572D01*
X132025233Y-70252700D01*
X132000816Y-70187236D01*
X132000500Y-70178390D01*
X132000500Y-64405354D01*
X131997382Y-64379154D01*
X131951939Y-64276847D01*
X131872713Y-64197759D01*
X131862242Y-64193130D01*
X131862241Y-64193129D01*
X131823661Y-64176073D01*
X131770306Y-64130962D01*
X131749800Y-64062662D01*
X131749800Y-63994710D01*
X131769485Y-63927671D01*
X131822289Y-63881916D01*
X131891447Y-63871972D01*
X131955003Y-63900997D01*
G37*
%TD.AperFunction*%
%TA.AperFunction,Conductor*%
G36*
X132205703Y-48454497D02*
G01*
X132212181Y-48460529D01*
X133020180Y-49268528D01*
X133041695Y-49279490D01*
X133058282Y-49289655D01*
X133069922Y-49298113D01*
X133069925Y-49298115D01*
X133077819Y-49303850D01*
X133093934Y-49309086D01*
X133151609Y-49348523D01*
X133178562Y-49410882D01*
X133181847Y-49435912D01*
X133183405Y-49441745D01*
X133213732Y-49515216D01*
X133642790Y-50261245D01*
X133691039Y-50324402D01*
X133695297Y-50328682D01*
X133698488Y-50331145D01*
X133698493Y-50331150D01*
X133755036Y-50374803D01*
X133755042Y-50374807D01*
X133758240Y-50377276D01*
X133761738Y-50379311D01*
X137080866Y-52310439D01*
X137300859Y-52438435D01*
X137348905Y-52489163D01*
X137362500Y-52545614D01*
X137362500Y-61521954D01*
X137385757Y-61638870D01*
X137389184Y-61647143D01*
X137455406Y-61746248D01*
X137631681Y-61922523D01*
X137665166Y-61983846D01*
X137668000Y-62010204D01*
X137668000Y-62511700D01*
X137648315Y-62578739D01*
X137595511Y-62624494D01*
X137544000Y-62635700D01*
X134007246Y-62635700D01*
X134001270Y-62636889D01*
X134001267Y-62636889D01*
X133928428Y-62651379D01*
X133890330Y-62658957D01*
X133882057Y-62662384D01*
X133782952Y-62728606D01*
X133289806Y-63221752D01*
X133223584Y-63320857D01*
X133220157Y-63329130D01*
X133196900Y-63446046D01*
X133196900Y-63639590D01*
X133177215Y-63706629D01*
X133124411Y-63752384D01*
X133055253Y-63762328D01*
X132991697Y-63733303D01*
X132985219Y-63727271D01*
X132327764Y-63069816D01*
X132294279Y-63008493D01*
X132292506Y-62998321D01*
X132287191Y-62957952D01*
X132286130Y-62949891D01*
X132230661Y-62815975D01*
X132142421Y-62700979D01*
X132027425Y-62612739D01*
X131945341Y-62578739D01*
X131901023Y-62560382D01*
X131901021Y-62560381D01*
X131893509Y-62557270D01*
X131885449Y-62556209D01*
X131885446Y-62556208D01*
X131857614Y-62552544D01*
X131793717Y-62524277D01*
X131755247Y-62465952D01*
X131749800Y-62429605D01*
X131749800Y-58338675D01*
X131769485Y-58271636D01*
X131822289Y-58225881D01*
X131837484Y-58220418D01*
X131842709Y-58219730D01*
X131976625Y-58164261D01*
X132015377Y-58134525D01*
X132080546Y-58109330D01*
X132090864Y-58108900D01*
X133403993Y-58108900D01*
X133426964Y-58101436D01*
X133445879Y-58096896D01*
X133460087Y-58094646D01*
X133460089Y-58094645D01*
X133469726Y-58093119D01*
X133491247Y-58082154D01*
X133509216Y-58074711D01*
X133522902Y-58070264D01*
X133532181Y-58067249D01*
X133540069Y-58061518D01*
X133540073Y-58061516D01*
X133551719Y-58053054D01*
X133568303Y-58042891D01*
X133589820Y-58031928D01*
X133685128Y-57936620D01*
X134464928Y-57156819D01*
X134526251Y-57123334D01*
X134552609Y-57120500D01*
X135944646Y-57120500D01*
X135948300Y-57120065D01*
X135948302Y-57120065D01*
X135953266Y-57119474D01*
X135970846Y-57117382D01*
X136073153Y-57071939D01*
X136152241Y-56992713D01*
X136156871Y-56982241D01*
X136193737Y-56898853D01*
X136193738Y-56898851D01*
X136197506Y-56890327D01*
X136200500Y-56864646D01*
X136200500Y-55575354D01*
X136197382Y-55549154D01*
X136151939Y-55446847D01*
X136072713Y-55367759D01*
X136062242Y-55363130D01*
X136062241Y-55363129D01*
X135978853Y-55326263D01*
X135978851Y-55326262D01*
X135970327Y-55322494D01*
X135944646Y-55319500D01*
X133655354Y-55319500D01*
X133651700Y-55319935D01*
X133651698Y-55319935D01*
X133646734Y-55320526D01*
X133629154Y-55322618D01*
X133526847Y-55368061D01*
X133447759Y-55447287D01*
X133443130Y-55457758D01*
X133443129Y-55457759D01*
X133428803Y-55490165D01*
X133402494Y-55549673D01*
X133399500Y-55575354D01*
X133399500Y-56864646D01*
X133402618Y-56890846D01*
X133406394Y-56899346D01*
X133406437Y-56899444D01*
X133406453Y-56899561D01*
X133408860Y-56908320D01*
X133407663Y-56908649D01*
X133415659Y-56968702D01*
X133385974Y-57031952D01*
X133380793Y-57037459D01*
X133196671Y-57221581D01*
X133135348Y-57255066D01*
X133108990Y-57257900D01*
X132090864Y-57257900D01*
X132023825Y-57238215D01*
X132015377Y-57232275D01*
X131976625Y-57202539D01*
X131842709Y-57147070D01*
X131839693Y-57146673D01*
X131782046Y-57111534D01*
X131751517Y-57048687D01*
X131749800Y-57028125D01*
X131749800Y-55566105D01*
X131769485Y-55499066D01*
X131822289Y-55453311D01*
X131891447Y-55443367D01*
X131955003Y-55472392D01*
X131961481Y-55478424D01*
X131961835Y-55478778D01*
X131966779Y-55485221D01*
X132081775Y-55573461D01*
X132089287Y-55576572D01*
X132089286Y-55576572D01*
X132208177Y-55625818D01*
X132208179Y-55625819D01*
X132215691Y-55628930D01*
X132359400Y-55647850D01*
X132503109Y-55628930D01*
X132510621Y-55625819D01*
X132510623Y-55625818D01*
X132629514Y-55576572D01*
X132629513Y-55576572D01*
X132637025Y-55573461D01*
X132752021Y-55485221D01*
X132773094Y-55457759D01*
X132835314Y-55376672D01*
X132840261Y-55370225D01*
X132895730Y-55236309D01*
X132902106Y-55187879D01*
X132930373Y-55123983D01*
X132937364Y-55116384D01*
X133636929Y-54416819D01*
X133698252Y-54383334D01*
X133724610Y-54380500D01*
X135944646Y-54380500D01*
X135948300Y-54380065D01*
X135948302Y-54380065D01*
X135953266Y-54379474D01*
X135970846Y-54377382D01*
X136073153Y-54331939D01*
X136152241Y-54252713D01*
X136188664Y-54170327D01*
X136193737Y-54158853D01*
X136193738Y-54158851D01*
X136197506Y-54150327D01*
X136200500Y-54124646D01*
X136200500Y-52835354D01*
X136197382Y-52809154D01*
X136151939Y-52706847D01*
X136072713Y-52627759D01*
X136062242Y-52623130D01*
X136062241Y-52623129D01*
X135978853Y-52586263D01*
X135978851Y-52586262D01*
X135970327Y-52582494D01*
X135944646Y-52579500D01*
X133655354Y-52579500D01*
X133651700Y-52579935D01*
X133651698Y-52579935D01*
X133646734Y-52580526D01*
X133629154Y-52582618D01*
X133526847Y-52628061D01*
X133447759Y-52707287D01*
X133402494Y-52809673D01*
X133399500Y-52835354D01*
X133399500Y-53399390D01*
X133379815Y-53466429D01*
X133363181Y-53487071D01*
X132335616Y-54514636D01*
X132274293Y-54548121D01*
X132264120Y-54549894D01*
X132215691Y-54556270D01*
X132081775Y-54611739D01*
X131966779Y-54699979D01*
X131961835Y-54706422D01*
X131961481Y-54706776D01*
X131900158Y-54740261D01*
X131830466Y-54735277D01*
X131774533Y-54693405D01*
X131750116Y-54627941D01*
X131749800Y-54619095D01*
X131749800Y-54487334D01*
X131769485Y-54420295D01*
X131823464Y-54374010D01*
X131862691Y-54356586D01*
X131873153Y-54351939D01*
X131952241Y-54272713D01*
X131997506Y-54170327D01*
X132000500Y-54144646D01*
X132000500Y-48548210D01*
X132020185Y-48481171D01*
X132072989Y-48435416D01*
X132142147Y-48425472D01*
X132205703Y-48454497D01*
G37*
%TD.AperFunction*%
%TD*%
%TA.AperFunction,Conductor*%
%TO.N,A1*%
G36*
X145502627Y-46917227D02*
G01*
X145796073Y-47210673D01*
X145799500Y-47218946D01*
X145799500Y-61721654D01*
X145796073Y-61729927D01*
X145502627Y-62023373D01*
X145494354Y-62026800D01*
X138172846Y-62026800D01*
X138164573Y-62023373D01*
X137671427Y-61530227D01*
X137668000Y-61521954D01*
X137668000Y-52298600D01*
X137235826Y-52047153D01*
X137234501Y-52046382D01*
X137234500Y-52046381D01*
X133911874Y-50113218D01*
X133907616Y-50108938D01*
X133478558Y-49362909D01*
X133477000Y-49357076D01*
X133477000Y-47418646D01*
X133480427Y-47410373D01*
X133973573Y-46917227D01*
X133981846Y-46913800D01*
X145494354Y-46913800D01*
X145502627Y-46917227D01*
G37*
%TD.AperFunction*%
%TD*%
%TA.AperFunction,Conductor*%
%TO.N,+BATT*%
G36*
X131444300Y-94935238D02*
G01*
X131446051Y-94967897D01*
X131448885Y-94994255D01*
X131484503Y-95108007D01*
X131517988Y-95169330D01*
X131520528Y-95172723D01*
X131561970Y-95228082D01*
X131570098Y-95238940D01*
X131706333Y-95375175D01*
X131738467Y-95434026D01*
X131733684Y-95500907D01*
X131706333Y-95543467D01*
X131585154Y-95664646D01*
X131526303Y-95696780D01*
X131501008Y-95699500D01*
X80512792Y-95699500D01*
X80448456Y-95680609D01*
X80428646Y-95664646D01*
X80314381Y-95550381D01*
X80282247Y-95491530D01*
X80287030Y-95424649D01*
X80314403Y-95382068D01*
X80443025Y-95253512D01*
X80443035Y-95253501D01*
X80444165Y-95252372D01*
X80465998Y-95228082D01*
X80482620Y-95207472D01*
X80485327Y-95202302D01*
X80485330Y-95202298D01*
X80535190Y-95107084D01*
X80535190Y-95107083D01*
X80537902Y-95101905D01*
X80557621Y-95034875D01*
X80562678Y-94999829D01*
X80569434Y-94953012D01*
X80569434Y-94953009D01*
X80570040Y-94948811D01*
X80570474Y-94094085D01*
X80557593Y-94006157D01*
X80537088Y-93937797D01*
X80535899Y-93934947D01*
X80535895Y-93934937D01*
X80515983Y-93887226D01*
X80515982Y-93887224D01*
X80512669Y-93879286D01*
X80441714Y-93792279D01*
X80433066Y-93784967D01*
X80391605Y-93749912D01*
X80391601Y-93749909D01*
X80388359Y-93747168D01*
X80360883Y-93729977D01*
X80316362Y-93679841D01*
X80305000Y-93629096D01*
X80305000Y-91901610D01*
X80304805Y-91890704D01*
X80304489Y-91881858D01*
X80285422Y-91786002D01*
X80271503Y-91748684D01*
X80264000Y-91707097D01*
X80264000Y-90135092D01*
X80282891Y-90070756D01*
X80298854Y-90050946D01*
X80729146Y-89620654D01*
X80787997Y-89588520D01*
X80813292Y-89585800D01*
X131444300Y-89585800D01*
X131444300Y-94935238D01*
G37*
%TD.AperFunction*%
%TD*%
%TA.AperFunction,Conductor*%
%TO.N,A2*%
G36*
X73874627Y-47704627D02*
G01*
X74367773Y-48197773D01*
X74371200Y-48206046D01*
X74371200Y-57581800D01*
X76441300Y-58559700D01*
X78056216Y-59322575D01*
X78061123Y-59326926D01*
X78506011Y-60034694D01*
X78507805Y-60041004D01*
X78489605Y-62588791D01*
X78486149Y-62597010D01*
X77989421Y-63090203D01*
X77981177Y-63093600D01*
X66504846Y-63093600D01*
X66496573Y-63090173D01*
X66203927Y-62797527D01*
X66200500Y-62789254D01*
X66200500Y-48005546D01*
X66203927Y-47997273D01*
X66496573Y-47704627D01*
X66504846Y-47701200D01*
X73866354Y-47701200D01*
X73874627Y-47704627D01*
G37*
%TD.AperFunction*%
%TD*%
%TA.AperFunction,Conductor*%
%TO.N,+BATT*%
G36*
X125222000Y-89585800D02*
G01*
X122961400Y-89585800D01*
X122961400Y-85218390D01*
X122981402Y-85150269D01*
X122998305Y-85129295D01*
X123085631Y-85041969D01*
X123140244Y-85009874D01*
X123190935Y-84995451D01*
X123202164Y-84992256D01*
X123231639Y-84969997D01*
X123282501Y-84931589D01*
X123282502Y-84931588D01*
X123291819Y-84924552D01*
X123338627Y-84848954D01*
X123344817Y-84838957D01*
X123344818Y-84838954D01*
X123350961Y-84829033D01*
X123353106Y-84817561D01*
X123354143Y-84814883D01*
X123397403Y-84758588D01*
X123464230Y-84734618D01*
X123471634Y-84734400D01*
X125222000Y-84734400D01*
X125222000Y-89585800D01*
G37*
%TD.AperFunction*%
%TD*%
%TA.AperFunction,Conductor*%
%TO.N,+BATT*%
G36*
X118585521Y-87370602D02*
G01*
X118632014Y-87424258D01*
X118643400Y-87476600D01*
X118643400Y-89585800D01*
X114173000Y-89585800D01*
X114173000Y-87476600D01*
X114193002Y-87408479D01*
X114246658Y-87361986D01*
X114299000Y-87350600D01*
X118517400Y-87350600D01*
X118585521Y-87370602D01*
G37*
%TD.AperFunction*%
%TD*%
%TA.AperFunction,Conductor*%
%TO.N,B1*%
G36*
X145763026Y-62944620D02*
G01*
X145796066Y-62977606D01*
X145799500Y-62985886D01*
X145799500Y-77851454D01*
X145796073Y-77859727D01*
X145503427Y-78152373D01*
X145495154Y-78155800D01*
X138172846Y-78155800D01*
X138164573Y-78152373D01*
X137671427Y-77659227D01*
X137668000Y-77650954D01*
X137668000Y-68376800D01*
X135892815Y-67445910D01*
X133948100Y-66426120D01*
X133943522Y-66421813D01*
X133504088Y-65695191D01*
X133502400Y-65689136D01*
X133502400Y-63446046D01*
X133505827Y-63437773D01*
X133998973Y-62944627D01*
X134007246Y-62941200D01*
X145754760Y-62941200D01*
X145763026Y-62944620D01*
G37*
%TD.AperFunction*%
%TD*%
%TA.AperFunction,Conductor*%
%TO.N,C2*%
G36*
X73849225Y-79988016D02*
G01*
X74343638Y-80481182D01*
X74347075Y-80489436D01*
X74371200Y-90043000D01*
X74826479Y-90249691D01*
X74828010Y-90250386D01*
X78053008Y-91714496D01*
X78057984Y-91718778D01*
X78513135Y-92419719D01*
X78515022Y-92426007D01*
X78533168Y-94948350D01*
X78529779Y-94956669D01*
X78040224Y-95450759D01*
X78031937Y-95454224D01*
X72681539Y-95465077D01*
X66519453Y-95477576D01*
X66511164Y-95474158D01*
X66203935Y-95167551D01*
X66200500Y-95159269D01*
X66200500Y-80303546D01*
X66203927Y-80295273D01*
X66511173Y-79988027D01*
X66519446Y-79984600D01*
X73840962Y-79984600D01*
X73849225Y-79988016D01*
G37*
%TD.AperFunction*%
%TD*%
%TA.AperFunction,Conductor*%
%TO.N,+BATT*%
G36*
X131065977Y-46320185D02*
G01*
X131086619Y-46336819D01*
X131481491Y-46731691D01*
X131514976Y-46793014D01*
X131509992Y-46862706D01*
X131469296Y-46917748D01*
X131363625Y-46998832D01*
X131363622Y-46998835D01*
X131357179Y-47003779D01*
X131268939Y-47118775D01*
X131213470Y-47252691D01*
X131194550Y-47396400D01*
X131213470Y-47540109D01*
X131268939Y-47674025D01*
X131357179Y-47789021D01*
X131472175Y-47877261D01*
X131606091Y-47932730D01*
X131630911Y-47935998D01*
X131641987Y-47937456D01*
X131705883Y-47965723D01*
X131744353Y-48024048D01*
X131749800Y-48060395D01*
X131749800Y-48320663D01*
X131736332Y-48376866D01*
X131727061Y-48395099D01*
X131707376Y-48462138D01*
X131695000Y-48548210D01*
X131695000Y-54029287D01*
X131675315Y-54096326D01*
X131637227Y-54134120D01*
X131624604Y-54142094D01*
X131570625Y-54188379D01*
X131527247Y-54234147D01*
X131523190Y-54242125D01*
X131523189Y-54242127D01*
X131478956Y-54329119D01*
X131476361Y-54334223D01*
X131456676Y-54401262D01*
X131444300Y-54487334D01*
X131444300Y-54619095D01*
X131444495Y-54630001D01*
X131444811Y-54638847D01*
X131445784Y-54643738D01*
X131462906Y-54729819D01*
X131462908Y-54729825D01*
X131463878Y-54734703D01*
X131488295Y-54800167D01*
X131515467Y-54855316D01*
X131591451Y-54937968D01*
X131596036Y-54941400D01*
X131596040Y-54941404D01*
X131631599Y-54968023D01*
X131647384Y-54979840D01*
X131650065Y-54981454D01*
X131650070Y-54981457D01*
X131660349Y-54987644D01*
X131707635Y-55039081D01*
X131719606Y-55107917D01*
X131692461Y-55172298D01*
X131659004Y-55200922D01*
X131639450Y-55212359D01*
X131622229Y-55222430D01*
X131569425Y-55268185D01*
X131527247Y-55312918D01*
X131476361Y-55412994D01*
X131456676Y-55480033D01*
X131444300Y-55566105D01*
X131444300Y-57028125D01*
X131445360Y-57053547D01*
X131447077Y-57074109D01*
X131448590Y-57079623D01*
X131448592Y-57079636D01*
X131449652Y-57083498D01*
X131448404Y-57153356D01*
X131405556Y-57214677D01*
X131312825Y-57285832D01*
X131312822Y-57285835D01*
X131306379Y-57290779D01*
X131218139Y-57405775D01*
X131162670Y-57539691D01*
X131143750Y-57683400D01*
X131162670Y-57827109D01*
X131218139Y-57961025D01*
X131306379Y-58076021D01*
X131312822Y-58080965D01*
X131407028Y-58153252D01*
X131448230Y-58209680D01*
X131454279Y-58269275D01*
X131444300Y-58338675D01*
X131444300Y-62429605D01*
X131447674Y-62474882D01*
X131453121Y-62511229D01*
X131455704Y-62525335D01*
X131455704Y-62525336D01*
X131456682Y-62530676D01*
X131455727Y-62530851D01*
X131455994Y-62594700D01*
X131418465Y-62653635D01*
X131412358Y-62658638D01*
X131363625Y-62696032D01*
X131363622Y-62696035D01*
X131357179Y-62700979D01*
X131268939Y-62815975D01*
X131213470Y-62949891D01*
X131194550Y-63093600D01*
X131213470Y-63237309D01*
X131268939Y-63371225D01*
X131357179Y-63486221D01*
X131472175Y-63574461D01*
X131479305Y-63577414D01*
X131527390Y-63627842D01*
X131540615Y-63696449D01*
X131524483Y-63740118D01*
X131527247Y-63741523D01*
X131476361Y-63841599D01*
X131456676Y-63908638D01*
X131444300Y-63994710D01*
X131444300Y-64062662D01*
X131457203Y-64150510D01*
X131477709Y-64218810D01*
X131478945Y-64221770D01*
X131478948Y-64221779D01*
X131498653Y-64268976D01*
X131502106Y-64277246D01*
X131507769Y-64284190D01*
X131507770Y-64284192D01*
X131564594Y-64353871D01*
X131573061Y-64364253D01*
X131577436Y-64367952D01*
X131623034Y-64406505D01*
X131623038Y-64406508D01*
X131626416Y-64409364D01*
X131636767Y-64415840D01*
X131683160Y-64468083D01*
X131695000Y-64520962D01*
X131695000Y-70178390D01*
X131695195Y-70189296D01*
X131695511Y-70198142D01*
X131696484Y-70203033D01*
X131713606Y-70289114D01*
X131713608Y-70289120D01*
X131714578Y-70293998D01*
X131738995Y-70359462D01*
X131739723Y-70360940D01*
X131749800Y-70409717D01*
X131749800Y-70677090D01*
X131730115Y-70744129D01*
X131713481Y-70764771D01*
X131401272Y-71076980D01*
X131390309Y-71098497D01*
X131380146Y-71115081D01*
X131371684Y-71126727D01*
X131371682Y-71126731D01*
X131365951Y-71134619D01*
X131362936Y-71143898D01*
X131358489Y-71157584D01*
X131351046Y-71175553D01*
X131340081Y-71197074D01*
X131338555Y-71206711D01*
X131338554Y-71206713D01*
X131336304Y-71220921D01*
X131331764Y-71239836D01*
X131324300Y-71262807D01*
X131324300Y-72226736D01*
X131304615Y-72293775D01*
X131298677Y-72302220D01*
X131268939Y-72340975D01*
X131213470Y-72474891D01*
X131194550Y-72618600D01*
X131213470Y-72762309D01*
X131268939Y-72896225D01*
X131357179Y-73011221D01*
X131363622Y-73016165D01*
X131363625Y-73016168D01*
X131415345Y-73055854D01*
X131456548Y-73112282D01*
X131460703Y-73182028D01*
X131458837Y-73189162D01*
X131456676Y-73196523D01*
X131444300Y-73282595D01*
X131444300Y-77237805D01*
X131447674Y-77283082D01*
X131453121Y-77319429D01*
X131455704Y-77333535D01*
X131455704Y-77333536D01*
X131456682Y-77338876D01*
X131455727Y-77339051D01*
X131455994Y-77402900D01*
X131418465Y-77461835D01*
X131412358Y-77466838D01*
X131363625Y-77504232D01*
X131363622Y-77504235D01*
X131357179Y-77509179D01*
X131268939Y-77624175D01*
X131213470Y-77758091D01*
X131194550Y-77901800D01*
X131213470Y-78045509D01*
X131268939Y-78179425D01*
X131273886Y-78185872D01*
X131348809Y-78283513D01*
X131374003Y-78348682D01*
X131359965Y-78417127D01*
X131348809Y-78434487D01*
X131268939Y-78538575D01*
X131213470Y-78672491D01*
X131194550Y-78816200D01*
X131213470Y-78959909D01*
X131216581Y-78967421D01*
X131216582Y-78967423D01*
X131231086Y-79002438D01*
X131268939Y-79093825D01*
X131357179Y-79208821D01*
X131472175Y-79297061D01*
X131606091Y-79352530D01*
X131630911Y-79355798D01*
X131641987Y-79357256D01*
X131705883Y-79385523D01*
X131744353Y-79443848D01*
X131749800Y-79480195D01*
X131749800Y-86278341D01*
X131730920Y-86344112D01*
X131714028Y-86371110D01*
X131675134Y-86410173D01*
X131660340Y-86419519D01*
X131624604Y-86442094D01*
X131570625Y-86488379D01*
X131568428Y-86490698D01*
X131568426Y-86490699D01*
X131554235Y-86505672D01*
X131527247Y-86534147D01*
X131523190Y-86542125D01*
X131523189Y-86542127D01*
X131478956Y-86629119D01*
X131476361Y-86634223D01*
X131456676Y-86701262D01*
X131444300Y-86787334D01*
X131444300Y-94935238D01*
X131446051Y-94967897D01*
X131448885Y-94994255D01*
X131450702Y-95000057D01*
X131450703Y-95000063D01*
X131482683Y-95102195D01*
X131484503Y-95108007D01*
X131487421Y-95113352D01*
X131487422Y-95113353D01*
X131495571Y-95128277D01*
X131510421Y-95196550D01*
X131486002Y-95262014D01*
X131474418Y-95275382D01*
X131086619Y-95663181D01*
X131025296Y-95696666D01*
X130998938Y-95699500D01*
X125222000Y-95699500D01*
X125222000Y-78886068D01*
X125241685Y-78819029D01*
X125270514Y-78787692D01*
X125284421Y-78777021D01*
X125372661Y-78662025D01*
X125428130Y-78528109D01*
X125447050Y-78384400D01*
X125428130Y-78240691D01*
X125372661Y-78106775D01*
X125284421Y-77991779D01*
X125270514Y-77981107D01*
X125229311Y-77924680D01*
X125222000Y-77882732D01*
X125222000Y-77559359D01*
X125241685Y-77492320D01*
X125270514Y-77460983D01*
X125303375Y-77435768D01*
X125303378Y-77435765D01*
X125309821Y-77430821D01*
X125398061Y-77315825D01*
X125429426Y-77240102D01*
X125450418Y-77189423D01*
X125450419Y-77189421D01*
X125453530Y-77181909D01*
X125472450Y-77038200D01*
X125453530Y-76894491D01*
X125398061Y-76760575D01*
X125309821Y-76645579D01*
X125303378Y-76640635D01*
X125303375Y-76640632D01*
X125270514Y-76615417D01*
X125229311Y-76558989D01*
X125222000Y-76517041D01*
X125222000Y-74164905D01*
X125241685Y-74097866D01*
X125255499Y-74080724D01*
X125259021Y-74078021D01*
X125347261Y-73963025D01*
X125402730Y-73829109D01*
X125421650Y-73685400D01*
X125402730Y-73541691D01*
X125347261Y-73407775D01*
X125259021Y-73292779D01*
X125257064Y-73291277D01*
X125224834Y-73232253D01*
X125222000Y-73205895D01*
X125222000Y-72230259D01*
X125241685Y-72163220D01*
X125247624Y-72154772D01*
X125316914Y-72064472D01*
X125321861Y-72058025D01*
X125377330Y-71924109D01*
X125396250Y-71780400D01*
X125377330Y-71636691D01*
X125321861Y-71502775D01*
X125247624Y-71406028D01*
X125222430Y-71340859D01*
X125222000Y-71330541D01*
X125222000Y-60089059D01*
X125241685Y-60022020D01*
X125247624Y-60013572D01*
X125316914Y-59923272D01*
X125321861Y-59916825D01*
X125377330Y-59782909D01*
X125396250Y-59639200D01*
X125377330Y-59495491D01*
X125367388Y-59471487D01*
X125324972Y-59369086D01*
X125321861Y-59361575D01*
X125247624Y-59264828D01*
X125222430Y-59199659D01*
X125222000Y-59189341D01*
X125222000Y-58133259D01*
X125241685Y-58066220D01*
X125247624Y-58057772D01*
X125316914Y-57967472D01*
X125321861Y-57961025D01*
X125377330Y-57827109D01*
X125396250Y-57683400D01*
X125377330Y-57539691D01*
X125321861Y-57405775D01*
X125247624Y-57309028D01*
X125222430Y-57243859D01*
X125222000Y-57233541D01*
X125222000Y-55442310D01*
X125238613Y-55380310D01*
X125240711Y-55376675D01*
X125245661Y-55370225D01*
X125301130Y-55236309D01*
X125320050Y-55092600D01*
X125301130Y-54948891D01*
X125245661Y-54814975D01*
X125240711Y-54808525D01*
X125238613Y-54804890D01*
X125222000Y-54742890D01*
X125222000Y-47051362D01*
X125241685Y-46984323D01*
X125258319Y-46963681D01*
X125885181Y-46336819D01*
X125946504Y-46303334D01*
X125972862Y-46300500D01*
X130998938Y-46300500D01*
X131065977Y-46320185D01*
G37*
%TD.AperFunction*%
%TD*%
%TA.AperFunction,Conductor*%
%TO.N,GND*%
G36*
X79918834Y-72085428D02*
G01*
X79974767Y-72127300D01*
X79999184Y-72192764D01*
X79999500Y-72201610D01*
X79999500Y-77594646D01*
X80002618Y-77620846D01*
X80048061Y-77723153D01*
X80127287Y-77802241D01*
X80137758Y-77806870D01*
X80137759Y-77806871D01*
X80172511Y-77822235D01*
X80199315Y-77834085D01*
X80252669Y-77879195D01*
X80273175Y-77947556D01*
X80272000Y-80260592D01*
X80269960Y-84276228D01*
X80250241Y-84343257D01*
X80197414Y-84388986D01*
X80162145Y-84399104D01*
X80145691Y-84401270D01*
X80011775Y-84456739D01*
X79973023Y-84486475D01*
X79907854Y-84511670D01*
X79897536Y-84512100D01*
X79561607Y-84512100D01*
X79538636Y-84519563D01*
X79519726Y-84524103D01*
X79509734Y-84525686D01*
X79495874Y-84527881D01*
X79474357Y-84538845D01*
X79456383Y-84546289D01*
X79442705Y-84550733D01*
X79442704Y-84550734D01*
X79433420Y-84553750D01*
X79414682Y-84567364D01*
X79413881Y-84567946D01*
X79397293Y-84578111D01*
X79375780Y-84589072D01*
X78802691Y-85162161D01*
X78741368Y-85195646D01*
X78671676Y-85190662D01*
X78615743Y-85148790D01*
X78597719Y-85111985D01*
X78597382Y-85109154D01*
X78551939Y-85006847D01*
X78472713Y-84927759D01*
X78462242Y-84923130D01*
X78462241Y-84923129D01*
X78378853Y-84886263D01*
X78378851Y-84886262D01*
X78370327Y-84882494D01*
X78344646Y-84879500D01*
X76055354Y-84879500D01*
X76051700Y-84879935D01*
X76051698Y-84879935D01*
X76046734Y-84880526D01*
X76029154Y-84882618D01*
X75926847Y-84928061D01*
X75847759Y-85007287D01*
X75843130Y-85017758D01*
X75843129Y-85017759D01*
X75806482Y-85100653D01*
X75802494Y-85109673D01*
X75799500Y-85135354D01*
X75799500Y-86424646D01*
X75802618Y-86450846D01*
X75848061Y-86553153D01*
X75927287Y-86632241D01*
X75937758Y-86636870D01*
X75937759Y-86636871D01*
X76021147Y-86673737D01*
X76021149Y-86673738D01*
X76029673Y-86677506D01*
X76055354Y-86680500D01*
X78344646Y-86680500D01*
X78348300Y-86680065D01*
X78348302Y-86680065D01*
X78353266Y-86679474D01*
X78370846Y-86677382D01*
X78473153Y-86631939D01*
X78552241Y-86552713D01*
X78597506Y-86450327D01*
X78600500Y-86424646D01*
X78600500Y-86329500D01*
X78620185Y-86262461D01*
X78672989Y-86216706D01*
X78724500Y-86205500D01*
X78853993Y-86205500D01*
X78876964Y-86198036D01*
X78895879Y-86193496D01*
X78910087Y-86191246D01*
X78910089Y-86191245D01*
X78919726Y-86189719D01*
X78941247Y-86178754D01*
X78959216Y-86171311D01*
X78972902Y-86166864D01*
X78982181Y-86163849D01*
X78990069Y-86158118D01*
X78990073Y-86158116D01*
X79001719Y-86149654D01*
X79018303Y-86139491D01*
X79039820Y-86128528D01*
X79768929Y-85399419D01*
X79830252Y-85365934D01*
X79856610Y-85363100D01*
X79897536Y-85363100D01*
X79964575Y-85382785D01*
X79973020Y-85388723D01*
X80011775Y-85418461D01*
X80015595Y-85420043D01*
X80062534Y-85469271D01*
X80075756Y-85537878D01*
X80068781Y-85565906D01*
X80068884Y-85565934D01*
X80067338Y-85571702D01*
X80066882Y-85573537D01*
X80063670Y-85581291D01*
X80044750Y-85725000D01*
X80045811Y-85733059D01*
X80063670Y-85868709D01*
X80060222Y-85869163D01*
X80058976Y-85922975D01*
X80019852Y-85980864D01*
X79957025Y-86008236D01*
X79823554Y-86025808D01*
X79823551Y-86025809D01*
X79815491Y-86026870D01*
X79807979Y-86029981D01*
X79807977Y-86029982D01*
X79764427Y-86048021D01*
X79681575Y-86082339D01*
X79566579Y-86170579D01*
X79561635Y-86177022D01*
X79539783Y-86205500D01*
X79478339Y-86285575D01*
X79422870Y-86419491D01*
X79419958Y-86441610D01*
X79416494Y-86467921D01*
X79388227Y-86531818D01*
X79381236Y-86539417D01*
X78337471Y-87583181D01*
X78276148Y-87616666D01*
X78249790Y-87619500D01*
X76055354Y-87619500D01*
X76051700Y-87619935D01*
X76051698Y-87619935D01*
X76046734Y-87620526D01*
X76029154Y-87622618D01*
X75926847Y-87668061D01*
X75847759Y-87747287D01*
X75802494Y-87849673D01*
X75799500Y-87875354D01*
X75799500Y-89164646D01*
X75802618Y-89190846D01*
X75848061Y-89293153D01*
X75927287Y-89372241D01*
X75937758Y-89376870D01*
X75937759Y-89376871D01*
X76021147Y-89413737D01*
X76021149Y-89413738D01*
X76029673Y-89417506D01*
X76055354Y-89420500D01*
X78344646Y-89420500D01*
X78348300Y-89420065D01*
X78348302Y-89420065D01*
X78353266Y-89419474D01*
X78370846Y-89417382D01*
X78473153Y-89371939D01*
X78552241Y-89292713D01*
X78597506Y-89190327D01*
X78600500Y-89164646D01*
X78600500Y-88575010D01*
X78620185Y-88507971D01*
X78636819Y-88487329D01*
X78962819Y-88161329D01*
X79024142Y-88127844D01*
X79093834Y-88132828D01*
X79149767Y-88174700D01*
X79174184Y-88240164D01*
X79174500Y-88249010D01*
X79174500Y-91172390D01*
X79154815Y-91239429D01*
X79138181Y-91260071D01*
X78631795Y-91766457D01*
X78570472Y-91799942D01*
X78500780Y-91794958D01*
X78444847Y-91753086D01*
X78440116Y-91746307D01*
X78316607Y-91556100D01*
X78316602Y-91556093D01*
X78314205Y-91552402D01*
X78257253Y-91487213D01*
X78252277Y-91482931D01*
X78179296Y-91436321D01*
X78175273Y-91434495D01*
X78175270Y-91434493D01*
X74748743Y-89878892D01*
X74695837Y-89833255D01*
X74676002Y-89766296D01*
X74668067Y-86624153D01*
X74652574Y-80488665D01*
X74629101Y-80371999D01*
X74625664Y-80363745D01*
X74559386Y-80264888D01*
X74407630Y-80113514D01*
X74374067Y-80052234D01*
X74371200Y-80025723D01*
X74371200Y-79593157D01*
X74390885Y-79526118D01*
X74443689Y-79480363D01*
X74495453Y-79469157D01*
X77974480Y-79476257D01*
X77974484Y-79476257D01*
X77980550Y-79476269D01*
X78097130Y-79453408D01*
X78105388Y-79450020D01*
X78204435Y-79384415D01*
X78701249Y-78892245D01*
X78767775Y-78793834D01*
X78771241Y-78785608D01*
X78795203Y-78669232D01*
X78801247Y-77847382D01*
X78813156Y-76227745D01*
X78813190Y-76223180D01*
X78800694Y-76134425D01*
X78798771Y-76127912D01*
X78773458Y-76073339D01*
X78763106Y-76004243D01*
X78791754Y-75940517D01*
X78798265Y-75933483D01*
X79648528Y-75083220D01*
X79659491Y-75061703D01*
X79669654Y-75045119D01*
X79678116Y-75033473D01*
X79678118Y-75033469D01*
X79683849Y-75025581D01*
X79691311Y-75002616D01*
X79698754Y-74984647D01*
X79709719Y-74963126D01*
X79713496Y-74939279D01*
X79718036Y-74920364D01*
X79725500Y-74897393D01*
X79725500Y-72227610D01*
X79745185Y-72160571D01*
X79761819Y-72139929D01*
X79787819Y-72113929D01*
X79849142Y-72080444D01*
X79918834Y-72085428D01*
G37*
%TD.AperFunction*%
%TA.AperFunction,Conductor*%
G36*
X78348750Y-63266086D02*
G01*
X78392684Y-63294432D01*
X79708780Y-64610528D01*
X79730297Y-64621491D01*
X79746881Y-64631654D01*
X79758527Y-64640116D01*
X79758531Y-64640118D01*
X79766419Y-64645849D01*
X79775698Y-64648864D01*
X79789384Y-64653311D01*
X79807353Y-64660754D01*
X79828874Y-64671719D01*
X79838511Y-64673245D01*
X79838513Y-64673246D01*
X79852721Y-64675496D01*
X79871636Y-64680036D01*
X79894607Y-64687500D01*
X79904365Y-64687500D01*
X79914005Y-64689027D01*
X79913504Y-64692189D01*
X79964575Y-64707185D01*
X79973020Y-64713123D01*
X80011775Y-64742861D01*
X80019287Y-64745972D01*
X80019286Y-64745972D01*
X80138177Y-64795218D01*
X80138179Y-64795219D01*
X80145691Y-64798330D01*
X80153753Y-64799391D01*
X80153755Y-64799392D01*
X80166200Y-64801030D01*
X80171973Y-64801790D01*
X80235870Y-64830055D01*
X80274342Y-64888379D01*
X80279788Y-64924788D01*
X80278702Y-67064032D01*
X80278555Y-67353286D01*
X80258836Y-67420315D01*
X80206009Y-67466044D01*
X80138370Y-67476162D01*
X80068860Y-67467011D01*
X80068859Y-67467011D01*
X80060800Y-67465950D01*
X79917091Y-67484870D01*
X79909579Y-67487981D01*
X79909577Y-67487982D01*
X79819207Y-67525414D01*
X79783175Y-67540339D01*
X79668179Y-67628579D01*
X79579939Y-67743575D01*
X79524470Y-67877491D01*
X79505550Y-68021200D01*
X79524470Y-68164909D01*
X79579939Y-68298825D01*
X79584888Y-68305274D01*
X79609675Y-68337577D01*
X79634870Y-68402746D01*
X79635300Y-68413064D01*
X79635300Y-69000390D01*
X79615615Y-69067429D01*
X79562811Y-69113184D01*
X79493653Y-69123128D01*
X79463853Y-69114953D01*
X79391709Y-69085070D01*
X79248000Y-69066150D01*
X79104291Y-69085070D01*
X79096779Y-69088181D01*
X79096777Y-69088182D01*
X79036417Y-69113184D01*
X78970375Y-69140539D01*
X78963927Y-69145486D01*
X78963923Y-69145489D01*
X78920414Y-69178875D01*
X78855245Y-69204070D01*
X78844927Y-69204500D01*
X78724500Y-69204500D01*
X78657461Y-69184815D01*
X78611706Y-69132011D01*
X78600500Y-69080500D01*
X78600500Y-68985354D01*
X78597382Y-68959154D01*
X78551939Y-68856847D01*
X78472713Y-68777759D01*
X78462242Y-68773130D01*
X78462241Y-68773129D01*
X78378853Y-68736263D01*
X78378851Y-68736262D01*
X78370327Y-68732494D01*
X78344646Y-68729500D01*
X76055354Y-68729500D01*
X76051700Y-68729935D01*
X76051698Y-68729935D01*
X76046734Y-68730526D01*
X76029154Y-68732618D01*
X75926847Y-68778061D01*
X75847759Y-68857287D01*
X75802494Y-68959673D01*
X75799500Y-68985354D01*
X75799500Y-70274646D01*
X75802618Y-70300846D01*
X75848061Y-70403153D01*
X75927287Y-70482241D01*
X75937758Y-70486870D01*
X75937759Y-70486871D01*
X76021147Y-70523737D01*
X76021149Y-70523738D01*
X76029673Y-70527506D01*
X76055354Y-70530500D01*
X78344646Y-70530500D01*
X78348300Y-70530065D01*
X78348302Y-70530065D01*
X78353266Y-70529474D01*
X78370846Y-70527382D01*
X78473153Y-70481939D01*
X78552241Y-70402713D01*
X78597506Y-70300327D01*
X78600500Y-70274646D01*
X78600500Y-70179500D01*
X78620185Y-70112461D01*
X78672989Y-70066706D01*
X78724500Y-70055500D01*
X78867342Y-70055500D01*
X78934381Y-70075185D01*
X78942829Y-70081125D01*
X78963923Y-70097311D01*
X78963927Y-70097313D01*
X78970375Y-70102261D01*
X78977887Y-70105372D01*
X78977886Y-70105372D01*
X79096777Y-70154618D01*
X79096779Y-70154619D01*
X79104291Y-70157730D01*
X79248000Y-70176650D01*
X79256059Y-70175589D01*
X79256060Y-70175589D01*
X79337729Y-70164837D01*
X79406764Y-70175603D01*
X79459020Y-70221983D01*
X79477905Y-70289251D01*
X79457424Y-70356052D01*
X79441595Y-70375457D01*
X78383871Y-71433181D01*
X78322548Y-71466666D01*
X78296190Y-71469500D01*
X76055354Y-71469500D01*
X76051700Y-71469935D01*
X76051698Y-71469935D01*
X76046734Y-71470526D01*
X76029154Y-71472618D01*
X75926847Y-71518061D01*
X75847759Y-71597287D01*
X75802494Y-71699673D01*
X75799500Y-71725354D01*
X75799500Y-73014646D01*
X75802618Y-73040846D01*
X75848061Y-73143153D01*
X75927287Y-73222241D01*
X75937758Y-73226870D01*
X75937759Y-73226871D01*
X76021147Y-73263737D01*
X76021149Y-73263738D01*
X76029673Y-73267506D01*
X76055354Y-73270500D01*
X78344646Y-73270500D01*
X78348300Y-73270065D01*
X78348302Y-73270065D01*
X78353266Y-73269474D01*
X78370846Y-73267382D01*
X78473153Y-73221939D01*
X78552241Y-73142713D01*
X78597506Y-73040327D01*
X78600500Y-73014646D01*
X78600500Y-72471410D01*
X78620185Y-72404371D01*
X78636819Y-72383729D01*
X78662819Y-72357729D01*
X78724142Y-72324244D01*
X78793834Y-72329228D01*
X78849767Y-72371100D01*
X78874184Y-72436564D01*
X78874500Y-72445410D01*
X78874500Y-74602390D01*
X78854815Y-74669429D01*
X78838181Y-74690071D01*
X78310854Y-75217398D01*
X78249531Y-75250883D01*
X78179839Y-75245899D01*
X78168929Y-75241085D01*
X78166778Y-75239773D01*
X74752361Y-73794405D01*
X74698299Y-73750145D01*
X74676700Y-73680216D01*
X74676700Y-64360446D01*
X74653443Y-64243530D01*
X74650016Y-64235257D01*
X74583794Y-64136152D01*
X74407519Y-63959877D01*
X74374034Y-63898554D01*
X74371200Y-63872196D01*
X74371200Y-63523100D01*
X74390885Y-63456061D01*
X74443689Y-63410306D01*
X74495200Y-63399100D01*
X77981177Y-63399100D01*
X77987121Y-63397923D01*
X77987125Y-63397923D01*
X78053658Y-63384752D01*
X78097567Y-63376060D01*
X78105811Y-63372663D01*
X78204669Y-63306994D01*
X78217637Y-63294118D01*
X78279076Y-63260854D01*
X78348750Y-63266086D01*
G37*
%TD.AperFunction*%
%TA.AperFunction,Conductor*%
G36*
X79605406Y-46320185D02*
G01*
X79626069Y-46336841D01*
X80252570Y-46963659D01*
X80286039Y-47024990D01*
X80288866Y-47051379D01*
X80284884Y-54892913D01*
X80284729Y-55197392D01*
X80265010Y-55264421D01*
X80211065Y-55310653D01*
X80152636Y-55336606D01*
X80083378Y-55345830D01*
X80020127Y-55316146D01*
X79982966Y-55256978D01*
X79978300Y-55223282D01*
X79978300Y-54949007D01*
X79970837Y-54926036D01*
X79966297Y-54907126D01*
X79964046Y-54892913D01*
X79964045Y-54892911D01*
X79962519Y-54883274D01*
X79951557Y-54861759D01*
X79944113Y-54843788D01*
X79939666Y-54830101D01*
X79939666Y-54830100D01*
X79936650Y-54820819D01*
X79930915Y-54812925D01*
X79930913Y-54812922D01*
X79922455Y-54801282D01*
X79912290Y-54784695D01*
X79901328Y-54763180D01*
X78636819Y-53498671D01*
X78603334Y-53437348D01*
X78600500Y-53410990D01*
X78600500Y-52835354D01*
X78597382Y-52809154D01*
X78551939Y-52706847D01*
X78472713Y-52627759D01*
X78462242Y-52623130D01*
X78462241Y-52623129D01*
X78378853Y-52586263D01*
X78378851Y-52586262D01*
X78370327Y-52582494D01*
X78344646Y-52579500D01*
X76055354Y-52579500D01*
X76051700Y-52579935D01*
X76051698Y-52579935D01*
X76046734Y-52580526D01*
X76029154Y-52582618D01*
X75926847Y-52628061D01*
X75847759Y-52707287D01*
X75802494Y-52809673D01*
X75799500Y-52835354D01*
X75799500Y-54124646D01*
X75802618Y-54150846D01*
X75848061Y-54253153D01*
X75927287Y-54332241D01*
X75937758Y-54336870D01*
X75937759Y-54336871D01*
X76021147Y-54373737D01*
X76021149Y-54373738D01*
X76029673Y-54377506D01*
X76055354Y-54380500D01*
X78263790Y-54380500D01*
X78330829Y-54400185D01*
X78351471Y-54416819D01*
X79090981Y-55156329D01*
X79124466Y-55217652D01*
X79127300Y-55244010D01*
X79127300Y-56940991D01*
X79107615Y-57008030D01*
X79054811Y-57053785D01*
X78985653Y-57063729D01*
X78922097Y-57034704D01*
X78915619Y-57028672D01*
X78636819Y-56749872D01*
X78603334Y-56688549D01*
X78600500Y-56662191D01*
X78600500Y-55575354D01*
X78597382Y-55549154D01*
X78551939Y-55446847D01*
X78472713Y-55367759D01*
X78462242Y-55363130D01*
X78462241Y-55363129D01*
X78378853Y-55326263D01*
X78378851Y-55326262D01*
X78370327Y-55322494D01*
X78344646Y-55319500D01*
X76055354Y-55319500D01*
X76051700Y-55319935D01*
X76051698Y-55319935D01*
X76046734Y-55320526D01*
X76029154Y-55322618D01*
X75926847Y-55368061D01*
X75847759Y-55447287D01*
X75802494Y-55549673D01*
X75799500Y-55575354D01*
X75799500Y-56864646D01*
X75802618Y-56890846D01*
X75848061Y-56993153D01*
X75927287Y-57072241D01*
X75937758Y-57076870D01*
X75937759Y-57076871D01*
X76021147Y-57113737D01*
X76021149Y-57113738D01*
X76029673Y-57117506D01*
X76055354Y-57120500D01*
X77752590Y-57120500D01*
X77819629Y-57140185D01*
X77840271Y-57156819D01*
X78506781Y-57823328D01*
X78540266Y-57884651D01*
X78543100Y-57911009D01*
X78543100Y-59090640D01*
X78523415Y-59157679D01*
X78470611Y-59203434D01*
X78401453Y-59213378D01*
X78337897Y-59184353D01*
X78320430Y-59165397D01*
X78319770Y-59164346D01*
X78316920Y-59160984D01*
X78316915Y-59160978D01*
X78266661Y-59101710D01*
X78266660Y-59101709D01*
X78263806Y-59098343D01*
X78258899Y-59093992D01*
X78186705Y-59046345D01*
X74747736Y-57421801D01*
X74695527Y-57375368D01*
X74676700Y-57309682D01*
X74676700Y-48206046D01*
X74653443Y-48089130D01*
X74650016Y-48080857D01*
X74583794Y-47981752D01*
X74407519Y-47805477D01*
X74374034Y-47744154D01*
X74371200Y-47717796D01*
X74371200Y-47051362D01*
X74390885Y-46984323D01*
X74407519Y-46963681D01*
X75034381Y-46336819D01*
X75095704Y-46303334D01*
X75122062Y-46300500D01*
X79538367Y-46300500D01*
X79605406Y-46320185D01*
G37*
%TD.AperFunction*%
%TD*%
%TA.AperFunction,Conductor*%
%TO.N,+BATT*%
G36*
X86031777Y-46320185D02*
G01*
X86052419Y-46336819D01*
X86679281Y-46963681D01*
X86712766Y-47025004D01*
X86715600Y-47051362D01*
X86715600Y-67854329D01*
X86712553Y-67877476D01*
X86712670Y-67877491D01*
X86693750Y-68021200D01*
X86694811Y-68029259D01*
X86712670Y-68164909D01*
X86712553Y-68164924D01*
X86715600Y-68188071D01*
X86715600Y-69454529D01*
X86712553Y-69477676D01*
X86712670Y-69477691D01*
X86693750Y-69621400D01*
X86694811Y-69629459D01*
X86712670Y-69765109D01*
X86712553Y-69765124D01*
X86715600Y-69788271D01*
X86715600Y-80041290D01*
X86698987Y-80103290D01*
X86696889Y-80106925D01*
X86691939Y-80113375D01*
X86636470Y-80247291D01*
X86617550Y-80391000D01*
X86636470Y-80534709D01*
X86639581Y-80542221D01*
X86639582Y-80542223D01*
X86677014Y-80632593D01*
X86691939Y-80668625D01*
X86696889Y-80675075D01*
X86698987Y-80678710D01*
X86715600Y-80740710D01*
X86715600Y-84770729D01*
X86712553Y-84793876D01*
X86712670Y-84793891D01*
X86693750Y-84937600D01*
X86694811Y-84945659D01*
X86712670Y-85081309D01*
X86712553Y-85081324D01*
X86715600Y-85104471D01*
X86715600Y-86396329D01*
X86712553Y-86419476D01*
X86712670Y-86419491D01*
X86693750Y-86563200D01*
X86694811Y-86571259D01*
X86712670Y-86706909D01*
X86712553Y-86706924D01*
X86715600Y-86730071D01*
X86715600Y-94996000D01*
X80563231Y-94996000D01*
X80569407Y-94953198D01*
X80569407Y-94953197D01*
X80570040Y-94948811D01*
X80570474Y-94094085D01*
X80557593Y-94006157D01*
X80537088Y-93937797D01*
X80512669Y-93879286D01*
X80441714Y-93792279D01*
X80436425Y-93787807D01*
X80391741Y-93750027D01*
X80391737Y-93750024D01*
X80388359Y-93747168D01*
X80363231Y-93731446D01*
X80316839Y-93679203D01*
X80305000Y-93626326D01*
X80305000Y-91901610D01*
X80304805Y-91890704D01*
X80304489Y-91881858D01*
X80289400Y-91805999D01*
X80289400Y-87963710D01*
X80309085Y-87896671D01*
X80325719Y-87876029D01*
X80948528Y-87253220D01*
X80959489Y-87231707D01*
X80969654Y-87215119D01*
X80970236Y-87214318D01*
X80983850Y-87195580D01*
X80991311Y-87172617D01*
X80998757Y-87154639D01*
X81005288Y-87141822D01*
X81009719Y-87133126D01*
X81013497Y-87109274D01*
X81018038Y-87090358D01*
X81025500Y-87067393D01*
X81025500Y-86116864D01*
X81045185Y-86049825D01*
X81051125Y-86041377D01*
X81075912Y-86009074D01*
X81080861Y-86002625D01*
X81136330Y-85868709D01*
X81155250Y-85725000D01*
X81136330Y-85581291D01*
X81105649Y-85507218D01*
X81091860Y-85473930D01*
X81080861Y-85447375D01*
X80992621Y-85332379D01*
X80877625Y-85244139D01*
X80873808Y-85242558D01*
X80826869Y-85193334D01*
X80813643Y-85124727D01*
X80820619Y-85096694D01*
X80820516Y-85096666D01*
X80822062Y-85090897D01*
X80822519Y-85089060D01*
X80825730Y-85081309D01*
X80844650Y-84937600D01*
X80825730Y-84793891D01*
X80770261Y-84659975D01*
X80682021Y-84544979D01*
X80675578Y-84540035D01*
X80675575Y-84540032D01*
X80608154Y-84488298D01*
X80566951Y-84431870D01*
X80562533Y-84364173D01*
X80563041Y-84362448D01*
X80575460Y-84276383D01*
X80577438Y-80382941D01*
X80578673Y-77952240D01*
X80578673Y-77952236D01*
X80578675Y-77947711D01*
X80565794Y-77859780D01*
X80545288Y-77791419D01*
X80520869Y-77732910D01*
X80449913Y-77645904D01*
X80445538Y-77642205D01*
X80399941Y-77603653D01*
X80399937Y-77603650D01*
X80396559Y-77600794D01*
X80392810Y-77598449D01*
X80392804Y-77598444D01*
X80363229Y-77579940D01*
X80316838Y-77527694D01*
X80305000Y-77474820D01*
X80305000Y-72201610D01*
X80304805Y-72190704D01*
X80304489Y-72181858D01*
X80291783Y-72117981D01*
X80289400Y-72093790D01*
X80289400Y-71663710D01*
X80309085Y-71596671D01*
X80325719Y-71576029D01*
X81018928Y-70882820D01*
X81029891Y-70861303D01*
X81040054Y-70844719D01*
X81048516Y-70833073D01*
X81048518Y-70833069D01*
X81054249Y-70825181D01*
X81061711Y-70802216D01*
X81069154Y-70784247D01*
X81080119Y-70762726D01*
X81083896Y-70738879D01*
X81088436Y-70719964D01*
X81095900Y-70696993D01*
X81095900Y-69200464D01*
X81115585Y-69133425D01*
X81121525Y-69124977D01*
X81146312Y-69092674D01*
X81151261Y-69086225D01*
X81167437Y-69047173D01*
X81203618Y-68959823D01*
X81203619Y-68959821D01*
X81206730Y-68952309D01*
X81225650Y-68808600D01*
X81206730Y-68664891D01*
X81195931Y-68638818D01*
X81154372Y-68538486D01*
X81151261Y-68530975D01*
X81063021Y-68415979D01*
X80948025Y-68327739D01*
X80911993Y-68312814D01*
X80821623Y-68275382D01*
X80821621Y-68275381D01*
X80814109Y-68272270D01*
X80806049Y-68271209D01*
X80806046Y-68271208D01*
X80737141Y-68262137D01*
X80709872Y-68258547D01*
X80645976Y-68230281D01*
X80607505Y-68171956D01*
X80603119Y-68119423D01*
X80614989Y-68029260D01*
X80614989Y-68029259D01*
X80616050Y-68021200D01*
X80597130Y-67877491D01*
X80541661Y-67743575D01*
X80536713Y-67737127D01*
X80536711Y-67737123D01*
X80522891Y-67719112D01*
X80497697Y-67653942D01*
X80510764Y-67587367D01*
X80549314Y-67511648D01*
X80549314Y-67511647D01*
X80551917Y-67506535D01*
X80571636Y-67439506D01*
X80584055Y-67353441D01*
X80585288Y-64924943D01*
X80581927Y-64879595D01*
X80576481Y-64843186D01*
X80572905Y-64823645D01*
X80575874Y-64823102D01*
X80575778Y-64766369D01*
X80613454Y-64707528D01*
X80619327Y-64702728D01*
X80675578Y-64659565D01*
X80682021Y-64654621D01*
X80770261Y-64539625D01*
X80825730Y-64405709D01*
X80844650Y-64262000D01*
X80825730Y-64118291D01*
X80818751Y-64101440D01*
X80773372Y-63991886D01*
X80770261Y-63984375D01*
X80765313Y-63977927D01*
X80765311Y-63977923D01*
X80729372Y-63931087D01*
X80704177Y-63865918D01*
X80718215Y-63797473D01*
X80729372Y-63780113D01*
X80765311Y-63733277D01*
X80765313Y-63733273D01*
X80770261Y-63726825D01*
X80785186Y-63690793D01*
X80822618Y-63600423D01*
X80822619Y-63600421D01*
X80825730Y-63592909D01*
X80844650Y-63449200D01*
X80825730Y-63305491D01*
X80770261Y-63171575D01*
X80765313Y-63165127D01*
X80765311Y-63165123D01*
X80732327Y-63122138D01*
X80707132Y-63056969D01*
X80721170Y-62988524D01*
X80732327Y-62971164D01*
X80790711Y-62895077D01*
X80790713Y-62895073D01*
X80795661Y-62888625D01*
X80851130Y-62754709D01*
X80870050Y-62611000D01*
X80851130Y-62467291D01*
X80795661Y-62333375D01*
X80744429Y-62266609D01*
X80712365Y-62224822D01*
X80707421Y-62218379D01*
X80592425Y-62130139D01*
X80458509Y-62074670D01*
X80410079Y-62068294D01*
X80346183Y-62040027D01*
X80338584Y-62033036D01*
X80325719Y-62020171D01*
X80292234Y-61958848D01*
X80289400Y-61932490D01*
X80289400Y-55687046D01*
X80309085Y-55620007D01*
X80347188Y-55582204D01*
X80406054Y-55545028D01*
X80406065Y-55545020D01*
X80409865Y-55542620D01*
X80463810Y-55496388D01*
X80486467Y-55472501D01*
X80500994Y-55457186D01*
X80500996Y-55457183D01*
X80507153Y-55450692D01*
X80558091Y-55350641D01*
X80577810Y-55283612D01*
X80590229Y-55197547D01*
X80593221Y-49306237D01*
X80612940Y-49239208D01*
X80665767Y-49193479D01*
X80717221Y-49182300D01*
X81686646Y-49182300D01*
X81690300Y-49181865D01*
X81690302Y-49181865D01*
X81695266Y-49181274D01*
X81712846Y-49179182D01*
X81815153Y-49133739D01*
X81894241Y-49054513D01*
X81939506Y-48952127D01*
X81942500Y-48926446D01*
X81942500Y-47137154D01*
X81939382Y-47110954D01*
X81893939Y-47008647D01*
X81814713Y-46929559D01*
X81804242Y-46924930D01*
X81804241Y-46924929D01*
X81720853Y-46888063D01*
X81720851Y-46888062D01*
X81712327Y-46884294D01*
X81686646Y-46881300D01*
X80707462Y-46881300D01*
X80640423Y-46861615D01*
X80594668Y-46808811D01*
X80584724Y-46739653D01*
X80613749Y-46676097D01*
X80619781Y-46669619D01*
X80952581Y-46336819D01*
X81013904Y-46303334D01*
X81040262Y-46300500D01*
X85964738Y-46300500D01*
X86031777Y-46320185D01*
G37*
%TD.AperFunction*%
%TD*%
%TA.AperFunction,Conductor*%
%TO.N,C1*%
G36*
X145503427Y-79454627D02*
G01*
X145796073Y-79747273D01*
X145799500Y-79755546D01*
X145799500Y-93980454D01*
X145796073Y-93988727D01*
X145503427Y-94281373D01*
X145495154Y-94284800D01*
X138198246Y-94284800D01*
X138189973Y-94281373D01*
X137696827Y-93788227D01*
X137693400Y-93779954D01*
X137693400Y-84531200D01*
X133938431Y-82369248D01*
X133934140Y-82364965D01*
X133503971Y-81620917D01*
X133502400Y-81615061D01*
X133502400Y-79956046D01*
X133505827Y-79947773D01*
X133998973Y-79454627D01*
X134007246Y-79451200D01*
X145495154Y-79451200D01*
X145503427Y-79454627D01*
G37*
%TD.AperFunction*%
%TD*%
M02*
