%TF.GenerationSoftware,KiCad,Pcbnew,(6.0.5)*%
%TF.CreationDate,2023-08-08T13:01:53+01:00*%
%TF.ProjectId,Melty,4d656c74-792e-46b6-9963-61645f706362,rev?*%
%TF.SameCoordinates,Original*%
%TF.FileFunction,Copper,L2,Bot*%
%TF.FilePolarity,Positive*%
%FSLAX46Y46*%
G04 Gerber Fmt 4.6, Leading zero omitted, Abs format (unit mm)*
G04 Created by KiCad (PCBNEW (6.0.5)) date 2023-08-08 13:01:53*
%MOMM*%
%LPD*%
G01*
G04 APERTURE LIST*
G04 Aperture macros list*
%AMRoundRect*
0 Rectangle with rounded corners*
0 $1 Rounding radius*
0 $2 $3 $4 $5 $6 $7 $8 $9 X,Y pos of 4 corners*
0 Add a 4 corners polygon primitive as box body*
4,1,4,$2,$3,$4,$5,$6,$7,$8,$9,$2,$3,0*
0 Add four circle primitives for the rounded corners*
1,1,$1+$1,$2,$3*
1,1,$1+$1,$4,$5*
1,1,$1+$1,$6,$7*
1,1,$1+$1,$8,$9*
0 Add four rect primitives between the rounded corners*
20,1,$1+$1,$2,$3,$4,$5,0*
20,1,$1+$1,$4,$5,$6,$7,0*
20,1,$1+$1,$6,$7,$8,$9,0*
20,1,$1+$1,$8,$9,$2,$3,0*%
G04 Aperture macros list end*
%TA.AperFunction,ComponentPad*%
%ADD10R,1.350000X1.350000*%
%TD*%
%TA.AperFunction,ComponentPad*%
%ADD11O,1.350000X1.350000*%
%TD*%
%TA.AperFunction,ComponentPad*%
%ADD12R,1.700000X1.700000*%
%TD*%
%TA.AperFunction,ComponentPad*%
%ADD13O,1.700000X1.700000*%
%TD*%
%TA.AperFunction,ComponentPad*%
%ADD14RoundRect,1.200000X-0.800000X-0.800000X0.800000X-0.800000X0.800000X0.800000X-0.800000X0.800000X0*%
%TD*%
%TA.AperFunction,ComponentPad*%
%ADD15R,1.500000X1.050000*%
%TD*%
%TA.AperFunction,ComponentPad*%
%ADD16O,1.500000X1.050000*%
%TD*%
%TA.AperFunction,SMDPad,CuDef*%
%ADD17RoundRect,0.250000X-0.353553X0.707107X-0.707107X0.353553X0.353553X-0.707107X0.707107X-0.353553X0*%
%TD*%
%TA.AperFunction,SMDPad,CuDef*%
%ADD18RoundRect,0.250000X0.250000X0.750000X-0.250000X0.750000X-0.250000X-0.750000X0.250000X-0.750000X0*%
%TD*%
%TA.AperFunction,SMDPad,CuDef*%
%ADD19RoundRect,0.250000X0.353553X-0.707107X0.707107X-0.353553X-0.353553X0.707107X-0.707107X0.353553X0*%
%TD*%
%TA.AperFunction,ViaPad*%
%ADD20C,0.500000*%
%TD*%
%TA.AperFunction,Conductor*%
%ADD21C,0.500000*%
%TD*%
%TA.AperFunction,Conductor*%
%ADD22C,0.300000*%
%TD*%
%TA.AperFunction,Conductor*%
%ADD23C,0.250000*%
%TD*%
%TA.AperFunction,Conductor*%
%ADD24C,0.400000*%
%TD*%
G04 APERTURE END LIST*
D10*
%TO.P,J13,1,Pin_1*%
%TO.N,+5V*%
X105550000Y-87950000D03*
D11*
%TO.P,J13,2,Pin_2*%
%TO.N,Net-(J13-Pad2)*%
X107550000Y-87950000D03*
%TO.P,J13,3,Pin_3*%
%TO.N,Net-(J13-Pad3)*%
X109550000Y-87950000D03*
%TO.P,J13,4,Pin_4*%
%TO.N,Net-(J13-Pad4)*%
X111550000Y-87950000D03*
%TO.P,J13,5,Pin_5*%
%TO.N,Net-(J13-Pad5)*%
X113550000Y-87950000D03*
%TO.P,J13,6,Pin_6*%
%TO.N,Net-(J13-Pad6)*%
X115550000Y-87950000D03*
%TO.P,J13,7,Pin_7*%
%TO.N,Net-(J13-Pad7)*%
X117550000Y-87950000D03*
%TD*%
D12*
%TO.P,J11,1,Pin_1*%
%TO.N,GND*%
X80792000Y-48031800D03*
D13*
%TO.P,J11,2,Pin_2*%
%TO.N,+BATT*%
X83332000Y-48031800D03*
%TD*%
D14*
%TO.P,,1*%
%TO.N,C2*%
X71750000Y-90800000D03*
%TD*%
D12*
%TO.P,J1,1,Pin_1*%
%TO.N,+3V3*%
X89408000Y-49001600D03*
D13*
%TO.P,J1,2,Pin_2*%
%TO.N,SWDCLK*%
X89408000Y-51541600D03*
%TO.P,J1,3,Pin_3*%
%TO.N,GND*%
X89408000Y-54081600D03*
%TO.P,J1,4,Pin_4*%
%TO.N,SWDIO*%
X89408000Y-56621600D03*
%TO.P,J1,5,Pin_5*%
%TO.N,SWO*%
X89408000Y-59161600D03*
%TD*%
D14*
%TO.P,,1*%
%TO.N,C1*%
X140200000Y-83450000D03*
%TD*%
D10*
%TO.P,J12,1,Pin_1*%
%TO.N,+3V3*%
X102550000Y-81950000D03*
D11*
%TO.P,J12,2,Pin_2*%
%TO.N,IR_top*%
X102550000Y-83950000D03*
%TO.P,J12,3,Pin_3*%
%TO.N,IR_bottom*%
X102550000Y-85950000D03*
%TO.P,J12,4,Pin_4*%
%TO.N,GND*%
X102550000Y-87950000D03*
%TD*%
D14*
%TO.P,REF\u002A\u002A,1*%
%TO.N,B1*%
X140200000Y-67250000D03*
%TD*%
%TO.P,,1*%
%TO.N,A1*%
X140150000Y-51150000D03*
%TD*%
%TO.P,,1*%
%TO.N,B2*%
X71750000Y-74650000D03*
%TD*%
D15*
%TO.P,Q4,1,E*%
%TO.N,GND*%
X106400000Y-80500000D03*
D16*
%TO.P,Q4,2,B*%
%TO.N,Net-(Q4-Pad2)*%
X106400000Y-81770000D03*
%TO.P,Q4,3,C*%
%TO.N,Net-(Q4-Pad3)*%
X106400000Y-83040000D03*
%TD*%
D14*
%TO.P,,1*%
%TO.N,A2*%
X71700000Y-58500000D03*
%TD*%
D15*
%TO.P,Q3,1,E*%
%TO.N,GND*%
X111390000Y-80480000D03*
D16*
%TO.P,Q3,2,B*%
%TO.N,Net-(Q3-Pad2)*%
X111390000Y-81750000D03*
%TO.P,Q3,3,C*%
%TO.N,Net-(Q3-Pad3)*%
X111390000Y-83020000D03*
%TD*%
D17*
%TO.P,J6,1,Pin_1*%
%TO.N,PWM2*%
X107899200Y-74879200D03*
%TD*%
%TO.P,J4,1,Pin_1*%
%TO.N,+5V*%
X105423958Y-71334642D03*
%TD*%
D18*
%TO.P,J2,1,Pin_1*%
%TO.N,+5V*%
X114200000Y-60274200D03*
%TD*%
D17*
%TO.P,J8,1,Pin_1*%
%TO.N,GND*%
X105878643Y-76899758D03*
%TD*%
D19*
%TO.P,J9,1,Pin_1*%
%TO.N,GND*%
X101382842Y-75375758D03*
%TD*%
D18*
%TO.P,J5,1,Pin_1*%
%TO.N,PPM*%
X111315500Y-60274200D03*
%TD*%
D17*
%TO.P,J7,1,Pin_1*%
%TO.N,PWM3*%
X103403400Y-73355200D03*
%TD*%
%TO.P,J3,1,Pin_1*%
%TO.N,+5V*%
X109919758Y-72858643D03*
%TD*%
D18*
%TO.P,J10,1,Pin_1*%
%TO.N,GND*%
X108458000Y-60274200D03*
%TD*%
D20*
%TO.N,GND*%
X79019400Y-48895000D03*
X75488800Y-65024000D03*
X77241400Y-47447200D03*
X133019800Y-62585600D03*
X123700000Y-86700000D03*
X136982200Y-62204600D03*
X116762500Y-83000000D03*
X79121000Y-52603400D03*
X134747000Y-62052200D03*
X136601200Y-93065600D03*
X75209400Y-85369400D03*
X75285600Y-72034400D03*
X136300000Y-74400000D03*
X77216000Y-79984600D03*
X135026400Y-57581800D03*
X134797800Y-91871800D03*
X108929808Y-68315208D03*
X77190600Y-63855600D03*
X100200000Y-61300000D03*
X77200000Y-84450000D03*
X133150000Y-92550000D03*
X78900000Y-80400000D03*
X136652000Y-60731400D03*
X79000000Y-65000000D03*
X136677400Y-72390000D03*
X91300000Y-66100000D03*
X75514200Y-48895000D03*
X133150000Y-90000000D03*
X133680200Y-95199200D03*
X107975400Y-55727600D03*
X136626600Y-78689200D03*
X118550000Y-61250000D03*
X136677400Y-56515000D03*
X134797800Y-59537600D03*
X87172800Y-80391000D03*
X78333600Y-50876200D03*
X77190600Y-51841400D03*
X136169400Y-58674000D03*
X75300000Y-67050000D03*
X77216000Y-82499200D03*
X132750000Y-77050000D03*
X124841000Y-59639200D03*
X100100000Y-86550000D03*
X136525000Y-76936600D03*
X77190600Y-66294000D03*
X136804400Y-86029800D03*
X116050000Y-61900000D03*
X133450000Y-76050000D03*
X134797800Y-75768200D03*
X75285600Y-83362800D03*
X98850000Y-71850000D03*
X133070600Y-60756800D03*
X134848600Y-94234000D03*
X124850000Y-61250000D03*
X107350000Y-47500000D03*
X136728200Y-53746400D03*
X136702800Y-69723000D03*
X133654800Y-58267600D03*
X78841600Y-68199000D03*
X75285600Y-69113400D03*
X133070600Y-78105000D03*
X136601200Y-90017600D03*
X136779000Y-88366600D03*
X134797800Y-73888600D03*
X107350000Y-51200000D03*
X75260200Y-52603400D03*
X96650000Y-83850000D03*
X106550000Y-49350000D03*
X77190600Y-50139600D03*
X78943200Y-84429600D03*
X132350000Y-91150000D03*
X108350000Y-62150000D03*
X102100000Y-54900000D03*
X75285600Y-81203800D03*
X75488800Y-50952400D03*
X134797800Y-78079600D03*
X77216000Y-68072000D03*
X75209400Y-87960200D03*
X132867400Y-73329800D03*
%TO.N,+3V3*%
X103352600Y-65405000D03*
X95986600Y-65074800D03*
X103200200Y-54914800D03*
X91948000Y-64592200D03*
X99250000Y-76050000D03*
X102100000Y-58928000D03*
%TO.N,+3.3VA*%
X111150000Y-78450000D03*
X96064308Y-74776108D03*
%TO.N,SWDIO*%
X100100000Y-62300000D03*
%TO.N,SWDCLK*%
X97950000Y-59050000D03*
%TO.N,SWO*%
X95123000Y-61112400D03*
%TO.N,SPIx_SCK*%
X103474500Y-57300000D03*
X105547481Y-56805028D03*
%TO.N,A1_INL*%
X117373400Y-56845200D03*
X113588800Y-55753000D03*
%TO.N,B1_INL*%
X113600000Y-57800000D03*
X115595400Y-57800000D03*
%TO.N,A1*%
X113004600Y-53670200D03*
X131749800Y-47396400D03*
X115200000Y-50550000D03*
%TO.N,/GHA1*%
X122986800Y-52044600D03*
X117170200Y-53086000D03*
%TO.N,IR_top*%
X98300000Y-76200000D03*
%TO.N,IR_bottom*%
X102160999Y-73811521D03*
X104400000Y-76950000D03*
%TO.N,/GHA1'*%
X124764800Y-55092600D03*
X131750000Y-55100000D03*
%TO.N,/GHC1'*%
X131650000Y-77800000D03*
X124917200Y-77038200D03*
%TO.N,C1*%
X121138902Y-53105098D03*
X133680200Y-79933800D03*
%TO.N,/GLC1'*%
X131650000Y-78850000D03*
X124891800Y-78384400D03*
%TO.N,/GHA2'*%
X87325200Y-63449200D03*
X80289400Y-63449200D03*
%TO.N,A2*%
X93800000Y-82508900D03*
X80289400Y-64262000D03*
%TO.N,/GLA2'*%
X87325200Y-62636400D03*
X80314800Y-62611000D03*
%TO.N,/GHC2'*%
X87249000Y-86563200D03*
X79959200Y-86563200D03*
%TO.N,/GLC2'*%
X87249000Y-84937600D03*
X80289400Y-84937600D03*
%TO.N,/GHB1'*%
X131400000Y-73150000D03*
X124866400Y-73685400D03*
%TO.N,B1*%
X118948200Y-49479200D03*
X131749800Y-63093600D03*
%TO.N,/GLB1'*%
X131974500Y-72100000D03*
X124841000Y-71780400D03*
%TO.N,/GHB2'*%
X80400000Y-68021200D03*
X87249000Y-68021200D03*
%TO.N,/GLB2'*%
X87249000Y-69621400D03*
X79248000Y-69621400D03*
%TO.N,/GLC1*%
X122072400Y-77876400D03*
X120970900Y-58775600D03*
%TO.N,/GLB1*%
X123113800Y-70662800D03*
X123113800Y-58216800D03*
%TO.N,/GHC1*%
X120650000Y-52222400D03*
X122123200Y-76047600D03*
%TO.N,/GHB1*%
X122478800Y-73025000D03*
X118599800Y-51631000D03*
%TO.N,/GLB2*%
X88000000Y-71200000D03*
X88925400Y-83693000D03*
%TO.N,/GLA2*%
X89700000Y-84600000D03*
X88900000Y-71200000D03*
%TO.N,/GHB2*%
X93500000Y-83800000D03*
X89865200Y-68630800D03*
%TO.N,/GHA2*%
X89600000Y-65700000D03*
X93800000Y-81100000D03*
%TO.N,C2*%
X90601800Y-84048600D03*
X80600000Y-85725000D03*
X90474800Y-86283800D03*
%TO.N,B2*%
X80670400Y-68808600D03*
X92700000Y-84200000D03*
%TO.N,A2_INL*%
X97200000Y-79100000D03*
X95700000Y-77600000D03*
%TO.N,C2_INL*%
X93449893Y-76349893D03*
X95200000Y-65300000D03*
%TO.N,C2_INH*%
X93000000Y-78275981D03*
X95300000Y-66200000D03*
%TO.N,/GLA1'*%
X131699000Y-57683400D03*
X124841000Y-57683400D03*
%TO.N,M2_COM*%
X99000000Y-82000000D03*
X99000000Y-78400000D03*
%TO.N,M1_COM*%
X103301800Y-67716400D03*
X112236141Y-50518588D03*
%TO.N,A1_Vsense*%
X112979200Y-51420800D03*
X107200000Y-62400000D03*
%TO.N,B1_Vsense*%
X104600000Y-67700000D03*
X113900000Y-54500000D03*
%TO.N,C1_Vsense*%
X111300000Y-51700000D03*
X106375200Y-63195200D03*
%TO.N,A2_Vsense*%
X96300000Y-80000000D03*
X94970600Y-72110600D03*
%TO.N,B2_Vsense*%
X98200000Y-78000000D03*
X97332800Y-86309200D03*
%TO.N,C2_Vsense*%
X100153839Y-79200000D03*
X95199200Y-88290400D03*
%TO.N,VDC_sense*%
X106349800Y-70383400D03*
X111963200Y-73431400D03*
%TO.N,Heading_Red*%
X105181411Y-73600000D03*
X106700000Y-75200000D03*
%TO.N,Heading_Green*%
X106150000Y-75750000D03*
X104604252Y-74204252D03*
%TO.N,+5V*%
X122220000Y-81420000D03*
X119450000Y-88000000D03*
%TO.N,PPM*%
X104851200Y-61569600D03*
%TO.N,PWM2*%
X102285800Y-67665600D03*
%TO.N,PWM3*%
X101500000Y-68400000D03*
%TD*%
D21*
%TO.N,GND*%
X80792000Y-48031800D02*
X78631800Y-48031800D01*
D22*
X87172800Y-80391000D02*
X79578200Y-80391000D01*
D23*
X80650000Y-49500000D02*
X79500000Y-49500000D01*
D24*
X106050242Y-76899758D02*
X106900000Y-76050000D01*
D22*
%TO.N,+3V3*%
X102550000Y-79350000D02*
X102550000Y-81950000D01*
X98387000Y-54737000D02*
X94030800Y-54737000D01*
X102100000Y-58928000D02*
X102100000Y-58450000D01*
X91084400Y-50678000D02*
X89408000Y-49001600D01*
X92240200Y-64300000D02*
X91948000Y-64592200D01*
X103352600Y-65389238D02*
X103352600Y-65405000D01*
X102100000Y-58928000D02*
X102100000Y-56015000D01*
X95211800Y-64300000D02*
X92240200Y-64300000D01*
X102100000Y-58450000D02*
X98387000Y-54737000D01*
X95986600Y-65074800D02*
X95211800Y-64300000D01*
X102100000Y-58928000D02*
X102100000Y-64136638D01*
X99250000Y-76050000D02*
X102550000Y-79350000D01*
X94030800Y-54737000D02*
X91084400Y-51790600D01*
X102100000Y-56015000D02*
X103200200Y-54914800D01*
X102100000Y-64136638D02*
X103352600Y-65389238D01*
X91084400Y-51790600D02*
X91084400Y-50678000D01*
%TO.N,+3.3VA*%
X111150000Y-78450000D02*
X102750000Y-78450000D01*
X102750000Y-78450000D02*
X99076108Y-74776108D01*
X99076108Y-74776108D02*
X96064308Y-74776108D01*
D23*
%TO.N,SWDIO*%
X100100000Y-62300000D02*
X97800000Y-62300000D01*
X92121600Y-56621600D02*
X89408000Y-56621600D01*
X97800000Y-62300000D02*
X92121600Y-56621600D01*
%TO.N,SWDCLK*%
X96916400Y-59050000D02*
X89408000Y-51541600D01*
X97950000Y-59050000D02*
X96916400Y-59050000D01*
%TO.N,SWO*%
X89408000Y-59161600D02*
X93172200Y-59161600D01*
X93172200Y-59161600D02*
X95123000Y-61112400D01*
%TO.N,SPIx_SCK*%
X105052509Y-57300000D02*
X103474500Y-57300000D01*
X105547481Y-56805028D02*
X105052509Y-57300000D01*
%TO.N,A1_INL*%
X117373400Y-56845200D02*
X114681000Y-56845200D01*
X114681000Y-56845200D02*
X113588800Y-55753000D01*
%TO.N,B1_INL*%
X115595400Y-57800000D02*
X113600000Y-57800000D01*
%TO.N,A1*%
X118453600Y-47396400D02*
X131749800Y-47396400D01*
X115300000Y-50550000D02*
X118453600Y-47396400D01*
X115200000Y-51474800D02*
X113004600Y-53670200D01*
X115200000Y-50550000D02*
X115300000Y-50550000D01*
X115200000Y-50550000D02*
X115200000Y-51474800D01*
%TO.N,/GHA1*%
X117170200Y-51638200D02*
X117170200Y-53086000D01*
X118084600Y-50723800D02*
X117170200Y-51638200D01*
X122986800Y-52044600D02*
X121666000Y-50723800D01*
X121666000Y-50723800D02*
X118084600Y-50723800D01*
%TO.N,IR_top*%
X98300000Y-76200000D02*
X101000000Y-78900000D01*
X101000000Y-82400000D02*
X102550000Y-83950000D01*
X101000000Y-78900000D02*
X101000000Y-82400000D01*
%TO.N,IR_bottom*%
X103400000Y-75950000D02*
X103400000Y-75050522D01*
X103400000Y-75050522D02*
X102160999Y-73811521D01*
X104400000Y-76950000D02*
X103400000Y-75950000D01*
%TO.N,/GHA1'*%
X131742600Y-55092600D02*
X124764800Y-55092600D01*
X131750000Y-55100000D02*
X131742600Y-55092600D01*
%TO.N,/GHC1'*%
X130860800Y-77038200D02*
X124917200Y-77038200D01*
X131650000Y-77800000D02*
X131622600Y-77800000D01*
X131622600Y-77800000D02*
X130860800Y-77038200D01*
%TO.N,C1*%
X133680200Y-79933800D02*
X122233800Y-79933800D01*
X122233800Y-79933800D02*
X120100000Y-77800000D01*
X120100000Y-54144000D02*
X121138902Y-53105098D01*
X120100000Y-77800000D02*
X120100000Y-54144000D01*
%TO.N,/GLC1'*%
X131631200Y-78850000D02*
X131165600Y-78384400D01*
X131650000Y-78850000D02*
X131631200Y-78850000D01*
X131165600Y-78384400D02*
X124891800Y-78384400D01*
%TO.N,/GHA2'*%
X80289400Y-63449200D02*
X87325200Y-63449200D01*
%TO.N,A2*%
X86762000Y-64262000D02*
X80289400Y-64262000D01*
X91346069Y-80000000D02*
X91346069Y-80054969D01*
X91346069Y-80054969D02*
X93800000Y-82508900D01*
X91346069Y-80000000D02*
X91346069Y-68846069D01*
X91346069Y-68846069D02*
X86762000Y-64262000D01*
%TO.N,/GLA2'*%
X87299800Y-62611000D02*
X87325200Y-62636400D01*
X80314800Y-62611000D02*
X87299800Y-62611000D01*
%TO.N,/GHC2'*%
X87249000Y-86563200D02*
X79959200Y-86563200D01*
%TO.N,/GLC2'*%
X87249000Y-84937600D02*
X80289400Y-84937600D01*
%TO.N,/GHB1'*%
X130864600Y-73685400D02*
X124866400Y-73685400D01*
X131400000Y-73150000D02*
X130864600Y-73685400D01*
%TO.N,B1*%
X131749800Y-63093600D02*
X124893600Y-63093600D01*
X123800000Y-62000000D02*
X123800000Y-51400000D01*
X124893600Y-63093600D02*
X123800000Y-62000000D01*
X123800000Y-51400000D02*
X121879200Y-49479200D01*
X121879200Y-49479200D02*
X118948200Y-49479200D01*
%TO.N,/GLB1'*%
X131654900Y-71780400D02*
X124841000Y-71780400D01*
X131974500Y-72100000D02*
X131654900Y-71780400D01*
%TO.N,/GHB2'*%
X80400000Y-68021200D02*
X87249000Y-68021200D01*
%TO.N,/GLB2'*%
X79248000Y-69621400D02*
X87249000Y-69621400D01*
%TO.N,/GLC1*%
X122072400Y-77876400D02*
X122072400Y-77851000D01*
X122072400Y-77851000D02*
X120970900Y-76749500D01*
X120970900Y-76749500D02*
X120970900Y-58775600D01*
%TO.N,/GLB1*%
X123113800Y-58216800D02*
X123113800Y-70662800D01*
%TO.N,/GHC1*%
X121775000Y-52928714D02*
X121068686Y-52222400D01*
X121068686Y-52222400D02*
X120650000Y-52222400D01*
X121775000Y-75699400D02*
X121775000Y-52928714D01*
X122123200Y-76047600D02*
X121775000Y-75699400D01*
%TO.N,/GHB1*%
X122478800Y-73025000D02*
X122478800Y-52527200D01*
X118795800Y-51435000D02*
X118599800Y-51631000D01*
X122478800Y-52527200D02*
X121386600Y-51435000D01*
X121386600Y-51435000D02*
X118795800Y-51435000D01*
%TO.N,/GLB2*%
X88000000Y-82767600D02*
X88925400Y-83693000D01*
X88000000Y-71200000D02*
X88000000Y-82767600D01*
%TO.N,/GLA2*%
X88900000Y-82100000D02*
X88900000Y-71200000D01*
X89700000Y-82900000D02*
X88900000Y-82100000D01*
X89700000Y-84600000D02*
X89700000Y-82900000D01*
%TO.N,/GHB2*%
X93500000Y-83800000D02*
X90500200Y-80800200D01*
X90500200Y-69265800D02*
X89865200Y-68630800D01*
X90500200Y-80800200D02*
X90500200Y-69265800D01*
%TO.N,/GHA2*%
X92278200Y-79578200D02*
X92278200Y-68378200D01*
X92278200Y-68378200D02*
X89600000Y-65700000D01*
X93800000Y-81100000D02*
X92278200Y-79578200D01*
%TO.N,C2*%
X89916000Y-85725000D02*
X90474800Y-86283800D01*
X80600000Y-85725000D02*
X89375000Y-85725000D01*
X89975000Y-85725000D02*
X90601800Y-85098200D01*
X89375000Y-85725000D02*
X89916000Y-85725000D01*
X89375000Y-85725000D02*
X89975000Y-85725000D01*
X90601800Y-85098200D02*
X90601800Y-84048600D01*
%TO.N,B2*%
X92700000Y-84200000D02*
X89724511Y-81224511D01*
X89724511Y-81224511D02*
X89724511Y-70024511D01*
X89724511Y-70024511D02*
X88508600Y-68808600D01*
X88508600Y-68808600D02*
X80670400Y-68808600D01*
%TO.N,A2_INL*%
X97200000Y-79100000D02*
X95700000Y-77600000D01*
%TO.N,C2_INL*%
X93449893Y-67050107D02*
X93449893Y-76349893D01*
X95200000Y-65300000D02*
X93449893Y-67050107D01*
%TO.N,C2_INH*%
X94100000Y-77175981D02*
X93000000Y-78275981D01*
X94100000Y-67400000D02*
X94100000Y-77175981D01*
X95300000Y-66200000D02*
X94100000Y-67400000D01*
%TO.N,/GLA1'*%
X124841000Y-57683400D02*
X131699000Y-57683400D01*
%TO.N,M2_COM*%
X99000000Y-82000000D02*
X99000000Y-78400000D01*
%TO.N,M1_COM*%
X102900000Y-62850000D02*
X104450000Y-64400000D01*
X104450000Y-64400000D02*
X104450000Y-66568200D01*
X109274984Y-50518588D02*
X102900000Y-56893572D01*
X104450000Y-66568200D02*
X103301800Y-67716400D01*
X112236141Y-50518588D02*
X109274984Y-50518588D01*
X102900000Y-56893572D02*
X102900000Y-62850000D01*
%TO.N,A1_Vsense*%
X107200000Y-62400000D02*
X107255489Y-62344511D01*
X107255489Y-54344511D02*
X108700000Y-52900000D01*
X107255489Y-62344511D02*
X107255489Y-54344511D01*
X108700000Y-52900000D02*
X111500000Y-52900000D01*
X111500000Y-52900000D02*
X112979200Y-51420800D01*
%TO.N,B1_Vsense*%
X106100000Y-67700000D02*
X104600000Y-67700000D01*
X112600000Y-55800000D02*
X112600000Y-61200000D01*
X112600000Y-61200000D02*
X106100000Y-67700000D01*
X113900000Y-54500000D02*
X112600000Y-55800000D01*
%TO.N,C1_Vsense*%
X109000000Y-51700000D02*
X106375200Y-54324800D01*
X106375200Y-54324800D02*
X106375200Y-63195200D01*
X111300000Y-51700000D02*
X109000000Y-51700000D01*
%TO.N,A2_Vsense*%
X96300000Y-80000000D02*
X94970600Y-78670600D01*
X94970600Y-78670600D02*
X94970600Y-72110600D01*
%TO.N,B2_Vsense*%
X98200000Y-85442000D02*
X97332800Y-86309200D01*
X98200000Y-78000000D02*
X98200000Y-85442000D01*
%TO.N,C2_Vsense*%
X100153839Y-84946161D02*
X96809600Y-88290400D01*
X100153839Y-79200000D02*
X100153839Y-84946161D01*
X96809600Y-88290400D02*
X95199200Y-88290400D01*
%TO.N,VDC_sense*%
X108915200Y-70383400D02*
X111963200Y-73431400D01*
X106349800Y-70383400D02*
X108915200Y-70383400D01*
%TO.N,Heading_Red*%
X105181411Y-73681411D02*
X105181411Y-73600000D01*
X106700000Y-75200000D02*
X105181411Y-73681411D01*
%TO.N,Heading_Green*%
X106150000Y-75750000D02*
X104604252Y-74204252D01*
D22*
%TO.N,+5V*%
X115900200Y-60274200D02*
X119300000Y-63674000D01*
X115700000Y-74900000D02*
X111961115Y-74900000D01*
X119300000Y-78500000D02*
X119325000Y-78525000D01*
D21*
X109917243Y-72858643D02*
X108737400Y-71678800D01*
X105768116Y-71678800D02*
X105423958Y-71334642D01*
D23*
X122220000Y-85230000D02*
X122220000Y-81420000D01*
D22*
X118900000Y-78100000D02*
X115700000Y-74900000D01*
X122220000Y-81420000D02*
X119325000Y-78525000D01*
X119325000Y-78525000D02*
X118900000Y-78100000D01*
X114200000Y-60274200D02*
X115900200Y-60274200D01*
D21*
X109919758Y-72858643D02*
X109917243Y-72858643D01*
D22*
X111961115Y-74900000D02*
X109919758Y-72858643D01*
D23*
X119450000Y-88000000D02*
X122220000Y-85230000D01*
D22*
X119300000Y-63674000D02*
X119300000Y-78500000D01*
D21*
X108737400Y-71678800D02*
X105768116Y-71678800D01*
D23*
%TO.N,PPM*%
X107900000Y-64150000D02*
X106000000Y-64150000D01*
X111315500Y-60734500D02*
X107900000Y-64150000D01*
X111315500Y-60274200D02*
X111315500Y-60734500D01*
X106000000Y-64150000D02*
X104851200Y-63001200D01*
X104851200Y-63001200D02*
X104851200Y-61569600D01*
%TO.N,PWM2*%
X107899200Y-74879200D02*
X107579200Y-74879200D01*
X102285800Y-69585800D02*
X102285800Y-67665600D01*
X107579200Y-74879200D02*
X102285800Y-69585800D01*
%TO.N,PWM3*%
X103403400Y-73355200D02*
X101500000Y-71451800D01*
X101500000Y-71451800D02*
X101500000Y-68400000D01*
%TD*%
%TA.AperFunction,Conductor*%
%TO.N,GND*%
G36*
X136984177Y-46320185D02*
G01*
X137004819Y-46336819D01*
X137631681Y-46963681D01*
X137665166Y-47025004D01*
X137668000Y-47051362D01*
X137668000Y-95009369D01*
X137657081Y-95022919D01*
X137016819Y-95663181D01*
X136955496Y-95696666D01*
X136929138Y-95699500D01*
X131749800Y-95699500D01*
X131749800Y-80359300D01*
X133288336Y-80359300D01*
X133355375Y-80378985D01*
X133363820Y-80384923D01*
X133402575Y-80414661D01*
X133410087Y-80417772D01*
X133410086Y-80417772D01*
X133528977Y-80467018D01*
X133528979Y-80467019D01*
X133536491Y-80470130D01*
X133680200Y-80489050D01*
X133823909Y-80470130D01*
X133831421Y-80467019D01*
X133831423Y-80467018D01*
X133950314Y-80417772D01*
X133950313Y-80417772D01*
X133957825Y-80414661D01*
X134004319Y-80378985D01*
X134066378Y-80331365D01*
X134072821Y-80326421D01*
X134161061Y-80211425D01*
X134216530Y-80077509D01*
X134235450Y-79933800D01*
X134216530Y-79790091D01*
X134161061Y-79656175D01*
X134072821Y-79541179D01*
X134029973Y-79508300D01*
X133964272Y-79457886D01*
X133957825Y-79452939D01*
X133916474Y-79435811D01*
X133831423Y-79400582D01*
X133831421Y-79400581D01*
X133823909Y-79397470D01*
X133680200Y-79378550D01*
X133536491Y-79397470D01*
X133528979Y-79400581D01*
X133528977Y-79400582D01*
X133443926Y-79435811D01*
X133402575Y-79452939D01*
X133363823Y-79482675D01*
X133298654Y-79507870D01*
X133288336Y-79508300D01*
X132061675Y-79508300D01*
X131994636Y-79488615D01*
X131948881Y-79435811D01*
X131938937Y-79366653D01*
X131967962Y-79303097D01*
X131986188Y-79285925D01*
X132036174Y-79247569D01*
X132036178Y-79247565D01*
X132042621Y-79242621D01*
X132130861Y-79127625D01*
X132186330Y-78993709D01*
X132205250Y-78850000D01*
X132186330Y-78706291D01*
X132130861Y-78572375D01*
X132042621Y-78457379D01*
X132036178Y-78452435D01*
X132036174Y-78452431D01*
X131998308Y-78423375D01*
X131957106Y-78366947D01*
X131952951Y-78297201D01*
X131987164Y-78236281D01*
X131998308Y-78226625D01*
X132036174Y-78197569D01*
X132036178Y-78197565D01*
X132042621Y-78192621D01*
X132130861Y-78077625D01*
X132186330Y-77943709D01*
X132205250Y-77800000D01*
X132186330Y-77656291D01*
X132130861Y-77522375D01*
X132042621Y-77407379D01*
X131927625Y-77319139D01*
X131793709Y-77263670D01*
X131765708Y-77259984D01*
X131749800Y-77257889D01*
X131749800Y-73575479D01*
X131786178Y-73547565D01*
X131792621Y-73542621D01*
X131880861Y-73427625D01*
X131936330Y-73293709D01*
X131955250Y-73150000D01*
X131936330Y-73006291D01*
X131880861Y-72872375D01*
X131875913Y-72865927D01*
X131875911Y-72865923D01*
X131866513Y-72853675D01*
X131841319Y-72788505D01*
X131855358Y-72720060D01*
X131904172Y-72670071D01*
X131964889Y-72654189D01*
X131966441Y-72654189D01*
X131974500Y-72655250D01*
X132118209Y-72636330D01*
X132125721Y-72633219D01*
X132125723Y-72633218D01*
X132244614Y-72583972D01*
X132244613Y-72583972D01*
X132252125Y-72580861D01*
X132367121Y-72492621D01*
X132455361Y-72377625D01*
X132510830Y-72243709D01*
X132529750Y-72100000D01*
X132510830Y-71956291D01*
X132493117Y-71913526D01*
X132458472Y-71829886D01*
X132455361Y-71822375D01*
X132367121Y-71707379D01*
X132252125Y-71619139D01*
X132118209Y-71563670D01*
X132069779Y-71557294D01*
X132005883Y-71529027D01*
X131998284Y-71522036D01*
X131908120Y-71431872D01*
X131886603Y-71420909D01*
X131870019Y-71410746D01*
X131858373Y-71402284D01*
X131858369Y-71402282D01*
X131850481Y-71396551D01*
X131827516Y-71389089D01*
X131809547Y-71381646D01*
X131788026Y-71370681D01*
X131778389Y-71369155D01*
X131778387Y-71369154D01*
X131764179Y-71366904D01*
X131749800Y-71363452D01*
X131749800Y-63648850D01*
X131893509Y-63629930D01*
X131901021Y-63626819D01*
X131901023Y-63626818D01*
X132019914Y-63577572D01*
X132019913Y-63577572D01*
X132027425Y-63574461D01*
X132050539Y-63556725D01*
X132135978Y-63491165D01*
X132142421Y-63486221D01*
X132230661Y-63371225D01*
X132286130Y-63237309D01*
X132305050Y-63093600D01*
X132286130Y-62949891D01*
X132230661Y-62815975D01*
X132142421Y-62700979D01*
X132099573Y-62668100D01*
X132033872Y-62617686D01*
X132027425Y-62612739D01*
X131991393Y-62597814D01*
X131901023Y-62560382D01*
X131901021Y-62560381D01*
X131893509Y-62557270D01*
X131749800Y-62538350D01*
X131749800Y-58231962D01*
X131759765Y-58230650D01*
X131842709Y-58219730D01*
X131850221Y-58216619D01*
X131850223Y-58216618D01*
X131969114Y-58167372D01*
X131969113Y-58167372D01*
X131976625Y-58164261D01*
X131999739Y-58146525D01*
X132085178Y-58080965D01*
X132091621Y-58076021D01*
X132179861Y-57961025D01*
X132235330Y-57827109D01*
X132254250Y-57683400D01*
X132235330Y-57539691D01*
X132179861Y-57405775D01*
X132091621Y-57290779D01*
X132048773Y-57257900D01*
X131983072Y-57207486D01*
X131976625Y-57202539D01*
X131940593Y-57187614D01*
X131850223Y-57150182D01*
X131850221Y-57150181D01*
X131842709Y-57147070D01*
X131759765Y-57136150D01*
X131749800Y-57134838D01*
X131749800Y-55655224D01*
X131750000Y-55655250D01*
X131893709Y-55636330D01*
X131901221Y-55633219D01*
X131901223Y-55633218D01*
X132020114Y-55583972D01*
X132020113Y-55583972D01*
X132027625Y-55580861D01*
X132142621Y-55492621D01*
X132230861Y-55377625D01*
X132286330Y-55243709D01*
X132305250Y-55100000D01*
X132286330Y-54956291D01*
X132230861Y-54822375D01*
X132142621Y-54707379D01*
X132027625Y-54619139D01*
X131991593Y-54604214D01*
X131901223Y-54566782D01*
X131901221Y-54566781D01*
X131893709Y-54563670D01*
X131750000Y-54544750D01*
X131749800Y-54544776D01*
X131749800Y-47951650D01*
X131893509Y-47932730D01*
X131901021Y-47929619D01*
X131901023Y-47929618D01*
X132019914Y-47880372D01*
X132019913Y-47880372D01*
X132027425Y-47877261D01*
X132050539Y-47859525D01*
X132135978Y-47793965D01*
X132142421Y-47789021D01*
X132230661Y-47674025D01*
X132286130Y-47540109D01*
X132305050Y-47396400D01*
X132286130Y-47252691D01*
X132230661Y-47118775D01*
X132142421Y-47003779D01*
X132099573Y-46970900D01*
X132033872Y-46920486D01*
X132027425Y-46915539D01*
X131991393Y-46900614D01*
X131901023Y-46863182D01*
X131901021Y-46863181D01*
X131893509Y-46860070D01*
X131749800Y-46841150D01*
X131749800Y-46300500D01*
X136917138Y-46300500D01*
X136984177Y-46320185D01*
G37*
%TD.AperFunction*%
%TD*%
%TA.AperFunction,Conductor*%
%TO.N,GND*%
G36*
X79016177Y-46320185D02*
G01*
X79036819Y-46336819D01*
X79663681Y-46963681D01*
X79697166Y-47025004D01*
X79700000Y-47051362D01*
X79700000Y-49400000D01*
X80289400Y-49400000D01*
X80288846Y-50415944D01*
X80282560Y-61951318D01*
X80262839Y-62018346D01*
X80210010Y-62064072D01*
X80186793Y-62070732D01*
X80187000Y-62071506D01*
X80179153Y-62073609D01*
X80171091Y-62074670D01*
X80163579Y-62077781D01*
X80163577Y-62077782D01*
X80073207Y-62115214D01*
X80037175Y-62130139D01*
X80030728Y-62135086D01*
X79965028Y-62185500D01*
X79922179Y-62218379D01*
X79833939Y-62333375D01*
X79778470Y-62467291D01*
X79759550Y-62611000D01*
X79778470Y-62754709D01*
X79833939Y-62888625D01*
X79838887Y-62895073D01*
X79838889Y-62895077D01*
X79871873Y-62938062D01*
X79897068Y-63003231D01*
X79883030Y-63071676D01*
X79871873Y-63089036D01*
X79813489Y-63165123D01*
X79813487Y-63165127D01*
X79808539Y-63171575D01*
X79753070Y-63305491D01*
X79734150Y-63449200D01*
X79753070Y-63592909D01*
X79808539Y-63726825D01*
X79813487Y-63733273D01*
X79813489Y-63733277D01*
X79849428Y-63780113D01*
X79874623Y-63845282D01*
X79860585Y-63913727D01*
X79849428Y-63931087D01*
X79813489Y-63977923D01*
X79813487Y-63977927D01*
X79808539Y-63984375D01*
X79753070Y-64118291D01*
X79734150Y-64262000D01*
X79753070Y-64405709D01*
X79808539Y-64539625D01*
X79896779Y-64654621D01*
X79903222Y-64659565D01*
X79988661Y-64725125D01*
X80011775Y-64742861D01*
X80019287Y-64745972D01*
X80019286Y-64745972D01*
X80138177Y-64795218D01*
X80138179Y-64795219D01*
X80145691Y-64798330D01*
X80153751Y-64799391D01*
X80153754Y-64799392D01*
X80173126Y-64801942D01*
X80237022Y-64830209D01*
X80275493Y-64888533D01*
X80280940Y-64924949D01*
X80279595Y-67392433D01*
X80259875Y-67459459D01*
X80203049Y-67506923D01*
X80163551Y-67523283D01*
X80129885Y-67537228D01*
X80129883Y-67537229D01*
X80122375Y-67540339D01*
X80115928Y-67545286D01*
X80050228Y-67595700D01*
X80007379Y-67628579D01*
X79919139Y-67743575D01*
X79863670Y-67877491D01*
X79844750Y-68021200D01*
X79863670Y-68164909D01*
X79919139Y-68298825D01*
X80007379Y-68413821D01*
X80013822Y-68418765D01*
X80013826Y-68418769D01*
X80106943Y-68490221D01*
X80148145Y-68546649D01*
X80152300Y-68616395D01*
X80146017Y-68636048D01*
X80134070Y-68664891D01*
X80115150Y-68808600D01*
X80134070Y-68952309D01*
X80163951Y-69024450D01*
X80171420Y-69093917D01*
X80140145Y-69156396D01*
X80080056Y-69192048D01*
X80049390Y-69195900D01*
X79639864Y-69195900D01*
X79572825Y-69176215D01*
X79564377Y-69170275D01*
X79546290Y-69156396D01*
X79525625Y-69140539D01*
X79489593Y-69125614D01*
X79399223Y-69088182D01*
X79399221Y-69088181D01*
X79391709Y-69085070D01*
X79248000Y-69066150D01*
X79104291Y-69085070D01*
X79096779Y-69088181D01*
X79096777Y-69088182D01*
X79006407Y-69125614D01*
X78970375Y-69140539D01*
X78963928Y-69145486D01*
X78898228Y-69195900D01*
X78855379Y-69228779D01*
X78767139Y-69343775D01*
X78711670Y-69477691D01*
X78692750Y-69621400D01*
X78711670Y-69765109D01*
X78767139Y-69899025D01*
X78855379Y-70014021D01*
X78861822Y-70018965D01*
X78898788Y-70047330D01*
X78970375Y-70102261D01*
X78977887Y-70105372D01*
X78977886Y-70105372D01*
X79096777Y-70154618D01*
X79096779Y-70154619D01*
X79104291Y-70157730D01*
X79248000Y-70176650D01*
X79391709Y-70157730D01*
X79399221Y-70154619D01*
X79399223Y-70154618D01*
X79518114Y-70105372D01*
X79518113Y-70105372D01*
X79525625Y-70102261D01*
X79564377Y-70072525D01*
X79629546Y-70047330D01*
X79639864Y-70046900D01*
X80154081Y-70046900D01*
X80221120Y-70066585D01*
X80266875Y-70119389D01*
X80278081Y-70170968D01*
X80270395Y-84276175D01*
X80250674Y-84343203D01*
X80197845Y-84388929D01*
X80162584Y-84399046D01*
X80145691Y-84401270D01*
X80011775Y-84456739D01*
X80005328Y-84461686D01*
X79939628Y-84512100D01*
X79896779Y-84544979D01*
X79808539Y-84659975D01*
X79753070Y-84793891D01*
X79734150Y-84937600D01*
X79753070Y-85081309D01*
X79808539Y-85215225D01*
X79896779Y-85330221D01*
X80011775Y-85418461D01*
X80015592Y-85420042D01*
X80062531Y-85469266D01*
X80075757Y-85537873D01*
X80068781Y-85565906D01*
X80068884Y-85565934D01*
X80067338Y-85571703D01*
X80066882Y-85573537D01*
X80063670Y-85581291D01*
X80044750Y-85725000D01*
X80045811Y-85733059D01*
X80063670Y-85868709D01*
X80060222Y-85869163D01*
X80058976Y-85922975D01*
X80019852Y-85980864D01*
X79957025Y-86008236D01*
X79823554Y-86025808D01*
X79823551Y-86025809D01*
X79815491Y-86026870D01*
X79807979Y-86029981D01*
X79807977Y-86029982D01*
X79764427Y-86048021D01*
X79681575Y-86082339D01*
X79566579Y-86170579D01*
X79478339Y-86285575D01*
X79422870Y-86419491D01*
X79403950Y-86563200D01*
X79422870Y-86706909D01*
X79478339Y-86840825D01*
X79566579Y-86955821D01*
X79573022Y-86960765D01*
X79658461Y-87026325D01*
X79681575Y-87044061D01*
X79689087Y-87047172D01*
X79689086Y-87047172D01*
X79807977Y-87096418D01*
X79807979Y-87096419D01*
X79815491Y-87099530D01*
X79959200Y-87118450D01*
X79967259Y-87117389D01*
X80094851Y-87100591D01*
X80094852Y-87100591D01*
X80102909Y-87099530D01*
X80110418Y-87096420D01*
X80112701Y-87095808D01*
X80182550Y-87097471D01*
X80240413Y-87136634D01*
X80267917Y-87200862D01*
X80268793Y-87215637D01*
X80264170Y-95699500D01*
X75132553Y-95699500D01*
X75065514Y-95679815D01*
X75044683Y-95662992D01*
X74407330Y-95022886D01*
X74373977Y-94961491D01*
X74371200Y-94935394D01*
X74371200Y-47051362D01*
X74390885Y-46984323D01*
X74407519Y-46963681D01*
X75034381Y-46336819D01*
X75095704Y-46303334D01*
X75122062Y-46300500D01*
X78949138Y-46300500D01*
X79016177Y-46320185D01*
G37*
%TD.AperFunction*%
%TD*%
%TA.AperFunction,Conductor*%
%TO.N,GND*%
G36*
X131749800Y-95699500D02*
G01*
X80264170Y-95699500D01*
X80267516Y-89560400D01*
X131749800Y-89560400D01*
X131749800Y-95699500D01*
G37*
%TD.AperFunction*%
%TD*%
%TA.AperFunction,Conductor*%
%TO.N,GND*%
G36*
X108513289Y-72249007D02*
G01*
X108567658Y-72287584D01*
X108602567Y-72322492D01*
X108649687Y-72397480D01*
X108657792Y-72478083D01*
X108658817Y-72478083D01*
X108658817Y-72488271D01*
X108659013Y-72490220D01*
X108656976Y-72505090D01*
X108658817Y-72518530D01*
X108672880Y-72621192D01*
X108677445Y-72654522D01*
X108737346Y-72792945D01*
X108745232Y-72803003D01*
X108745233Y-72803004D01*
X108788480Y-72858158D01*
X108793145Y-72864108D01*
X109914293Y-73985256D01*
X109919010Y-73988955D01*
X109919015Y-73988959D01*
X109925493Y-73994038D01*
X109985456Y-74041055D01*
X109997187Y-74046132D01*
X109997188Y-74046132D01*
X110096588Y-74089146D01*
X110123879Y-74100956D01*
X110273311Y-74121425D01*
X110414785Y-74102046D01*
X110503001Y-74109853D01*
X110582503Y-74158491D01*
X111615321Y-75191309D01*
X111630884Y-75208822D01*
X111640032Y-75220427D01*
X111640035Y-75220430D01*
X111649243Y-75232110D01*
X111696577Y-75264825D01*
X111701632Y-75268437D01*
X111735967Y-75293798D01*
X111735969Y-75293799D01*
X111747932Y-75302635D01*
X111754749Y-75305029D01*
X111760684Y-75309131D01*
X111774864Y-75313616D01*
X111774867Y-75313617D01*
X111815502Y-75326468D01*
X111821431Y-75328446D01*
X111861712Y-75342592D01*
X111861714Y-75342592D01*
X111875746Y-75347520D01*
X111882963Y-75347804D01*
X111889845Y-75349980D01*
X111896452Y-75350500D01*
X111947680Y-75350500D01*
X111955493Y-75350653D01*
X112011109Y-75352838D01*
X112019099Y-75350720D01*
X112023089Y-75350500D01*
X115430969Y-75350500D01*
X115517312Y-75370207D01*
X115571683Y-75408786D01*
X118971943Y-78809046D01*
X118977360Y-78814679D01*
X119005050Y-78844635D01*
X119005053Y-78844637D01*
X119015146Y-78855556D01*
X119022295Y-78859708D01*
X119025274Y-78862377D01*
X121632658Y-81469761D01*
X121679777Y-81544749D01*
X121682214Y-81552649D01*
X121683670Y-81563709D01*
X121688664Y-81575765D01*
X121688664Y-81575766D01*
X121711245Y-81630281D01*
X121739139Y-81697625D01*
X121747078Y-81707971D01*
X121747079Y-81707973D01*
X121753376Y-81716179D01*
X121790304Y-81796676D01*
X121794500Y-81837324D01*
X121794500Y-84971324D01*
X121774793Y-85057667D01*
X121736214Y-85112038D01*
X119444219Y-87404033D01*
X119369231Y-87451152D01*
X119329481Y-87460616D01*
X119319224Y-87461966D01*
X119319214Y-87461969D01*
X119306291Y-87463670D01*
X119237973Y-87491968D01*
X119184426Y-87514147D01*
X119184424Y-87514148D01*
X119172375Y-87519139D01*
X119057379Y-87607379D01*
X118969139Y-87722375D01*
X118964148Y-87734424D01*
X118964147Y-87734426D01*
X118918663Y-87844235D01*
X118918662Y-87844240D01*
X118913670Y-87856291D01*
X118911967Y-87869229D01*
X118910106Y-87876174D01*
X118868724Y-87954474D01*
X118835246Y-87979183D01*
X118853739Y-87991153D01*
X118899844Y-88066769D01*
X118908440Y-88103984D01*
X118913670Y-88143709D01*
X118918660Y-88155757D01*
X118918661Y-88155759D01*
X118948136Y-88226918D01*
X118969139Y-88277625D01*
X119057379Y-88392621D01*
X119172375Y-88480861D01*
X119184424Y-88485852D01*
X119184426Y-88485853D01*
X119234445Y-88506571D01*
X119306291Y-88536330D01*
X119450000Y-88555250D01*
X119593709Y-88536330D01*
X119665555Y-88506571D01*
X119715574Y-88485853D01*
X119715576Y-88485852D01*
X119727625Y-88480861D01*
X119842621Y-88392621D01*
X119930861Y-88277625D01*
X119986330Y-88143709D01*
X119988031Y-88130786D01*
X119988034Y-88130776D01*
X119989384Y-88120519D01*
X120020193Y-88037488D01*
X120045967Y-88005781D01*
X122568528Y-85483220D01*
X122576809Y-85466967D01*
X122593127Y-85440339D01*
X122594643Y-85438252D01*
X122603850Y-85425580D01*
X122609488Y-85408227D01*
X122621440Y-85379374D01*
X122622609Y-85377079D01*
X122629719Y-85363126D01*
X122632573Y-85345107D01*
X122639863Y-85314743D01*
X122640661Y-85312287D01*
X122640661Y-85312286D01*
X122645500Y-85297393D01*
X122645500Y-81837324D01*
X122665207Y-81750981D01*
X122686624Y-81716179D01*
X122692921Y-81707973D01*
X122692922Y-81707971D01*
X122700861Y-81697625D01*
X122720494Y-81650228D01*
X122751339Y-81575759D01*
X122751339Y-81575758D01*
X122756330Y-81563709D01*
X122775250Y-81420000D01*
X122756330Y-81276291D01*
X122748833Y-81258191D01*
X122705853Y-81154426D01*
X122705852Y-81154424D01*
X122700861Y-81142375D01*
X122612621Y-81027379D01*
X122497625Y-80939139D01*
X122485576Y-80934148D01*
X122485574Y-80934147D01*
X122375766Y-80888664D01*
X122375765Y-80888664D01*
X122363709Y-80883670D01*
X122356154Y-80882675D01*
X122280671Y-80842781D01*
X122269761Y-80832658D01*
X122136117Y-80699014D01*
X122088998Y-80624026D01*
X122079082Y-80536019D01*
X122108333Y-80452426D01*
X122170957Y-80389802D01*
X122254550Y-80360551D01*
X122276831Y-80359300D01*
X131749800Y-80359300D01*
X131749800Y-89560400D01*
X80289400Y-89560400D01*
X80289400Y-87187700D01*
X80309107Y-87101357D01*
X80364326Y-87032116D01*
X80444118Y-86993689D01*
X80488400Y-86988700D01*
X86831676Y-86988700D01*
X86918019Y-87008407D01*
X86952821Y-87029824D01*
X86961027Y-87036121D01*
X86961029Y-87036122D01*
X86971375Y-87044061D01*
X86983424Y-87049052D01*
X86983426Y-87049053D01*
X87080552Y-87089283D01*
X87105291Y-87099530D01*
X87249000Y-87118450D01*
X87392709Y-87099530D01*
X87417448Y-87089283D01*
X87514574Y-87049053D01*
X87514576Y-87049052D01*
X87526625Y-87044061D01*
X87641621Y-86955821D01*
X87729861Y-86840825D01*
X87740501Y-86815139D01*
X87780339Y-86718959D01*
X87780339Y-86718958D01*
X87785330Y-86706909D01*
X87804250Y-86563200D01*
X87793427Y-86480993D01*
X87787033Y-86432424D01*
X87787032Y-86432422D01*
X87785330Y-86419491D01*
X87780338Y-86407440D01*
X87778614Y-86401005D01*
X87775302Y-86312503D01*
X87810718Y-86231330D01*
X87877847Y-86173561D01*
X87970833Y-86150500D01*
X89657324Y-86150500D01*
X89743667Y-86170207D01*
X89798038Y-86208786D01*
X89878833Y-86289581D01*
X89925952Y-86364569D01*
X89935416Y-86404319D01*
X89936766Y-86414576D01*
X89936769Y-86414586D01*
X89938470Y-86427509D01*
X89993939Y-86561425D01*
X90082179Y-86676421D01*
X90197175Y-86764661D01*
X90209224Y-86769652D01*
X90209226Y-86769653D01*
X90319041Y-86815139D01*
X90331091Y-86820130D01*
X90474800Y-86839050D01*
X90618509Y-86820130D01*
X90630559Y-86815139D01*
X90740374Y-86769653D01*
X90740376Y-86769652D01*
X90752425Y-86764661D01*
X90867421Y-86676421D01*
X90955661Y-86561425D01*
X91011130Y-86427509D01*
X91030050Y-86283800D01*
X91011130Y-86140091D01*
X90972994Y-86048021D01*
X90960653Y-86018226D01*
X90960652Y-86018224D01*
X90955661Y-86006175D01*
X90867421Y-85891179D01*
X90857076Y-85883241D01*
X90857074Y-85883239D01*
X90788945Y-85830961D01*
X90732442Y-85762764D01*
X90711125Y-85676804D01*
X90729215Y-85590108D01*
X90769376Y-85532371D01*
X90855016Y-85446731D01*
X90855019Y-85446729D01*
X90950328Y-85351420D01*
X90958612Y-85335162D01*
X90974928Y-85308537D01*
X90976442Y-85306453D01*
X90985649Y-85293781D01*
X90990489Y-85278884D01*
X90990491Y-85278881D01*
X90991288Y-85276428D01*
X91003235Y-85247585D01*
X91004410Y-85245279D01*
X91004410Y-85245277D01*
X91011519Y-85231326D01*
X91013968Y-85215861D01*
X91013970Y-85215856D01*
X91014375Y-85213299D01*
X91021663Y-85182943D01*
X91022459Y-85180492D01*
X91027300Y-85165593D01*
X91027300Y-84465924D01*
X91047007Y-84379581D01*
X91068424Y-84344779D01*
X91074721Y-84336573D01*
X91074722Y-84336571D01*
X91082661Y-84326225D01*
X91089033Y-84310843D01*
X91133139Y-84204359D01*
X91133139Y-84204358D01*
X91138130Y-84192309D01*
X91157050Y-84048600D01*
X91138130Y-83904891D01*
X91121573Y-83864918D01*
X91087653Y-83783026D01*
X91087652Y-83783024D01*
X91082661Y-83770975D01*
X90996528Y-83658725D01*
X90995168Y-83655760D01*
X90991675Y-83653872D01*
X90964597Y-83633094D01*
X90879425Y-83567739D01*
X90867376Y-83562748D01*
X90867374Y-83562747D01*
X90757559Y-83517261D01*
X90757558Y-83517261D01*
X90745509Y-83512270D01*
X90601800Y-83493350D01*
X90458091Y-83512270D01*
X90400651Y-83536062D01*
X90313340Y-83550896D01*
X90228238Y-83526378D01*
X90162202Y-83467363D01*
X90128311Y-83385541D01*
X90125500Y-83352209D01*
X90125500Y-82832607D01*
X90119863Y-82815257D01*
X90112575Y-82784901D01*
X90112170Y-82782344D01*
X90112168Y-82782339D01*
X90109719Y-82766874D01*
X90102610Y-82752922D01*
X90097770Y-82738025D01*
X90099026Y-82737617D01*
X90081510Y-82668097D01*
X90099277Y-82581334D01*
X90152929Y-82510872D01*
X90231840Y-82470667D01*
X90320381Y-82468681D01*
X90401015Y-82505309D01*
X90421174Y-82522922D01*
X91253533Y-83355281D01*
X91266774Y-83376354D01*
X91295119Y-83396867D01*
X92104033Y-84205781D01*
X92151152Y-84280769D01*
X92160616Y-84320519D01*
X92161966Y-84330776D01*
X92161969Y-84330786D01*
X92163670Y-84343709D01*
X92189580Y-84406261D01*
X92213777Y-84464679D01*
X92219139Y-84477625D01*
X92307379Y-84592621D01*
X92422375Y-84680861D01*
X92434424Y-84685852D01*
X92434426Y-84685853D01*
X92542887Y-84730778D01*
X92556291Y-84736330D01*
X92700000Y-84755250D01*
X92843709Y-84736330D01*
X92857113Y-84730778D01*
X92965574Y-84685853D01*
X92965576Y-84685852D01*
X92977625Y-84680861D01*
X93092621Y-84592621D01*
X93180861Y-84477625D01*
X93186997Y-84462810D01*
X93189417Y-84459399D01*
X93192373Y-84454280D01*
X93192853Y-84454557D01*
X93238241Y-84390585D01*
X93315752Y-84347742D01*
X93396823Y-84341666D01*
X93500000Y-84355250D01*
X93643709Y-84336330D01*
X93657118Y-84330776D01*
X93765574Y-84285853D01*
X93765576Y-84285852D01*
X93777625Y-84280861D01*
X93892621Y-84192621D01*
X93980861Y-84077625D01*
X93992884Y-84048600D01*
X94031339Y-83955759D01*
X94031339Y-83955758D01*
X94036330Y-83943709D01*
X94055250Y-83800000D01*
X94036330Y-83656291D01*
X94024560Y-83627875D01*
X93985853Y-83534426D01*
X93985852Y-83534424D01*
X93980861Y-83522375D01*
X93892621Y-83407379D01*
X93874475Y-83393455D01*
X93817972Y-83325258D01*
X93796654Y-83239298D01*
X93814743Y-83152602D01*
X93868657Y-83082340D01*
X93939391Y-83045799D01*
X93943709Y-83045230D01*
X93955759Y-83040239D01*
X93955762Y-83040238D01*
X94065574Y-82994753D01*
X94065576Y-82994752D01*
X94077625Y-82989761D01*
X94192621Y-82901521D01*
X94280861Y-82786525D01*
X94301515Y-82736663D01*
X94331339Y-82664659D01*
X94331339Y-82664658D01*
X94336330Y-82652609D01*
X94355250Y-82508900D01*
X94336330Y-82365191D01*
X94324726Y-82337175D01*
X94285853Y-82243326D01*
X94285852Y-82243324D01*
X94280861Y-82231275D01*
X94192621Y-82116279D01*
X94077625Y-82028039D01*
X94065576Y-82023048D01*
X94065574Y-82023047D01*
X93981690Y-81988302D01*
X93909461Y-81937054D01*
X93866621Y-81859541D01*
X93861654Y-81771117D01*
X93895546Y-81689295D01*
X93961582Y-81630281D01*
X93981690Y-81620598D01*
X94065574Y-81585853D01*
X94065576Y-81585852D01*
X94077625Y-81580861D01*
X94192621Y-81492621D01*
X94280861Y-81377625D01*
X94322835Y-81276291D01*
X94331339Y-81255759D01*
X94331339Y-81255758D01*
X94336330Y-81243709D01*
X94355250Y-81100000D01*
X94336330Y-80956291D01*
X94323162Y-80924500D01*
X94285853Y-80834426D01*
X94285852Y-80834424D01*
X94280861Y-80822375D01*
X94192621Y-80707379D01*
X94077625Y-80619139D01*
X94065576Y-80614148D01*
X94065574Y-80614147D01*
X94023784Y-80596838D01*
X93943709Y-80563670D01*
X93930785Y-80561969D01*
X93930783Y-80561968D01*
X93920519Y-80560617D01*
X93837488Y-80529808D01*
X93805780Y-80504033D01*
X92761986Y-79460238D01*
X92714867Y-79385249D01*
X92703700Y-79319524D01*
X92703700Y-79019138D01*
X92723407Y-78932795D01*
X92778626Y-78863554D01*
X92858418Y-78825127D01*
X92928671Y-78821840D01*
X93000000Y-78831231D01*
X93143709Y-78812311D01*
X93155759Y-78807320D01*
X93265574Y-78761834D01*
X93265576Y-78761833D01*
X93277625Y-78756842D01*
X93392621Y-78668602D01*
X93480861Y-78553606D01*
X93536330Y-78419690D01*
X93538031Y-78406767D01*
X93538034Y-78406757D01*
X93539384Y-78396500D01*
X93570193Y-78313469D01*
X93595967Y-78281762D01*
X94205386Y-77672343D01*
X94280374Y-77625224D01*
X94368381Y-77615308D01*
X94451974Y-77644559D01*
X94514598Y-77707183D01*
X94543849Y-77790776D01*
X94545100Y-77813057D01*
X94545100Y-78737993D01*
X94549941Y-78752892D01*
X94550737Y-78755343D01*
X94558025Y-78785699D01*
X94558430Y-78788256D01*
X94558432Y-78788261D01*
X94560881Y-78803726D01*
X94567990Y-78817677D01*
X94567990Y-78817679D01*
X94569165Y-78819985D01*
X94581112Y-78848828D01*
X94581909Y-78851281D01*
X94581911Y-78851284D01*
X94586751Y-78866181D01*
X94595958Y-78878853D01*
X94597470Y-78880934D01*
X94613787Y-78907561D01*
X94622072Y-78923820D01*
X95704033Y-80005781D01*
X95751152Y-80080769D01*
X95760616Y-80120519D01*
X95761966Y-80130776D01*
X95761969Y-80130786D01*
X95763670Y-80143709D01*
X95792992Y-80214500D01*
X95806040Y-80246000D01*
X95819139Y-80277625D01*
X95907379Y-80392621D01*
X96022375Y-80480861D01*
X96034424Y-80485852D01*
X96034426Y-80485853D01*
X96140545Y-80529808D01*
X96156291Y-80536330D01*
X96300000Y-80555250D01*
X96443709Y-80536330D01*
X96459455Y-80529808D01*
X96565574Y-80485853D01*
X96565576Y-80485852D01*
X96577625Y-80480861D01*
X96692621Y-80392621D01*
X96780861Y-80277625D01*
X96793961Y-80246000D01*
X96831339Y-80155759D01*
X96831340Y-80155757D01*
X96836330Y-80143709D01*
X96855250Y-80000000D01*
X96836832Y-79860104D01*
X96845100Y-79771928D01*
X96890808Y-79696071D01*
X96964902Y-79647558D01*
X97060104Y-79636832D01*
X97200000Y-79655250D01*
X97343709Y-79636330D01*
X97390814Y-79616819D01*
X97423116Y-79603439D01*
X97477625Y-79580861D01*
X97480959Y-79578303D01*
X97560630Y-79553728D01*
X97648204Y-79566929D01*
X97721378Y-79616819D01*
X97765659Y-79693517D01*
X97774500Y-79752172D01*
X97774500Y-85183324D01*
X97754793Y-85269667D01*
X97716214Y-85324038D01*
X97327019Y-85713233D01*
X97252031Y-85760352D01*
X97212281Y-85769816D01*
X97202024Y-85771166D01*
X97202014Y-85771169D01*
X97189091Y-85772870D01*
X97116497Y-85802939D01*
X97067226Y-85823347D01*
X97067224Y-85823348D01*
X97055175Y-85828339D01*
X96940179Y-85916579D01*
X96851939Y-86031575D01*
X96796470Y-86165491D01*
X96777550Y-86309200D01*
X96796470Y-86452909D01*
X96801461Y-86464958D01*
X96801461Y-86464959D01*
X96836796Y-86550265D01*
X96851939Y-86586825D01*
X96940179Y-86701821D01*
X97055175Y-86790061D01*
X97067224Y-86795052D01*
X97067226Y-86795053D01*
X97177041Y-86840539D01*
X97189091Y-86845530D01*
X97202022Y-86847232D01*
X97214620Y-86850608D01*
X97214110Y-86852511D01*
X97281740Y-86877606D01*
X97343181Y-86941391D01*
X97370862Y-87025517D01*
X97359301Y-87113322D01*
X97313445Y-87184807D01*
X96691638Y-87806614D01*
X96616650Y-87853733D01*
X96550924Y-87864900D01*
X95616524Y-87864900D01*
X95530181Y-87845193D01*
X95495379Y-87823776D01*
X95487173Y-87817479D01*
X95487171Y-87817478D01*
X95476825Y-87809539D01*
X95464776Y-87804548D01*
X95464774Y-87804547D01*
X95354959Y-87759061D01*
X95354958Y-87759061D01*
X95342909Y-87754070D01*
X95199200Y-87735150D01*
X95055491Y-87754070D01*
X95043442Y-87759061D01*
X95043441Y-87759061D01*
X94933626Y-87804547D01*
X94933624Y-87804548D01*
X94921575Y-87809539D01*
X94806579Y-87897779D01*
X94718339Y-88012775D01*
X94713348Y-88024824D01*
X94713347Y-88024826D01*
X94669462Y-88130776D01*
X94662870Y-88146691D01*
X94643950Y-88290400D01*
X94662870Y-88434109D01*
X94667861Y-88446158D01*
X94667861Y-88446159D01*
X94713048Y-88555250D01*
X94718339Y-88568025D01*
X94806579Y-88683021D01*
X94921575Y-88771261D01*
X94933624Y-88776252D01*
X94933626Y-88776253D01*
X95043441Y-88821739D01*
X95055491Y-88826730D01*
X95199200Y-88845650D01*
X95342909Y-88826730D01*
X95354959Y-88821739D01*
X95464774Y-88776253D01*
X95464776Y-88776252D01*
X95476825Y-88771261D01*
X95487171Y-88763322D01*
X95487173Y-88763321D01*
X95495379Y-88757024D01*
X95575876Y-88720096D01*
X95616524Y-88715900D01*
X96876993Y-88715900D01*
X96892139Y-88710979D01*
X96894343Y-88710263D01*
X96924699Y-88702975D01*
X96927256Y-88702570D01*
X96927261Y-88702568D01*
X96942726Y-88700119D01*
X96956677Y-88693010D01*
X96956679Y-88693010D01*
X96958985Y-88691835D01*
X96987828Y-88679888D01*
X96990281Y-88679091D01*
X96990284Y-88679089D01*
X97005181Y-88674249D01*
X97019938Y-88663527D01*
X97046561Y-88647213D01*
X97062820Y-88638928D01*
X97158128Y-88543620D01*
X97493906Y-88207842D01*
X101399455Y-88207842D01*
X101399686Y-88226918D01*
X101427833Y-88337743D01*
X101433897Y-88354869D01*
X101517285Y-88535752D01*
X101526366Y-88551481D01*
X101641318Y-88714134D01*
X101653126Y-88727959D01*
X101795790Y-88866936D01*
X101809913Y-88878372D01*
X101975511Y-88989021D01*
X101991489Y-88997697D01*
X102174480Y-89076317D01*
X102191772Y-89081935D01*
X102274128Y-89100570D01*
X102292058Y-89100536D01*
X102295315Y-89086204D01*
X102804000Y-89086204D01*
X102808330Y-89105174D01*
X102808916Y-89105456D01*
X102820876Y-89105938D01*
X102835985Y-89102311D01*
X103024596Y-89038285D01*
X103041186Y-89030899D01*
X103214975Y-88933573D01*
X103229939Y-88923288D01*
X103383080Y-88795922D01*
X103395922Y-88783080D01*
X103490264Y-88669646D01*
X104574500Y-88669646D01*
X104575195Y-88675484D01*
X104575195Y-88675488D01*
X104575719Y-88679888D01*
X104577618Y-88695846D01*
X104583680Y-88709493D01*
X104583680Y-88709494D01*
X104613944Y-88777627D01*
X104623061Y-88798153D01*
X104636064Y-88811133D01*
X104688959Y-88863936D01*
X104702287Y-88877241D01*
X104770400Y-88907354D01*
X104790681Y-88916320D01*
X104804673Y-88922506D01*
X104819533Y-88924238D01*
X104819535Y-88924239D01*
X104824612Y-88924831D01*
X104824619Y-88924831D01*
X104830354Y-88925500D01*
X106269646Y-88925500D01*
X106275484Y-88924805D01*
X106275488Y-88924805D01*
X106281019Y-88924147D01*
X106281022Y-88924146D01*
X106295846Y-88922382D01*
X106309494Y-88916320D01*
X106381361Y-88884398D01*
X106381362Y-88884397D01*
X106398153Y-88876939D01*
X106453257Y-88821739D01*
X106464260Y-88810717D01*
X106464261Y-88810716D01*
X106477241Y-88797713D01*
X106522506Y-88695327D01*
X106525730Y-88696752D01*
X106555347Y-88641312D01*
X106626838Y-88589040D01*
X106713930Y-88572962D01*
X106799373Y-88596265D01*
X106844331Y-88630214D01*
X106844889Y-88630918D01*
X106852301Y-88637226D01*
X106983159Y-88748596D01*
X106983162Y-88748598D01*
X106990575Y-88754907D01*
X106999068Y-88759654D01*
X106999073Y-88759657D01*
X107149075Y-88843490D01*
X107149081Y-88843492D01*
X107157570Y-88848237D01*
X107166825Y-88851244D01*
X107166827Y-88851245D01*
X107330253Y-88904346D01*
X107330257Y-88904347D01*
X107339512Y-88907354D01*
X107349176Y-88908506D01*
X107349179Y-88908507D01*
X107519809Y-88928853D01*
X107519811Y-88928853D01*
X107529472Y-88930005D01*
X107720213Y-88915328D01*
X107904472Y-88863882D01*
X107913151Y-88859498D01*
X107913156Y-88859496D01*
X108066547Y-88782012D01*
X108066546Y-88782012D01*
X108075228Y-88777627D01*
X108225979Y-88659848D01*
X108237901Y-88646037D01*
X108333095Y-88535752D01*
X108350982Y-88515030D01*
X108375300Y-88472223D01*
X108435083Y-88406884D01*
X108517297Y-88373954D01*
X108605657Y-88379957D01*
X108682662Y-88423702D01*
X108714474Y-88465354D01*
X108716337Y-88464153D01*
X108721612Y-88472338D01*
X108726060Y-88480993D01*
X108732105Y-88488620D01*
X108732107Y-88488623D01*
X108838840Y-88623287D01*
X108838844Y-88623291D01*
X108844889Y-88630918D01*
X108903757Y-88681019D01*
X108983159Y-88748596D01*
X108983162Y-88748598D01*
X108990575Y-88754907D01*
X108999068Y-88759654D01*
X108999073Y-88759657D01*
X109149075Y-88843490D01*
X109149081Y-88843492D01*
X109157570Y-88848237D01*
X109166825Y-88851244D01*
X109166827Y-88851245D01*
X109330253Y-88904346D01*
X109330257Y-88904347D01*
X109339512Y-88907354D01*
X109349176Y-88908506D01*
X109349179Y-88908507D01*
X109519809Y-88928853D01*
X109519811Y-88928853D01*
X109529472Y-88930005D01*
X109720213Y-88915328D01*
X109904472Y-88863882D01*
X109913151Y-88859498D01*
X109913156Y-88859496D01*
X110066547Y-88782012D01*
X110066546Y-88782012D01*
X110075228Y-88777627D01*
X110225979Y-88659848D01*
X110237901Y-88646037D01*
X110333095Y-88535752D01*
X110350982Y-88515030D01*
X110375300Y-88472223D01*
X110435083Y-88406884D01*
X110517297Y-88373954D01*
X110605657Y-88379957D01*
X110682662Y-88423702D01*
X110714474Y-88465354D01*
X110716337Y-88464153D01*
X110721612Y-88472338D01*
X110726060Y-88480993D01*
X110732105Y-88488620D01*
X110732107Y-88488623D01*
X110838840Y-88623287D01*
X110838844Y-88623291D01*
X110844889Y-88630918D01*
X110903757Y-88681019D01*
X110983159Y-88748596D01*
X110983162Y-88748598D01*
X110990575Y-88754907D01*
X110999068Y-88759654D01*
X110999073Y-88759657D01*
X111149075Y-88843490D01*
X111149081Y-88843492D01*
X111157570Y-88848237D01*
X111166825Y-88851244D01*
X111166827Y-88851245D01*
X111330253Y-88904346D01*
X111330257Y-88904347D01*
X111339512Y-88907354D01*
X111349176Y-88908506D01*
X111349179Y-88908507D01*
X111519809Y-88928853D01*
X111519811Y-88928853D01*
X111529472Y-88930005D01*
X111720213Y-88915328D01*
X111904472Y-88863882D01*
X111913151Y-88859498D01*
X111913156Y-88859496D01*
X112066547Y-88782012D01*
X112066546Y-88782012D01*
X112075228Y-88777627D01*
X112225979Y-88659848D01*
X112237901Y-88646037D01*
X112333095Y-88535752D01*
X112350982Y-88515030D01*
X112375300Y-88472223D01*
X112435083Y-88406884D01*
X112517297Y-88373954D01*
X112605657Y-88379957D01*
X112682662Y-88423702D01*
X112714474Y-88465354D01*
X112716337Y-88464153D01*
X112721612Y-88472338D01*
X112726060Y-88480993D01*
X112732105Y-88488620D01*
X112732107Y-88488623D01*
X112838840Y-88623287D01*
X112838844Y-88623291D01*
X112844889Y-88630918D01*
X112903757Y-88681019D01*
X112983159Y-88748596D01*
X112983162Y-88748598D01*
X112990575Y-88754907D01*
X112999068Y-88759654D01*
X112999073Y-88759657D01*
X113149075Y-88843490D01*
X113149081Y-88843492D01*
X113157570Y-88848237D01*
X113166825Y-88851244D01*
X113166827Y-88851245D01*
X113330253Y-88904346D01*
X113330257Y-88904347D01*
X113339512Y-88907354D01*
X113349176Y-88908506D01*
X113349179Y-88908507D01*
X113519809Y-88928853D01*
X113519811Y-88928853D01*
X113529472Y-88930005D01*
X113720213Y-88915328D01*
X113904472Y-88863882D01*
X113913151Y-88859498D01*
X113913156Y-88859496D01*
X114066547Y-88782012D01*
X114066546Y-88782012D01*
X114075228Y-88777627D01*
X114225979Y-88659848D01*
X114237901Y-88646037D01*
X114333095Y-88535752D01*
X114350982Y-88515030D01*
X114375300Y-88472223D01*
X114435083Y-88406884D01*
X114517297Y-88373954D01*
X114605657Y-88379957D01*
X114682662Y-88423702D01*
X114714474Y-88465354D01*
X114716337Y-88464153D01*
X114721612Y-88472338D01*
X114726060Y-88480993D01*
X114732105Y-88488620D01*
X114732107Y-88488623D01*
X114838840Y-88623287D01*
X114838844Y-88623291D01*
X114844889Y-88630918D01*
X114903757Y-88681019D01*
X114983159Y-88748596D01*
X114983162Y-88748598D01*
X114990575Y-88754907D01*
X114999068Y-88759654D01*
X114999073Y-88759657D01*
X115149075Y-88843490D01*
X115149081Y-88843492D01*
X115157570Y-88848237D01*
X115166825Y-88851244D01*
X115166827Y-88851245D01*
X115330253Y-88904346D01*
X115330257Y-88904347D01*
X115339512Y-88907354D01*
X115349176Y-88908506D01*
X115349179Y-88908507D01*
X115519809Y-88928853D01*
X115519811Y-88928853D01*
X115529472Y-88930005D01*
X115720213Y-88915328D01*
X115904472Y-88863882D01*
X115913151Y-88859498D01*
X115913156Y-88859496D01*
X116066547Y-88782012D01*
X116066546Y-88782012D01*
X116075228Y-88777627D01*
X116225979Y-88659848D01*
X116237901Y-88646037D01*
X116333095Y-88535752D01*
X116350982Y-88515030D01*
X116375300Y-88472223D01*
X116435083Y-88406884D01*
X116517297Y-88373954D01*
X116605657Y-88379957D01*
X116682662Y-88423702D01*
X116714474Y-88465354D01*
X116716337Y-88464153D01*
X116721612Y-88472338D01*
X116726060Y-88480993D01*
X116732105Y-88488620D01*
X116732107Y-88488623D01*
X116838840Y-88623287D01*
X116838844Y-88623291D01*
X116844889Y-88630918D01*
X116903757Y-88681019D01*
X116983159Y-88748596D01*
X116983162Y-88748598D01*
X116990575Y-88754907D01*
X116999068Y-88759654D01*
X116999073Y-88759657D01*
X117149075Y-88843490D01*
X117149081Y-88843492D01*
X117157570Y-88848237D01*
X117166825Y-88851244D01*
X117166827Y-88851245D01*
X117330253Y-88904346D01*
X117330257Y-88904347D01*
X117339512Y-88907354D01*
X117349176Y-88908506D01*
X117349179Y-88908507D01*
X117519809Y-88928853D01*
X117519811Y-88928853D01*
X117529472Y-88930005D01*
X117720213Y-88915328D01*
X117904472Y-88863882D01*
X117913151Y-88859498D01*
X117913156Y-88859496D01*
X118066547Y-88782012D01*
X118066546Y-88782012D01*
X118075228Y-88777627D01*
X118225979Y-88659848D01*
X118237901Y-88646037D01*
X118333095Y-88535752D01*
X118350982Y-88515030D01*
X118365984Y-88488623D01*
X118402356Y-88424596D01*
X118445476Y-88348691D01*
X118458067Y-88310843D01*
X118502789Y-88176401D01*
X118502789Y-88176400D01*
X118505861Y-88167166D01*
X118513712Y-88105019D01*
X118544086Y-88021827D01*
X118593575Y-87973653D01*
X118557772Y-87942843D01*
X118522356Y-87861670D01*
X118519836Y-87844091D01*
X118512502Y-87769299D01*
X118511552Y-87759608D01*
X118456259Y-87576467D01*
X118395377Y-87461966D01*
X118371014Y-87416145D01*
X118371011Y-87416141D01*
X118366446Y-87407555D01*
X118287090Y-87310254D01*
X118251687Y-87266846D01*
X118251686Y-87266845D01*
X118245535Y-87259303D01*
X118098132Y-87137361D01*
X117929851Y-87046371D01*
X117747101Y-86989801D01*
X117599208Y-86974257D01*
X117566520Y-86970821D01*
X117566519Y-86970821D01*
X117556843Y-86969804D01*
X117366325Y-86987142D01*
X117356986Y-86989891D01*
X117356984Y-86989891D01*
X117192149Y-87038405D01*
X117192146Y-87038406D01*
X117182803Y-87041156D01*
X117174175Y-87045666D01*
X117174169Y-87045669D01*
X117039477Y-87116085D01*
X117013268Y-87129787D01*
X116864176Y-87249660D01*
X116741207Y-87396208D01*
X116736521Y-87404732D01*
X116724940Y-87425798D01*
X116666075Y-87491968D01*
X116584330Y-87526044D01*
X116495895Y-87521277D01*
X116418286Y-87478612D01*
X116374847Y-87423355D01*
X116371014Y-87416145D01*
X116371011Y-87416141D01*
X116366446Y-87407555D01*
X116287090Y-87310254D01*
X116251687Y-87266846D01*
X116251686Y-87266845D01*
X116245535Y-87259303D01*
X116098132Y-87137361D01*
X115929851Y-87046371D01*
X115747101Y-86989801D01*
X115599208Y-86974257D01*
X115566520Y-86970821D01*
X115566519Y-86970821D01*
X115556843Y-86969804D01*
X115366325Y-86987142D01*
X115356986Y-86989891D01*
X115356984Y-86989891D01*
X115192149Y-87038405D01*
X115192146Y-87038406D01*
X115182803Y-87041156D01*
X115174175Y-87045666D01*
X115174169Y-87045669D01*
X115039477Y-87116085D01*
X115013268Y-87129787D01*
X114864176Y-87249660D01*
X114741207Y-87396208D01*
X114736521Y-87404732D01*
X114724940Y-87425798D01*
X114666075Y-87491968D01*
X114584330Y-87526044D01*
X114495895Y-87521277D01*
X114418286Y-87478612D01*
X114374847Y-87423355D01*
X114371014Y-87416145D01*
X114371011Y-87416141D01*
X114366446Y-87407555D01*
X114287090Y-87310254D01*
X114251687Y-87266846D01*
X114251686Y-87266845D01*
X114245535Y-87259303D01*
X114098132Y-87137361D01*
X113929851Y-87046371D01*
X113747101Y-86989801D01*
X113599208Y-86974257D01*
X113566520Y-86970821D01*
X113566519Y-86970821D01*
X113556843Y-86969804D01*
X113366325Y-86987142D01*
X113356986Y-86989891D01*
X113356984Y-86989891D01*
X113192149Y-87038405D01*
X113192146Y-87038406D01*
X113182803Y-87041156D01*
X113174175Y-87045666D01*
X113174169Y-87045669D01*
X113039477Y-87116085D01*
X113013268Y-87129787D01*
X112864176Y-87249660D01*
X112741207Y-87396208D01*
X112736521Y-87404732D01*
X112724940Y-87425798D01*
X112666075Y-87491968D01*
X112584330Y-87526044D01*
X112495895Y-87521277D01*
X112418286Y-87478612D01*
X112374847Y-87423355D01*
X112371014Y-87416145D01*
X112371011Y-87416141D01*
X112366446Y-87407555D01*
X112287090Y-87310254D01*
X112251687Y-87266846D01*
X112251686Y-87266845D01*
X112245535Y-87259303D01*
X112098132Y-87137361D01*
X111929851Y-87046371D01*
X111747101Y-86989801D01*
X111599208Y-86974257D01*
X111566520Y-86970821D01*
X111566519Y-86970821D01*
X111556843Y-86969804D01*
X111366325Y-86987142D01*
X111356986Y-86989891D01*
X111356984Y-86989891D01*
X111192149Y-87038405D01*
X111192146Y-87038406D01*
X111182803Y-87041156D01*
X111174175Y-87045666D01*
X111174169Y-87045669D01*
X111039477Y-87116085D01*
X111013268Y-87129787D01*
X110864176Y-87249660D01*
X110741207Y-87396208D01*
X110736521Y-87404732D01*
X110724940Y-87425798D01*
X110666075Y-87491968D01*
X110584330Y-87526044D01*
X110495895Y-87521277D01*
X110418286Y-87478612D01*
X110374847Y-87423355D01*
X110371014Y-87416145D01*
X110371011Y-87416141D01*
X110366446Y-87407555D01*
X110287090Y-87310254D01*
X110251687Y-87266846D01*
X110251686Y-87266845D01*
X110245535Y-87259303D01*
X110098132Y-87137361D01*
X109929851Y-87046371D01*
X109747101Y-86989801D01*
X109599208Y-86974257D01*
X109566520Y-86970821D01*
X109566519Y-86970821D01*
X109556843Y-86969804D01*
X109366325Y-86987142D01*
X109356986Y-86989891D01*
X109356984Y-86989891D01*
X109192149Y-87038405D01*
X109192146Y-87038406D01*
X109182803Y-87041156D01*
X109174175Y-87045666D01*
X109174169Y-87045669D01*
X109039477Y-87116085D01*
X109013268Y-87129787D01*
X108864176Y-87249660D01*
X108741207Y-87396208D01*
X108736521Y-87404732D01*
X108724940Y-87425798D01*
X108666075Y-87491968D01*
X108584330Y-87526044D01*
X108495895Y-87521277D01*
X108418286Y-87478612D01*
X108374847Y-87423355D01*
X108371014Y-87416145D01*
X108371011Y-87416141D01*
X108366446Y-87407555D01*
X108287090Y-87310254D01*
X108251687Y-87266846D01*
X108251686Y-87266845D01*
X108245535Y-87259303D01*
X108098132Y-87137361D01*
X107929851Y-87046371D01*
X107747101Y-86989801D01*
X107599208Y-86974257D01*
X107566520Y-86970821D01*
X107566519Y-86970821D01*
X107556843Y-86969804D01*
X107366325Y-86987142D01*
X107356986Y-86989891D01*
X107356984Y-86989891D01*
X107192149Y-87038405D01*
X107192146Y-87038406D01*
X107182803Y-87041156D01*
X107174175Y-87045666D01*
X107174169Y-87045669D01*
X107039477Y-87116085D01*
X107013268Y-87129787D01*
X106864176Y-87249660D01*
X106857920Y-87257115D01*
X106850964Y-87263927D01*
X106850028Y-87262971D01*
X106787608Y-87310254D01*
X106700801Y-87327804D01*
X106614975Y-87305952D01*
X106547131Y-87249026D01*
X106524527Y-87203201D01*
X106522382Y-87204154D01*
X106484398Y-87118639D01*
X106484397Y-87118638D01*
X106476939Y-87101847D01*
X106416142Y-87041156D01*
X106410717Y-87035740D01*
X106410716Y-87035739D01*
X106397713Y-87022759D01*
X106315155Y-86986260D01*
X106309012Y-86983544D01*
X106309011Y-86983544D01*
X106295327Y-86977494D01*
X106280467Y-86975762D01*
X106280465Y-86975761D01*
X106275388Y-86975169D01*
X106275381Y-86975169D01*
X106269646Y-86974500D01*
X104830354Y-86974500D01*
X104824516Y-86975195D01*
X104824512Y-86975195D01*
X104818981Y-86975853D01*
X104818978Y-86975854D01*
X104804154Y-86977618D01*
X104790507Y-86983680D01*
X104790506Y-86983680D01*
X104718639Y-87015602D01*
X104718638Y-87015603D01*
X104701847Y-87023061D01*
X104678578Y-87046371D01*
X104636156Y-87088867D01*
X104622759Y-87102287D01*
X104577494Y-87204673D01*
X104574500Y-87230354D01*
X104574500Y-88669646D01*
X103490264Y-88669646D01*
X103523288Y-88629939D01*
X103533573Y-88614975D01*
X103630899Y-88441186D01*
X103638285Y-88424596D01*
X103702311Y-88235985D01*
X103705222Y-88223858D01*
X103703847Y-88206797D01*
X103703306Y-88206433D01*
X103690249Y-88204000D01*
X102826423Y-88204000D01*
X102807453Y-88208330D01*
X102804000Y-88215500D01*
X102804000Y-89086204D01*
X102295315Y-89086204D01*
X102296000Y-89083191D01*
X102296000Y-88226423D01*
X102291670Y-88207453D01*
X102284500Y-88204000D01*
X101416289Y-88204000D01*
X101399455Y-88207842D01*
X97493906Y-88207842D01*
X100407057Y-85294690D01*
X100407059Y-85294689D01*
X100502367Y-85199381D01*
X100510651Y-85183123D01*
X100526967Y-85156498D01*
X100528481Y-85154414D01*
X100537688Y-85141742D01*
X100542528Y-85126845D01*
X100542530Y-85126842D01*
X100543327Y-85124389D01*
X100555274Y-85095546D01*
X100556449Y-85093240D01*
X100556449Y-85093238D01*
X100563558Y-85079287D01*
X100566007Y-85063822D01*
X100566009Y-85063817D01*
X100566414Y-85061260D01*
X100573702Y-85030904D01*
X100574498Y-85028453D01*
X100579339Y-85013554D01*
X100579339Y-83061515D01*
X100599046Y-82975172D01*
X100654265Y-82905931D01*
X100734057Y-82867504D01*
X100822621Y-82867504D01*
X100902413Y-82905931D01*
X100919053Y-82920801D01*
X101542551Y-83544299D01*
X101589670Y-83619287D01*
X101599586Y-83707294D01*
X101595349Y-83727231D01*
X101596166Y-83727405D01*
X101594143Y-83736924D01*
X101591200Y-83746201D01*
X101580097Y-83845193D01*
X101573401Y-83904891D01*
X101569876Y-83936314D01*
X101585884Y-84126948D01*
X101588567Y-84136306D01*
X101588568Y-84136310D01*
X101610222Y-84211828D01*
X101638614Y-84310843D01*
X101643062Y-84319497D01*
X101643062Y-84319498D01*
X101720298Y-84469781D01*
X101726060Y-84480993D01*
X101732105Y-84488620D01*
X101732107Y-84488623D01*
X101838840Y-84623287D01*
X101838844Y-84623291D01*
X101844889Y-84630918D01*
X101903572Y-84680861D01*
X101983159Y-84748596D01*
X101983162Y-84748598D01*
X101990575Y-84754907D01*
X101999074Y-84759657D01*
X101999077Y-84759659D01*
X102026845Y-84775178D01*
X102092602Y-84834504D01*
X102126106Y-84916485D01*
X102120722Y-85004885D01*
X102077515Y-85082194D01*
X102029618Y-85119309D01*
X102030037Y-85119949D01*
X102022035Y-85125185D01*
X102021962Y-85125242D01*
X102013268Y-85129787D01*
X101864176Y-85249660D01*
X101741207Y-85396208D01*
X101649045Y-85563850D01*
X101646103Y-85573125D01*
X101646102Y-85573127D01*
X101635885Y-85605337D01*
X101591200Y-85746201D01*
X101577459Y-85868709D01*
X101572090Y-85916579D01*
X101569876Y-85936314D01*
X101585884Y-86126948D01*
X101588567Y-86136306D01*
X101588568Y-86136310D01*
X101609350Y-86208786D01*
X101638614Y-86310843D01*
X101643062Y-86319497D01*
X101643062Y-86319498D01*
X101717820Y-86464959D01*
X101726060Y-86480993D01*
X101732105Y-86488620D01*
X101732107Y-86488623D01*
X101838840Y-86623287D01*
X101838844Y-86623291D01*
X101844889Y-86630918D01*
X101883327Y-86663632D01*
X101936307Y-86734598D01*
X101953250Y-86821526D01*
X101930798Y-86907196D01*
X101873398Y-86974641D01*
X101863797Y-86981055D01*
X101844809Y-86994851D01*
X101695064Y-87126173D01*
X101682559Y-87139351D01*
X101559250Y-87295768D01*
X101549355Y-87311005D01*
X101456614Y-87487276D01*
X101449663Y-87504058D01*
X101396713Y-87674588D01*
X101395343Y-87692415D01*
X101406888Y-87696000D01*
X103685177Y-87696000D01*
X103702611Y-87692021D01*
X103702611Y-87678310D01*
X103661630Y-87533005D01*
X103655127Y-87516063D01*
X103567026Y-87337412D01*
X103557538Y-87321930D01*
X103438367Y-87162339D01*
X103426205Y-87148831D01*
X103279951Y-87013636D01*
X103265531Y-87002571D01*
X103240212Y-86986596D01*
X103177706Y-86923855D01*
X103148612Y-86840207D01*
X103158693Y-86752220D01*
X103205952Y-86677319D01*
X103211302Y-86672595D01*
X103211261Y-86672552D01*
X103218309Y-86665841D01*
X103225979Y-86659848D01*
X103257538Y-86623287D01*
X103344621Y-86522399D01*
X103350982Y-86515030D01*
X103365984Y-86488623D01*
X103408048Y-86414576D01*
X103445476Y-86348691D01*
X103449250Y-86337348D01*
X103502789Y-86176401D01*
X103502789Y-86176400D01*
X103505861Y-86167166D01*
X103529838Y-85977369D01*
X103530220Y-85950000D01*
X103527958Y-85926924D01*
X103512502Y-85769299D01*
X103511552Y-85759608D01*
X103456259Y-85576467D01*
X103414643Y-85498199D01*
X103371014Y-85416145D01*
X103371011Y-85416141D01*
X103366446Y-85407555D01*
X103343463Y-85379374D01*
X103251687Y-85266846D01*
X103251686Y-85266845D01*
X103245535Y-85259303D01*
X103150269Y-85180492D01*
X103105628Y-85143562D01*
X103105627Y-85143561D01*
X103098132Y-85137361D01*
X103077102Y-85125990D01*
X103010524Y-85067590D01*
X102975877Y-84986085D01*
X102980025Y-84897619D01*
X103022147Y-84819713D01*
X103065115Y-84782921D01*
X103066548Y-84782012D01*
X103075228Y-84777627D01*
X103225979Y-84659848D01*
X103257538Y-84623287D01*
X103325131Y-84544979D01*
X103350982Y-84515030D01*
X103365984Y-84488623D01*
X103412771Y-84406262D01*
X103445476Y-84348691D01*
X103451436Y-84330776D01*
X103502789Y-84176401D01*
X103502789Y-84176400D01*
X103505861Y-84167166D01*
X103529838Y-83977369D01*
X103530027Y-83963806D01*
X103530143Y-83955551D01*
X103530143Y-83955542D01*
X103530220Y-83950000D01*
X103528336Y-83930778D01*
X103513848Y-83783026D01*
X103511552Y-83759608D01*
X103456259Y-83576467D01*
X103412838Y-83494805D01*
X103371014Y-83416145D01*
X103371011Y-83416141D01*
X103366446Y-83407555D01*
X103360147Y-83399831D01*
X103251687Y-83266846D01*
X103251686Y-83266845D01*
X103245535Y-83259303D01*
X103238033Y-83253097D01*
X103231179Y-83246195D01*
X103233502Y-83243888D01*
X103191059Y-83188653D01*
X103172910Y-83101969D01*
X103194170Y-83015995D01*
X103250627Y-82947759D01*
X103296892Y-82924737D01*
X103295846Y-82922382D01*
X103381361Y-82884398D01*
X103381362Y-82884397D01*
X103398153Y-82876939D01*
X103477241Y-82797713D01*
X103522506Y-82695327D01*
X103525500Y-82669646D01*
X103525500Y-81230354D01*
X103522382Y-81204154D01*
X103499903Y-81153547D01*
X103484398Y-81118639D01*
X103484397Y-81118638D01*
X103476939Y-81101847D01*
X103442728Y-81067696D01*
X105142001Y-81067696D01*
X105142584Y-81078453D01*
X105147400Y-81122799D01*
X105153128Y-81146890D01*
X105194853Y-81258191D01*
X105208328Y-81282804D01*
X105278595Y-81376561D01*
X105308466Y-81406432D01*
X105306400Y-81408498D01*
X105349423Y-81459236D01*
X105371721Y-81544946D01*
X105369139Y-81583434D01*
X105345927Y-81723648D01*
X105355314Y-81902760D01*
X105358176Y-81913150D01*
X105358176Y-81913151D01*
X105400062Y-82065218D01*
X105402943Y-82075679D01*
X105486594Y-82234336D01*
X105520922Y-82274957D01*
X105561599Y-82353623D01*
X105564116Y-82442150D01*
X105533514Y-82515255D01*
X105448957Y-82639678D01*
X105441829Y-82650166D01*
X105437828Y-82660168D01*
X105437828Y-82660169D01*
X105379221Y-82806696D01*
X105379220Y-82806700D01*
X105375221Y-82816698D01*
X105369726Y-82849892D01*
X105348986Y-82975172D01*
X105345927Y-82993648D01*
X105346491Y-83004412D01*
X105346491Y-83004414D01*
X105347931Y-83031895D01*
X105355314Y-83172760D01*
X105358176Y-83183150D01*
X105358176Y-83183151D01*
X105400062Y-83335218D01*
X105402943Y-83345679D01*
X105407971Y-83355215D01*
X105407972Y-83355218D01*
X105431494Y-83399831D01*
X105486594Y-83504336D01*
X105602362Y-83641329D01*
X105744847Y-83750267D01*
X105754611Y-83754820D01*
X105897632Y-83821512D01*
X105897635Y-83821513D01*
X105907401Y-83826067D01*
X106082440Y-83865193D01*
X106087931Y-83865500D01*
X106669810Y-83865500D01*
X106675167Y-83864918D01*
X106675168Y-83864918D01*
X106714310Y-83860666D01*
X106803309Y-83850997D01*
X106973300Y-83793789D01*
X106982542Y-83788236D01*
X106982546Y-83788234D01*
X107117800Y-83706965D01*
X107127040Y-83701413D01*
X107257357Y-83578178D01*
X107292560Y-83526378D01*
X107352114Y-83438747D01*
X107352115Y-83438745D01*
X107358171Y-83429834D01*
X107362172Y-83419831D01*
X107420779Y-83273304D01*
X107420780Y-83273300D01*
X107424779Y-83263302D01*
X107444861Y-83141997D01*
X107452313Y-83096986D01*
X107452313Y-83096982D01*
X107454073Y-83086352D01*
X107452910Y-83064150D01*
X107445250Y-82918003D01*
X107444686Y-82907240D01*
X107438394Y-82884398D01*
X107399921Y-82744718D01*
X107399920Y-82744716D01*
X107397057Y-82734321D01*
X107381292Y-82704419D01*
X107318431Y-82585195D01*
X107313406Y-82575664D01*
X107279078Y-82535043D01*
X107238401Y-82456377D01*
X107235884Y-82367850D01*
X107266486Y-82294745D01*
X107352114Y-82168747D01*
X107352115Y-82168745D01*
X107358171Y-82159834D01*
X107362172Y-82149831D01*
X107420779Y-82003304D01*
X107420780Y-82003300D01*
X107424779Y-81993302D01*
X107454073Y-81816352D01*
X107444686Y-81637240D01*
X107435447Y-81603697D01*
X107431518Y-81515221D01*
X107466367Y-81433802D01*
X107492447Y-81407343D01*
X107491535Y-81406431D01*
X107521405Y-81376561D01*
X107591672Y-81282804D01*
X107605147Y-81258191D01*
X107646873Y-81146887D01*
X107652599Y-81122804D01*
X107657418Y-81078449D01*
X107658000Y-81067699D01*
X107658000Y-81047696D01*
X110132001Y-81047696D01*
X110132584Y-81058453D01*
X110137400Y-81102799D01*
X110143128Y-81126890D01*
X110184853Y-81238191D01*
X110198328Y-81262804D01*
X110268595Y-81356561D01*
X110298466Y-81386432D01*
X110296400Y-81388498D01*
X110339423Y-81439236D01*
X110361721Y-81524946D01*
X110359139Y-81563434D01*
X110335927Y-81703648D01*
X110336491Y-81714412D01*
X110336491Y-81714414D01*
X110339392Y-81769772D01*
X110345314Y-81882760D01*
X110348176Y-81893150D01*
X110348176Y-81893151D01*
X110374385Y-81988302D01*
X110392943Y-82055679D01*
X110476594Y-82214336D01*
X110510922Y-82254957D01*
X110551599Y-82333623D01*
X110554116Y-82422150D01*
X110523514Y-82495255D01*
X110431829Y-82630166D01*
X110427828Y-82640168D01*
X110427828Y-82640169D01*
X110369221Y-82786696D01*
X110369220Y-82786700D01*
X110365221Y-82796698D01*
X110356683Y-82848270D01*
X110340533Y-82945828D01*
X110335927Y-82973648D01*
X110336491Y-82984412D01*
X110336491Y-82984414D01*
X110339738Y-83046371D01*
X110345314Y-83152760D01*
X110348176Y-83163150D01*
X110348176Y-83163151D01*
X110367326Y-83232674D01*
X110392943Y-83325679D01*
X110397971Y-83335215D01*
X110397972Y-83335218D01*
X110432039Y-83399831D01*
X110476594Y-83484336D01*
X110592362Y-83621329D01*
X110734847Y-83730267D01*
X110744611Y-83734820D01*
X110887632Y-83801512D01*
X110887635Y-83801513D01*
X110897401Y-83806067D01*
X111072440Y-83845193D01*
X111077931Y-83845500D01*
X111659810Y-83845500D01*
X111665167Y-83844918D01*
X111665168Y-83844918D01*
X111740730Y-83836709D01*
X111793309Y-83830997D01*
X111963300Y-83773789D01*
X111972542Y-83768236D01*
X111972546Y-83768234D01*
X112107800Y-83686965D01*
X112117040Y-83681413D01*
X112247357Y-83558178D01*
X112348171Y-83409834D01*
X112352328Y-83399441D01*
X112410779Y-83253304D01*
X112410780Y-83253300D01*
X112414779Y-83243302D01*
X112431550Y-83141997D01*
X112442313Y-83076986D01*
X112442313Y-83076982D01*
X112444073Y-83066352D01*
X112442705Y-83040238D01*
X112435250Y-82898003D01*
X112434686Y-82887240D01*
X112414859Y-82815257D01*
X112389921Y-82724718D01*
X112389920Y-82724716D01*
X112387057Y-82714321D01*
X112381837Y-82704419D01*
X112308431Y-82565195D01*
X112303406Y-82555664D01*
X112269078Y-82515043D01*
X112228401Y-82436377D01*
X112225884Y-82347850D01*
X112256486Y-82274745D01*
X112342114Y-82148747D01*
X112342115Y-82148745D01*
X112348171Y-82139834D01*
X112377990Y-82065282D01*
X112410779Y-81983304D01*
X112410780Y-81983300D01*
X112414779Y-81973302D01*
X112444073Y-81796352D01*
X112442751Y-81771117D01*
X112435250Y-81628003D01*
X112434686Y-81617240D01*
X112425447Y-81583697D01*
X112421518Y-81495221D01*
X112456367Y-81413802D01*
X112482447Y-81387343D01*
X112481535Y-81386431D01*
X112511405Y-81356561D01*
X112581672Y-81262804D01*
X112595147Y-81238191D01*
X112636873Y-81126887D01*
X112642599Y-81102804D01*
X112647418Y-81058449D01*
X112648000Y-81047699D01*
X112648000Y-80756423D01*
X112643670Y-80737453D01*
X112636500Y-80734000D01*
X110154424Y-80734000D01*
X110135454Y-80738330D01*
X110132001Y-80745500D01*
X110132001Y-81047696D01*
X107658000Y-81047696D01*
X107658000Y-80776423D01*
X107653670Y-80757453D01*
X107646500Y-80754000D01*
X105164424Y-80754000D01*
X105145454Y-80758330D01*
X105142001Y-80765500D01*
X105142001Y-81067696D01*
X103442728Y-81067696D01*
X103397713Y-81022759D01*
X103295327Y-80977494D01*
X103280467Y-80975762D01*
X103280465Y-80975761D01*
X103275388Y-80975169D01*
X103275381Y-80975169D01*
X103269646Y-80974500D01*
X103199500Y-80974500D01*
X103113157Y-80954793D01*
X103043916Y-80899574D01*
X103005489Y-80819782D01*
X103000500Y-80775500D01*
X103000500Y-80223577D01*
X105142000Y-80223577D01*
X105146330Y-80242547D01*
X105153500Y-80246000D01*
X106123577Y-80246000D01*
X106142547Y-80241670D01*
X106146000Y-80234500D01*
X106146000Y-80223577D01*
X106654000Y-80223577D01*
X106658330Y-80242547D01*
X106665500Y-80246000D01*
X107635576Y-80246000D01*
X107654546Y-80241670D01*
X107657999Y-80234500D01*
X107657999Y-80203577D01*
X110132000Y-80203577D01*
X110136330Y-80222547D01*
X110143500Y-80226000D01*
X111113577Y-80226000D01*
X111132547Y-80221670D01*
X111136000Y-80214500D01*
X111136000Y-80203577D01*
X111644000Y-80203577D01*
X111648330Y-80222547D01*
X111655500Y-80226000D01*
X112625576Y-80226000D01*
X112644546Y-80221670D01*
X112647999Y-80214500D01*
X112647999Y-79912304D01*
X112647416Y-79901547D01*
X112642600Y-79857201D01*
X112636872Y-79833110D01*
X112595147Y-79721809D01*
X112581672Y-79697196D01*
X112511405Y-79603439D01*
X112491561Y-79583595D01*
X112397804Y-79513328D01*
X112373191Y-79499853D01*
X112261887Y-79458127D01*
X112237804Y-79452401D01*
X112193449Y-79447582D01*
X112182699Y-79447000D01*
X111666423Y-79447000D01*
X111647453Y-79451330D01*
X111644000Y-79458500D01*
X111644000Y-80203577D01*
X111136000Y-80203577D01*
X111136000Y-79469424D01*
X111131670Y-79450454D01*
X111124500Y-79447001D01*
X110597304Y-79447001D01*
X110586547Y-79447584D01*
X110542201Y-79452400D01*
X110518110Y-79458128D01*
X110406809Y-79499853D01*
X110382196Y-79513328D01*
X110288439Y-79583595D01*
X110268595Y-79603439D01*
X110198328Y-79697196D01*
X110184853Y-79721809D01*
X110143127Y-79833113D01*
X110137401Y-79857196D01*
X110132582Y-79901551D01*
X110132000Y-79912301D01*
X110132000Y-80203577D01*
X107657999Y-80203577D01*
X107657999Y-79932304D01*
X107657416Y-79921547D01*
X107652600Y-79877201D01*
X107646872Y-79853110D01*
X107605147Y-79741809D01*
X107591672Y-79717196D01*
X107521405Y-79623439D01*
X107501561Y-79603595D01*
X107407804Y-79533328D01*
X107383191Y-79519853D01*
X107271887Y-79478127D01*
X107247804Y-79472401D01*
X107203449Y-79467582D01*
X107192699Y-79467000D01*
X106676423Y-79467000D01*
X106657453Y-79471330D01*
X106654000Y-79478500D01*
X106654000Y-80223577D01*
X106146000Y-80223577D01*
X106146000Y-79489424D01*
X106141670Y-79470454D01*
X106134500Y-79467001D01*
X105607304Y-79467001D01*
X105596547Y-79467584D01*
X105552201Y-79472400D01*
X105528110Y-79478128D01*
X105416809Y-79519853D01*
X105392196Y-79533328D01*
X105298439Y-79603595D01*
X105278595Y-79623439D01*
X105208328Y-79717196D01*
X105194853Y-79741809D01*
X105153127Y-79853113D01*
X105147401Y-79877196D01*
X105142582Y-79921551D01*
X105142000Y-79932301D01*
X105142000Y-80223577D01*
X103000500Y-80223577D01*
X103000500Y-79388525D01*
X103001879Y-79365136D01*
X103003616Y-79350463D01*
X103003616Y-79350460D01*
X103005364Y-79335690D01*
X102995026Y-79279082D01*
X102994005Y-79272944D01*
X102987661Y-79230750D01*
X102985449Y-79216038D01*
X102982323Y-79209528D01*
X102981026Y-79202427D01*
X102974170Y-79189229D01*
X102969352Y-79175156D01*
X102970889Y-79174630D01*
X102952898Y-79105523D01*
X102969983Y-79018623D01*
X103023081Y-78947742D01*
X103101674Y-78906918D01*
X103151807Y-78900500D01*
X110769872Y-78900500D01*
X110856215Y-78920207D01*
X110863526Y-78924071D01*
X110872375Y-78930861D01*
X111006291Y-78986330D01*
X111150000Y-79005250D01*
X111293709Y-78986330D01*
X111366231Y-78956291D01*
X111415574Y-78935853D01*
X111415576Y-78935852D01*
X111427625Y-78930861D01*
X111542621Y-78842621D01*
X111630861Y-78727625D01*
X111651572Y-78677625D01*
X111681339Y-78605759D01*
X111681339Y-78605758D01*
X111686330Y-78593709D01*
X111705250Y-78450000D01*
X111686330Y-78306291D01*
X111675797Y-78280861D01*
X111635853Y-78184426D01*
X111635852Y-78184424D01*
X111630861Y-78172375D01*
X111542621Y-78057379D01*
X111427625Y-77969139D01*
X111415576Y-77964148D01*
X111415574Y-77964147D01*
X111305759Y-77918661D01*
X111305758Y-77918661D01*
X111293709Y-77913670D01*
X111150000Y-77894750D01*
X111006291Y-77913670D01*
X110872375Y-77969139D01*
X110866329Y-77973778D01*
X110784742Y-77998944D01*
X110769872Y-77999500D01*
X107375677Y-77999500D01*
X107289334Y-77979793D01*
X107220093Y-77924574D01*
X107181666Y-77844782D01*
X107181666Y-77756218D01*
X107213804Y-77690232D01*
X107211571Y-77688792D01*
X107229200Y-77661452D01*
X107298172Y-77523418D01*
X107305989Y-77501824D01*
X107341204Y-77352274D01*
X107343842Y-77329471D01*
X107343708Y-77175837D01*
X107341027Y-77153020D01*
X107305556Y-77003550D01*
X107297696Y-76981955D01*
X107228479Y-76844031D01*
X107216746Y-76825894D01*
X107160555Y-76756874D01*
X107153755Y-76749342D01*
X106786867Y-76382454D01*
X106769322Y-76371429D01*
X106749091Y-76369150D01*
X106665498Y-76339899D01*
X106602874Y-76277275D01*
X106573623Y-76193682D01*
X106583539Y-76105675D01*
X106613494Y-76050258D01*
X106613970Y-76049638D01*
X106630861Y-76027625D01*
X106638365Y-76009510D01*
X106681337Y-75905763D01*
X106686330Y-75893709D01*
X106688033Y-75880776D01*
X106688462Y-75879174D01*
X106729846Y-75800874D01*
X106801105Y-75748284D01*
X106829174Y-75738462D01*
X106830776Y-75738033D01*
X106843709Y-75736330D01*
X106952365Y-75691324D01*
X106965574Y-75685853D01*
X106965576Y-75685852D01*
X106977625Y-75680861D01*
X107092621Y-75592621D01*
X107122911Y-75553147D01*
X107191104Y-75496646D01*
X107277063Y-75475327D01*
X107363759Y-75493415D01*
X107421500Y-75533578D01*
X107893735Y-76005813D01*
X107898450Y-76009510D01*
X107898457Y-76009516D01*
X107954834Y-76053721D01*
X107964898Y-76061612D01*
X107976629Y-76066689D01*
X107976630Y-76066689D01*
X108084427Y-76113337D01*
X108103321Y-76121513D01*
X108252753Y-76141982D01*
X108266193Y-76140141D01*
X108388746Y-76123354D01*
X108402186Y-76121513D01*
X108490893Y-76083126D01*
X108528873Y-76066691D01*
X108528875Y-76066690D01*
X108540609Y-76061612D01*
X108611771Y-76005813D01*
X109025813Y-75591771D01*
X109081612Y-75520609D01*
X109141513Y-75382186D01*
X109146937Y-75342592D01*
X109152413Y-75302613D01*
X109161982Y-75232753D01*
X109141513Y-75083321D01*
X109081612Y-74944898D01*
X109047299Y-74901137D01*
X109029516Y-74878457D01*
X109029512Y-74878452D01*
X109025813Y-74873735D01*
X107904665Y-73752587D01*
X107899948Y-73748888D01*
X107899943Y-73748884D01*
X107843561Y-73704675D01*
X107843560Y-73704674D01*
X107833502Y-73696788D01*
X107816393Y-73689384D01*
X107707530Y-73642275D01*
X107695079Y-73636887D01*
X107545647Y-73616418D01*
X107532207Y-73618259D01*
X107440207Y-73630861D01*
X107396214Y-73636887D01*
X107324850Y-73667769D01*
X107269527Y-73691709D01*
X107269525Y-73691710D01*
X107257791Y-73696788D01*
X107247729Y-73704678D01*
X107236748Y-73711211D01*
X107235604Y-73709288D01*
X107171164Y-73739671D01*
X107082603Y-73738943D01*
X107003129Y-73699863D01*
X106987773Y-73686025D01*
X106085934Y-72784187D01*
X106038815Y-72709199D01*
X106028899Y-72621192D01*
X106058150Y-72537599D01*
X106103855Y-72486875D01*
X106131819Y-72464948D01*
X106136529Y-72461255D01*
X106310198Y-72287586D01*
X106385186Y-72240467D01*
X106450912Y-72229300D01*
X108426946Y-72229300D01*
X108513289Y-72249007D01*
G37*
%TD.AperFunction*%
%TA.AperFunction,Conductor*%
G36*
X88336267Y-69253807D02*
G01*
X88390638Y-69292386D01*
X89240725Y-70142473D01*
X89287844Y-70217461D01*
X89299011Y-70283187D01*
X89299011Y-70474499D01*
X89279304Y-70560842D01*
X89224085Y-70630083D01*
X89144293Y-70668510D01*
X89051189Y-70666768D01*
X89043709Y-70663670D01*
X88900000Y-70644750D01*
X88756291Y-70663670D01*
X88744242Y-70668661D01*
X88744241Y-70668661D01*
X88634426Y-70714147D01*
X88634424Y-70714148D01*
X88622375Y-70719139D01*
X88612029Y-70727078D01*
X88612027Y-70727079D01*
X88571144Y-70758450D01*
X88490646Y-70795378D01*
X88402098Y-70793722D01*
X88328856Y-70758450D01*
X88287973Y-70727079D01*
X88287971Y-70727078D01*
X88277625Y-70719139D01*
X88265576Y-70714148D01*
X88265574Y-70714147D01*
X88155759Y-70668661D01*
X88155758Y-70668661D01*
X88143709Y-70663670D01*
X88000000Y-70644750D01*
X87856291Y-70663670D01*
X87844242Y-70668661D01*
X87844241Y-70668661D01*
X87734426Y-70714147D01*
X87734424Y-70714148D01*
X87722375Y-70719139D01*
X87607379Y-70807379D01*
X87519139Y-70922375D01*
X87514148Y-70934424D01*
X87514147Y-70934426D01*
X87468661Y-71044241D01*
X87463670Y-71056291D01*
X87444750Y-71200000D01*
X87463670Y-71343709D01*
X87468661Y-71355758D01*
X87468661Y-71355759D01*
X87501326Y-71434619D01*
X87519139Y-71477625D01*
X87527078Y-71487971D01*
X87527079Y-71487973D01*
X87533376Y-71496179D01*
X87570304Y-71576676D01*
X87574500Y-71617324D01*
X87574500Y-82834993D01*
X87579341Y-82849892D01*
X87580137Y-82852343D01*
X87587425Y-82882699D01*
X87587830Y-82885256D01*
X87587832Y-82885261D01*
X87590281Y-82900726D01*
X87597390Y-82914677D01*
X87597390Y-82914679D01*
X87598565Y-82916985D01*
X87610512Y-82945828D01*
X87611309Y-82948281D01*
X87611311Y-82948284D01*
X87616151Y-82963181D01*
X87625358Y-82975853D01*
X87626870Y-82977934D01*
X87643187Y-83004561D01*
X87651472Y-83020820D01*
X88329433Y-83698781D01*
X88376552Y-83773769D01*
X88386016Y-83813519D01*
X88387366Y-83823776D01*
X88387369Y-83823786D01*
X88389070Y-83836709D01*
X88444539Y-83970625D01*
X88532779Y-84085621D01*
X88647775Y-84173861D01*
X88659824Y-84178852D01*
X88659826Y-84178853D01*
X88769641Y-84224339D01*
X88781691Y-84229330D01*
X88925400Y-84248250D01*
X88938621Y-84246509D01*
X88939023Y-84246547D01*
X88951375Y-84246547D01*
X88951375Y-84247705D01*
X89026795Y-84254776D01*
X89102652Y-84300482D01*
X89151166Y-84374576D01*
X89161894Y-84469781D01*
X89144750Y-84600000D01*
X89163670Y-84743709D01*
X89168661Y-84755758D01*
X89168661Y-84755759D01*
X89213447Y-84863882D01*
X89219139Y-84877625D01*
X89227078Y-84887971D01*
X89227079Y-84887973D01*
X89297200Y-84979356D01*
X89334128Y-85059854D01*
X89332472Y-85148402D01*
X89292560Y-85227462D01*
X89222298Y-85281376D01*
X89139323Y-85299500D01*
X87983520Y-85299500D01*
X87897177Y-85279793D01*
X87827936Y-85224574D01*
X87789509Y-85144782D01*
X87786223Y-85074525D01*
X87787970Y-85061260D01*
X87804250Y-84937600D01*
X87785330Y-84793891D01*
X87780339Y-84781841D01*
X87734853Y-84672026D01*
X87734852Y-84672024D01*
X87729861Y-84659975D01*
X87641621Y-84544979D01*
X87526625Y-84456739D01*
X87514576Y-84451748D01*
X87514574Y-84451747D01*
X87404759Y-84406261D01*
X87404758Y-84406261D01*
X87392709Y-84401270D01*
X87249000Y-84382350D01*
X87105291Y-84401270D01*
X87093242Y-84406261D01*
X87093241Y-84406261D01*
X86983426Y-84451747D01*
X86983424Y-84451748D01*
X86971375Y-84456739D01*
X86961029Y-84464678D01*
X86961027Y-84464679D01*
X86952821Y-84470976D01*
X86872324Y-84507904D01*
X86831676Y-84512100D01*
X80706724Y-84512100D01*
X80620381Y-84492393D01*
X80585579Y-84470976D01*
X80577373Y-84464679D01*
X80577371Y-84464678D01*
X80567025Y-84456739D01*
X80554976Y-84451748D01*
X80554974Y-84451747D01*
X80500067Y-84429005D01*
X80433109Y-84401270D01*
X80431154Y-84401013D01*
X80358595Y-84362664D01*
X80306004Y-84291406D01*
X80289400Y-84211828D01*
X80289400Y-70245900D01*
X80309107Y-70159557D01*
X80364326Y-70090316D01*
X80444118Y-70051889D01*
X80488400Y-70046900D01*
X86831676Y-70046900D01*
X86918019Y-70066607D01*
X86952821Y-70088024D01*
X86961027Y-70094321D01*
X86961029Y-70094322D01*
X86971375Y-70102261D01*
X86983424Y-70107252D01*
X86983426Y-70107253D01*
X87093241Y-70152739D01*
X87105291Y-70157730D01*
X87249000Y-70176650D01*
X87392709Y-70157730D01*
X87404759Y-70152739D01*
X87514574Y-70107253D01*
X87514576Y-70107252D01*
X87526625Y-70102261D01*
X87641621Y-70014021D01*
X87729861Y-69899025D01*
X87744786Y-69862994D01*
X87780339Y-69777159D01*
X87780339Y-69777158D01*
X87785330Y-69765109D01*
X87804250Y-69621400D01*
X87785330Y-69477691D01*
X87785144Y-69477241D01*
X87782109Y-69396102D01*
X87817525Y-69314929D01*
X87884654Y-69257160D01*
X87977639Y-69234100D01*
X88249924Y-69234100D01*
X88336267Y-69253807D01*
G37*
%TD.AperFunction*%
%TA.AperFunction,Conductor*%
G36*
X123862374Y-62665892D02*
G01*
X123879014Y-62680762D01*
X124640380Y-63442128D01*
X124656639Y-63450413D01*
X124683262Y-63466727D01*
X124698019Y-63477449D01*
X124712916Y-63482289D01*
X124712919Y-63482291D01*
X124715372Y-63483088D01*
X124744215Y-63495035D01*
X124746521Y-63496210D01*
X124746523Y-63496210D01*
X124760474Y-63503319D01*
X124775939Y-63505768D01*
X124775944Y-63505770D01*
X124778501Y-63506175D01*
X124808857Y-63513463D01*
X124811061Y-63514179D01*
X124826207Y-63519100D01*
X131332476Y-63519100D01*
X131418819Y-63538807D01*
X131453621Y-63560224D01*
X131461827Y-63566521D01*
X131461829Y-63566522D01*
X131472175Y-63574461D01*
X131484224Y-63579452D01*
X131484226Y-63579453D01*
X131594041Y-63624939D01*
X131606091Y-63629930D01*
X131736865Y-63647147D01*
X131749800Y-63648850D01*
X131749800Y-71362976D01*
X131739643Y-71360537D01*
X131737192Y-71359741D01*
X131722293Y-71354900D01*
X125258324Y-71354900D01*
X125171981Y-71335193D01*
X125137179Y-71313776D01*
X125128973Y-71307479D01*
X125128971Y-71307478D01*
X125118625Y-71299539D01*
X125106576Y-71294548D01*
X125106574Y-71294547D01*
X124996759Y-71249061D01*
X124996758Y-71249061D01*
X124984709Y-71244070D01*
X124841000Y-71225150D01*
X124697291Y-71244070D01*
X124685242Y-71249061D01*
X124685241Y-71249061D01*
X124575426Y-71294547D01*
X124575424Y-71294548D01*
X124563375Y-71299539D01*
X124448379Y-71387779D01*
X124360139Y-71502775D01*
X124355148Y-71514824D01*
X124355147Y-71514826D01*
X124319377Y-71601185D01*
X124304670Y-71636691D01*
X124285750Y-71780400D01*
X124304670Y-71924109D01*
X124309661Y-71936158D01*
X124309661Y-71936159D01*
X124327747Y-71979822D01*
X124360139Y-72058025D01*
X124448379Y-72173021D01*
X124563375Y-72261261D01*
X124575424Y-72266252D01*
X124575426Y-72266253D01*
X124685241Y-72311739D01*
X124697291Y-72316730D01*
X124841000Y-72335650D01*
X124984709Y-72316730D01*
X124996759Y-72311739D01*
X125106574Y-72266253D01*
X125106576Y-72266252D01*
X125118625Y-72261261D01*
X125128971Y-72253322D01*
X125128973Y-72253321D01*
X125137179Y-72247024D01*
X125217676Y-72210096D01*
X125258324Y-72205900D01*
X131289541Y-72205900D01*
X131375884Y-72225607D01*
X131445125Y-72280826D01*
X131473392Y-72328744D01*
X131474836Y-72332230D01*
X131489672Y-72419542D01*
X131465156Y-72504644D01*
X131406143Y-72570681D01*
X131316964Y-72605682D01*
X131256291Y-72613670D01*
X131244242Y-72618661D01*
X131244241Y-72618661D01*
X131134426Y-72664147D01*
X131134424Y-72664148D01*
X131122375Y-72669139D01*
X131007379Y-72757379D01*
X130919139Y-72872375D01*
X130863670Y-73006291D01*
X130861969Y-73019214D01*
X130861966Y-73019224D01*
X130860616Y-73029481D01*
X130829807Y-73112512D01*
X130804033Y-73144219D01*
X130746638Y-73201614D01*
X130671650Y-73248733D01*
X130605924Y-73259900D01*
X125283724Y-73259900D01*
X125197381Y-73240193D01*
X125162579Y-73218776D01*
X125154373Y-73212479D01*
X125154371Y-73212478D01*
X125144025Y-73204539D01*
X125131976Y-73199548D01*
X125131974Y-73199547D01*
X125022159Y-73154061D01*
X125022158Y-73154061D01*
X125010109Y-73149070D01*
X124866400Y-73130150D01*
X124722691Y-73149070D01*
X124710642Y-73154061D01*
X124710641Y-73154061D01*
X124600826Y-73199547D01*
X124600824Y-73199548D01*
X124588775Y-73204539D01*
X124473779Y-73292779D01*
X124385539Y-73407775D01*
X124380548Y-73419824D01*
X124380547Y-73419826D01*
X124335061Y-73529641D01*
X124330070Y-73541691D01*
X124311150Y-73685400D01*
X124330070Y-73829109D01*
X124335061Y-73841158D01*
X124335061Y-73841159D01*
X124379666Y-73948845D01*
X124385539Y-73963025D01*
X124473779Y-74078021D01*
X124588775Y-74166261D01*
X124600824Y-74171252D01*
X124600826Y-74171253D01*
X124680229Y-74204142D01*
X124722691Y-74221730D01*
X124866400Y-74240650D01*
X125010109Y-74221730D01*
X125052571Y-74204142D01*
X125131974Y-74171253D01*
X125131976Y-74171252D01*
X125144025Y-74166261D01*
X125154371Y-74158322D01*
X125154373Y-74158321D01*
X125162579Y-74152024D01*
X125243076Y-74115096D01*
X125283724Y-74110900D01*
X130931993Y-74110900D01*
X130947139Y-74105979D01*
X130949343Y-74105263D01*
X130979699Y-74097975D01*
X130982256Y-74097570D01*
X130982261Y-74097568D01*
X130997726Y-74095119D01*
X131011677Y-74088010D01*
X131011679Y-74088010D01*
X131013985Y-74086835D01*
X131042828Y-74074888D01*
X131045281Y-74074091D01*
X131045284Y-74074089D01*
X131060181Y-74069249D01*
X131074938Y-74058527D01*
X131101561Y-74042213D01*
X131117820Y-74033928D01*
X131405781Y-73745967D01*
X131480769Y-73698848D01*
X131520519Y-73689384D01*
X131530776Y-73688034D01*
X131530786Y-73688031D01*
X131543709Y-73686330D01*
X131623784Y-73653162D01*
X131665574Y-73635853D01*
X131665576Y-73635852D01*
X131677625Y-73630861D01*
X131745802Y-73578547D01*
X131749800Y-73575479D01*
X131749800Y-77257889D01*
X131738966Y-77256463D01*
X131655935Y-77225654D01*
X131624227Y-77199879D01*
X131114020Y-76689672D01*
X131097761Y-76681387D01*
X131071138Y-76665073D01*
X131056381Y-76654351D01*
X131041484Y-76649511D01*
X131041481Y-76649509D01*
X131039028Y-76648712D01*
X131010185Y-76636765D01*
X131007879Y-76635590D01*
X131007877Y-76635590D01*
X130993926Y-76628481D01*
X130978461Y-76626032D01*
X130978456Y-76626030D01*
X130975899Y-76625625D01*
X130945543Y-76618337D01*
X130943092Y-76617541D01*
X130928193Y-76612700D01*
X125334524Y-76612700D01*
X125248181Y-76592993D01*
X125213379Y-76571576D01*
X125205173Y-76565279D01*
X125205171Y-76565278D01*
X125194825Y-76557339D01*
X125182776Y-76552348D01*
X125182774Y-76552347D01*
X125072959Y-76506861D01*
X125072958Y-76506861D01*
X125060909Y-76501870D01*
X124917200Y-76482950D01*
X124773491Y-76501870D01*
X124761442Y-76506861D01*
X124761441Y-76506861D01*
X124651626Y-76552347D01*
X124651624Y-76552348D01*
X124639575Y-76557339D01*
X124524579Y-76645579D01*
X124436339Y-76760575D01*
X124431348Y-76772624D01*
X124431347Y-76772626D01*
X124398174Y-76852714D01*
X124380870Y-76894491D01*
X124361950Y-77038200D01*
X124380870Y-77181909D01*
X124385861Y-77193958D01*
X124385861Y-77193959D01*
X124416688Y-77268382D01*
X124436339Y-77315825D01*
X124524579Y-77430821D01*
X124639575Y-77519061D01*
X124651627Y-77524053D01*
X124662920Y-77530573D01*
X124661765Y-77532574D01*
X124719361Y-77573446D01*
X124762196Y-77650961D01*
X124767156Y-77739385D01*
X124733260Y-77821205D01*
X124667220Y-77880215D01*
X124647135Y-77889887D01*
X124614175Y-77903539D01*
X124499179Y-77991779D01*
X124410939Y-78106775D01*
X124405948Y-78118824D01*
X124405947Y-78118826D01*
X124387082Y-78164372D01*
X124355470Y-78240691D01*
X124336550Y-78384400D01*
X124355470Y-78528109D01*
X124360461Y-78540158D01*
X124360461Y-78540159D01*
X124402578Y-78641839D01*
X124410939Y-78662025D01*
X124499179Y-78777021D01*
X124614175Y-78865261D01*
X124626224Y-78870252D01*
X124626226Y-78870253D01*
X124704895Y-78902838D01*
X124748091Y-78920730D01*
X124891800Y-78939650D01*
X125035509Y-78920730D01*
X125078705Y-78902838D01*
X125157374Y-78870253D01*
X125157376Y-78870252D01*
X125169425Y-78865261D01*
X125179771Y-78857322D01*
X125179773Y-78857321D01*
X125187979Y-78851024D01*
X125268476Y-78814096D01*
X125309124Y-78809900D01*
X130906924Y-78809900D01*
X130993267Y-78829607D01*
X131047638Y-78868186D01*
X131056884Y-78877432D01*
X131104003Y-78952420D01*
X131107807Y-78968390D01*
X131108592Y-78968180D01*
X131111967Y-78980776D01*
X131113670Y-78993709D01*
X131139592Y-79056291D01*
X131157697Y-79100000D01*
X131169139Y-79127625D01*
X131177077Y-79137970D01*
X131177081Y-79137977D01*
X131215586Y-79188157D01*
X131252514Y-79268654D01*
X131250858Y-79357202D01*
X131210946Y-79436262D01*
X131140684Y-79490176D01*
X131057709Y-79508300D01*
X122492476Y-79508300D01*
X122406133Y-79488593D01*
X122351762Y-79450014D01*
X121587582Y-78685834D01*
X121540463Y-78610846D01*
X121530547Y-78522839D01*
X121559798Y-78439246D01*
X121622422Y-78376622D01*
X121706015Y-78347371D01*
X121794022Y-78357287D01*
X121804449Y-78361268D01*
X121914271Y-78406757D01*
X121928691Y-78412730D01*
X122072400Y-78431650D01*
X122216109Y-78412730D01*
X122228159Y-78407739D01*
X122337974Y-78362253D01*
X122337976Y-78362252D01*
X122350025Y-78357261D01*
X122465021Y-78269021D01*
X122553261Y-78154025D01*
X122560591Y-78136330D01*
X122603739Y-78032159D01*
X122603740Y-78032157D01*
X122608730Y-78020109D01*
X122627650Y-77876400D01*
X122608730Y-77732691D01*
X122600171Y-77712028D01*
X122558253Y-77610826D01*
X122558252Y-77610824D01*
X122553261Y-77598775D01*
X122465021Y-77483779D01*
X122350025Y-77395539D01*
X122337976Y-77390548D01*
X122337974Y-77390547D01*
X122241432Y-77350559D01*
X122216109Y-77340070D01*
X122203182Y-77338368D01*
X122197767Y-77336917D01*
X122119468Y-77295533D01*
X122108561Y-77285413D01*
X121709738Y-76886590D01*
X121662619Y-76811602D01*
X121652703Y-76723595D01*
X121681954Y-76640002D01*
X121744578Y-76577378D01*
X121828171Y-76548127D01*
X121916178Y-76558043D01*
X121926586Y-76562016D01*
X121979491Y-76583930D01*
X122123200Y-76602850D01*
X122266909Y-76583930D01*
X122278959Y-76578939D01*
X122388774Y-76533453D01*
X122388776Y-76533452D01*
X122400825Y-76528461D01*
X122515821Y-76440221D01*
X122604061Y-76325225D01*
X122609803Y-76311364D01*
X122654539Y-76203359D01*
X122654539Y-76203358D01*
X122659530Y-76191309D01*
X122678450Y-76047600D01*
X122659530Y-75903891D01*
X122619554Y-75807379D01*
X122609053Y-75782026D01*
X122609052Y-75782024D01*
X122604061Y-75769975D01*
X122515821Y-75654979D01*
X122400825Y-75566739D01*
X122388776Y-75561748D01*
X122388774Y-75561747D01*
X122323347Y-75534647D01*
X122251118Y-75483399D01*
X122208278Y-75405886D01*
X122200500Y-75350795D01*
X122200500Y-73770527D01*
X122220207Y-73684184D01*
X122275426Y-73614943D01*
X122355218Y-73576516D01*
X122425472Y-73573229D01*
X122478800Y-73580250D01*
X122622509Y-73561330D01*
X122638704Y-73554622D01*
X122744374Y-73510853D01*
X122744376Y-73510852D01*
X122756425Y-73505861D01*
X122871421Y-73417621D01*
X122959661Y-73302625D01*
X122967028Y-73284841D01*
X123010139Y-73180759D01*
X123010139Y-73180758D01*
X123015130Y-73168709D01*
X123034050Y-73025000D01*
X123015130Y-72881291D01*
X123009771Y-72868352D01*
X122964653Y-72759426D01*
X122964652Y-72759424D01*
X122959661Y-72747375D01*
X122945424Y-72728821D01*
X122908496Y-72648324D01*
X122904300Y-72607676D01*
X122904300Y-71415347D01*
X122924007Y-71329004D01*
X122979226Y-71259763D01*
X123059018Y-71221336D01*
X123101988Y-71216495D01*
X123113800Y-71218050D01*
X123257509Y-71199130D01*
X123286637Y-71187065D01*
X123379374Y-71148653D01*
X123379376Y-71148652D01*
X123391425Y-71143661D01*
X123506421Y-71055421D01*
X123594661Y-70940425D01*
X123602138Y-70922375D01*
X123645139Y-70818559D01*
X123645139Y-70818558D01*
X123650130Y-70806509D01*
X123669050Y-70662800D01*
X123650130Y-70519091D01*
X123620234Y-70446914D01*
X123599653Y-70397226D01*
X123599652Y-70397224D01*
X123594661Y-70385175D01*
X123580424Y-70366621D01*
X123543496Y-70286124D01*
X123539300Y-70245476D01*
X123539300Y-62821476D01*
X123559007Y-62735133D01*
X123614226Y-62665892D01*
X123694018Y-62627465D01*
X123782582Y-62627465D01*
X123862374Y-62665892D01*
G37*
%TD.AperFunction*%
%TA.AperFunction,Conductor*%
G36*
X93032063Y-46320207D02*
G01*
X93101304Y-46375426D01*
X93139731Y-46455218D01*
X93139731Y-46543782D01*
X93101304Y-46623574D01*
X93063813Y-46659672D01*
X92934638Y-46754908D01*
X92931023Y-46758163D01*
X92931018Y-46758167D01*
X92640178Y-47020041D01*
X92636563Y-47023296D01*
X92633284Y-47026887D01*
X92633283Y-47026888D01*
X92414969Y-47265973D01*
X92366100Y-47319491D01*
X92363194Y-47323376D01*
X92363192Y-47323378D01*
X92136424Y-47626506D01*
X92125832Y-47640664D01*
X92123315Y-47644821D01*
X92123307Y-47644832D01*
X91996574Y-47854094D01*
X91918051Y-47983751D01*
X91744742Y-48345476D01*
X91607557Y-48722387D01*
X91507808Y-49110886D01*
X91507064Y-49115689D01*
X91507063Y-49115696D01*
X91497464Y-49177702D01*
X91446445Y-49507264D01*
X91424055Y-49907739D01*
X91422945Y-49907677D01*
X91404033Y-49987982D01*
X91348339Y-50056842D01*
X91268284Y-50094718D01*
X91179723Y-50094108D01*
X91100196Y-50055133D01*
X91084625Y-50041121D01*
X90616786Y-49573283D01*
X90569667Y-49498295D01*
X90558500Y-49432569D01*
X90558500Y-48106954D01*
X90557805Y-48101112D01*
X90557147Y-48095581D01*
X90557146Y-48095578D01*
X90555382Y-48080754D01*
X90536238Y-48037654D01*
X90517398Y-47995239D01*
X90517397Y-47995238D01*
X90509939Y-47978447D01*
X90459143Y-47927739D01*
X90443717Y-47912340D01*
X90443716Y-47912339D01*
X90430713Y-47899359D01*
X90348526Y-47863024D01*
X90342012Y-47860144D01*
X90342011Y-47860144D01*
X90328327Y-47854094D01*
X90313467Y-47852362D01*
X90313465Y-47852361D01*
X90308388Y-47851769D01*
X90308381Y-47851769D01*
X90302646Y-47851100D01*
X88513354Y-47851100D01*
X88507516Y-47851795D01*
X88507512Y-47851795D01*
X88501981Y-47852453D01*
X88501978Y-47852454D01*
X88487154Y-47854218D01*
X88473507Y-47860280D01*
X88473506Y-47860280D01*
X88401639Y-47892202D01*
X88401638Y-47892203D01*
X88384847Y-47899661D01*
X88371867Y-47912664D01*
X88319156Y-47965467D01*
X88305759Y-47978887D01*
X88260494Y-48081273D01*
X88257500Y-48106954D01*
X88257500Y-49896246D01*
X88260618Y-49922446D01*
X88266680Y-49936093D01*
X88266680Y-49936094D01*
X88278782Y-49963338D01*
X88306061Y-50024753D01*
X88385287Y-50103841D01*
X88487673Y-50149106D01*
X88502533Y-50150838D01*
X88502535Y-50150839D01*
X88507612Y-50151431D01*
X88507619Y-50151431D01*
X88513354Y-50152100D01*
X88769504Y-50152100D01*
X88855847Y-50171807D01*
X88925088Y-50227026D01*
X88963515Y-50306818D01*
X88963515Y-50395382D01*
X88925088Y-50475174D01*
X88871251Y-50522122D01*
X88728856Y-50606838D01*
X88721997Y-50612853D01*
X88721993Y-50612856D01*
X88576742Y-50740238D01*
X88569881Y-50746255D01*
X88564231Y-50753422D01*
X88564230Y-50753423D01*
X88533561Y-50792327D01*
X88438976Y-50912308D01*
X88434726Y-50920386D01*
X88363050Y-51056620D01*
X88340523Y-51099436D01*
X88337816Y-51108152D01*
X88337815Y-51108156D01*
X88326155Y-51145707D01*
X88277820Y-51301373D01*
X88276748Y-51310430D01*
X88255635Y-51488815D01*
X88252967Y-51511354D01*
X88256451Y-51564509D01*
X88265188Y-51697810D01*
X88266796Y-51722349D01*
X88269040Y-51731186D01*
X88269041Y-51731190D01*
X88314105Y-51908625D01*
X88318845Y-51927290D01*
X88407369Y-52119314D01*
X88412632Y-52126761D01*
X88524137Y-52284538D01*
X88524141Y-52284543D01*
X88529405Y-52291991D01*
X88680865Y-52439537D01*
X88733191Y-52474500D01*
X88813157Y-52527932D01*
X88873999Y-52592287D01*
X88900894Y-52676668D01*
X88888513Y-52764362D01*
X88839310Y-52838000D01*
X88794486Y-52869909D01*
X88689122Y-52924758D01*
X88675340Y-52933437D01*
X88509827Y-53057708D01*
X88497657Y-53068513D01*
X88354658Y-53218153D01*
X88344418Y-53230799D01*
X88227782Y-53401780D01*
X88219741Y-53415935D01*
X88132597Y-53603671D01*
X88126976Y-53618950D01*
X88072793Y-53814326D01*
X88074012Y-53824628D01*
X88076207Y-53825990D01*
X88085843Y-53827600D01*
X90722036Y-53827600D01*
X90742239Y-53822989D01*
X90755553Y-53812371D01*
X90787301Y-53772561D01*
X90867095Y-53734137D01*
X90955658Y-53734138D01*
X91035450Y-53772566D01*
X91052079Y-53787427D01*
X96567871Y-59303218D01*
X96567872Y-59303220D01*
X96663180Y-59398528D01*
X96677134Y-59405638D01*
X96679438Y-59406812D01*
X96706062Y-59423128D01*
X96720819Y-59433849D01*
X96735716Y-59438689D01*
X96735719Y-59438691D01*
X96738172Y-59439488D01*
X96767015Y-59451435D01*
X96769321Y-59452610D01*
X96769323Y-59452610D01*
X96783274Y-59459719D01*
X96798739Y-59462168D01*
X96798744Y-59462170D01*
X96801301Y-59462575D01*
X96831657Y-59469863D01*
X96833861Y-59470579D01*
X96849007Y-59475500D01*
X97532676Y-59475500D01*
X97619019Y-59495207D01*
X97653821Y-59516624D01*
X97662027Y-59522921D01*
X97662029Y-59522922D01*
X97672375Y-59530861D01*
X97684424Y-59535852D01*
X97684426Y-59535853D01*
X97732038Y-59555574D01*
X97806291Y-59586330D01*
X97950000Y-59605250D01*
X98093709Y-59586330D01*
X98167962Y-59555574D01*
X98215574Y-59535853D01*
X98215576Y-59535852D01*
X98227625Y-59530861D01*
X98342621Y-59442621D01*
X98430861Y-59327625D01*
X98457204Y-59264028D01*
X98481339Y-59205759D01*
X98481339Y-59205758D01*
X98486330Y-59193709D01*
X98505250Y-59050000D01*
X98486330Y-58906291D01*
X98481339Y-58894241D01*
X98435853Y-58784426D01*
X98435852Y-58784424D01*
X98430861Y-58772375D01*
X98342621Y-58657379D01*
X98227625Y-58569139D01*
X98215576Y-58564148D01*
X98215574Y-58564147D01*
X98105759Y-58518661D01*
X98105758Y-58518661D01*
X98093709Y-58513670D01*
X97950000Y-58494750D01*
X97806291Y-58513670D01*
X97794242Y-58518661D01*
X97794241Y-58518661D01*
X97684426Y-58564147D01*
X97684424Y-58564148D01*
X97672375Y-58569139D01*
X97662029Y-58577078D01*
X97662027Y-58577079D01*
X97653821Y-58583376D01*
X97573324Y-58620304D01*
X97532676Y-58624500D01*
X97175075Y-58624500D01*
X97088732Y-58604793D01*
X97034361Y-58566214D01*
X93995361Y-55527214D01*
X93948242Y-55452226D01*
X93938326Y-55364219D01*
X93967577Y-55280626D01*
X94030201Y-55218002D01*
X94113794Y-55188751D01*
X94136075Y-55187500D01*
X98117969Y-55187500D01*
X98204312Y-55207207D01*
X98258683Y-55245786D01*
X101538044Y-58525147D01*
X101585163Y-58600135D01*
X101595079Y-58688142D01*
X101581184Y-58742007D01*
X101563670Y-58784291D01*
X101544750Y-58928000D01*
X101563670Y-59071709D01*
X101568661Y-59083758D01*
X101568661Y-59083759D01*
X101584623Y-59122295D01*
X101619139Y-59205625D01*
X101623778Y-59211671D01*
X101648944Y-59293258D01*
X101649500Y-59308128D01*
X101649500Y-64098113D01*
X101648121Y-64121502D01*
X101644636Y-64150948D01*
X101647309Y-64165584D01*
X101654970Y-64207533D01*
X101655996Y-64213697D01*
X101664551Y-64270600D01*
X101667679Y-64277113D01*
X101668975Y-64284211D01*
X101675830Y-64297408D01*
X101675832Y-64297413D01*
X101695487Y-64335251D01*
X101698253Y-64340785D01*
X101723191Y-64392717D01*
X101728094Y-64398021D01*
X101731421Y-64404426D01*
X101735725Y-64409466D01*
X101771943Y-64445684D01*
X101777360Y-64451317D01*
X101805050Y-64481273D01*
X101805053Y-64481275D01*
X101815146Y-64492194D01*
X101822295Y-64496346D01*
X101825274Y-64499015D01*
X102759605Y-65433346D01*
X102806724Y-65508334D01*
X102810311Y-65523416D01*
X102811192Y-65523180D01*
X102814567Y-65535776D01*
X102816270Y-65548709D01*
X102835089Y-65594143D01*
X102866133Y-65669090D01*
X102871739Y-65682625D01*
X102959979Y-65797621D01*
X103074975Y-65885861D01*
X103087024Y-65890852D01*
X103087026Y-65890853D01*
X103196841Y-65936339D01*
X103208891Y-65941330D01*
X103352600Y-65960250D01*
X103496309Y-65941330D01*
X103508359Y-65936339D01*
X103618174Y-65890853D01*
X103618176Y-65890852D01*
X103630225Y-65885861D01*
X103704356Y-65828978D01*
X103784853Y-65792050D01*
X103873401Y-65793706D01*
X103952462Y-65833617D01*
X104006376Y-65903879D01*
X104024500Y-65986855D01*
X104024500Y-66309524D01*
X104004793Y-66395867D01*
X103966214Y-66450238D01*
X103296019Y-67120433D01*
X103221031Y-67167552D01*
X103181281Y-67177016D01*
X103171024Y-67178366D01*
X103171014Y-67178369D01*
X103158091Y-67180070D01*
X103078016Y-67213238D01*
X103036226Y-67230547D01*
X103036224Y-67230548D01*
X103024175Y-67235539D01*
X102944447Y-67296717D01*
X102863950Y-67333645D01*
X102775402Y-67331989D01*
X102696342Y-67292078D01*
X102685501Y-67282206D01*
X102678421Y-67272979D01*
X102563425Y-67184739D01*
X102551376Y-67179748D01*
X102551374Y-67179747D01*
X102441559Y-67134261D01*
X102441558Y-67134261D01*
X102429509Y-67129270D01*
X102285800Y-67110350D01*
X102142091Y-67129270D01*
X102130042Y-67134261D01*
X102130041Y-67134261D01*
X102020226Y-67179747D01*
X102020224Y-67179748D01*
X102008175Y-67184739D01*
X101893179Y-67272979D01*
X101804939Y-67387975D01*
X101799948Y-67400024D01*
X101799947Y-67400026D01*
X101772641Y-67465950D01*
X101749470Y-67521891D01*
X101730550Y-67665600D01*
X101728395Y-67665316D01*
X101712546Y-67734754D01*
X101657327Y-67803995D01*
X101577535Y-67842422D01*
X101525975Y-67844834D01*
X101525975Y-67846453D01*
X101512935Y-67846453D01*
X101500000Y-67844750D01*
X101356291Y-67863670D01*
X101344242Y-67868661D01*
X101344241Y-67868661D01*
X101234426Y-67914147D01*
X101234424Y-67914148D01*
X101222375Y-67919139D01*
X101107379Y-68007379D01*
X101019139Y-68122375D01*
X101014148Y-68134424D01*
X101014147Y-68134426D01*
X100985432Y-68203751D01*
X100963670Y-68256291D01*
X100944750Y-68400000D01*
X100963670Y-68543709D01*
X100968661Y-68555758D01*
X100968661Y-68555759D01*
X100999744Y-68630800D01*
X101019139Y-68677625D01*
X101027078Y-68687971D01*
X101027079Y-68687973D01*
X101033376Y-68696179D01*
X101070304Y-68776676D01*
X101074500Y-68817324D01*
X101074500Y-71519193D01*
X101079341Y-71534092D01*
X101080137Y-71536543D01*
X101087425Y-71566899D01*
X101087830Y-71569456D01*
X101087832Y-71569461D01*
X101090281Y-71584926D01*
X101097390Y-71598877D01*
X101097390Y-71598879D01*
X101098565Y-71601185D01*
X101110512Y-71630028D01*
X101111309Y-71632481D01*
X101111311Y-71632484D01*
X101116151Y-71647381D01*
X101125358Y-71660053D01*
X101126870Y-71662134D01*
X101143187Y-71688761D01*
X101151472Y-71705020D01*
X102110383Y-72663931D01*
X102157502Y-72738919D01*
X102167418Y-72826926D01*
X102163648Y-72846296D01*
X102161087Y-72852214D01*
X102140618Y-73001647D01*
X102142459Y-73015087D01*
X102142459Y-73015090D01*
X102148818Y-73061515D01*
X102141010Y-73149733D01*
X102095699Y-73225828D01*
X102022118Y-73274555D01*
X102017290Y-73275191D01*
X101980152Y-73290574D01*
X101895425Y-73325668D01*
X101895423Y-73325669D01*
X101883374Y-73330660D01*
X101768378Y-73418900D01*
X101680138Y-73533896D01*
X101675147Y-73545945D01*
X101675146Y-73545947D01*
X101633090Y-73647482D01*
X101624669Y-73667812D01*
X101605749Y-73811521D01*
X101602249Y-73811060D01*
X101587745Y-73874605D01*
X101532526Y-73943846D01*
X101452734Y-73982273D01*
X101364170Y-73982273D01*
X101319501Y-73966275D01*
X101299398Y-73956230D01*
X101277801Y-73948412D01*
X101128251Y-73913197D01*
X101105448Y-73910559D01*
X100951814Y-73910693D01*
X100928997Y-73913374D01*
X100779527Y-73948845D01*
X100757932Y-73956705D01*
X100620014Y-74025919D01*
X100601866Y-74037659D01*
X100532854Y-74093844D01*
X100525319Y-74100647D01*
X100511985Y-74113981D01*
X100501633Y-74130456D01*
X100504261Y-74137967D01*
X102612908Y-76246614D01*
X102629383Y-76256966D01*
X102636894Y-76254338D01*
X102657904Y-76233328D01*
X102664791Y-76225690D01*
X102716539Y-76161961D01*
X102786265Y-76107356D01*
X102872778Y-76088411D01*
X102958944Y-76108879D01*
X103027696Y-76164706D01*
X103036163Y-76177982D01*
X103044363Y-76189268D01*
X103051472Y-76203220D01*
X103804033Y-76955781D01*
X103851152Y-77030769D01*
X103860616Y-77070519D01*
X103861966Y-77080776D01*
X103861969Y-77080786D01*
X103863670Y-77093709D01*
X103894847Y-77168978D01*
X103904493Y-77192265D01*
X103919139Y-77227625D01*
X104007379Y-77342621D01*
X104122375Y-77430861D01*
X104134424Y-77435852D01*
X104134426Y-77435853D01*
X104244241Y-77481339D01*
X104256291Y-77486330D01*
X104400000Y-77505250D01*
X104543709Y-77486330D01*
X104555759Y-77481339D01*
X104665574Y-77435853D01*
X104665576Y-77435852D01*
X104677625Y-77430861D01*
X104712647Y-77403988D01*
X104793143Y-77367059D01*
X104881691Y-77368714D01*
X104960752Y-77408624D01*
X104969125Y-77416249D01*
X104986894Y-77427414D01*
X104994405Y-77424786D01*
X105503578Y-76915613D01*
X105513930Y-76899138D01*
X105511302Y-76891627D01*
X104648577Y-76028902D01*
X104632102Y-76018550D01*
X104624591Y-76021178D01*
X104603581Y-76042188D01*
X104596695Y-76049826D01*
X104539813Y-76119876D01*
X104529089Y-76136508D01*
X104465736Y-76198394D01*
X104381806Y-76226663D01*
X104293921Y-76215717D01*
X104221129Y-76169381D01*
X103883786Y-75832038D01*
X103836667Y-75757050D01*
X103825500Y-75691324D01*
X103825500Y-74983129D01*
X103819863Y-74965779D01*
X103812575Y-74935423D01*
X103812170Y-74932866D01*
X103812168Y-74932861D01*
X103809719Y-74917396D01*
X103801435Y-74901137D01*
X103789488Y-74872294D01*
X103783850Y-74854943D01*
X103786121Y-74854205D01*
X103769760Y-74789272D01*
X103787527Y-74702509D01*
X103841179Y-74632047D01*
X103906477Y-74597724D01*
X103906386Y-74597513D01*
X103907865Y-74596873D01*
X103981332Y-74565081D01*
X103997446Y-74558108D01*
X104084514Y-74541903D01*
X104169991Y-74565081D01*
X104209920Y-74594643D01*
X104211631Y-74596873D01*
X104326627Y-74685113D01*
X104338676Y-74690104D01*
X104338678Y-74690105D01*
X104368625Y-74702509D01*
X104460543Y-74740582D01*
X104473466Y-74742283D01*
X104473476Y-74742286D01*
X104483733Y-74743636D01*
X104566764Y-74774445D01*
X104598471Y-74800219D01*
X105086356Y-75288104D01*
X105133475Y-75363092D01*
X105143391Y-75451099D01*
X105114140Y-75534692D01*
X105071280Y-75583142D01*
X105028661Y-75617839D01*
X105021120Y-75624647D01*
X105007786Y-75637981D01*
X104997434Y-75654456D01*
X105000062Y-75661967D01*
X105862788Y-76524693D01*
X105879263Y-76535045D01*
X105886774Y-76532417D01*
X106060708Y-76358483D01*
X106135696Y-76311364D01*
X106175446Y-76301900D01*
X106200195Y-76298642D01*
X106293709Y-76286330D01*
X106321261Y-76274918D01*
X106408571Y-76260083D01*
X106493673Y-76284601D01*
X106559710Y-76343614D01*
X106593601Y-76425436D01*
X106588636Y-76513860D01*
X106545796Y-76591373D01*
X106538127Y-76599484D01*
X105361340Y-77776271D01*
X105350316Y-77793816D01*
X105347052Y-77822781D01*
X105317801Y-77906374D01*
X105255178Y-77968998D01*
X105171584Y-77998249D01*
X105149303Y-77999500D01*
X103019031Y-77999500D01*
X102932688Y-77979793D01*
X102878317Y-77941214D01*
X102019013Y-77081910D01*
X101971894Y-77006922D01*
X101961978Y-76918915D01*
X101991229Y-76835322D01*
X102053853Y-76772698D01*
X102070468Y-76763337D01*
X102145674Y-76725595D01*
X102163818Y-76713857D01*
X102232830Y-76657672D01*
X102240365Y-76650869D01*
X102253699Y-76637535D01*
X102264051Y-76621060D01*
X102261423Y-76613549D01*
X100152776Y-74504902D01*
X100136301Y-74494550D01*
X100128790Y-74497178D01*
X100107780Y-74518188D01*
X100100894Y-74525826D01*
X100044014Y-74595874D01*
X100032283Y-74614067D01*
X99995426Y-74687830D01*
X99939204Y-74756258D01*
X99858859Y-74793517D01*
X99770305Y-74792225D01*
X99691082Y-74752639D01*
X99676698Y-74739595D01*
X99421902Y-74484799D01*
X99406339Y-74467286D01*
X99397191Y-74455681D01*
X99397188Y-74455678D01*
X99387980Y-74443998D01*
X99340661Y-74411294D01*
X99335577Y-74407661D01*
X99301260Y-74382314D01*
X99289292Y-74373474D01*
X99282476Y-74371081D01*
X99276539Y-74366977D01*
X99221696Y-74349632D01*
X99215768Y-74347654D01*
X99175513Y-74333518D01*
X99161477Y-74328589D01*
X99154263Y-74328306D01*
X99147378Y-74326128D01*
X99140771Y-74325608D01*
X99089533Y-74325608D01*
X99081722Y-74325455D01*
X99026114Y-74323270D01*
X99018124Y-74325388D01*
X99014135Y-74325608D01*
X96444436Y-74325608D01*
X96358093Y-74305901D01*
X96350782Y-74302037D01*
X96341933Y-74295247D01*
X96208017Y-74239778D01*
X96064308Y-74220858D01*
X95920599Y-74239778D01*
X95908550Y-74244769D01*
X95908549Y-74244769D01*
X95798734Y-74290255D01*
X95798732Y-74290256D01*
X95786683Y-74295247D01*
X95743600Y-74328306D01*
X95716244Y-74349297D01*
X95635747Y-74386225D01*
X95547199Y-74384569D01*
X95468138Y-74344657D01*
X95414224Y-74274396D01*
X95396100Y-74191420D01*
X95396100Y-72527924D01*
X95415807Y-72441581D01*
X95437224Y-72406779D01*
X95443521Y-72398573D01*
X95443522Y-72398571D01*
X95451461Y-72388225D01*
X95473944Y-72333947D01*
X95501939Y-72266359D01*
X95501939Y-72266358D01*
X95506930Y-72254309D01*
X95525850Y-72110600D01*
X95506930Y-71966891D01*
X95494201Y-71936159D01*
X95456453Y-71845026D01*
X95456452Y-71845024D01*
X95451461Y-71832975D01*
X95363221Y-71717979D01*
X95248225Y-71629739D01*
X95236176Y-71624748D01*
X95236174Y-71624747D01*
X95126359Y-71579261D01*
X95126358Y-71579261D01*
X95114309Y-71574270D01*
X94970600Y-71555350D01*
X94826891Y-71574270D01*
X94814842Y-71579261D01*
X94814841Y-71579261D01*
X94800653Y-71585138D01*
X94713341Y-71599973D01*
X94628239Y-71575455D01*
X94562203Y-71516441D01*
X94528312Y-71434619D01*
X94525500Y-71401286D01*
X94525500Y-67658676D01*
X94545207Y-67572333D01*
X94583786Y-67517962D01*
X95305781Y-66795967D01*
X95380769Y-66748848D01*
X95420519Y-66739384D01*
X95430776Y-66738034D01*
X95430786Y-66738031D01*
X95443709Y-66736330D01*
X95528217Y-66701326D01*
X95565574Y-66685853D01*
X95565576Y-66685852D01*
X95577625Y-66680861D01*
X95692621Y-66592621D01*
X95780861Y-66477625D01*
X95816348Y-66391952D01*
X95831339Y-66355759D01*
X95831339Y-66355758D01*
X95836330Y-66343709D01*
X95855250Y-66200000D01*
X95836330Y-66056291D01*
X95780861Y-65922375D01*
X95779147Y-65920141D01*
X95754812Y-65841244D01*
X95768014Y-65753671D01*
X95817904Y-65680497D01*
X95894603Y-65636217D01*
X95960625Y-65630648D01*
X95960625Y-65628347D01*
X95973665Y-65628347D01*
X95986600Y-65630050D01*
X96130309Y-65611130D01*
X96142359Y-65606139D01*
X96252174Y-65560653D01*
X96252176Y-65560652D01*
X96264225Y-65555661D01*
X96379221Y-65467421D01*
X96467461Y-65352425D01*
X96481835Y-65317724D01*
X96517939Y-65230559D01*
X96517939Y-65230558D01*
X96522930Y-65218509D01*
X96541850Y-65074800D01*
X96522930Y-64931091D01*
X96513982Y-64909488D01*
X96472453Y-64809226D01*
X96472452Y-64809224D01*
X96467461Y-64797175D01*
X96379221Y-64682179D01*
X96264225Y-64593939D01*
X96252176Y-64588948D01*
X96252174Y-64588947D01*
X96142366Y-64543464D01*
X96142365Y-64543464D01*
X96130309Y-64538470D01*
X96122754Y-64537475D01*
X96047271Y-64497581D01*
X96036361Y-64487458D01*
X95557594Y-64008691D01*
X95542031Y-63991178D01*
X95532883Y-63979573D01*
X95532880Y-63979570D01*
X95523672Y-63967890D01*
X95476353Y-63935186D01*
X95471269Y-63931553D01*
X95451612Y-63917034D01*
X95424984Y-63897366D01*
X95418168Y-63894973D01*
X95412231Y-63890869D01*
X95357388Y-63873524D01*
X95351460Y-63871546D01*
X95311205Y-63857410D01*
X95297169Y-63852481D01*
X95289955Y-63852198D01*
X95283070Y-63850020D01*
X95276463Y-63849500D01*
X95225225Y-63849500D01*
X95217414Y-63849347D01*
X95161806Y-63847162D01*
X95153816Y-63849280D01*
X95149827Y-63849500D01*
X92278724Y-63849500D01*
X92255335Y-63848121D01*
X92240661Y-63846384D01*
X92240659Y-63846384D01*
X92225889Y-63844636D01*
X92182937Y-63852481D01*
X92169320Y-63854968D01*
X92163150Y-63855995D01*
X92120950Y-63862339D01*
X92120949Y-63862339D01*
X92106238Y-63864551D01*
X92099725Y-63867679D01*
X92092627Y-63868975D01*
X92041575Y-63895494D01*
X92036014Y-63898272D01*
X91997533Y-63916750D01*
X91997530Y-63916752D01*
X91984121Y-63923191D01*
X91978818Y-63928093D01*
X91972411Y-63931421D01*
X91967372Y-63935725D01*
X91931154Y-63971943D01*
X91925522Y-63977359D01*
X91888815Y-64011291D01*
X91809129Y-64055233D01*
X91804291Y-64055870D01*
X91792236Y-64060863D01*
X91792237Y-64060863D01*
X91682426Y-64106347D01*
X91682424Y-64106348D01*
X91670375Y-64111339D01*
X91555379Y-64199579D01*
X91467139Y-64314575D01*
X91462148Y-64326624D01*
X91462147Y-64326626D01*
X91416661Y-64436441D01*
X91411670Y-64448491D01*
X91392750Y-64592200D01*
X91411670Y-64735909D01*
X91416661Y-64747958D01*
X91416661Y-64747959D01*
X91452114Y-64833550D01*
X91467139Y-64869825D01*
X91555379Y-64984821D01*
X91670375Y-65073061D01*
X91682424Y-65078052D01*
X91682426Y-65078053D01*
X91792241Y-65123539D01*
X91804291Y-65128530D01*
X91948000Y-65147450D01*
X92091709Y-65128530D01*
X92103759Y-65123539D01*
X92213574Y-65078053D01*
X92213576Y-65078052D01*
X92225625Y-65073061D01*
X92340621Y-64984821D01*
X92428861Y-64869825D01*
X92433853Y-64857774D01*
X92438343Y-64849997D01*
X92498583Y-64785077D01*
X92581025Y-64752722D01*
X92610681Y-64750500D01*
X94533929Y-64750500D01*
X94620272Y-64770207D01*
X94689513Y-64825426D01*
X94727940Y-64905218D01*
X94727940Y-64993782D01*
X94717785Y-65025645D01*
X94663670Y-65156291D01*
X94661969Y-65169215D01*
X94661968Y-65169217D01*
X94660617Y-65179481D01*
X94629808Y-65262512D01*
X94604033Y-65294220D01*
X93196673Y-66701579D01*
X93101365Y-66796887D01*
X93094256Y-66810839D01*
X93093083Y-66813142D01*
X93076766Y-66839769D01*
X93066044Y-66854526D01*
X93061204Y-66869423D01*
X93061202Y-66869426D01*
X93060405Y-66871879D01*
X93048458Y-66900722D01*
X93040174Y-66916981D01*
X93037725Y-66932446D01*
X93037723Y-66932451D01*
X93037318Y-66935008D01*
X93030030Y-66965364D01*
X93024393Y-66982714D01*
X93024393Y-68070260D01*
X93004686Y-68156603D01*
X92949467Y-68225844D01*
X92869675Y-68264271D01*
X92781111Y-68264271D01*
X92701319Y-68225844D01*
X92664557Y-68180794D01*
X92662048Y-68182617D01*
X92651324Y-68167856D01*
X92635011Y-68141235D01*
X92633841Y-68138939D01*
X92633839Y-68138936D01*
X92626728Y-68124980D01*
X90195967Y-65694219D01*
X90148848Y-65619231D01*
X90139384Y-65579481D01*
X90138034Y-65569224D01*
X90138031Y-65569214D01*
X90136330Y-65556291D01*
X90099519Y-65467421D01*
X90085853Y-65434426D01*
X90085852Y-65434424D01*
X90080861Y-65422375D01*
X89992621Y-65307379D01*
X89877625Y-65219139D01*
X89865576Y-65214148D01*
X89865574Y-65214147D01*
X89755759Y-65168661D01*
X89755758Y-65168661D01*
X89743709Y-65163670D01*
X89600000Y-65144750D01*
X89456291Y-65163670D01*
X89444242Y-65168661D01*
X89444241Y-65168661D01*
X89334426Y-65214147D01*
X89334424Y-65214148D01*
X89322375Y-65219139D01*
X89207379Y-65307379D01*
X89119139Y-65422375D01*
X89114148Y-65434424D01*
X89114147Y-65434426D01*
X89097193Y-65475359D01*
X89068263Y-65545202D01*
X89068261Y-65545206D01*
X89063931Y-65555661D01*
X89063670Y-65556291D01*
X89062630Y-65555860D01*
X89027163Y-65622963D01*
X88955904Y-65675552D01*
X88868884Y-65692015D01*
X88783339Y-65669090D01*
X88735616Y-65633868D01*
X87409648Y-64307900D01*
X87362529Y-64232912D01*
X87352613Y-64144905D01*
X87381864Y-64061312D01*
X87444488Y-63998688D01*
X87474197Y-63983339D01*
X87602825Y-63930061D01*
X87717821Y-63841821D01*
X87806061Y-63726825D01*
X87811650Y-63713333D01*
X87856539Y-63604959D01*
X87856539Y-63604958D01*
X87861530Y-63592909D01*
X87880450Y-63449200D01*
X87861530Y-63305491D01*
X87856539Y-63293441D01*
X87811053Y-63183626D01*
X87811052Y-63183624D01*
X87806061Y-63171575D01*
X87798122Y-63161228D01*
X87791598Y-63149929D01*
X87793321Y-63148934D01*
X87763279Y-63083455D01*
X87764931Y-62994907D01*
X87793053Y-62936511D01*
X87791598Y-62935671D01*
X87798122Y-62924372D01*
X87806061Y-62914025D01*
X87818814Y-62883238D01*
X87856539Y-62792159D01*
X87856539Y-62792158D01*
X87861530Y-62780109D01*
X87880450Y-62636400D01*
X87861530Y-62492691D01*
X87851009Y-62467291D01*
X87811053Y-62370826D01*
X87811052Y-62370824D01*
X87806061Y-62358775D01*
X87717821Y-62243779D01*
X87602825Y-62155539D01*
X87590776Y-62150548D01*
X87590774Y-62150547D01*
X87480959Y-62105061D01*
X87480958Y-62105061D01*
X87468909Y-62100070D01*
X87325200Y-62081150D01*
X87181491Y-62100070D01*
X87047575Y-62155539D01*
X87041936Y-62159866D01*
X86960636Y-62184944D01*
X86945765Y-62185500D01*
X80732124Y-62185500D01*
X80645781Y-62165793D01*
X80610979Y-62144376D01*
X80602773Y-62138079D01*
X80602771Y-62138078D01*
X80592425Y-62130139D01*
X80580376Y-62125148D01*
X80580374Y-62125147D01*
X80470562Y-62079662D01*
X80470559Y-62079661D01*
X80458509Y-62074670D01*
X80445576Y-62072967D01*
X80436894Y-62070641D01*
X80358594Y-62029258D01*
X80306004Y-61958000D01*
X80289400Y-61878422D01*
X80289400Y-54357340D01*
X88078009Y-54357340D01*
X88105906Y-54481125D01*
X88110773Y-54496654D01*
X88188637Y-54688412D01*
X88195987Y-54702963D01*
X88304126Y-54879429D01*
X88313734Y-54892558D01*
X88449257Y-55049009D01*
X88460885Y-55060396D01*
X88620134Y-55192607D01*
X88633458Y-55201937D01*
X88801371Y-55300058D01*
X88865976Y-55360636D01*
X88897900Y-55443246D01*
X88890819Y-55531525D01*
X88846136Y-55607991D01*
X88802720Y-55642894D01*
X88728856Y-55686838D01*
X88721997Y-55692853D01*
X88721993Y-55692856D01*
X88597748Y-55801816D01*
X88569881Y-55826255D01*
X88564231Y-55833422D01*
X88564230Y-55833423D01*
X88546611Y-55855773D01*
X88438976Y-55992308D01*
X88429989Y-56009389D01*
X88405921Y-56055136D01*
X88340523Y-56179436D01*
X88337816Y-56188152D01*
X88337815Y-56188156D01*
X88305871Y-56291034D01*
X88277820Y-56381373D01*
X88252967Y-56591354D01*
X88256763Y-56649271D01*
X88264515Y-56767540D01*
X88266796Y-56802349D01*
X88269040Y-56811186D01*
X88269041Y-56811190D01*
X88314177Y-56988909D01*
X88318845Y-57007290D01*
X88407369Y-57199314D01*
X88412632Y-57206761D01*
X88524137Y-57364538D01*
X88524141Y-57364543D01*
X88529405Y-57371991D01*
X88680865Y-57519537D01*
X88688450Y-57524605D01*
X88688451Y-57524606D01*
X88768771Y-57578274D01*
X88856677Y-57637011D01*
X88865057Y-57640611D01*
X88865062Y-57640614D01*
X88944266Y-57674642D01*
X89026522Y-57709982D01*
X89098073Y-57762171D01*
X89139895Y-57840237D01*
X89143703Y-57928719D01*
X89108744Y-58010090D01*
X89041941Y-58068235D01*
X89016846Y-58079521D01*
X88962038Y-58099741D01*
X88910575Y-58118727D01*
X88902737Y-58123390D01*
X88902733Y-58123392D01*
X88847385Y-58156321D01*
X88728856Y-58226838D01*
X88721997Y-58232853D01*
X88721993Y-58232856D01*
X88609695Y-58331339D01*
X88569881Y-58366255D01*
X88564231Y-58373422D01*
X88564230Y-58373423D01*
X88546611Y-58395773D01*
X88438976Y-58532308D01*
X88434726Y-58540386D01*
X88347804Y-58705598D01*
X88340523Y-58719436D01*
X88337816Y-58728152D01*
X88337815Y-58728156D01*
X88316370Y-58797222D01*
X88277820Y-58921373D01*
X88276748Y-58930430D01*
X88256745Y-59099438D01*
X88252967Y-59131354D01*
X88266796Y-59342349D01*
X88269040Y-59351186D01*
X88269041Y-59351190D01*
X88314673Y-59530861D01*
X88318845Y-59547290D01*
X88407369Y-59739314D01*
X88412632Y-59746761D01*
X88524137Y-59904538D01*
X88524141Y-59904543D01*
X88529405Y-59911991D01*
X88680865Y-60059537D01*
X88688450Y-60064605D01*
X88688451Y-60064606D01*
X88768771Y-60118274D01*
X88856677Y-60177011D01*
X88865056Y-60180611D01*
X88865058Y-60180612D01*
X88934268Y-60210346D01*
X89050953Y-60260478D01*
X89059842Y-60262489D01*
X89059847Y-60262491D01*
X89248289Y-60305131D01*
X89248291Y-60305131D01*
X89257186Y-60307144D01*
X89468470Y-60315446D01*
X89677730Y-60285104D01*
X89686372Y-60282171D01*
X89686374Y-60282170D01*
X89869316Y-60220070D01*
X89869320Y-60220068D01*
X89877955Y-60217137D01*
X89949605Y-60177011D01*
X90054488Y-60118274D01*
X90054492Y-60118271D01*
X90062442Y-60113819D01*
X90143727Y-60046216D01*
X90218001Y-59984443D01*
X90225012Y-59978612D01*
X90360219Y-59816042D01*
X90431443Y-59688863D01*
X90490826Y-59623160D01*
X90572836Y-59589728D01*
X90605069Y-59587100D01*
X92913524Y-59587100D01*
X92999867Y-59606807D01*
X93054238Y-59645386D01*
X94527033Y-61118181D01*
X94574152Y-61193169D01*
X94583616Y-61232919D01*
X94584966Y-61243176D01*
X94584969Y-61243186D01*
X94586670Y-61256109D01*
X94604700Y-61299638D01*
X94631085Y-61363337D01*
X94642139Y-61390025D01*
X94730379Y-61505021D01*
X94845375Y-61593261D01*
X94857424Y-61598252D01*
X94857426Y-61598253D01*
X94967241Y-61643739D01*
X94979291Y-61648730D01*
X95123000Y-61667650D01*
X95266709Y-61648730D01*
X95278759Y-61643739D01*
X95388574Y-61598253D01*
X95388576Y-61598252D01*
X95400625Y-61593261D01*
X95515621Y-61505021D01*
X95603861Y-61390025D01*
X95614916Y-61363337D01*
X95654339Y-61268159D01*
X95654340Y-61268157D01*
X95659330Y-61256109D01*
X95664249Y-61218746D01*
X95695058Y-61135715D01*
X95758842Y-61074273D01*
X95842968Y-61046591D01*
X95930773Y-61058151D01*
X96002260Y-61104008D01*
X97546780Y-62648528D01*
X97563039Y-62656813D01*
X97589662Y-62673127D01*
X97604419Y-62683849D01*
X97619316Y-62688689D01*
X97619319Y-62688691D01*
X97621772Y-62689488D01*
X97650615Y-62701435D01*
X97652921Y-62702610D01*
X97652923Y-62702610D01*
X97666874Y-62709719D01*
X97682339Y-62712168D01*
X97682344Y-62712170D01*
X97684901Y-62712575D01*
X97715257Y-62719863D01*
X97717461Y-62720579D01*
X97732607Y-62725500D01*
X99682676Y-62725500D01*
X99769019Y-62745207D01*
X99803821Y-62766624D01*
X99812027Y-62772921D01*
X99812029Y-62772922D01*
X99822375Y-62780861D01*
X99834424Y-62785852D01*
X99834426Y-62785853D01*
X99944241Y-62831339D01*
X99956291Y-62836330D01*
X100100000Y-62855250D01*
X100243709Y-62836330D01*
X100255759Y-62831339D01*
X100365574Y-62785853D01*
X100365576Y-62785852D01*
X100377625Y-62780861D01*
X100492621Y-62692621D01*
X100580861Y-62577625D01*
X100589293Y-62557270D01*
X100631339Y-62455759D01*
X100631339Y-62455758D01*
X100636330Y-62443709D01*
X100655250Y-62300000D01*
X100636330Y-62156291D01*
X100631339Y-62144241D01*
X100585853Y-62034426D01*
X100585852Y-62034424D01*
X100580861Y-62022375D01*
X100492621Y-61907379D01*
X100377625Y-61819139D01*
X100365576Y-61814148D01*
X100365574Y-61814147D01*
X100255759Y-61768661D01*
X100255758Y-61768661D01*
X100243709Y-61763670D01*
X100100000Y-61744750D01*
X99956291Y-61763670D01*
X99944242Y-61768661D01*
X99944241Y-61768661D01*
X99834426Y-61814147D01*
X99834424Y-61814148D01*
X99822375Y-61819139D01*
X99812029Y-61827078D01*
X99812027Y-61827079D01*
X99803821Y-61833376D01*
X99723324Y-61870304D01*
X99682676Y-61874500D01*
X98058676Y-61874500D01*
X97972333Y-61854793D01*
X97917962Y-61816214D01*
X92374820Y-56273072D01*
X92358561Y-56264787D01*
X92331938Y-56248473D01*
X92317181Y-56237751D01*
X92302284Y-56232911D01*
X92302281Y-56232909D01*
X92299828Y-56232112D01*
X92270985Y-56220165D01*
X92268679Y-56218990D01*
X92268677Y-56218990D01*
X92254726Y-56211881D01*
X92239261Y-56209432D01*
X92239256Y-56209430D01*
X92236699Y-56209025D01*
X92206343Y-56201737D01*
X92203892Y-56200941D01*
X92188993Y-56196100D01*
X90604794Y-56196100D01*
X90518451Y-56176393D01*
X90449210Y-56121174D01*
X90426320Y-56085121D01*
X90393165Y-56017890D01*
X90383909Y-56005494D01*
X90332646Y-55936845D01*
X90266651Y-55848467D01*
X90259955Y-55842277D01*
X90259952Y-55842274D01*
X90141314Y-55732607D01*
X90111381Y-55704937D01*
X90103665Y-55700068D01*
X90103659Y-55700064D01*
X90006316Y-55638644D01*
X89943810Y-55575903D01*
X89914716Y-55492255D01*
X89924797Y-55404267D01*
X89972056Y-55329367D01*
X90024959Y-55291637D01*
X90098401Y-55255658D01*
X90112392Y-55247318D01*
X90280884Y-55127134D01*
X90293321Y-55116625D01*
X90439931Y-54970525D01*
X90450474Y-54958137D01*
X90571255Y-54790054D01*
X90579643Y-54776092D01*
X90671349Y-54590541D01*
X90677336Y-54575419D01*
X90737506Y-54377376D01*
X90740946Y-54361467D01*
X90741425Y-54357828D01*
X90739608Y-54338458D01*
X90738497Y-54337730D01*
X90726633Y-54335600D01*
X88095533Y-54335600D01*
X88078034Y-54339594D01*
X88078009Y-54357340D01*
X80289400Y-54357340D01*
X80289400Y-49588800D01*
X80309107Y-49502457D01*
X80364326Y-49433216D01*
X80444118Y-49394789D01*
X80488400Y-49389800D01*
X80515577Y-49389800D01*
X80534547Y-49385470D01*
X80538000Y-49378300D01*
X80538000Y-47976800D01*
X80557707Y-47890457D01*
X80612926Y-47821216D01*
X80692718Y-47782789D01*
X80737000Y-47777800D01*
X80847000Y-47777800D01*
X80933343Y-47797507D01*
X81002584Y-47852726D01*
X81041011Y-47932518D01*
X81046000Y-47976800D01*
X81046000Y-49367376D01*
X81050330Y-49386346D01*
X81057500Y-49389799D01*
X81684696Y-49389799D01*
X81695453Y-49389216D01*
X81739799Y-49384400D01*
X81763890Y-49378672D01*
X81875191Y-49336947D01*
X81899804Y-49323472D01*
X81993561Y-49253205D01*
X82013405Y-49233361D01*
X82083672Y-49139604D01*
X82097147Y-49114991D01*
X82138873Y-49003687D01*
X82144599Y-48979605D01*
X82149432Y-48935119D01*
X82178349Y-48851410D01*
X82240723Y-48788537D01*
X82324199Y-48758954D01*
X82412244Y-48768519D01*
X82486125Y-48814066D01*
X82604865Y-48929737D01*
X82612450Y-48934805D01*
X82612451Y-48934806D01*
X82692771Y-48988474D01*
X82780677Y-49047211D01*
X82789056Y-49050811D01*
X82789058Y-49050812D01*
X82826807Y-49067030D01*
X82974953Y-49130678D01*
X82983842Y-49132689D01*
X82983847Y-49132691D01*
X83172289Y-49175331D01*
X83172291Y-49175331D01*
X83181186Y-49177344D01*
X83392470Y-49185646D01*
X83601730Y-49155304D01*
X83610372Y-49152371D01*
X83610374Y-49152370D01*
X83793316Y-49090270D01*
X83793320Y-49090268D01*
X83801955Y-49087337D01*
X83843310Y-49064177D01*
X83978488Y-48988474D01*
X83978492Y-48988471D01*
X83986442Y-48984019D01*
X84149012Y-48848812D01*
X84284219Y-48686242D01*
X84288671Y-48678292D01*
X84288674Y-48678288D01*
X84383081Y-48509712D01*
X84383082Y-48509711D01*
X84387537Y-48501755D01*
X84422597Y-48398473D01*
X84452570Y-48310174D01*
X84452571Y-48310172D01*
X84455504Y-48301530D01*
X84469594Y-48204354D01*
X84485007Y-48098059D01*
X84485008Y-48098053D01*
X84485846Y-48092270D01*
X84486505Y-48067106D01*
X84487276Y-48037654D01*
X84487276Y-48037650D01*
X84487429Y-48031800D01*
X84484111Y-47995694D01*
X84468916Y-47830325D01*
X84468916Y-47830323D01*
X84468081Y-47821240D01*
X84429509Y-47684473D01*
X84413161Y-47626506D01*
X84413160Y-47626504D01*
X84410686Y-47617731D01*
X84317165Y-47428090D01*
X84190651Y-47258667D01*
X84183955Y-47252477D01*
X84183952Y-47252474D01*
X84122130Y-47195327D01*
X84035381Y-47115137D01*
X83856554Y-47002305D01*
X83848077Y-46998923D01*
X83848075Y-46998922D01*
X83721963Y-46948609D01*
X83660160Y-46923952D01*
X83452775Y-46882701D01*
X83344405Y-46881282D01*
X83250471Y-46880052D01*
X83250466Y-46880052D01*
X83241346Y-46879933D01*
X83232356Y-46881478D01*
X83232353Y-46881478D01*
X83131113Y-46898874D01*
X83032953Y-46915741D01*
X83024402Y-46918896D01*
X83024397Y-46918897D01*
X82843134Y-46985769D01*
X82843130Y-46985771D01*
X82834575Y-46988927D01*
X82826737Y-46993590D01*
X82826733Y-46993592D01*
X82770768Y-47026888D01*
X82652856Y-47097038D01*
X82645997Y-47103053D01*
X82645993Y-47103056D01*
X82621012Y-47124964D01*
X82493881Y-47236455D01*
X82490167Y-47241167D01*
X82417511Y-47289521D01*
X82329794Y-47301740D01*
X82245463Y-47274690D01*
X82181219Y-47213729D01*
X82149049Y-47124964D01*
X82144600Y-47084001D01*
X82138872Y-47059910D01*
X82097147Y-46948609D01*
X82083672Y-46923996D01*
X82013405Y-46830239D01*
X81993561Y-46810395D01*
X81899804Y-46740128D01*
X81875191Y-46726653D01*
X81766315Y-46685837D01*
X81692385Y-46637075D01*
X81646933Y-46561064D01*
X81638961Y-46472861D01*
X81670049Y-46389933D01*
X81734040Y-46328706D01*
X81818258Y-46301308D01*
X81836170Y-46300500D01*
X92945720Y-46300500D01*
X93032063Y-46320207D01*
G37*
%TD.AperFunction*%
%TA.AperFunction,Conductor*%
G36*
X115717512Y-60744407D02*
G01*
X115771883Y-60782986D01*
X118791214Y-63802317D01*
X118838333Y-63877305D01*
X118849500Y-63943031D01*
X118849500Y-76931969D01*
X118829793Y-77018312D01*
X118774574Y-77087553D01*
X118694782Y-77125980D01*
X118606218Y-77125980D01*
X118526426Y-77087553D01*
X118509786Y-77072683D01*
X116045794Y-74608691D01*
X116030231Y-74591178D01*
X116021083Y-74579573D01*
X116021080Y-74579570D01*
X116011872Y-74567890D01*
X115997719Y-74558108D01*
X115964557Y-74535189D01*
X115959469Y-74531553D01*
X115951715Y-74525826D01*
X115913184Y-74497366D01*
X115906368Y-74494973D01*
X115900431Y-74490869D01*
X115855266Y-74476585D01*
X115845588Y-74473524D01*
X115839660Y-74471546D01*
X115799405Y-74457410D01*
X115785369Y-74452481D01*
X115778155Y-74452198D01*
X115771270Y-74450020D01*
X115764663Y-74449500D01*
X115713425Y-74449500D01*
X115705614Y-74449347D01*
X115650006Y-74447162D01*
X115642016Y-74449280D01*
X115638027Y-74449500D01*
X112230146Y-74449500D01*
X112143803Y-74429793D01*
X112089432Y-74391214D01*
X112001468Y-74303250D01*
X111954349Y-74228262D01*
X111944433Y-74140255D01*
X111973684Y-74056662D01*
X112036308Y-73994038D01*
X112090676Y-73970317D01*
X112093977Y-73969433D01*
X112106909Y-73967730D01*
X112118959Y-73962739D01*
X112118962Y-73962738D01*
X112228774Y-73917253D01*
X112228776Y-73917252D01*
X112240825Y-73912261D01*
X112355821Y-73824021D01*
X112444061Y-73709025D01*
X112451234Y-73691709D01*
X112494537Y-73587163D01*
X112499530Y-73575109D01*
X112500341Y-73575445D01*
X112536322Y-73507367D01*
X112607580Y-73454777D01*
X112694600Y-73438313D01*
X112756520Y-73450654D01*
X112982437Y-73534672D01*
X112987122Y-73535910D01*
X112987132Y-73535913D01*
X113365393Y-73635853D01*
X113370230Y-73637131D01*
X113588386Y-73672465D01*
X113761371Y-73700483D01*
X113761377Y-73700484D01*
X113766170Y-73701260D01*
X114094237Y-73721900D01*
X114324906Y-73721900D01*
X114624421Y-73707251D01*
X114629236Y-73706540D01*
X114629246Y-73706539D01*
X114814125Y-73679238D01*
X115021218Y-73648657D01*
X115215811Y-73600140D01*
X115405693Y-73552798D01*
X115405701Y-73552796D01*
X115410404Y-73551623D01*
X115435685Y-73542621D01*
X115754080Y-73429245D01*
X115788263Y-73417073D01*
X116151190Y-73246293D01*
X116185521Y-73225828D01*
X116305910Y-73154061D01*
X116495719Y-73040912D01*
X116499624Y-73038033D01*
X116499630Y-73038029D01*
X116814640Y-72805784D01*
X116814646Y-72805779D01*
X116818562Y-72802892D01*
X116822177Y-72799637D01*
X116822182Y-72799633D01*
X117113022Y-72537759D01*
X117116637Y-72534504D01*
X117157074Y-72490220D01*
X117383824Y-72241897D01*
X117383827Y-72241894D01*
X117387100Y-72238309D01*
X117476897Y-72118275D01*
X117624456Y-71921029D01*
X117624459Y-71921024D01*
X117627368Y-71917136D01*
X117629885Y-71912979D01*
X117629893Y-71912968D01*
X117804509Y-71624641D01*
X117835149Y-71574049D01*
X118008458Y-71212324D01*
X118145643Y-70835413D01*
X118245392Y-70446914D01*
X118263681Y-70328779D01*
X118270863Y-70282386D01*
X118306755Y-70050536D01*
X118329145Y-69650061D01*
X118312349Y-69249313D01*
X118303656Y-69187455D01*
X118257203Y-68856935D01*
X118256526Y-68852116D01*
X118245999Y-68808600D01*
X118171344Y-68500015D01*
X118162211Y-68462263D01*
X118140139Y-68398881D01*
X118031903Y-68088070D01*
X118031902Y-68088067D01*
X118030302Y-68083473D01*
X117862060Y-67719364D01*
X117659090Y-67373409D01*
X117528347Y-67193457D01*
X117426189Y-67052849D01*
X117426186Y-67052845D01*
X117423329Y-67048913D01*
X117420105Y-67045282D01*
X117420098Y-67045273D01*
X117160257Y-66752608D01*
X117157028Y-66748971D01*
X116862729Y-66476447D01*
X116543241Y-66233942D01*
X116201613Y-66023771D01*
X116067885Y-65958547D01*
X115845476Y-65850071D01*
X115841107Y-65847940D01*
X115836555Y-65846247D01*
X115836550Y-65846245D01*
X115469718Y-65709822D01*
X115465163Y-65708128D01*
X115460478Y-65706890D01*
X115460468Y-65706887D01*
X115082075Y-65606912D01*
X115082073Y-65606912D01*
X115077370Y-65605669D01*
X114799436Y-65560653D01*
X114686229Y-65542317D01*
X114686223Y-65542316D01*
X114681430Y-65541540D01*
X114353363Y-65520900D01*
X114122694Y-65520900D01*
X113823179Y-65535549D01*
X113818364Y-65536260D01*
X113818354Y-65536261D01*
X113633475Y-65563562D01*
X113426382Y-65594143D01*
X113279967Y-65630648D01*
X113041907Y-65690002D01*
X113041899Y-65690004D01*
X113037196Y-65691177D01*
X112659337Y-65825727D01*
X112296410Y-65996507D01*
X111951881Y-66201888D01*
X111947976Y-66204767D01*
X111947970Y-66204771D01*
X111632960Y-66437016D01*
X111632954Y-66437021D01*
X111629038Y-66439908D01*
X111625423Y-66443163D01*
X111625418Y-66443167D01*
X111470922Y-66582276D01*
X111330963Y-66708296D01*
X111327684Y-66711887D01*
X111327683Y-66711888D01*
X111123947Y-66935008D01*
X111060500Y-67004491D01*
X111057594Y-67008376D01*
X111057592Y-67008378D01*
X110845358Y-67292078D01*
X110820232Y-67325664D01*
X110817715Y-67329821D01*
X110817707Y-67329832D01*
X110680559Y-67556291D01*
X110612451Y-67668751D01*
X110439142Y-68030476D01*
X110301957Y-68407387D01*
X110202208Y-68795886D01*
X110201464Y-68800689D01*
X110201463Y-68800696D01*
X110198889Y-68817324D01*
X110140845Y-69192264D01*
X110118455Y-69592739D01*
X110128393Y-69829853D01*
X110134199Y-69968377D01*
X110135251Y-69993487D01*
X110135927Y-69998300D01*
X110135928Y-69998306D01*
X110148884Y-70090488D01*
X110191074Y-70390684D01*
X110192217Y-70395408D01*
X110192218Y-70395414D01*
X110237412Y-70582223D01*
X110238560Y-70670779D01*
X110201172Y-70751063D01*
X110132652Y-70807174D01*
X110046572Y-70827999D01*
X109959981Y-70809413D01*
X109903278Y-70769730D01*
X109168420Y-70034872D01*
X109152161Y-70026587D01*
X109125538Y-70010273D01*
X109110781Y-69999551D01*
X109095884Y-69994711D01*
X109095881Y-69994709D01*
X109093428Y-69993912D01*
X109064585Y-69981965D01*
X109062279Y-69980790D01*
X109062277Y-69980790D01*
X109048326Y-69973681D01*
X109032861Y-69971232D01*
X109032856Y-69971230D01*
X109030299Y-69970825D01*
X108999943Y-69963537D01*
X108997492Y-69962741D01*
X108982593Y-69957900D01*
X106767124Y-69957900D01*
X106680781Y-69938193D01*
X106645979Y-69916776D01*
X106637773Y-69910479D01*
X106637771Y-69910478D01*
X106627425Y-69902539D01*
X106615376Y-69897548D01*
X106615374Y-69897547D01*
X106505559Y-69852061D01*
X106505558Y-69852061D01*
X106493509Y-69847070D01*
X106349800Y-69828150D01*
X106206091Y-69847070D01*
X106194042Y-69852061D01*
X106194041Y-69852061D01*
X106084226Y-69897547D01*
X106084224Y-69897548D01*
X106072175Y-69902539D01*
X105957179Y-69990779D01*
X105868939Y-70105775D01*
X105863949Y-70117823D01*
X105863948Y-70117824D01*
X105824231Y-70213711D01*
X105772982Y-70285940D01*
X105695469Y-70328779D01*
X105607045Y-70333745D01*
X105525224Y-70299854D01*
X105499665Y-70278271D01*
X105429423Y-70208029D01*
X105424706Y-70204330D01*
X105424701Y-70204326D01*
X105368319Y-70160117D01*
X105368318Y-70160116D01*
X105358260Y-70152230D01*
X105278753Y-70117824D01*
X105232288Y-70097717D01*
X105219837Y-70092329D01*
X105070405Y-70071860D01*
X104920972Y-70092329D01*
X104862057Y-70117824D01*
X104794285Y-70147151D01*
X104794283Y-70147152D01*
X104782549Y-70152230D01*
X104711387Y-70208029D01*
X104297345Y-70622071D01*
X104271726Y-70654744D01*
X104202944Y-70710528D01*
X104116766Y-70730945D01*
X104030264Y-70711949D01*
X103974414Y-70672666D01*
X102769586Y-69467838D01*
X102722467Y-69392850D01*
X102711300Y-69327124D01*
X102711300Y-68359335D01*
X102731007Y-68272992D01*
X102786226Y-68203751D01*
X102866018Y-68165324D01*
X102954582Y-68165324D01*
X103009797Y-68186994D01*
X103013827Y-68189321D01*
X103024175Y-68197261D01*
X103036225Y-68202252D01*
X103036228Y-68202254D01*
X103146041Y-68247739D01*
X103158091Y-68252730D01*
X103301800Y-68271650D01*
X103445509Y-68252730D01*
X103457559Y-68247739D01*
X103567374Y-68202253D01*
X103567376Y-68202252D01*
X103579425Y-68197261D01*
X103694421Y-68109021D01*
X103782661Y-67994025D01*
X103785519Y-67987125D01*
X103843531Y-67924601D01*
X103925971Y-67892244D01*
X104014287Y-67898861D01*
X104090986Y-67943142D01*
X104118734Y-67977936D01*
X104119139Y-67977625D01*
X104207379Y-68092621D01*
X104322375Y-68180861D01*
X104334424Y-68185852D01*
X104334426Y-68185853D01*
X104444241Y-68231339D01*
X104456291Y-68236330D01*
X104600000Y-68255250D01*
X104743709Y-68236330D01*
X104755759Y-68231339D01*
X104865574Y-68185853D01*
X104865576Y-68185852D01*
X104877625Y-68180861D01*
X104887971Y-68172922D01*
X104887973Y-68172921D01*
X104896179Y-68166624D01*
X104976676Y-68129696D01*
X105017324Y-68125500D01*
X106167393Y-68125500D01*
X106182539Y-68120579D01*
X106184743Y-68119863D01*
X106215099Y-68112575D01*
X106217656Y-68112170D01*
X106217661Y-68112168D01*
X106233126Y-68109719D01*
X106247077Y-68102610D01*
X106247079Y-68102610D01*
X106249385Y-68101435D01*
X106278228Y-68089488D01*
X106280681Y-68088691D01*
X106280684Y-68088689D01*
X106295581Y-68083849D01*
X106310338Y-68073127D01*
X106336961Y-68056813D01*
X106353220Y-68048528D01*
X106448528Y-67953220D01*
X112853218Y-61548529D01*
X112853220Y-61548528D01*
X112948528Y-61453220D01*
X112956812Y-61436962D01*
X112973128Y-61410337D01*
X112974642Y-61408253D01*
X112983849Y-61395581D01*
X112988689Y-61380684D01*
X112988691Y-61380681D01*
X112989488Y-61378228D01*
X113001435Y-61349385D01*
X113002610Y-61347079D01*
X113002610Y-61347077D01*
X113009719Y-61333126D01*
X113012168Y-61317661D01*
X113012170Y-61317656D01*
X113012575Y-61315099D01*
X113019863Y-61284743D01*
X113020659Y-61282292D01*
X113025500Y-61267393D01*
X113025500Y-61226703D01*
X113045207Y-61140360D01*
X113100426Y-61071119D01*
X113180218Y-61032692D01*
X113268782Y-61032692D01*
X113348574Y-61071119D01*
X113403793Y-61140360D01*
X113409828Y-61156959D01*
X113410364Y-61156747D01*
X113465887Y-61296983D01*
X113557078Y-61417122D01*
X113677217Y-61508313D01*
X113689828Y-61513306D01*
X113805571Y-61559132D01*
X113805574Y-61559133D01*
X113817453Y-61563836D01*
X113907228Y-61574700D01*
X114492772Y-61574700D01*
X114582547Y-61563836D01*
X114594426Y-61559133D01*
X114594429Y-61559132D01*
X114710172Y-61513306D01*
X114722783Y-61508313D01*
X114842922Y-61417122D01*
X114934113Y-61296983D01*
X114981626Y-61176979D01*
X114984932Y-61168629D01*
X114984933Y-61168626D01*
X114989636Y-61156747D01*
X115000500Y-61066972D01*
X115000500Y-60923700D01*
X115020207Y-60837357D01*
X115075426Y-60768116D01*
X115155218Y-60729689D01*
X115199500Y-60724700D01*
X115631169Y-60724700D01*
X115717512Y-60744407D01*
G37*
%TD.AperFunction*%
%TA.AperFunction,Conductor*%
G36*
X131749800Y-46841150D02*
G01*
X131606091Y-46860070D01*
X131594042Y-46865061D01*
X131594041Y-46865061D01*
X131484226Y-46910547D01*
X131484224Y-46910548D01*
X131472175Y-46915539D01*
X131461829Y-46923478D01*
X131461827Y-46923479D01*
X131453621Y-46929776D01*
X131373124Y-46966704D01*
X131332476Y-46970900D01*
X118386207Y-46970900D01*
X118371308Y-46975741D01*
X118368857Y-46976537D01*
X118338501Y-46983825D01*
X118335944Y-46984230D01*
X118335939Y-46984232D01*
X118320474Y-46986681D01*
X118306523Y-46993790D01*
X118306521Y-46993790D01*
X118304215Y-46994965D01*
X118275372Y-47006912D01*
X118272919Y-47007709D01*
X118272916Y-47007711D01*
X118258019Y-47012551D01*
X118243262Y-47023273D01*
X118216639Y-47039587D01*
X118200380Y-47047872D01*
X115309379Y-49938873D01*
X115234391Y-49985992D01*
X115194652Y-49995454D01*
X115056291Y-50013670D01*
X115044242Y-50018661D01*
X115044241Y-50018661D01*
X114934426Y-50064147D01*
X114934424Y-50064148D01*
X114922375Y-50069139D01*
X114807379Y-50157379D01*
X114719139Y-50272375D01*
X114714148Y-50284424D01*
X114714147Y-50284426D01*
X114682894Y-50359879D01*
X114663670Y-50406291D01*
X114644750Y-50550000D01*
X114663670Y-50693709D01*
X114668661Y-50705758D01*
X114668661Y-50705759D01*
X114689929Y-50757104D01*
X114719139Y-50827625D01*
X114727078Y-50837971D01*
X114727079Y-50837973D01*
X114733376Y-50846179D01*
X114770304Y-50926676D01*
X114774500Y-50967324D01*
X114774500Y-51216124D01*
X114754793Y-51302467D01*
X114716214Y-51356838D01*
X112998819Y-53074233D01*
X112923831Y-53121352D01*
X112884081Y-53130816D01*
X112873824Y-53132166D01*
X112873814Y-53132169D01*
X112860891Y-53133870D01*
X112780816Y-53167038D01*
X112739026Y-53184347D01*
X112739024Y-53184348D01*
X112726975Y-53189339D01*
X112611979Y-53277579D01*
X112523739Y-53392575D01*
X112468270Y-53526491D01*
X112449350Y-53670200D01*
X112468270Y-53813909D01*
X112473261Y-53825958D01*
X112473261Y-53825959D01*
X112512624Y-53920990D01*
X112523739Y-53947825D01*
X112611979Y-54062821D01*
X112726975Y-54151061D01*
X112739024Y-54156052D01*
X112739026Y-54156053D01*
X112848841Y-54201539D01*
X112860891Y-54206530D01*
X113004600Y-54225450D01*
X113077730Y-54215822D01*
X113165906Y-54224090D01*
X113241763Y-54269798D01*
X113290276Y-54343892D01*
X113301836Y-54431698D01*
X113274154Y-54515824D01*
X113244419Y-54553833D01*
X112251472Y-55546780D01*
X112244363Y-55560732D01*
X112243190Y-55563035D01*
X112226873Y-55589662D01*
X112216151Y-55604419D01*
X112211311Y-55619316D01*
X112211309Y-55619319D01*
X112210512Y-55621772D01*
X112198565Y-55650615D01*
X112190281Y-55666874D01*
X112187832Y-55682339D01*
X112187830Y-55682344D01*
X112187425Y-55684901D01*
X112180137Y-55715257D01*
X112179421Y-55717461D01*
X112174500Y-55732607D01*
X112174500Y-58894407D01*
X112154793Y-58980750D01*
X112099574Y-59049991D01*
X112019782Y-59088418D01*
X111931218Y-59088418D01*
X111855182Y-59052914D01*
X111849088Y-59048288D01*
X111849085Y-59048287D01*
X111838283Y-59040087D01*
X111821143Y-59033301D01*
X111709929Y-58989268D01*
X111709926Y-58989267D01*
X111698047Y-58984564D01*
X111608272Y-58973700D01*
X111022728Y-58973700D01*
X110932953Y-58984564D01*
X110921074Y-58989267D01*
X110921071Y-58989268D01*
X110809857Y-59033301D01*
X110792717Y-59040087D01*
X110672578Y-59131278D01*
X110581387Y-59251417D01*
X110576394Y-59264028D01*
X110539263Y-59357812D01*
X110525864Y-59391653D01*
X110515000Y-59481428D01*
X110515000Y-60850824D01*
X110495293Y-60937167D01*
X110456714Y-60991538D01*
X107782038Y-63666214D01*
X107707050Y-63713333D01*
X107641324Y-63724500D01*
X107049638Y-63724500D01*
X106963295Y-63704793D01*
X106894054Y-63649574D01*
X106855627Y-63569782D01*
X106855627Y-63481218D01*
X106865782Y-63449355D01*
X106911530Y-63338909D01*
X106930450Y-63195200D01*
X106927399Y-63172028D01*
X106935666Y-63083854D01*
X106981373Y-63007997D01*
X107055467Y-62959483D01*
X107150668Y-62948755D01*
X107200000Y-62955250D01*
X107343709Y-62936330D01*
X107359899Y-62929624D01*
X107465574Y-62885853D01*
X107465576Y-62885852D01*
X107477625Y-62880861D01*
X107592621Y-62792621D01*
X107680861Y-62677625D01*
X107686538Y-62663921D01*
X107731339Y-62555759D01*
X107731339Y-62555758D01*
X107736330Y-62543709D01*
X107755250Y-62400000D01*
X107736330Y-62256291D01*
X107731148Y-62243779D01*
X107696137Y-62159255D01*
X107680989Y-62083102D01*
X107680989Y-61923700D01*
X107700696Y-61837357D01*
X107755915Y-61768116D01*
X107835707Y-61729689D01*
X107924271Y-61729689D01*
X107942638Y-61734819D01*
X108042924Y-61768082D01*
X108064049Y-61772611D01*
X108152587Y-61781683D01*
X108162717Y-61782200D01*
X108181577Y-61782200D01*
X108200547Y-61777870D01*
X108204000Y-61770700D01*
X108204000Y-61759776D01*
X108712000Y-61759776D01*
X108716330Y-61778746D01*
X108723500Y-61782199D01*
X108753214Y-61782199D01*
X108763487Y-61781667D01*
X108853234Y-61772356D01*
X108874388Y-61767787D01*
X109020766Y-61718952D01*
X109041562Y-61709211D01*
X109172203Y-61628367D01*
X109190205Y-61614099D01*
X109298741Y-61505375D01*
X109312976Y-61487350D01*
X109393594Y-61356563D01*
X109403297Y-61335755D01*
X109451883Y-61189273D01*
X109456411Y-61168151D01*
X109465483Y-61079613D01*
X109466000Y-61069483D01*
X109466000Y-60550623D01*
X109461670Y-60531653D01*
X109454500Y-60528200D01*
X108734423Y-60528200D01*
X108715453Y-60532530D01*
X108712000Y-60539700D01*
X108712000Y-61759776D01*
X108204000Y-61759776D01*
X108204000Y-59997777D01*
X108712000Y-59997777D01*
X108716330Y-60016747D01*
X108723500Y-60020200D01*
X109443576Y-60020200D01*
X109462546Y-60015870D01*
X109465999Y-60008700D01*
X109465999Y-59478986D01*
X109465467Y-59468713D01*
X109456156Y-59378966D01*
X109451587Y-59357812D01*
X109402752Y-59211434D01*
X109393011Y-59190638D01*
X109312167Y-59059997D01*
X109297899Y-59041995D01*
X109189175Y-58933459D01*
X109171150Y-58919224D01*
X109040363Y-58838606D01*
X109019555Y-58828903D01*
X108873073Y-58780317D01*
X108851951Y-58775789D01*
X108763413Y-58766717D01*
X108753283Y-58766200D01*
X108734423Y-58766200D01*
X108715453Y-58770530D01*
X108712000Y-58777700D01*
X108712000Y-59997777D01*
X108204000Y-59997777D01*
X108204000Y-58788624D01*
X108199670Y-58769654D01*
X108192500Y-58766201D01*
X108162786Y-58766201D01*
X108152513Y-58766733D01*
X108062766Y-58776044D01*
X108041615Y-58780612D01*
X107942968Y-58813523D01*
X107854826Y-58822154D01*
X107771668Y-58791687D01*
X107709964Y-58728156D01*
X107681936Y-58644145D01*
X107680989Y-58624751D01*
X107680989Y-54603187D01*
X107700696Y-54516844D01*
X107739275Y-54462473D01*
X108817961Y-53383786D01*
X108892949Y-53336667D01*
X108958675Y-53325500D01*
X111567393Y-53325500D01*
X111582539Y-53320579D01*
X111584743Y-53319863D01*
X111615099Y-53312575D01*
X111617656Y-53312170D01*
X111617661Y-53312168D01*
X111633126Y-53309719D01*
X111647077Y-53302610D01*
X111647079Y-53302610D01*
X111649385Y-53301435D01*
X111678228Y-53289488D01*
X111680681Y-53288691D01*
X111680684Y-53288689D01*
X111695581Y-53283849D01*
X111710338Y-53273127D01*
X111736961Y-53256813D01*
X111753220Y-53248528D01*
X112984981Y-52016767D01*
X113059969Y-51969648D01*
X113099719Y-51960184D01*
X113109976Y-51958834D01*
X113109986Y-51958831D01*
X113122909Y-51957130D01*
X113216297Y-51918448D01*
X113244774Y-51906653D01*
X113244776Y-51906652D01*
X113256825Y-51901661D01*
X113371821Y-51813421D01*
X113460061Y-51698425D01*
X113465567Y-51685134D01*
X113510539Y-51576559D01*
X113510539Y-51576558D01*
X113515530Y-51564509D01*
X113534450Y-51420800D01*
X113515530Y-51277091D01*
X113505519Y-51252921D01*
X113465053Y-51155226D01*
X113465052Y-51155224D01*
X113460061Y-51143175D01*
X113371821Y-51028179D01*
X113256825Y-50939939D01*
X113244776Y-50934948D01*
X113244774Y-50934947D01*
X113134959Y-50889461D01*
X113134958Y-50889461D01*
X113122909Y-50884470D01*
X112979200Y-50865550D01*
X112970158Y-50866740D01*
X112886061Y-50847546D01*
X112816820Y-50792327D01*
X112778393Y-50712535D01*
X112775106Y-50642281D01*
X112791391Y-50518588D01*
X112772471Y-50374879D01*
X112767480Y-50362829D01*
X112721994Y-50253014D01*
X112721993Y-50253012D01*
X112717002Y-50240963D01*
X112628762Y-50125967D01*
X112513766Y-50037727D01*
X112501717Y-50032736D01*
X112501715Y-50032735D01*
X112391900Y-49987249D01*
X112391899Y-49987249D01*
X112379850Y-49982258D01*
X112236141Y-49963338D01*
X112092432Y-49982258D01*
X112080383Y-49987249D01*
X112080382Y-49987249D01*
X111970567Y-50032735D01*
X111970565Y-50032736D01*
X111958516Y-50037727D01*
X111948170Y-50045666D01*
X111948168Y-50045667D01*
X111939962Y-50051964D01*
X111859465Y-50088892D01*
X111818817Y-50093088D01*
X109207591Y-50093088D01*
X109192692Y-50097929D01*
X109190241Y-50098725D01*
X109159885Y-50106013D01*
X109157328Y-50106418D01*
X109157323Y-50106420D01*
X109141858Y-50108869D01*
X109127907Y-50115978D01*
X109127905Y-50115978D01*
X109125599Y-50117153D01*
X109096756Y-50129100D01*
X109094303Y-50129897D01*
X109094300Y-50129899D01*
X109079403Y-50134739D01*
X109064646Y-50145461D01*
X109038023Y-50161775D01*
X109021764Y-50170060D01*
X104090903Y-55100921D01*
X104015915Y-55148040D01*
X103927908Y-55157956D01*
X103844315Y-55128705D01*
X103781691Y-55066081D01*
X103752440Y-54982488D01*
X103752891Y-54934235D01*
X103753747Y-54927732D01*
X103755450Y-54914800D01*
X103736530Y-54771091D01*
X103702284Y-54688412D01*
X103686053Y-54649226D01*
X103686052Y-54649224D01*
X103681061Y-54637175D01*
X103592821Y-54522179D01*
X103477825Y-54433939D01*
X103465776Y-54428948D01*
X103465774Y-54428947D01*
X103355959Y-54383461D01*
X103355958Y-54383461D01*
X103343909Y-54378470D01*
X103200200Y-54359550D01*
X103056491Y-54378470D01*
X103044442Y-54383461D01*
X103044441Y-54383461D01*
X102934626Y-54428947D01*
X102934624Y-54428948D01*
X102922575Y-54433939D01*
X102807579Y-54522179D01*
X102719339Y-54637175D01*
X102663870Y-54771091D01*
X102662875Y-54778646D01*
X102622981Y-54854129D01*
X102612858Y-54865039D01*
X101808691Y-55669206D01*
X101791178Y-55684769D01*
X101780920Y-55692856D01*
X101767890Y-55703128D01*
X101736691Y-55748270D01*
X101735213Y-55750409D01*
X101731579Y-55755495D01*
X101697366Y-55801816D01*
X101694973Y-55808632D01*
X101690869Y-55814569D01*
X101686381Y-55828760D01*
X101673524Y-55869412D01*
X101671546Y-55875340D01*
X101652481Y-55929631D01*
X101652198Y-55936845D01*
X101650020Y-55943730D01*
X101649500Y-55950337D01*
X101649500Y-56001575D01*
X101649347Y-56009386D01*
X101647162Y-56064994D01*
X101649280Y-56072984D01*
X101649500Y-56076973D01*
X101649500Y-56881969D01*
X101629793Y-56968312D01*
X101574574Y-57037553D01*
X101494782Y-57075980D01*
X101406218Y-57075980D01*
X101326426Y-57037553D01*
X101309786Y-57022683D01*
X98732794Y-54445691D01*
X98717231Y-54428178D01*
X98708083Y-54416573D01*
X98708080Y-54416570D01*
X98698872Y-54404890D01*
X98651553Y-54372186D01*
X98646469Y-54368553D01*
X98600184Y-54334366D01*
X98593368Y-54331973D01*
X98587431Y-54327869D01*
X98532588Y-54310524D01*
X98526660Y-54308546D01*
X98486405Y-54294410D01*
X98472369Y-54289481D01*
X98465155Y-54289198D01*
X98458270Y-54287020D01*
X98451663Y-54286500D01*
X98400425Y-54286500D01*
X98392614Y-54286347D01*
X98337006Y-54284162D01*
X98329016Y-54286280D01*
X98325027Y-54286500D01*
X96652693Y-54286500D01*
X96566350Y-54266793D01*
X96497109Y-54211574D01*
X96458682Y-54131782D01*
X96458682Y-54043218D01*
X96497109Y-53963426D01*
X96566350Y-53908207D01*
X96604551Y-53894411D01*
X96711293Y-53867798D01*
X96711301Y-53867796D01*
X96716004Y-53866623D01*
X96829222Y-53826308D01*
X97088064Y-53734138D01*
X97093863Y-53732073D01*
X97456790Y-53561293D01*
X97801319Y-53355912D01*
X97805224Y-53353033D01*
X97805230Y-53353029D01*
X98120240Y-53120784D01*
X98120246Y-53120779D01*
X98124162Y-53117892D01*
X98127777Y-53114637D01*
X98127782Y-53114633D01*
X98418622Y-52852759D01*
X98422237Y-52849504D01*
X98508514Y-52755019D01*
X98689424Y-52556897D01*
X98689427Y-52556894D01*
X98692700Y-52553309D01*
X98695608Y-52549422D01*
X98930056Y-52236029D01*
X98930059Y-52236024D01*
X98932968Y-52232136D01*
X98935485Y-52227979D01*
X98935493Y-52227968D01*
X99117589Y-51927290D01*
X99140749Y-51889049D01*
X99314058Y-51527324D01*
X99451243Y-51150413D01*
X99550992Y-50761914D01*
X99552307Y-50753423D01*
X99589665Y-50512105D01*
X99612355Y-50365536D01*
X99629886Y-50051964D01*
X99634474Y-49969911D01*
X99634474Y-49969908D01*
X99634745Y-49965061D01*
X99617949Y-49564313D01*
X99609256Y-49502455D01*
X99571436Y-49233361D01*
X99562126Y-49167116D01*
X99559269Y-49155304D01*
X99506000Y-48935119D01*
X99467811Y-48777263D01*
X99433344Y-48678288D01*
X99337503Y-48403070D01*
X99337502Y-48403067D01*
X99335902Y-48398473D01*
X99167660Y-48034364D01*
X98964690Y-47688409D01*
X98846809Y-47526161D01*
X98731789Y-47367849D01*
X98731786Y-47367845D01*
X98728929Y-47363913D01*
X98725705Y-47360282D01*
X98725698Y-47360273D01*
X98465857Y-47067608D01*
X98462628Y-47063971D01*
X98168329Y-46791447D01*
X97992531Y-46658009D01*
X97935671Y-46590109D01*
X97913903Y-46504263D01*
X97931538Y-46417473D01*
X97985083Y-46346930D01*
X98063934Y-46306605D01*
X98112846Y-46300500D01*
X131749800Y-46300500D01*
X131749800Y-46841150D01*
G37*
%TD.AperFunction*%
%TA.AperFunction,Conductor*%
G36*
X131418819Y-47841607D02*
G01*
X131453621Y-47863024D01*
X131461827Y-47869321D01*
X131461829Y-47869322D01*
X131472175Y-47877261D01*
X131484224Y-47882252D01*
X131484226Y-47882253D01*
X131594041Y-47927739D01*
X131606091Y-47932730D01*
X131736865Y-47949947D01*
X131749800Y-47951650D01*
X131749800Y-54544776D01*
X131606291Y-54563670D01*
X131594242Y-54568661D01*
X131594241Y-54568661D01*
X131484426Y-54614147D01*
X131484424Y-54614148D01*
X131472375Y-54619139D01*
X131462028Y-54627078D01*
X131450729Y-54633602D01*
X131449915Y-54632192D01*
X131382971Y-54662904D01*
X131342320Y-54667100D01*
X125182124Y-54667100D01*
X125095781Y-54647393D01*
X125060979Y-54625976D01*
X125052773Y-54619679D01*
X125052771Y-54619678D01*
X125042425Y-54611739D01*
X125030376Y-54606748D01*
X125030374Y-54606747D01*
X124920559Y-54561261D01*
X124920558Y-54561261D01*
X124908509Y-54556270D01*
X124764800Y-54537350D01*
X124621091Y-54556270D01*
X124500650Y-54606157D01*
X124413340Y-54620991D01*
X124328239Y-54596473D01*
X124262203Y-54537458D01*
X124228311Y-54455636D01*
X124225500Y-54422304D01*
X124225500Y-51332607D01*
X124219863Y-51315257D01*
X124212575Y-51284901D01*
X124212170Y-51282344D01*
X124212168Y-51282339D01*
X124209719Y-51266874D01*
X124201435Y-51250615D01*
X124189488Y-51221772D01*
X124188691Y-51219319D01*
X124188689Y-51219316D01*
X124183849Y-51204419D01*
X124173127Y-51189662D01*
X124156810Y-51163035D01*
X124155637Y-51160732D01*
X124148528Y-51146780D01*
X122132420Y-49130672D01*
X122116161Y-49122387D01*
X122089538Y-49106073D01*
X122074781Y-49095351D01*
X122059884Y-49090511D01*
X122059881Y-49090509D01*
X122057428Y-49089712D01*
X122028585Y-49077765D01*
X122026279Y-49076590D01*
X122026277Y-49076590D01*
X122012326Y-49069481D01*
X121996861Y-49067032D01*
X121996856Y-49067030D01*
X121994299Y-49066625D01*
X121963943Y-49059337D01*
X121961492Y-49058541D01*
X121946593Y-49053700D01*
X119365524Y-49053700D01*
X119279181Y-49033993D01*
X119244379Y-49012576D01*
X119236173Y-49006279D01*
X119236171Y-49006278D01*
X119225825Y-48998339D01*
X119213776Y-48993348D01*
X119213774Y-48993347D01*
X119103959Y-48947861D01*
X119103958Y-48947861D01*
X119091909Y-48942870D01*
X118948200Y-48923950D01*
X118804491Y-48942870D01*
X118792442Y-48947861D01*
X118792441Y-48947861D01*
X118682626Y-48993347D01*
X118682624Y-48993348D01*
X118670575Y-48998339D01*
X118555579Y-49086579D01*
X118467339Y-49201575D01*
X118411870Y-49335491D01*
X118392950Y-49479200D01*
X118411870Y-49622909D01*
X118467339Y-49756825D01*
X118555579Y-49871821D01*
X118642963Y-49938873D01*
X118646286Y-49941423D01*
X118702789Y-50009620D01*
X118724107Y-50095579D01*
X118706018Y-50182275D01*
X118652104Y-50252537D01*
X118573044Y-50292449D01*
X118525142Y-50298300D01*
X118017207Y-50298300D01*
X118002308Y-50303141D01*
X117999857Y-50303937D01*
X117969501Y-50311225D01*
X117966944Y-50311630D01*
X117966939Y-50311632D01*
X117951474Y-50314081D01*
X117937523Y-50321190D01*
X117937521Y-50321190D01*
X117935215Y-50322365D01*
X117906372Y-50334312D01*
X117903919Y-50335109D01*
X117903916Y-50335111D01*
X117889019Y-50339951D01*
X117874262Y-50350673D01*
X117847639Y-50366987D01*
X117831380Y-50375272D01*
X116821672Y-51384980D01*
X116814563Y-51398932D01*
X116813390Y-51401235D01*
X116797073Y-51427862D01*
X116786351Y-51442619D01*
X116781511Y-51457516D01*
X116781509Y-51457519D01*
X116780712Y-51459972D01*
X116768765Y-51488815D01*
X116760481Y-51505074D01*
X116758032Y-51520539D01*
X116758030Y-51520544D01*
X116757625Y-51523101D01*
X116750337Y-51553457D01*
X116744700Y-51570807D01*
X116744700Y-52668676D01*
X116724993Y-52755019D01*
X116703576Y-52789821D01*
X116689339Y-52808375D01*
X116684348Y-52820424D01*
X116684347Y-52820426D01*
X116663851Y-52869909D01*
X116633870Y-52942291D01*
X116614950Y-53086000D01*
X116633870Y-53229709D01*
X116638861Y-53241758D01*
X116638861Y-53241759D01*
X116678173Y-53336667D01*
X116689339Y-53363625D01*
X116777579Y-53478621D01*
X116892575Y-53566861D01*
X116904624Y-53571852D01*
X116904626Y-53571853D01*
X117014441Y-53617339D01*
X117026491Y-53622330D01*
X117170200Y-53641250D01*
X117313909Y-53622330D01*
X117325959Y-53617339D01*
X117435774Y-53571853D01*
X117435776Y-53571852D01*
X117447825Y-53566861D01*
X117562821Y-53478621D01*
X117651061Y-53363625D01*
X117662228Y-53336667D01*
X117701539Y-53241759D01*
X117701539Y-53241758D01*
X117706530Y-53229709D01*
X117725450Y-53086000D01*
X117706530Y-52942291D01*
X117676549Y-52869909D01*
X117656053Y-52820426D01*
X117656052Y-52820424D01*
X117651061Y-52808375D01*
X117636824Y-52789821D01*
X117599896Y-52709324D01*
X117595700Y-52668676D01*
X117595700Y-51896876D01*
X117615407Y-51810533D01*
X117653986Y-51756162D01*
X117730683Y-51679465D01*
X117805671Y-51632346D01*
X117893678Y-51622430D01*
X117977271Y-51651681D01*
X118039895Y-51714305D01*
X118062269Y-51765588D01*
X118063470Y-51774709D01*
X118078309Y-51810533D01*
X118112766Y-51893721D01*
X118118939Y-51908625D01*
X118207179Y-52023621D01*
X118322175Y-52111861D01*
X118334224Y-52116852D01*
X118334226Y-52116853D01*
X118416036Y-52150739D01*
X118456091Y-52167330D01*
X118599800Y-52186250D01*
X118743509Y-52167330D01*
X118783564Y-52150739D01*
X118865374Y-52116853D01*
X118865376Y-52116852D01*
X118877425Y-52111861D01*
X118992421Y-52023621D01*
X119000359Y-52013276D01*
X119000362Y-52013273D01*
X119057847Y-51938357D01*
X119126043Y-51881853D01*
X119215724Y-51860500D01*
X119915480Y-51860500D01*
X120001823Y-51880207D01*
X120071064Y-51935426D01*
X120109491Y-52015218D01*
X120112777Y-52085474D01*
X120094750Y-52222400D01*
X120113670Y-52366109D01*
X120118661Y-52378158D01*
X120118661Y-52378159D01*
X120141447Y-52433169D01*
X120169139Y-52500025D01*
X120257379Y-52615021D01*
X120372375Y-52703261D01*
X120384424Y-52708252D01*
X120384426Y-52708253D01*
X120482182Y-52748744D01*
X120554411Y-52799992D01*
X120597251Y-52877505D01*
X120601958Y-52961309D01*
X120602571Y-52961390D01*
X120602144Y-52964632D01*
X120602144Y-52964638D01*
X120601605Y-52968732D01*
X120601604Y-52968738D01*
X120599518Y-52984579D01*
X120568709Y-53067610D01*
X120542935Y-53099317D01*
X119751472Y-53890780D01*
X119744363Y-53904732D01*
X119743190Y-53907035D01*
X119726873Y-53933662D01*
X119716151Y-53948419D01*
X119711311Y-53963316D01*
X119711309Y-53963319D01*
X119710512Y-53965772D01*
X119698565Y-53994615D01*
X119690281Y-54010874D01*
X119687832Y-54026339D01*
X119687830Y-54026344D01*
X119687425Y-54028901D01*
X119680137Y-54059257D01*
X119674500Y-54076607D01*
X119674500Y-62930969D01*
X119654793Y-63017312D01*
X119599574Y-63086553D01*
X119519782Y-63124980D01*
X119431218Y-63124980D01*
X119351426Y-63086553D01*
X119334786Y-63071683D01*
X116245994Y-59982891D01*
X116230431Y-59965378D01*
X116221283Y-59953773D01*
X116221280Y-59953770D01*
X116212072Y-59942090D01*
X116164753Y-59909386D01*
X116159669Y-59905753D01*
X116125352Y-59880406D01*
X116113384Y-59871566D01*
X116106568Y-59869173D01*
X116100631Y-59865069D01*
X116045788Y-59847724D01*
X116039860Y-59845746D01*
X115999605Y-59831610D01*
X115985569Y-59826681D01*
X115978355Y-59826398D01*
X115971470Y-59824220D01*
X115964863Y-59823700D01*
X115913625Y-59823700D01*
X115905814Y-59823547D01*
X115850206Y-59821362D01*
X115842216Y-59823480D01*
X115838227Y-59823700D01*
X115199500Y-59823700D01*
X115113157Y-59803993D01*
X115043916Y-59748774D01*
X115005489Y-59668982D01*
X115000500Y-59624700D01*
X115000500Y-59481428D01*
X114989636Y-59391653D01*
X114976238Y-59357812D01*
X114939106Y-59264028D01*
X114934113Y-59251417D01*
X114842922Y-59131278D01*
X114722783Y-59040087D01*
X114705643Y-59033301D01*
X114594429Y-58989268D01*
X114594426Y-58989267D01*
X114582547Y-58984564D01*
X114492772Y-58973700D01*
X113907228Y-58973700D01*
X113817453Y-58984564D01*
X113805574Y-58989267D01*
X113805571Y-58989268D01*
X113694357Y-59033301D01*
X113677217Y-59040087D01*
X113557078Y-59131278D01*
X113465887Y-59251417D01*
X113410364Y-59391653D01*
X113407268Y-59390427D01*
X113377026Y-59449513D01*
X113306464Y-59503033D01*
X113219668Y-59520638D01*
X113133829Y-59498840D01*
X113065949Y-59441957D01*
X113029471Y-59361255D01*
X113025500Y-59321697D01*
X113025500Y-58452172D01*
X113045207Y-58365829D01*
X113100426Y-58296588D01*
X113180218Y-58258161D01*
X113268782Y-58258161D01*
X113317930Y-58277450D01*
X113322375Y-58280861D01*
X113456291Y-58336330D01*
X113600000Y-58355250D01*
X113743709Y-58336330D01*
X113755759Y-58331339D01*
X113865574Y-58285853D01*
X113865576Y-58285852D01*
X113877625Y-58280861D01*
X113887971Y-58272922D01*
X113887973Y-58272921D01*
X113896179Y-58266624D01*
X113976676Y-58229696D01*
X114017324Y-58225500D01*
X115178076Y-58225500D01*
X115264419Y-58245207D01*
X115299221Y-58266624D01*
X115307427Y-58272921D01*
X115307429Y-58272922D01*
X115317775Y-58280861D01*
X115329824Y-58285852D01*
X115329826Y-58285853D01*
X115439641Y-58331339D01*
X115451691Y-58336330D01*
X115595400Y-58355250D01*
X115739109Y-58336330D01*
X115751159Y-58331339D01*
X115860974Y-58285853D01*
X115860976Y-58285852D01*
X115873025Y-58280861D01*
X115988021Y-58192621D01*
X116076261Y-58077625D01*
X116086150Y-58053752D01*
X116126739Y-57955759D01*
X116126739Y-57955758D01*
X116131730Y-57943709D01*
X116150650Y-57800000D01*
X116131730Y-57656291D01*
X116085984Y-57545850D01*
X116071151Y-57458541D01*
X116095669Y-57373439D01*
X116154684Y-57307403D01*
X116236506Y-57273511D01*
X116269838Y-57270700D01*
X116956076Y-57270700D01*
X117042419Y-57290407D01*
X117077221Y-57311824D01*
X117085427Y-57318121D01*
X117085429Y-57318122D01*
X117095775Y-57326061D01*
X117107824Y-57331052D01*
X117107826Y-57331053D01*
X117217641Y-57376539D01*
X117229691Y-57381530D01*
X117373400Y-57400450D01*
X117517109Y-57381530D01*
X117529159Y-57376539D01*
X117638974Y-57331053D01*
X117638976Y-57331052D01*
X117651025Y-57326061D01*
X117766021Y-57237821D01*
X117854261Y-57122825D01*
X117861485Y-57105386D01*
X117904739Y-57000959D01*
X117904739Y-57000958D01*
X117909730Y-56988909D01*
X117928650Y-56845200D01*
X117909730Y-56701491D01*
X117898447Y-56674251D01*
X117859253Y-56579626D01*
X117859252Y-56579624D01*
X117854261Y-56567575D01*
X117766021Y-56452579D01*
X117651025Y-56364339D01*
X117638976Y-56359348D01*
X117638974Y-56359347D01*
X117529159Y-56313861D01*
X117529158Y-56313861D01*
X117517109Y-56308870D01*
X117373400Y-56289950D01*
X117229691Y-56308870D01*
X117217642Y-56313861D01*
X117217641Y-56313861D01*
X117107826Y-56359347D01*
X117107824Y-56359348D01*
X117095775Y-56364339D01*
X117085429Y-56372278D01*
X117085427Y-56372279D01*
X117077221Y-56378576D01*
X116996724Y-56415504D01*
X116956076Y-56419700D01*
X114939675Y-56419700D01*
X114853332Y-56399993D01*
X114798961Y-56361414D01*
X114492684Y-56055136D01*
X114184767Y-55747219D01*
X114137648Y-55672230D01*
X114128184Y-55632481D01*
X114126834Y-55622224D01*
X114126831Y-55622214D01*
X114125130Y-55609291D01*
X114082156Y-55505541D01*
X114074653Y-55487426D01*
X114074652Y-55487424D01*
X114069661Y-55475375D01*
X113981421Y-55360379D01*
X113977064Y-55357035D01*
X113932300Y-55285796D01*
X113922384Y-55197789D01*
X113951635Y-55114196D01*
X114014259Y-55051572D01*
X114043980Y-55036218D01*
X114165573Y-54985853D01*
X114177625Y-54980861D01*
X114292621Y-54892621D01*
X114380861Y-54777625D01*
X114389177Y-54757550D01*
X114431339Y-54655759D01*
X114431339Y-54655758D01*
X114436330Y-54643709D01*
X114455250Y-54500000D01*
X114436330Y-54356291D01*
X114429220Y-54339125D01*
X114385853Y-54234426D01*
X114385852Y-54234424D01*
X114380861Y-54222375D01*
X114292621Y-54107379D01*
X114177625Y-54019139D01*
X114165576Y-54014148D01*
X114165574Y-54014147D01*
X114055759Y-53968661D01*
X114055758Y-53968661D01*
X114043709Y-53963670D01*
X113900000Y-53944750D01*
X113826870Y-53954378D01*
X113738694Y-53946110D01*
X113662837Y-53900402D01*
X113614324Y-53826308D01*
X113602764Y-53738502D01*
X113630446Y-53654376D01*
X113660181Y-53616367D01*
X115548528Y-51728020D01*
X115556813Y-51711761D01*
X115573130Y-51685134D01*
X115574642Y-51683053D01*
X115583849Y-51670381D01*
X115588689Y-51655484D01*
X115588691Y-51655481D01*
X115589488Y-51653028D01*
X115601435Y-51624185D01*
X115602610Y-51621879D01*
X115602610Y-51621877D01*
X115609719Y-51607926D01*
X115612168Y-51592461D01*
X115612170Y-51592456D01*
X115612575Y-51589899D01*
X115619863Y-51559543D01*
X115620659Y-51557092D01*
X115625500Y-51542193D01*
X115625500Y-50967324D01*
X115645207Y-50880981D01*
X115666624Y-50846179D01*
X115672921Y-50837973D01*
X115672922Y-50837971D01*
X115680861Y-50827625D01*
X115705832Y-50767339D01*
X115748970Y-50702778D01*
X118571562Y-47880186D01*
X118646550Y-47833067D01*
X118712276Y-47821900D01*
X131332476Y-47821900D01*
X131418819Y-47841607D01*
G37*
%TD.AperFunction*%
%TA.AperFunction,Conductor*%
G36*
X131368019Y-58128607D02*
G01*
X131402821Y-58150024D01*
X131411027Y-58156321D01*
X131411029Y-58156322D01*
X131421375Y-58164261D01*
X131433424Y-58169252D01*
X131433426Y-58169253D01*
X131509007Y-58200559D01*
X131555291Y-58219730D01*
X131699000Y-58238650D01*
X131711935Y-58236947D01*
X131749800Y-58231962D01*
X131749800Y-62538350D01*
X131606091Y-62557270D01*
X131594042Y-62562261D01*
X131594041Y-62562261D01*
X131484226Y-62607747D01*
X131484224Y-62607748D01*
X131472175Y-62612739D01*
X131461829Y-62620678D01*
X131461827Y-62620679D01*
X131453621Y-62626976D01*
X131373124Y-62663904D01*
X131332476Y-62668100D01*
X125152276Y-62668100D01*
X125065933Y-62648393D01*
X125011562Y-62609814D01*
X124283786Y-61882038D01*
X124236667Y-61807050D01*
X124225500Y-61741324D01*
X124225500Y-58308532D01*
X124245207Y-58222189D01*
X124300426Y-58152948D01*
X124380218Y-58114521D01*
X124468782Y-58114521D01*
X124545646Y-58150657D01*
X124563375Y-58164261D01*
X124575424Y-58169252D01*
X124575426Y-58169253D01*
X124651007Y-58200559D01*
X124697291Y-58219730D01*
X124841000Y-58238650D01*
X124984709Y-58219730D01*
X125030993Y-58200559D01*
X125106574Y-58169253D01*
X125106576Y-58169252D01*
X125118625Y-58164261D01*
X125128971Y-58156322D01*
X125128973Y-58156321D01*
X125137179Y-58150024D01*
X125217676Y-58113096D01*
X125258324Y-58108900D01*
X131281676Y-58108900D01*
X131368019Y-58128607D01*
G37*
%TD.AperFunction*%
%TA.AperFunction,Conductor*%
G36*
X131409375Y-55537807D02*
G01*
X131444176Y-55559223D01*
X131472375Y-55580861D01*
X131484424Y-55585852D01*
X131484426Y-55585853D01*
X131594241Y-55631339D01*
X131606291Y-55636330D01*
X131732310Y-55652921D01*
X131737065Y-55653547D01*
X131749800Y-55655224D01*
X131749800Y-57134838D01*
X131711935Y-57129853D01*
X131699000Y-57128150D01*
X131555291Y-57147070D01*
X131543242Y-57152061D01*
X131543241Y-57152061D01*
X131433426Y-57197547D01*
X131433424Y-57197548D01*
X131421375Y-57202539D01*
X131411029Y-57210478D01*
X131411027Y-57210479D01*
X131402821Y-57216776D01*
X131322324Y-57253704D01*
X131281676Y-57257900D01*
X125258324Y-57257900D01*
X125171981Y-57238193D01*
X125137179Y-57216776D01*
X125128973Y-57210479D01*
X125128971Y-57210478D01*
X125118625Y-57202539D01*
X125106576Y-57197548D01*
X125106574Y-57197547D01*
X124996759Y-57152061D01*
X124996758Y-57152061D01*
X124984709Y-57147070D01*
X124841000Y-57128150D01*
X124697291Y-57147070D01*
X124685242Y-57152061D01*
X124685241Y-57152061D01*
X124575426Y-57197547D01*
X124575424Y-57197548D01*
X124563375Y-57202539D01*
X124553027Y-57210480D01*
X124553026Y-57210480D01*
X124545646Y-57216143D01*
X124465150Y-57253072D01*
X124376602Y-57251418D01*
X124297541Y-57211508D01*
X124243626Y-57141247D01*
X124225500Y-57058268D01*
X124225500Y-55762896D01*
X124245207Y-55676553D01*
X124300426Y-55607312D01*
X124380218Y-55568885D01*
X124468782Y-55568885D01*
X124500646Y-55579041D01*
X124621091Y-55628930D01*
X124764800Y-55647850D01*
X124908509Y-55628930D01*
X124924699Y-55622224D01*
X125030374Y-55578453D01*
X125030376Y-55578452D01*
X125042425Y-55573461D01*
X125052771Y-55565522D01*
X125052773Y-55565521D01*
X125060979Y-55559224D01*
X125141476Y-55522296D01*
X125182124Y-55518100D01*
X131323032Y-55518100D01*
X131409375Y-55537807D01*
G37*
%TD.AperFunction*%
%TD*%
%TA.AperFunction,NonConductor*%
G36*
X145003915Y-87319707D02*
G01*
X145058286Y-87358286D01*
X145641214Y-87941214D01*
X145688333Y-88016202D01*
X145699500Y-88081928D01*
X145699500Y-93468072D01*
X145679793Y-93554415D01*
X145641214Y-93608786D01*
X145058286Y-94191714D01*
X144983298Y-94238833D01*
X144917572Y-94250000D01*
X138757428Y-94250000D01*
X138671085Y-94230293D01*
X138616714Y-94191714D01*
X138057186Y-93632186D01*
X138010067Y-93557198D01*
X137998900Y-93491472D01*
X137998900Y-90163540D01*
X137993030Y-90103940D01*
X137977324Y-90024981D01*
X137973500Y-89986158D01*
X137973500Y-88083928D01*
X137993207Y-87997585D01*
X138031786Y-87943214D01*
X138616714Y-87358286D01*
X138691702Y-87311167D01*
X138757428Y-87300000D01*
X144917572Y-87300000D01*
X145003915Y-87319707D01*
G37*
%TD.AperFunction*%
%TA.AperFunction,NonConductor*%
G36*
X145003915Y-55019707D02*
G01*
X145058286Y-55058286D01*
X145641214Y-55641214D01*
X145688333Y-55716202D01*
X145699500Y-55781928D01*
X145699500Y-61168072D01*
X145679793Y-61254415D01*
X145641214Y-61308786D01*
X145058286Y-61891714D01*
X144983298Y-61938833D01*
X144917572Y-61950000D01*
X138757428Y-61950000D01*
X138671085Y-61930293D01*
X138616714Y-61891714D01*
X138031786Y-61306786D01*
X137984667Y-61231798D01*
X137973500Y-61166072D01*
X137973500Y-55783928D01*
X137993207Y-55697585D01*
X138031786Y-55643214D01*
X138616714Y-55058286D01*
X138691702Y-55011167D01*
X138757428Y-55000000D01*
X144917572Y-55000000D01*
X145003915Y-55019707D01*
G37*
%TD.AperFunction*%
%TA.AperFunction,NonConductor*%
G36*
X73353915Y-80044707D02*
G01*
X73408286Y-80083286D01*
X74007414Y-80682414D01*
X74054533Y-80757402D01*
X74065700Y-80823128D01*
X74065700Y-86176872D01*
X74045993Y-86263215D01*
X74007414Y-86317586D01*
X73408286Y-86916714D01*
X73333298Y-86963833D01*
X73267572Y-86975000D01*
X67107428Y-86975000D01*
X67021085Y-86955293D01*
X66966714Y-86916714D01*
X66358786Y-86308786D01*
X66311667Y-86233798D01*
X66300500Y-86168072D01*
X66300500Y-80831928D01*
X66320207Y-80745585D01*
X66358786Y-80691214D01*
X66966714Y-80083286D01*
X67041702Y-80036167D01*
X67107428Y-80025000D01*
X73267572Y-80025000D01*
X73353915Y-80044707D01*
G37*
%TD.AperFunction*%
%TA.AperFunction,NonConductor*%
G36*
X145003915Y-71194707D02*
G01*
X145058286Y-71233286D01*
X145641214Y-71816214D01*
X145688333Y-71891202D01*
X145699500Y-71956928D01*
X145699500Y-77343072D01*
X145679793Y-77429415D01*
X145641214Y-77483786D01*
X145058286Y-78066714D01*
X144983298Y-78113833D01*
X144917572Y-78125000D01*
X138757428Y-78125000D01*
X138671085Y-78105293D01*
X138616714Y-78066714D01*
X138031786Y-77481786D01*
X137984667Y-77406798D01*
X137973500Y-77341072D01*
X137973500Y-71958928D01*
X137993207Y-71872585D01*
X138031786Y-71818214D01*
X138616714Y-71233286D01*
X138691702Y-71186167D01*
X138757428Y-71175000D01*
X144917572Y-71175000D01*
X145003915Y-71194707D01*
G37*
%TD.AperFunction*%
%TA.AperFunction,NonConductor*%
G36*
X73378915Y-47744707D02*
G01*
X73433286Y-47783286D01*
X74007414Y-48357414D01*
X74054533Y-48432402D01*
X74065700Y-48498128D01*
X74065700Y-53901872D01*
X74045993Y-53988215D01*
X74007414Y-54042586D01*
X73433286Y-54616714D01*
X73358298Y-54663833D01*
X73292572Y-54675000D01*
X67132428Y-54675000D01*
X67046085Y-54655293D01*
X66991714Y-54616714D01*
X66358786Y-53983786D01*
X66311667Y-53908798D01*
X66300500Y-53843072D01*
X66300500Y-48556928D01*
X66320207Y-48470585D01*
X66358786Y-48416214D01*
X66991714Y-47783286D01*
X67066702Y-47736167D01*
X67132428Y-47725000D01*
X73292572Y-47725000D01*
X73378915Y-47744707D01*
G37*
%TD.AperFunction*%
%TA.AperFunction,NonConductor*%
G36*
X73353915Y-63894707D02*
G01*
X73408286Y-63933286D01*
X74007414Y-64532414D01*
X74054533Y-64607402D01*
X74065700Y-64673128D01*
X74065700Y-70026872D01*
X74045993Y-70113215D01*
X74007414Y-70167586D01*
X73408286Y-70766714D01*
X73333298Y-70813833D01*
X73267572Y-70825000D01*
X67107428Y-70825000D01*
X67021085Y-70805293D01*
X66966714Y-70766714D01*
X66358786Y-70158786D01*
X66311667Y-70083798D01*
X66300500Y-70018072D01*
X66300500Y-64681928D01*
X66320207Y-64595585D01*
X66358786Y-64541214D01*
X66966714Y-63933286D01*
X67041702Y-63886167D01*
X67107428Y-63875000D01*
X73267572Y-63875000D01*
X73353915Y-63894707D01*
G37*
%TD.AperFunction*%
M02*
