M48
; DRILL file {KiCad (6.0.5)} date Tue Aug  8 13:07:36 2023
; FORMAT={-:-/ absolute / metric / decimal}
; #@! TF.CreationDate,2023-08-08T13:07:36+01:00
; #@! TF.GenerationSoftware,Kicad,Pcbnew,(6.0.5)
; #@! TF.FileFunction,Plated,1,2,PTH
FMAT,2
METRIC
; #@! TA.AperFunction,Plated,PTH,ViaDrill
T1C0.300
; #@! TA.AperFunction,Plated,PTH,ComponentDrill
T2C0.750
; #@! TA.AperFunction,Plated,PTH,ComponentDrill
T3C0.800
; #@! TA.AperFunction,Plated,PTH,ComponentDrill
T4C1.000
; #@! TA.AperFunction,Plated,PTH,ComponentDrill
T5C2.500
%
G90
G05
T1
X75.209Y-85.369
X75.209Y-87.96
X75.26Y-52.603
X75.286Y-69.113
X75.286Y-72.034
X75.286Y-81.204
X75.286Y-83.363
X75.3Y-67.05
X75.489Y-50.952
X75.489Y-65.024
X75.514Y-48.895
X77.191Y-50.14
X77.191Y-51.841
X77.191Y-63.856
X77.191Y-66.294
X77.2Y-84.45
X77.216Y-68.072
X77.216Y-79.985
X77.216Y-82.499
X77.241Y-47.447
X78.334Y-50.876
X78.842Y-68.199
X78.9Y-80.4
X78.943Y-84.43
X79.0Y-65.0
X79.019Y-48.895
X79.121Y-52.603
X79.248Y-69.621
X79.959Y-86.563
X80.289Y-63.449
X80.289Y-64.262
X80.289Y-84.938
X80.315Y-62.611
X80.4Y-68.021
X80.6Y-85.725
X80.67Y-68.809
X87.173Y-80.391
X87.249Y-68.021
X87.249Y-69.621
X87.249Y-84.938
X87.249Y-86.563
X87.325Y-62.636
X87.325Y-63.449
X88.0Y-71.2
X88.9Y-71.2
X88.925Y-83.693
X89.6Y-65.7
X89.7Y-84.6
X89.865Y-68.631
X90.475Y-86.284
X90.602Y-84.049
X91.3Y-66.1
X91.948Y-64.592
X92.7Y-84.2
X93.0Y-78.276
X93.45Y-76.35
X93.5Y-83.8
X93.8Y-81.1
X93.8Y-82.509
X94.971Y-72.111
X95.123Y-61.112
X95.199Y-88.29
X95.2Y-65.3
X95.3Y-66.2
X95.7Y-77.6
X95.987Y-65.075
X96.064Y-74.776
X96.3Y-80.0
X96.65Y-83.85
X97.2Y-79.1
X97.333Y-86.309
X97.95Y-59.05
X98.2Y-78.0
X98.3Y-76.2
X98.85Y-71.85
X99.0Y-78.4
X99.0Y-82.0
X99.25Y-76.05
X100.1Y-62.3
X100.1Y-86.55
X100.154Y-79.2
X100.2Y-61.3
X101.5Y-68.4
X102.1Y-54.9
X102.1Y-58.928
X102.161Y-73.812
X102.286Y-67.666
X103.2Y-54.915
X103.302Y-67.716
X103.353Y-65.405
X103.474Y-57.3
X104.4Y-76.95
X104.6Y-67.7
X104.604Y-74.204
X104.851Y-61.57
X105.181Y-73.6
X105.547Y-56.805
X106.15Y-75.75
X106.35Y-70.383
X106.375Y-63.195
X106.55Y-49.35
X106.7Y-75.2
X107.2Y-62.4
X107.35Y-47.5
X107.35Y-51.2
X107.975Y-55.728
X108.35Y-62.15
X108.93Y-68.315
X111.15Y-78.45
X111.3Y-51.7
X111.963Y-73.431
X112.236Y-50.519
X112.979Y-51.421
X113.005Y-53.67
X113.589Y-55.753
X113.6Y-57.8
X113.9Y-54.5
X115.2Y-50.55
X115.595Y-57.8
X116.05Y-61.9
X116.762Y-83.0
X117.17Y-53.086
X117.373Y-56.845
X118.55Y-61.25
X118.6Y-51.631
X118.948Y-49.479
X119.45Y-88.0
X120.65Y-52.222
X120.971Y-58.776
X121.139Y-53.105
X122.072Y-77.876
X122.123Y-76.048
X122.22Y-81.42
X122.479Y-73.025
X122.987Y-52.045
X123.114Y-58.217
X123.114Y-70.663
X123.7Y-86.7
X124.765Y-55.093
X124.841Y-57.683
X124.841Y-59.639
X124.841Y-71.78
X124.85Y-61.25
X124.866Y-73.685
X124.892Y-78.384
X124.917Y-77.038
X131.4Y-73.15
X131.65Y-77.8
X131.65Y-78.85
X131.699Y-57.683
X131.75Y-47.396
X131.75Y-63.094
X131.75Y-55.1
X131.975Y-72.1
X132.35Y-91.15
X132.75Y-77.05
X132.867Y-73.33
X133.02Y-62.586
X133.071Y-60.757
X133.071Y-78.105
X133.15Y-90.0
X133.15Y-92.55
X133.45Y-76.05
X133.655Y-58.268
X133.68Y-79.934
X133.68Y-95.199
X134.747Y-62.052
X134.798Y-59.538
X134.798Y-73.889
X134.798Y-75.768
X134.798Y-78.08
X134.798Y-91.872
X134.849Y-94.234
X135.026Y-57.582
X136.169Y-58.674
X136.3Y-74.4
X136.525Y-76.937
X136.601Y-90.018
X136.601Y-93.066
X136.627Y-78.689
X136.652Y-60.731
X136.677Y-56.515
X136.677Y-72.39
X136.703Y-69.723
X136.728Y-53.746
X136.779Y-88.367
X136.804Y-86.03
X136.982Y-62.205
T2
X106.4Y-80.5
X106.4Y-81.77
X106.4Y-83.04
X111.39Y-80.48
X111.39Y-81.75
X111.39Y-83.02
T3
X102.55Y-81.95
X102.55Y-83.95
X102.55Y-85.95
X102.55Y-87.95
X105.55Y-87.95
X107.55Y-87.95
X109.55Y-87.95
X111.55Y-87.95
X113.55Y-87.95
X115.55Y-87.95
X117.55Y-87.95
T4
X80.792Y-48.032
X83.332Y-48.032
X89.408Y-49.002
X89.408Y-51.542
X89.408Y-54.082
X89.408Y-56.622
X89.408Y-59.162
T5
X71.7Y-58.5
X71.75Y-74.65
X71.75Y-90.8
X140.15Y-51.15
X140.2Y-67.25
X140.2Y-83.45
T0
M30
