%TF.GenerationSoftware,KiCad,Pcbnew,(6.0.5)*%
%TF.CreationDate,2023-08-08T13:01:53+01:00*%
%TF.ProjectId,Melty,4d656c74-792e-46b6-9963-61645f706362,rev?*%
%TF.SameCoordinates,Original*%
%TF.FileFunction,Legend,Top*%
%TF.FilePolarity,Positive*%
%FSLAX46Y46*%
G04 Gerber Fmt 4.6, Leading zero omitted, Abs format (unit mm)*
G04 Created by KiCad (PCBNEW (6.0.5)) date 2023-08-08 13:01:53*
%MOMM*%
%LPD*%
G01*
G04 APERTURE LIST*
%ADD10C,0.150000*%
%ADD11C,0.300000*%
%ADD12C,0.100000*%
%ADD13C,0.130000*%
%ADD14C,0.160000*%
%ADD15C,0.125000*%
%ADD16C,0.120000*%
%ADD17C,0.200000*%
G04 APERTURE END LIST*
D10*
X91337500Y-51825000D02*
X91337500Y-51300000D01*
X91337500Y-51300000D02*
X91750000Y-51300000D01*
D11*
X90750001Y-78050000D02*
G75*
G03*
X90750001Y-78050000I-1J0D01*
G01*
D10*
X93150000Y-73350000D02*
X92300000Y-74250000D01*
D12*
G36*
X109800000Y-73250000D02*
G01*
X109300000Y-73250000D01*
X109300000Y-72750000D01*
X109800000Y-73250000D01*
G37*
X109800000Y-73250000D02*
X109300000Y-73250000D01*
X109300000Y-72750000D01*
X109800000Y-73250000D01*
D10*
X91750000Y-51825000D02*
X92050000Y-51825000D01*
D11*
X116800001Y-57250000D02*
G75*
G03*
X116800001Y-57250000I-1J0D01*
G01*
D10*
X91750000Y-51300000D02*
X91750000Y-51825000D01*
D11*
X90100001Y-74200000D02*
G75*
G03*
X90100001Y-74200000I-1J0D01*
G01*
D10*
X92300000Y-74250000D02*
X92800000Y-74250000D01*
X92300000Y-74250000D02*
X92300000Y-73750000D01*
X92202000Y-68884800D02*
G75*
G03*
X92202000Y-68884800I-25400J0D01*
G01*
X91050000Y-51825000D02*
X91337500Y-51825000D01*
D13*
X98849939Y-61571592D02*
X98900446Y-61672607D01*
X99026716Y-61798876D01*
X99102477Y-61824130D01*
X99152985Y-61824130D01*
X99228746Y-61798876D01*
X99279254Y-61748368D01*
X99304508Y-61672607D01*
X99304508Y-61622099D01*
X99279254Y-61546338D01*
X99203492Y-61420069D01*
X99178238Y-61344307D01*
X99178238Y-61293800D01*
X99203492Y-61218038D01*
X99254000Y-61167531D01*
X99329761Y-61142277D01*
X99380269Y-61142277D01*
X99456030Y-61167531D01*
X99582299Y-61293800D01*
X99632807Y-61394815D01*
X99809584Y-61521084D02*
X100112630Y-61824130D01*
X99430777Y-62202937D02*
X99961107Y-61672607D01*
X100617706Y-62329206D02*
X100920752Y-62632252D01*
X100238899Y-63011059D02*
X100769229Y-62480729D01*
X100844990Y-63061567D02*
X101021767Y-63238343D01*
X100819736Y-63591897D02*
X100567198Y-63339359D01*
X101097528Y-62809029D01*
X101350066Y-63061567D01*
X101526843Y-63238343D02*
X101350066Y-64122227D01*
X101880396Y-63591897D02*
X100996513Y-63768673D01*
X102006666Y-63718166D02*
X102309711Y-64021212D01*
X101627858Y-64400019D02*
X102158188Y-63869689D01*
X98450677Y-61869839D02*
X98753722Y-62172885D01*
X98071869Y-62551692D02*
X98602199Y-62021362D01*
X98400169Y-62879991D02*
X98930499Y-62349661D01*
X98677961Y-62602199D02*
X98981007Y-62905245D01*
X98703215Y-63183037D02*
X99233545Y-62652707D01*
X98955753Y-63435575D02*
X99486083Y-62905245D01*
X99208291Y-63637606D02*
X99258799Y-63738621D01*
X99385068Y-63864890D01*
X99460829Y-63890144D01*
X99511337Y-63890144D01*
X99587098Y-63864890D01*
X99637606Y-63814382D01*
X99662860Y-63738621D01*
X99662860Y-63688113D01*
X99637606Y-63612352D01*
X99561844Y-63486083D01*
X99536590Y-63410321D01*
X99536590Y-63359814D01*
X99561844Y-63284052D01*
X99612352Y-63233545D01*
X99688113Y-63208291D01*
X99738621Y-63208291D01*
X99814382Y-63233545D01*
X99940652Y-63359814D01*
X99991159Y-63460829D01*
X100597251Y-64016413D02*
X100193190Y-64673012D01*
X100673012Y-64395220D01*
X100395220Y-64875043D01*
X101051819Y-64470982D01*
X100849789Y-65026565D02*
X101102327Y-65279104D01*
X100647758Y-65127581D02*
X101354865Y-64774027D01*
X101001312Y-65481134D01*
X101531642Y-65506388D02*
X101279104Y-65758926D01*
X101632657Y-65051819D02*
X101531642Y-65506388D01*
X101986210Y-65405373D01*
X97672607Y-62799431D02*
X97243292Y-63228746D01*
X97218038Y-63304508D01*
X97218038Y-63355015D01*
X97243292Y-63430777D01*
X97344307Y-63531792D01*
X97420069Y-63557046D01*
X97470576Y-63557046D01*
X97546338Y-63531792D01*
X97975653Y-63102477D01*
X97697861Y-63885345D02*
X98228191Y-63355015D01*
X98430221Y-63557046D01*
X98455475Y-63632807D01*
X98455475Y-63683315D01*
X98430221Y-63759076D01*
X98354460Y-63834838D01*
X98278698Y-63860091D01*
X98228191Y-63860091D01*
X98152429Y-63834838D01*
X97950399Y-63632807D01*
D10*
X90192857Y-47554761D02*
X90335714Y-47602380D01*
X90573809Y-47602380D01*
X90669047Y-47554761D01*
X90716666Y-47507142D01*
X90764285Y-47411904D01*
X90764285Y-47316666D01*
X90716666Y-47221428D01*
X90669047Y-47173809D01*
X90573809Y-47126190D01*
X90383333Y-47078571D01*
X90288095Y-47030952D01*
X90240476Y-46983333D01*
X90192857Y-46888095D01*
X90192857Y-46792857D01*
X90240476Y-46697619D01*
X90288095Y-46650000D01*
X90383333Y-46602380D01*
X90621428Y-46602380D01*
X90764285Y-46650000D01*
X91097619Y-46602380D02*
X91335714Y-47602380D01*
X91526190Y-46888095D01*
X91716666Y-47602380D01*
X91954761Y-46602380D01*
X92335714Y-47602380D02*
X92335714Y-46602380D01*
X92573809Y-46602380D01*
X92716666Y-46650000D01*
X92811904Y-46745238D01*
X92859523Y-46840476D01*
X92907142Y-47030952D01*
X92907142Y-47173809D01*
X92859523Y-47364285D01*
X92811904Y-47459523D01*
X92716666Y-47554761D01*
X92573809Y-47602380D01*
X92335714Y-47602380D01*
X87021428Y-89771428D02*
X87859523Y-89771428D01*
X87440476Y-90152380D02*
X87440476Y-89390476D01*
X88750000Y-89628571D02*
X88907142Y-89676190D01*
X88959523Y-89723809D01*
X89011904Y-89819047D01*
X89011904Y-89961904D01*
X88959523Y-90057142D01*
X88907142Y-90104761D01*
X88802380Y-90152380D01*
X88383333Y-90152380D01*
X88383333Y-89152380D01*
X88750000Y-89152380D01*
X88854761Y-89200000D01*
X88907142Y-89247619D01*
X88959523Y-89342857D01*
X88959523Y-89438095D01*
X88907142Y-89533333D01*
X88854761Y-89580952D01*
X88750000Y-89628571D01*
X88383333Y-89628571D01*
X89430952Y-89866666D02*
X89954761Y-89866666D01*
X89326190Y-90152380D02*
X89692857Y-89152380D01*
X90059523Y-90152380D01*
X90269047Y-89152380D02*
X90897619Y-89152380D01*
X90583333Y-90152380D02*
X90583333Y-89152380D01*
X91107142Y-89152380D02*
X91735714Y-89152380D01*
X91421428Y-90152380D02*
X91421428Y-89152380D01*
D11*
X110275000Y-75203571D02*
X110275000Y-73703571D01*
X110846428Y-73703571D01*
X110989285Y-73775000D01*
X111060714Y-73846428D01*
X111132142Y-73989285D01*
X111132142Y-74203571D01*
X111060714Y-74346428D01*
X110989285Y-74417857D01*
X110846428Y-74489285D01*
X110275000Y-74489285D01*
X111632142Y-73703571D02*
X111989285Y-75203571D01*
X112275000Y-74132142D01*
X112560714Y-75203571D01*
X112917857Y-73703571D01*
X114346428Y-75203571D02*
X113846428Y-74489285D01*
X113489285Y-75203571D02*
X113489285Y-73703571D01*
X114060714Y-73703571D01*
X114203571Y-73775000D01*
X114275000Y-73846428D01*
X114346428Y-73989285D01*
X114346428Y-74203571D01*
X114275000Y-74346428D01*
X114203571Y-74417857D01*
X114060714Y-74489285D01*
X113489285Y-74489285D01*
D10*
X91019047Y-59554761D02*
X91161904Y-59602380D01*
X91400000Y-59602380D01*
X91495238Y-59554761D01*
X91542857Y-59507142D01*
X91590476Y-59411904D01*
X91590476Y-59316666D01*
X91542857Y-59221428D01*
X91495238Y-59173809D01*
X91400000Y-59126190D01*
X91209523Y-59078571D01*
X91114285Y-59030952D01*
X91066666Y-58983333D01*
X91019047Y-58888095D01*
X91019047Y-58792857D01*
X91066666Y-58697619D01*
X91114285Y-58650000D01*
X91209523Y-58602380D01*
X91447619Y-58602380D01*
X91590476Y-58650000D01*
X91923809Y-58602380D02*
X92161904Y-59602380D01*
X92352380Y-58888095D01*
X92542857Y-59602380D01*
X92780952Y-58602380D01*
X93352380Y-58602380D02*
X93542857Y-58602380D01*
X93638095Y-58650000D01*
X93733333Y-58745238D01*
X93780952Y-58935714D01*
X93780952Y-59269047D01*
X93733333Y-59459523D01*
X93638095Y-59554761D01*
X93542857Y-59602380D01*
X93352380Y-59602380D01*
X93257142Y-59554761D01*
X93161904Y-59459523D01*
X93114285Y-59269047D01*
X93114285Y-58935714D01*
X93161904Y-58745238D01*
X93257142Y-58650000D01*
X93352380Y-58602380D01*
D14*
X95580952Y-66152380D02*
X95580952Y-66866666D01*
X95533333Y-67009523D01*
X95438095Y-67104761D01*
X95295238Y-67152380D01*
X95200000Y-67152380D01*
X96533333Y-67152380D02*
X96057142Y-67152380D01*
X96057142Y-66152380D01*
X97438095Y-67057142D02*
X97390476Y-67104761D01*
X97247619Y-67152380D01*
X97152380Y-67152380D01*
X97009523Y-67104761D01*
X96914285Y-67009523D01*
X96866666Y-66914285D01*
X96819047Y-66723809D01*
X96819047Y-66580952D01*
X96866666Y-66390476D01*
X96914285Y-66295238D01*
X97009523Y-66200000D01*
X97152380Y-66152380D01*
X97247619Y-66152380D01*
X97390476Y-66200000D01*
X97438095Y-66247619D01*
X98152380Y-66152380D02*
X98152380Y-66866666D01*
X98104761Y-67009523D01*
X98009523Y-67104761D01*
X97866666Y-67152380D01*
X97771428Y-67152380D01*
X99104761Y-67152380D02*
X98628571Y-67152380D01*
X98628571Y-66152380D01*
X100009523Y-67057142D02*
X99961904Y-67104761D01*
X99819047Y-67152380D01*
X99723809Y-67152380D01*
X99580952Y-67104761D01*
X99485714Y-67009523D01*
X99438095Y-66914285D01*
X99390476Y-66723809D01*
X99390476Y-66580952D01*
X99438095Y-66390476D01*
X99485714Y-66295238D01*
X99580952Y-66200000D01*
X99723809Y-66152380D01*
X99819047Y-66152380D01*
X99961904Y-66200000D01*
X100009523Y-66247619D01*
X100723809Y-66152380D02*
X100723809Y-66866666D01*
X100676190Y-67009523D01*
X100580952Y-67104761D01*
X100438095Y-67152380D01*
X100342857Y-67152380D01*
X101676190Y-67152380D02*
X101200000Y-67152380D01*
X101200000Y-66152380D01*
X102580952Y-67057142D02*
X102533333Y-67104761D01*
X102390476Y-67152380D01*
X102295238Y-67152380D01*
X102152380Y-67104761D01*
X102057142Y-67009523D01*
X102009523Y-66914285D01*
X101961904Y-66723809D01*
X101961904Y-66580952D01*
X102009523Y-66390476D01*
X102057142Y-66295238D01*
X102152380Y-66200000D01*
X102295238Y-66152380D01*
X102390476Y-66152380D01*
X102533333Y-66200000D01*
X102580952Y-66247619D01*
X103295238Y-66152380D02*
X103295238Y-66866666D01*
X103247619Y-67009523D01*
X103152380Y-67104761D01*
X103009523Y-67152380D01*
X102914285Y-67152380D01*
X104247619Y-67152380D02*
X103771428Y-67152380D01*
X103771428Y-66152380D01*
X105152380Y-67057142D02*
X105104761Y-67104761D01*
X104961904Y-67152380D01*
X104866666Y-67152380D01*
X104723809Y-67104761D01*
X104628571Y-67009523D01*
X104580952Y-66914285D01*
X104533333Y-66723809D01*
X104533333Y-66580952D01*
X104580952Y-66390476D01*
X104628571Y-66295238D01*
X104723809Y-66200000D01*
X104866666Y-66152380D01*
X104961904Y-66152380D01*
X105104761Y-66200000D01*
X105152380Y-66247619D01*
D10*
X91169047Y-49071428D02*
X91930952Y-49071428D01*
X91550000Y-49452380D02*
X91550000Y-48690476D01*
X90980952Y-57054761D02*
X91123809Y-57102380D01*
X91361904Y-57102380D01*
X91457142Y-57054761D01*
X91504761Y-57007142D01*
X91552380Y-56911904D01*
X91552380Y-56816666D01*
X91504761Y-56721428D01*
X91457142Y-56673809D01*
X91361904Y-56626190D01*
X91171428Y-56578571D01*
X91076190Y-56530952D01*
X91028571Y-56483333D01*
X90980952Y-56388095D01*
X90980952Y-56292857D01*
X91028571Y-56197619D01*
X91076190Y-56150000D01*
X91171428Y-56102380D01*
X91409523Y-56102380D01*
X91552380Y-56150000D01*
X91885714Y-56102380D02*
X92123809Y-57102380D01*
X92314285Y-56388095D01*
X92504761Y-57102380D01*
X92742857Y-56102380D01*
X93123809Y-57102380D02*
X93123809Y-56102380D01*
X93361904Y-56102380D01*
X93504761Y-56150000D01*
X93600000Y-56245238D01*
X93647619Y-56340476D01*
X93695238Y-56530952D01*
X93695238Y-56673809D01*
X93647619Y-56864285D01*
X93600000Y-56959523D01*
X93504761Y-57054761D01*
X93361904Y-57102380D01*
X93123809Y-57102380D01*
X94123809Y-57102380D02*
X94123809Y-56102380D01*
X94790476Y-56102380D02*
X94980952Y-56102380D01*
X95076190Y-56150000D01*
X95171428Y-56245238D01*
X95219047Y-56435714D01*
X95219047Y-56769047D01*
X95171428Y-56959523D01*
X95076190Y-57054761D01*
X94980952Y-57102380D01*
X94790476Y-57102380D01*
X94695238Y-57054761D01*
X94600000Y-56959523D01*
X94552380Y-56769047D01*
X94552380Y-56435714D01*
X94600000Y-56245238D01*
X94695238Y-56150000D01*
X94790476Y-56102380D01*
X91169047Y-54171428D02*
X91930952Y-54171428D01*
D15*
%TO.C,C16*%
X114717857Y-55217857D02*
X114682142Y-55253571D01*
X114575000Y-55289285D01*
X114503571Y-55289285D01*
X114396428Y-55253571D01*
X114325000Y-55182142D01*
X114289285Y-55110714D01*
X114253571Y-54967857D01*
X114253571Y-54860714D01*
X114289285Y-54717857D01*
X114325000Y-54646428D01*
X114396428Y-54575000D01*
X114503571Y-54539285D01*
X114575000Y-54539285D01*
X114682142Y-54575000D01*
X114717857Y-54610714D01*
X115432142Y-55289285D02*
X115003571Y-55289285D01*
X115217857Y-55289285D02*
X115217857Y-54539285D01*
X115146428Y-54646428D01*
X115075000Y-54717857D01*
X115003571Y-54753571D01*
X116075000Y-54539285D02*
X115932142Y-54539285D01*
X115860714Y-54575000D01*
X115825000Y-54610714D01*
X115753571Y-54717857D01*
X115717857Y-54860714D01*
X115717857Y-55146428D01*
X115753571Y-55217857D01*
X115789285Y-55253571D01*
X115860714Y-55289285D01*
X116003571Y-55289285D01*
X116075000Y-55253571D01*
X116110714Y-55217857D01*
X116146428Y-55146428D01*
X116146428Y-54967857D01*
X116110714Y-54896428D01*
X116075000Y-54860714D01*
X116003571Y-54825000D01*
X115860714Y-54825000D01*
X115789285Y-54860714D01*
X115753571Y-54896428D01*
X115717857Y-54967857D01*
%TO.C,R23*%
X117119857Y-47938885D02*
X116869857Y-47581742D01*
X116691285Y-47938885D02*
X116691285Y-47188885D01*
X116977000Y-47188885D01*
X117048428Y-47224600D01*
X117084142Y-47260314D01*
X117119857Y-47331742D01*
X117119857Y-47438885D01*
X117084142Y-47510314D01*
X117048428Y-47546028D01*
X116977000Y-47581742D01*
X116691285Y-47581742D01*
X117405571Y-47260314D02*
X117441285Y-47224600D01*
X117512714Y-47188885D01*
X117691285Y-47188885D01*
X117762714Y-47224600D01*
X117798428Y-47260314D01*
X117834142Y-47331742D01*
X117834142Y-47403171D01*
X117798428Y-47510314D01*
X117369857Y-47938885D01*
X117834142Y-47938885D01*
X118084142Y-47188885D02*
X118548428Y-47188885D01*
X118298428Y-47474600D01*
X118405571Y-47474600D01*
X118477000Y-47510314D01*
X118512714Y-47546028D01*
X118548428Y-47617457D01*
X118548428Y-47796028D01*
X118512714Y-47867457D01*
X118477000Y-47903171D01*
X118405571Y-47938885D01*
X118191285Y-47938885D01*
X118119857Y-47903171D01*
X118084142Y-47867457D01*
%TO.C,D2*%
X110746428Y-72964285D02*
X110746428Y-72214285D01*
X110925000Y-72214285D01*
X111032142Y-72250000D01*
X111103571Y-72321428D01*
X111139285Y-72392857D01*
X111175000Y-72535714D01*
X111175000Y-72642857D01*
X111139285Y-72785714D01*
X111103571Y-72857142D01*
X111032142Y-72928571D01*
X110925000Y-72964285D01*
X110746428Y-72964285D01*
X111460714Y-72285714D02*
X111496428Y-72250000D01*
X111567857Y-72214285D01*
X111746428Y-72214285D01*
X111817857Y-72250000D01*
X111853571Y-72285714D01*
X111889285Y-72357142D01*
X111889285Y-72428571D01*
X111853571Y-72535714D01*
X111425000Y-72964285D01*
X111889285Y-72964285D01*
%TO.C,R25*%
X99667857Y-84339285D02*
X99417857Y-83982142D01*
X99239285Y-84339285D02*
X99239285Y-83589285D01*
X99525000Y-83589285D01*
X99596428Y-83625000D01*
X99632142Y-83660714D01*
X99667857Y-83732142D01*
X99667857Y-83839285D01*
X99632142Y-83910714D01*
X99596428Y-83946428D01*
X99525000Y-83982142D01*
X99239285Y-83982142D01*
X99953571Y-83660714D02*
X99989285Y-83625000D01*
X100060714Y-83589285D01*
X100239285Y-83589285D01*
X100310714Y-83625000D01*
X100346428Y-83660714D01*
X100382142Y-83732142D01*
X100382142Y-83803571D01*
X100346428Y-83910714D01*
X99917857Y-84339285D01*
X100382142Y-84339285D01*
X101060714Y-83589285D02*
X100703571Y-83589285D01*
X100667857Y-83946428D01*
X100703571Y-83910714D01*
X100775000Y-83875000D01*
X100953571Y-83875000D01*
X101025000Y-83910714D01*
X101060714Y-83946428D01*
X101096428Y-84017857D01*
X101096428Y-84196428D01*
X101060714Y-84267857D01*
X101025000Y-84303571D01*
X100953571Y-84339285D01*
X100775000Y-84339285D01*
X100703571Y-84303571D01*
X100667857Y-84267857D01*
%TO.C,R19*%
X90217857Y-69989285D02*
X89967857Y-69632142D01*
X89789285Y-69989285D02*
X89789285Y-69239285D01*
X90075000Y-69239285D01*
X90146428Y-69275000D01*
X90182142Y-69310714D01*
X90217857Y-69382142D01*
X90217857Y-69489285D01*
X90182142Y-69560714D01*
X90146428Y-69596428D01*
X90075000Y-69632142D01*
X89789285Y-69632142D01*
X90932142Y-69989285D02*
X90503571Y-69989285D01*
X90717857Y-69989285D02*
X90717857Y-69239285D01*
X90646428Y-69346428D01*
X90575000Y-69417857D01*
X90503571Y-69453571D01*
X91289285Y-69989285D02*
X91432142Y-69989285D01*
X91503571Y-69953571D01*
X91539285Y-69917857D01*
X91610714Y-69810714D01*
X91646428Y-69667857D01*
X91646428Y-69382142D01*
X91610714Y-69310714D01*
X91575000Y-69275000D01*
X91503571Y-69239285D01*
X91360714Y-69239285D01*
X91289285Y-69275000D01*
X91253571Y-69310714D01*
X91217857Y-69382142D01*
X91217857Y-69560714D01*
X91253571Y-69632142D01*
X91289285Y-69667857D01*
X91360714Y-69703571D01*
X91503571Y-69703571D01*
X91575000Y-69667857D01*
X91610714Y-69632142D01*
X91646428Y-69560714D01*
%TO.C,C20*%
X94567856Y-80117857D02*
X94532141Y-80153571D01*
X94424999Y-80189285D01*
X94353570Y-80189285D01*
X94246427Y-80153571D01*
X94174999Y-80082142D01*
X94139284Y-80010714D01*
X94103570Y-79867857D01*
X94103570Y-79760714D01*
X94139284Y-79617857D01*
X94174999Y-79546428D01*
X94246427Y-79475000D01*
X94353570Y-79439285D01*
X94424999Y-79439285D01*
X94532141Y-79475000D01*
X94567856Y-79510714D01*
X94853570Y-79510714D02*
X94889284Y-79475000D01*
X94960713Y-79439285D01*
X95139284Y-79439285D01*
X95210713Y-79475000D01*
X95246427Y-79510714D01*
X95282141Y-79582142D01*
X95282141Y-79653571D01*
X95246427Y-79760714D01*
X94817856Y-80189285D01*
X95282141Y-80189285D01*
X95746427Y-79439285D02*
X95817856Y-79439285D01*
X95889284Y-79475000D01*
X95924999Y-79510714D01*
X95960713Y-79582142D01*
X95996427Y-79725000D01*
X95996427Y-79903571D01*
X95960713Y-80046428D01*
X95924999Y-80117857D01*
X95889284Y-80153571D01*
X95817856Y-80189285D01*
X95746427Y-80189285D01*
X95674999Y-80153571D01*
X95639284Y-80117857D01*
X95603570Y-80046428D01*
X95567856Y-79903571D01*
X95567856Y-79725000D01*
X95603570Y-79582142D01*
X95639284Y-79510714D01*
X95674999Y-79475000D01*
X95746427Y-79439285D01*
%TO.C,R17*%
X120467857Y-72139285D02*
X120217857Y-71782142D01*
X120039285Y-72139285D02*
X120039285Y-71389285D01*
X120325000Y-71389285D01*
X120396428Y-71425000D01*
X120432142Y-71460714D01*
X120467857Y-71532142D01*
X120467857Y-71639285D01*
X120432142Y-71710714D01*
X120396428Y-71746428D01*
X120325000Y-71782142D01*
X120039285Y-71782142D01*
X121182142Y-72139285D02*
X120753571Y-72139285D01*
X120967857Y-72139285D02*
X120967857Y-71389285D01*
X120896428Y-71496428D01*
X120825000Y-71567857D01*
X120753571Y-71603571D01*
X121432142Y-71389285D02*
X121932142Y-71389285D01*
X121610714Y-72139285D01*
%TO.C,C22*%
X115317857Y-50867857D02*
X115282142Y-50903571D01*
X115175000Y-50939285D01*
X115103571Y-50939285D01*
X114996428Y-50903571D01*
X114925000Y-50832142D01*
X114889285Y-50760714D01*
X114853571Y-50617857D01*
X114853571Y-50510714D01*
X114889285Y-50367857D01*
X114925000Y-50296428D01*
X114996428Y-50225000D01*
X115103571Y-50189285D01*
X115175000Y-50189285D01*
X115282142Y-50225000D01*
X115317857Y-50260714D01*
X115603571Y-50260714D02*
X115639285Y-50225000D01*
X115710714Y-50189285D01*
X115889285Y-50189285D01*
X115960714Y-50225000D01*
X115996428Y-50260714D01*
X116032142Y-50332142D01*
X116032142Y-50403571D01*
X115996428Y-50510714D01*
X115567857Y-50939285D01*
X116032142Y-50939285D01*
X116317857Y-50260714D02*
X116353571Y-50225000D01*
X116425000Y-50189285D01*
X116603571Y-50189285D01*
X116675000Y-50225000D01*
X116710714Y-50260714D01*
X116746428Y-50332142D01*
X116746428Y-50403571D01*
X116710714Y-50510714D01*
X116282142Y-50939285D01*
X116746428Y-50939285D01*
%TO.C,Q1*%
X134751771Y-51667914D02*
X134680342Y-51632200D01*
X134608914Y-51560771D01*
X134501771Y-51453628D01*
X134430342Y-51417914D01*
X134358914Y-51417914D01*
X134394628Y-51596485D02*
X134323200Y-51560771D01*
X134251771Y-51489342D01*
X134216057Y-51346485D01*
X134216057Y-51096485D01*
X134251771Y-50953628D01*
X134323200Y-50882200D01*
X134394628Y-50846485D01*
X134537485Y-50846485D01*
X134608914Y-50882200D01*
X134680342Y-50953628D01*
X134716057Y-51096485D01*
X134716057Y-51346485D01*
X134680342Y-51489342D01*
X134608914Y-51560771D01*
X134537485Y-51596485D01*
X134394628Y-51596485D01*
X135430342Y-51596485D02*
X135001771Y-51596485D01*
X135216057Y-51596485D02*
X135216057Y-50846485D01*
X135144628Y-50953628D01*
X135073200Y-51025057D01*
X135001771Y-51060771D01*
%TO.C,C29*%
X98367857Y-89617857D02*
X98332142Y-89653571D01*
X98225000Y-89689285D01*
X98153571Y-89689285D01*
X98046428Y-89653571D01*
X97975000Y-89582142D01*
X97939285Y-89510714D01*
X97903571Y-89367857D01*
X97903571Y-89260714D01*
X97939285Y-89117857D01*
X97975000Y-89046428D01*
X98046428Y-88975000D01*
X98153571Y-88939285D01*
X98225000Y-88939285D01*
X98332142Y-88975000D01*
X98367857Y-89010714D01*
X98653571Y-89010714D02*
X98689285Y-88975000D01*
X98760714Y-88939285D01*
X98939285Y-88939285D01*
X99010714Y-88975000D01*
X99046428Y-89010714D01*
X99082142Y-89082142D01*
X99082142Y-89153571D01*
X99046428Y-89260714D01*
X98617857Y-89689285D01*
X99082142Y-89689285D01*
X99439285Y-89689285D02*
X99582142Y-89689285D01*
X99653571Y-89653571D01*
X99689285Y-89617857D01*
X99760714Y-89510714D01*
X99796428Y-89367857D01*
X99796428Y-89082142D01*
X99760714Y-89010714D01*
X99725000Y-88975000D01*
X99653571Y-88939285D01*
X99510714Y-88939285D01*
X99439285Y-88975000D01*
X99403571Y-89010714D01*
X99367857Y-89082142D01*
X99367857Y-89260714D01*
X99403571Y-89332142D01*
X99439285Y-89367857D01*
X99510714Y-89403571D01*
X99653571Y-89403571D01*
X99725000Y-89367857D01*
X99760714Y-89332142D01*
X99796428Y-89260714D01*
%TO.C,R34*%
X105039285Y-85982142D02*
X104682142Y-86232142D01*
X105039285Y-86410714D02*
X104289285Y-86410714D01*
X104289285Y-86125000D01*
X104325000Y-86053571D01*
X104360714Y-86017857D01*
X104432142Y-85982142D01*
X104539285Y-85982142D01*
X104610714Y-86017857D01*
X104646428Y-86053571D01*
X104682142Y-86125000D01*
X104682142Y-86410714D01*
X104289285Y-85732142D02*
X104289285Y-85267857D01*
X104575000Y-85517857D01*
X104575000Y-85410714D01*
X104610714Y-85339285D01*
X104646428Y-85303571D01*
X104717857Y-85267857D01*
X104896428Y-85267857D01*
X104967857Y-85303571D01*
X105003571Y-85339285D01*
X105039285Y-85410714D01*
X105039285Y-85625000D01*
X105003571Y-85696428D01*
X104967857Y-85732142D01*
X104539285Y-84625000D02*
X105039285Y-84625000D01*
X104253571Y-84803571D02*
X104789285Y-84982142D01*
X104789285Y-84517857D01*
%TO.C,R13*%
X86567857Y-63039285D02*
X86317857Y-62682142D01*
X86139285Y-63039285D02*
X86139285Y-62289285D01*
X86425000Y-62289285D01*
X86496428Y-62325000D01*
X86532142Y-62360714D01*
X86567857Y-62432142D01*
X86567857Y-62539285D01*
X86532142Y-62610714D01*
X86496428Y-62646428D01*
X86425000Y-62682142D01*
X86139285Y-62682142D01*
X87282142Y-63039285D02*
X86853571Y-63039285D01*
X87067857Y-63039285D02*
X87067857Y-62289285D01*
X86996428Y-62396428D01*
X86925000Y-62467857D01*
X86853571Y-62503571D01*
X87532142Y-62289285D02*
X87996428Y-62289285D01*
X87746428Y-62575000D01*
X87853571Y-62575000D01*
X87925000Y-62610714D01*
X87960714Y-62646428D01*
X87996428Y-62717857D01*
X87996428Y-62896428D01*
X87960714Y-62967857D01*
X87925000Y-63003571D01*
X87853571Y-63039285D01*
X87639285Y-63039285D01*
X87567857Y-63003571D01*
X87532142Y-62967857D01*
%TO.C,C3*%
X117975000Y-79317857D02*
X117939285Y-79353571D01*
X117832142Y-79389285D01*
X117760714Y-79389285D01*
X117653571Y-79353571D01*
X117582142Y-79282142D01*
X117546428Y-79210714D01*
X117510714Y-79067857D01*
X117510714Y-78960714D01*
X117546428Y-78817857D01*
X117582142Y-78746428D01*
X117653571Y-78675000D01*
X117760714Y-78639285D01*
X117832142Y-78639285D01*
X117939285Y-78675000D01*
X117975000Y-78710714D01*
X118225000Y-78639285D02*
X118689285Y-78639285D01*
X118439285Y-78925000D01*
X118546428Y-78925000D01*
X118617857Y-78960714D01*
X118653571Y-78996428D01*
X118689285Y-79067857D01*
X118689285Y-79246428D01*
X118653571Y-79317857D01*
X118617857Y-79353571D01*
X118546428Y-79389285D01*
X118332142Y-79389285D01*
X118260714Y-79353571D01*
X118225000Y-79317857D01*
%TO.C,R6*%
X122575000Y-54239285D02*
X122325000Y-53882142D01*
X122146428Y-54239285D02*
X122146428Y-53489285D01*
X122432142Y-53489285D01*
X122503571Y-53525000D01*
X122539285Y-53560714D01*
X122575000Y-53632142D01*
X122575000Y-53739285D01*
X122539285Y-53810714D01*
X122503571Y-53846428D01*
X122432142Y-53882142D01*
X122146428Y-53882142D01*
X123217857Y-53489285D02*
X123075000Y-53489285D01*
X123003571Y-53525000D01*
X122967857Y-53560714D01*
X122896428Y-53667857D01*
X122860714Y-53810714D01*
X122860714Y-54096428D01*
X122896428Y-54167857D01*
X122932142Y-54203571D01*
X123003571Y-54239285D01*
X123146428Y-54239285D01*
X123217857Y-54203571D01*
X123253571Y-54167857D01*
X123289285Y-54096428D01*
X123289285Y-53917857D01*
X123253571Y-53846428D01*
X123217857Y-53810714D01*
X123146428Y-53775000D01*
X123003571Y-53775000D01*
X122932142Y-53810714D01*
X122896428Y-53846428D01*
X122860714Y-53917857D01*
%TO.C,C21*%
X89917857Y-85917857D02*
X89882142Y-85953571D01*
X89775000Y-85989285D01*
X89703571Y-85989285D01*
X89596428Y-85953571D01*
X89525000Y-85882142D01*
X89489285Y-85810714D01*
X89453571Y-85667857D01*
X89453571Y-85560714D01*
X89489285Y-85417857D01*
X89525000Y-85346428D01*
X89596428Y-85275000D01*
X89703571Y-85239285D01*
X89775000Y-85239285D01*
X89882142Y-85275000D01*
X89917857Y-85310714D01*
X90203571Y-85310714D02*
X90239285Y-85275000D01*
X90310714Y-85239285D01*
X90489285Y-85239285D01*
X90560714Y-85275000D01*
X90596428Y-85310714D01*
X90632142Y-85382142D01*
X90632142Y-85453571D01*
X90596428Y-85560714D01*
X90167857Y-85989285D01*
X90632142Y-85989285D01*
X91346428Y-85989285D02*
X90917857Y-85989285D01*
X91132142Y-85989285D02*
X91132142Y-85239285D01*
X91060714Y-85346428D01*
X90989285Y-85417857D01*
X90917857Y-85453571D01*
%TO.C,R30*%
X120421857Y-47964285D02*
X120171857Y-47607142D01*
X119993285Y-47964285D02*
X119993285Y-47214285D01*
X120279000Y-47214285D01*
X120350428Y-47250000D01*
X120386142Y-47285714D01*
X120421857Y-47357142D01*
X120421857Y-47464285D01*
X120386142Y-47535714D01*
X120350428Y-47571428D01*
X120279000Y-47607142D01*
X119993285Y-47607142D01*
X120671857Y-47214285D02*
X121136142Y-47214285D01*
X120886142Y-47500000D01*
X120993285Y-47500000D01*
X121064714Y-47535714D01*
X121100428Y-47571428D01*
X121136142Y-47642857D01*
X121136142Y-47821428D01*
X121100428Y-47892857D01*
X121064714Y-47928571D01*
X120993285Y-47964285D01*
X120779000Y-47964285D01*
X120707571Y-47928571D01*
X120671857Y-47892857D01*
X121600428Y-47214285D02*
X121671857Y-47214285D01*
X121743285Y-47250000D01*
X121779000Y-47285714D01*
X121814714Y-47357142D01*
X121850428Y-47500000D01*
X121850428Y-47678571D01*
X121814714Y-47821428D01*
X121779000Y-47892857D01*
X121743285Y-47928571D01*
X121671857Y-47964285D01*
X121600428Y-47964285D01*
X121529000Y-47928571D01*
X121493285Y-47892857D01*
X121457571Y-47821428D01*
X121421857Y-47678571D01*
X121421857Y-47500000D01*
X121457571Y-47357142D01*
X121493285Y-47285714D01*
X121529000Y-47250000D01*
X121600428Y-47214285D01*
%TO.C,J13*%
X104942857Y-89189285D02*
X104942857Y-89725000D01*
X104907142Y-89832142D01*
X104835714Y-89903571D01*
X104728571Y-89939285D01*
X104657142Y-89939285D01*
X105692857Y-89939285D02*
X105264285Y-89939285D01*
X105478571Y-89939285D02*
X105478571Y-89189285D01*
X105407142Y-89296428D01*
X105335714Y-89367857D01*
X105264285Y-89403571D01*
X105942857Y-89189285D02*
X106407142Y-89189285D01*
X106157142Y-89475000D01*
X106264285Y-89475000D01*
X106335714Y-89510714D01*
X106371428Y-89546428D01*
X106407142Y-89617857D01*
X106407142Y-89796428D01*
X106371428Y-89867857D01*
X106335714Y-89903571D01*
X106264285Y-89939285D01*
X106050000Y-89939285D01*
X105978571Y-89903571D01*
X105942857Y-89867857D01*
%TO.C,C5*%
X114975000Y-81317857D02*
X114939285Y-81353571D01*
X114832142Y-81389285D01*
X114760714Y-81389285D01*
X114653571Y-81353571D01*
X114582142Y-81282142D01*
X114546428Y-81210714D01*
X114510714Y-81067857D01*
X114510714Y-80960714D01*
X114546428Y-80817857D01*
X114582142Y-80746428D01*
X114653571Y-80675000D01*
X114760714Y-80639285D01*
X114832142Y-80639285D01*
X114939285Y-80675000D01*
X114975000Y-80710714D01*
X115653571Y-80639285D02*
X115296428Y-80639285D01*
X115260714Y-80996428D01*
X115296428Y-80960714D01*
X115367857Y-80925000D01*
X115546428Y-80925000D01*
X115617857Y-80960714D01*
X115653571Y-80996428D01*
X115689285Y-81067857D01*
X115689285Y-81246428D01*
X115653571Y-81317857D01*
X115617857Y-81353571D01*
X115546428Y-81389285D01*
X115367857Y-81389285D01*
X115296428Y-81353571D01*
X115260714Y-81317857D01*
%TO.C,C9*%
X109525000Y-66267857D02*
X109489285Y-66303571D01*
X109382142Y-66339285D01*
X109310714Y-66339285D01*
X109203571Y-66303571D01*
X109132142Y-66232142D01*
X109096428Y-66160714D01*
X109060714Y-66017857D01*
X109060714Y-65910714D01*
X109096428Y-65767857D01*
X109132142Y-65696428D01*
X109203571Y-65625000D01*
X109310714Y-65589285D01*
X109382142Y-65589285D01*
X109489285Y-65625000D01*
X109525000Y-65660714D01*
X109882142Y-66339285D02*
X110025000Y-66339285D01*
X110096428Y-66303571D01*
X110132142Y-66267857D01*
X110203571Y-66160714D01*
X110239285Y-66017857D01*
X110239285Y-65732142D01*
X110203571Y-65660714D01*
X110167857Y-65625000D01*
X110096428Y-65589285D01*
X109953571Y-65589285D01*
X109882142Y-65625000D01*
X109846428Y-65660714D01*
X109810714Y-65732142D01*
X109810714Y-65910714D01*
X109846428Y-65982142D01*
X109882142Y-66017857D01*
X109953571Y-66053571D01*
X110096428Y-66053571D01*
X110167857Y-66017857D01*
X110203571Y-65982142D01*
X110239285Y-65910714D01*
%TO.C,C31*%
X95048477Y-86880330D02*
X95048477Y-86930837D01*
X94997969Y-87031852D01*
X94947461Y-87082360D01*
X94846446Y-87132868D01*
X94745431Y-87132868D01*
X94669669Y-87107614D01*
X94543400Y-87031852D01*
X94467639Y-86956091D01*
X94391877Y-86829822D01*
X94366624Y-86754061D01*
X94366624Y-86653045D01*
X94417131Y-86552030D01*
X94467639Y-86501522D01*
X94568654Y-86451015D01*
X94619162Y-86451015D01*
X94745431Y-86223730D02*
X95073730Y-85895431D01*
X95098984Y-86274238D01*
X95174746Y-86198477D01*
X95250507Y-86173223D01*
X95301015Y-86173223D01*
X95376776Y-86198477D01*
X95503045Y-86324746D01*
X95528299Y-86400507D01*
X95528299Y-86451015D01*
X95503045Y-86526776D01*
X95351522Y-86678299D01*
X95275761Y-86703553D01*
X95225253Y-86703553D01*
X96109137Y-85920685D02*
X95806091Y-86223730D01*
X95957614Y-86072208D02*
X95427284Y-85541877D01*
X95452538Y-85668147D01*
X95452538Y-85769162D01*
X95427284Y-85844923D01*
%TO.C,R4*%
X120175000Y-81339285D02*
X119925000Y-80982142D01*
X119746428Y-81339285D02*
X119746428Y-80589285D01*
X120032142Y-80589285D01*
X120103571Y-80625000D01*
X120139285Y-80660714D01*
X120175000Y-80732142D01*
X120175000Y-80839285D01*
X120139285Y-80910714D01*
X120103571Y-80946428D01*
X120032142Y-80982142D01*
X119746428Y-80982142D01*
X120817857Y-80839285D02*
X120817857Y-81339285D01*
X120639285Y-80553571D02*
X120460714Y-81089285D01*
X120925000Y-81089285D01*
%TO.C,C19*%
X122217857Y-52267857D02*
X122182142Y-52303571D01*
X122075000Y-52339285D01*
X122003571Y-52339285D01*
X121896428Y-52303571D01*
X121825000Y-52232142D01*
X121789285Y-52160714D01*
X121753571Y-52017857D01*
X121753571Y-51910714D01*
X121789285Y-51767857D01*
X121825000Y-51696428D01*
X121896428Y-51625000D01*
X122003571Y-51589285D01*
X122075000Y-51589285D01*
X122182142Y-51625000D01*
X122217857Y-51660714D01*
X122932142Y-52339285D02*
X122503571Y-52339285D01*
X122717857Y-52339285D02*
X122717857Y-51589285D01*
X122646428Y-51696428D01*
X122575000Y-51767857D01*
X122503571Y-51803571D01*
X123289285Y-52339285D02*
X123432142Y-52339285D01*
X123503571Y-52303571D01*
X123539285Y-52267857D01*
X123610714Y-52160714D01*
X123646428Y-52017857D01*
X123646428Y-51732142D01*
X123610714Y-51660714D01*
X123575000Y-51625000D01*
X123503571Y-51589285D01*
X123360714Y-51589285D01*
X123289285Y-51625000D01*
X123253571Y-51660714D01*
X123217857Y-51732142D01*
X123217857Y-51910714D01*
X123253571Y-51982142D01*
X123289285Y-52017857D01*
X123360714Y-52053571D01*
X123503571Y-52053571D01*
X123575000Y-52017857D01*
X123610714Y-51982142D01*
X123646428Y-51910714D01*
%TO.C,R15*%
X86817857Y-83439285D02*
X86567857Y-83082142D01*
X86389285Y-83439285D02*
X86389285Y-82689285D01*
X86675000Y-82689285D01*
X86746428Y-82725000D01*
X86782142Y-82760714D01*
X86817857Y-82832142D01*
X86817857Y-82939285D01*
X86782142Y-83010714D01*
X86746428Y-83046428D01*
X86675000Y-83082142D01*
X86389285Y-83082142D01*
X87532142Y-83439285D02*
X87103571Y-83439285D01*
X87317857Y-83439285D02*
X87317857Y-82689285D01*
X87246428Y-82796428D01*
X87175000Y-82867857D01*
X87103571Y-82903571D01*
X88210714Y-82689285D02*
X87853571Y-82689285D01*
X87817857Y-83046428D01*
X87853571Y-83010714D01*
X87925000Y-82975000D01*
X88103571Y-82975000D01*
X88175000Y-83010714D01*
X88210714Y-83046428D01*
X88246428Y-83117857D01*
X88246428Y-83296428D01*
X88210714Y-83367857D01*
X88175000Y-83403571D01*
X88103571Y-83439285D01*
X87925000Y-83439285D01*
X87853571Y-83403571D01*
X87817857Y-83367857D01*
%TO.C,R35*%
X107039285Y-85982142D02*
X106682142Y-86232142D01*
X107039285Y-86410714D02*
X106289285Y-86410714D01*
X106289285Y-86125000D01*
X106325000Y-86053571D01*
X106360714Y-86017857D01*
X106432142Y-85982142D01*
X106539285Y-85982142D01*
X106610714Y-86017857D01*
X106646428Y-86053571D01*
X106682142Y-86125000D01*
X106682142Y-86410714D01*
X106289285Y-85732142D02*
X106289285Y-85267857D01*
X106575000Y-85517857D01*
X106575000Y-85410714D01*
X106610714Y-85339285D01*
X106646428Y-85303571D01*
X106717857Y-85267857D01*
X106896428Y-85267857D01*
X106967857Y-85303571D01*
X107003571Y-85339285D01*
X107039285Y-85410714D01*
X107039285Y-85625000D01*
X107003571Y-85696428D01*
X106967857Y-85732142D01*
X106289285Y-84589285D02*
X106289285Y-84946428D01*
X106646428Y-84982142D01*
X106610714Y-84946428D01*
X106575000Y-84875000D01*
X106575000Y-84696428D01*
X106610714Y-84625000D01*
X106646428Y-84589285D01*
X106717857Y-84553571D01*
X106896428Y-84553571D01*
X106967857Y-84589285D01*
X107003571Y-84625000D01*
X107039285Y-84696428D01*
X107039285Y-84875000D01*
X107003571Y-84946428D01*
X106967857Y-84982142D01*
%TO.C,J11*%
X77842857Y-46939285D02*
X77842857Y-47475000D01*
X77807142Y-47582142D01*
X77735714Y-47653571D01*
X77628571Y-47689285D01*
X77557142Y-47689285D01*
X78592857Y-47689285D02*
X78164285Y-47689285D01*
X78378571Y-47689285D02*
X78378571Y-46939285D01*
X78307142Y-47046428D01*
X78235714Y-47117857D01*
X78164285Y-47153571D01*
X79307142Y-47689285D02*
X78878571Y-47689285D01*
X79092857Y-47689285D02*
X79092857Y-46939285D01*
X79021428Y-47046428D01*
X78950000Y-47117857D01*
X78878571Y-47153571D01*
%TO.C,R18*%
X90217857Y-68389285D02*
X89967857Y-68032142D01*
X89789285Y-68389285D02*
X89789285Y-67639285D01*
X90075000Y-67639285D01*
X90146428Y-67675000D01*
X90182142Y-67710714D01*
X90217857Y-67782142D01*
X90217857Y-67889285D01*
X90182142Y-67960714D01*
X90146428Y-67996428D01*
X90075000Y-68032142D01*
X89789285Y-68032142D01*
X90932142Y-68389285D02*
X90503571Y-68389285D01*
X90717857Y-68389285D02*
X90717857Y-67639285D01*
X90646428Y-67746428D01*
X90575000Y-67817857D01*
X90503571Y-67853571D01*
X91360714Y-67960714D02*
X91289285Y-67925000D01*
X91253571Y-67889285D01*
X91217857Y-67817857D01*
X91217857Y-67782142D01*
X91253571Y-67710714D01*
X91289285Y-67675000D01*
X91360714Y-67639285D01*
X91503571Y-67639285D01*
X91575000Y-67675000D01*
X91610714Y-67710714D01*
X91646428Y-67782142D01*
X91646428Y-67817857D01*
X91610714Y-67889285D01*
X91575000Y-67925000D01*
X91503571Y-67960714D01*
X91360714Y-67960714D01*
X91289285Y-67996428D01*
X91253571Y-68032142D01*
X91217857Y-68103571D01*
X91217857Y-68246428D01*
X91253571Y-68317857D01*
X91289285Y-68353571D01*
X91360714Y-68389285D01*
X91503571Y-68389285D01*
X91575000Y-68353571D01*
X91610714Y-68317857D01*
X91646428Y-68246428D01*
X91646428Y-68103571D01*
X91610714Y-68032142D01*
X91575000Y-67996428D01*
X91503571Y-67960714D01*
%TO.C,R36*%
X109039285Y-85982142D02*
X108682142Y-86232142D01*
X109039285Y-86410714D02*
X108289285Y-86410714D01*
X108289285Y-86125000D01*
X108325000Y-86053571D01*
X108360714Y-86017857D01*
X108432142Y-85982142D01*
X108539285Y-85982142D01*
X108610714Y-86017857D01*
X108646428Y-86053571D01*
X108682142Y-86125000D01*
X108682142Y-86410714D01*
X108289285Y-85732142D02*
X108289285Y-85267857D01*
X108575000Y-85517857D01*
X108575000Y-85410714D01*
X108610714Y-85339285D01*
X108646428Y-85303571D01*
X108717857Y-85267857D01*
X108896428Y-85267857D01*
X108967857Y-85303571D01*
X109003571Y-85339285D01*
X109039285Y-85410714D01*
X109039285Y-85625000D01*
X109003571Y-85696428D01*
X108967857Y-85732142D01*
X108289285Y-84625000D02*
X108289285Y-84767857D01*
X108325000Y-84839285D01*
X108360714Y-84875000D01*
X108467857Y-84946428D01*
X108610714Y-84982142D01*
X108896428Y-84982142D01*
X108967857Y-84946428D01*
X109003571Y-84910714D01*
X109039285Y-84839285D01*
X109039285Y-84696428D01*
X109003571Y-84625000D01*
X108967857Y-84589285D01*
X108896428Y-84553571D01*
X108717857Y-84553571D01*
X108646428Y-84589285D01*
X108610714Y-84625000D01*
X108575000Y-84696428D01*
X108575000Y-84839285D01*
X108610714Y-84910714D01*
X108646428Y-84946428D01*
X108717857Y-84982142D01*
%TO.C,C11*%
X101017857Y-74967857D02*
X100982142Y-75003571D01*
X100875000Y-75039285D01*
X100803571Y-75039285D01*
X100696428Y-75003571D01*
X100625000Y-74932142D01*
X100589285Y-74860714D01*
X100553571Y-74717857D01*
X100553571Y-74610714D01*
X100589285Y-74467857D01*
X100625000Y-74396428D01*
X100696428Y-74325000D01*
X100803571Y-74289285D01*
X100875000Y-74289285D01*
X100982142Y-74325000D01*
X101017857Y-74360714D01*
X101732142Y-75039285D02*
X101303571Y-75039285D01*
X101517857Y-75039285D02*
X101517857Y-74289285D01*
X101446428Y-74396428D01*
X101375000Y-74467857D01*
X101303571Y-74503571D01*
X102446428Y-75039285D02*
X102017857Y-75039285D01*
X102232142Y-75039285D02*
X102232142Y-74289285D01*
X102160714Y-74396428D01*
X102089285Y-74467857D01*
X102017857Y-74503571D01*
D10*
%TO.C,*%
D15*
%TO.C,C7*%
X124275000Y-81067857D02*
X124239285Y-81103571D01*
X124132142Y-81139285D01*
X124060714Y-81139285D01*
X123953571Y-81103571D01*
X123882142Y-81032142D01*
X123846428Y-80960714D01*
X123810714Y-80817857D01*
X123810714Y-80710714D01*
X123846428Y-80567857D01*
X123882142Y-80496428D01*
X123953571Y-80425000D01*
X124060714Y-80389285D01*
X124132142Y-80389285D01*
X124239285Y-80425000D01*
X124275000Y-80460714D01*
X124525000Y-80389285D02*
X125025000Y-80389285D01*
X124703571Y-81139285D01*
%TO.C,J1*%
X88500000Y-46689285D02*
X88500000Y-47225000D01*
X88464285Y-47332142D01*
X88392857Y-47403571D01*
X88285714Y-47439285D01*
X88214285Y-47439285D01*
X89250000Y-47439285D02*
X88821428Y-47439285D01*
X89035714Y-47439285D02*
X89035714Y-46689285D01*
X88964285Y-46796428D01*
X88892857Y-46867857D01*
X88821428Y-46903571D01*
%TO.C,U1*%
X115228571Y-82889285D02*
X115228571Y-83496428D01*
X115264285Y-83567857D01*
X115300000Y-83603571D01*
X115371428Y-83639285D01*
X115514285Y-83639285D01*
X115585714Y-83603571D01*
X115621428Y-83567857D01*
X115657142Y-83496428D01*
X115657142Y-82889285D01*
X116407142Y-83639285D02*
X115978571Y-83639285D01*
X116192857Y-83639285D02*
X116192857Y-82889285D01*
X116121428Y-82996428D01*
X116050000Y-83067857D01*
X115978571Y-83103571D01*
%TO.C,C26*%
X131217857Y-76617857D02*
X131182142Y-76653571D01*
X131075000Y-76689285D01*
X131003571Y-76689285D01*
X130896428Y-76653571D01*
X130825000Y-76582142D01*
X130789285Y-76510714D01*
X130753571Y-76367857D01*
X130753571Y-76260714D01*
X130789285Y-76117857D01*
X130825000Y-76046428D01*
X130896428Y-75975000D01*
X131003571Y-75939285D01*
X131075000Y-75939285D01*
X131182142Y-75975000D01*
X131217857Y-76010714D01*
X131503571Y-76010714D02*
X131539285Y-75975000D01*
X131610714Y-75939285D01*
X131789285Y-75939285D01*
X131860714Y-75975000D01*
X131896428Y-76010714D01*
X131932142Y-76082142D01*
X131932142Y-76153571D01*
X131896428Y-76260714D01*
X131467857Y-76689285D01*
X131932142Y-76689285D01*
X132575000Y-75939285D02*
X132432142Y-75939285D01*
X132360714Y-75975000D01*
X132325000Y-76010714D01*
X132253571Y-76117857D01*
X132217857Y-76260714D01*
X132217857Y-76546428D01*
X132253571Y-76617857D01*
X132289285Y-76653571D01*
X132360714Y-76689285D01*
X132503571Y-76689285D01*
X132575000Y-76653571D01*
X132610714Y-76617857D01*
X132646428Y-76546428D01*
X132646428Y-76367857D01*
X132610714Y-76296428D01*
X132575000Y-76260714D01*
X132503571Y-76225000D01*
X132360714Y-76225000D01*
X132289285Y-76260714D01*
X132253571Y-76296428D01*
X132217857Y-76367857D01*
%TO.C,R28*%
X110467857Y-50656685D02*
X110217857Y-50299542D01*
X110039285Y-50656685D02*
X110039285Y-49906685D01*
X110325000Y-49906685D01*
X110396428Y-49942400D01*
X110432142Y-49978114D01*
X110467857Y-50049542D01*
X110467857Y-50156685D01*
X110432142Y-50228114D01*
X110396428Y-50263828D01*
X110325000Y-50299542D01*
X110039285Y-50299542D01*
X110753571Y-49978114D02*
X110789285Y-49942400D01*
X110860714Y-49906685D01*
X111039285Y-49906685D01*
X111110714Y-49942400D01*
X111146428Y-49978114D01*
X111182142Y-50049542D01*
X111182142Y-50120971D01*
X111146428Y-50228114D01*
X110717857Y-50656685D01*
X111182142Y-50656685D01*
X111610714Y-50228114D02*
X111539285Y-50192400D01*
X111503571Y-50156685D01*
X111467857Y-50085257D01*
X111467857Y-50049542D01*
X111503571Y-49978114D01*
X111539285Y-49942400D01*
X111610714Y-49906685D01*
X111753571Y-49906685D01*
X111825000Y-49942400D01*
X111860714Y-49978114D01*
X111896428Y-50049542D01*
X111896428Y-50085257D01*
X111860714Y-50156685D01*
X111825000Y-50192400D01*
X111753571Y-50228114D01*
X111610714Y-50228114D01*
X111539285Y-50263828D01*
X111503571Y-50299542D01*
X111467857Y-50370971D01*
X111467857Y-50513828D01*
X111503571Y-50585257D01*
X111539285Y-50620971D01*
X111610714Y-50656685D01*
X111753571Y-50656685D01*
X111825000Y-50620971D01*
X111860714Y-50585257D01*
X111896428Y-50513828D01*
X111896428Y-50370971D01*
X111860714Y-50299542D01*
X111825000Y-50263828D01*
X111753571Y-50228114D01*
%TO.C,C13*%
X109267857Y-69492857D02*
X109232142Y-69528571D01*
X109125000Y-69564285D01*
X109053571Y-69564285D01*
X108946428Y-69528571D01*
X108875000Y-69457142D01*
X108839285Y-69385714D01*
X108803571Y-69242857D01*
X108803571Y-69135714D01*
X108839285Y-68992857D01*
X108875000Y-68921428D01*
X108946428Y-68850000D01*
X109053571Y-68814285D01*
X109125000Y-68814285D01*
X109232142Y-68850000D01*
X109267857Y-68885714D01*
X109982142Y-69564285D02*
X109553571Y-69564285D01*
X109767857Y-69564285D02*
X109767857Y-68814285D01*
X109696428Y-68921428D01*
X109625000Y-68992857D01*
X109553571Y-69028571D01*
X110232142Y-68814285D02*
X110696428Y-68814285D01*
X110446428Y-69100000D01*
X110553571Y-69100000D01*
X110625000Y-69135714D01*
X110660714Y-69171428D01*
X110696428Y-69242857D01*
X110696428Y-69421428D01*
X110660714Y-69492857D01*
X110625000Y-69528571D01*
X110553571Y-69564285D01*
X110339285Y-69564285D01*
X110267857Y-69528571D01*
X110232142Y-69492857D01*
%TO.C,U10*%
X123489285Y-84628571D02*
X124096428Y-84628571D01*
X124167857Y-84592857D01*
X124203571Y-84557142D01*
X124239285Y-84485714D01*
X124239285Y-84342857D01*
X124203571Y-84271428D01*
X124167857Y-84235714D01*
X124096428Y-84200000D01*
X123489285Y-84200000D01*
X124239285Y-83450000D02*
X124239285Y-83878571D01*
X124239285Y-83664285D02*
X123489285Y-83664285D01*
X123596428Y-83735714D01*
X123667857Y-83807142D01*
X123703571Y-83878571D01*
X123489285Y-82985714D02*
X123489285Y-82914285D01*
X123525000Y-82842857D01*
X123560714Y-82807142D01*
X123632142Y-82771428D01*
X123775000Y-82735714D01*
X123953571Y-82735714D01*
X124096428Y-82771428D01*
X124167857Y-82807142D01*
X124203571Y-82842857D01*
X124239285Y-82914285D01*
X124239285Y-82985714D01*
X124203571Y-83057142D01*
X124167857Y-83092857D01*
X124096428Y-83128571D01*
X123953571Y-83164285D01*
X123775000Y-83164285D01*
X123632142Y-83128571D01*
X123560714Y-83092857D01*
X123525000Y-83057142D01*
X123489285Y-82985714D01*
%TO.C,Q5*%
X134751771Y-83925914D02*
X134680342Y-83890200D01*
X134608914Y-83818771D01*
X134501771Y-83711628D01*
X134430342Y-83675914D01*
X134358914Y-83675914D01*
X134394628Y-83854485D02*
X134323200Y-83818771D01*
X134251771Y-83747342D01*
X134216057Y-83604485D01*
X134216057Y-83354485D01*
X134251771Y-83211628D01*
X134323200Y-83140200D01*
X134394628Y-83104485D01*
X134537485Y-83104485D01*
X134608914Y-83140200D01*
X134680342Y-83211628D01*
X134716057Y-83354485D01*
X134716057Y-83604485D01*
X134680342Y-83747342D01*
X134608914Y-83818771D01*
X134537485Y-83854485D01*
X134394628Y-83854485D01*
X135394628Y-83104485D02*
X135037485Y-83104485D01*
X135001771Y-83461628D01*
X135037485Y-83425914D01*
X135108914Y-83390200D01*
X135287485Y-83390200D01*
X135358914Y-83425914D01*
X135394628Y-83461628D01*
X135430342Y-83533057D01*
X135430342Y-83711628D01*
X135394628Y-83783057D01*
X135358914Y-83818771D01*
X135287485Y-83854485D01*
X135108914Y-83854485D01*
X135037485Y-83818771D01*
X135001771Y-83783057D01*
%TO.C,R16*%
X120467857Y-73555951D02*
X120217857Y-73198808D01*
X120039285Y-73555951D02*
X120039285Y-72805951D01*
X120325000Y-72805951D01*
X120396428Y-72841666D01*
X120432142Y-72877380D01*
X120467857Y-72948808D01*
X120467857Y-73055951D01*
X120432142Y-73127380D01*
X120396428Y-73163094D01*
X120325000Y-73198808D01*
X120039285Y-73198808D01*
X121182142Y-73555951D02*
X120753571Y-73555951D01*
X120967857Y-73555951D02*
X120967857Y-72805951D01*
X120896428Y-72913094D01*
X120825000Y-72984523D01*
X120753571Y-73020237D01*
X121825000Y-72805951D02*
X121682142Y-72805951D01*
X121610714Y-72841666D01*
X121575000Y-72877380D01*
X121503571Y-72984523D01*
X121467857Y-73127380D01*
X121467857Y-73413094D01*
X121503571Y-73484523D01*
X121539285Y-73520237D01*
X121610714Y-73555951D01*
X121753571Y-73555951D01*
X121825000Y-73520237D01*
X121860714Y-73484523D01*
X121896428Y-73413094D01*
X121896428Y-73234523D01*
X121860714Y-73163094D01*
X121825000Y-73127380D01*
X121753571Y-73091666D01*
X121610714Y-73091666D01*
X121539285Y-73127380D01*
X121503571Y-73163094D01*
X121467857Y-73234523D01*
%TO.C,R24*%
X123571457Y-47938885D02*
X123321457Y-47581742D01*
X123142885Y-47938885D02*
X123142885Y-47188885D01*
X123428600Y-47188885D01*
X123500028Y-47224600D01*
X123535742Y-47260314D01*
X123571457Y-47331742D01*
X123571457Y-47438885D01*
X123535742Y-47510314D01*
X123500028Y-47546028D01*
X123428600Y-47581742D01*
X123142885Y-47581742D01*
X123857171Y-47260314D02*
X123892885Y-47224600D01*
X123964314Y-47188885D01*
X124142885Y-47188885D01*
X124214314Y-47224600D01*
X124250028Y-47260314D01*
X124285742Y-47331742D01*
X124285742Y-47403171D01*
X124250028Y-47510314D01*
X123821457Y-47938885D01*
X124285742Y-47938885D01*
X124928600Y-47438885D02*
X124928600Y-47938885D01*
X124750028Y-47153171D02*
X124571457Y-47688885D01*
X125035742Y-47688885D01*
%TO.C,C18*%
X79767857Y-65317857D02*
X79732142Y-65353571D01*
X79625000Y-65389285D01*
X79553571Y-65389285D01*
X79446428Y-65353571D01*
X79375000Y-65282142D01*
X79339285Y-65210714D01*
X79303571Y-65067857D01*
X79303571Y-64960714D01*
X79339285Y-64817857D01*
X79375000Y-64746428D01*
X79446428Y-64675000D01*
X79553571Y-64639285D01*
X79625000Y-64639285D01*
X79732142Y-64675000D01*
X79767857Y-64710714D01*
X80482142Y-65389285D02*
X80053571Y-65389285D01*
X80267857Y-65389285D02*
X80267857Y-64639285D01*
X80196428Y-64746428D01*
X80125000Y-64817857D01*
X80053571Y-64853571D01*
X80910714Y-64960714D02*
X80839285Y-64925000D01*
X80803571Y-64889285D01*
X80767857Y-64817857D01*
X80767857Y-64782142D01*
X80803571Y-64710714D01*
X80839285Y-64675000D01*
X80910714Y-64639285D01*
X81053571Y-64639285D01*
X81125000Y-64675000D01*
X81160714Y-64710714D01*
X81196428Y-64782142D01*
X81196428Y-64817857D01*
X81160714Y-64889285D01*
X81125000Y-64925000D01*
X81053571Y-64960714D01*
X80910714Y-64960714D01*
X80839285Y-64996428D01*
X80803571Y-65032142D01*
X80767857Y-65103571D01*
X80767857Y-65246428D01*
X80803571Y-65317857D01*
X80839285Y-65353571D01*
X80910714Y-65389285D01*
X81053571Y-65389285D01*
X81125000Y-65353571D01*
X81160714Y-65317857D01*
X81196428Y-65246428D01*
X81196428Y-65103571D01*
X81160714Y-65032142D01*
X81125000Y-64996428D01*
X81053571Y-64960714D01*
%TO.C,R2*%
X110825000Y-78139285D02*
X110575000Y-77782142D01*
X110396428Y-78139285D02*
X110396428Y-77389285D01*
X110682142Y-77389285D01*
X110753571Y-77425000D01*
X110789285Y-77460714D01*
X110825000Y-77532142D01*
X110825000Y-77639285D01*
X110789285Y-77710714D01*
X110753571Y-77746428D01*
X110682142Y-77782142D01*
X110396428Y-77782142D01*
X111110714Y-77460714D02*
X111146428Y-77425000D01*
X111217857Y-77389285D01*
X111396428Y-77389285D01*
X111467857Y-77425000D01*
X111503571Y-77460714D01*
X111539285Y-77532142D01*
X111539285Y-77603571D01*
X111503571Y-77710714D01*
X111075000Y-78139285D01*
X111539285Y-78139285D01*
%TO.C,R12*%
X86567857Y-65639285D02*
X86317857Y-65282142D01*
X86139285Y-65639285D02*
X86139285Y-64889285D01*
X86425000Y-64889285D01*
X86496428Y-64925000D01*
X86532142Y-64960714D01*
X86567857Y-65032142D01*
X86567857Y-65139285D01*
X86532142Y-65210714D01*
X86496428Y-65246428D01*
X86425000Y-65282142D01*
X86139285Y-65282142D01*
X87282142Y-65639285D02*
X86853571Y-65639285D01*
X87067857Y-65639285D02*
X87067857Y-64889285D01*
X86996428Y-64996428D01*
X86925000Y-65067857D01*
X86853571Y-65103571D01*
X87567857Y-64960714D02*
X87603571Y-64925000D01*
X87675000Y-64889285D01*
X87853571Y-64889285D01*
X87925000Y-64925000D01*
X87960714Y-64960714D01*
X87996428Y-65032142D01*
X87996428Y-65103571D01*
X87960714Y-65210714D01*
X87532142Y-65639285D01*
X87996428Y-65639285D01*
%TO.C,Q9*%
X77128571Y-91190314D02*
X77057142Y-91154600D01*
X76985714Y-91083171D01*
X76878571Y-90976028D01*
X76807142Y-90940314D01*
X76735714Y-90940314D01*
X76771428Y-91118885D02*
X76700000Y-91083171D01*
X76628571Y-91011742D01*
X76592857Y-90868885D01*
X76592857Y-90618885D01*
X76628571Y-90476028D01*
X76700000Y-90404600D01*
X76771428Y-90368885D01*
X76914285Y-90368885D01*
X76985714Y-90404600D01*
X77057142Y-90476028D01*
X77092857Y-90618885D01*
X77092857Y-90868885D01*
X77057142Y-91011742D01*
X76985714Y-91083171D01*
X76914285Y-91118885D01*
X76771428Y-91118885D01*
X77450000Y-91118885D02*
X77592857Y-91118885D01*
X77664285Y-91083171D01*
X77700000Y-91047457D01*
X77771428Y-90940314D01*
X77807142Y-90797457D01*
X77807142Y-90511742D01*
X77771428Y-90440314D01*
X77735714Y-90404600D01*
X77664285Y-90368885D01*
X77521428Y-90368885D01*
X77450000Y-90404600D01*
X77414285Y-90440314D01*
X77378571Y-90511742D01*
X77378571Y-90690314D01*
X77414285Y-90761742D01*
X77450000Y-90797457D01*
X77521428Y-90833171D01*
X77664285Y-90833171D01*
X77735714Y-90797457D01*
X77771428Y-90761742D01*
X77807142Y-90690314D01*
%TO.C,R32*%
X99667857Y-85839285D02*
X99417857Y-85482142D01*
X99239285Y-85839285D02*
X99239285Y-85089285D01*
X99525000Y-85089285D01*
X99596428Y-85125000D01*
X99632142Y-85160714D01*
X99667857Y-85232142D01*
X99667857Y-85339285D01*
X99632142Y-85410714D01*
X99596428Y-85446428D01*
X99525000Y-85482142D01*
X99239285Y-85482142D01*
X99917857Y-85089285D02*
X100382142Y-85089285D01*
X100132142Y-85375000D01*
X100239285Y-85375000D01*
X100310714Y-85410714D01*
X100346428Y-85446428D01*
X100382142Y-85517857D01*
X100382142Y-85696428D01*
X100346428Y-85767857D01*
X100310714Y-85803571D01*
X100239285Y-85839285D01*
X100025000Y-85839285D01*
X99953571Y-85803571D01*
X99917857Y-85767857D01*
X100667857Y-85160714D02*
X100703571Y-85125000D01*
X100775000Y-85089285D01*
X100953571Y-85089285D01*
X101025000Y-85125000D01*
X101060714Y-85160714D01*
X101096428Y-85232142D01*
X101096428Y-85303571D01*
X101060714Y-85410714D01*
X100632142Y-85839285D01*
X101096428Y-85839285D01*
%TO.C,C14*%
X110467857Y-56224057D02*
X110432142Y-56259771D01*
X110325000Y-56295485D01*
X110253571Y-56295485D01*
X110146428Y-56259771D01*
X110075000Y-56188342D01*
X110039285Y-56116914D01*
X110003571Y-55974057D01*
X110003571Y-55866914D01*
X110039285Y-55724057D01*
X110075000Y-55652628D01*
X110146428Y-55581200D01*
X110253571Y-55545485D01*
X110325000Y-55545485D01*
X110432142Y-55581200D01*
X110467857Y-55616914D01*
X111182142Y-56295485D02*
X110753571Y-56295485D01*
X110967857Y-56295485D02*
X110967857Y-55545485D01*
X110896428Y-55652628D01*
X110825000Y-55724057D01*
X110753571Y-55759771D01*
X111825000Y-55795485D02*
X111825000Y-56295485D01*
X111646428Y-55509771D02*
X111467857Y-56045485D01*
X111932142Y-56045485D01*
%TO.C,R7*%
X122506200Y-57514685D02*
X122256200Y-57157542D01*
X122077628Y-57514685D02*
X122077628Y-56764685D01*
X122363342Y-56764685D01*
X122434771Y-56800400D01*
X122470485Y-56836114D01*
X122506200Y-56907542D01*
X122506200Y-57014685D01*
X122470485Y-57086114D01*
X122434771Y-57121828D01*
X122363342Y-57157542D01*
X122077628Y-57157542D01*
X122756200Y-56764685D02*
X123256200Y-56764685D01*
X122934771Y-57514685D01*
%TO.C,C23*%
X93417857Y-83517858D02*
X93382142Y-83553572D01*
X93275000Y-83589286D01*
X93203571Y-83589286D01*
X93096428Y-83553572D01*
X93025000Y-83482143D01*
X92989285Y-83410715D01*
X92953571Y-83267858D01*
X92953571Y-83160715D01*
X92989285Y-83017858D01*
X93025000Y-82946429D01*
X93096428Y-82875001D01*
X93203571Y-82839286D01*
X93275000Y-82839286D01*
X93382142Y-82875001D01*
X93417857Y-82910715D01*
X93703571Y-82910715D02*
X93739285Y-82875001D01*
X93810714Y-82839286D01*
X93989285Y-82839286D01*
X94060714Y-82875001D01*
X94096428Y-82910715D01*
X94132142Y-82982143D01*
X94132142Y-83053572D01*
X94096428Y-83160715D01*
X93667857Y-83589286D01*
X94132142Y-83589286D01*
X94382142Y-82839286D02*
X94846428Y-82839286D01*
X94596428Y-83125001D01*
X94703571Y-83125001D01*
X94775000Y-83160715D01*
X94810714Y-83196429D01*
X94846428Y-83267858D01*
X94846428Y-83446429D01*
X94810714Y-83517858D01*
X94775000Y-83553572D01*
X94703571Y-83589286D01*
X94489285Y-83589286D01*
X94417857Y-83553572D01*
X94382142Y-83517858D01*
%TO.C,C1*%
X118189285Y-85300000D02*
X118224523Y-85335714D01*
X118259761Y-85442857D01*
X118259761Y-85514285D01*
X118224523Y-85621428D01*
X118154047Y-85692857D01*
X118083571Y-85728571D01*
X117942619Y-85764285D01*
X117836904Y-85764285D01*
X117695952Y-85728571D01*
X117625476Y-85692857D01*
X117555000Y-85621428D01*
X117519761Y-85514285D01*
X117519761Y-85442857D01*
X117555000Y-85335714D01*
X117590238Y-85300000D01*
X118259761Y-84585714D02*
X118259761Y-85014285D01*
X118259761Y-84800000D02*
X117519761Y-84800000D01*
X117625476Y-84871428D01*
X117695952Y-84942857D01*
X117731190Y-85014285D01*
D10*
%TO.C,*%
D15*
%TO.C,C10*%
X90217856Y-62667857D02*
X90182141Y-62703571D01*
X90074999Y-62739285D01*
X90003570Y-62739285D01*
X89896427Y-62703571D01*
X89824999Y-62632142D01*
X89789284Y-62560714D01*
X89753570Y-62417857D01*
X89753570Y-62310714D01*
X89789284Y-62167857D01*
X89824999Y-62096428D01*
X89896427Y-62025000D01*
X90003570Y-61989285D01*
X90074999Y-61989285D01*
X90182141Y-62025000D01*
X90217856Y-62060714D01*
X90932141Y-62739285D02*
X90503570Y-62739285D01*
X90717856Y-62739285D02*
X90717856Y-61989285D01*
X90646427Y-62096428D01*
X90574999Y-62167857D01*
X90503570Y-62203571D01*
X91396427Y-61989285D02*
X91467856Y-61989285D01*
X91539284Y-62025000D01*
X91574999Y-62060714D01*
X91610713Y-62132142D01*
X91646427Y-62275000D01*
X91646427Y-62453571D01*
X91610713Y-62596428D01*
X91574999Y-62667857D01*
X91539284Y-62703571D01*
X91467856Y-62739285D01*
X91396427Y-62739285D01*
X91324999Y-62703571D01*
X91289284Y-62667857D01*
X91253570Y-62596428D01*
X91217856Y-62453571D01*
X91217856Y-62275000D01*
X91253570Y-62132142D01*
X91289284Y-62060714D01*
X91324999Y-62025000D01*
X91396427Y-61989285D01*
%TO.C,Q8*%
X76966771Y-51439314D02*
X76895342Y-51403600D01*
X76823914Y-51332171D01*
X76716771Y-51225028D01*
X76645342Y-51189314D01*
X76573914Y-51189314D01*
X76609628Y-51367885D02*
X76538200Y-51332171D01*
X76466771Y-51260742D01*
X76431057Y-51117885D01*
X76431057Y-50867885D01*
X76466771Y-50725028D01*
X76538200Y-50653600D01*
X76609628Y-50617885D01*
X76752485Y-50617885D01*
X76823914Y-50653600D01*
X76895342Y-50725028D01*
X76931057Y-50867885D01*
X76931057Y-51117885D01*
X76895342Y-51260742D01*
X76823914Y-51332171D01*
X76752485Y-51367885D01*
X76609628Y-51367885D01*
X77359628Y-50939314D02*
X77288200Y-50903600D01*
X77252485Y-50867885D01*
X77216771Y-50796457D01*
X77216771Y-50760742D01*
X77252485Y-50689314D01*
X77288200Y-50653600D01*
X77359628Y-50617885D01*
X77502485Y-50617885D01*
X77573914Y-50653600D01*
X77609628Y-50689314D01*
X77645342Y-50760742D01*
X77645342Y-50796457D01*
X77609628Y-50867885D01*
X77573914Y-50903600D01*
X77502485Y-50939314D01*
X77359628Y-50939314D01*
X77288200Y-50975028D01*
X77252485Y-51010742D01*
X77216771Y-51082171D01*
X77216771Y-51225028D01*
X77252485Y-51296457D01*
X77288200Y-51332171D01*
X77359628Y-51367885D01*
X77502485Y-51367885D01*
X77573914Y-51332171D01*
X77609628Y-51296457D01*
X77645342Y-51225028D01*
X77645342Y-51082171D01*
X77609628Y-51010742D01*
X77573914Y-50975028D01*
X77502485Y-50939314D01*
%TO.C,Q11*%
X134420028Y-67746114D02*
X134348600Y-67710400D01*
X134277171Y-67638971D01*
X134170028Y-67531828D01*
X134098600Y-67496114D01*
X134027171Y-67496114D01*
X134062885Y-67674685D02*
X133991457Y-67638971D01*
X133920028Y-67567542D01*
X133884314Y-67424685D01*
X133884314Y-67174685D01*
X133920028Y-67031828D01*
X133991457Y-66960400D01*
X134062885Y-66924685D01*
X134205742Y-66924685D01*
X134277171Y-66960400D01*
X134348600Y-67031828D01*
X134384314Y-67174685D01*
X134384314Y-67424685D01*
X134348600Y-67567542D01*
X134277171Y-67638971D01*
X134205742Y-67674685D01*
X134062885Y-67674685D01*
X135098600Y-67674685D02*
X134670028Y-67674685D01*
X134884314Y-67674685D02*
X134884314Y-66924685D01*
X134812885Y-67031828D01*
X134741457Y-67103257D01*
X134670028Y-67138971D01*
X135812885Y-67674685D02*
X135384314Y-67674685D01*
X135598600Y-67674685D02*
X135598600Y-66924685D01*
X135527171Y-67031828D01*
X135455742Y-67103257D01*
X135384314Y-67138971D01*
%TO.C,C6*%
X122075000Y-89867857D02*
X122039285Y-89903571D01*
X121932142Y-89939285D01*
X121860714Y-89939285D01*
X121753571Y-89903571D01*
X121682142Y-89832142D01*
X121646428Y-89760714D01*
X121610714Y-89617857D01*
X121610714Y-89510714D01*
X121646428Y-89367857D01*
X121682142Y-89296428D01*
X121753571Y-89225000D01*
X121860714Y-89189285D01*
X121932142Y-89189285D01*
X122039285Y-89225000D01*
X122075000Y-89260714D01*
X122717857Y-89189285D02*
X122575000Y-89189285D01*
X122503571Y-89225000D01*
X122467857Y-89260714D01*
X122396428Y-89367857D01*
X122360714Y-89510714D01*
X122360714Y-89796428D01*
X122396428Y-89867857D01*
X122432142Y-89903571D01*
X122503571Y-89939285D01*
X122646428Y-89939285D01*
X122717857Y-89903571D01*
X122753571Y-89867857D01*
X122789285Y-89796428D01*
X122789285Y-89617857D01*
X122753571Y-89546428D01*
X122717857Y-89510714D01*
X122646428Y-89475000D01*
X122503571Y-89475000D01*
X122432142Y-89510714D01*
X122396428Y-89546428D01*
X122360714Y-89617857D01*
%TO.C,J12*%
X101942857Y-79889285D02*
X101942857Y-80425000D01*
X101907142Y-80532142D01*
X101835714Y-80603571D01*
X101728571Y-80639285D01*
X101657142Y-80639285D01*
X102692857Y-80639285D02*
X102264285Y-80639285D01*
X102478571Y-80639285D02*
X102478571Y-79889285D01*
X102407142Y-79996428D01*
X102335714Y-80067857D01*
X102264285Y-80103571D01*
X102978571Y-79960714D02*
X103014285Y-79925000D01*
X103085714Y-79889285D01*
X103264285Y-79889285D01*
X103335714Y-79925000D01*
X103371428Y-79960714D01*
X103407142Y-80032142D01*
X103407142Y-80103571D01*
X103371428Y-80210714D01*
X102942857Y-80639285D01*
X103407142Y-80639285D01*
%TO.C,Q14*%
X76621428Y-67610714D02*
X76550000Y-67575000D01*
X76478571Y-67503571D01*
X76371428Y-67396428D01*
X76300000Y-67360714D01*
X76228571Y-67360714D01*
X76264285Y-67539285D02*
X76192857Y-67503571D01*
X76121428Y-67432142D01*
X76085714Y-67289285D01*
X76085714Y-67039285D01*
X76121428Y-66896428D01*
X76192857Y-66825000D01*
X76264285Y-66789285D01*
X76407142Y-66789285D01*
X76478571Y-66825000D01*
X76550000Y-66896428D01*
X76585714Y-67039285D01*
X76585714Y-67289285D01*
X76550000Y-67432142D01*
X76478571Y-67503571D01*
X76407142Y-67539285D01*
X76264285Y-67539285D01*
X77300000Y-67539285D02*
X76871428Y-67539285D01*
X77085714Y-67539285D02*
X77085714Y-66789285D01*
X77014285Y-66896428D01*
X76942857Y-66967857D01*
X76871428Y-67003571D01*
X77942857Y-67039285D02*
X77942857Y-67539285D01*
X77764285Y-66753571D02*
X77585714Y-67289285D01*
X78050000Y-67289285D01*
%TO.C,R31*%
X97717857Y-80189285D02*
X97467857Y-79832142D01*
X97289285Y-80189285D02*
X97289285Y-79439285D01*
X97575000Y-79439285D01*
X97646428Y-79475000D01*
X97682142Y-79510714D01*
X97717857Y-79582142D01*
X97717857Y-79689285D01*
X97682142Y-79760714D01*
X97646428Y-79796428D01*
X97575000Y-79832142D01*
X97289285Y-79832142D01*
X97967857Y-79439285D02*
X98432142Y-79439285D01*
X98182142Y-79725000D01*
X98289285Y-79725000D01*
X98360714Y-79760714D01*
X98396428Y-79796428D01*
X98432142Y-79867857D01*
X98432142Y-80046428D01*
X98396428Y-80117857D01*
X98360714Y-80153571D01*
X98289285Y-80189285D01*
X98075000Y-80189285D01*
X98003571Y-80153571D01*
X97967857Y-80117857D01*
X99146428Y-80189285D02*
X98717857Y-80189285D01*
X98932142Y-80189285D02*
X98932142Y-79439285D01*
X98860714Y-79546428D01*
X98789285Y-79617857D01*
X98717857Y-79653571D01*
%TO.C,C17*%
X80367857Y-52867857D02*
X80332142Y-52903571D01*
X80225000Y-52939285D01*
X80153571Y-52939285D01*
X80046428Y-52903571D01*
X79975000Y-52832142D01*
X79939285Y-52760714D01*
X79903571Y-52617857D01*
X79903571Y-52510714D01*
X79939285Y-52367857D01*
X79975000Y-52296428D01*
X80046428Y-52225000D01*
X80153571Y-52189285D01*
X80225000Y-52189285D01*
X80332142Y-52225000D01*
X80367857Y-52260714D01*
X81082142Y-52939285D02*
X80653571Y-52939285D01*
X80867857Y-52939285D02*
X80867857Y-52189285D01*
X80796428Y-52296428D01*
X80725000Y-52367857D01*
X80653571Y-52403571D01*
X81332142Y-52189285D02*
X81832142Y-52189285D01*
X81510714Y-52939285D01*
%TO.C,C25*%
X131317857Y-61117857D02*
X131282142Y-61153571D01*
X131175000Y-61189285D01*
X131103571Y-61189285D01*
X130996428Y-61153571D01*
X130925000Y-61082142D01*
X130889285Y-61010714D01*
X130853571Y-60867857D01*
X130853571Y-60760714D01*
X130889285Y-60617857D01*
X130925000Y-60546428D01*
X130996428Y-60475000D01*
X131103571Y-60439285D01*
X131175000Y-60439285D01*
X131282142Y-60475000D01*
X131317857Y-60510714D01*
X131603571Y-60510714D02*
X131639285Y-60475000D01*
X131710714Y-60439285D01*
X131889285Y-60439285D01*
X131960714Y-60475000D01*
X131996428Y-60510714D01*
X132032142Y-60582142D01*
X132032142Y-60653571D01*
X131996428Y-60760714D01*
X131567857Y-61189285D01*
X132032142Y-61189285D01*
X132710714Y-60439285D02*
X132353571Y-60439285D01*
X132317857Y-60796428D01*
X132353571Y-60760714D01*
X132425000Y-60725000D01*
X132603571Y-60725000D01*
X132675000Y-60760714D01*
X132710714Y-60796428D01*
X132746428Y-60867857D01*
X132746428Y-61046428D01*
X132710714Y-61117857D01*
X132675000Y-61153571D01*
X132603571Y-61189285D01*
X132425000Y-61189285D01*
X132353571Y-61153571D01*
X132317857Y-61117857D01*
%TO.C,Q12*%
X134921428Y-75060714D02*
X134850000Y-75025000D01*
X134778571Y-74953571D01*
X134671428Y-74846428D01*
X134600000Y-74810714D01*
X134528571Y-74810714D01*
X134564285Y-74989285D02*
X134492857Y-74953571D01*
X134421428Y-74882142D01*
X134385714Y-74739285D01*
X134385714Y-74489285D01*
X134421428Y-74346428D01*
X134492857Y-74275000D01*
X134564285Y-74239285D01*
X134707142Y-74239285D01*
X134778571Y-74275000D01*
X134850000Y-74346428D01*
X134885714Y-74489285D01*
X134885714Y-74739285D01*
X134850000Y-74882142D01*
X134778571Y-74953571D01*
X134707142Y-74989285D01*
X134564285Y-74989285D01*
X135600000Y-74989285D02*
X135171428Y-74989285D01*
X135385714Y-74989285D02*
X135385714Y-74239285D01*
X135314285Y-74346428D01*
X135242857Y-74417857D01*
X135171428Y-74453571D01*
X135885714Y-74310714D02*
X135921428Y-74275000D01*
X135992857Y-74239285D01*
X136171428Y-74239285D01*
X136242857Y-74275000D01*
X136278571Y-74310714D01*
X136314285Y-74382142D01*
X136314285Y-74453571D01*
X136278571Y-74560714D01*
X135850000Y-74989285D01*
X136314285Y-74989285D01*
%TO.C,Q7*%
X77169971Y-58881514D02*
X77098542Y-58845800D01*
X77027114Y-58774371D01*
X76919971Y-58667228D01*
X76848542Y-58631514D01*
X76777114Y-58631514D01*
X76812828Y-58810085D02*
X76741400Y-58774371D01*
X76669971Y-58702942D01*
X76634257Y-58560085D01*
X76634257Y-58310085D01*
X76669971Y-58167228D01*
X76741400Y-58095800D01*
X76812828Y-58060085D01*
X76955685Y-58060085D01*
X77027114Y-58095800D01*
X77098542Y-58167228D01*
X77134257Y-58310085D01*
X77134257Y-58560085D01*
X77098542Y-58702942D01*
X77027114Y-58774371D01*
X76955685Y-58810085D01*
X76812828Y-58810085D01*
X77384257Y-58060085D02*
X77884257Y-58060085D01*
X77562828Y-58810085D01*
%TO.C,C30*%
X105517857Y-51467857D02*
X105482142Y-51503571D01*
X105375000Y-51539285D01*
X105303571Y-51539285D01*
X105196428Y-51503571D01*
X105125000Y-51432142D01*
X105089285Y-51360714D01*
X105053571Y-51217857D01*
X105053571Y-51110714D01*
X105089285Y-50967857D01*
X105125000Y-50896428D01*
X105196428Y-50825000D01*
X105303571Y-50789285D01*
X105375000Y-50789285D01*
X105482142Y-50825000D01*
X105517857Y-50860714D01*
X105767857Y-50789285D02*
X106232142Y-50789285D01*
X105982142Y-51075000D01*
X106089285Y-51075000D01*
X106160714Y-51110714D01*
X106196428Y-51146428D01*
X106232142Y-51217857D01*
X106232142Y-51396428D01*
X106196428Y-51467857D01*
X106160714Y-51503571D01*
X106089285Y-51539285D01*
X105875000Y-51539285D01*
X105803571Y-51503571D01*
X105767857Y-51467857D01*
X106696428Y-50789285D02*
X106767857Y-50789285D01*
X106839285Y-50825000D01*
X106875000Y-50860714D01*
X106910714Y-50932142D01*
X106946428Y-51075000D01*
X106946428Y-51253571D01*
X106910714Y-51396428D01*
X106875000Y-51467857D01*
X106839285Y-51503571D01*
X106767857Y-51539285D01*
X106696428Y-51539285D01*
X106625000Y-51503571D01*
X106589285Y-51467857D01*
X106553571Y-51396428D01*
X106517857Y-51253571D01*
X106517857Y-51075000D01*
X106553571Y-50932142D01*
X106589285Y-50860714D01*
X106625000Y-50825000D01*
X106696428Y-50789285D01*
%TO.C,U7*%
X87928571Y-78739285D02*
X87928571Y-79346428D01*
X87964285Y-79417857D01*
X88000000Y-79453571D01*
X88071428Y-79489285D01*
X88214285Y-79489285D01*
X88285714Y-79453571D01*
X88321428Y-79417857D01*
X88357142Y-79346428D01*
X88357142Y-78739285D01*
X88642857Y-78739285D02*
X89142857Y-78739285D01*
X88821428Y-79489285D01*
%TO.C,R5*%
X119825000Y-77889285D02*
X119575000Y-77532142D01*
X119396428Y-77889285D02*
X119396428Y-77139285D01*
X119682142Y-77139285D01*
X119753571Y-77175000D01*
X119789285Y-77210714D01*
X119825000Y-77282142D01*
X119825000Y-77389285D01*
X119789285Y-77460714D01*
X119753571Y-77496428D01*
X119682142Y-77532142D01*
X119396428Y-77532142D01*
X120503571Y-77139285D02*
X120146428Y-77139285D01*
X120110714Y-77496428D01*
X120146428Y-77460714D01*
X120217857Y-77425000D01*
X120396428Y-77425000D01*
X120467857Y-77460714D01*
X120503571Y-77496428D01*
X120539285Y-77567857D01*
X120539285Y-77746428D01*
X120503571Y-77817857D01*
X120467857Y-77853571D01*
X120396428Y-77889285D01*
X120217857Y-77889285D01*
X120146428Y-77853571D01*
X120110714Y-77817857D01*
%TO.C,U4*%
X118578571Y-57689285D02*
X118578571Y-58296428D01*
X118614285Y-58367857D01*
X118650000Y-58403571D01*
X118721428Y-58439285D01*
X118864285Y-58439285D01*
X118935714Y-58403571D01*
X118971428Y-58367857D01*
X119007142Y-58296428D01*
X119007142Y-57689285D01*
X119685714Y-57939285D02*
X119685714Y-58439285D01*
X119507142Y-57653571D02*
X119328571Y-58189285D01*
X119792857Y-58189285D01*
%TO.C,R21*%
X105617857Y-78139285D02*
X105367857Y-77782142D01*
X105189285Y-78139285D02*
X105189285Y-77389285D01*
X105475000Y-77389285D01*
X105546428Y-77425000D01*
X105582142Y-77460714D01*
X105617857Y-77532142D01*
X105617857Y-77639285D01*
X105582142Y-77710714D01*
X105546428Y-77746428D01*
X105475000Y-77782142D01*
X105189285Y-77782142D01*
X105903571Y-77460714D02*
X105939285Y-77425000D01*
X106010714Y-77389285D01*
X106189285Y-77389285D01*
X106260714Y-77425000D01*
X106296428Y-77460714D01*
X106332142Y-77532142D01*
X106332142Y-77603571D01*
X106296428Y-77710714D01*
X105867857Y-78139285D01*
X106332142Y-78139285D01*
X107046428Y-78139285D02*
X106617857Y-78139285D01*
X106832142Y-78139285D02*
X106832142Y-77389285D01*
X106760714Y-77496428D01*
X106689285Y-77567857D01*
X106617857Y-77603571D01*
%TO.C,Q6*%
X134777171Y-91114114D02*
X134705742Y-91078400D01*
X134634314Y-91006971D01*
X134527171Y-90899828D01*
X134455742Y-90864114D01*
X134384314Y-90864114D01*
X134420028Y-91042685D02*
X134348600Y-91006971D01*
X134277171Y-90935542D01*
X134241457Y-90792685D01*
X134241457Y-90542685D01*
X134277171Y-90399828D01*
X134348600Y-90328400D01*
X134420028Y-90292685D01*
X134562885Y-90292685D01*
X134634314Y-90328400D01*
X134705742Y-90399828D01*
X134741457Y-90542685D01*
X134741457Y-90792685D01*
X134705742Y-90935542D01*
X134634314Y-91006971D01*
X134562885Y-91042685D01*
X134420028Y-91042685D01*
X135384314Y-90292685D02*
X135241457Y-90292685D01*
X135170028Y-90328400D01*
X135134314Y-90364114D01*
X135062885Y-90471257D01*
X135027171Y-90614114D01*
X135027171Y-90899828D01*
X135062885Y-90971257D01*
X135098600Y-91006971D01*
X135170028Y-91042685D01*
X135312885Y-91042685D01*
X135384314Y-91006971D01*
X135420028Y-90971257D01*
X135455742Y-90899828D01*
X135455742Y-90721257D01*
X135420028Y-90649828D01*
X135384314Y-90614114D01*
X135312885Y-90578400D01*
X135170028Y-90578400D01*
X135098600Y-90614114D01*
X135062885Y-90649828D01*
X135027171Y-90721257D01*
%TO.C,R11*%
X120467857Y-76389285D02*
X120217857Y-76032142D01*
X120039285Y-76389285D02*
X120039285Y-75639285D01*
X120325000Y-75639285D01*
X120396428Y-75675000D01*
X120432142Y-75710714D01*
X120467857Y-75782142D01*
X120467857Y-75889285D01*
X120432142Y-75960714D01*
X120396428Y-75996428D01*
X120325000Y-76032142D01*
X120039285Y-76032142D01*
X121182142Y-76389285D02*
X120753571Y-76389285D01*
X120967857Y-76389285D02*
X120967857Y-75639285D01*
X120896428Y-75746428D01*
X120825000Y-75817857D01*
X120753571Y-75853571D01*
X121896428Y-76389285D02*
X121467857Y-76389285D01*
X121682142Y-76389285D02*
X121682142Y-75639285D01*
X121610714Y-75746428D01*
X121539285Y-75817857D01*
X121467857Y-75853571D01*
%TO.C,R14*%
X87767857Y-87889285D02*
X87517857Y-87532142D01*
X87339285Y-87889285D02*
X87339285Y-87139285D01*
X87625000Y-87139285D01*
X87696428Y-87175000D01*
X87732142Y-87210714D01*
X87767857Y-87282142D01*
X87767857Y-87389285D01*
X87732142Y-87460714D01*
X87696428Y-87496428D01*
X87625000Y-87532142D01*
X87339285Y-87532142D01*
X88482142Y-87889285D02*
X88053571Y-87889285D01*
X88267857Y-87889285D02*
X88267857Y-87139285D01*
X88196428Y-87246428D01*
X88125000Y-87317857D01*
X88053571Y-87353571D01*
X89125000Y-87389285D02*
X89125000Y-87889285D01*
X88946428Y-87103571D02*
X88767857Y-87639285D01*
X89232142Y-87639285D01*
%TO.C,L1*%
X117125000Y-75989285D02*
X116767857Y-75989285D01*
X116767857Y-75239285D01*
X117767857Y-75989285D02*
X117339285Y-75989285D01*
X117553571Y-75989285D02*
X117553571Y-75239285D01*
X117482142Y-75346428D01*
X117410714Y-75417857D01*
X117339285Y-75453571D01*
%TO.C,R1*%
X93625000Y-61889284D02*
X93375000Y-61532141D01*
X93196428Y-61889284D02*
X93196428Y-61139284D01*
X93482142Y-61139284D01*
X93553571Y-61174999D01*
X93589285Y-61210713D01*
X93625000Y-61282141D01*
X93625000Y-61389284D01*
X93589285Y-61460713D01*
X93553571Y-61496427D01*
X93482142Y-61532141D01*
X93196428Y-61532141D01*
X94339285Y-61889284D02*
X93910714Y-61889284D01*
X94125000Y-61889284D02*
X94125000Y-61139284D01*
X94053571Y-61246427D01*
X93982142Y-61317856D01*
X93910714Y-61353570D01*
%TO.C,R26*%
X99667857Y-87089285D02*
X99417857Y-86732142D01*
X99239285Y-87089285D02*
X99239285Y-86339285D01*
X99525000Y-86339285D01*
X99596428Y-86375000D01*
X99632142Y-86410714D01*
X99667857Y-86482142D01*
X99667857Y-86589285D01*
X99632142Y-86660714D01*
X99596428Y-86696428D01*
X99525000Y-86732142D01*
X99239285Y-86732142D01*
X99953571Y-86410714D02*
X99989285Y-86375000D01*
X100060714Y-86339285D01*
X100239285Y-86339285D01*
X100310714Y-86375000D01*
X100346428Y-86410714D01*
X100382142Y-86482142D01*
X100382142Y-86553571D01*
X100346428Y-86660714D01*
X99917857Y-87089285D01*
X100382142Y-87089285D01*
X101025000Y-86339285D02*
X100882142Y-86339285D01*
X100810714Y-86375000D01*
X100775000Y-86410714D01*
X100703571Y-86517857D01*
X100667857Y-86660714D01*
X100667857Y-86946428D01*
X100703571Y-87017857D01*
X100739285Y-87053571D01*
X100810714Y-87089285D01*
X100953571Y-87089285D01*
X101025000Y-87053571D01*
X101060714Y-87017857D01*
X101096428Y-86946428D01*
X101096428Y-86767857D01*
X101060714Y-86696428D01*
X101025000Y-86660714D01*
X100953571Y-86625000D01*
X100810714Y-86625000D01*
X100739285Y-86660714D01*
X100703571Y-86696428D01*
X100667857Y-86767857D01*
%TO.C,C12*%
X104167857Y-60417857D02*
X104132142Y-60453571D01*
X104025000Y-60489285D01*
X103953571Y-60489285D01*
X103846428Y-60453571D01*
X103775000Y-60382142D01*
X103739285Y-60310714D01*
X103703571Y-60167857D01*
X103703571Y-60060714D01*
X103739285Y-59917857D01*
X103775000Y-59846428D01*
X103846428Y-59775000D01*
X103953571Y-59739285D01*
X104025000Y-59739285D01*
X104132142Y-59775000D01*
X104167857Y-59810714D01*
X104882142Y-60489285D02*
X104453571Y-60489285D01*
X104667857Y-60489285D02*
X104667857Y-59739285D01*
X104596428Y-59846428D01*
X104525000Y-59917857D01*
X104453571Y-59953571D01*
X105167857Y-59810714D02*
X105203571Y-59775000D01*
X105275000Y-59739285D01*
X105453571Y-59739285D01*
X105525000Y-59775000D01*
X105560714Y-59810714D01*
X105596428Y-59882142D01*
X105596428Y-59953571D01*
X105560714Y-60060714D01*
X105132142Y-60489285D01*
X105596428Y-60489285D01*
%TO.C,R29*%
X110467857Y-49189285D02*
X110217857Y-48832142D01*
X110039285Y-49189285D02*
X110039285Y-48439285D01*
X110325000Y-48439285D01*
X110396428Y-48475000D01*
X110432142Y-48510714D01*
X110467857Y-48582142D01*
X110467857Y-48689285D01*
X110432142Y-48760714D01*
X110396428Y-48796428D01*
X110325000Y-48832142D01*
X110039285Y-48832142D01*
X110753571Y-48510714D02*
X110789285Y-48475000D01*
X110860714Y-48439285D01*
X111039285Y-48439285D01*
X111110714Y-48475000D01*
X111146428Y-48510714D01*
X111182142Y-48582142D01*
X111182142Y-48653571D01*
X111146428Y-48760714D01*
X110717857Y-49189285D01*
X111182142Y-49189285D01*
X111539285Y-49189285D02*
X111682142Y-49189285D01*
X111753571Y-49153571D01*
X111789285Y-49117857D01*
X111860714Y-49010714D01*
X111896428Y-48867857D01*
X111896428Y-48582142D01*
X111860714Y-48510714D01*
X111825000Y-48475000D01*
X111753571Y-48439285D01*
X111610714Y-48439285D01*
X111539285Y-48475000D01*
X111503571Y-48510714D01*
X111467857Y-48582142D01*
X111467857Y-48760714D01*
X111503571Y-48832142D01*
X111539285Y-48867857D01*
X111610714Y-48903571D01*
X111753571Y-48903571D01*
X111825000Y-48867857D01*
X111860714Y-48832142D01*
X111896428Y-48760714D01*
%TO.C,C8*%
X96825000Y-74767857D02*
X96789285Y-74803571D01*
X96682142Y-74839285D01*
X96610714Y-74839285D01*
X96503571Y-74803571D01*
X96432142Y-74732142D01*
X96396428Y-74660714D01*
X96360714Y-74517857D01*
X96360714Y-74410714D01*
X96396428Y-74267857D01*
X96432142Y-74196428D01*
X96503571Y-74125000D01*
X96610714Y-74089285D01*
X96682142Y-74089285D01*
X96789285Y-74125000D01*
X96825000Y-74160714D01*
X97253571Y-74410714D02*
X97182142Y-74375000D01*
X97146428Y-74339285D01*
X97110714Y-74267857D01*
X97110714Y-74232142D01*
X97146428Y-74160714D01*
X97182142Y-74125000D01*
X97253571Y-74089285D01*
X97396428Y-74089285D01*
X97467857Y-74125000D01*
X97503571Y-74160714D01*
X97539285Y-74232142D01*
X97539285Y-74267857D01*
X97503571Y-74339285D01*
X97467857Y-74375000D01*
X97396428Y-74410714D01*
X97253571Y-74410714D01*
X97182142Y-74446428D01*
X97146428Y-74482142D01*
X97110714Y-74553571D01*
X97110714Y-74696428D01*
X97146428Y-74767857D01*
X97182142Y-74803571D01*
X97253571Y-74839285D01*
X97396428Y-74839285D01*
X97467857Y-74803571D01*
X97503571Y-74767857D01*
X97539285Y-74696428D01*
X97539285Y-74553571D01*
X97503571Y-74482142D01*
X97467857Y-74446428D01*
X97396428Y-74410714D01*
%TO.C,R3*%
X110075000Y-71214285D02*
X109825000Y-70857142D01*
X109646428Y-71214285D02*
X109646428Y-70464285D01*
X109932142Y-70464285D01*
X110003571Y-70500000D01*
X110039285Y-70535714D01*
X110075000Y-70607142D01*
X110075000Y-70714285D01*
X110039285Y-70785714D01*
X110003571Y-70821428D01*
X109932142Y-70857142D01*
X109646428Y-70857142D01*
X110325000Y-70464285D02*
X110789285Y-70464285D01*
X110539285Y-70750000D01*
X110646428Y-70750000D01*
X110717857Y-70785714D01*
X110753571Y-70821428D01*
X110789285Y-70892857D01*
X110789285Y-71071428D01*
X110753571Y-71142857D01*
X110717857Y-71178571D01*
X110646428Y-71214285D01*
X110432142Y-71214285D01*
X110360714Y-71178571D01*
X110325000Y-71142857D01*
%TO.C,R20*%
X114989285Y-85982142D02*
X114632142Y-86232142D01*
X114989285Y-86410714D02*
X114239285Y-86410714D01*
X114239285Y-86125000D01*
X114275000Y-86053571D01*
X114310714Y-86017857D01*
X114382142Y-85982142D01*
X114489285Y-85982142D01*
X114560714Y-86017857D01*
X114596428Y-86053571D01*
X114632142Y-86125000D01*
X114632142Y-86410714D01*
X114310714Y-85696428D02*
X114275000Y-85660714D01*
X114239285Y-85589285D01*
X114239285Y-85410714D01*
X114275000Y-85339285D01*
X114310714Y-85303571D01*
X114382142Y-85267857D01*
X114453571Y-85267857D01*
X114560714Y-85303571D01*
X114989285Y-85732142D01*
X114989285Y-85267857D01*
X114239285Y-84803571D02*
X114239285Y-84732142D01*
X114275000Y-84660714D01*
X114310714Y-84625000D01*
X114382142Y-84589285D01*
X114525000Y-84553571D01*
X114703571Y-84553571D01*
X114846428Y-84589285D01*
X114917857Y-84625000D01*
X114953571Y-84660714D01*
X114989285Y-84732142D01*
X114989285Y-84803571D01*
X114953571Y-84875000D01*
X114917857Y-84910714D01*
X114846428Y-84946428D01*
X114703571Y-84982142D01*
X114525000Y-84982142D01*
X114382142Y-84946428D01*
X114310714Y-84910714D01*
X114275000Y-84875000D01*
X114239285Y-84803571D01*
%TO.C,Q10*%
X76821428Y-83910714D02*
X76750000Y-83875000D01*
X76678571Y-83803571D01*
X76571428Y-83696428D01*
X76500000Y-83660714D01*
X76428571Y-83660714D01*
X76464285Y-83839285D02*
X76392857Y-83803571D01*
X76321428Y-83732142D01*
X76285714Y-83589285D01*
X76285714Y-83339285D01*
X76321428Y-83196428D01*
X76392857Y-83125000D01*
X76464285Y-83089285D01*
X76607142Y-83089285D01*
X76678571Y-83125000D01*
X76750000Y-83196428D01*
X76785714Y-83339285D01*
X76785714Y-83589285D01*
X76750000Y-83732142D01*
X76678571Y-83803571D01*
X76607142Y-83839285D01*
X76464285Y-83839285D01*
X77500000Y-83839285D02*
X77071428Y-83839285D01*
X77285714Y-83839285D02*
X77285714Y-83089285D01*
X77214285Y-83196428D01*
X77142857Y-83267857D01*
X77071428Y-83303571D01*
X77964285Y-83089285D02*
X78035714Y-83089285D01*
X78107142Y-83125000D01*
X78142857Y-83160714D01*
X78178571Y-83232142D01*
X78214285Y-83375000D01*
X78214285Y-83553571D01*
X78178571Y-83696428D01*
X78142857Y-83767857D01*
X78107142Y-83803571D01*
X78035714Y-83839285D01*
X77964285Y-83839285D01*
X77892857Y-83803571D01*
X77857142Y-83767857D01*
X77821428Y-83696428D01*
X77785714Y-83553571D01*
X77785714Y-83375000D01*
X77821428Y-83232142D01*
X77857142Y-83160714D01*
X77892857Y-83125000D01*
X77964285Y-83089285D01*
D10*
%TO.C,*%
D15*
%TO.C,R22*%
X110467857Y-52866485D02*
X110217857Y-52509342D01*
X110039285Y-52866485D02*
X110039285Y-52116485D01*
X110325000Y-52116485D01*
X110396428Y-52152200D01*
X110432142Y-52187914D01*
X110467857Y-52259342D01*
X110467857Y-52366485D01*
X110432142Y-52437914D01*
X110396428Y-52473628D01*
X110325000Y-52509342D01*
X110039285Y-52509342D01*
X110753571Y-52187914D02*
X110789285Y-52152200D01*
X110860714Y-52116485D01*
X111039285Y-52116485D01*
X111110714Y-52152200D01*
X111146428Y-52187914D01*
X111182142Y-52259342D01*
X111182142Y-52330771D01*
X111146428Y-52437914D01*
X110717857Y-52866485D01*
X111182142Y-52866485D01*
X111467857Y-52187914D02*
X111503571Y-52152200D01*
X111575000Y-52116485D01*
X111753571Y-52116485D01*
X111825000Y-52152200D01*
X111860714Y-52187914D01*
X111896428Y-52259342D01*
X111896428Y-52330771D01*
X111860714Y-52437914D01*
X111432142Y-52866485D01*
X111896428Y-52866485D01*
%TO.C,U3*%
X99098171Y-58288685D02*
X99098171Y-58895828D01*
X99133885Y-58967257D01*
X99169600Y-59002971D01*
X99241028Y-59038685D01*
X99383885Y-59038685D01*
X99455314Y-59002971D01*
X99491028Y-58967257D01*
X99526742Y-58895828D01*
X99526742Y-58288685D01*
X99812457Y-58288685D02*
X100276742Y-58288685D01*
X100026742Y-58574400D01*
X100133885Y-58574400D01*
X100205314Y-58610114D01*
X100241028Y-58645828D01*
X100276742Y-58717257D01*
X100276742Y-58895828D01*
X100241028Y-58967257D01*
X100205314Y-59002971D01*
X100133885Y-59038685D01*
X99919600Y-59038685D01*
X99848171Y-59002971D01*
X99812457Y-58967257D01*
%TO.C,R10*%
X120467857Y-74972617D02*
X120217857Y-74615474D01*
X120039285Y-74972617D02*
X120039285Y-74222617D01*
X120325000Y-74222617D01*
X120396428Y-74258332D01*
X120432142Y-74294046D01*
X120467857Y-74365474D01*
X120467857Y-74472617D01*
X120432142Y-74544046D01*
X120396428Y-74579760D01*
X120325000Y-74615474D01*
X120039285Y-74615474D01*
X121182142Y-74972617D02*
X120753571Y-74972617D01*
X120967857Y-74972617D02*
X120967857Y-74222617D01*
X120896428Y-74329760D01*
X120825000Y-74401189D01*
X120753571Y-74436903D01*
X121646428Y-74222617D02*
X121717857Y-74222617D01*
X121789285Y-74258332D01*
X121825000Y-74294046D01*
X121860714Y-74365474D01*
X121896428Y-74508332D01*
X121896428Y-74686903D01*
X121860714Y-74829760D01*
X121825000Y-74901189D01*
X121789285Y-74936903D01*
X121717857Y-74972617D01*
X121646428Y-74972617D01*
X121575000Y-74936903D01*
X121539285Y-74901189D01*
X121503571Y-74829760D01*
X121467857Y-74686903D01*
X121467857Y-74508332D01*
X121503571Y-74365474D01*
X121539285Y-74294046D01*
X121575000Y-74258332D01*
X121646428Y-74222617D01*
%TO.C,X1*%
X89892858Y-75039285D02*
X90392858Y-75789285D01*
X90392858Y-75039285D02*
X89892858Y-75789285D01*
X91071429Y-75789285D02*
X90642858Y-75789285D01*
X90857143Y-75789285D02*
X90857143Y-75039285D01*
X90785715Y-75146428D01*
X90714286Y-75217857D01*
X90642858Y-75253571D01*
D10*
%TO.C,*%
D15*
%TO.C,C2*%
X88975000Y-72167857D02*
X88939285Y-72203571D01*
X88832142Y-72239285D01*
X88760714Y-72239285D01*
X88653571Y-72203571D01*
X88582142Y-72132142D01*
X88546428Y-72060714D01*
X88510714Y-71917857D01*
X88510714Y-71810714D01*
X88546428Y-71667857D01*
X88582142Y-71596428D01*
X88653571Y-71525000D01*
X88760714Y-71489285D01*
X88832142Y-71489285D01*
X88939285Y-71525000D01*
X88975000Y-71560714D01*
X89260714Y-71560714D02*
X89296428Y-71525000D01*
X89367857Y-71489285D01*
X89546428Y-71489285D01*
X89617857Y-71525000D01*
X89653571Y-71560714D01*
X89689285Y-71632142D01*
X89689285Y-71703571D01*
X89653571Y-71810714D01*
X89225000Y-72239285D01*
X89689285Y-72239285D01*
%TO.C,R8*%
X111039285Y-85625000D02*
X110682142Y-85875000D01*
X111039285Y-86053571D02*
X110289285Y-86053571D01*
X110289285Y-85767857D01*
X110325000Y-85696428D01*
X110360714Y-85660714D01*
X110432142Y-85625000D01*
X110539285Y-85625000D01*
X110610714Y-85660714D01*
X110646428Y-85696428D01*
X110682142Y-85767857D01*
X110682142Y-86053571D01*
X110610714Y-85196428D02*
X110575000Y-85267857D01*
X110539285Y-85303571D01*
X110467857Y-85339285D01*
X110432142Y-85339285D01*
X110360714Y-85303571D01*
X110325000Y-85267857D01*
X110289285Y-85196428D01*
X110289285Y-85053571D01*
X110325000Y-84982142D01*
X110360714Y-84946428D01*
X110432142Y-84910714D01*
X110467857Y-84910714D01*
X110539285Y-84946428D01*
X110575000Y-84982142D01*
X110610714Y-85053571D01*
X110610714Y-85196428D01*
X110646428Y-85267857D01*
X110682142Y-85303571D01*
X110753571Y-85339285D01*
X110896428Y-85339285D01*
X110967857Y-85303571D01*
X111003571Y-85267857D01*
X111039285Y-85196428D01*
X111039285Y-85053571D01*
X111003571Y-84982142D01*
X110967857Y-84946428D01*
X110896428Y-84910714D01*
X110753571Y-84910714D01*
X110682142Y-84946428D01*
X110646428Y-84982142D01*
X110610714Y-85053571D01*
%TO.C,Q4*%
X108028571Y-82160714D02*
X107957142Y-82125000D01*
X107885714Y-82053571D01*
X107778571Y-81946428D01*
X107707142Y-81910714D01*
X107635714Y-81910714D01*
X107671428Y-82089285D02*
X107600000Y-82053571D01*
X107528571Y-81982142D01*
X107492857Y-81839285D01*
X107492857Y-81589285D01*
X107528571Y-81446428D01*
X107600000Y-81375000D01*
X107671428Y-81339285D01*
X107814285Y-81339285D01*
X107885714Y-81375000D01*
X107957142Y-81446428D01*
X107992857Y-81589285D01*
X107992857Y-81839285D01*
X107957142Y-81982142D01*
X107885714Y-82053571D01*
X107814285Y-82089285D01*
X107671428Y-82089285D01*
X108635714Y-81589285D02*
X108635714Y-82089285D01*
X108457142Y-81303571D02*
X108278571Y-81839285D01*
X108742857Y-81839285D01*
%TO.C,Q13*%
X76771428Y-75060714D02*
X76700000Y-75025000D01*
X76628571Y-74953571D01*
X76521428Y-74846428D01*
X76450000Y-74810714D01*
X76378571Y-74810714D01*
X76414285Y-74989285D02*
X76342857Y-74953571D01*
X76271428Y-74882142D01*
X76235714Y-74739285D01*
X76235714Y-74489285D01*
X76271428Y-74346428D01*
X76342857Y-74275000D01*
X76414285Y-74239285D01*
X76557142Y-74239285D01*
X76628571Y-74275000D01*
X76700000Y-74346428D01*
X76735714Y-74489285D01*
X76735714Y-74739285D01*
X76700000Y-74882142D01*
X76628571Y-74953571D01*
X76557142Y-74989285D01*
X76414285Y-74989285D01*
X77450000Y-74989285D02*
X77021428Y-74989285D01*
X77235714Y-74989285D02*
X77235714Y-74239285D01*
X77164285Y-74346428D01*
X77092857Y-74417857D01*
X77021428Y-74453571D01*
X77700000Y-74239285D02*
X78164285Y-74239285D01*
X77914285Y-74525000D01*
X78021428Y-74525000D01*
X78092857Y-74560714D01*
X78128571Y-74596428D01*
X78164285Y-74667857D01*
X78164285Y-74846428D01*
X78128571Y-74917857D01*
X78092857Y-74953571D01*
X78021428Y-74989285D01*
X77807142Y-74989285D01*
X77735714Y-74953571D01*
X77700000Y-74917857D01*
%TO.C,C32*%
X105517857Y-49617857D02*
X105482142Y-49653571D01*
X105375000Y-49689285D01*
X105303571Y-49689285D01*
X105196428Y-49653571D01*
X105125000Y-49582142D01*
X105089285Y-49510714D01*
X105053571Y-49367857D01*
X105053571Y-49260714D01*
X105089285Y-49117857D01*
X105125000Y-49046428D01*
X105196428Y-48975000D01*
X105303571Y-48939285D01*
X105375000Y-48939285D01*
X105482142Y-48975000D01*
X105517857Y-49010714D01*
X105767857Y-48939285D02*
X106232142Y-48939285D01*
X105982142Y-49225000D01*
X106089285Y-49225000D01*
X106160714Y-49260714D01*
X106196428Y-49296428D01*
X106232142Y-49367857D01*
X106232142Y-49546428D01*
X106196428Y-49617857D01*
X106160714Y-49653571D01*
X106089285Y-49689285D01*
X105875000Y-49689285D01*
X105803571Y-49653571D01*
X105767857Y-49617857D01*
X106517857Y-49010714D02*
X106553571Y-48975000D01*
X106625000Y-48939285D01*
X106803571Y-48939285D01*
X106875000Y-48975000D01*
X106910714Y-49010714D01*
X106946428Y-49082142D01*
X106946428Y-49153571D01*
X106910714Y-49260714D01*
X106482142Y-49689285D01*
X106946428Y-49689285D01*
%TO.C,C33*%
X99617857Y-81067857D02*
X99582142Y-81103571D01*
X99475000Y-81139285D01*
X99403571Y-81139285D01*
X99296428Y-81103571D01*
X99225000Y-81032142D01*
X99189285Y-80960714D01*
X99153571Y-80817857D01*
X99153571Y-80710714D01*
X99189285Y-80567857D01*
X99225000Y-80496428D01*
X99296428Y-80425000D01*
X99403571Y-80389285D01*
X99475000Y-80389285D01*
X99582142Y-80425000D01*
X99617857Y-80460714D01*
X99867857Y-80389285D02*
X100332142Y-80389285D01*
X100082142Y-80675000D01*
X100189285Y-80675000D01*
X100260714Y-80710714D01*
X100296428Y-80746428D01*
X100332142Y-80817857D01*
X100332142Y-80996428D01*
X100296428Y-81067857D01*
X100260714Y-81103571D01*
X100189285Y-81139285D01*
X99975000Y-81139285D01*
X99903571Y-81103571D01*
X99867857Y-81067857D01*
X100582142Y-80389285D02*
X101046428Y-80389285D01*
X100796428Y-80675000D01*
X100903571Y-80675000D01*
X100975000Y-80710714D01*
X101010714Y-80746428D01*
X101046428Y-80817857D01*
X101046428Y-80996428D01*
X101010714Y-81067857D01*
X100975000Y-81103571D01*
X100903571Y-81139285D01*
X100689285Y-81139285D01*
X100617857Y-81103571D01*
X100582142Y-81067857D01*
%TO.C,AC1*%
X104089285Y-54925000D02*
X104446428Y-54925000D01*
X104017857Y-55139285D02*
X104267857Y-54389285D01*
X104517857Y-55139285D01*
X105196428Y-55067857D02*
X105160714Y-55103571D01*
X105053571Y-55139285D01*
X104982142Y-55139285D01*
X104875000Y-55103571D01*
X104803571Y-55032142D01*
X104767857Y-54960714D01*
X104732142Y-54817857D01*
X104732142Y-54710714D01*
X104767857Y-54567857D01*
X104803571Y-54496428D01*
X104875000Y-54425000D01*
X104982142Y-54389285D01*
X105053571Y-54389285D01*
X105160714Y-54425000D01*
X105196428Y-54460714D01*
X105910714Y-55139285D02*
X105482142Y-55139285D01*
X105696428Y-55139285D02*
X105696428Y-54389285D01*
X105625000Y-54496428D01*
X105553571Y-54567857D01*
X105482142Y-54603571D01*
%TO.C,C28*%
X105517857Y-47767857D02*
X105482142Y-47803571D01*
X105375000Y-47839285D01*
X105303571Y-47839285D01*
X105196428Y-47803571D01*
X105125000Y-47732142D01*
X105089285Y-47660714D01*
X105053571Y-47517857D01*
X105053571Y-47410714D01*
X105089285Y-47267857D01*
X105125000Y-47196428D01*
X105196428Y-47125000D01*
X105303571Y-47089285D01*
X105375000Y-47089285D01*
X105482142Y-47125000D01*
X105517857Y-47160714D01*
X105803571Y-47160714D02*
X105839285Y-47125000D01*
X105910714Y-47089285D01*
X106089285Y-47089285D01*
X106160714Y-47125000D01*
X106196428Y-47160714D01*
X106232142Y-47232142D01*
X106232142Y-47303571D01*
X106196428Y-47410714D01*
X105767857Y-47839285D01*
X106232142Y-47839285D01*
X106660714Y-47410714D02*
X106589285Y-47375000D01*
X106553571Y-47339285D01*
X106517857Y-47267857D01*
X106517857Y-47232142D01*
X106553571Y-47160714D01*
X106589285Y-47125000D01*
X106660714Y-47089285D01*
X106803571Y-47089285D01*
X106875000Y-47125000D01*
X106910714Y-47160714D01*
X106946428Y-47232142D01*
X106946428Y-47267857D01*
X106910714Y-47339285D01*
X106875000Y-47375000D01*
X106803571Y-47410714D01*
X106660714Y-47410714D01*
X106589285Y-47446428D01*
X106553571Y-47482142D01*
X106517857Y-47553571D01*
X106517857Y-47696428D01*
X106553571Y-47767857D01*
X106589285Y-47803571D01*
X106660714Y-47839285D01*
X106803571Y-47839285D01*
X106875000Y-47803571D01*
X106910714Y-47767857D01*
X106946428Y-47696428D01*
X106946428Y-47553571D01*
X106910714Y-47482142D01*
X106875000Y-47446428D01*
X106803571Y-47410714D01*
%TO.C,C15*%
X110467857Y-58306857D02*
X110432142Y-58342571D01*
X110325000Y-58378285D01*
X110253571Y-58378285D01*
X110146428Y-58342571D01*
X110075000Y-58271142D01*
X110039285Y-58199714D01*
X110003571Y-58056857D01*
X110003571Y-57949714D01*
X110039285Y-57806857D01*
X110075000Y-57735428D01*
X110146428Y-57664000D01*
X110253571Y-57628285D01*
X110325000Y-57628285D01*
X110432142Y-57664000D01*
X110467857Y-57699714D01*
X111182142Y-58378285D02*
X110753571Y-58378285D01*
X110967857Y-58378285D02*
X110967857Y-57628285D01*
X110896428Y-57735428D01*
X110825000Y-57806857D01*
X110753571Y-57842571D01*
X111860714Y-57628285D02*
X111503571Y-57628285D01*
X111467857Y-57985428D01*
X111503571Y-57949714D01*
X111575000Y-57914000D01*
X111753571Y-57914000D01*
X111825000Y-57949714D01*
X111860714Y-57985428D01*
X111896428Y-58056857D01*
X111896428Y-58235428D01*
X111860714Y-58306857D01*
X111825000Y-58342571D01*
X111753571Y-58378285D01*
X111575000Y-58378285D01*
X111503571Y-58342571D01*
X111467857Y-58306857D01*
%TO.C,C24*%
X79867857Y-80667857D02*
X79832142Y-80703571D01*
X79725000Y-80739285D01*
X79653571Y-80739285D01*
X79546428Y-80703571D01*
X79475000Y-80632142D01*
X79439285Y-80560714D01*
X79403571Y-80417857D01*
X79403571Y-80310714D01*
X79439285Y-80167857D01*
X79475000Y-80096428D01*
X79546428Y-80025000D01*
X79653571Y-79989285D01*
X79725000Y-79989285D01*
X79832142Y-80025000D01*
X79867857Y-80060714D01*
X80153571Y-80060714D02*
X80189285Y-80025000D01*
X80260714Y-79989285D01*
X80439285Y-79989285D01*
X80510714Y-80025000D01*
X80546428Y-80060714D01*
X80582142Y-80132142D01*
X80582142Y-80203571D01*
X80546428Y-80310714D01*
X80117857Y-80739285D01*
X80582142Y-80739285D01*
X81225000Y-80239285D02*
X81225000Y-80739285D01*
X81046428Y-79953571D02*
X80867857Y-80489285D01*
X81332142Y-80489285D01*
%TO.C,R33*%
X95917857Y-89739285D02*
X95667857Y-89382142D01*
X95489285Y-89739285D02*
X95489285Y-88989285D01*
X95775000Y-88989285D01*
X95846428Y-89025000D01*
X95882142Y-89060714D01*
X95917857Y-89132142D01*
X95917857Y-89239285D01*
X95882142Y-89310714D01*
X95846428Y-89346428D01*
X95775000Y-89382142D01*
X95489285Y-89382142D01*
X96167857Y-88989285D02*
X96632142Y-88989285D01*
X96382142Y-89275000D01*
X96489285Y-89275000D01*
X96560714Y-89310714D01*
X96596428Y-89346428D01*
X96632142Y-89417857D01*
X96632142Y-89596428D01*
X96596428Y-89667857D01*
X96560714Y-89703571D01*
X96489285Y-89739285D01*
X96275000Y-89739285D01*
X96203571Y-89703571D01*
X96167857Y-89667857D01*
X96882142Y-88989285D02*
X97346428Y-88989285D01*
X97096428Y-89275000D01*
X97203571Y-89275000D01*
X97275000Y-89310714D01*
X97310714Y-89346428D01*
X97346428Y-89417857D01*
X97346428Y-89596428D01*
X97310714Y-89667857D01*
X97275000Y-89703571D01*
X97203571Y-89739285D01*
X96989285Y-89739285D01*
X96917857Y-89703571D01*
X96882142Y-89667857D01*
%TO.C,Q2*%
X134751771Y-58932314D02*
X134680342Y-58896600D01*
X134608914Y-58825171D01*
X134501771Y-58718028D01*
X134430342Y-58682314D01*
X134358914Y-58682314D01*
X134394628Y-58860885D02*
X134323200Y-58825171D01*
X134251771Y-58753742D01*
X134216057Y-58610885D01*
X134216057Y-58360885D01*
X134251771Y-58218028D01*
X134323200Y-58146600D01*
X134394628Y-58110885D01*
X134537485Y-58110885D01*
X134608914Y-58146600D01*
X134680342Y-58218028D01*
X134716057Y-58360885D01*
X134716057Y-58610885D01*
X134680342Y-58753742D01*
X134608914Y-58825171D01*
X134537485Y-58860885D01*
X134394628Y-58860885D01*
X135001771Y-58182314D02*
X135037485Y-58146600D01*
X135108914Y-58110885D01*
X135287485Y-58110885D01*
X135358914Y-58146600D01*
X135394628Y-58182314D01*
X135430342Y-58253742D01*
X135430342Y-58325171D01*
X135394628Y-58432314D01*
X134966057Y-58860885D01*
X135430342Y-58860885D01*
D10*
%TO.C,*%
D15*
%TO.C,C27*%
X131367857Y-92767857D02*
X131332142Y-92803571D01*
X131225000Y-92839285D01*
X131153571Y-92839285D01*
X131046428Y-92803571D01*
X130975000Y-92732142D01*
X130939285Y-92660714D01*
X130903571Y-92517857D01*
X130903571Y-92410714D01*
X130939285Y-92267857D01*
X130975000Y-92196428D01*
X131046428Y-92125000D01*
X131153571Y-92089285D01*
X131225000Y-92089285D01*
X131332142Y-92125000D01*
X131367857Y-92160714D01*
X131653571Y-92160714D02*
X131689285Y-92125000D01*
X131760714Y-92089285D01*
X131939285Y-92089285D01*
X132010714Y-92125000D01*
X132046428Y-92160714D01*
X132082142Y-92232142D01*
X132082142Y-92303571D01*
X132046428Y-92410714D01*
X131617857Y-92839285D01*
X132082142Y-92839285D01*
X132332142Y-92089285D02*
X132832142Y-92089285D01*
X132510714Y-92839285D01*
%TO.C,C4*%
X95575000Y-76867857D02*
X95539285Y-76903571D01*
X95432142Y-76939285D01*
X95360714Y-76939285D01*
X95253571Y-76903571D01*
X95182142Y-76832142D01*
X95146428Y-76760714D01*
X95110714Y-76617857D01*
X95110714Y-76510714D01*
X95146428Y-76367857D01*
X95182142Y-76296428D01*
X95253571Y-76225000D01*
X95360714Y-76189285D01*
X95432142Y-76189285D01*
X95539285Y-76225000D01*
X95575000Y-76260714D01*
X96217857Y-76439285D02*
X96217857Y-76939285D01*
X96039285Y-76153571D02*
X95860714Y-76689285D01*
X96325000Y-76689285D01*
%TO.C,R9*%
X113039285Y-85625000D02*
X112682142Y-85875000D01*
X113039285Y-86053571D02*
X112289285Y-86053571D01*
X112289285Y-85767857D01*
X112325000Y-85696428D01*
X112360714Y-85660714D01*
X112432142Y-85625000D01*
X112539285Y-85625000D01*
X112610714Y-85660714D01*
X112646428Y-85696428D01*
X112682142Y-85767857D01*
X112682142Y-86053571D01*
X113039285Y-85267857D02*
X113039285Y-85125000D01*
X113003571Y-85053571D01*
X112967857Y-85017857D01*
X112860714Y-84946428D01*
X112717857Y-84910714D01*
X112432142Y-84910714D01*
X112360714Y-84946428D01*
X112325000Y-84982142D01*
X112289285Y-85053571D01*
X112289285Y-85196428D01*
X112325000Y-85267857D01*
X112360714Y-85303571D01*
X112432142Y-85339285D01*
X112610714Y-85339285D01*
X112682142Y-85303571D01*
X112717857Y-85267857D01*
X112753571Y-85196428D01*
X112753571Y-85053571D01*
X112717857Y-84982142D01*
X112682142Y-84946428D01*
X112610714Y-84910714D01*
%TO.C,Q3*%
X113028571Y-82160714D02*
X112957142Y-82125000D01*
X112885714Y-82053571D01*
X112778571Y-81946428D01*
X112707142Y-81910714D01*
X112635714Y-81910714D01*
X112671428Y-82089285D02*
X112600000Y-82053571D01*
X112528571Y-81982142D01*
X112492857Y-81839285D01*
X112492857Y-81589285D01*
X112528571Y-81446428D01*
X112600000Y-81375000D01*
X112671428Y-81339285D01*
X112814285Y-81339285D01*
X112885714Y-81375000D01*
X112957142Y-81446428D01*
X112992857Y-81589285D01*
X112992857Y-81839285D01*
X112957142Y-81982142D01*
X112885714Y-82053571D01*
X112814285Y-82089285D01*
X112671428Y-82089285D01*
X113242857Y-81339285D02*
X113707142Y-81339285D01*
X113457142Y-81625000D01*
X113564285Y-81625000D01*
X113635714Y-81660714D01*
X113671428Y-81696428D01*
X113707142Y-81767857D01*
X113707142Y-81946428D01*
X113671428Y-82017857D01*
X113635714Y-82053571D01*
X113564285Y-82089285D01*
X113350000Y-82089285D01*
X113278571Y-82053571D01*
X113242857Y-82017857D01*
%TO.C,R27*%
X93517857Y-89739285D02*
X93267857Y-89382142D01*
X93089285Y-89739285D02*
X93089285Y-88989285D01*
X93375000Y-88989285D01*
X93446428Y-89025000D01*
X93482142Y-89060714D01*
X93517857Y-89132142D01*
X93517857Y-89239285D01*
X93482142Y-89310714D01*
X93446428Y-89346428D01*
X93375000Y-89382142D01*
X93089285Y-89382142D01*
X93803571Y-89060714D02*
X93839285Y-89025000D01*
X93910714Y-88989285D01*
X94089285Y-88989285D01*
X94160714Y-89025000D01*
X94196428Y-89060714D01*
X94232142Y-89132142D01*
X94232142Y-89203571D01*
X94196428Y-89310714D01*
X93767857Y-89739285D01*
X94232142Y-89739285D01*
X94482142Y-88989285D02*
X94982142Y-88989285D01*
X94660714Y-89739285D01*
D16*
%TO.C,C16*%
X115949403Y-52494548D02*
X115949403Y-53017052D01*
X114479403Y-52494548D02*
X114479403Y-53017052D01*
%TO.C,R23*%
X118212841Y-48464200D02*
X117905559Y-48464200D01*
X118212841Y-49224200D02*
X117905559Y-49224200D01*
%TO.C,D2*%
X107882352Y-73613568D02*
X108921799Y-74653015D01*
X108921799Y-74653015D02*
X110537538Y-73037276D01*
X109498091Y-71997829D02*
X107882352Y-73613568D01*
%TO.C,R25*%
X98204060Y-83994141D02*
X98421341Y-83776860D01*
X97666659Y-83456740D02*
X97883940Y-83239459D01*
%TO.C,R19*%
X88926641Y-69241400D02*
X88619359Y-69241400D01*
X88926641Y-70001400D02*
X88619359Y-70001400D01*
%TO.C,C20*%
X96954457Y-81365010D02*
X96584990Y-80995543D01*
X95915010Y-82404457D02*
X95545543Y-82034990D01*
%TO.C,R17*%
X123493559Y-72160400D02*
X123800841Y-72160400D01*
X123493559Y-71400400D02*
X123800841Y-71400400D01*
%TO.C,C22*%
X118694231Y-49861800D02*
X118171727Y-49861800D01*
X118694231Y-51331800D02*
X118171727Y-51331800D01*
%TO.C,Q1*%
X131570000Y-54650000D02*
X133070000Y-54650000D01*
X133070000Y-47750000D02*
X133070000Y-48020000D01*
X133070000Y-54380000D02*
X135900000Y-54380000D01*
X133070000Y-48020000D02*
X134170000Y-48020000D01*
X131570000Y-47750000D02*
X133070000Y-47750000D01*
X133070000Y-54650000D02*
X133070000Y-54380000D01*
%TO.C,C29*%
X98742164Y-88660000D02*
X98957836Y-88660000D01*
X98742164Y-87940000D02*
X98957836Y-87940000D01*
%TO.C,R34*%
X105170000Y-85653641D02*
X105170000Y-85346359D01*
X105930000Y-85653641D02*
X105930000Y-85346359D01*
%TO.C,R13*%
X89378941Y-63009740D02*
X89161660Y-62792459D01*
X88841540Y-63547141D02*
X88624259Y-63329860D01*
%TO.C,C3*%
X117807836Y-80360000D02*
X117592164Y-80360000D01*
X117807836Y-79640000D02*
X117592164Y-79640000D01*
%TO.C,R6*%
X124433600Y-53719759D02*
X124433600Y-54027041D01*
X123673600Y-53719759D02*
X123673600Y-54027041D01*
%TO.C,C21*%
X90862543Y-86736210D02*
X91232010Y-86366743D01*
X91901990Y-87775657D02*
X92271457Y-87406190D01*
%TO.C,R30*%
X120625841Y-48464200D02*
X120318559Y-48464200D01*
X120625841Y-49224200D02*
X120318559Y-49224200D01*
%TO.C,J13*%
X106550000Y-89010000D02*
X106550000Y-86890000D01*
X105550000Y-89010000D02*
X104490000Y-89010000D01*
X106550000Y-86890000D02*
X118610000Y-86890000D01*
X118610000Y-89010000D02*
X118610000Y-86890000D01*
X106550000Y-89010000D02*
X118610000Y-89010000D01*
X104490000Y-89010000D02*
X104490000Y-87950000D01*
%TO.C,C5*%
X114992164Y-79640000D02*
X115207836Y-79640000D01*
X114992164Y-80360000D02*
X115207836Y-80360000D01*
%TO.C,C9*%
X108643019Y-66164170D02*
X108841830Y-66362981D01*
X107921770Y-66885419D02*
X108120581Y-67084230D01*
%TO.C,C31*%
X96369190Y-85021693D02*
X96521693Y-84869190D01*
X96878307Y-85530810D02*
X97030810Y-85378307D01*
%TO.C,R4*%
X120453641Y-79620000D02*
X120146359Y-79620000D01*
X120453641Y-80380000D02*
X120146359Y-80380000D01*
%TO.C,C19*%
X122511456Y-49861800D02*
X121988952Y-49861800D01*
X122511456Y-51331800D02*
X121988952Y-51331800D01*
%TO.C,R15*%
X88518000Y-84275959D02*
X88518000Y-84583241D01*
X87758000Y-84275959D02*
X87758000Y-84583241D01*
%TO.C,R35*%
X107170000Y-85653641D02*
X107170000Y-85346359D01*
X107930000Y-85653641D02*
X107930000Y-85346359D01*
%TO.C,J11*%
X82062000Y-49361800D02*
X84662000Y-49361800D01*
X79462000Y-48031800D02*
X79462000Y-46701800D01*
X82062000Y-49361800D02*
X82062000Y-46701800D01*
X84662000Y-49361800D02*
X84662000Y-46701800D01*
X82062000Y-46701800D02*
X84662000Y-46701800D01*
X79462000Y-46701800D02*
X80792000Y-46701800D01*
%TO.C,R18*%
X88926641Y-68401200D02*
X88619359Y-68401200D01*
X88926641Y-67641200D02*
X88619359Y-67641200D01*
%TO.C,R36*%
X109930000Y-85653641D02*
X109930000Y-85346359D01*
X109170000Y-85653641D02*
X109170000Y-85346359D01*
%TO.C,C11*%
X99726636Y-74341400D02*
X99510964Y-74341400D01*
X99726636Y-75061400D02*
X99510964Y-75061400D01*
%TO.C,C7*%
X122592164Y-81160000D02*
X122807836Y-81160000D01*
X122592164Y-80440000D02*
X122807836Y-80440000D01*
%TO.C,J1*%
X90738000Y-50271600D02*
X90738000Y-60491600D01*
X88078000Y-50271600D02*
X90738000Y-50271600D01*
X88078000Y-60491600D02*
X90738000Y-60491600D01*
X88078000Y-49001600D02*
X88078000Y-47671600D01*
X88078000Y-50271600D02*
X88078000Y-60491600D01*
X88078000Y-47671600D02*
X89408000Y-47671600D01*
%TO.C,U1*%
X117700000Y-83860000D02*
X117050000Y-83860000D01*
X117700000Y-80740000D02*
X118350000Y-80740000D01*
X117700000Y-83860000D02*
X119375000Y-83860000D01*
X117700000Y-80740000D02*
X117050000Y-80740000D01*
%TO.C,C26*%
X130985948Y-73816800D02*
X132408452Y-73816800D01*
X130985948Y-75636800D02*
X132408452Y-75636800D01*
%TO.C,R28*%
X112599200Y-50471041D02*
X112599200Y-50163759D01*
X113359200Y-50471041D02*
X113359200Y-50163759D01*
%TO.C,C13*%
X107543093Y-69163590D02*
X107390590Y-69316093D01*
X108052210Y-69672707D02*
X107899707Y-69825210D01*
%TO.C,U10*%
X124559400Y-85097500D02*
X124329400Y-85097500D01*
X119839400Y-82377500D02*
X121149400Y-82377500D01*
X124559400Y-82377500D02*
X124559400Y-85097500D01*
X123249400Y-82377500D02*
X124559400Y-82377500D01*
X119839400Y-85097500D02*
X119839400Y-82377500D01*
X119839400Y-85097500D02*
X120069400Y-85097500D01*
X120069400Y-86237500D02*
X120069400Y-85097500D01*
%TO.C,Q5*%
X133070000Y-86680000D02*
X135900000Y-86680000D01*
X133070000Y-80050000D02*
X133070000Y-80320000D01*
X133070000Y-80320000D02*
X134170000Y-80320000D01*
X133070000Y-86950000D02*
X133070000Y-86680000D01*
X131570000Y-80050000D02*
X133070000Y-80050000D01*
X131570000Y-86950000D02*
X133070000Y-86950000D01*
%TO.C,R16*%
X123493559Y-73305400D02*
X123800841Y-73305400D01*
X123493559Y-74065400D02*
X123800841Y-74065400D01*
%TO.C,R24*%
X122835641Y-48464199D02*
X122528359Y-48464199D01*
X122835641Y-49224199D02*
X122528359Y-49224199D01*
%TO.C,C18*%
X81381652Y-67407200D02*
X79959148Y-67407200D01*
X81381652Y-65587200D02*
X79959148Y-65587200D01*
%TO.C,R2*%
X109320000Y-77646359D02*
X109320000Y-77953641D01*
X110080000Y-77646359D02*
X110080000Y-77953641D01*
%TO.C,R12*%
X88769341Y-64355940D02*
X88552060Y-64138659D01*
X88231940Y-64893341D02*
X88014659Y-64676060D01*
%TO.C,Q9*%
X78930000Y-93980000D02*
X77830000Y-93980000D01*
X78930000Y-87350000D02*
X78930000Y-87620000D01*
X78930000Y-94250000D02*
X78930000Y-93980000D01*
X80430000Y-94250000D02*
X78930000Y-94250000D01*
X80430000Y-87350000D02*
X78930000Y-87350000D01*
X78930000Y-87620000D02*
X76100000Y-87620000D01*
%TO.C,R32*%
X98331060Y-85848341D02*
X98548341Y-85631060D01*
X97793659Y-85310940D02*
X98010940Y-85093659D01*
%TO.C,C14*%
X108326600Y-56064036D02*
X108326600Y-55848364D01*
X109046600Y-56064036D02*
X109046600Y-55848364D01*
%TO.C,R7*%
X123597400Y-57021759D02*
X123597400Y-57329041D01*
X124357400Y-57021759D02*
X124357400Y-57329041D01*
%TO.C,C23*%
X93986743Y-84551810D02*
X94356210Y-84182343D01*
X95026190Y-85591257D02*
X95395657Y-85221790D01*
%TO.C,C1*%
X118161252Y-84465000D02*
X117638748Y-84465000D01*
X118161252Y-85935000D02*
X117638748Y-85935000D01*
%TO.C,C10*%
X91312390Y-63423293D02*
X91464893Y-63270790D01*
X91821507Y-63932410D02*
X91974010Y-63779907D01*
%TO.C,Q8*%
X75470000Y-54650000D02*
X75470000Y-54380000D01*
X75470000Y-54380000D02*
X78300000Y-54380000D01*
X73970000Y-54650000D02*
X75470000Y-54650000D01*
X75470000Y-48020000D02*
X76570000Y-48020000D01*
X73970000Y-47750000D02*
X75470000Y-47750000D01*
X75470000Y-47750000D02*
X75470000Y-48020000D01*
%TO.C,Q11*%
X133070000Y-63900000D02*
X133070000Y-64170000D01*
X133070000Y-70800000D02*
X133070000Y-70530000D01*
X133070000Y-64170000D02*
X134170000Y-64170000D01*
X133070000Y-70530000D02*
X135900000Y-70530000D01*
X131570000Y-70800000D02*
X133070000Y-70800000D01*
X131570000Y-63900000D02*
X133070000Y-63900000D01*
%TO.C,C6*%
X121488748Y-87090000D02*
X122911252Y-87090000D01*
X121488748Y-88910000D02*
X122911252Y-88910000D01*
%TO.C,J12*%
X101490000Y-82950000D02*
X101490000Y-89010000D01*
X101490000Y-81950000D02*
X101490000Y-80890000D01*
X101490000Y-89010000D02*
X103610000Y-89010000D01*
X101490000Y-82950000D02*
X103610000Y-82950000D01*
X101490000Y-80890000D02*
X102550000Y-80890000D01*
X103610000Y-82950000D02*
X103610000Y-89010000D01*
%TO.C,Q14*%
X75470000Y-70530000D02*
X78300000Y-70530000D01*
X73970000Y-63900000D02*
X75470000Y-63900000D01*
X75470000Y-70800000D02*
X75470000Y-70530000D01*
X75470000Y-63900000D02*
X75470000Y-64170000D01*
X75470000Y-64170000D02*
X76570000Y-64170000D01*
X73970000Y-70800000D02*
X75470000Y-70800000D01*
%TO.C,R31*%
X97793659Y-81338460D02*
X98010940Y-81555741D01*
X98331060Y-80801059D02*
X98548341Y-81018340D01*
%TO.C,C17*%
X81661052Y-50118600D02*
X80238548Y-50118600D01*
X81661052Y-51938600D02*
X80238548Y-51938600D01*
%TO.C,C25*%
X130657548Y-60168200D02*
X132080052Y-60168200D01*
X130657548Y-58348200D02*
X132080052Y-58348200D01*
%TO.C,Q12*%
X136530000Y-71200000D02*
X136530000Y-71470000D01*
X138030000Y-71200000D02*
X136530000Y-71200000D01*
X136530000Y-77830000D02*
X135430000Y-77830000D01*
X136530000Y-71470000D02*
X133700000Y-71470000D01*
X136530000Y-78100000D02*
X136530000Y-77830000D01*
X138030000Y-78100000D02*
X136530000Y-78100000D01*
%TO.C,Q7*%
X80430000Y-61950000D02*
X78930000Y-61950000D01*
X80430000Y-55050000D02*
X78930000Y-55050000D01*
X78930000Y-61950000D02*
X78930000Y-61680000D01*
X78930000Y-55050000D02*
X78930000Y-55320000D01*
X78930000Y-61680000D02*
X77830000Y-61680000D01*
X78930000Y-55320000D02*
X76100000Y-55320000D01*
%TO.C,C30*%
X108607836Y-51560000D02*
X108392164Y-51560000D01*
X108607836Y-50840000D02*
X108392164Y-50840000D01*
%TO.C,U7*%
X93402315Y-81071124D02*
X93738191Y-81407000D01*
X90418324Y-84055115D02*
X90754200Y-84390991D01*
X91090076Y-78758885D02*
X90754200Y-78423009D01*
X93738191Y-81407000D02*
X93402315Y-81742876D01*
X87770209Y-81407000D02*
X88106085Y-81071124D01*
X90754200Y-84390991D02*
X91090076Y-84055115D01*
X88106085Y-81742876D02*
X87770209Y-81407000D01*
%TO.C,R5*%
X120146359Y-78880000D02*
X120453641Y-78880000D01*
X120146359Y-78120000D02*
X120453641Y-78120000D01*
%TO.C,U4*%
X117041400Y-52754000D02*
X117516400Y-52754000D01*
X121261400Y-52754000D02*
X120786400Y-52754000D01*
X121261400Y-53229000D02*
X121261400Y-52754000D01*
X117041400Y-53229000D02*
X117041400Y-52754000D01*
X117041400Y-56499000D02*
X117041400Y-56974000D01*
X121261400Y-56974000D02*
X120786400Y-56974000D01*
X121261400Y-56499000D02*
X121261400Y-56974000D01*
%TO.C,R21*%
X108080000Y-77646359D02*
X108080000Y-77953641D01*
X107320000Y-77646359D02*
X107320000Y-77953641D01*
%TO.C,Q6*%
X136530000Y-93980000D02*
X135430000Y-93980000D01*
X136530000Y-94250000D02*
X136530000Y-93980000D01*
X136530000Y-87350000D02*
X136530000Y-87620000D01*
X136530000Y-87620000D02*
X133700000Y-87620000D01*
X138030000Y-87350000D02*
X136530000Y-87350000D01*
X138030000Y-94250000D02*
X136530000Y-94250000D01*
%TO.C,R11*%
X123493559Y-79145400D02*
X123800841Y-79145400D01*
X123493559Y-78385400D02*
X123800841Y-78385400D01*
%TO.C,R14*%
X88748841Y-86183200D02*
X88441559Y-86183200D01*
X88748841Y-86943200D02*
X88441559Y-86943200D01*
%TO.C,L1*%
X115702064Y-78960000D02*
X114497936Y-78960000D01*
X115702064Y-76240000D02*
X114497936Y-76240000D01*
%TO.C,R1*%
X92600740Y-62658141D02*
X92383459Y-62440860D01*
X93138141Y-62120740D02*
X92920860Y-61903459D01*
%TO.C,R26*%
X96139759Y-87146400D02*
X96447041Y-87146400D01*
X96139759Y-86386400D02*
X96447041Y-86386400D01*
%TO.C,C12*%
X103278307Y-58869190D02*
X103430810Y-59021693D01*
X102769190Y-59378307D02*
X102921693Y-59530810D01*
%TO.C,R29*%
X115850641Y-48464200D02*
X115543359Y-48464200D01*
X115850641Y-49224200D02*
X115543359Y-49224200D01*
%TO.C,C8*%
X95503493Y-73787610D02*
X95350990Y-73635107D01*
X96012610Y-73278493D02*
X95860107Y-73125990D01*
%TO.C,R3*%
X108482215Y-72470365D02*
X108803332Y-72149248D01*
X107442768Y-71430918D02*
X107763885Y-71109801D01*
%TO.C,R20*%
X115170000Y-85653641D02*
X115170000Y-85346359D01*
X115930000Y-85653641D02*
X115930000Y-85346359D01*
%TO.C,Q10*%
X73970000Y-86950000D02*
X75470000Y-86950000D01*
X75470000Y-80320000D02*
X76570000Y-80320000D01*
X75470000Y-80050000D02*
X75470000Y-80320000D01*
X75470000Y-86950000D02*
X75470000Y-86680000D01*
X75470000Y-86680000D02*
X78300000Y-86680000D01*
X73970000Y-80050000D02*
X75470000Y-80050000D01*
%TO.C,R22*%
X112624600Y-52680841D02*
X112624600Y-52373559D01*
X113384600Y-52680841D02*
X113384600Y-52373559D01*
%TO.C,U3*%
X99644200Y-59473769D02*
X100315951Y-60145520D01*
X98972449Y-60145520D02*
X99644200Y-59473769D01*
X93089320Y-67372151D02*
X92141797Y-68319675D01*
X100315951Y-73255280D02*
X99644200Y-73927031D01*
X92417569Y-66700400D02*
X93089320Y-67372151D01*
X106199080Y-67372151D02*
X106870831Y-66700400D01*
X99644200Y-73927031D02*
X98972449Y-73255280D01*
X106870831Y-66700400D02*
X106199080Y-66028649D01*
X93089320Y-66028649D02*
X92417569Y-66700400D01*
%TO.C,R10*%
X123493559Y-77418200D02*
X123800841Y-77418200D01*
X123493559Y-76658200D02*
X123800841Y-76658200D01*
%TO.C,X1*%
X90052860Y-73666513D02*
X92881287Y-76494940D01*
X92386313Y-71333060D02*
X90052860Y-73666513D01*
%TO.C,C2*%
X90789783Y-72222486D02*
X90942286Y-72069983D01*
X90280666Y-71713369D02*
X90433169Y-71560866D01*
%TO.C,R8*%
X111170000Y-85653641D02*
X111170000Y-85346359D01*
X111930000Y-85653641D02*
X111930000Y-85346359D01*
%TO.C,Q4*%
X104550000Y-79970000D02*
X104550000Y-83570000D01*
X104561522Y-83608478D02*
G75*
G03*
X109000000Y-81770000I1838478J1838478D01*
G01*
X109000001Y-81770000D02*
G75*
G03*
X104561522Y-79931522I-2600001J0D01*
G01*
%TO.C,Q13*%
X80430000Y-71200000D02*
X78930000Y-71200000D01*
X78930000Y-71200000D02*
X78930000Y-71470000D01*
X78930000Y-71470000D02*
X76100000Y-71470000D01*
X78930000Y-78100000D02*
X78930000Y-77830000D01*
X80430000Y-78100000D02*
X78930000Y-78100000D01*
X78930000Y-77830000D02*
X77830000Y-77830000D01*
%TO.C,C32*%
X108607836Y-48990000D02*
X108392164Y-48990000D01*
X108607836Y-49710000D02*
X108392164Y-49710000D01*
%TO.C,C33*%
X99740000Y-82142164D02*
X99740000Y-82357836D01*
X100460000Y-82142164D02*
X100460000Y-82357836D01*
D17*
%TO.C,AC1*%
X104500000Y-55497600D02*
X104500000Y-55997600D01*
X104500000Y-58497600D02*
X104500000Y-58497600D01*
X104500000Y-58497600D02*
X104500000Y-57997600D01*
X107500000Y-55497600D02*
X107500000Y-55497600D01*
D15*
X107000000Y-54834600D02*
X107000000Y-54834600D01*
D17*
X107500000Y-55497600D02*
X107500000Y-55497600D01*
X107500000Y-58497600D02*
X107500000Y-57997600D01*
X107500000Y-58497600D02*
X107500000Y-58497600D01*
X104500000Y-55497600D02*
X104500000Y-55497600D01*
D15*
X107000000Y-54959600D02*
X107000000Y-54959600D01*
D17*
X107500000Y-55497600D02*
X107500000Y-55997600D01*
D15*
X107000000Y-54959600D02*
G75*
G03*
X107001000Y-54834600I500J62500D01*
G01*
X107000000Y-54834600D02*
G75*
G03*
X107001000Y-54959600I500J-62500D01*
G01*
D16*
%TO.C,C28*%
X108607836Y-47140000D02*
X108392164Y-47140000D01*
X108607836Y-47860000D02*
X108392164Y-47860000D01*
%TO.C,C15*%
X108326600Y-57931164D02*
X108326600Y-58146836D01*
X109046600Y-57931164D02*
X109046600Y-58146836D01*
%TO.C,C24*%
X81407052Y-81132000D02*
X79984548Y-81132000D01*
X81407052Y-82952000D02*
X79984548Y-82952000D01*
%TO.C,R33*%
X96264759Y-88670400D02*
X96572041Y-88670400D01*
X96264759Y-87910400D02*
X96572041Y-87910400D01*
%TO.C,Q2*%
X136530000Y-55320000D02*
X133700000Y-55320000D01*
X138030000Y-55050000D02*
X136530000Y-55050000D01*
X136530000Y-55050000D02*
X136530000Y-55320000D01*
X136530000Y-61680000D02*
X135430000Y-61680000D01*
X138030000Y-61950000D02*
X136530000Y-61950000D01*
X136530000Y-61950000D02*
X136530000Y-61680000D01*
%TO.C,C27*%
X130579548Y-94864600D02*
X132002052Y-94864600D01*
X130579548Y-93044600D02*
X132002052Y-93044600D01*
%TO.C,C4*%
X94834433Y-76267136D02*
X94986936Y-76114633D01*
X94325316Y-75758019D02*
X94477819Y-75605516D01*
%TO.C,R9*%
X113930000Y-85653641D02*
X113930000Y-85346359D01*
X113170000Y-85653641D02*
X113170000Y-85346359D01*
%TO.C,Q3*%
X109540000Y-79950000D02*
X109540000Y-83550000D01*
X113990001Y-81750000D02*
G75*
G03*
X109551522Y-79911522I-2600001J0D01*
G01*
X109551522Y-83588478D02*
G75*
G03*
X113990000Y-81750000I1838478J1838478D01*
G01*
%TO.C,R27*%
X93851759Y-88670400D02*
X94159041Y-88670400D01*
X93851759Y-87910400D02*
X94159041Y-87910400D01*
%TD*%
M02*
