%TF.GenerationSoftware,KiCad,Pcbnew,(6.0.5)*%
%TF.CreationDate,2023-08-08T13:01:53+01:00*%
%TF.ProjectId,Melty,4d656c74-792e-46b6-9963-61645f706362,rev?*%
%TF.SameCoordinates,Original*%
%TF.FileFunction,Paste,Top*%
%TF.FilePolarity,Positive*%
%FSLAX46Y46*%
G04 Gerber Fmt 4.6, Leading zero omitted, Abs format (unit mm)*
G04 Created by KiCad (PCBNEW (6.0.5)) date 2023-08-08 13:01:53*
%MOMM*%
%LPD*%
G01*
G04 APERTURE LIST*
G04 Aperture macros list*
%AMRoundRect*
0 Rectangle with rounded corners*
0 $1 Rounding radius*
0 $2 $3 $4 $5 $6 $7 $8 $9 X,Y pos of 4 corners*
0 Add a 4 corners polygon primitive as box body*
4,1,4,$2,$3,$4,$5,$6,$7,$8,$9,$2,$3,0*
0 Add four circle primitives for the rounded corners*
1,1,$1+$1,$2,$3*
1,1,$1+$1,$4,$5*
1,1,$1+$1,$6,$7*
1,1,$1+$1,$8,$9*
0 Add four rect primitives between the rounded corners*
20,1,$1+$1,$2,$3,$4,$5,0*
20,1,$1+$1,$4,$5,$6,$7,0*
20,1,$1+$1,$6,$7,$8,$9,0*
20,1,$1+$1,$8,$9,$2,$3,0*%
%AMRotRect*
0 Rectangle, with rotation*
0 The origin of the aperture is its center*
0 $1 length*
0 $2 width*
0 $3 Rotation angle, in degrees counterclockwise*
0 Add horizontal line*
21,1,$1,$2,0,0,$3*%
%AMFreePoly0*
4,1,9,3.862500,-0.866500,0.737500,-0.866500,0.737500,-0.450000,-0.737500,-0.450000,-0.737500,0.450000,0.737500,0.450000,0.737500,0.866500,3.862500,0.866500,3.862500,-0.866500,3.862500,-0.866500,$1*%
G04 Aperture macros list end*
%ADD10RoundRect,0.250000X-0.475000X0.250000X-0.475000X-0.250000X0.475000X-0.250000X0.475000X0.250000X0*%
%ADD11RoundRect,0.135000X0.135000X0.185000X-0.135000X0.185000X-0.135000X-0.185000X0.135000X-0.185000X0*%
%ADD12RoundRect,0.218750X0.026517X-0.335876X0.335876X-0.026517X-0.026517X0.335876X-0.335876X0.026517X0*%
%ADD13RoundRect,0.135000X0.035355X-0.226274X0.226274X-0.035355X-0.035355X0.226274X-0.226274X0.035355X0*%
%ADD14RoundRect,0.250000X0.512652X0.159099X0.159099X0.512652X-0.512652X-0.159099X-0.159099X-0.512652X0*%
%ADD15RoundRect,0.135000X-0.135000X-0.185000X0.135000X-0.185000X0.135000X0.185000X-0.135000X0.185000X0*%
%ADD16RoundRect,0.250000X0.250000X0.475000X-0.250000X0.475000X-0.250000X-0.475000X0.250000X-0.475000X0*%
%ADD17R,3.050000X2.750000*%
%ADD18R,2.200000X1.200000*%
%ADD19RoundRect,0.140000X-0.140000X-0.170000X0.140000X-0.170000X0.140000X0.170000X-0.140000X0.170000X0*%
%ADD20RoundRect,0.135000X0.185000X-0.135000X0.185000X0.135000X-0.185000X0.135000X-0.185000X-0.135000X0*%
%ADD21RoundRect,0.135000X0.226274X0.035355X0.035355X0.226274X-0.226274X-0.035355X-0.035355X-0.226274X0*%
%ADD22RoundRect,0.140000X0.140000X0.170000X-0.140000X0.170000X-0.140000X-0.170000X0.140000X-0.170000X0*%
%ADD23RoundRect,0.135000X-0.185000X0.135000X-0.185000X-0.135000X0.185000X-0.135000X0.185000X0.135000X0*%
%ADD24RoundRect,0.250000X0.159099X-0.512652X0.512652X-0.159099X-0.159099X0.512652X-0.512652X0.159099X0*%
%ADD25RoundRect,0.225000X-0.335876X-0.017678X-0.017678X-0.335876X0.335876X0.017678X0.017678X0.335876X0*%
%ADD26RoundRect,0.140000X0.021213X-0.219203X0.219203X-0.021213X-0.021213X0.219203X-0.219203X0.021213X0*%
%ADD27RoundRect,0.150000X0.587500X0.150000X-0.587500X0.150000X-0.587500X-0.150000X0.587500X-0.150000X0*%
%ADD28RoundRect,0.250000X-0.325000X-0.650000X0.325000X-0.650000X0.325000X0.650000X-0.325000X0.650000X0*%
%ADD29RoundRect,0.140000X-0.021213X0.219203X-0.219203X0.021213X0.021213X-0.219203X0.219203X-0.021213X0*%
%ADD30R,0.900000X1.300000*%
%ADD31FreePoly0,90.000000*%
%ADD32RoundRect,0.250000X0.325000X0.650000X-0.325000X0.650000X-0.325000X-0.650000X0.325000X-0.650000X0*%
%ADD33RoundRect,0.140000X0.170000X-0.140000X0.170000X0.140000X-0.170000X0.140000X-0.170000X-0.140000X0*%
%ADD34RoundRect,0.135000X-0.226274X-0.035355X-0.035355X-0.226274X0.226274X0.035355X0.035355X0.226274X0*%
%ADD35RoundRect,0.165000X-0.233345X0.000000X0.000000X-0.233345X0.233345X0.000000X0.000000X0.233345X0*%
%ADD36RoundRect,0.062500X-0.274004X0.185616X0.185616X-0.274004X0.274004X-0.185616X-0.185616X0.274004X0*%
%ADD37RoundRect,0.062500X-0.274004X-0.185616X-0.185616X-0.274004X0.274004X0.185616X0.185616X0.274004X0*%
%ADD38RoundRect,0.165000X0.165000X-0.165000X0.165000X0.165000X-0.165000X0.165000X-0.165000X-0.165000X0*%
%ADD39RoundRect,0.062500X0.062500X-0.325000X0.062500X0.325000X-0.062500X0.325000X-0.062500X-0.325000X0*%
%ADD40RoundRect,0.062500X0.325000X-0.062500X0.325000X0.062500X-0.325000X0.062500X-0.325000X-0.062500X0*%
%ADD41RoundRect,0.250000X0.375000X1.075000X-0.375000X1.075000X-0.375000X-1.075000X0.375000X-1.075000X0*%
%ADD42RoundRect,0.140000X-0.219203X-0.021213X-0.021213X-0.219203X0.219203X0.021213X0.021213X0.219203X0*%
%ADD43RoundRect,0.140000X0.219203X0.021213X0.021213X0.219203X-0.219203X-0.021213X-0.021213X-0.219203X0*%
%ADD44RoundRect,0.250000X0.132583X-0.503814X0.503814X-0.132583X-0.132583X0.503814X-0.503814X0.132583X0*%
%ADD45RoundRect,0.075000X-0.441942X-0.548008X0.548008X0.441942X0.441942X0.548008X-0.548008X-0.441942X0*%
%ADD46RoundRect,0.075000X0.441942X-0.548008X0.548008X-0.441942X-0.441942X0.548008X-0.548008X0.441942X0*%
%ADD47RotRect,1.400000X1.200000X315.000000*%
%ADD48RoundRect,0.140000X-0.170000X0.140000X-0.170000X-0.140000X0.170000X-0.140000X0.170000X0.140000X0*%
%ADD49R,0.300000X0.600000*%
%ADD50R,0.600000X0.300000*%
G04 APERTURE END LIST*
D10*
%TO.C,C16*%
X115214403Y-51805800D03*
X115214403Y-53705800D03*
%TD*%
D11*
%TO.C,R23*%
X118569200Y-48844200D03*
X117549200Y-48844200D03*
%TD*%
D12*
%TO.C,D2*%
X108895282Y-73640085D03*
X110008976Y-72526391D03*
%TD*%
D13*
%TO.C,R25*%
X97683376Y-83977424D03*
X98404624Y-83256176D03*
%TD*%
D11*
%TO.C,R19*%
X89283000Y-69621400D03*
X88263000Y-69621400D03*
%TD*%
D14*
%TO.C,C20*%
X96921751Y-82371751D03*
X95578249Y-81028249D03*
%TD*%
D15*
%TO.C,R17*%
X123137200Y-71780400D03*
X124157200Y-71780400D03*
%TD*%
D16*
%TO.C,C22*%
X119382979Y-50596800D03*
X117482979Y-50596800D03*
%TD*%
D17*
%TO.C,Q1*%
X130175000Y-52725000D03*
X126825000Y-52725000D03*
X130175000Y-49675000D03*
X126825000Y-49675000D03*
D18*
X134800000Y-53480000D03*
X134800000Y-48920000D03*
%TD*%
D19*
%TO.C,C29*%
X98370000Y-88300000D03*
X99330000Y-88300000D03*
%TD*%
D20*
%TO.C,R34*%
X105550000Y-86010000D03*
X105550000Y-84990000D03*
%TD*%
D21*
%TO.C,R13*%
X89362224Y-63530424D03*
X88640976Y-62809176D03*
%TD*%
D22*
%TO.C,C3*%
X118180000Y-80000000D03*
X117220000Y-80000000D03*
%TD*%
D23*
%TO.C,R6*%
X124053600Y-53363400D03*
X124053600Y-54383400D03*
%TD*%
D24*
%TO.C,C21*%
X90895249Y-87742951D03*
X92238751Y-86399449D03*
%TD*%
D11*
%TO.C,R30*%
X120982200Y-48844200D03*
X119962200Y-48844200D03*
%TD*%
D19*
%TO.C,C5*%
X114620000Y-80000000D03*
X115580000Y-80000000D03*
%TD*%
D25*
%TO.C,C9*%
X107833792Y-66076192D03*
X108929808Y-67172208D03*
%TD*%
D26*
%TO.C,C31*%
X96360589Y-85539411D03*
X97039411Y-84860589D03*
%TD*%
D11*
%TO.C,R4*%
X120810000Y-80000000D03*
X119790000Y-80000000D03*
%TD*%
D16*
%TO.C,C19*%
X123200204Y-50596800D03*
X121300204Y-50596800D03*
%TD*%
D23*
%TO.C,R15*%
X88138000Y-83919600D03*
X88138000Y-84939600D03*
%TD*%
D20*
%TO.C,R35*%
X107550000Y-86010000D03*
X107550000Y-84990000D03*
%TD*%
D11*
%TO.C,R18*%
X89283000Y-68021200D03*
X88263000Y-68021200D03*
%TD*%
D20*
%TO.C,R36*%
X109550000Y-86010000D03*
X109550000Y-84990000D03*
%TD*%
D22*
%TO.C,C11*%
X100098800Y-74701400D03*
X99138800Y-74701400D03*
%TD*%
D19*
%TO.C,C7*%
X122220000Y-80800000D03*
X123180000Y-80800000D03*
%TD*%
D27*
%TO.C,U1*%
X118637500Y-83250000D03*
X118637500Y-81350000D03*
X116762500Y-82300000D03*
%TD*%
D28*
%TO.C,C26*%
X130222200Y-74726800D03*
X133172200Y-74726800D03*
%TD*%
D20*
%TO.C,R28*%
X112979200Y-50827400D03*
X112979200Y-49807400D03*
%TD*%
D29*
%TO.C,C13*%
X108060811Y-69154989D03*
X107381989Y-69833811D03*
%TD*%
D30*
%TO.C,U10*%
X120699400Y-85687500D03*
D31*
X122199400Y-85600000D03*
D30*
X123699400Y-85687500D03*
%TD*%
D17*
%TO.C,Q5*%
X126825000Y-81975000D03*
X126825000Y-85025000D03*
X130175000Y-85025000D03*
X130175000Y-81975000D03*
D18*
X134800000Y-85780000D03*
X134800000Y-81220000D03*
%TD*%
D15*
%TO.C,R16*%
X123137200Y-73685400D03*
X124157200Y-73685400D03*
%TD*%
D11*
%TO.C,R24*%
X123192000Y-48844199D03*
X122172000Y-48844199D03*
%TD*%
D32*
%TO.C,C18*%
X82145400Y-66497200D03*
X79195400Y-66497200D03*
%TD*%
D23*
%TO.C,R2*%
X109700000Y-77290000D03*
X109700000Y-78310000D03*
%TD*%
D21*
%TO.C,R12*%
X88752624Y-64876624D03*
X88031376Y-64155376D03*
%TD*%
D17*
%TO.C,Q9*%
X81825000Y-89275000D03*
X85175000Y-89275000D03*
X85175000Y-92325000D03*
X81825000Y-92325000D03*
D18*
X77200000Y-88520000D03*
X77200000Y-93080000D03*
%TD*%
D13*
%TO.C,R32*%
X97810376Y-85831624D03*
X98531624Y-85110376D03*
%TD*%
D33*
%TO.C,C14*%
X108686600Y-56436200D03*
X108686600Y-55476200D03*
%TD*%
D23*
%TO.C,R7*%
X123977400Y-56665400D03*
X123977400Y-57685400D03*
%TD*%
D24*
%TO.C,C23*%
X94019449Y-85558551D03*
X95362951Y-84215049D03*
%TD*%
D16*
%TO.C,C1*%
X118850000Y-85200000D03*
X116950000Y-85200000D03*
%TD*%
D26*
%TO.C,C10*%
X91303789Y-63941011D03*
X91982611Y-63262189D03*
%TD*%
D17*
%TO.C,Q8*%
X69225000Y-52725000D03*
X69225000Y-49675000D03*
X72575000Y-49675000D03*
X72575000Y-52725000D03*
D18*
X77200000Y-53480000D03*
X77200000Y-48920000D03*
%TD*%
D17*
%TO.C,Q11*%
X130175000Y-65825000D03*
X130175000Y-68875000D03*
X126825000Y-68875000D03*
X126825000Y-65825000D03*
D18*
X134800000Y-69630000D03*
X134800000Y-65070000D03*
%TD*%
D28*
%TO.C,C6*%
X120725000Y-88000000D03*
X123675000Y-88000000D03*
%TD*%
D17*
%TO.C,Q14*%
X69225000Y-65825000D03*
X72575000Y-68875000D03*
X69225000Y-68875000D03*
X72575000Y-65825000D03*
D18*
X77200000Y-69630000D03*
X77200000Y-65070000D03*
%TD*%
D34*
%TO.C,R31*%
X97810376Y-80817776D03*
X98531624Y-81539024D03*
%TD*%
D32*
%TO.C,C17*%
X82424800Y-51028600D03*
X79474800Y-51028600D03*
%TD*%
D28*
%TO.C,C25*%
X129893800Y-59258200D03*
X132843800Y-59258200D03*
%TD*%
D17*
%TO.C,Q12*%
X142775000Y-76175000D03*
X142775000Y-73125000D03*
X139425000Y-76175000D03*
X139425000Y-73125000D03*
D18*
X134800000Y-72370000D03*
X134800000Y-76930000D03*
%TD*%
D17*
%TO.C,Q7*%
X81825000Y-56975000D03*
X85175000Y-60025000D03*
X81825000Y-60025000D03*
X85175000Y-56975000D03*
D18*
X77200000Y-56220000D03*
X77200000Y-60780000D03*
%TD*%
D22*
%TO.C,C30*%
X108980000Y-51200000D03*
X108020000Y-51200000D03*
%TD*%
D35*
%TO.C,U7*%
X90174372Y-81986828D03*
X89594545Y-81407000D03*
X90754200Y-80247345D03*
X90174372Y-80827172D03*
X90754200Y-81407000D03*
X90754200Y-82566655D03*
X91334028Y-81986828D03*
X91913855Y-81407000D03*
X91334028Y-80827172D03*
D36*
X90232709Y-79117742D03*
X89879155Y-79471295D03*
X89525602Y-79824849D03*
X89172049Y-80178402D03*
X88818495Y-80531955D03*
X88464942Y-80885509D03*
D37*
X88464942Y-81928491D03*
X88818495Y-82282045D03*
X89172049Y-82635598D03*
X89525602Y-82989151D03*
X89879155Y-83342705D03*
X90232709Y-83696258D03*
D36*
X91275691Y-83696258D03*
X91629245Y-83342705D03*
X91982798Y-82989151D03*
X92336351Y-82635598D03*
X92689905Y-82282045D03*
X93043458Y-81928491D03*
D37*
X93043458Y-80885509D03*
X92689905Y-80531955D03*
X92336351Y-80178402D03*
X91982798Y-79824849D03*
X91629245Y-79471295D03*
X91275691Y-79117742D03*
%TD*%
D15*
%TO.C,R5*%
X119790000Y-78500000D03*
X120810000Y-78500000D03*
%TD*%
D38*
%TO.C,U4*%
X119971400Y-54044000D03*
X119151400Y-54864000D03*
X119971400Y-55684000D03*
X118331400Y-55684000D03*
X119151400Y-55684000D03*
X118331400Y-54044000D03*
X119971400Y-54864000D03*
X119151400Y-54044000D03*
X118331400Y-54864000D03*
D39*
X117901400Y-56851500D03*
X118401400Y-56851500D03*
X118901400Y-56851500D03*
X119401400Y-56851500D03*
X119901400Y-56851500D03*
X120401400Y-56851500D03*
D40*
X121138900Y-56114000D03*
X121138900Y-55614000D03*
X121138900Y-55114000D03*
X121138900Y-54614000D03*
X121138900Y-54114000D03*
X121138900Y-53614000D03*
D39*
X120401400Y-52876500D03*
X119901400Y-52876500D03*
X119401400Y-52876500D03*
X118901400Y-52876500D03*
X118401400Y-52876500D03*
X117901400Y-52876500D03*
D40*
X117163900Y-53614000D03*
X117163900Y-54114000D03*
X117163900Y-54614000D03*
X117163900Y-55114000D03*
X117163900Y-55614000D03*
X117163900Y-56114000D03*
%TD*%
D23*
%TO.C,R21*%
X107700000Y-77290000D03*
X107700000Y-78310000D03*
%TD*%
D17*
%TO.C,Q6*%
X142775000Y-92325000D03*
X142775000Y-89275000D03*
X139425000Y-89275000D03*
X139425000Y-92325000D03*
D18*
X134800000Y-88520000D03*
X134800000Y-93080000D03*
%TD*%
D15*
%TO.C,R11*%
X123137200Y-78765400D03*
X124157200Y-78765400D03*
%TD*%
D11*
%TO.C,R14*%
X89105200Y-86563200D03*
X88085200Y-86563200D03*
%TD*%
D41*
%TO.C,L1*%
X116500000Y-77600000D03*
X113700000Y-77600000D03*
%TD*%
D21*
%TO.C,R1*%
X93121424Y-62641424D03*
X92400176Y-61920176D03*
%TD*%
D15*
%TO.C,R26*%
X95783400Y-86766400D03*
X96803400Y-86766400D03*
%TD*%
D42*
%TO.C,C12*%
X102760589Y-58860589D03*
X103439411Y-59539411D03*
%TD*%
D11*
%TO.C,R29*%
X116207000Y-48844200D03*
X115187000Y-48844200D03*
%TD*%
D43*
%TO.C,C8*%
X96021211Y-73796211D03*
X95342389Y-73117389D03*
%TD*%
D44*
%TO.C,R3*%
X107477815Y-72435318D03*
X108768285Y-71144848D03*
%TD*%
D20*
%TO.C,R20*%
X115550000Y-86010000D03*
X115550000Y-84990000D03*
%TD*%
D17*
%TO.C,Q10*%
X69225000Y-81975000D03*
X72575000Y-81975000D03*
X69225000Y-85025000D03*
X72575000Y-85025000D03*
D18*
X77200000Y-85780000D03*
X77200000Y-81220000D03*
%TD*%
D20*
%TO.C,R22*%
X113004600Y-53037200D03*
X113004600Y-52017200D03*
%TD*%
D45*
%TO.C,U3*%
X92979719Y-68061581D03*
X93333272Y-68415134D03*
X93686825Y-68768687D03*
X94040379Y-69122241D03*
X94393932Y-69475794D03*
X94747486Y-69829348D03*
X95101039Y-70182901D03*
X95454592Y-70536454D03*
X95808146Y-70890008D03*
X96161699Y-71243561D03*
X96515252Y-71597114D03*
X96868806Y-71950668D03*
X97222359Y-72304221D03*
X97575913Y-72657775D03*
X97929466Y-73011328D03*
X98283019Y-73364881D03*
D46*
X101005381Y-73364881D03*
X101358934Y-73011328D03*
X101712487Y-72657775D03*
X102066041Y-72304221D03*
X102419594Y-71950668D03*
X102773148Y-71597114D03*
X103126701Y-71243561D03*
X103480254Y-70890008D03*
X103833808Y-70536454D03*
X104187361Y-70182901D03*
X104540914Y-69829348D03*
X104894468Y-69475794D03*
X105248021Y-69122241D03*
X105601575Y-68768687D03*
X105955128Y-68415134D03*
X106308681Y-68061581D03*
D45*
X106308681Y-65339219D03*
X105955128Y-64985666D03*
X105601575Y-64632113D03*
X105248021Y-64278559D03*
X104894468Y-63925006D03*
X104540914Y-63571452D03*
X104187361Y-63217899D03*
X103833808Y-62864346D03*
X103480254Y-62510792D03*
X103126701Y-62157239D03*
X102773148Y-61803686D03*
X102419594Y-61450132D03*
X102066041Y-61096579D03*
X101712487Y-60743025D03*
X101358934Y-60389472D03*
X101005381Y-60035919D03*
D46*
X98283019Y-60035919D03*
X97929466Y-60389472D03*
X97575913Y-60743025D03*
X97222359Y-61096579D03*
X96868806Y-61450132D03*
X96515252Y-61803686D03*
X96161699Y-62157239D03*
X95808146Y-62510792D03*
X95454592Y-62864346D03*
X95101039Y-63217899D03*
X94747486Y-63571452D03*
X94393932Y-63925006D03*
X94040379Y-64278559D03*
X93686825Y-64632113D03*
X93333272Y-64985666D03*
X92979719Y-65339219D03*
%TD*%
D15*
%TO.C,R10*%
X123137200Y-77038200D03*
X124157200Y-77038200D03*
%TD*%
D47*
%TO.C,X1*%
X91254942Y-73737223D03*
X92810577Y-75292858D03*
X94012658Y-74090777D03*
X92457023Y-72535142D03*
%TD*%
D26*
%TO.C,C2*%
X90272065Y-72231087D03*
X90950887Y-71552265D03*
%TD*%
D20*
%TO.C,R8*%
X111550000Y-86010000D03*
X111550000Y-84990000D03*
%TD*%
D17*
%TO.C,Q13*%
X81825000Y-73125000D03*
X85175000Y-73125000D03*
X81825000Y-76175000D03*
X85175000Y-76175000D03*
D18*
X77200000Y-72370000D03*
X77200000Y-76930000D03*
%TD*%
D22*
%TO.C,C32*%
X108980000Y-49350000D03*
X108020000Y-49350000D03*
%TD*%
D48*
%TO.C,C33*%
X100100000Y-81770000D03*
X100100000Y-82730000D03*
%TD*%
D49*
%TO.C,AC1*%
X107000000Y-55797600D03*
X106500000Y-55797600D03*
X106000000Y-55797600D03*
X105500000Y-55797600D03*
X105000000Y-55797600D03*
D50*
X104800000Y-56497600D03*
X104800000Y-56997600D03*
X104800000Y-57497600D03*
D49*
X105000000Y-58197600D03*
X105500000Y-58197600D03*
X106000000Y-58197600D03*
X106500000Y-58197600D03*
X107000000Y-58197600D03*
D50*
X107200000Y-57497600D03*
X107200000Y-56997600D03*
X107200000Y-56497600D03*
%TD*%
D22*
%TO.C,C28*%
X108980000Y-47500000D03*
X108020000Y-47500000D03*
%TD*%
D48*
%TO.C,C15*%
X108686600Y-57559000D03*
X108686600Y-58519000D03*
%TD*%
D32*
%TO.C,C24*%
X82170800Y-82042000D03*
X79220800Y-82042000D03*
%TD*%
D15*
%TO.C,R33*%
X95908400Y-88290400D03*
X96928400Y-88290400D03*
%TD*%
D17*
%TO.C,Q2*%
X142775000Y-56975000D03*
X142775000Y-60025000D03*
X139425000Y-60025000D03*
X139425000Y-56975000D03*
D18*
X134800000Y-56220000D03*
X134800000Y-60780000D03*
%TD*%
D28*
%TO.C,C27*%
X129815800Y-93954600D03*
X132765800Y-93954600D03*
%TD*%
D26*
%TO.C,C4*%
X94316715Y-76275737D03*
X94995537Y-75596915D03*
%TD*%
D20*
%TO.C,R9*%
X113550000Y-86010000D03*
X113550000Y-84990000D03*
%TD*%
D15*
%TO.C,R27*%
X93495400Y-88290400D03*
X94515400Y-88290400D03*
%TD*%
M02*
