%TF.GenerationSoftware,KiCad,Pcbnew,(6.0.5)*%
%TF.CreationDate,2023-08-08T13:01:53+01:00*%
%TF.ProjectId,Melty,4d656c74-792e-46b6-9963-61645f706362,rev?*%
%TF.SameCoordinates,Original*%
%TF.FileFunction,Copper,L1,Top*%
%TF.FilePolarity,Positive*%
%FSLAX46Y46*%
G04 Gerber Fmt 4.6, Leading zero omitted, Abs format (unit mm)*
G04 Created by KiCad (PCBNEW (6.0.5)) date 2023-08-08 13:01:53*
%MOMM*%
%LPD*%
G01*
G04 APERTURE LIST*
G04 Aperture macros list*
%AMRoundRect*
0 Rectangle with rounded corners*
0 $1 Rounding radius*
0 $2 $3 $4 $5 $6 $7 $8 $9 X,Y pos of 4 corners*
0 Add a 4 corners polygon primitive as box body*
4,1,4,$2,$3,$4,$5,$6,$7,$8,$9,$2,$3,0*
0 Add four circle primitives for the rounded corners*
1,1,$1+$1,$2,$3*
1,1,$1+$1,$4,$5*
1,1,$1+$1,$6,$7*
1,1,$1+$1,$8,$9*
0 Add four rect primitives between the rounded corners*
20,1,$1+$1,$2,$3,$4,$5,0*
20,1,$1+$1,$4,$5,$6,$7,0*
20,1,$1+$1,$6,$7,$8,$9,0*
20,1,$1+$1,$8,$9,$2,$3,0*%
%AMRotRect*
0 Rectangle, with rotation*
0 The origin of the aperture is its center*
0 $1 length*
0 $2 width*
0 $3 Rotation angle, in degrees counterclockwise*
0 Add horizontal line*
21,1,$1,$2,0,0,$3*%
%AMFreePoly0*
4,1,9,3.862500,-0.866500,0.737500,-0.866500,0.737500,-0.450000,-0.737500,-0.450000,-0.737500,0.450000,0.737500,0.450000,0.737500,0.866500,3.862500,0.866500,3.862500,-0.866500,3.862500,-0.866500,$1*%
G04 Aperture macros list end*
%TA.AperFunction,SMDPad,CuDef*%
%ADD10RoundRect,0.250000X-0.475000X0.250000X-0.475000X-0.250000X0.475000X-0.250000X0.475000X0.250000X0*%
%TD*%
%TA.AperFunction,SMDPad,CuDef*%
%ADD11RoundRect,0.135000X0.135000X0.185000X-0.135000X0.185000X-0.135000X-0.185000X0.135000X-0.185000X0*%
%TD*%
%TA.AperFunction,SMDPad,CuDef*%
%ADD12RoundRect,0.218750X0.026517X-0.335876X0.335876X-0.026517X-0.026517X0.335876X-0.335876X0.026517X0*%
%TD*%
%TA.AperFunction,SMDPad,CuDef*%
%ADD13RoundRect,0.135000X0.035355X-0.226274X0.226274X-0.035355X-0.035355X0.226274X-0.226274X0.035355X0*%
%TD*%
%TA.AperFunction,SMDPad,CuDef*%
%ADD14RoundRect,0.250000X0.512652X0.159099X0.159099X0.512652X-0.512652X-0.159099X-0.159099X-0.512652X0*%
%TD*%
%TA.AperFunction,SMDPad,CuDef*%
%ADD15RoundRect,0.135000X-0.135000X-0.185000X0.135000X-0.185000X0.135000X0.185000X-0.135000X0.185000X0*%
%TD*%
%TA.AperFunction,SMDPad,CuDef*%
%ADD16RoundRect,0.250000X0.250000X0.475000X-0.250000X0.475000X-0.250000X-0.475000X0.250000X-0.475000X0*%
%TD*%
%TA.AperFunction,SMDPad,CuDef*%
%ADD17R,2.200000X1.200000*%
%TD*%
%TA.AperFunction,SMDPad,CuDef*%
%ADD18R,6.400000X5.800000*%
%TD*%
%TA.AperFunction,SMDPad,CuDef*%
%ADD19RoundRect,0.140000X-0.140000X-0.170000X0.140000X-0.170000X0.140000X0.170000X-0.140000X0.170000X0*%
%TD*%
%TA.AperFunction,SMDPad,CuDef*%
%ADD20RoundRect,0.135000X0.185000X-0.135000X0.185000X0.135000X-0.185000X0.135000X-0.185000X-0.135000X0*%
%TD*%
%TA.AperFunction,SMDPad,CuDef*%
%ADD21RoundRect,0.135000X0.226274X0.035355X0.035355X0.226274X-0.226274X-0.035355X-0.035355X-0.226274X0*%
%TD*%
%TA.AperFunction,SMDPad,CuDef*%
%ADD22RoundRect,0.140000X0.140000X0.170000X-0.140000X0.170000X-0.140000X-0.170000X0.140000X-0.170000X0*%
%TD*%
%TA.AperFunction,SMDPad,CuDef*%
%ADD23RoundRect,0.135000X-0.185000X0.135000X-0.185000X-0.135000X0.185000X-0.135000X0.185000X0.135000X0*%
%TD*%
%TA.AperFunction,SMDPad,CuDef*%
%ADD24RoundRect,0.250000X0.159099X-0.512652X0.512652X-0.159099X-0.159099X0.512652X-0.512652X0.159099X0*%
%TD*%
%TA.AperFunction,ComponentPad*%
%ADD25R,1.350000X1.350000*%
%TD*%
%TA.AperFunction,ComponentPad*%
%ADD26O,1.350000X1.350000*%
%TD*%
%TA.AperFunction,SMDPad,CuDef*%
%ADD27RoundRect,0.225000X-0.335876X-0.017678X-0.017678X-0.335876X0.335876X0.017678X0.017678X0.335876X0*%
%TD*%
%TA.AperFunction,SMDPad,CuDef*%
%ADD28RoundRect,0.140000X0.021213X-0.219203X0.219203X-0.021213X-0.021213X0.219203X-0.219203X0.021213X0*%
%TD*%
%TA.AperFunction,ComponentPad*%
%ADD29R,1.700000X1.700000*%
%TD*%
%TA.AperFunction,ComponentPad*%
%ADD30O,1.700000X1.700000*%
%TD*%
%TA.AperFunction,ComponentPad*%
%ADD31RoundRect,1.200000X-0.800000X-0.800000X0.800000X-0.800000X0.800000X0.800000X-0.800000X0.800000X0*%
%TD*%
%TA.AperFunction,SMDPad,CuDef*%
%ADD32RoundRect,0.150000X0.587500X0.150000X-0.587500X0.150000X-0.587500X-0.150000X0.587500X-0.150000X0*%
%TD*%
%TA.AperFunction,SMDPad,CuDef*%
%ADD33RoundRect,0.250000X-0.325000X-0.650000X0.325000X-0.650000X0.325000X0.650000X-0.325000X0.650000X0*%
%TD*%
%TA.AperFunction,SMDPad,CuDef*%
%ADD34RoundRect,0.140000X-0.021213X0.219203X-0.219203X0.021213X0.021213X-0.219203X0.219203X-0.021213X0*%
%TD*%
%TA.AperFunction,SMDPad,CuDef*%
%ADD35R,0.900000X1.300000*%
%TD*%
%TA.AperFunction,SMDPad,CuDef*%
%ADD36FreePoly0,90.000000*%
%TD*%
%TA.AperFunction,SMDPad,CuDef*%
%ADD37RoundRect,0.250000X0.325000X0.650000X-0.325000X0.650000X-0.325000X-0.650000X0.325000X-0.650000X0*%
%TD*%
%TA.AperFunction,SMDPad,CuDef*%
%ADD38RoundRect,0.140000X0.170000X-0.140000X0.170000X0.140000X-0.170000X0.140000X-0.170000X-0.140000X0*%
%TD*%
%TA.AperFunction,SMDPad,CuDef*%
%ADD39RoundRect,0.135000X-0.226274X-0.035355X-0.035355X-0.226274X0.226274X0.035355X0.035355X0.226274X0*%
%TD*%
%TA.AperFunction,SMDPad,CuDef*%
%ADD40RoundRect,0.062500X-0.274004X0.185616X0.185616X-0.274004X0.274004X-0.185616X-0.185616X0.274004X0*%
%TD*%
%TA.AperFunction,SMDPad,CuDef*%
%ADD41RoundRect,0.062500X-0.274004X-0.185616X-0.185616X-0.274004X0.274004X0.185616X0.185616X0.274004X0*%
%TD*%
%TA.AperFunction,SMDPad,CuDef*%
%ADD42RotRect,2.450000X2.450000X315.000000*%
%TD*%
%TA.AperFunction,SMDPad,CuDef*%
%ADD43RoundRect,0.062500X0.062500X-0.325000X0.062500X0.325000X-0.062500X0.325000X-0.062500X-0.325000X0*%
%TD*%
%TA.AperFunction,SMDPad,CuDef*%
%ADD44RoundRect,0.062500X0.325000X-0.062500X0.325000X0.062500X-0.325000X0.062500X-0.325000X-0.062500X0*%
%TD*%
%TA.AperFunction,SMDPad,CuDef*%
%ADD45R,2.450000X2.450000*%
%TD*%
%TA.AperFunction,SMDPad,CuDef*%
%ADD46RoundRect,0.250000X0.375000X1.075000X-0.375000X1.075000X-0.375000X-1.075000X0.375000X-1.075000X0*%
%TD*%
%TA.AperFunction,SMDPad,CuDef*%
%ADD47RoundRect,0.140000X-0.219203X-0.021213X-0.021213X-0.219203X0.219203X0.021213X0.021213X0.219203X0*%
%TD*%
%TA.AperFunction,SMDPad,CuDef*%
%ADD48RoundRect,0.140000X0.219203X0.021213X0.021213X0.219203X-0.219203X-0.021213X-0.021213X-0.219203X0*%
%TD*%
%TA.AperFunction,SMDPad,CuDef*%
%ADD49RoundRect,0.250000X0.132583X-0.503814X0.503814X-0.132583X-0.132583X0.503814X-0.503814X0.132583X0*%
%TD*%
%TA.AperFunction,SMDPad,CuDef*%
%ADD50RoundRect,0.075000X-0.441942X-0.548008X0.548008X0.441942X0.441942X0.548008X-0.548008X-0.441942X0*%
%TD*%
%TA.AperFunction,SMDPad,CuDef*%
%ADD51RoundRect,0.075000X0.441942X-0.548008X0.548008X-0.441942X-0.441942X0.548008X-0.548008X0.441942X0*%
%TD*%
%TA.AperFunction,SMDPad,CuDef*%
%ADD52RotRect,1.400000X1.200000X315.000000*%
%TD*%
%TA.AperFunction,ComponentPad*%
%ADD53R,1.500000X1.050000*%
%TD*%
%TA.AperFunction,ComponentPad*%
%ADD54O,1.500000X1.050000*%
%TD*%
%TA.AperFunction,SMDPad,CuDef*%
%ADD55RoundRect,0.140000X-0.170000X0.140000X-0.170000X-0.140000X0.170000X-0.140000X0.170000X0.140000X0*%
%TD*%
%TA.AperFunction,SMDPad,CuDef*%
%ADD56R,0.300000X0.600000*%
%TD*%
%TA.AperFunction,SMDPad,CuDef*%
%ADD57R,0.600000X0.300000*%
%TD*%
%TA.AperFunction,ViaPad*%
%ADD58C,0.500000*%
%TD*%
%TA.AperFunction,Conductor*%
%ADD59C,0.250000*%
%TD*%
%TA.AperFunction,Conductor*%
%ADD60C,0.450000*%
%TD*%
%TA.AperFunction,Conductor*%
%ADD61C,0.800000*%
%TD*%
%TA.AperFunction,Conductor*%
%ADD62C,0.900000*%
%TD*%
%TA.AperFunction,Conductor*%
%ADD63C,0.300000*%
%TD*%
G04 APERTURE END LIST*
D10*
%TO.P,C16,1*%
%TO.N,A1*%
X115214403Y-51805800D03*
%TO.P,C16,2*%
%TO.N,/BSTA1*%
X115214403Y-53705800D03*
%TD*%
D11*
%TO.P,R23,1*%
%TO.N,B1*%
X118569200Y-48844200D03*
%TO.P,R23,2*%
%TO.N,B1_Vsense*%
X117549200Y-48844200D03*
%TD*%
D12*
%TO.P,D2,1,K*%
%TO.N,/PWR_LED*%
X108895282Y-73640085D03*
%TO.P,D2,2,A*%
%TO.N,+3V3*%
X110008976Y-72526391D03*
%TD*%
D13*
%TO.P,R25,1*%
%TO.N,A2*%
X97683376Y-83977424D03*
%TO.P,R25,2*%
%TO.N,A2_Vsense*%
X98404624Y-83256176D03*
%TD*%
D11*
%TO.P,R19,1*%
%TO.N,/GLB2*%
X89283000Y-69621400D03*
%TO.P,R19,2*%
%TO.N,/GLB2'*%
X88263000Y-69621400D03*
%TD*%
D14*
%TO.P,C20,1*%
%TO.N,A2*%
X96921751Y-82371751D03*
%TO.P,C20,2*%
%TO.N,/BSTA2*%
X95578249Y-81028249D03*
%TD*%
D15*
%TO.P,R17,1*%
%TO.N,/GLB1*%
X123137200Y-71780400D03*
%TO.P,R17,2*%
%TO.N,/GLB1'*%
X124157200Y-71780400D03*
%TD*%
D16*
%TO.P,C22,1*%
%TO.N,B1*%
X119382979Y-50596800D03*
%TO.P,C22,2*%
%TO.N,/BSTB1*%
X117482979Y-50596800D03*
%TD*%
D17*
%TO.P,Q1,1,G*%
%TO.N,/GHA1'*%
X134800000Y-53480000D03*
D18*
%TO.P,Q1,2,D*%
%TO.N,+BATT*%
X128500000Y-51200000D03*
D17*
%TO.P,Q1,3,S*%
%TO.N,A1*%
X134800000Y-48920000D03*
%TD*%
D19*
%TO.P,C29,1*%
%TO.N,C2_Vsense*%
X98370000Y-88300000D03*
%TO.P,C29,2*%
%TO.N,GND*%
X99330000Y-88300000D03*
%TD*%
D20*
%TO.P,R34,1*%
%TO.N,Net-(J13-Pad2)*%
X105550000Y-86010000D03*
%TO.P,R34,2*%
%TO.N,Net-(Q4-Pad3)*%
X105550000Y-84990000D03*
%TD*%
D21*
%TO.P,R13,1*%
%TO.N,/GLA2*%
X89362224Y-63530424D03*
%TO.P,R13,2*%
%TO.N,/GLA2'*%
X88640976Y-62809176D03*
%TD*%
D22*
%TO.P,C3,1*%
%TO.N,+3V3*%
X118180000Y-80000000D03*
%TO.P,C3,2*%
%TO.N,GND*%
X117220000Y-80000000D03*
%TD*%
D23*
%TO.P,R6,1*%
%TO.N,/GHA1*%
X124053600Y-53363400D03*
%TO.P,R6,2*%
%TO.N,/GHA1'*%
X124053600Y-54383400D03*
%TD*%
D24*
%TO.P,C21,1*%
%TO.N,C2*%
X90895249Y-87742951D03*
%TO.P,C21,2*%
%TO.N,/BSTC2*%
X92238751Y-86399449D03*
%TD*%
D11*
%TO.P,R30,1*%
%TO.N,C1_Vsense*%
X120982200Y-48844200D03*
%TO.P,R30,2*%
%TO.N,M1_COM*%
X119962200Y-48844200D03*
%TD*%
D25*
%TO.P,J13,1,Pin_1*%
%TO.N,+5V*%
X105550000Y-87950000D03*
D26*
%TO.P,J13,2,Pin_2*%
%TO.N,Net-(J13-Pad2)*%
X107550000Y-87950000D03*
%TO.P,J13,3,Pin_3*%
%TO.N,Net-(J13-Pad3)*%
X109550000Y-87950000D03*
%TO.P,J13,4,Pin_4*%
%TO.N,Net-(J13-Pad4)*%
X111550000Y-87950000D03*
%TO.P,J13,5,Pin_5*%
%TO.N,Net-(J13-Pad5)*%
X113550000Y-87950000D03*
%TO.P,J13,6,Pin_6*%
%TO.N,Net-(J13-Pad6)*%
X115550000Y-87950000D03*
%TO.P,J13,7,Pin_7*%
%TO.N,Net-(J13-Pad7)*%
X117550000Y-87950000D03*
%TD*%
D19*
%TO.P,C5,1*%
%TO.N,+3.3VA*%
X114620000Y-80000000D03*
%TO.P,C5,2*%
%TO.N,GND*%
X115580000Y-80000000D03*
%TD*%
D27*
%TO.P,C9,1*%
%TO.N,+3V3*%
X107833792Y-66076192D03*
%TO.P,C9,2*%
%TO.N,GND*%
X108929808Y-67172208D03*
%TD*%
D28*
%TO.P,C31,1*%
%TO.N,B2_Vsense*%
X96360589Y-85539411D03*
%TO.P,C31,2*%
%TO.N,GND*%
X97039411Y-84860589D03*
%TD*%
D11*
%TO.P,R4,1*%
%TO.N,+BATT*%
X120810000Y-80000000D03*
%TO.P,R4,2*%
%TO.N,VDC_sense*%
X119790000Y-80000000D03*
%TD*%
D16*
%TO.P,C19,1*%
%TO.N,C1*%
X123200204Y-50596800D03*
%TO.P,C19,2*%
%TO.N,/BSTC1*%
X121300204Y-50596800D03*
%TD*%
D23*
%TO.P,R15,1*%
%TO.N,/GLC2*%
X88138000Y-83919600D03*
%TO.P,R15,2*%
%TO.N,/GLC2'*%
X88138000Y-84939600D03*
%TD*%
D20*
%TO.P,R35,1*%
%TO.N,Net-(J13-Pad3)*%
X107550000Y-86010000D03*
%TO.P,R35,2*%
%TO.N,Net-(Q4-Pad3)*%
X107550000Y-84990000D03*
%TD*%
D29*
%TO.P,J11,1,Pin_1*%
%TO.N,GND*%
X80792000Y-48031800D03*
D30*
%TO.P,J11,2,Pin_2*%
%TO.N,+BATT*%
X83332000Y-48031800D03*
%TD*%
D11*
%TO.P,R18,1*%
%TO.N,/GHB2*%
X89283000Y-68021200D03*
%TO.P,R18,2*%
%TO.N,/GHB2'*%
X88263000Y-68021200D03*
%TD*%
D20*
%TO.P,R36,1*%
%TO.N,Net-(J13-Pad4)*%
X109550000Y-86010000D03*
%TO.P,R36,2*%
%TO.N,Net-(Q4-Pad3)*%
X109550000Y-84990000D03*
%TD*%
D22*
%TO.P,C11,1*%
%TO.N,+3V3*%
X100098800Y-74701400D03*
%TO.P,C11,2*%
%TO.N,GND*%
X99138800Y-74701400D03*
%TD*%
D31*
%TO.P,,1*%
%TO.N,C2*%
X71750000Y-90800000D03*
%TD*%
D19*
%TO.P,C7,1*%
%TO.N,+5V*%
X122220000Y-80800000D03*
%TO.P,C7,2*%
%TO.N,GND*%
X123180000Y-80800000D03*
%TD*%
D29*
%TO.P,J1,1,Pin_1*%
%TO.N,+3V3*%
X89408000Y-49001600D03*
D30*
%TO.P,J1,2,Pin_2*%
%TO.N,SWDCLK*%
X89408000Y-51541600D03*
%TO.P,J1,3,Pin_3*%
%TO.N,GND*%
X89408000Y-54081600D03*
%TO.P,J1,4,Pin_4*%
%TO.N,SWDIO*%
X89408000Y-56621600D03*
%TO.P,J1,5,Pin_5*%
%TO.N,SWO*%
X89408000Y-59161600D03*
%TD*%
D32*
%TO.P,U1,1,VI*%
%TO.N,+BATT*%
X118637500Y-83250000D03*
%TO.P,U1,2,VO*%
%TO.N,+3V3*%
X118637500Y-81350000D03*
%TO.P,U1,3,GND*%
%TO.N,GND*%
X116762500Y-82300000D03*
%TD*%
D33*
%TO.P,C26,1*%
%TO.N,+BATT*%
X130222200Y-74726800D03*
%TO.P,C26,2*%
%TO.N,GND*%
X133172200Y-74726800D03*
%TD*%
D20*
%TO.P,R28,1*%
%TO.N,A1_Vsense*%
X112979200Y-50827400D03*
%TO.P,R28,2*%
%TO.N,M1_COM*%
X112979200Y-49807400D03*
%TD*%
D34*
%TO.P,C13,1*%
%TO.N,+3V3*%
X108060811Y-69154989D03*
%TO.P,C13,2*%
%TO.N,GND*%
X107381989Y-69833811D03*
%TD*%
D35*
%TO.P,U10,1,VI*%
%TO.N,+BATT*%
X120699400Y-85687500D03*
D36*
%TO.P,U10,2,VO*%
%TO.N,+5V*%
X122199400Y-85600000D03*
D35*
%TO.P,U10,3,GND*%
%TO.N,GND*%
X123699400Y-85687500D03*
%TD*%
D17*
%TO.P,Q5,1,G*%
%TO.N,/GHC1'*%
X134800000Y-85780000D03*
D18*
%TO.P,Q5,2,D*%
%TO.N,+BATT*%
X128500000Y-83500000D03*
D17*
%TO.P,Q5,3,S*%
%TO.N,C1*%
X134800000Y-81220000D03*
%TD*%
D15*
%TO.P,R16,1*%
%TO.N,/GHB1*%
X123137200Y-73685400D03*
%TO.P,R16,2*%
%TO.N,/GHB1'*%
X124157200Y-73685400D03*
%TD*%
D11*
%TO.P,R24,1*%
%TO.N,C1*%
X123192000Y-48844199D03*
%TO.P,R24,2*%
%TO.N,C1_Vsense*%
X122172000Y-48844199D03*
%TD*%
D37*
%TO.P,C18,1*%
%TO.N,+BATT*%
X82145400Y-66497200D03*
%TO.P,C18,2*%
%TO.N,GND*%
X79195400Y-66497200D03*
%TD*%
D23*
%TO.P,R2,1*%
%TO.N,Heading_Red*%
X109700000Y-77290000D03*
%TO.P,R2,2*%
%TO.N,Net-(Q3-Pad2)*%
X109700000Y-78310000D03*
%TD*%
D21*
%TO.P,R12,1*%
%TO.N,/GHA2*%
X88752624Y-64876624D03*
%TO.P,R12,2*%
%TO.N,/GHA2'*%
X88031376Y-64155376D03*
%TD*%
D17*
%TO.P,Q9,1,G*%
%TO.N,/GHC2'*%
X77200000Y-88520000D03*
D18*
%TO.P,Q9,2,D*%
%TO.N,+BATT*%
X83500000Y-90800000D03*
D17*
%TO.P,Q9,3,S*%
%TO.N,C2*%
X77200000Y-93080000D03*
%TD*%
D13*
%TO.P,R32,1*%
%TO.N,B2_Vsense*%
X97810376Y-85831624D03*
%TO.P,R32,2*%
%TO.N,M2_COM*%
X98531624Y-85110376D03*
%TD*%
D38*
%TO.P,C14,1*%
%TO.N,+3V3*%
X108686600Y-56436200D03*
%TO.P,C14,2*%
%TO.N,GND*%
X108686600Y-55476200D03*
%TD*%
D23*
%TO.P,R7,1*%
%TO.N,/GLA1*%
X123977400Y-56665400D03*
%TO.P,R7,2*%
%TO.N,/GLA1'*%
X123977400Y-57685400D03*
%TD*%
D24*
%TO.P,C23,1*%
%TO.N,B2*%
X94019449Y-85558551D03*
%TO.P,C23,2*%
%TO.N,/BSTB2*%
X95362951Y-84215049D03*
%TD*%
D16*
%TO.P,C1,1*%
%TO.N,+BATT*%
X118850000Y-85200000D03*
%TO.P,C1,2*%
%TO.N,GND*%
X116950000Y-85200000D03*
%TD*%
D31*
%TO.P,,1*%
%TO.N,C1*%
X140200000Y-83450000D03*
%TD*%
D28*
%TO.P,C10,1*%
%TO.N,+3V3*%
X91303789Y-63941011D03*
%TO.P,C10,2*%
%TO.N,GND*%
X91982611Y-63262189D03*
%TD*%
D17*
%TO.P,Q8,1,G*%
%TO.N,/GLA2'*%
X77200000Y-53480000D03*
D18*
%TO.P,Q8,2,D*%
%TO.N,A2*%
X70900000Y-51200000D03*
D17*
%TO.P,Q8,3,S*%
%TO.N,GND*%
X77200000Y-48920000D03*
%TD*%
%TO.P,Q11,1,G*%
%TO.N,/GHB1'*%
X134800000Y-69630000D03*
D18*
%TO.P,Q11,2,D*%
%TO.N,+BATT*%
X128500000Y-67350000D03*
D17*
%TO.P,Q11,3,S*%
%TO.N,B1*%
X134800000Y-65070000D03*
%TD*%
D33*
%TO.P,C6,1*%
%TO.N,+BATT*%
X120725000Y-88000000D03*
%TO.P,C6,2*%
%TO.N,GND*%
X123675000Y-88000000D03*
%TD*%
D25*
%TO.P,J12,1,Pin_1*%
%TO.N,+3V3*%
X102550000Y-81950000D03*
D26*
%TO.P,J12,2,Pin_2*%
%TO.N,IR_top*%
X102550000Y-83950000D03*
%TO.P,J12,3,Pin_3*%
%TO.N,IR_bottom*%
X102550000Y-85950000D03*
%TO.P,J12,4,Pin_4*%
%TO.N,GND*%
X102550000Y-87950000D03*
%TD*%
D17*
%TO.P,Q14,1,G*%
%TO.N,/GLB2'*%
X77200000Y-69630000D03*
D18*
%TO.P,Q14,2,D*%
%TO.N,B2*%
X70900000Y-67350000D03*
D17*
%TO.P,Q14,3,S*%
%TO.N,GND*%
X77200000Y-65070000D03*
%TD*%
D39*
%TO.P,R31,1*%
%TO.N,A2_Vsense*%
X97810376Y-80817776D03*
%TO.P,R31,2*%
%TO.N,M2_COM*%
X98531624Y-81539024D03*
%TD*%
D37*
%TO.P,C17,1*%
%TO.N,+BATT*%
X82424800Y-51028600D03*
%TO.P,C17,2*%
%TO.N,GND*%
X79474800Y-51028600D03*
%TD*%
D33*
%TO.P,C25,1*%
%TO.N,+BATT*%
X129893800Y-59258200D03*
%TO.P,C25,2*%
%TO.N,GND*%
X132843800Y-59258200D03*
%TD*%
D17*
%TO.P,Q12,1,G*%
%TO.N,/GLB1'*%
X134800000Y-72370000D03*
D18*
%TO.P,Q12,2,D*%
%TO.N,B1*%
X141100000Y-74650000D03*
D17*
%TO.P,Q12,3,S*%
%TO.N,GND*%
X134800000Y-76930000D03*
%TD*%
%TO.P,Q7,1,G*%
%TO.N,/GHA2'*%
X77200000Y-56220000D03*
D18*
%TO.P,Q7,2,D*%
%TO.N,+BATT*%
X83500000Y-58500000D03*
D17*
%TO.P,Q7,3,S*%
%TO.N,A2*%
X77200000Y-60780000D03*
%TD*%
D22*
%TO.P,C30,1*%
%TO.N,B1_Vsense*%
X108980000Y-51200000D03*
%TO.P,C30,2*%
%TO.N,GND*%
X108020000Y-51200000D03*
%TD*%
D40*
%TO.P,U7,1,INLA*%
%TO.N,A2_INL*%
X90232709Y-79117742D03*
%TO.P,U7,2,INLB*%
%TO.N,B2_INL*%
X89879155Y-79471295D03*
%TO.P,U7,3,INLC*%
%TO.N,C2_INL*%
X89525602Y-79824849D03*
%TO.P,U7,4,GVDD*%
%TO.N,+BATT*%
X89172049Y-80178402D03*
%TO.P,U7,5,MODE*%
%TO.N,unconnected-(U7-Pad5)*%
X88818495Y-80531955D03*
%TO.P,U7,6,GND*%
%TO.N,GND*%
X88464942Y-80885509D03*
D41*
%TO.P,U7,7*%
%TO.N,N/C*%
X88464942Y-81928491D03*
%TO.P,U7,8*%
X88818495Y-82282045D03*
%TO.P,U7,9,GLC*%
%TO.N,/GLC2*%
X89172049Y-82635598D03*
%TO.P,U7,10,GLB*%
%TO.N,/GLB2*%
X89525602Y-82989151D03*
%TO.P,U7,11,GLA*%
%TO.N,/GLA2*%
X89879155Y-83342705D03*
%TO.P,U7,12,SHC*%
%TO.N,C2*%
X90232709Y-83696258D03*
D40*
%TO.P,U7,13,GHC*%
%TO.N,/GHC2*%
X91275691Y-83696258D03*
%TO.P,U7,14,BSTC*%
%TO.N,/BSTC2*%
X91629245Y-83342705D03*
%TO.P,U7,15,SHB*%
%TO.N,B2*%
X91982798Y-82989151D03*
%TO.P,U7,16,GHB*%
%TO.N,/GHB2*%
X92336351Y-82635598D03*
%TO.P,U7,17,BSTB*%
%TO.N,/BSTB2*%
X92689905Y-82282045D03*
%TO.P,U7,18,SHA*%
%TO.N,A2*%
X93043458Y-81928491D03*
D41*
%TO.P,U7,19,GHA*%
%TO.N,/GHA2*%
X93043458Y-80885509D03*
%TO.P,U7,20,BSTA*%
%TO.N,/BSTA2*%
X92689905Y-80531955D03*
%TO.P,U7,21,DT*%
%TO.N,unconnected-(U7-Pad21)*%
X92336351Y-80178402D03*
%TO.P,U7,22,INHA*%
%TO.N,A2_INH*%
X91982798Y-79824849D03*
%TO.P,U7,23,INHB*%
%TO.N,B2_INH*%
X91629245Y-79471295D03*
%TO.P,U7,24,INHC*%
%TO.N,C2_INH*%
X91275691Y-79117742D03*
D42*
%TO.P,U7,25*%
%TO.N,N/C*%
X90754200Y-81407000D03*
%TD*%
D15*
%TO.P,R5,1*%
%TO.N,VDC_sense*%
X119790000Y-78500000D03*
%TO.P,R5,2*%
%TO.N,GND*%
X120810000Y-78500000D03*
%TD*%
D43*
%TO.P,U4,1,INLA*%
%TO.N,A1_INL*%
X117901400Y-56851500D03*
%TO.P,U4,2,INLB*%
%TO.N,B1_INL*%
X118401400Y-56851500D03*
%TO.P,U4,3,INLC*%
%TO.N,C1_INL*%
X118901400Y-56851500D03*
%TO.P,U4,4,GVDD*%
%TO.N,+BATT*%
X119401400Y-56851500D03*
%TO.P,U4,5,MODE*%
%TO.N,unconnected-(U4-Pad5)*%
X119901400Y-56851500D03*
%TO.P,U4,6,GND*%
%TO.N,GND*%
X120401400Y-56851500D03*
D44*
%TO.P,U4,7*%
%TO.N,N/C*%
X121138900Y-56114000D03*
%TO.P,U4,8*%
X121138900Y-55614000D03*
%TO.P,U4,9,GLC*%
%TO.N,/GLC1*%
X121138900Y-55114000D03*
%TO.P,U4,10,GLB*%
%TO.N,/GLB1*%
X121138900Y-54614000D03*
%TO.P,U4,11,GLA*%
%TO.N,/GLA1*%
X121138900Y-54114000D03*
%TO.P,U4,12,SHC*%
%TO.N,C1*%
X121138900Y-53614000D03*
D43*
%TO.P,U4,13,GHC*%
%TO.N,/GHC1*%
X120401400Y-52876500D03*
%TO.P,U4,14,BSTC*%
%TO.N,/BSTC1*%
X119901400Y-52876500D03*
%TO.P,U4,15,SHB*%
%TO.N,B1*%
X119401400Y-52876500D03*
%TO.P,U4,16,GHB*%
%TO.N,/GHB1*%
X118901400Y-52876500D03*
%TO.P,U4,17,BSTB*%
%TO.N,/BSTB1*%
X118401400Y-52876500D03*
%TO.P,U4,18,SHA*%
%TO.N,A1*%
X117901400Y-52876500D03*
D44*
%TO.P,U4,19,GHA*%
%TO.N,/GHA1*%
X117163900Y-53614000D03*
%TO.P,U4,20,BSTA*%
%TO.N,/BSTA1*%
X117163900Y-54114000D03*
%TO.P,U4,21,DT*%
%TO.N,unconnected-(U4-Pad21)*%
X117163900Y-54614000D03*
%TO.P,U4,22,INHA*%
%TO.N,A1_INH*%
X117163900Y-55114000D03*
%TO.P,U4,23,INHB*%
%TO.N,B1_INH*%
X117163900Y-55614000D03*
%TO.P,U4,24,INHC*%
%TO.N,C1_INH*%
X117163900Y-56114000D03*
D45*
%TO.P,U4,25*%
%TO.N,N/C*%
X119151400Y-54864000D03*
%TD*%
D23*
%TO.P,R21,1*%
%TO.N,Heading_Green*%
X107700000Y-77290000D03*
%TO.P,R21,2*%
%TO.N,Net-(Q4-Pad2)*%
X107700000Y-78310000D03*
%TD*%
D17*
%TO.P,Q6,1,G*%
%TO.N,/GLC1'*%
X134800000Y-88520000D03*
D18*
%TO.P,Q6,2,D*%
%TO.N,C1*%
X141100000Y-90800000D03*
D17*
%TO.P,Q6,3,S*%
%TO.N,GND*%
X134800000Y-93080000D03*
%TD*%
D15*
%TO.P,R11,1*%
%TO.N,/GLC1*%
X123137200Y-78765400D03*
%TO.P,R11,2*%
%TO.N,/GLC1'*%
X124157200Y-78765400D03*
%TD*%
D11*
%TO.P,R14,1*%
%TO.N,/GHC2*%
X89105200Y-86563200D03*
%TO.P,R14,2*%
%TO.N,/GHC2'*%
X88085200Y-86563200D03*
%TD*%
D46*
%TO.P,L1,1*%
%TO.N,+3V3*%
X116500000Y-77600000D03*
%TO.P,L1,2*%
%TO.N,+3.3VA*%
X113700000Y-77600000D03*
%TD*%
D21*
%TO.P,R1,1*%
%TO.N,/BOOT0*%
X93121424Y-62641424D03*
%TO.P,R1,2*%
%TO.N,GND*%
X92400176Y-61920176D03*
%TD*%
D15*
%TO.P,R26,1*%
%TO.N,B2*%
X95783400Y-86766400D03*
%TO.P,R26,2*%
%TO.N,B2_Vsense*%
X96803400Y-86766400D03*
%TD*%
D47*
%TO.P,C12,1*%
%TO.N,+3V3*%
X102760589Y-58860589D03*
%TO.P,C12,2*%
%TO.N,GND*%
X103439411Y-59539411D03*
%TD*%
D31*
%TO.P,REF\u002A\u002A,1*%
%TO.N,B1*%
X140200000Y-67250000D03*
%TD*%
D11*
%TO.P,R29,1*%
%TO.N,B1_Vsense*%
X116207000Y-48844200D03*
%TO.P,R29,2*%
%TO.N,M1_COM*%
X115187000Y-48844200D03*
%TD*%
D48*
%TO.P,C8,1*%
%TO.N,+3.3VA*%
X96021211Y-73796211D03*
%TO.P,C8,2*%
%TO.N,GND*%
X95342389Y-73117389D03*
%TD*%
D49*
%TO.P,R3,1*%
%TO.N,/PWR_LED*%
X107477815Y-72435318D03*
%TO.P,R3,2*%
%TO.N,GND*%
X108768285Y-71144848D03*
%TD*%
D20*
%TO.P,R20,1*%
%TO.N,Net-(J13-Pad7)*%
X115550000Y-86010000D03*
%TO.P,R20,2*%
%TO.N,Net-(Q3-Pad3)*%
X115550000Y-84990000D03*
%TD*%
D17*
%TO.P,Q10,1,G*%
%TO.N,/GLC2'*%
X77200000Y-85780000D03*
D18*
%TO.P,Q10,2,D*%
%TO.N,C2*%
X70900000Y-83500000D03*
D17*
%TO.P,Q10,3,S*%
%TO.N,GND*%
X77200000Y-81220000D03*
%TD*%
D31*
%TO.P,,1*%
%TO.N,A1*%
X140150000Y-51150000D03*
%TD*%
D20*
%TO.P,R22,1*%
%TO.N,A1*%
X113004600Y-53037200D03*
%TO.P,R22,2*%
%TO.N,A1_Vsense*%
X113004600Y-52017200D03*
%TD*%
D50*
%TO.P,U3,1,VBAT*%
%TO.N,+3V3*%
X92979719Y-68061581D03*
%TO.P,U3,2,PC13*%
%TO.N,unconnected-(U3-Pad2)*%
X93333272Y-68415134D03*
%TO.P,U3,3,PC14*%
%TO.N,unconnected-(U3-Pad3)*%
X93686825Y-68768687D03*
%TO.P,U3,4,PC15*%
%TO.N,unconnected-(U3-Pad4)*%
X94040379Y-69122241D03*
%TO.P,U3,5,PF0*%
%TO.N,/OSC_in*%
X94393932Y-69475794D03*
%TO.P,U3,6,PF1*%
%TO.N,/OSC_out*%
X94747486Y-69829348D03*
%TO.P,U3,7,NRST*%
%TO.N,unconnected-(U3-Pad7)*%
X95101039Y-70182901D03*
%TO.P,U3,8,PC0*%
%TO.N,unconnected-(U3-Pad8)*%
X95454592Y-70536454D03*
%TO.P,U3,9,PC1*%
%TO.N,A2_Vsense*%
X95808146Y-70890008D03*
%TO.P,U3,10,PC2*%
%TO.N,unconnected-(U3-Pad10)*%
X96161699Y-71243561D03*
%TO.P,U3,11,PC3*%
%TO.N,unconnected-(U3-Pad11)*%
X96515252Y-71597114D03*
%TO.P,U3,12,VSSA*%
%TO.N,GND*%
X96868806Y-71950668D03*
%TO.P,U3,13,VDDA*%
%TO.N,+3.3VA*%
X97222359Y-72304221D03*
%TO.P,U3,14,PA0*%
%TO.N,B2_INL*%
X97575913Y-72657775D03*
%TO.P,U3,15,PA1*%
%TO.N,B2_INH*%
X97929466Y-73011328D03*
%TO.P,U3,16,PA2*%
%TO.N,IR_top*%
X98283019Y-73364881D03*
D51*
%TO.P,U3,17,PA3*%
%TO.N,B2_Vsense*%
X101005381Y-73364881D03*
%TO.P,U3,18,PF4*%
%TO.N,IR_bottom*%
X101358934Y-73011328D03*
%TO.P,U3,19,VDD*%
%TO.N,+3V3*%
X101712487Y-72657775D03*
%TO.P,U3,20,PA4*%
%TO.N,M2_COM*%
X102066041Y-72304221D03*
%TO.P,U3,21,PA5*%
%TO.N,M1_COM*%
X102419594Y-71950668D03*
%TO.P,U3,22,PA6*%
%TO.N,A2_INL*%
X102773148Y-71597114D03*
%TO.P,U3,23,PA7*%
%TO.N,Heading_Green*%
X103126701Y-71243561D03*
%TO.P,U3,24,PC4*%
%TO.N,Heading_Red*%
X103480254Y-70890008D03*
%TO.P,U3,25,PC5*%
%TO.N,Heading_Blue*%
X103833808Y-70536454D03*
%TO.P,U3,26,PB0*%
%TO.N,C2_Vsense*%
X104187361Y-70182901D03*
%TO.P,U3,27,PB1*%
%TO.N,A2_INH*%
X104540914Y-69829348D03*
%TO.P,U3,28,PB2*%
%TO.N,VDC_sense*%
X104894468Y-69475794D03*
%TO.P,U3,29,PB10*%
%TO.N,unconnected-(U3-Pad29)*%
X105248021Y-69122241D03*
%TO.P,U3,30,PB11*%
%TO.N,B1_Vsense*%
X105601575Y-68768687D03*
%TO.P,U3,31,VSS*%
%TO.N,GND*%
X105955128Y-68415134D03*
%TO.P,U3,32,VDD*%
%TO.N,+3V3*%
X106308681Y-68061581D03*
D50*
%TO.P,U3,33,PB12*%
%TO.N,unconnected-(U3-Pad33)*%
X106308681Y-65339219D03*
%TO.P,U3,34,PB13*%
%TO.N,A1_Vsense*%
X105955128Y-64985666D03*
%TO.P,U3,35,PB14*%
%TO.N,C1_Vsense*%
X105601575Y-64632113D03*
%TO.P,U3,36,PB15*%
%TO.N,unconnected-(U3-Pad36)*%
X105248021Y-64278559D03*
%TO.P,U3,37,PC6*%
%TO.N,unconnected-(U3-Pad37)*%
X104894468Y-63925006D03*
%TO.P,U3,38,PC7*%
%TO.N,C1_INL*%
X104540914Y-63571452D03*
%TO.P,U3,39,PC8*%
%TO.N,C1_INH*%
X104187361Y-63217899D03*
%TO.P,U3,40,PC9*%
%TO.N,unconnected-(U3-Pad40)*%
X103833808Y-62864346D03*
%TO.P,U3,41,PA8*%
%TO.N,PPM*%
X103480254Y-62510792D03*
%TO.P,U3,42,PA9*%
%TO.N,B1_INL*%
X103126701Y-62157239D03*
%TO.P,U3,43,PA10*%
%TO.N,B1_INH*%
X102773148Y-61803686D03*
%TO.P,U3,44,PA11*%
%TO.N,PWM2*%
X102419594Y-61450132D03*
%TO.P,U3,45,PA12*%
%TO.N,PWM3*%
X102066041Y-61096579D03*
%TO.P,U3,46,PA13*%
%TO.N,SWDIO*%
X101712487Y-60743025D03*
%TO.P,U3,47,VSS*%
%TO.N,GND*%
X101358934Y-60389472D03*
%TO.P,U3,48,VDD*%
%TO.N,+3V3*%
X101005381Y-60035919D03*
D51*
%TO.P,U3,49,PA14*%
%TO.N,SWDCLK*%
X98283019Y-60035919D03*
%TO.P,U3,50,PA15*%
%TO.N,SPIx_ENA*%
X97929466Y-60389472D03*
%TO.P,U3,51,PC10*%
%TO.N,SPIx_SCK*%
X97575913Y-60743025D03*
%TO.P,U3,52,PC11*%
%TO.N,SPIx_MISO*%
X97222359Y-61096579D03*
%TO.P,U3,53,PC12*%
%TO.N,SPIx_MOSI*%
X96868806Y-61450132D03*
%TO.P,U3,54,PD2*%
%TO.N,unconnected-(U3-Pad54)*%
X96515252Y-61803686D03*
%TO.P,U3,55,PB3*%
%TO.N,SWO*%
X96161699Y-62157239D03*
%TO.P,U3,56,PB4*%
%TO.N,unconnected-(U3-Pad56)*%
X95808146Y-62510792D03*
%TO.P,U3,57,PB5*%
%TO.N,unconnected-(U3-Pad57)*%
X95454592Y-62864346D03*
%TO.P,U3,58,PB6*%
%TO.N,A1_INL*%
X95101039Y-63217899D03*
%TO.P,U3,59,PB7*%
%TO.N,A1_INH*%
X94747486Y-63571452D03*
%TO.P,U3,60,BOOT0*%
%TO.N,/BOOT0*%
X94393932Y-63925006D03*
%TO.P,U3,61,PB8*%
%TO.N,C2_INL*%
X94040379Y-64278559D03*
%TO.P,U3,62,PB9*%
%TO.N,C2_INH*%
X93686825Y-64632113D03*
%TO.P,U3,63,VSS*%
%TO.N,GND*%
X93333272Y-64985666D03*
%TO.P,U3,64,VDD*%
%TO.N,+3V3*%
X92979719Y-65339219D03*
%TD*%
D15*
%TO.P,R10,1*%
%TO.N,/GHC1*%
X123137200Y-77038200D03*
%TO.P,R10,2*%
%TO.N,/GHC1'*%
X124157200Y-77038200D03*
%TD*%
D52*
%TO.P,X1,1,1*%
%TO.N,/OSC_in*%
X91254942Y-73737223D03*
%TO.P,X1,2*%
%TO.N,N/C*%
X92810577Y-75292858D03*
%TO.P,X1,3,3*%
%TO.N,/OSC_out*%
X94012658Y-74090777D03*
%TO.P,X1,4*%
%TO.N,N/C*%
X92457023Y-72535142D03*
%TD*%
D31*
%TO.P,,1*%
%TO.N,B2*%
X71750000Y-74650000D03*
%TD*%
D28*
%TO.P,C2,1*%
%TO.N,/OSC_in*%
X90272065Y-72231087D03*
%TO.P,C2,2*%
%TO.N,GND*%
X90950887Y-71552265D03*
%TD*%
D20*
%TO.P,R8,1*%
%TO.N,Net-(J13-Pad5)*%
X111550000Y-86010000D03*
%TO.P,R8,2*%
%TO.N,Net-(Q3-Pad3)*%
X111550000Y-84990000D03*
%TD*%
D53*
%TO.P,Q4,1,E*%
%TO.N,GND*%
X106400000Y-80500000D03*
D54*
%TO.P,Q4,2,B*%
%TO.N,Net-(Q4-Pad2)*%
X106400000Y-81770000D03*
%TO.P,Q4,3,C*%
%TO.N,Net-(Q4-Pad3)*%
X106400000Y-83040000D03*
%TD*%
D17*
%TO.P,Q13,1,G*%
%TO.N,/GHB2'*%
X77200000Y-72370000D03*
D18*
%TO.P,Q13,2,D*%
%TO.N,+BATT*%
X83500000Y-74650000D03*
D17*
%TO.P,Q13,3,S*%
%TO.N,B2*%
X77200000Y-76930000D03*
%TD*%
D22*
%TO.P,C32,1*%
%TO.N,A1_Vsense*%
X108980000Y-49350000D03*
%TO.P,C32,2*%
%TO.N,GND*%
X108020000Y-49350000D03*
%TD*%
D55*
%TO.P,C33,1*%
%TO.N,A2_Vsense*%
X100100000Y-81770000D03*
%TO.P,C33,2*%
%TO.N,GND*%
X100100000Y-82730000D03*
%TD*%
D56*
%TO.P,AC1,1,VDD_IO*%
%TO.N,+3V3*%
X107000000Y-55797600D03*
%TO.P,AC1,2,NC_1*%
%TO.N,unconnected-(AC1-Pad2)*%
X106500000Y-55797600D03*
%TO.P,AC1,3,NC_2*%
%TO.N,unconnected-(AC1-Pad3)*%
X106000000Y-55797600D03*
%TO.P,AC1,4,SCL_SPC*%
%TO.N,SPIx_SCK*%
X105500000Y-55797600D03*
%TO.P,AC1,5,GND_1*%
%TO.N,GND*%
X105000000Y-55797600D03*
D57*
%TO.P,AC1,6,SDA_SDI_SDO*%
%TO.N,SPIx_MOSI*%
X104800000Y-56497600D03*
%TO.P,AC1,7,SDO_SA0*%
%TO.N,SPIx_MISO*%
X104800000Y-56997600D03*
%TO.P,AC1,8,CS*%
%TO.N,SPIx_ENA*%
X104800000Y-57497600D03*
D56*
%TO.P,AC1,9,INT2*%
%TO.N,unconnected-(AC1-Pad9)*%
X105000000Y-58197600D03*
%TO.P,AC1,10,RSVD_1*%
%TO.N,GND*%
X105500000Y-58197600D03*
%TO.P,AC1,11,INT1*%
%TO.N,unconnected-(AC1-Pad11)*%
X106000000Y-58197600D03*
%TO.P,AC1,12,GND_2*%
%TO.N,GND*%
X106500000Y-58197600D03*
%TO.P,AC1,13,GND_3*%
X107000000Y-58197600D03*
D57*
%TO.P,AC1,14,VDD*%
%TO.N,+3V3*%
X107200000Y-57497600D03*
%TO.P,AC1,15,RSVD_2*%
X107200000Y-56997600D03*
%TO.P,AC1,16,GND_4*%
%TO.N,GND*%
X107200000Y-56497600D03*
%TD*%
D22*
%TO.P,C28,1*%
%TO.N,C1_Vsense*%
X108980000Y-47500000D03*
%TO.P,C28,2*%
%TO.N,GND*%
X108020000Y-47500000D03*
%TD*%
D55*
%TO.P,C15,1*%
%TO.N,+3V3*%
X108686600Y-57559000D03*
%TO.P,C15,2*%
%TO.N,GND*%
X108686600Y-58519000D03*
%TD*%
D37*
%TO.P,C24,1*%
%TO.N,+BATT*%
X82170800Y-82042000D03*
%TO.P,C24,2*%
%TO.N,GND*%
X79220800Y-82042000D03*
%TD*%
D15*
%TO.P,R33,1*%
%TO.N,C2_Vsense*%
X95908400Y-88290400D03*
%TO.P,R33,2*%
%TO.N,M2_COM*%
X96928400Y-88290400D03*
%TD*%
D17*
%TO.P,Q2,1,G*%
%TO.N,/GLA1'*%
X134800000Y-56220000D03*
D18*
%TO.P,Q2,2,D*%
%TO.N,A1*%
X141100000Y-58500000D03*
D17*
%TO.P,Q2,3,S*%
%TO.N,GND*%
X134800000Y-60780000D03*
%TD*%
D31*
%TO.P,,1*%
%TO.N,A2*%
X71700000Y-58500000D03*
%TD*%
D33*
%TO.P,C27,1*%
%TO.N,+BATT*%
X129815800Y-93954600D03*
%TO.P,C27,2*%
%TO.N,GND*%
X132765800Y-93954600D03*
%TD*%
D28*
%TO.P,C4,1*%
%TO.N,/OSC_out*%
X94316715Y-76275737D03*
%TO.P,C4,2*%
%TO.N,GND*%
X94995537Y-75596915D03*
%TD*%
D20*
%TO.P,R9,1*%
%TO.N,Net-(J13-Pad6)*%
X113550000Y-86010000D03*
%TO.P,R9,2*%
%TO.N,Net-(Q3-Pad3)*%
X113550000Y-84990000D03*
%TD*%
D53*
%TO.P,Q3,1,E*%
%TO.N,GND*%
X111390000Y-80480000D03*
D54*
%TO.P,Q3,2,B*%
%TO.N,Net-(Q3-Pad2)*%
X111390000Y-81750000D03*
%TO.P,Q3,3,C*%
%TO.N,Net-(Q3-Pad3)*%
X111390000Y-83020000D03*
%TD*%
D15*
%TO.P,R27,1*%
%TO.N,C2*%
X93495400Y-88290400D03*
%TO.P,R27,2*%
%TO.N,C2_Vsense*%
X94515400Y-88290400D03*
%TD*%
D58*
%TO.N,GND*%
X79019400Y-48895000D03*
X75488800Y-65024000D03*
X77241400Y-47447200D03*
X133019800Y-62585600D03*
X123700000Y-86700000D03*
X136982200Y-62204600D03*
X116762500Y-83000000D03*
X79121000Y-52603400D03*
X134747000Y-62052200D03*
X136601200Y-93065600D03*
X75209400Y-85369400D03*
X75285600Y-72034400D03*
X136300000Y-74400000D03*
X77216000Y-79984600D03*
X135026400Y-57581800D03*
X134797800Y-91871800D03*
X108929808Y-68315208D03*
X77190600Y-63855600D03*
X100200000Y-61300000D03*
X77200000Y-84450000D03*
X133150000Y-92550000D03*
X78900000Y-80400000D03*
X136652000Y-60731400D03*
X79000000Y-65000000D03*
X136677400Y-72390000D03*
X91300000Y-66100000D03*
X75514200Y-48895000D03*
X133150000Y-90000000D03*
X133680200Y-95199200D03*
X107975400Y-55727600D03*
X136626600Y-78689200D03*
X118550000Y-61250000D03*
X136677400Y-56515000D03*
X134797800Y-59537600D03*
X87172800Y-80391000D03*
X78333600Y-50876200D03*
X77190600Y-51841400D03*
X136169400Y-58674000D03*
X75300000Y-67050000D03*
X77216000Y-82499200D03*
X132750000Y-77050000D03*
X124841000Y-59639200D03*
X100100000Y-86550000D03*
X136525000Y-76936600D03*
X77190600Y-66294000D03*
X136804400Y-86029800D03*
X116050000Y-61900000D03*
X133450000Y-76050000D03*
X134797800Y-75768200D03*
X75285600Y-83362800D03*
X98850000Y-71850000D03*
X133070600Y-60756800D03*
X134848600Y-94234000D03*
X124850000Y-61250000D03*
X107350000Y-47500000D03*
X136728200Y-53746400D03*
X136702800Y-69723000D03*
X133654800Y-58267600D03*
X78841600Y-68199000D03*
X75285600Y-69113400D03*
X133070600Y-78105000D03*
X136601200Y-90017600D03*
X136779000Y-88366600D03*
X134797800Y-73888600D03*
X107350000Y-51200000D03*
X75260200Y-52603400D03*
X96650000Y-83850000D03*
X106550000Y-49350000D03*
X77190600Y-50139600D03*
X78943200Y-84429600D03*
X132350000Y-91150000D03*
X108350000Y-62150000D03*
X102100000Y-54900000D03*
X75285600Y-81203800D03*
X75488800Y-50952400D03*
X134797800Y-78079600D03*
X77216000Y-68072000D03*
X75209400Y-87960200D03*
X132867400Y-73329800D03*
%TO.N,+3V3*%
X103352600Y-65405000D03*
X95986600Y-65074800D03*
X103200200Y-54914800D03*
X91948000Y-64592200D03*
X99250000Y-76050000D03*
X102100000Y-58928000D03*
%TO.N,+3.3VA*%
X111150000Y-78450000D03*
X96064308Y-74776108D03*
%TO.N,SWDIO*%
X100100000Y-62300000D03*
%TO.N,SWDCLK*%
X97950000Y-59050000D03*
%TO.N,SWO*%
X95123000Y-61112400D03*
%TO.N,SPIx_SCK*%
X103474500Y-57300000D03*
X105547481Y-56805028D03*
%TO.N,A1_INL*%
X117373400Y-56845200D03*
X113588800Y-55753000D03*
%TO.N,B1_INL*%
X113600000Y-57800000D03*
X115595400Y-57800000D03*
%TO.N,A1*%
X113004600Y-53670200D03*
X131749800Y-47396400D03*
X115200000Y-50550000D03*
%TO.N,/GHA1*%
X122986800Y-52044600D03*
X117170200Y-53086000D03*
%TO.N,IR_top*%
X98300000Y-76200000D03*
%TO.N,IR_bottom*%
X102160999Y-73811521D03*
X104400000Y-76950000D03*
%TO.N,/GHA1'*%
X124764800Y-55092600D03*
X131750000Y-55100000D03*
%TO.N,/GHC1'*%
X131650000Y-77800000D03*
X124917200Y-77038200D03*
%TO.N,C1*%
X121138902Y-53105098D03*
X133680200Y-79933800D03*
%TO.N,/GLC1'*%
X131650000Y-78850000D03*
X124891800Y-78384400D03*
%TO.N,/GHA2'*%
X87325200Y-63449200D03*
X80289400Y-63449200D03*
%TO.N,A2*%
X93800000Y-82508900D03*
X80289400Y-64262000D03*
%TO.N,/GLA2'*%
X87325200Y-62636400D03*
X80314800Y-62611000D03*
%TO.N,/GHC2'*%
X87249000Y-86563200D03*
X79959200Y-86563200D03*
%TO.N,/GLC2'*%
X87249000Y-84937600D03*
X80289400Y-84937600D03*
%TO.N,/GHB1'*%
X131400000Y-73150000D03*
X124866400Y-73685400D03*
%TO.N,B1*%
X118948200Y-49479200D03*
X131749800Y-63093600D03*
%TO.N,/GLB1'*%
X131974500Y-72100000D03*
X124841000Y-71780400D03*
%TO.N,/GHB2'*%
X80400000Y-68021200D03*
X87249000Y-68021200D03*
%TO.N,/GLB2'*%
X87249000Y-69621400D03*
X79248000Y-69621400D03*
%TO.N,/GLC1*%
X122072400Y-77876400D03*
X120970900Y-58775600D03*
%TO.N,/GLB1*%
X123113800Y-70662800D03*
X123113800Y-58216800D03*
%TO.N,/GHC1*%
X120650000Y-52222400D03*
X122123200Y-76047600D03*
%TO.N,/GHB1*%
X122478800Y-73025000D03*
X118599800Y-51631000D03*
%TO.N,/GLB2*%
X88000000Y-71200000D03*
X88925400Y-83693000D03*
%TO.N,/GLA2*%
X89700000Y-84600000D03*
X88900000Y-71200000D03*
%TO.N,/GHB2*%
X93500000Y-83800000D03*
X89865200Y-68630800D03*
%TO.N,/GHA2*%
X89600000Y-65700000D03*
X93800000Y-81100000D03*
%TO.N,C2*%
X90601800Y-84048600D03*
X80600000Y-85725000D03*
X90474800Y-86283800D03*
%TO.N,B2*%
X80670400Y-68808600D03*
X92700000Y-84200000D03*
%TO.N,A2_INL*%
X97200000Y-79100000D03*
X95700000Y-77600000D03*
%TO.N,C2_INL*%
X93449893Y-76349893D03*
X95200000Y-65300000D03*
%TO.N,C2_INH*%
X93000000Y-78275981D03*
X95300000Y-66200000D03*
%TO.N,/GLA1'*%
X131699000Y-57683400D03*
X124841000Y-57683400D03*
%TO.N,M2_COM*%
X99000000Y-82000000D03*
X99000000Y-78400000D03*
%TO.N,M1_COM*%
X103301800Y-67716400D03*
X112236141Y-50518588D03*
%TO.N,A1_Vsense*%
X112979200Y-51420800D03*
X107200000Y-62400000D03*
%TO.N,B1_Vsense*%
X104600000Y-67700000D03*
X113900000Y-54500000D03*
%TO.N,C1_Vsense*%
X111300000Y-51700000D03*
X106375200Y-63195200D03*
%TO.N,A2_Vsense*%
X96300000Y-80000000D03*
X94970600Y-72110600D03*
%TO.N,B2_Vsense*%
X98200000Y-78000000D03*
X97332800Y-86309200D03*
%TO.N,C2_Vsense*%
X100153839Y-79200000D03*
X95199200Y-88290400D03*
%TO.N,VDC_sense*%
X106349800Y-70383400D03*
X111963200Y-73431400D03*
%TO.N,Heading_Red*%
X105181411Y-73600000D03*
X106700000Y-75200000D03*
%TO.N,Heading_Green*%
X106150000Y-75750000D03*
X104604252Y-74204252D03*
%TO.N,+5V*%
X122220000Y-81420000D03*
X119450000Y-88000000D03*
%TO.N,PPM*%
X104851200Y-61569600D03*
%TO.N,PWM2*%
X102285800Y-67665600D03*
%TO.N,PWM3*%
X101500000Y-68400000D03*
%TD*%
D59*
%TO.N,GND*%
X108020000Y-49350000D02*
X106550000Y-49350000D01*
%TO.N,+BATT*%
X89170002Y-80178402D02*
X88671400Y-79679800D01*
D60*
X118637500Y-83250000D02*
X118637500Y-83937500D01*
D61*
X120725000Y-88000000D02*
X120700000Y-87975000D01*
D59*
X120810000Y-80000000D02*
X120810000Y-80890000D01*
X88671400Y-79679800D02*
X86233000Y-79679800D01*
D60*
X118637500Y-83937500D02*
X118850000Y-84150000D01*
D59*
X120810000Y-80890000D02*
X118637500Y-83062500D01*
D62*
X120725000Y-88000000D02*
X120725000Y-90475000D01*
D59*
X119401400Y-59559000D02*
X120294400Y-60452000D01*
D60*
X118850000Y-84150000D02*
X118850000Y-85200000D01*
D62*
X120700000Y-87975000D02*
X120700000Y-85688100D01*
D60*
X119600000Y-85200000D02*
X120087500Y-85687500D01*
D59*
X118637500Y-83062500D02*
X118637500Y-83250000D01*
X120294400Y-60452000D02*
X126085600Y-60452000D01*
D60*
X120087500Y-85687500D02*
X120699400Y-85687500D01*
X118850000Y-85200000D02*
X119600000Y-85200000D01*
D59*
X119401400Y-56851500D02*
X119401400Y-59559000D01*
X89172049Y-80178402D02*
X89170002Y-80178402D01*
D62*
X120700000Y-85688100D02*
X120699400Y-85687500D01*
D63*
%TO.N,GND*%
X107381989Y-69833811D02*
X107448178Y-69900000D01*
X102100000Y-54900000D02*
X102800000Y-55600000D01*
X87604600Y-55595400D02*
X87604600Y-59904600D01*
X106800000Y-59000000D02*
X105800000Y-59000000D01*
X102147728Y-59600000D02*
X103378822Y-59600000D01*
X121300000Y-78500000D02*
X123180000Y-80380000D01*
X89408000Y-54081600D02*
X89118400Y-54081600D01*
D59*
X97039411Y-84860589D02*
X97039411Y-84239411D01*
D63*
X123700000Y-81320000D02*
X123700000Y-85688100D01*
X105500000Y-58846622D02*
X105653378Y-59000000D01*
X106800000Y-59000000D02*
X107000000Y-58800000D01*
X89300000Y-61600000D02*
X90320422Y-61600000D01*
X108768285Y-71144848D02*
X108915200Y-70997933D01*
D62*
X123700000Y-87975000D02*
X123700000Y-85688100D01*
D63*
X107448178Y-69900000D02*
X108500000Y-69900000D01*
X87604600Y-59904600D02*
X89300000Y-61600000D01*
X95300000Y-75292452D02*
X94995537Y-75596915D01*
X116950000Y-83650000D02*
X116762500Y-83462500D01*
X107975400Y-56187400D02*
X107975400Y-55727600D01*
X98850000Y-71850000D02*
X99415600Y-72415600D01*
X89118400Y-54081600D02*
X87604600Y-55595400D01*
X95342389Y-73117389D02*
X95759778Y-72700000D01*
X91982611Y-63262189D02*
X91982611Y-63635005D01*
X95300000Y-73159778D02*
X95300000Y-75292452D01*
D59*
X88464942Y-80884830D02*
X87971112Y-80391000D01*
D63*
X105800000Y-59000000D02*
X105300000Y-59000000D01*
X107200000Y-56497600D02*
X106702400Y-56497600D01*
X103378822Y-59600000D02*
X103439411Y-59539411D01*
D59*
X100950000Y-87950000D02*
X102550000Y-87950000D01*
D63*
X96869484Y-71950668D02*
X97620152Y-71200000D01*
X96119474Y-72700000D02*
X96868806Y-71950668D01*
X123700000Y-85688100D02*
X123699400Y-85687500D01*
X106702400Y-56497600D02*
X106500000Y-56700000D01*
X120200000Y-58400000D02*
X120401400Y-58198600D01*
X107665200Y-56497600D02*
X107837000Y-56325800D01*
X91982611Y-62337741D02*
X92400176Y-61920176D01*
X96868806Y-71950668D02*
X96869484Y-71950668D01*
D59*
X116050000Y-61900000D02*
X115800000Y-62150000D01*
D63*
X100999542Y-60749542D02*
X100449084Y-61300000D01*
X101358934Y-60388794D02*
X102147728Y-59600000D01*
X116762500Y-83462500D02*
X116762500Y-82300000D01*
X117220000Y-80980000D02*
X117220000Y-80000000D01*
X99415600Y-72415600D02*
X99415600Y-74424600D01*
X107000000Y-58197600D02*
X106500000Y-58197600D01*
X107000000Y-58197600D02*
X108365200Y-58197600D01*
X108915200Y-69161660D02*
X108915200Y-68329816D01*
X116950000Y-85200000D02*
X116950000Y-83650000D01*
X107000000Y-58800000D02*
X107000000Y-58197600D01*
X98200000Y-71200000D02*
X98850000Y-71850000D01*
X95759778Y-72700000D02*
X96119474Y-72700000D01*
X105346622Y-59000000D02*
X105500000Y-58846622D01*
X91300000Y-66100000D02*
X91300000Y-71203152D01*
X95342389Y-73117389D02*
X95300000Y-73159778D01*
X124841000Y-59639200D02*
X120639200Y-59639200D01*
D59*
X120401400Y-56851500D02*
X120401400Y-57498600D01*
X118550000Y-61250000D02*
X116700000Y-61250000D01*
D63*
X104302400Y-55600000D02*
X104500000Y-55797600D01*
X107837000Y-56325800D02*
X107975400Y-56187400D01*
X104500000Y-55797600D02*
X105000000Y-55797600D01*
D59*
X87971112Y-80391000D02*
X87172800Y-80391000D01*
D63*
X108915200Y-70997933D02*
X108915200Y-69484800D01*
X107975400Y-55727600D02*
X108226800Y-55476200D01*
X123675000Y-88000000D02*
X123700000Y-87975000D01*
X102800000Y-55600000D02*
X104302400Y-55600000D01*
X123180000Y-80800000D02*
X123700000Y-81320000D01*
X105500000Y-58197600D02*
X105500000Y-58846622D01*
X117220000Y-80000000D02*
X115580000Y-80000000D01*
X120200000Y-59200000D02*
X120200000Y-58400000D01*
X108929808Y-67172208D02*
X108929808Y-68315208D01*
X108915200Y-69484800D02*
X108915200Y-69190876D01*
X100449084Y-61300000D02*
X100200000Y-61300000D01*
X91982611Y-63262189D02*
X91982611Y-62337741D01*
X120401400Y-58198600D02*
X120401400Y-57498600D01*
D59*
X124850000Y-61250000D02*
X118550000Y-61250000D01*
D63*
X120810000Y-78500000D02*
X121300000Y-78500000D01*
X116762500Y-81437500D02*
X117220000Y-80980000D01*
D59*
X108020000Y-47500000D02*
X107350000Y-47500000D01*
D63*
X116762500Y-82300000D02*
X116762500Y-81437500D01*
X99415600Y-74424600D02*
X99138800Y-74701400D01*
D59*
X99330000Y-88300000D02*
X100600000Y-88300000D01*
D63*
X120639200Y-59639200D02*
X120200000Y-59200000D01*
X107381989Y-69833811D02*
X107373805Y-69833811D01*
X108915200Y-68329816D02*
X108929808Y-68315208D01*
X108500000Y-69900000D02*
X108915200Y-69484800D01*
X103439411Y-59539411D02*
X103978822Y-59000000D01*
X106500000Y-56700000D02*
X106500000Y-58197600D01*
X107373805Y-69833811D02*
X105955128Y-68415134D01*
X123180000Y-80380000D02*
X123180000Y-80800000D01*
X105800000Y-59000000D02*
X105653378Y-59000000D01*
X90320422Y-61600000D02*
X91982611Y-63262189D01*
X91300000Y-71203152D02*
X90950887Y-71552265D01*
X103978822Y-59000000D02*
X105346622Y-59000000D01*
D59*
X100100000Y-82730000D02*
X100100000Y-86550000D01*
D63*
X91982611Y-63635005D02*
X93333272Y-64985666D01*
X108365200Y-58197600D02*
X108686600Y-58519000D01*
D59*
X97039411Y-84239411D02*
X96650000Y-83850000D01*
X100600000Y-88300000D02*
X100950000Y-87950000D01*
D63*
X108226800Y-55476200D02*
X108686600Y-55476200D01*
X107200000Y-56497600D02*
X107665200Y-56497600D01*
D59*
X108020000Y-51200000D02*
X107350000Y-51200000D01*
D63*
X101358934Y-60390150D02*
X100999542Y-60749542D01*
X101358934Y-60389472D02*
X101358934Y-60390150D01*
X97620152Y-71200000D02*
X98200000Y-71200000D01*
D59*
X116700000Y-61250000D02*
X116050000Y-61900000D01*
X88464942Y-80885509D02*
X88464942Y-80884830D01*
X115800000Y-62150000D02*
X108350000Y-62150000D01*
D63*
%TO.N,+3V3*%
X102180711Y-58860589D02*
X101005381Y-60035919D01*
X101005381Y-60030619D02*
X101005381Y-60035919D01*
X118180000Y-78380000D02*
X117400000Y-77600000D01*
X116500000Y-74500000D02*
X118180000Y-76180000D01*
X109400000Y-55100000D02*
X109100000Y-54800000D01*
X118180000Y-76180000D02*
X118180000Y-80000000D01*
X109400000Y-56100000D02*
X109400000Y-55100000D01*
X100098800Y-74701400D02*
X100098800Y-75201200D01*
X111982585Y-74500000D02*
X116500000Y-74500000D01*
X103352600Y-65405000D02*
X104547600Y-66600000D01*
X103315000Y-54800000D02*
X106700000Y-54800000D01*
X104847100Y-66600000D02*
X106308681Y-68061581D01*
X109100000Y-54800000D02*
X107300000Y-54800000D01*
X108686600Y-56436200D02*
X109063800Y-56436200D01*
X106999511Y-55234311D02*
X106999511Y-55797111D01*
X106308681Y-68061581D02*
X106308681Y-67601303D01*
X117400000Y-77600000D02*
X116500000Y-77600000D01*
X99974400Y-70983700D02*
X99974400Y-72263000D01*
X109974279Y-72491694D02*
X109974279Y-66794279D01*
X99974400Y-74577000D02*
X99974400Y-72313800D01*
X99974400Y-72313800D02*
X99999800Y-72288400D01*
X100098800Y-74701400D02*
X99974400Y-74577000D01*
X106308681Y-67601303D02*
X107833792Y-66076192D01*
X99350000Y-61302162D02*
X100616243Y-60035919D01*
X106700000Y-54800000D02*
X106999511Y-55099511D01*
X106999511Y-55099511D02*
X106999511Y-55234311D01*
X93485080Y-67556220D02*
X92979719Y-68061581D01*
X104547600Y-66600000D02*
X104847100Y-66600000D01*
X103200200Y-54914800D02*
X103315000Y-54800000D01*
X107200000Y-57497600D02*
X108625200Y-57497600D01*
X108125200Y-56997600D02*
X108686600Y-56436200D01*
X92232700Y-64592200D02*
X92979719Y-65339219D01*
X99350000Y-61711400D02*
X99350000Y-61302162D01*
X107300000Y-54800000D02*
X106999511Y-55100489D01*
X108625200Y-57497600D02*
X108686600Y-57559000D01*
X109063800Y-56436200D02*
X109400000Y-56100000D01*
X106999511Y-55797111D02*
X107000000Y-55797600D01*
X91303789Y-63947989D02*
X91948000Y-64592200D01*
X109974279Y-66794279D02*
X109256192Y-66076192D01*
X100616243Y-60035919D02*
X101005381Y-60035919D01*
X99974400Y-72263000D02*
X99999800Y-72288400D01*
X100406200Y-71882000D02*
X99999800Y-72288400D01*
X93485080Y-65844580D02*
X93485080Y-67556220D01*
X107200000Y-56997600D02*
X108125200Y-56997600D01*
X95986600Y-65074800D02*
X99350000Y-61711400D01*
X106308681Y-68061581D02*
X106308681Y-68062259D01*
X102100000Y-58928000D02*
X102100000Y-58936000D01*
X95986600Y-66995900D02*
X99974400Y-70983700D01*
X92979719Y-65339219D02*
X93485080Y-65844580D01*
X110008976Y-72526391D02*
X109974279Y-72491694D01*
X100936712Y-71882000D02*
X100406200Y-71882000D01*
X118180000Y-80480000D02*
X118180000Y-80000000D01*
X106999511Y-55100489D02*
X106999511Y-55234311D01*
X107046422Y-68800000D02*
X107705822Y-68800000D01*
X109256192Y-66076192D02*
X107833792Y-66076192D01*
X91303789Y-63941011D02*
X91303789Y-63947989D01*
X101712487Y-72657775D02*
X100936712Y-71882000D01*
X91948000Y-64592200D02*
X92232700Y-64592200D01*
X118637500Y-81350000D02*
X118637500Y-80937500D01*
X118637500Y-80937500D02*
X118180000Y-80480000D01*
X118180000Y-80000000D02*
X118180000Y-78380000D01*
X107705822Y-68800000D02*
X108060811Y-69154989D01*
X100098800Y-75201200D02*
X99250000Y-76050000D01*
X95986600Y-65074800D02*
X95986600Y-66995900D01*
X107200000Y-57497600D02*
X107200000Y-56997600D01*
X110008976Y-72526391D02*
X111982585Y-74500000D01*
X102760589Y-58860589D02*
X102180711Y-58860589D01*
X102100000Y-58936000D02*
X101005381Y-60030619D01*
X106308681Y-68062259D02*
X107046422Y-68800000D01*
%TO.N,+3.3VA*%
X111200000Y-78400000D02*
X112900000Y-78400000D01*
X114300000Y-80000000D02*
X113700000Y-79400000D01*
X113700000Y-79400000D02*
X113700000Y-77600000D01*
X111150000Y-78450000D02*
X111200000Y-78400000D01*
X96021211Y-73505369D02*
X97222359Y-72304221D01*
X96021211Y-73796211D02*
X96021211Y-73505369D01*
X112900000Y-78400000D02*
X113700000Y-77600000D01*
X96064308Y-74776108D02*
X96021211Y-74733011D01*
X114620000Y-80000000D02*
X114300000Y-80000000D01*
X96021211Y-74733011D02*
X96021211Y-73796211D01*
D59*
%TO.N,/BOOT0*%
X93799958Y-63319958D02*
X93121424Y-62641424D01*
X93799958Y-63331032D02*
X94393932Y-63925006D01*
X93799958Y-63331032D02*
X93799958Y-63319958D01*
%TO.N,SWDIO*%
X100100000Y-62300000D02*
X100145774Y-62300000D01*
X100145774Y-62300000D02*
X101702749Y-60743025D01*
X101702749Y-60743025D02*
X101712487Y-60743025D01*
%TO.N,SWDCLK*%
X98283019Y-60035919D02*
X97950000Y-59702900D01*
X97950000Y-59702900D02*
X97950000Y-59050000D01*
%TO.N,SPIx_ENA*%
X98100000Y-57900000D02*
X96950000Y-59050000D01*
X96950000Y-59050000D02*
X96950000Y-59410006D01*
X104202400Y-57497600D02*
X103800000Y-57900000D01*
X103800000Y-57900000D02*
X98100000Y-57900000D01*
X96950000Y-59410006D02*
X97929466Y-60389472D01*
X104800000Y-57497600D02*
X104202400Y-57497600D01*
%TO.N,SWO*%
X96161699Y-62151099D02*
X95123000Y-61112400D01*
X96161699Y-62157239D02*
X96161699Y-62151099D01*
%TO.N,SPIx_SCK*%
X97800000Y-57300000D02*
X96300000Y-58800000D01*
X105500000Y-56757547D02*
X105500000Y-55797600D01*
X96300000Y-59467112D02*
X97575913Y-60743025D01*
X96300000Y-58800000D02*
X96300000Y-59467112D01*
X105547481Y-56805028D02*
X105500000Y-56757547D01*
X103474500Y-57300000D02*
X97800000Y-57300000D01*
%TO.N,SPIx_MOSI*%
X96868806Y-61450132D02*
X95100000Y-59681326D01*
X103827889Y-56100000D02*
X104225489Y-56497600D01*
X104225489Y-56497600D02*
X104800000Y-56497600D01*
X95100000Y-59681326D02*
X95100000Y-58200000D01*
X95100000Y-58200000D02*
X97200000Y-56100000D01*
X97200000Y-56100000D02*
X103827889Y-56100000D01*
%TO.N,SPIx_MISO*%
X104089771Y-56997600D02*
X103792171Y-56700000D01*
X95700000Y-59574220D02*
X97222359Y-61096579D01*
X97500000Y-56700000D02*
X95700000Y-58500000D01*
X104800000Y-56997600D02*
X104089771Y-56997600D01*
X95700000Y-58500000D02*
X95700000Y-59574220D01*
X103792171Y-56700000D02*
X97500000Y-56700000D01*
%TO.N,A1_INL*%
X109700000Y-54200000D02*
X111253000Y-55753000D01*
X94500000Y-62616860D02*
X94500000Y-57900000D01*
X98200000Y-54200000D02*
X109700000Y-54200000D01*
X94500000Y-57900000D02*
X98200000Y-54200000D01*
X95101039Y-63217899D02*
X94500000Y-62616860D01*
X111253000Y-55753000D02*
X113588800Y-55753000D01*
X117379700Y-56851500D02*
X117373400Y-56845200D01*
X117901400Y-56851500D02*
X117379700Y-56851500D01*
%TO.N,B1_INL*%
X118401400Y-57498600D02*
X118401400Y-56851500D01*
X115595400Y-57800000D02*
X118100000Y-57800000D01*
X118100000Y-57800000D02*
X118401400Y-57498600D01*
X113599200Y-57800000D02*
X111199200Y-60200000D01*
X105083940Y-60200000D02*
X103126701Y-62157239D01*
X113600000Y-57800000D02*
X113599200Y-57800000D01*
X111199200Y-60200000D02*
X105083940Y-60200000D01*
%TO.N,C1_INL*%
X104540914Y-63559086D02*
X104540914Y-63571452D01*
X118901400Y-56851500D02*
X118901400Y-57698600D01*
X106700000Y-61400000D02*
X104540914Y-63559086D01*
X118901400Y-57698600D02*
X115200000Y-61400000D01*
X115200000Y-61400000D02*
X106700000Y-61400000D01*
%TO.N,A1*%
X113004600Y-53670200D02*
X113004600Y-53037200D01*
X133273400Y-48920000D02*
X131749800Y-47396400D01*
X115214402Y-51805800D02*
X116830701Y-51805800D01*
X115200000Y-51791397D02*
X115214403Y-51805800D01*
X116830701Y-51805800D02*
X117901400Y-52876499D01*
X115200000Y-50550000D02*
X115200000Y-51791397D01*
X134800000Y-48920000D02*
X133273400Y-48920000D01*
%TO.N,/GLA1*%
X122714000Y-54114000D02*
X121138900Y-54114000D01*
X123977400Y-55377400D02*
X122714000Y-54114000D01*
X123977400Y-56665400D02*
X123977400Y-55377400D01*
%TO.N,A1_INH*%
X93900000Y-57540176D02*
X93970088Y-57470088D01*
X94711450Y-63571452D02*
X93900000Y-62760002D01*
X94747486Y-63571452D02*
X94711450Y-63571452D01*
X117163900Y-55114000D02*
X111614000Y-55114000D01*
X111614000Y-55114000D02*
X110000000Y-53500000D01*
X110000000Y-53500000D02*
X97940176Y-53500000D01*
X97940176Y-53500000D02*
X93970088Y-57470088D01*
X93900000Y-62760002D02*
X93900000Y-57540176D01*
%TO.N,B1_INH*%
X102773148Y-61767650D02*
X104940798Y-59600000D01*
X114786000Y-55614000D02*
X117163900Y-55614000D01*
X110800000Y-59600000D02*
X114786000Y-55614000D01*
X102773148Y-61803686D02*
X102773148Y-61767650D01*
X104940798Y-59600000D02*
X110800000Y-59600000D01*
%TO.N,C1_INH*%
X116186000Y-56114000D02*
X111500000Y-60800000D01*
X117163900Y-56114000D02*
X116186000Y-56114000D01*
X106605260Y-60800000D02*
X104187361Y-63217899D01*
X111500000Y-60800000D02*
X106605260Y-60800000D01*
%TO.N,/GHA1*%
X122986800Y-52044600D02*
X124053600Y-53111400D01*
X117163900Y-53092300D02*
X117163900Y-53614000D01*
X117170200Y-53086000D02*
X117163900Y-53092300D01*
X124053600Y-53111400D02*
X124053600Y-53363400D01*
%TO.N,/BSTA1*%
X116572601Y-54113998D02*
X116164403Y-53705800D01*
X117163901Y-54114000D02*
X116572601Y-54113998D01*
X116164403Y-53705800D02*
X115214402Y-53705800D01*
%TO.N,IR_top*%
X98283019Y-76183019D02*
X98283019Y-73364881D01*
X98300000Y-76200000D02*
X98283019Y-76183019D01*
%TO.N,IR_bottom*%
X102160999Y-73811521D02*
X102159127Y-73811521D01*
X102159127Y-73811521D02*
X101358934Y-73011328D01*
X101000000Y-80350000D02*
X101000000Y-84400000D01*
X101000000Y-84400000D02*
X102550000Y-85950000D01*
X104400000Y-76950000D02*
X101000000Y-80350000D01*
%TO.N,/GHA1'*%
X124764800Y-55092600D02*
X124762800Y-55092600D01*
X133370000Y-53480000D02*
X134800000Y-53480000D01*
X131750000Y-55100000D02*
X133370000Y-53480000D01*
X124762800Y-55092600D02*
X124053600Y-54383400D01*
%TO.N,/GHC1'*%
X133045200Y-79195200D02*
X133045200Y-84025200D01*
X131650000Y-77800000D02*
X133045200Y-79195200D01*
X124917200Y-77038200D02*
X124157200Y-77038200D01*
X133045200Y-84025200D02*
X134800000Y-85780000D01*
%TO.N,C1*%
X123200204Y-50699796D02*
X123200204Y-50596800D01*
X121138902Y-53105098D02*
X121138902Y-52761098D01*
X121138902Y-52761098D02*
X123200204Y-50699796D01*
X134800000Y-81053600D02*
X133680200Y-79933800D01*
X134800000Y-81220000D02*
X134800000Y-81053600D01*
X123200204Y-50596800D02*
X123200204Y-48852403D01*
X121138902Y-53613998D02*
X121138900Y-53614000D01*
X121138902Y-53105098D02*
X121138902Y-53613998D01*
X123200204Y-48852403D02*
X123192000Y-48844199D01*
%TO.N,/GLC1'*%
X131650000Y-78850000D02*
X132257800Y-79457800D01*
X124157200Y-78765400D02*
X124510800Y-78765400D01*
X132257800Y-85977800D02*
X134800000Y-88520000D01*
X124510800Y-78765400D02*
X124891800Y-78384400D01*
X132257800Y-79457800D02*
X132257800Y-85977800D01*
%TO.N,/GHA2'*%
X78968600Y-57683400D02*
X77505200Y-56220000D01*
X87325200Y-63449200D02*
X88031376Y-64155376D01*
X80289400Y-63449200D02*
X78968600Y-62128400D01*
X78968600Y-62128400D02*
X78968600Y-57683400D01*
X77505200Y-56220000D02*
X77200000Y-56220000D01*
%TO.N,A2*%
X80289400Y-64262000D02*
X79962000Y-64262000D01*
X93600118Y-82485151D02*
X93043458Y-81928491D01*
X96875600Y-82473800D02*
X96875600Y-83169648D01*
X77200000Y-61500000D02*
X77200000Y-60780000D01*
X96921751Y-82371751D02*
X96808351Y-82485151D01*
X96875600Y-83169648D02*
X97683376Y-83977424D01*
X79962000Y-64262000D02*
X77200000Y-61500000D01*
X96808351Y-82485151D02*
X93600118Y-82485151D01*
%TO.N,/GLA2'*%
X77200000Y-53480000D02*
X78016400Y-53480000D01*
X79552800Y-55016400D02*
X79552800Y-61849000D01*
X79552800Y-61849000D02*
X80314800Y-62611000D01*
X78016400Y-53480000D02*
X79552800Y-55016400D01*
X87325200Y-62636400D02*
X88468200Y-62636400D01*
X88468200Y-62636400D02*
X88640976Y-62809176D01*
%TO.N,/GHC2'*%
X79959200Y-86563200D02*
X78002400Y-88520000D01*
X78002400Y-88520000D02*
X77200000Y-88520000D01*
X87249000Y-86563200D02*
X88085200Y-86563200D01*
%TO.N,/GLC2'*%
X80289400Y-84937600D02*
X79629000Y-84937600D01*
X78786600Y-85780000D02*
X77200000Y-85780000D01*
X87249000Y-84937600D02*
X88136000Y-84937600D01*
X79629000Y-84937600D02*
X78786600Y-85780000D01*
X88136000Y-84937600D02*
X88138000Y-84939600D01*
%TO.N,/GHB1'*%
X124866400Y-73685400D02*
X124157200Y-73685400D01*
X131400000Y-73150000D02*
X131400000Y-71680000D01*
X131400000Y-71680000D02*
X133450000Y-69630000D01*
X133450000Y-69630000D02*
X134800000Y-69630000D01*
%TO.N,B1*%
X134800000Y-65070000D02*
X133726200Y-65070000D01*
X118948200Y-49448200D02*
X118569200Y-49069200D01*
X119382979Y-49913979D02*
X118948200Y-49479200D01*
X119401400Y-50615221D02*
X119382979Y-50596800D01*
X133726200Y-65070000D02*
X131749800Y-63093600D01*
X118948200Y-49479200D02*
X118948200Y-49448200D01*
X119382979Y-50596800D02*
X119382979Y-49913979D01*
X118569200Y-49069200D02*
X118569200Y-48844200D01*
X119401400Y-52876500D02*
X119401400Y-50615221D01*
%TO.N,/GLB1'*%
X124841000Y-71780400D02*
X124157200Y-71780400D01*
X131974500Y-72100000D02*
X132244500Y-72370000D01*
X132244500Y-72370000D02*
X134800000Y-72370000D01*
%TO.N,/GHB2'*%
X80095889Y-70322911D02*
X78048800Y-72370000D01*
X80095889Y-68325311D02*
X80095889Y-70322911D01*
X80400000Y-68021200D02*
X80095889Y-68325311D01*
X87249000Y-68021200D02*
X88263000Y-68021200D01*
X78048800Y-72370000D02*
X77200000Y-72370000D01*
%TO.N,/GLB2'*%
X79239400Y-69630000D02*
X77200000Y-69630000D01*
X87249000Y-69621400D02*
X88263000Y-69621400D01*
X79248000Y-69621400D02*
X79239400Y-69630000D01*
%TO.N,/GLC1*%
X121138900Y-55114000D02*
X121714000Y-55114000D01*
X122000000Y-55400000D02*
X122000000Y-57746500D01*
X122000000Y-57746500D02*
X120970900Y-58775600D01*
X122072400Y-77876400D02*
X122961400Y-78765400D01*
X121714000Y-55114000D02*
X122000000Y-55400000D01*
X122961400Y-78765400D02*
X123137200Y-78765400D01*
%TO.N,/GLB1*%
X123113800Y-70662800D02*
X123113800Y-71757000D01*
X122110000Y-54610000D02*
X121142900Y-54610000D01*
X123113800Y-71757000D02*
X123137200Y-71780400D01*
X123113800Y-55613800D02*
X122110000Y-54610000D01*
X123113800Y-58216800D02*
X123113800Y-55613800D01*
X121142900Y-54610000D02*
X121138900Y-54614000D01*
%TO.N,/GHC1*%
X122146600Y-76047600D02*
X123137200Y-77038200D01*
X120650000Y-52222400D02*
X120401400Y-52471000D01*
X122123200Y-76047600D02*
X122146600Y-76047600D01*
X120401400Y-52471000D02*
X120401400Y-52876500D01*
%TO.N,/BSTC1*%
X119901401Y-52876499D02*
X119901403Y-51995600D01*
X119901403Y-51995600D02*
X121300200Y-50596800D01*
%TO.N,/GHB1*%
X118901402Y-51932602D02*
X118901402Y-52876500D01*
X122478800Y-73025000D02*
X123137200Y-73683400D01*
X118599800Y-51631000D02*
X118901402Y-51932602D01*
X123137200Y-73683400D02*
X123137200Y-73685400D01*
%TO.N,/BSTB1*%
X118401402Y-52336000D02*
X117482979Y-51417577D01*
X117482979Y-51417577D02*
X117482982Y-50596800D01*
X118401400Y-52876499D02*
X118401402Y-52336000D01*
%TO.N,/GLC2*%
X88807647Y-83000000D02*
X88500000Y-83000000D01*
X89172049Y-82635598D02*
X88807647Y-83000000D01*
X88138000Y-83362000D02*
X88138000Y-83919600D01*
X88500000Y-83000000D02*
X88138000Y-83362000D01*
%TO.N,/GLB2*%
X88925400Y-83693000D02*
X88925400Y-83589353D01*
X88925400Y-83589353D02*
X89525602Y-82989151D01*
X88000000Y-71200000D02*
X89283000Y-69917000D01*
X89283000Y-69917000D02*
X89283000Y-69621400D01*
%TO.N,/GLA2*%
X90489711Y-64657911D02*
X89362224Y-63530424D01*
X89700000Y-84600000D02*
X89499911Y-84399911D01*
X88900000Y-71200000D02*
X90489711Y-69610289D01*
X89499911Y-83721949D02*
X89879155Y-83342705D01*
X89499911Y-84399911D02*
X89499911Y-83721949D01*
X90489711Y-69610289D02*
X90489711Y-64657911D01*
%TO.N,/GHC2*%
X91499280Y-83925308D02*
X91414600Y-83840628D01*
X91499280Y-84319520D02*
X91499280Y-83925308D01*
X89255600Y-86563200D02*
X91499280Y-84319520D01*
X89105200Y-86563200D02*
X89255600Y-86563200D01*
%TO.N,/BSTC2*%
X91998800Y-86159498D02*
X92238751Y-86399449D01*
X91629245Y-83342705D02*
X91629245Y-83348845D01*
X91629245Y-83348845D02*
X91998800Y-83718400D01*
X91998800Y-83718400D02*
X91998800Y-86159498D01*
%TO.N,/GHB2*%
X89865200Y-68630800D02*
X89865200Y-68603400D01*
X93500000Y-83800000D02*
X93500000Y-83799247D01*
X89865200Y-68603400D02*
X89283000Y-68021200D01*
X93500000Y-83799247D02*
X92336351Y-82635598D01*
%TO.N,/BSTB2*%
X95362951Y-84215049D02*
X95362951Y-84212351D01*
X94234000Y-83083400D02*
X93491260Y-83083400D01*
X95362951Y-84212351D02*
X94234000Y-83083400D01*
X93491260Y-83083400D02*
X92689905Y-82282045D01*
%TO.N,/GHA2*%
X93800000Y-81100000D02*
X93257949Y-81100000D01*
X89576000Y-65700000D02*
X88752624Y-64876624D01*
X93257949Y-81100000D02*
X93043458Y-80885509D01*
X89600000Y-65700000D02*
X89576000Y-65700000D01*
%TO.N,/BSTA2*%
X94774486Y-80224486D02*
X95578249Y-81028249D01*
X92689905Y-80531955D02*
X92997374Y-80224486D01*
X92997374Y-80224486D02*
X94774486Y-80224486D01*
%TO.N,C2*%
X90474800Y-87322502D02*
X90895249Y-87742951D01*
X77920000Y-93080000D02*
X77200000Y-93080000D01*
X90474800Y-86283800D02*
X90474800Y-87322502D01*
X90585051Y-84048600D02*
X90232709Y-83696258D01*
X90895249Y-87742951D02*
X90942951Y-87742951D01*
X80600000Y-87000000D02*
X79600000Y-88000000D01*
X91490400Y-88290400D02*
X93495400Y-88290400D01*
X90601800Y-84048600D02*
X90585051Y-84048600D01*
X79600000Y-88000000D02*
X79600000Y-91400000D01*
X79600000Y-91400000D02*
X77920000Y-93080000D01*
X80600000Y-85725000D02*
X80600000Y-87000000D01*
X90942951Y-87742951D02*
X91490400Y-88290400D01*
%TO.N,B2*%
X94019449Y-85558551D02*
X94058551Y-85558551D01*
X95266400Y-86766400D02*
X95783400Y-86766400D01*
X80670400Y-70629600D02*
X79300000Y-72000000D01*
X94058551Y-85558551D02*
X95266400Y-86766400D01*
X92700000Y-84200000D02*
X92700000Y-84239102D01*
X79300000Y-74830000D02*
X77200000Y-76930000D01*
X92700000Y-84200000D02*
X92700000Y-83706353D01*
X79300000Y-72000000D02*
X79300000Y-74830000D01*
X80670400Y-68808600D02*
X80670400Y-70629600D01*
X92700000Y-84239102D02*
X94019449Y-85558551D01*
X92700000Y-83706353D02*
X91982798Y-82989151D01*
%TO.N,A2_INL*%
X102797114Y-71597114D02*
X103700000Y-72500000D01*
X102773148Y-71597114D02*
X102797114Y-71597114D01*
X95700000Y-77600000D02*
X91000000Y-77600000D01*
X103700000Y-74800000D02*
X103700000Y-72800000D01*
X99400000Y-79100000D02*
X103700000Y-74800000D01*
X103700000Y-72500000D02*
X103700000Y-72800000D01*
X90232709Y-78367291D02*
X90232709Y-79117742D01*
X103700000Y-72800000D02*
X103700000Y-72600000D01*
X97200000Y-79100000D02*
X99400000Y-79100000D01*
X91000000Y-77600000D02*
X90232709Y-78367291D01*
%TO.N,B2_INL*%
X89879155Y-79471295D02*
X89879155Y-79471974D01*
X90520291Y-77086137D02*
X94637456Y-77086137D01*
X96834182Y-73434182D02*
X97575913Y-72692451D01*
X97575913Y-72692451D02*
X97575913Y-72657775D01*
X94637456Y-77086137D02*
X96834182Y-74889411D01*
X89521006Y-78085422D02*
X90520291Y-77086137D01*
X89879155Y-79471974D02*
X89521006Y-79113825D01*
X89521006Y-79113825D02*
X89521006Y-78085422D01*
X96834182Y-74889411D02*
X96834182Y-73434182D01*
%TO.N,C2_INL*%
X88800000Y-79099247D02*
X88800000Y-77900000D01*
X93213169Y-76586617D02*
X93449893Y-76349893D01*
X95061820Y-65300000D02*
X94040379Y-64278559D01*
X89525602Y-79824849D02*
X88800000Y-79099247D01*
X95200000Y-65300000D02*
X95061820Y-65300000D01*
X88800000Y-77900000D02*
X90113383Y-76586617D01*
X90113383Y-76586617D02*
X93213169Y-76586617D01*
%TO.N,A2_INH*%
X106500000Y-74400000D02*
X106500000Y-72900000D01*
X106500000Y-72900000D02*
X106200000Y-72600000D01*
X96650000Y-79400000D02*
X97250000Y-80000000D01*
X105200000Y-75700000D02*
X106500000Y-74400000D01*
X92407647Y-79400000D02*
X96650000Y-79400000D01*
X106200000Y-71488434D02*
X104540914Y-69829348D01*
X91982798Y-79824849D02*
X92407647Y-79400000D01*
X97250000Y-80000000D02*
X100300000Y-80000000D01*
X106200000Y-72600000D02*
X106200000Y-71488434D01*
X100300000Y-80000000D02*
X104600000Y-75700000D01*
X104600000Y-75700000D02*
X105200000Y-75700000D01*
%TO.N,B2_INH*%
X91629924Y-79471295D02*
X91629245Y-79471295D01*
X92200740Y-78900480D02*
X91629924Y-79471295D01*
X97333702Y-77466298D02*
X95899520Y-78900480D01*
X95899520Y-78900480D02*
X92200740Y-78900480D01*
X97929466Y-73011328D02*
X97333702Y-73607092D01*
X97333702Y-73607092D02*
X97333702Y-77466298D01*
%TO.N,C2_INH*%
X92952441Y-78323540D02*
X93000000Y-78275981D01*
X92069893Y-78323540D02*
X91275691Y-79117742D01*
X95254712Y-66200000D02*
X93686825Y-64632113D01*
X92069893Y-78323540D02*
X92952441Y-78323540D01*
X95300000Y-66200000D02*
X95254712Y-66200000D01*
%TO.N,/GLA1'*%
X133336600Y-57683400D02*
X134800000Y-56220000D01*
X124839000Y-57685400D02*
X123977400Y-57685400D01*
X131699000Y-57683400D02*
X133336600Y-57683400D01*
X124841000Y-57683400D02*
X124839000Y-57685400D01*
%TO.N,M2_COM*%
X99000000Y-82000000D02*
X98992600Y-82000000D01*
X97109600Y-88290400D02*
X98900000Y-86500000D01*
X103000000Y-74400000D02*
X103000000Y-73238180D01*
X99000000Y-78400000D02*
X103000000Y-74400000D01*
X98900000Y-86500000D02*
X98900000Y-85478752D01*
X96928400Y-88290400D02*
X97109600Y-88290400D01*
X98589624Y-85110376D02*
X98531624Y-85110376D01*
X98992600Y-82000000D02*
X98531624Y-81539024D01*
X99140418Y-82140418D02*
X99140418Y-84559582D01*
X98900000Y-85478752D02*
X98531624Y-85110376D01*
X99000000Y-82000000D02*
X99140418Y-82140418D01*
X99140418Y-84559582D02*
X98589624Y-85110376D01*
X103000000Y-73238180D02*
X102066041Y-72304221D01*
%TO.N,M1_COM*%
X112947329Y-49807400D02*
X112236141Y-50518588D01*
X115187000Y-48513000D02*
X115187000Y-48844200D01*
X115600000Y-48100000D02*
X115187000Y-48513000D01*
X119100000Y-48100000D02*
X115600000Y-48100000D01*
X119844200Y-48844200D02*
X119100000Y-48100000D01*
X119962200Y-48844200D02*
X119844200Y-48844200D01*
X101600000Y-71100000D02*
X102419594Y-71919594D01*
X103301800Y-67716400D02*
X101600000Y-69418200D01*
X101600000Y-69418200D02*
X101600000Y-71100000D01*
X115187000Y-48844200D02*
X113942400Y-48844200D01*
X113942400Y-48844200D02*
X112979200Y-49807400D01*
X112979200Y-49807400D02*
X112947329Y-49807400D01*
X102419594Y-71919594D02*
X102419594Y-71950668D01*
%TO.N,A1_Vsense*%
X109650000Y-49350000D02*
X108980000Y-49350000D01*
X112979200Y-51420800D02*
X112979200Y-51991800D01*
X112979200Y-51991800D02*
X113004600Y-52017200D01*
X107200000Y-62400000D02*
X107200000Y-63740794D01*
X110550000Y-50250000D02*
X109650000Y-49350000D01*
X112979200Y-50827400D02*
X112979200Y-51420800D01*
X107200000Y-63740794D02*
X105955128Y-64985666D01*
X110550000Y-51850000D02*
X110550000Y-50250000D01*
X110974511Y-52274511D02*
X110550000Y-51850000D01*
X112579200Y-51420800D02*
X111725489Y-52274511D01*
X112979200Y-51420800D02*
X112579200Y-51420800D01*
X111725489Y-52274511D02*
X110974511Y-52274511D01*
%TO.N,B1_Vsense*%
X114800000Y-49900000D02*
X115300000Y-49900000D01*
X108980000Y-51230000D02*
X108980000Y-51200000D01*
X105601575Y-68768687D02*
X104600000Y-67767112D01*
X104600000Y-67767112D02*
X104600000Y-67700000D01*
X112250000Y-54500000D02*
X108980000Y-51230000D01*
X113900000Y-54500000D02*
X112250000Y-54500000D01*
X113900000Y-50800000D02*
X114800000Y-49900000D01*
X117549200Y-48844200D02*
X116207000Y-48844200D01*
X116207000Y-48993000D02*
X116207000Y-48844200D01*
X113900000Y-54500000D02*
X113900000Y-50800000D01*
X115300000Y-49900000D02*
X116207000Y-48993000D01*
%TO.N,C1_Vsense*%
X106375200Y-63858488D02*
X106375200Y-63195200D01*
X111300000Y-51700000D02*
X111300000Y-50200000D01*
X120982200Y-48282200D02*
X120982200Y-48844200D01*
X111300000Y-50200000D02*
X114000000Y-47500000D01*
X122172000Y-48844199D02*
X120982200Y-48844200D01*
X114000000Y-47500000D02*
X114450000Y-47500000D01*
X106375200Y-63858488D02*
X105601575Y-64632113D01*
X120200000Y-47500000D02*
X120982200Y-48282200D01*
X108980000Y-47500000D02*
X114450000Y-47500000D01*
X114450000Y-47500000D02*
X120200000Y-47500000D01*
%TO.N,A2_Vsense*%
X98404624Y-82354624D02*
X97728377Y-81678377D01*
X94970600Y-72110600D02*
X94970600Y-71727554D01*
X98404624Y-83256176D02*
X98404624Y-82354624D01*
X100100000Y-81100000D02*
X100100000Y-81770000D01*
X97828152Y-80800000D02*
X99800000Y-80800000D01*
X97728377Y-80899775D02*
X97810376Y-80817776D01*
X96300000Y-80000000D02*
X96800000Y-80500000D01*
X99800000Y-80800000D02*
X100100000Y-81100000D01*
X97492600Y-80500000D02*
X97810376Y-80817776D01*
X94970600Y-71727554D02*
X95808146Y-70890008D01*
X96800000Y-80500000D02*
X97492600Y-80500000D01*
X97728377Y-81678377D02*
X97728377Y-80899775D01*
X97810376Y-80817776D02*
X97828152Y-80800000D01*
%TO.N,B2_Vsense*%
X98200000Y-78000000D02*
X101600000Y-74600000D01*
X96803400Y-85982222D02*
X96360589Y-85539411D01*
X101600000Y-73959500D02*
X101005381Y-73364881D01*
X96803400Y-86766400D02*
X96875600Y-86766400D01*
X101600000Y-74600000D02*
X101600000Y-73959500D01*
X96803400Y-86766400D02*
X96803400Y-85982222D01*
X96875600Y-86766400D02*
X97810376Y-85831624D01*
%TO.N,C2_Vsense*%
X104187361Y-70187361D02*
X104187361Y-70182901D01*
X95199200Y-88699200D02*
X95500000Y-89000000D01*
X105805911Y-74194089D02*
X105805911Y-73045718D01*
X105655920Y-72895727D02*
X105655920Y-71655920D01*
X104253839Y-75100000D02*
X104900000Y-75100000D01*
X98050000Y-89000000D02*
X98370000Y-88680000D01*
X95500000Y-89000000D02*
X98050000Y-89000000D01*
X105655920Y-71655920D02*
X104187361Y-70187361D01*
X94515400Y-88290400D02*
X95908400Y-88290400D01*
X105805911Y-73045718D02*
X105655920Y-72895727D01*
X95199200Y-88290400D02*
X95199200Y-88699200D01*
X98370000Y-88680000D02*
X98370000Y-88300000D01*
X104900000Y-75100000D02*
X105805911Y-74194089D01*
X100153839Y-79200000D02*
X104253839Y-75100000D01*
%TO.N,/OSC_in*%
X91254942Y-73737223D02*
X90759967Y-73242248D01*
X93172563Y-70300000D02*
X93566894Y-70300000D01*
X90759967Y-73242248D02*
X90759967Y-72712596D01*
X90700000Y-72659022D02*
X90272065Y-72231087D01*
X93566894Y-70300000D02*
X93733447Y-70133447D01*
X93733447Y-70133447D02*
X93736279Y-70133447D01*
X93736279Y-70133447D02*
X94393932Y-69475794D01*
X90759967Y-72712596D02*
X93172563Y-70300000D01*
X91254942Y-73737223D02*
X90700000Y-73182281D01*
X90700000Y-73182281D02*
X90700000Y-72659022D01*
%TO.N,/OSC_out*%
X94100000Y-74003435D02*
X94100000Y-70476834D01*
X94012658Y-74090777D02*
X94100000Y-74178119D01*
X94012658Y-74090777D02*
X94100000Y-74003435D01*
X94100000Y-74178119D02*
X94100000Y-76059022D01*
X94100000Y-76059022D02*
X94316715Y-76275737D01*
X94100000Y-70476834D02*
X94747486Y-69829348D01*
%TO.N,/PWR_LED*%
X108682582Y-73640085D02*
X107477815Y-72435318D01*
X108895282Y-73640085D02*
X108682582Y-73640085D01*
%TO.N,VDC_sense*%
X105802074Y-70383400D02*
X104894468Y-69475794D01*
X106349800Y-70383400D02*
X105802074Y-70383400D01*
X116845921Y-73845921D02*
X119790000Y-76790000D01*
X119790000Y-78500000D02*
X119790000Y-80000000D01*
X111963200Y-73431400D02*
X112377721Y-73845921D01*
X119790000Y-76790000D02*
X119790000Y-78500000D01*
X112377721Y-73845921D02*
X116845921Y-73845921D01*
%TO.N,Heading_Red*%
X105181411Y-72581411D02*
X103490008Y-70890008D01*
X109700000Y-77290000D02*
X108790000Y-77290000D01*
X108790000Y-77290000D02*
X106700000Y-75200000D01*
X103490008Y-70890008D02*
X103480254Y-70890008D01*
X105181411Y-73600000D02*
X105181411Y-72581411D01*
%TO.N,Heading_Green*%
X107690000Y-77290000D02*
X106150000Y-75750000D01*
X107700000Y-77290000D02*
X107690000Y-77290000D01*
X104604252Y-72721112D02*
X103126701Y-71243561D01*
X104604252Y-74204252D02*
X104604252Y-72721112D01*
%TO.N,+5V*%
X118200000Y-89250000D02*
X119450000Y-88000000D01*
X105550000Y-87950000D02*
X106850000Y-89250000D01*
D63*
X122220000Y-85579400D02*
X122199400Y-85600000D01*
D59*
X117550000Y-89250000D02*
X118200000Y-89250000D01*
X106850000Y-89250000D02*
X117550000Y-89250000D01*
D63*
X122220000Y-80800000D02*
X122220000Y-85579400D01*
D59*
%TO.N,PPM*%
X104421446Y-61569600D02*
X104851200Y-61569600D01*
X103480254Y-62510792D02*
X104421446Y-61569600D01*
%TO.N,PWM2*%
X102419594Y-61450132D02*
X101600000Y-62269726D01*
X101600000Y-62269726D02*
X101600000Y-66979800D01*
X101600000Y-66979800D02*
X102285800Y-67665600D01*
%TO.N,PWM3*%
X101500000Y-68400000D02*
X100863400Y-67763400D01*
X100863400Y-62299220D02*
X102066041Y-61096579D01*
X100863400Y-67763400D02*
X100863400Y-62299220D01*
%TO.N,Net-(J13-Pad2)*%
X105610000Y-86010000D02*
X105550000Y-86010000D01*
X107550000Y-87950000D02*
X105610000Y-86010000D01*
%TO.N,Net-(J13-Pad3)*%
X107610000Y-86010000D02*
X107550000Y-86010000D01*
X109550000Y-87950000D02*
X107610000Y-86010000D01*
%TO.N,Net-(J13-Pad4)*%
X109610000Y-86010000D02*
X109550000Y-86010000D01*
X111550000Y-87950000D02*
X109610000Y-86010000D01*
%TO.N,Net-(J13-Pad5)*%
X113550000Y-87950000D02*
X111610000Y-86010000D01*
X111610000Y-86010000D02*
X111550000Y-86010000D01*
%TO.N,Net-(J13-Pad6)*%
X115550000Y-87950000D02*
X113610000Y-86010000D01*
X113610000Y-86010000D02*
X113550000Y-86010000D01*
%TO.N,Net-(J13-Pad7)*%
X117550000Y-87950000D02*
X115610000Y-86010000D01*
X115610000Y-86010000D02*
X115550000Y-86010000D01*
%TO.N,Net-(Q3-Pad2)*%
X109700000Y-80714022D02*
X109700000Y-78310000D01*
X111390000Y-81750000D02*
X110735978Y-81750000D01*
X110735978Y-81750000D02*
X109700000Y-80714022D01*
%TO.N,Net-(Q3-Pad3)*%
X113550000Y-84650000D02*
X111920000Y-83020000D01*
X111550000Y-84990000D02*
X113550000Y-84990000D01*
X115550000Y-84990000D02*
X113550000Y-84990000D01*
X113550000Y-84990000D02*
X113550000Y-84650000D01*
X111920000Y-83020000D02*
X111390000Y-83020000D01*
%TO.N,Net-(Q4-Pad3)*%
X107550000Y-84990000D02*
X107550000Y-84190000D01*
X109550000Y-84990000D02*
X107550000Y-84990000D01*
X105550000Y-84990000D02*
X107550000Y-84990000D01*
X107550000Y-84190000D02*
X106400000Y-83040000D01*
%TO.N,Net-(Q4-Pad2)*%
X107700000Y-81124022D02*
X107700000Y-78310000D01*
X107054022Y-81770000D02*
X107700000Y-81124022D01*
X106400000Y-81770000D02*
X107054022Y-81770000D01*
%TD*%
%TA.AperFunction,Conductor*%
%TO.N,B2*%
G36*
X73874627Y-63859027D02*
G01*
X74367773Y-64352173D01*
X74371200Y-64360446D01*
X74371200Y-73964800D01*
X74833234Y-74160385D01*
X78047687Y-75521105D01*
X78052903Y-75525452D01*
X78505775Y-76214421D01*
X78507698Y-76220934D01*
X78489711Y-78666986D01*
X78486245Y-78675212D01*
X77989431Y-79167382D01*
X77981173Y-79170770D01*
X72302528Y-79159181D01*
X66544826Y-79147430D01*
X66536583Y-79144008D01*
X66203932Y-78811784D01*
X66200500Y-78803506D01*
X66200500Y-64159946D01*
X66203927Y-64151673D01*
X66496573Y-63859027D01*
X66504846Y-63855600D01*
X73866354Y-63855600D01*
X73874627Y-63859027D01*
G37*
%TD.AperFunction*%
%TD*%
%TA.AperFunction,Conductor*%
%TO.N,GND*%
G36*
X133675903Y-82530112D02*
G01*
X133693012Y-82548256D01*
X133718321Y-82581188D01*
X133722612Y-82585471D01*
X133725835Y-82587939D01*
X133725840Y-82587943D01*
X133782773Y-82631533D01*
X133782777Y-82631536D01*
X133785997Y-82634001D01*
X137325773Y-84672054D01*
X137374048Y-84722562D01*
X137387900Y-84779514D01*
X137387900Y-93779954D01*
X137411157Y-93896870D01*
X137414584Y-93905143D01*
X137480806Y-94004248D01*
X137631681Y-94155123D01*
X137665166Y-94216446D01*
X137668000Y-94242804D01*
X137668000Y-94935238D01*
X137648315Y-95002277D01*
X137631681Y-95022919D01*
X136991419Y-95663181D01*
X136930096Y-95696666D01*
X136903738Y-95699500D01*
X132514062Y-95699500D01*
X132447023Y-95679815D01*
X132426381Y-95663181D01*
X131786119Y-95022919D01*
X131752634Y-94961596D01*
X131749800Y-94935238D01*
X131749800Y-86787334D01*
X131769485Y-86720295D01*
X131823464Y-86674010D01*
X131862691Y-86656586D01*
X131873153Y-86651939D01*
X131952241Y-86572713D01*
X131970663Y-86531044D01*
X132015775Y-86477689D01*
X132082571Y-86457193D01*
X132149844Y-86476064D01*
X132171755Y-86493503D01*
X133380854Y-87702602D01*
X133414339Y-87763925D01*
X133409355Y-87833617D01*
X133406583Y-87840423D01*
X133406264Y-87841144D01*
X133406263Y-87841148D01*
X133402494Y-87849673D01*
X133399500Y-87875354D01*
X133399500Y-89164646D01*
X133402618Y-89190846D01*
X133448061Y-89293153D01*
X133527287Y-89372241D01*
X133537758Y-89376870D01*
X133537759Y-89376871D01*
X133621147Y-89413737D01*
X133621149Y-89413738D01*
X133629673Y-89417506D01*
X133655354Y-89420500D01*
X135944646Y-89420500D01*
X135948300Y-89420065D01*
X135948302Y-89420065D01*
X135953266Y-89419474D01*
X135970846Y-89417382D01*
X136073153Y-89371939D01*
X136152241Y-89292713D01*
X136197506Y-89190327D01*
X136200500Y-89164646D01*
X136200500Y-87875354D01*
X136197382Y-87849154D01*
X136151939Y-87746847D01*
X136072713Y-87667759D01*
X136062242Y-87663130D01*
X136062241Y-87663129D01*
X135978853Y-87626263D01*
X135978851Y-87626262D01*
X135970327Y-87622494D01*
X135944646Y-87619500D01*
X134552610Y-87619500D01*
X134485571Y-87599815D01*
X134464929Y-87583181D01*
X133773929Y-86892181D01*
X133740444Y-86830858D01*
X133745428Y-86761166D01*
X133787300Y-86705233D01*
X133852764Y-86680816D01*
X133861610Y-86680500D01*
X135944646Y-86680500D01*
X135948300Y-86680065D01*
X135948302Y-86680065D01*
X135953266Y-86679474D01*
X135970846Y-86677382D01*
X136073153Y-86631939D01*
X136152241Y-86552713D01*
X136178418Y-86493503D01*
X136193737Y-86458853D01*
X136193738Y-86458851D01*
X136197506Y-86450327D01*
X136200500Y-86424646D01*
X136200500Y-85135354D01*
X136197382Y-85109154D01*
X136151939Y-85006847D01*
X136072713Y-84927759D01*
X136062242Y-84923130D01*
X136062241Y-84923129D01*
X135978853Y-84886263D01*
X135978851Y-84886262D01*
X135970327Y-84882494D01*
X135944646Y-84879500D01*
X134552610Y-84879500D01*
X134485571Y-84859815D01*
X134464929Y-84843181D01*
X133507019Y-83885271D01*
X133473534Y-83823948D01*
X133470700Y-83797590D01*
X133470700Y-82623825D01*
X133490385Y-82556786D01*
X133543189Y-82511031D01*
X133612347Y-82501087D01*
X133675903Y-82530112D01*
G37*
%TD.AperFunction*%
%TA.AperFunction,Conductor*%
G36*
X131955003Y-63900997D02*
G01*
X131961481Y-63907029D01*
X133160581Y-65106129D01*
X133194066Y-65167452D01*
X133196900Y-65193810D01*
X133196900Y-65689136D01*
X133208121Y-65771174D01*
X133209809Y-65777229D01*
X133242675Y-65853284D01*
X133244851Y-65856882D01*
X133244852Y-65856884D01*
X133679927Y-66576299D01*
X133679931Y-66576305D01*
X133682109Y-66579906D01*
X133734187Y-66644319D01*
X133738765Y-66648626D01*
X133806223Y-66696677D01*
X133809953Y-66698633D01*
X137296087Y-68526729D01*
X137346317Y-68575296D01*
X137362500Y-68636546D01*
X137362500Y-77650954D01*
X137385757Y-77767870D01*
X137389184Y-77776143D01*
X137455406Y-77875248D01*
X137631681Y-78051523D01*
X137665166Y-78112846D01*
X137668000Y-78139204D01*
X137668000Y-79021700D01*
X137648315Y-79088739D01*
X137595511Y-79134494D01*
X137544000Y-79145700D01*
X134007246Y-79145700D01*
X134001270Y-79146889D01*
X134001267Y-79146889D01*
X133928428Y-79161379D01*
X133890330Y-79168957D01*
X133882057Y-79172384D01*
X133782952Y-79238606D01*
X133682381Y-79339177D01*
X133621058Y-79372662D01*
X133551366Y-79367678D01*
X133495433Y-79325806D01*
X133471016Y-79260342D01*
X133470700Y-79251496D01*
X133470700Y-79127807D01*
X133463237Y-79104836D01*
X133458697Y-79085926D01*
X133456446Y-79071713D01*
X133456445Y-79071711D01*
X133454919Y-79062074D01*
X133443957Y-79040559D01*
X133436513Y-79022588D01*
X133436225Y-79021700D01*
X133429050Y-78999619D01*
X133423315Y-78991725D01*
X133423313Y-78991722D01*
X133414855Y-78980082D01*
X133404690Y-78963495D01*
X133393728Y-78941980D01*
X132227964Y-77776216D01*
X132194479Y-77714893D01*
X132192706Y-77704721D01*
X132187391Y-77664352D01*
X132186330Y-77656291D01*
X132130861Y-77522375D01*
X132042621Y-77407379D01*
X131927625Y-77319139D01*
X131895583Y-77305867D01*
X131826348Y-77277189D01*
X131771944Y-77233348D01*
X131749800Y-77162628D01*
X131749800Y-73635304D01*
X131769485Y-73568265D01*
X131786121Y-73547620D01*
X131786170Y-73547571D01*
X131792621Y-73542621D01*
X131880861Y-73427625D01*
X131936330Y-73293709D01*
X131955250Y-73150000D01*
X131936330Y-73006291D01*
X131900928Y-72920821D01*
X131893459Y-72851351D01*
X131924735Y-72788872D01*
X131984824Y-72753221D01*
X132053809Y-72755439D01*
X132060946Y-72757758D01*
X132071890Y-72761314D01*
X132089859Y-72768757D01*
X132111374Y-72779719D01*
X132121011Y-72781245D01*
X132121013Y-72781246D01*
X132135226Y-72783497D01*
X132154136Y-72788037D01*
X132177107Y-72795500D01*
X133275500Y-72795500D01*
X133342539Y-72815185D01*
X133388294Y-72867989D01*
X133399500Y-72919500D01*
X133399500Y-73014646D01*
X133402618Y-73040846D01*
X133448061Y-73143153D01*
X133527287Y-73222241D01*
X133537758Y-73226870D01*
X133537759Y-73226871D01*
X133621147Y-73263737D01*
X133621149Y-73263738D01*
X133629673Y-73267506D01*
X133655354Y-73270500D01*
X135944646Y-73270500D01*
X135948300Y-73270065D01*
X135948302Y-73270065D01*
X135953266Y-73269474D01*
X135970846Y-73267382D01*
X136073153Y-73221939D01*
X136152241Y-73142713D01*
X136197506Y-73040327D01*
X136200500Y-73014646D01*
X136200500Y-71725354D01*
X136197382Y-71699154D01*
X136151939Y-71596847D01*
X136072713Y-71517759D01*
X136062242Y-71513130D01*
X136062241Y-71513129D01*
X135978853Y-71476263D01*
X135978851Y-71476262D01*
X135970327Y-71472494D01*
X135944646Y-71469500D01*
X133655354Y-71469500D01*
X133651700Y-71469935D01*
X133651698Y-71469935D01*
X133646734Y-71470526D01*
X133629154Y-71472618D01*
X133526847Y-71518061D01*
X133447759Y-71597287D01*
X133402494Y-71699673D01*
X133399500Y-71725354D01*
X133399500Y-71820500D01*
X133379815Y-71887539D01*
X133327011Y-71933294D01*
X133275500Y-71944500D01*
X132588800Y-71944500D01*
X132521761Y-71924815D01*
X132474240Y-71867953D01*
X132455361Y-71822375D01*
X132380914Y-71725354D01*
X132372065Y-71713822D01*
X132367121Y-71707379D01*
X132360678Y-71702435D01*
X132360675Y-71702432D01*
X132257068Y-71622932D01*
X132215865Y-71566504D01*
X132211710Y-71496758D01*
X132244873Y-71436875D01*
X133275649Y-70406099D01*
X133336972Y-70372614D01*
X133406664Y-70377598D01*
X133450935Y-70406022D01*
X133527287Y-70482241D01*
X133537758Y-70486870D01*
X133537759Y-70486871D01*
X133621147Y-70523737D01*
X133621149Y-70523738D01*
X133629673Y-70527506D01*
X133655354Y-70530500D01*
X135944646Y-70530500D01*
X135948300Y-70530065D01*
X135948302Y-70530065D01*
X135953266Y-70529474D01*
X135970846Y-70527382D01*
X136073153Y-70481939D01*
X136152241Y-70402713D01*
X136156871Y-70392241D01*
X136193737Y-70308853D01*
X136193738Y-70308851D01*
X136197506Y-70300327D01*
X136200500Y-70274646D01*
X136200500Y-68985354D01*
X136197382Y-68959154D01*
X136151939Y-68856847D01*
X136072713Y-68777759D01*
X136062242Y-68773130D01*
X136062241Y-68773129D01*
X135978853Y-68736263D01*
X135978851Y-68736262D01*
X135970327Y-68732494D01*
X135944646Y-68729500D01*
X133655354Y-68729500D01*
X133651700Y-68729935D01*
X133651698Y-68729935D01*
X133646734Y-68730526D01*
X133629154Y-68732618D01*
X133526847Y-68778061D01*
X133447759Y-68857287D01*
X133402494Y-68959673D01*
X133399500Y-68985354D01*
X133399500Y-69104948D01*
X133379815Y-69171987D01*
X133327011Y-69217742D01*
X133322971Y-69219315D01*
X133316874Y-69220281D01*
X133308178Y-69224712D01*
X133308177Y-69224712D01*
X133301540Y-69228094D01*
X133295359Y-69231243D01*
X133277389Y-69238687D01*
X133254419Y-69246150D01*
X133246525Y-69251885D01*
X133246522Y-69251887D01*
X133234882Y-69260345D01*
X133218295Y-69270510D01*
X133196780Y-69281472D01*
X132212181Y-70266071D01*
X132150858Y-70299556D01*
X132081166Y-70294572D01*
X132025233Y-70252700D01*
X132000816Y-70187236D01*
X132000500Y-70178390D01*
X132000500Y-64405354D01*
X131997382Y-64379154D01*
X131951939Y-64276847D01*
X131872713Y-64197759D01*
X131862242Y-64193130D01*
X131862241Y-64193129D01*
X131823661Y-64176073D01*
X131770306Y-64130962D01*
X131749800Y-64062662D01*
X131749800Y-63994710D01*
X131769485Y-63927671D01*
X131822289Y-63881916D01*
X131891447Y-63871972D01*
X131955003Y-63900997D01*
G37*
%TD.AperFunction*%
%TA.AperFunction,Conductor*%
G36*
X132205703Y-48454497D02*
G01*
X132212181Y-48460529D01*
X133020180Y-49268528D01*
X133041695Y-49279490D01*
X133058282Y-49289655D01*
X133069922Y-49298113D01*
X133069925Y-49298115D01*
X133077819Y-49303850D01*
X133093934Y-49309086D01*
X133151609Y-49348523D01*
X133178562Y-49410882D01*
X133181847Y-49435912D01*
X133183405Y-49441745D01*
X133213732Y-49515216D01*
X133642790Y-50261245D01*
X133691039Y-50324402D01*
X133695297Y-50328682D01*
X133698488Y-50331145D01*
X133698493Y-50331150D01*
X133755036Y-50374803D01*
X133755042Y-50374807D01*
X133758240Y-50377276D01*
X133761738Y-50379311D01*
X137080866Y-52310439D01*
X137300859Y-52438435D01*
X137348905Y-52489163D01*
X137362500Y-52545614D01*
X137362500Y-61521954D01*
X137385757Y-61638870D01*
X137389184Y-61647143D01*
X137455406Y-61746248D01*
X137631681Y-61922523D01*
X137665166Y-61983846D01*
X137668000Y-62010204D01*
X137668000Y-62511700D01*
X137648315Y-62578739D01*
X137595511Y-62624494D01*
X137544000Y-62635700D01*
X134007246Y-62635700D01*
X134001270Y-62636889D01*
X134001267Y-62636889D01*
X133928428Y-62651379D01*
X133890330Y-62658957D01*
X133882057Y-62662384D01*
X133782952Y-62728606D01*
X133289806Y-63221752D01*
X133223584Y-63320857D01*
X133220157Y-63329130D01*
X133196900Y-63446046D01*
X133196900Y-63639590D01*
X133177215Y-63706629D01*
X133124411Y-63752384D01*
X133055253Y-63762328D01*
X132991697Y-63733303D01*
X132985219Y-63727271D01*
X132327764Y-63069816D01*
X132294279Y-63008493D01*
X132292506Y-62998321D01*
X132287191Y-62957952D01*
X132286130Y-62949891D01*
X132230661Y-62815975D01*
X132142421Y-62700979D01*
X132027425Y-62612739D01*
X131945341Y-62578739D01*
X131901023Y-62560382D01*
X131901021Y-62560381D01*
X131893509Y-62557270D01*
X131885449Y-62556209D01*
X131885446Y-62556208D01*
X131857614Y-62552544D01*
X131793717Y-62524277D01*
X131755247Y-62465952D01*
X131749800Y-62429605D01*
X131749800Y-58338675D01*
X131769485Y-58271636D01*
X131822289Y-58225881D01*
X131837484Y-58220418D01*
X131842709Y-58219730D01*
X131976625Y-58164261D01*
X132015377Y-58134525D01*
X132080546Y-58109330D01*
X132090864Y-58108900D01*
X133403993Y-58108900D01*
X133426964Y-58101436D01*
X133445879Y-58096896D01*
X133460087Y-58094646D01*
X133460089Y-58094645D01*
X133469726Y-58093119D01*
X133491247Y-58082154D01*
X133509216Y-58074711D01*
X133522902Y-58070264D01*
X133532181Y-58067249D01*
X133540069Y-58061518D01*
X133540073Y-58061516D01*
X133551719Y-58053054D01*
X133568303Y-58042891D01*
X133589820Y-58031928D01*
X133685128Y-57936620D01*
X134464928Y-57156819D01*
X134526251Y-57123334D01*
X134552609Y-57120500D01*
X135944646Y-57120500D01*
X135948300Y-57120065D01*
X135948302Y-57120065D01*
X135953266Y-57119474D01*
X135970846Y-57117382D01*
X136073153Y-57071939D01*
X136152241Y-56992713D01*
X136156871Y-56982241D01*
X136193737Y-56898853D01*
X136193738Y-56898851D01*
X136197506Y-56890327D01*
X136200500Y-56864646D01*
X136200500Y-55575354D01*
X136197382Y-55549154D01*
X136151939Y-55446847D01*
X136072713Y-55367759D01*
X136062242Y-55363130D01*
X136062241Y-55363129D01*
X135978853Y-55326263D01*
X135978851Y-55326262D01*
X135970327Y-55322494D01*
X135944646Y-55319500D01*
X133655354Y-55319500D01*
X133651700Y-55319935D01*
X133651698Y-55319935D01*
X133646734Y-55320526D01*
X133629154Y-55322618D01*
X133526847Y-55368061D01*
X133447759Y-55447287D01*
X133443130Y-55457758D01*
X133443129Y-55457759D01*
X133427717Y-55492621D01*
X133402494Y-55549673D01*
X133399500Y-55575354D01*
X133399500Y-56864646D01*
X133402618Y-56890846D01*
X133406394Y-56899346D01*
X133406437Y-56899444D01*
X133406453Y-56899561D01*
X133408860Y-56908320D01*
X133407663Y-56908649D01*
X133415659Y-56968702D01*
X133385974Y-57031952D01*
X133380793Y-57037459D01*
X133196671Y-57221581D01*
X133135348Y-57255066D01*
X133108990Y-57257900D01*
X132090864Y-57257900D01*
X132023825Y-57238215D01*
X132015377Y-57232275D01*
X131976625Y-57202539D01*
X131842709Y-57147070D01*
X131839693Y-57146673D01*
X131782046Y-57111534D01*
X131751517Y-57048687D01*
X131749800Y-57028125D01*
X131749800Y-55764021D01*
X131769485Y-55696982D01*
X131822289Y-55651227D01*
X131857615Y-55641082D01*
X131885646Y-55637392D01*
X131885649Y-55637391D01*
X131893709Y-55636330D01*
X131901221Y-55633219D01*
X131901223Y-55633218D01*
X132020114Y-55583972D01*
X132020113Y-55583972D01*
X132027625Y-55580861D01*
X132142621Y-55492621D01*
X132230861Y-55377625D01*
X132286330Y-55243709D01*
X132292706Y-55195279D01*
X132320973Y-55131383D01*
X132327964Y-55123784D01*
X133243637Y-54208111D01*
X133304960Y-54174626D01*
X133374652Y-54179610D01*
X133430585Y-54221482D01*
X133440737Y-54238795D01*
X133443413Y-54242688D01*
X133448061Y-54253153D01*
X133527287Y-54332241D01*
X133537758Y-54336870D01*
X133537759Y-54336871D01*
X133621147Y-54373737D01*
X133621149Y-54373738D01*
X133629673Y-54377506D01*
X133655354Y-54380500D01*
X135944646Y-54380500D01*
X135948300Y-54380065D01*
X135948302Y-54380065D01*
X135953266Y-54379474D01*
X135970846Y-54377382D01*
X136073153Y-54331939D01*
X136152241Y-54252713D01*
X136158394Y-54238795D01*
X136193737Y-54158853D01*
X136193738Y-54158851D01*
X136197506Y-54150327D01*
X136200500Y-54124646D01*
X136200500Y-52835354D01*
X136197382Y-52809154D01*
X136151939Y-52706847D01*
X136072713Y-52627759D01*
X136062242Y-52623130D01*
X136062241Y-52623129D01*
X135978853Y-52586263D01*
X135978851Y-52586262D01*
X135970327Y-52582494D01*
X135944646Y-52579500D01*
X133655354Y-52579500D01*
X133651700Y-52579935D01*
X133651698Y-52579935D01*
X133646734Y-52580526D01*
X133629154Y-52582618D01*
X133526847Y-52628061D01*
X133447759Y-52707287D01*
X133402494Y-52809673D01*
X133399500Y-52835354D01*
X133399500Y-52934793D01*
X133379815Y-53001832D01*
X133327011Y-53047587D01*
X133304078Y-53054500D01*
X133302607Y-53054500D01*
X133279636Y-53061964D01*
X133260721Y-53066504D01*
X133246513Y-53068754D01*
X133246511Y-53068755D01*
X133236874Y-53070281D01*
X133215353Y-53081246D01*
X133197384Y-53088689D01*
X133174419Y-53096151D01*
X133166531Y-53101882D01*
X133166527Y-53101884D01*
X133154881Y-53110346D01*
X133138297Y-53120509D01*
X133116780Y-53131472D01*
X132212181Y-54036071D01*
X132150858Y-54069556D01*
X132081166Y-54064572D01*
X132025233Y-54022700D01*
X132000816Y-53957236D01*
X132000500Y-53948390D01*
X132000500Y-48548210D01*
X132020185Y-48481171D01*
X132072989Y-48435416D01*
X132142147Y-48425472D01*
X132205703Y-48454497D01*
G37*
%TD.AperFunction*%
%TD*%
%TA.AperFunction,Conductor*%
%TO.N,A1*%
G36*
X145502627Y-46917227D02*
G01*
X145796073Y-47210673D01*
X145799500Y-47218946D01*
X145799500Y-61721654D01*
X145796073Y-61729927D01*
X145502627Y-62023373D01*
X145494354Y-62026800D01*
X138172846Y-62026800D01*
X138164573Y-62023373D01*
X137671427Y-61530227D01*
X137668000Y-61521954D01*
X137668000Y-52298600D01*
X137235826Y-52047153D01*
X137234501Y-52046382D01*
X137234500Y-52046381D01*
X133911874Y-50113218D01*
X133907616Y-50108938D01*
X133478558Y-49362909D01*
X133477000Y-49357076D01*
X133477000Y-47418646D01*
X133480427Y-47410373D01*
X133973573Y-46917227D01*
X133981846Y-46913800D01*
X145494354Y-46913800D01*
X145502627Y-46917227D01*
G37*
%TD.AperFunction*%
%TD*%
%TA.AperFunction,Conductor*%
%TO.N,+BATT*%
G36*
X106597255Y-89598770D02*
G01*
X106618640Y-89609666D01*
X106634564Y-89619424D01*
X106646843Y-89628346D01*
X106646845Y-89628347D01*
X106654419Y-89633850D01*
X106663321Y-89636742D01*
X106663324Y-89636744D01*
X106677763Y-89641435D01*
X106695015Y-89648581D01*
X106716874Y-89659719D01*
X106726121Y-89661184D01*
X106726122Y-89661184D01*
X106741112Y-89663558D01*
X106759263Y-89667915D01*
X106782607Y-89675500D01*
X118267393Y-89675500D01*
X118276299Y-89672606D01*
X118276301Y-89672606D01*
X118290733Y-89667917D01*
X118308888Y-89663558D01*
X118310323Y-89663331D01*
X118333126Y-89659719D01*
X118354993Y-89648577D01*
X118372241Y-89641433D01*
X118395581Y-89633849D01*
X118415437Y-89619423D01*
X118431357Y-89609668D01*
X118452743Y-89598771D01*
X118506769Y-89585800D01*
X131444300Y-89585800D01*
X131444300Y-94935238D01*
X131446051Y-94967897D01*
X131448885Y-94994255D01*
X131450629Y-94999826D01*
X131450630Y-94999829D01*
X131462889Y-95038979D01*
X131484503Y-95108007D01*
X131517988Y-95169330D01*
X131520528Y-95172723D01*
X131562849Y-95229256D01*
X131570098Y-95238940D01*
X131706333Y-95375175D01*
X131738467Y-95434026D01*
X131733684Y-95500907D01*
X131706333Y-95543467D01*
X131585154Y-95664646D01*
X131526303Y-95696780D01*
X131501008Y-95699500D01*
X80512792Y-95699500D01*
X80448456Y-95680609D01*
X80428646Y-95664646D01*
X80314398Y-95550398D01*
X80282264Y-95491547D01*
X80287047Y-95424666D01*
X80314421Y-95382084D01*
X80443063Y-95253511D01*
X80443074Y-95253499D01*
X80444199Y-95252375D01*
X80466032Y-95228086D01*
X80467003Y-95226882D01*
X80467015Y-95226868D01*
X80478986Y-95212025D01*
X80478987Y-95212024D01*
X80482654Y-95207477D01*
X80537937Y-95101915D01*
X80541929Y-95088349D01*
X80556454Y-95038979D01*
X80556454Y-95038978D01*
X80557657Y-95034890D01*
X80567560Y-94966284D01*
X80569471Y-94953041D01*
X80569471Y-94953040D01*
X80570079Y-94948828D01*
X80570545Y-94094132D01*
X80557666Y-94006198D01*
X80537161Y-93937833D01*
X80512738Y-93879312D01*
X80507304Y-93872649D01*
X80507303Y-93872647D01*
X80445257Y-93796567D01*
X80441782Y-93792306D01*
X80428649Y-93781202D01*
X80391667Y-93749935D01*
X80391663Y-93749932D01*
X80388428Y-93747197D01*
X80360882Y-93729963D01*
X80316362Y-93679827D01*
X80305000Y-93629082D01*
X80305000Y-91901610D01*
X80304805Y-91890704D01*
X80304489Y-91881858D01*
X80285422Y-91786002D01*
X80271503Y-91748684D01*
X80264000Y-91707097D01*
X80264000Y-90135092D01*
X80282891Y-90070756D01*
X80298854Y-90050946D01*
X80729146Y-89620654D01*
X80787997Y-89588520D01*
X80813292Y-89585800D01*
X106543231Y-89585800D01*
X106597255Y-89598770D01*
G37*
%TD.AperFunction*%
%TD*%
%TA.AperFunction,Conductor*%
%TO.N,A2*%
G36*
X73874627Y-47704627D02*
G01*
X74367773Y-48197773D01*
X74371200Y-48206046D01*
X74371200Y-57581800D01*
X76441300Y-58559700D01*
X78056216Y-59322575D01*
X78061123Y-59326926D01*
X78506011Y-60034694D01*
X78507805Y-60041004D01*
X78489605Y-62588791D01*
X78486149Y-62597010D01*
X77989421Y-63090203D01*
X77981177Y-63093600D01*
X66504846Y-63093600D01*
X66496573Y-63090173D01*
X66203927Y-62797527D01*
X66200500Y-62789254D01*
X66200500Y-48005546D01*
X66203927Y-47997273D01*
X66496573Y-47704627D01*
X66504846Y-47701200D01*
X73866354Y-47701200D01*
X73874627Y-47704627D01*
G37*
%TD.AperFunction*%
%TD*%
%TA.AperFunction,Conductor*%
%TO.N,B1*%
G36*
X145763026Y-62944620D02*
G01*
X145796066Y-62977606D01*
X145799500Y-62985886D01*
X145799500Y-77851454D01*
X145796073Y-77859727D01*
X145503427Y-78152373D01*
X145495154Y-78155800D01*
X138172846Y-78155800D01*
X138164573Y-78152373D01*
X137671427Y-77659227D01*
X137668000Y-77650954D01*
X137668000Y-68376800D01*
X135892815Y-67445910D01*
X133948100Y-66426120D01*
X133943522Y-66421813D01*
X133504088Y-65695191D01*
X133502400Y-65689136D01*
X133502400Y-63446046D01*
X133505827Y-63437773D01*
X133998973Y-62944627D01*
X134007246Y-62941200D01*
X145754760Y-62941200D01*
X145763026Y-62944620D01*
G37*
%TD.AperFunction*%
%TD*%
%TA.AperFunction,Conductor*%
%TO.N,C2*%
G36*
X73849225Y-79988016D02*
G01*
X74343638Y-80481182D01*
X74347075Y-80489436D01*
X74371200Y-90043000D01*
X74826479Y-90249691D01*
X74828010Y-90250386D01*
X78053008Y-91714496D01*
X78057984Y-91718778D01*
X78513135Y-92419719D01*
X78515022Y-92426007D01*
X78533168Y-94948350D01*
X78529779Y-94956669D01*
X78040224Y-95450759D01*
X78031937Y-95454224D01*
X72681539Y-95465077D01*
X66519453Y-95477576D01*
X66511164Y-95474158D01*
X66203935Y-95167551D01*
X66200500Y-95159269D01*
X66200500Y-80303546D01*
X66203927Y-80295273D01*
X66511173Y-79988027D01*
X66519446Y-79984600D01*
X73840962Y-79984600D01*
X73849225Y-79988016D01*
G37*
%TD.AperFunction*%
%TD*%
%TA.AperFunction,Conductor*%
%TO.N,+BATT*%
G36*
X131065977Y-46320185D02*
G01*
X131086619Y-46336819D01*
X131481491Y-46731691D01*
X131514976Y-46793014D01*
X131509992Y-46862706D01*
X131469296Y-46917748D01*
X131363625Y-46998832D01*
X131363622Y-46998835D01*
X131357179Y-47003779D01*
X131268939Y-47118775D01*
X131213470Y-47252691D01*
X131194550Y-47396400D01*
X131213470Y-47540109D01*
X131268939Y-47674025D01*
X131357179Y-47789021D01*
X131472175Y-47877261D01*
X131606091Y-47932730D01*
X131630911Y-47935998D01*
X131641987Y-47937456D01*
X131705883Y-47965723D01*
X131744353Y-48024048D01*
X131749800Y-48060395D01*
X131749800Y-48320663D01*
X131736332Y-48376866D01*
X131727061Y-48395099D01*
X131707376Y-48462138D01*
X131695000Y-48548210D01*
X131695000Y-53948390D01*
X131695195Y-53959296D01*
X131695511Y-53968142D01*
X131696484Y-53973033D01*
X131713606Y-54059114D01*
X131713608Y-54059120D01*
X131714578Y-54063998D01*
X131738995Y-54129462D01*
X131739723Y-54130940D01*
X131749800Y-54179717D01*
X131749800Y-54436032D01*
X131730115Y-54503071D01*
X131677311Y-54548826D01*
X131641987Y-54558971D01*
X131606291Y-54563670D01*
X131472375Y-54619139D01*
X131357379Y-54707379D01*
X131269139Y-54822375D01*
X131213670Y-54956291D01*
X131194750Y-55100000D01*
X131213670Y-55243709D01*
X131269139Y-55377625D01*
X131357379Y-55492621D01*
X131363822Y-55497565D01*
X131415389Y-55537134D01*
X131456591Y-55593562D01*
X131460746Y-55663309D01*
X131458879Y-55670444D01*
X131457926Y-55673691D01*
X131456676Y-55677949D01*
X131444300Y-55764021D01*
X131444300Y-57028125D01*
X131445360Y-57053547D01*
X131447077Y-57074109D01*
X131448590Y-57079623D01*
X131448592Y-57079636D01*
X131449652Y-57083498D01*
X131448404Y-57153356D01*
X131405556Y-57214677D01*
X131312825Y-57285832D01*
X131312822Y-57285835D01*
X131306379Y-57290779D01*
X131218139Y-57405775D01*
X131162670Y-57539691D01*
X131143750Y-57683400D01*
X131162670Y-57827109D01*
X131218139Y-57961025D01*
X131306379Y-58076021D01*
X131312822Y-58080965D01*
X131407028Y-58153252D01*
X131448230Y-58209680D01*
X131454279Y-58269275D01*
X131444300Y-58338675D01*
X131444300Y-62429605D01*
X131447674Y-62474882D01*
X131453121Y-62511229D01*
X131455704Y-62525335D01*
X131455704Y-62525336D01*
X131456682Y-62530676D01*
X131455727Y-62530851D01*
X131455994Y-62594700D01*
X131418465Y-62653635D01*
X131412358Y-62658638D01*
X131363625Y-62696032D01*
X131363622Y-62696035D01*
X131357179Y-62700979D01*
X131268939Y-62815975D01*
X131213470Y-62949891D01*
X131194550Y-63093600D01*
X131213470Y-63237309D01*
X131268939Y-63371225D01*
X131357179Y-63486221D01*
X131472175Y-63574461D01*
X131479305Y-63577414D01*
X131527390Y-63627842D01*
X131540615Y-63696449D01*
X131524483Y-63740118D01*
X131527247Y-63741523D01*
X131476361Y-63841599D01*
X131456676Y-63908638D01*
X131444300Y-63994710D01*
X131444300Y-64062662D01*
X131457203Y-64150510D01*
X131477709Y-64218810D01*
X131478945Y-64221770D01*
X131478948Y-64221779D01*
X131498653Y-64268976D01*
X131502106Y-64277246D01*
X131507769Y-64284190D01*
X131507770Y-64284192D01*
X131564594Y-64353871D01*
X131573061Y-64364253D01*
X131577436Y-64367952D01*
X131623034Y-64406505D01*
X131623038Y-64406508D01*
X131626416Y-64409364D01*
X131636767Y-64415840D01*
X131683160Y-64468083D01*
X131695000Y-64520962D01*
X131695000Y-70178390D01*
X131695195Y-70189296D01*
X131695511Y-70198142D01*
X131696484Y-70203033D01*
X131713606Y-70289114D01*
X131713608Y-70289120D01*
X131714578Y-70293998D01*
X131738995Y-70359462D01*
X131739723Y-70360940D01*
X131749800Y-70409717D01*
X131749800Y-70677090D01*
X131730115Y-70744129D01*
X131713481Y-70764771D01*
X131051472Y-71426780D01*
X131040509Y-71448297D01*
X131030346Y-71464881D01*
X131021884Y-71476527D01*
X131021882Y-71476531D01*
X131016151Y-71484419D01*
X131013136Y-71493698D01*
X131008689Y-71507384D01*
X131001246Y-71525353D01*
X130990281Y-71546874D01*
X130988755Y-71556511D01*
X130988754Y-71556513D01*
X130986504Y-71570721D01*
X130981964Y-71589636D01*
X130974500Y-71612607D01*
X130974500Y-72758136D01*
X130954815Y-72825175D01*
X130948877Y-72833620D01*
X130919139Y-72872375D01*
X130863670Y-73006291D01*
X130844750Y-73150000D01*
X130863670Y-73293709D01*
X130919139Y-73427625D01*
X131007379Y-73542621D01*
X131122375Y-73630861D01*
X131129887Y-73633972D01*
X131129886Y-73633972D01*
X131248777Y-73683218D01*
X131248779Y-73683219D01*
X131256291Y-73686330D01*
X131264351Y-73687391D01*
X131264354Y-73687392D01*
X131336485Y-73696888D01*
X131400382Y-73725155D01*
X131438853Y-73783479D01*
X131444300Y-73819827D01*
X131444300Y-77162628D01*
X131447828Y-77185700D01*
X131438504Y-77254942D01*
X131393223Y-77308153D01*
X131386709Y-77311601D01*
X131386920Y-77311967D01*
X131379886Y-77316028D01*
X131372375Y-77319139D01*
X131257379Y-77407379D01*
X131252435Y-77413822D01*
X131223984Y-77450900D01*
X131169139Y-77522375D01*
X131113670Y-77656291D01*
X131094750Y-77800000D01*
X131113670Y-77943709D01*
X131116781Y-77951221D01*
X131116782Y-77951223D01*
X131133581Y-77991779D01*
X131169139Y-78077625D01*
X131174086Y-78084072D01*
X131230440Y-78157513D01*
X131257379Y-78192621D01*
X131263822Y-78197565D01*
X131263826Y-78197569D01*
X131301692Y-78226625D01*
X131342894Y-78283053D01*
X131347049Y-78352799D01*
X131312836Y-78413719D01*
X131301692Y-78423375D01*
X131263826Y-78452431D01*
X131263822Y-78452435D01*
X131257379Y-78457379D01*
X131169139Y-78572375D01*
X131113670Y-78706291D01*
X131094750Y-78850000D01*
X131113670Y-78993709D01*
X131116781Y-79001221D01*
X131116782Y-79001223D01*
X131125264Y-79021700D01*
X131169139Y-79127625D01*
X131174086Y-79134072D01*
X131206065Y-79175747D01*
X131257379Y-79242621D01*
X131372375Y-79330861D01*
X131506291Y-79386330D01*
X131550892Y-79392202D01*
X131554721Y-79392706D01*
X131618617Y-79420973D01*
X131626216Y-79427964D01*
X131713481Y-79515229D01*
X131746966Y-79576552D01*
X131749800Y-79602910D01*
X131749800Y-86278341D01*
X131730920Y-86344112D01*
X131714028Y-86371110D01*
X131675134Y-86410173D01*
X131624604Y-86442094D01*
X131570625Y-86488379D01*
X131527247Y-86534147D01*
X131523190Y-86542125D01*
X131523189Y-86542127D01*
X131488090Y-86611156D01*
X131476361Y-86634223D01*
X131474749Y-86639712D01*
X131474748Y-86639715D01*
X131466196Y-86668840D01*
X131456676Y-86701262D01*
X131444300Y-86787334D01*
X131444300Y-94935238D01*
X131446051Y-94967897D01*
X131448885Y-94994255D01*
X131450702Y-95000057D01*
X131450703Y-95000063D01*
X131482683Y-95102195D01*
X131484503Y-95108007D01*
X131487421Y-95113352D01*
X131487422Y-95113353D01*
X131495571Y-95128277D01*
X131510421Y-95196550D01*
X131486002Y-95262014D01*
X131474418Y-95275382D01*
X131086619Y-95663181D01*
X131025296Y-95696666D01*
X130998938Y-95699500D01*
X125222000Y-95699500D01*
X125222000Y-78886068D01*
X125241685Y-78819029D01*
X125270514Y-78787692D01*
X125284421Y-78777021D01*
X125372661Y-78662025D01*
X125428130Y-78528109D01*
X125447050Y-78384400D01*
X125428130Y-78240691D01*
X125372661Y-78106775D01*
X125284421Y-77991779D01*
X125270514Y-77981107D01*
X125229311Y-77924680D01*
X125222000Y-77882732D01*
X125222000Y-77559359D01*
X125241685Y-77492320D01*
X125270514Y-77460983D01*
X125303375Y-77435768D01*
X125303378Y-77435765D01*
X125309821Y-77430821D01*
X125331603Y-77402435D01*
X125393114Y-77322272D01*
X125398061Y-77315825D01*
X125453530Y-77181909D01*
X125472450Y-77038200D01*
X125453530Y-76894491D01*
X125398061Y-76760575D01*
X125309821Y-76645579D01*
X125303378Y-76640635D01*
X125303375Y-76640632D01*
X125270514Y-76615417D01*
X125229311Y-76558989D01*
X125222000Y-76517041D01*
X125222000Y-74164905D01*
X125241685Y-74097866D01*
X125255499Y-74080724D01*
X125259021Y-74078021D01*
X125347261Y-73963025D01*
X125402730Y-73829109D01*
X125421650Y-73685400D01*
X125402730Y-73541691D01*
X125347261Y-73407775D01*
X125259021Y-73292779D01*
X125257064Y-73291277D01*
X125224834Y-73232253D01*
X125222000Y-73205895D01*
X125222000Y-72230259D01*
X125241685Y-72163220D01*
X125247624Y-72154772D01*
X125316914Y-72064472D01*
X125321861Y-72058025D01*
X125377330Y-71924109D01*
X125396250Y-71780400D01*
X125377330Y-71636691D01*
X125367355Y-71612607D01*
X125331216Y-71525361D01*
X125321861Y-71502775D01*
X125247624Y-71406028D01*
X125222430Y-71340859D01*
X125222000Y-71330541D01*
X125222000Y-61711588D01*
X125241685Y-61644549D01*
X125247624Y-61636101D01*
X125325914Y-61534072D01*
X125330861Y-61527625D01*
X125386330Y-61393709D01*
X125405250Y-61250000D01*
X125386330Y-61106291D01*
X125330861Y-60972375D01*
X125247624Y-60863899D01*
X125222430Y-60798730D01*
X125222000Y-60788412D01*
X125222000Y-60089059D01*
X125241685Y-60022020D01*
X125247624Y-60013572D01*
X125316914Y-59923272D01*
X125321861Y-59916825D01*
X125377330Y-59782909D01*
X125396250Y-59639200D01*
X125377330Y-59495491D01*
X125367388Y-59471487D01*
X125324972Y-59369086D01*
X125321861Y-59361575D01*
X125247624Y-59264828D01*
X125222430Y-59199659D01*
X125222000Y-59189341D01*
X125222000Y-58133259D01*
X125241685Y-58066220D01*
X125247624Y-58057772D01*
X125316914Y-57967472D01*
X125321861Y-57961025D01*
X125377330Y-57827109D01*
X125396250Y-57683400D01*
X125377330Y-57539691D01*
X125321861Y-57405775D01*
X125247624Y-57309028D01*
X125222430Y-57243859D01*
X125222000Y-57233541D01*
X125222000Y-55442310D01*
X125238613Y-55380310D01*
X125240711Y-55376675D01*
X125245661Y-55370225D01*
X125301130Y-55236309D01*
X125320050Y-55092600D01*
X125301130Y-54948891D01*
X125245661Y-54814975D01*
X125240711Y-54808525D01*
X125238613Y-54804890D01*
X125222000Y-54742890D01*
X125222000Y-47051362D01*
X125241685Y-46984323D01*
X125258319Y-46963681D01*
X125885181Y-46336819D01*
X125946504Y-46303334D01*
X125972862Y-46300500D01*
X130998938Y-46300500D01*
X131065977Y-46320185D01*
G37*
%TD.AperFunction*%
%TD*%
%TA.AperFunction,Conductor*%
%TO.N,GND*%
G36*
X79918834Y-72085428D02*
G01*
X79974767Y-72127300D01*
X79999184Y-72192764D01*
X79999500Y-72201610D01*
X79999500Y-77594646D01*
X80002618Y-77620846D01*
X80048061Y-77723153D01*
X80127287Y-77802241D01*
X80137758Y-77806870D01*
X80137759Y-77806871D01*
X80199983Y-77834380D01*
X80253338Y-77879491D01*
X80273843Y-77947856D01*
X80270395Y-84276175D01*
X80250674Y-84343203D01*
X80197845Y-84388929D01*
X80162584Y-84399046D01*
X80145691Y-84401270D01*
X80011775Y-84456739D01*
X79973023Y-84486475D01*
X79907854Y-84511670D01*
X79897536Y-84512100D01*
X79561607Y-84512100D01*
X79538636Y-84519563D01*
X79519726Y-84524103D01*
X79509734Y-84525686D01*
X79495874Y-84527881D01*
X79474357Y-84538845D01*
X79456383Y-84546289D01*
X79442705Y-84550733D01*
X79442704Y-84550734D01*
X79433420Y-84553750D01*
X79414682Y-84567364D01*
X79413881Y-84567946D01*
X79397293Y-84578111D01*
X79375780Y-84589072D01*
X78802691Y-85162161D01*
X78741368Y-85195646D01*
X78671676Y-85190662D01*
X78615743Y-85148790D01*
X78597719Y-85111985D01*
X78597382Y-85109154D01*
X78551939Y-85006847D01*
X78472713Y-84927759D01*
X78462242Y-84923130D01*
X78462241Y-84923129D01*
X78378853Y-84886263D01*
X78378851Y-84886262D01*
X78370327Y-84882494D01*
X78344646Y-84879500D01*
X76055354Y-84879500D01*
X76051700Y-84879935D01*
X76051698Y-84879935D01*
X76046734Y-84880526D01*
X76029154Y-84882618D01*
X75926847Y-84928061D01*
X75847759Y-85007287D01*
X75843130Y-85017758D01*
X75843129Y-85017759D01*
X75806482Y-85100653D01*
X75802494Y-85109673D01*
X75799500Y-85135354D01*
X75799500Y-86424646D01*
X75802618Y-86450846D01*
X75848061Y-86553153D01*
X75927287Y-86632241D01*
X75937758Y-86636870D01*
X75937759Y-86636871D01*
X76021147Y-86673737D01*
X76021149Y-86673738D01*
X76029673Y-86677506D01*
X76055354Y-86680500D01*
X78344646Y-86680500D01*
X78348300Y-86680065D01*
X78348302Y-86680065D01*
X78353266Y-86679474D01*
X78370846Y-86677382D01*
X78473153Y-86631939D01*
X78552241Y-86552713D01*
X78597506Y-86450327D01*
X78600500Y-86424646D01*
X78600500Y-86329500D01*
X78620185Y-86262461D01*
X78672989Y-86216706D01*
X78724500Y-86205500D01*
X78853993Y-86205500D01*
X78876964Y-86198036D01*
X78895879Y-86193496D01*
X78910087Y-86191246D01*
X78910089Y-86191245D01*
X78919726Y-86189719D01*
X78941247Y-86178754D01*
X78959216Y-86171311D01*
X78972902Y-86166864D01*
X78982181Y-86163849D01*
X78990069Y-86158118D01*
X78990073Y-86158116D01*
X79001719Y-86149654D01*
X79018303Y-86139491D01*
X79039820Y-86128528D01*
X79768929Y-85399419D01*
X79830252Y-85365934D01*
X79856610Y-85363100D01*
X79897536Y-85363100D01*
X79964575Y-85382785D01*
X79973020Y-85388723D01*
X80011775Y-85418461D01*
X80015595Y-85420043D01*
X80062534Y-85469271D01*
X80075756Y-85537878D01*
X80068781Y-85565906D01*
X80068884Y-85565934D01*
X80067338Y-85571702D01*
X80066882Y-85573537D01*
X80063670Y-85581291D01*
X80044750Y-85725000D01*
X80045811Y-85733059D01*
X80063670Y-85868709D01*
X80060222Y-85869163D01*
X80058976Y-85922975D01*
X80019852Y-85980864D01*
X79957025Y-86008236D01*
X79823554Y-86025808D01*
X79823551Y-86025809D01*
X79815491Y-86026870D01*
X79807979Y-86029981D01*
X79807977Y-86029982D01*
X79764427Y-86048021D01*
X79681575Y-86082339D01*
X79566579Y-86170579D01*
X79561635Y-86177022D01*
X79539783Y-86205500D01*
X79478339Y-86285575D01*
X79422870Y-86419491D01*
X79419958Y-86441610D01*
X79416494Y-86467921D01*
X79388227Y-86531818D01*
X79381236Y-86539417D01*
X78337471Y-87583181D01*
X78276148Y-87616666D01*
X78249790Y-87619500D01*
X76055354Y-87619500D01*
X76051700Y-87619935D01*
X76051698Y-87619935D01*
X76046734Y-87620526D01*
X76029154Y-87622618D01*
X75926847Y-87668061D01*
X75847759Y-87747287D01*
X75802494Y-87849673D01*
X75799500Y-87875354D01*
X75799500Y-89164646D01*
X75802618Y-89190846D01*
X75848061Y-89293153D01*
X75927287Y-89372241D01*
X75937758Y-89376870D01*
X75937759Y-89376871D01*
X76021147Y-89413737D01*
X76021149Y-89413738D01*
X76029673Y-89417506D01*
X76055354Y-89420500D01*
X78344646Y-89420500D01*
X78348300Y-89420065D01*
X78348302Y-89420065D01*
X78353266Y-89419474D01*
X78370846Y-89417382D01*
X78473153Y-89371939D01*
X78552241Y-89292713D01*
X78597506Y-89190327D01*
X78600500Y-89164646D01*
X78600500Y-88575010D01*
X78620185Y-88507971D01*
X78636819Y-88487329D01*
X78962819Y-88161329D01*
X79024142Y-88127844D01*
X79093834Y-88132828D01*
X79149767Y-88174700D01*
X79174184Y-88240164D01*
X79174500Y-88249010D01*
X79174500Y-91172390D01*
X79154815Y-91239429D01*
X79138181Y-91260071D01*
X78631795Y-91766457D01*
X78570472Y-91799942D01*
X78500780Y-91794958D01*
X78444847Y-91753086D01*
X78440116Y-91746307D01*
X78316607Y-91556100D01*
X78316602Y-91556093D01*
X78314205Y-91552402D01*
X78257253Y-91487213D01*
X78252277Y-91482931D01*
X78179296Y-91436321D01*
X78175273Y-91434495D01*
X78175270Y-91434493D01*
X74748743Y-89878892D01*
X74695837Y-89833255D01*
X74676002Y-89766296D01*
X74668067Y-86624153D01*
X74652574Y-80488665D01*
X74629101Y-80371999D01*
X74625664Y-80363745D01*
X74559386Y-80264888D01*
X74407630Y-80113514D01*
X74374067Y-80052234D01*
X74371200Y-80025723D01*
X74371200Y-79593157D01*
X74390885Y-79526118D01*
X74443689Y-79480363D01*
X74495453Y-79469157D01*
X77974480Y-79476257D01*
X77974484Y-79476257D01*
X77980550Y-79476269D01*
X78097130Y-79453408D01*
X78105388Y-79450020D01*
X78204435Y-79384415D01*
X78701249Y-78892245D01*
X78767775Y-78793834D01*
X78771241Y-78785608D01*
X78795203Y-78669232D01*
X78801247Y-77847382D01*
X78813156Y-76227745D01*
X78813190Y-76223180D01*
X78800694Y-76134425D01*
X78798771Y-76127912D01*
X78773458Y-76073339D01*
X78763106Y-76004243D01*
X78791754Y-75940517D01*
X78798265Y-75933483D01*
X79648528Y-75083220D01*
X79659491Y-75061703D01*
X79669654Y-75045119D01*
X79678116Y-75033473D01*
X79678118Y-75033469D01*
X79683849Y-75025581D01*
X79691311Y-75002616D01*
X79698754Y-74984647D01*
X79709719Y-74963126D01*
X79713496Y-74939279D01*
X79718036Y-74920364D01*
X79725500Y-74897393D01*
X79725500Y-72227610D01*
X79745185Y-72160571D01*
X79761819Y-72139929D01*
X79787819Y-72113929D01*
X79849142Y-72080444D01*
X79918834Y-72085428D01*
G37*
%TD.AperFunction*%
%TA.AperFunction,Conductor*%
G36*
X78348750Y-63266086D02*
G01*
X78392684Y-63294432D01*
X79708780Y-64610528D01*
X79730297Y-64621491D01*
X79746881Y-64631654D01*
X79758527Y-64640116D01*
X79758531Y-64640118D01*
X79766419Y-64645849D01*
X79775698Y-64648864D01*
X79789384Y-64653311D01*
X79807353Y-64660754D01*
X79828874Y-64671719D01*
X79838511Y-64673245D01*
X79838513Y-64673246D01*
X79852721Y-64675496D01*
X79871636Y-64680036D01*
X79894607Y-64687500D01*
X79904365Y-64687500D01*
X79914005Y-64689027D01*
X79913504Y-64692189D01*
X79964575Y-64707185D01*
X79973020Y-64713123D01*
X80011775Y-64742861D01*
X80019287Y-64745972D01*
X80019286Y-64745972D01*
X80138177Y-64795218D01*
X80138179Y-64795219D01*
X80145691Y-64798330D01*
X80153751Y-64799391D01*
X80153754Y-64799392D01*
X80173126Y-64801942D01*
X80237022Y-64830209D01*
X80275493Y-64888533D01*
X80280940Y-64924947D01*
X80279595Y-67392434D01*
X80259875Y-67459459D01*
X80203049Y-67506923D01*
X80163551Y-67523283D01*
X80129885Y-67537228D01*
X80129883Y-67537229D01*
X80122375Y-67540339D01*
X80007379Y-67628579D01*
X79919139Y-67743575D01*
X79863670Y-67877491D01*
X79862609Y-67885552D01*
X79857294Y-67925921D01*
X79829027Y-67989817D01*
X79822036Y-67997416D01*
X79747361Y-68072091D01*
X79736398Y-68093608D01*
X79726235Y-68110192D01*
X79717773Y-68121838D01*
X79717771Y-68121842D01*
X79712040Y-68129730D01*
X79709025Y-68139009D01*
X79704578Y-68152695D01*
X79697135Y-68170664D01*
X79686170Y-68192185D01*
X79684644Y-68201822D01*
X79684643Y-68201824D01*
X79682393Y-68216032D01*
X79677853Y-68234947D01*
X79670389Y-68257918D01*
X79670389Y-69014924D01*
X79650704Y-69081963D01*
X79597900Y-69127718D01*
X79528742Y-69137662D01*
X79498940Y-69129486D01*
X79448186Y-69108463D01*
X79399223Y-69088182D01*
X79399221Y-69088181D01*
X79391709Y-69085070D01*
X79248000Y-69066150D01*
X79104291Y-69085070D01*
X79096779Y-69088181D01*
X79096777Y-69088182D01*
X79006407Y-69125614D01*
X78970375Y-69140539D01*
X78963927Y-69145486D01*
X78963923Y-69145489D01*
X78920414Y-69178875D01*
X78855245Y-69204070D01*
X78844927Y-69204500D01*
X78724500Y-69204500D01*
X78657461Y-69184815D01*
X78611706Y-69132011D01*
X78600500Y-69080500D01*
X78600500Y-68985354D01*
X78597382Y-68959154D01*
X78551939Y-68856847D01*
X78472713Y-68777759D01*
X78462242Y-68773130D01*
X78462241Y-68773129D01*
X78378853Y-68736263D01*
X78378851Y-68736262D01*
X78370327Y-68732494D01*
X78344646Y-68729500D01*
X76055354Y-68729500D01*
X76051700Y-68729935D01*
X76051698Y-68729935D01*
X76046734Y-68730526D01*
X76029154Y-68732618D01*
X75926847Y-68778061D01*
X75847759Y-68857287D01*
X75802494Y-68959673D01*
X75799500Y-68985354D01*
X75799500Y-70274646D01*
X75802618Y-70300846D01*
X75848061Y-70403153D01*
X75927287Y-70482241D01*
X75937758Y-70486870D01*
X75937759Y-70486871D01*
X76021147Y-70523737D01*
X76021149Y-70523738D01*
X76029673Y-70527506D01*
X76055354Y-70530500D01*
X78344646Y-70530500D01*
X78348300Y-70530065D01*
X78348302Y-70530065D01*
X78353266Y-70529474D01*
X78370846Y-70527382D01*
X78473153Y-70481939D01*
X78552241Y-70402713D01*
X78597506Y-70300327D01*
X78600500Y-70274646D01*
X78600500Y-70179500D01*
X78620185Y-70112461D01*
X78672989Y-70066706D01*
X78724500Y-70055500D01*
X78867342Y-70055500D01*
X78934381Y-70075185D01*
X78942829Y-70081125D01*
X78963923Y-70097311D01*
X78963927Y-70097313D01*
X78970375Y-70102261D01*
X78977887Y-70105372D01*
X78977886Y-70105372D01*
X79096777Y-70154618D01*
X79096779Y-70154619D01*
X79104291Y-70157730D01*
X79248000Y-70176650D01*
X79256059Y-70175589D01*
X79256060Y-70175589D01*
X79337729Y-70164837D01*
X79406764Y-70175603D01*
X79459020Y-70221983D01*
X79477905Y-70289251D01*
X79457424Y-70356052D01*
X79441595Y-70375457D01*
X78383871Y-71433181D01*
X78322548Y-71466666D01*
X78296190Y-71469500D01*
X76055354Y-71469500D01*
X76051700Y-71469935D01*
X76051698Y-71469935D01*
X76046734Y-71470526D01*
X76029154Y-71472618D01*
X75926847Y-71518061D01*
X75847759Y-71597287D01*
X75802494Y-71699673D01*
X75799500Y-71725354D01*
X75799500Y-73014646D01*
X75802618Y-73040846D01*
X75848061Y-73143153D01*
X75927287Y-73222241D01*
X75937758Y-73226870D01*
X75937759Y-73226871D01*
X76021147Y-73263737D01*
X76021149Y-73263738D01*
X76029673Y-73267506D01*
X76055354Y-73270500D01*
X78344646Y-73270500D01*
X78348300Y-73270065D01*
X78348302Y-73270065D01*
X78353266Y-73269474D01*
X78370846Y-73267382D01*
X78473153Y-73221939D01*
X78552241Y-73142713D01*
X78597506Y-73040327D01*
X78600500Y-73014646D01*
X78600500Y-72471410D01*
X78620185Y-72404371D01*
X78636819Y-72383729D01*
X78662819Y-72357729D01*
X78724142Y-72324244D01*
X78793834Y-72329228D01*
X78849767Y-72371100D01*
X78874184Y-72436564D01*
X78874500Y-72445410D01*
X78874500Y-74602390D01*
X78854815Y-74669429D01*
X78838181Y-74690071D01*
X78310854Y-75217398D01*
X78249531Y-75250883D01*
X78179839Y-75245899D01*
X78168929Y-75241085D01*
X78166778Y-75239773D01*
X74752361Y-73794405D01*
X74698299Y-73750145D01*
X74676700Y-73680216D01*
X74676700Y-64360446D01*
X74653443Y-64243530D01*
X74650016Y-64235257D01*
X74583794Y-64136152D01*
X74407519Y-63959877D01*
X74374034Y-63898554D01*
X74371200Y-63872196D01*
X74371200Y-63523100D01*
X74390885Y-63456061D01*
X74443689Y-63410306D01*
X74495200Y-63399100D01*
X77981177Y-63399100D01*
X77987121Y-63397923D01*
X77987125Y-63397923D01*
X78053658Y-63384752D01*
X78097567Y-63376060D01*
X78105811Y-63372663D01*
X78204669Y-63306994D01*
X78217637Y-63294118D01*
X78279076Y-63260854D01*
X78348750Y-63266086D01*
G37*
%TD.AperFunction*%
%TA.AperFunction,Conductor*%
G36*
X79016177Y-46320185D02*
G01*
X79036819Y-46336819D01*
X79663681Y-46963681D01*
X79697166Y-47025004D01*
X79700000Y-47051362D01*
X79700000Y-49400000D01*
X79994700Y-49400000D01*
X80252916Y-49658357D01*
X80286384Y-49719689D01*
X80289211Y-49746082D01*
X80286371Y-54958764D01*
X80286241Y-55196725D01*
X80266520Y-55263753D01*
X80212578Y-55309980D01*
X80152637Y-55336605D01*
X80083379Y-55345830D01*
X80020128Y-55316146D01*
X79982966Y-55256979D01*
X79978300Y-55223282D01*
X79978300Y-54949007D01*
X79970837Y-54926036D01*
X79966297Y-54907126D01*
X79964046Y-54892913D01*
X79964045Y-54892911D01*
X79962519Y-54883274D01*
X79951557Y-54861759D01*
X79944113Y-54843788D01*
X79939666Y-54830101D01*
X79939666Y-54830100D01*
X79936650Y-54820819D01*
X79930915Y-54812925D01*
X79930913Y-54812922D01*
X79922455Y-54801282D01*
X79912290Y-54784695D01*
X79901328Y-54763180D01*
X78636819Y-53498671D01*
X78603334Y-53437348D01*
X78600500Y-53410990D01*
X78600500Y-52835354D01*
X78597382Y-52809154D01*
X78551939Y-52706847D01*
X78472713Y-52627759D01*
X78462242Y-52623130D01*
X78462241Y-52623129D01*
X78378853Y-52586263D01*
X78378851Y-52586262D01*
X78370327Y-52582494D01*
X78344646Y-52579500D01*
X76055354Y-52579500D01*
X76051700Y-52579935D01*
X76051698Y-52579935D01*
X76046734Y-52580526D01*
X76029154Y-52582618D01*
X75926847Y-52628061D01*
X75847759Y-52707287D01*
X75802494Y-52809673D01*
X75799500Y-52835354D01*
X75799500Y-54124646D01*
X75802618Y-54150846D01*
X75848061Y-54253153D01*
X75927287Y-54332241D01*
X75937758Y-54336870D01*
X75937759Y-54336871D01*
X76021147Y-54373737D01*
X76021149Y-54373738D01*
X76029673Y-54377506D01*
X76055354Y-54380500D01*
X78263790Y-54380500D01*
X78330829Y-54400185D01*
X78351471Y-54416819D01*
X79090981Y-55156329D01*
X79124466Y-55217652D01*
X79127300Y-55244010D01*
X79127300Y-56940991D01*
X79107615Y-57008030D01*
X79054811Y-57053785D01*
X78985653Y-57063729D01*
X78922097Y-57034704D01*
X78915619Y-57028672D01*
X78636819Y-56749872D01*
X78603334Y-56688549D01*
X78600500Y-56662191D01*
X78600500Y-55575354D01*
X78597382Y-55549154D01*
X78551939Y-55446847D01*
X78472713Y-55367759D01*
X78462242Y-55363130D01*
X78462241Y-55363129D01*
X78378853Y-55326263D01*
X78378851Y-55326262D01*
X78370327Y-55322494D01*
X78344646Y-55319500D01*
X76055354Y-55319500D01*
X76051700Y-55319935D01*
X76051698Y-55319935D01*
X76046734Y-55320526D01*
X76029154Y-55322618D01*
X75926847Y-55368061D01*
X75847759Y-55447287D01*
X75802494Y-55549673D01*
X75799500Y-55575354D01*
X75799500Y-56864646D01*
X75802618Y-56890846D01*
X75848061Y-56993153D01*
X75927287Y-57072241D01*
X75937758Y-57076870D01*
X75937759Y-57076871D01*
X76021147Y-57113737D01*
X76021149Y-57113738D01*
X76029673Y-57117506D01*
X76055354Y-57120500D01*
X77752590Y-57120500D01*
X77819629Y-57140185D01*
X77840271Y-57156819D01*
X78506781Y-57823328D01*
X78540266Y-57884651D01*
X78543100Y-57911009D01*
X78543100Y-59090640D01*
X78523415Y-59157679D01*
X78470611Y-59203434D01*
X78401453Y-59213378D01*
X78337897Y-59184353D01*
X78320430Y-59165397D01*
X78319770Y-59164346D01*
X78316920Y-59160984D01*
X78316915Y-59160978D01*
X78266661Y-59101710D01*
X78266660Y-59101709D01*
X78263806Y-59098343D01*
X78258899Y-59093992D01*
X78186705Y-59046345D01*
X74747736Y-57421801D01*
X74695527Y-57375368D01*
X74676700Y-57309682D01*
X74676700Y-48206046D01*
X74653443Y-48089130D01*
X74650016Y-48080857D01*
X74583794Y-47981752D01*
X74407519Y-47805477D01*
X74374034Y-47744154D01*
X74371200Y-47717796D01*
X74371200Y-47051362D01*
X74390885Y-46984323D01*
X74407519Y-46963681D01*
X75034381Y-46336819D01*
X75095704Y-46303334D01*
X75122062Y-46300500D01*
X78949138Y-46300500D01*
X79016177Y-46320185D01*
G37*
%TD.AperFunction*%
%TD*%
%TA.AperFunction,Conductor*%
%TO.N,+BATT*%
G36*
X86031777Y-46320185D02*
G01*
X86052419Y-46336819D01*
X86679281Y-46963681D01*
X86712766Y-47025004D01*
X86715600Y-47051362D01*
X86715600Y-67854329D01*
X86712553Y-67877476D01*
X86712670Y-67877491D01*
X86693750Y-68021200D01*
X86694811Y-68029259D01*
X86712670Y-68164909D01*
X86712553Y-68164924D01*
X86715600Y-68188071D01*
X86715600Y-69454529D01*
X86712553Y-69477676D01*
X86712670Y-69477691D01*
X86693750Y-69621400D01*
X86694811Y-69629459D01*
X86712670Y-69765109D01*
X86712553Y-69765124D01*
X86715600Y-69788271D01*
X86715600Y-80041290D01*
X86698987Y-80103290D01*
X86696889Y-80106925D01*
X86691939Y-80113375D01*
X86636470Y-80247291D01*
X86617550Y-80391000D01*
X86636470Y-80534709D01*
X86639581Y-80542221D01*
X86639582Y-80542223D01*
X86677014Y-80632593D01*
X86691939Y-80668625D01*
X86696889Y-80675075D01*
X86698987Y-80678710D01*
X86715600Y-80740710D01*
X86715600Y-84770729D01*
X86712553Y-84793876D01*
X86712670Y-84793891D01*
X86693750Y-84937600D01*
X86694811Y-84945659D01*
X86712670Y-85081309D01*
X86712553Y-85081324D01*
X86715600Y-85104471D01*
X86715600Y-86396329D01*
X86712553Y-86419476D01*
X86712670Y-86419491D01*
X86693750Y-86563200D01*
X86694811Y-86571259D01*
X86712670Y-86706909D01*
X86712553Y-86706924D01*
X86715600Y-86730071D01*
X86715600Y-94996000D01*
X80563270Y-94996000D01*
X80569446Y-94953212D01*
X80570079Y-94948828D01*
X80570545Y-94094132D01*
X80557666Y-94006198D01*
X80537161Y-93937833D01*
X80512738Y-93879312D01*
X80441782Y-93792306D01*
X80388428Y-93747197D01*
X80363233Y-93731434D01*
X80316840Y-93679190D01*
X80305000Y-93626312D01*
X80305000Y-91901610D01*
X80304805Y-91890704D01*
X80304489Y-91881858D01*
X80289400Y-91805999D01*
X80289400Y-87963710D01*
X80309085Y-87896671D01*
X80325719Y-87876029D01*
X80948528Y-87253220D01*
X80959489Y-87231707D01*
X80969654Y-87215119D01*
X80970236Y-87214318D01*
X80983850Y-87195580D01*
X80991311Y-87172617D01*
X80998757Y-87154639D01*
X81005288Y-87141822D01*
X81009719Y-87133126D01*
X81013497Y-87109274D01*
X81018038Y-87090358D01*
X81025500Y-87067393D01*
X81025500Y-86116864D01*
X81045185Y-86049825D01*
X81051125Y-86041377D01*
X81075912Y-86009074D01*
X81080861Y-86002625D01*
X81136330Y-85868709D01*
X81155250Y-85725000D01*
X81136330Y-85581291D01*
X81105649Y-85507218D01*
X81091860Y-85473930D01*
X81080861Y-85447375D01*
X80992621Y-85332379D01*
X80877625Y-85244139D01*
X80873808Y-85242558D01*
X80826869Y-85193334D01*
X80813643Y-85124727D01*
X80820619Y-85096694D01*
X80820516Y-85096666D01*
X80822062Y-85090897D01*
X80822519Y-85089060D01*
X80825730Y-85081309D01*
X80844650Y-84937600D01*
X80825730Y-84793891D01*
X80770261Y-84659975D01*
X80682021Y-84544979D01*
X80675578Y-84540035D01*
X80675575Y-84540032D01*
X80608516Y-84488576D01*
X80567313Y-84432148D01*
X80562891Y-84364384D01*
X80563473Y-84362405D01*
X80575895Y-84276341D01*
X80577717Y-80932246D01*
X80579341Y-77952552D01*
X80579341Y-77952546D01*
X80579343Y-77948022D01*
X80566464Y-77860089D01*
X80545959Y-77791724D01*
X80521538Y-77733207D01*
X80450583Y-77646200D01*
X80397228Y-77601089D01*
X80363229Y-77579818D01*
X80316840Y-77527576D01*
X80305000Y-77474699D01*
X80305000Y-72201610D01*
X80304805Y-72190704D01*
X80304489Y-72181858D01*
X80291783Y-72117981D01*
X80289400Y-72093790D01*
X80289400Y-71663710D01*
X80309085Y-71596671D01*
X80325719Y-71576029D01*
X81018928Y-70882820D01*
X81029891Y-70861303D01*
X81040054Y-70844719D01*
X81048516Y-70833073D01*
X81048518Y-70833069D01*
X81054249Y-70825181D01*
X81061711Y-70802216D01*
X81069154Y-70784247D01*
X81080119Y-70762726D01*
X81083896Y-70738879D01*
X81088436Y-70719964D01*
X81095900Y-70696993D01*
X81095900Y-69200464D01*
X81115585Y-69133425D01*
X81121525Y-69124977D01*
X81146312Y-69092674D01*
X81151261Y-69086225D01*
X81167437Y-69047173D01*
X81203618Y-68959823D01*
X81203619Y-68959821D01*
X81206730Y-68952309D01*
X81225650Y-68808600D01*
X81206730Y-68664891D01*
X81195931Y-68638818D01*
X81154372Y-68538486D01*
X81151261Y-68530975D01*
X81063021Y-68415979D01*
X81056578Y-68411035D01*
X81056574Y-68411031D01*
X80963457Y-68339579D01*
X80922255Y-68283151D01*
X80918100Y-68213405D01*
X80924383Y-68193752D01*
X80933218Y-68172423D01*
X80933219Y-68172421D01*
X80936330Y-68164909D01*
X80955250Y-68021200D01*
X80936330Y-67877491D01*
X80880861Y-67743575D01*
X80792621Y-67628579D01*
X80749773Y-67595700D01*
X80684072Y-67545286D01*
X80677625Y-67540339D01*
X80659238Y-67532723D01*
X80604834Y-67488883D01*
X80582769Y-67422589D01*
X80583963Y-67400442D01*
X80585095Y-67392601D01*
X80586169Y-65422806D01*
X80586439Y-64927437D01*
X80586439Y-64927430D01*
X80586440Y-64925114D01*
X80583078Y-64879752D01*
X80577631Y-64843338D01*
X80577253Y-64841269D01*
X80574057Y-64823803D01*
X80576836Y-64823294D01*
X80576579Y-64766014D01*
X80614090Y-64707067D01*
X80620225Y-64702039D01*
X80675578Y-64659565D01*
X80682021Y-64654621D01*
X80770261Y-64539625D01*
X80825730Y-64405709D01*
X80844650Y-64262000D01*
X80825730Y-64118291D01*
X80818751Y-64101440D01*
X80773372Y-63991886D01*
X80770261Y-63984375D01*
X80765313Y-63977927D01*
X80765311Y-63977923D01*
X80729372Y-63931087D01*
X80704177Y-63865918D01*
X80718215Y-63797473D01*
X80729372Y-63780113D01*
X80765311Y-63733277D01*
X80765313Y-63733273D01*
X80770261Y-63726825D01*
X80785186Y-63690793D01*
X80822618Y-63600423D01*
X80822619Y-63600421D01*
X80825730Y-63592909D01*
X80844650Y-63449200D01*
X80825730Y-63305491D01*
X80770261Y-63171575D01*
X80765313Y-63165127D01*
X80765311Y-63165123D01*
X80732327Y-63122138D01*
X80707132Y-63056969D01*
X80721170Y-62988524D01*
X80732327Y-62971164D01*
X80790711Y-62895077D01*
X80790713Y-62895073D01*
X80795661Y-62888625D01*
X80851130Y-62754709D01*
X80870050Y-62611000D01*
X80851130Y-62467291D01*
X80795661Y-62333375D01*
X80707421Y-62218379D01*
X80592425Y-62130139D01*
X80458509Y-62074670D01*
X80410079Y-62068294D01*
X80346183Y-62040027D01*
X80338584Y-62033036D01*
X80325719Y-62020171D01*
X80292234Y-61958848D01*
X80289400Y-61932490D01*
X80289400Y-55687328D01*
X80309085Y-55620289D01*
X80347190Y-55582484D01*
X80407558Y-55544361D01*
X80407562Y-55544358D01*
X80411372Y-55541952D01*
X80465314Y-55495725D01*
X80508657Y-55450032D01*
X80559598Y-55349983D01*
X80579319Y-55282955D01*
X80582935Y-55257906D01*
X80587374Y-55227144D01*
X80591741Y-55196891D01*
X80594711Y-49746248D01*
X80592973Y-49713545D01*
X80590146Y-49687152D01*
X80588327Y-49681336D01*
X80588326Y-49681331D01*
X80556374Y-49579169D01*
X80554555Y-49573352D01*
X80521087Y-49512020D01*
X80468996Y-49442395D01*
X80420582Y-49393955D01*
X80387116Y-49332626D01*
X80392119Y-49262935D01*
X80434005Y-49207013D01*
X80499476Y-49182614D01*
X80508289Y-49182300D01*
X81686646Y-49182300D01*
X81690300Y-49181865D01*
X81690302Y-49181865D01*
X81695266Y-49181274D01*
X81712846Y-49179182D01*
X81815153Y-49133739D01*
X81894241Y-49054513D01*
X81939506Y-48952127D01*
X81942500Y-48926446D01*
X81942500Y-47137154D01*
X81939382Y-47110954D01*
X81893939Y-47008647D01*
X81814713Y-46929559D01*
X81804242Y-46924930D01*
X81804241Y-46924929D01*
X81720853Y-46888063D01*
X81720851Y-46888062D01*
X81712327Y-46884294D01*
X81686646Y-46881300D01*
X80707462Y-46881300D01*
X80640423Y-46861615D01*
X80594668Y-46808811D01*
X80584724Y-46739653D01*
X80613749Y-46676097D01*
X80619781Y-46669619D01*
X80952581Y-46336819D01*
X81013904Y-46303334D01*
X81040262Y-46300500D01*
X85964738Y-46300500D01*
X86031777Y-46320185D01*
G37*
%TD.AperFunction*%
%TD*%
%TA.AperFunction,Conductor*%
%TO.N,C1*%
G36*
X145503427Y-79454627D02*
G01*
X145796073Y-79747273D01*
X145799500Y-79755546D01*
X145799500Y-93980454D01*
X145796073Y-93988727D01*
X145503427Y-94281373D01*
X145495154Y-94284800D01*
X138198246Y-94284800D01*
X138189973Y-94281373D01*
X137696827Y-93788227D01*
X137693400Y-93779954D01*
X137693400Y-84531200D01*
X133938431Y-82369248D01*
X133934140Y-82364965D01*
X133503971Y-81620917D01*
X133502400Y-81615061D01*
X133502400Y-79956046D01*
X133505827Y-79947773D01*
X133998973Y-79454627D01*
X134007246Y-79451200D01*
X145495154Y-79451200D01*
X145503427Y-79454627D01*
G37*
%TD.AperFunction*%
%TD*%
M02*
