M48
; DRILL file {KiCad (6.0.5)} date Fri Feb  3 13:15:45 2023
; FORMAT={-:-/ absolute / metric / decimal}
; #@! TF.CreationDate,2023-02-03T13:15:45+00:00
; #@! TF.GenerationSoftware,Kicad,Pcbnew,(6.0.5)
; #@! TF.FileFunction,Plated,1,2,PTH
FMAT,2
METRIC
; #@! TA.AperFunction,Plated,PTH,ViaDrill
T1C0.300
; #@! TA.AperFunction,Plated,PTH,ComponentDrill
T2C0.800
; #@! TA.AperFunction,Plated,PTH,ComponentDrill
T3C1.000
%
G90
G05
T1
X75.209Y-85.369
X75.209Y-87.96
X75.26Y-52.603
X75.286Y-69.113
X75.286Y-72.034
X75.286Y-81.204
X75.286Y-83.363
X75.489Y-50.952
X75.489Y-65.024
X75.514Y-48.895
X75.514Y-67.081
X77.191Y-50.14
X77.191Y-51.841
X77.191Y-63.856
X77.191Y-66.294
X77.216Y-68.072
X77.216Y-79.985
X77.216Y-82.499
X77.216Y-84.226
X77.241Y-47.447
X78.334Y-50.876
X78.842Y-68.199
X78.943Y-84.43
X79.019Y-48.895
X79.096Y-65.049
X79.096Y-80.366
X79.121Y-52.603
X79.248Y-69.621
X79.959Y-86.563
X80.061Y-68.021
X80.289Y-63.449
X80.289Y-64.262
X80.289Y-84.938
X80.315Y-62.611
X80.6Y-85.725
X80.67Y-68.809
X87.173Y-80.391
X87.249Y-68.021
X87.249Y-69.621
X87.249Y-84.938
X87.249Y-86.563
X87.325Y-62.636
X87.325Y-63.449
X88.4Y-70.7
X88.925Y-83.693
X89.1Y-71.2
X89.51Y-65.888
X89.51Y-84.303
X89.865Y-68.631
X90.475Y-86.284
X90.602Y-84.049
X91.3Y-66.1
X91.948Y-64.592
X92.7Y-84.2
X93.0Y-78.276
X93.45Y-76.35
X93.472Y-81.305
X93.5Y-83.8
X93.726Y-82.474
X94.971Y-72.111
X95.123Y-61.112
X95.191Y-66.276
X95.199Y-88.29
X95.2Y-65.3
X95.57Y-77.6
X95.987Y-65.075
X96.064Y-74.776
X96.164Y-80.051
X97.017Y-78.944
X97.206Y-58.953
X97.333Y-86.309
X97.358Y-76.632
X97.7Y-78.0
X98.642Y-78.442
X99.06Y-82.271
X99.593Y-62.001
X100.154Y-79.229
X101.5Y-68.4
X101.676Y-58.928
X102.1Y-54.9
X102.161Y-73.812
X102.286Y-67.666
X103.2Y-54.915
X103.302Y-67.716
X103.353Y-65.405
X104.1Y-58.2
X104.394Y-81.585
X104.487Y-76.85
X104.6Y-67.7
X104.653Y-74.3
X104.851Y-61.57
X105.181Y-73.6
X105.7Y-56.8
X106.212Y-75.782
X106.35Y-70.383
X106.375Y-63.195
X107.1Y-75.6
X107.2Y-62.4
X107.88Y-58.198
X107.975Y-55.728
X108.255Y-81.509
X108.93Y-68.315
X110.058Y-83.541
X111.3Y-51.7
X111.963Y-73.431
X112.236Y-50.519
X112.344Y-52.197
X112.573Y-80.62
X113.005Y-53.67
X113.335Y-58.064
X113.589Y-55.753
X113.9Y-54.2
X114.173Y-83.261
X114.427Y-78.13
X115.214Y-50.851
X115.407Y-80.736
X115.418Y-78.257
X115.595Y-57.734
X117.17Y-53.086
X117.373Y-56.845
X118.6Y-51.631
X118.948Y-49.479
X119.685Y-85.189
X120.65Y-52.222
X120.699Y-86.638
X120.971Y-58.776
X121.139Y-53.105
X121.361Y-81.077
X122.072Y-77.876
X122.123Y-76.048
X122.479Y-73.025
X122.987Y-52.045
X123.114Y-58.217
X123.114Y-70.663
X124.765Y-55.093
X124.841Y-57.683
X124.841Y-59.639
X124.841Y-71.78
X124.866Y-73.685
X124.892Y-78.384
X124.917Y-77.038
X131.699Y-57.683
X131.75Y-47.396
X131.75Y-63.094
X131.75Y-72.619
X131.75Y-77.902
X131.75Y-78.816
X132.207Y-91.592
X132.359Y-55.093
X132.359Y-76.505
X132.74Y-71.755
X132.867Y-73.33
X133.02Y-62.586
X133.045Y-90.043
X133.071Y-60.757
X133.071Y-76.937
X133.071Y-78.105
X133.274Y-93.066
X133.655Y-58.268
X133.68Y-79.934
X133.68Y-95.199
X134.747Y-62.052
X134.798Y-59.538
X134.798Y-73.889
X134.798Y-75.768
X134.798Y-78.08
X134.798Y-91.872
X134.849Y-94.234
X135.026Y-57.582
X136.169Y-58.674
X136.246Y-74.981
X136.525Y-76.937
X136.601Y-90.018
X136.601Y-93.066
X136.627Y-78.689
X136.652Y-60.731
X136.677Y-56.515
X136.677Y-72.39
X136.703Y-69.723
X136.728Y-53.746
X136.779Y-88.367
X136.804Y-86.03
X136.982Y-62.205
T2
X103.118Y-85.522
X105.118Y-85.522
X105.157Y-88.519
X107.118Y-85.522
X107.157Y-88.519
X109.118Y-85.522
X109.157Y-88.519
X111.118Y-85.522
X111.157Y-88.519
X113.118Y-85.522
X113.157Y-88.519
X115.118Y-85.522
X115.157Y-88.519
X117.157Y-88.519
T3
X80.792Y-48.032
X83.332Y-48.032
X89.408Y-49.002
X89.408Y-51.542
X89.408Y-54.082
X89.408Y-56.622
X89.408Y-59.162
T0
M30
