%TF.GenerationSoftware,KiCad,Pcbnew,(6.0.5)*%
%TF.CreationDate,2023-08-08T13:51:24+01:00*%
%TF.ProjectId,Beacon-driver,42656163-6f6e-42d6-9472-697665722e6b,1.0*%
%TF.SameCoordinates,Original*%
%TF.FileFunction,Copper,L1,Top*%
%TF.FilePolarity,Positive*%
%FSLAX46Y46*%
G04 Gerber Fmt 4.6, Leading zero omitted, Abs format (unit mm)*
G04 Created by KiCad (PCBNEW (6.0.5)) date 2023-08-08 13:51:24*
%MOMM*%
%LPD*%
G01*
G04 APERTURE LIST*
G04 Aperture macros list*
%AMRoundRect*
0 Rectangle with rounded corners*
0 $1 Rounding radius*
0 $2 $3 $4 $5 $6 $7 $8 $9 X,Y pos of 4 corners*
0 Add a 4 corners polygon primitive as box body*
4,1,4,$2,$3,$4,$5,$6,$7,$8,$9,$2,$3,0*
0 Add four circle primitives for the rounded corners*
1,1,$1+$1,$2,$3*
1,1,$1+$1,$4,$5*
1,1,$1+$1,$6,$7*
1,1,$1+$1,$8,$9*
0 Add four rect primitives between the rounded corners*
20,1,$1+$1,$2,$3,$4,$5,0*
20,1,$1+$1,$4,$5,$6,$7,0*
20,1,$1+$1,$6,$7,$8,$9,0*
20,1,$1+$1,$8,$9,$2,$3,0*%
%AMOutline5P*
0 Free polygon, 5 corners , with rotation*
0 The origin of the aperture is its center*
0 number of corners: always 5*
0 $1 to $10 corner X, Y*
0 $11 Rotation angle, in degrees counterclockwise*
0 create outline with 5 corners*
4,1,5,$1,$2,$3,$4,$5,$6,$7,$8,$9,$10,$1,$2,$11*%
%AMOutline6P*
0 Free polygon, 6 corners , with rotation*
0 The origin of the aperture is its center*
0 number of corners: always 6*
0 $1 to $12 corner X, Y*
0 $13 Rotation angle, in degrees counterclockwise*
0 create outline with 6 corners*
4,1,6,$1,$2,$3,$4,$5,$6,$7,$8,$9,$10,$11,$12,$1,$2,$13*%
%AMOutline7P*
0 Free polygon, 7 corners , with rotation*
0 The origin of the aperture is its center*
0 number of corners: always 7*
0 $1 to $14 corner X, Y*
0 $15 Rotation angle, in degrees counterclockwise*
0 create outline with 7 corners*
4,1,7,$1,$2,$3,$4,$5,$6,$7,$8,$9,$10,$11,$12,$13,$14,$1,$2,$15*%
%AMOutline8P*
0 Free polygon, 8 corners , with rotation*
0 The origin of the aperture is its center*
0 number of corners: always 8*
0 $1 to $16 corner X, Y*
0 $17 Rotation angle, in degrees counterclockwise*
0 create outline with 8 corners*
4,1,8,$1,$2,$3,$4,$5,$6,$7,$8,$9,$10,$11,$12,$13,$14,$15,$16,$1,$2,$17*%
G04 Aperture macros list end*
%TA.AperFunction,SMDPad,CuDef*%
%ADD10RoundRect,0.750000X0.750000X0.750000X-0.750000X0.750000X-0.750000X-0.750000X0.750000X-0.750000X0*%
%TD*%
%TA.AperFunction,SMDPad,CuDef*%
%ADD11Outline5P,-0.725000X0.725000X0.725000X0.725000X0.725000X-0.725000X-0.290000X-0.725000X-0.725000X-0.290000X90.000000*%
%TD*%
%TA.AperFunction,SMDPad,CuDef*%
%ADD12Outline5P,-0.725000X0.725000X0.725000X0.725000X0.725000X-0.290000X0.290000X-0.725000X-0.725000X-0.725000X90.000000*%
%TD*%
%TA.AperFunction,SMDPad,CuDef*%
%ADD13Outline5P,-0.725000X0.725000X0.290000X0.725000X0.725000X0.290000X0.725000X-0.725000X-0.725000X-0.725000X90.000000*%
%TD*%
%TA.AperFunction,SMDPad,CuDef*%
%ADD14Outline5P,-0.725000X0.290000X-0.290000X0.725000X0.725000X0.725000X0.725000X-0.725000X-0.725000X-0.725000X90.000000*%
%TD*%
%TA.AperFunction,SMDPad,CuDef*%
%ADD15C,3.200000*%
%TD*%
%TA.AperFunction,SMDPad,CuDef*%
%ADD16RoundRect,0.250000X0.450000X-0.262500X0.450000X0.262500X-0.450000X0.262500X-0.450000X-0.262500X0*%
%TD*%
%TA.AperFunction,SMDPad,CuDef*%
%ADD17RoundRect,0.225000X0.250000X-0.225000X0.250000X0.225000X-0.250000X0.225000X-0.250000X-0.225000X0*%
%TD*%
%TA.AperFunction,SMDPad,CuDef*%
%ADD18R,2.000000X0.800000*%
%TD*%
%TA.AperFunction,SMDPad,CuDef*%
%ADD19R,0.520000X2.700000*%
%TD*%
%TA.AperFunction,SMDPad,CuDef*%
%ADD20Outline5P,-1.350000X0.500000X1.350000X0.500000X1.350000X-0.500000X-1.050000X-0.500000X-1.350000X-0.200000X270.000000*%
%TD*%
%TA.AperFunction,SMDPad,CuDef*%
%ADD21RoundRect,0.625000X0.625000X1.375000X-0.625000X1.375000X-0.625000X-1.375000X0.625000X-1.375000X0*%
%TD*%
%TA.AperFunction,SMDPad,CuDef*%
%ADD22R,2.500000X1.800000*%
%TD*%
%TA.AperFunction,SMDPad,CuDef*%
%ADD23RoundRect,0.100000X0.625000X0.100000X-0.625000X0.100000X-0.625000X-0.100000X0.625000X-0.100000X0*%
%TD*%
%TA.AperFunction,SMDPad,CuDef*%
%ADD24R,1.680000X1.880000*%
%TD*%
%TA.AperFunction,SMDPad,CuDef*%
%ADD25R,5.100000X2.400000*%
%TD*%
%TA.AperFunction,Conductor*%
%ADD26C,0.700000*%
%TD*%
%TA.AperFunction,Conductor*%
%ADD27C,0.400000*%
%TD*%
%TA.AperFunction,Conductor*%
%ADD28C,0.300000*%
%TD*%
%TA.AperFunction,Conductor*%
%ADD29C,0.500000*%
%TD*%
G04 APERTURE END LIST*
D10*
%TO.P,VCC,1*%
%TO.N,/LED_Cathode*%
X87081623Y-109415939D03*
%TD*%
D11*
%TO.P,D21,1,K*%
%TO.N,Net-(D22-Pad2)*%
X101616622Y-103450938D03*
D12*
X101616622Y-107380938D03*
D13*
%TO.P,D21,2,A*%
%TO.N,/Feedback_V*%
X105546622Y-107380938D03*
D14*
X105546622Y-103450938D03*
D15*
%TO.P,D21,5*%
%TO.N,N/C*%
X103581622Y-105415938D03*
%TD*%
D11*
%TO.P,D22,1,K*%
%TO.N,/LED_Cathode*%
X93616624Y-103450938D03*
D12*
X93616624Y-107380938D03*
D14*
%TO.P,D22,2,A*%
%TO.N,Net-(D22-Pad2)*%
X97546624Y-103450938D03*
D13*
X97546624Y-107380938D03*
D15*
%TO.P,D22,5*%
%TO.N,N/C*%
X95581624Y-105415938D03*
%TD*%
D16*
%TO.P,R1,1*%
%TO.N,Net-(R1-Pad1)*%
X105550000Y-155112500D03*
%TO.P,R1,2*%
%TO.N,/Feedback_V*%
X105550000Y-153287500D03*
%TD*%
D10*
%TO.P,VCC,1*%
%TO.N,/Feedback_V*%
X112081623Y-109415938D03*
%TD*%
%TO.P,VCC,1*%
%TO.N,/Feedback_V*%
X112081624Y-135415938D03*
%TD*%
D17*
%TO.P,C1,1*%
%TO.N,VCC*%
X94131623Y-159340938D03*
%TO.P,C1,2*%
%TO.N,GND*%
X94131623Y-157790938D03*
%TD*%
D16*
%TO.P,R2,1*%
%TO.N,VCC*%
X105550000Y-158512500D03*
%TO.P,R2,2*%
%TO.N,Net-(R1-Pad1)*%
X105550000Y-156687500D03*
%TD*%
D18*
%TO.P,SW1,1,A*%
%TO.N,unconnected-(SW1-Pad1)*%
X82800000Y-154115938D03*
%TO.P,SW1,2,B*%
%TO.N,unconnected-(SW1-Pad2)*%
X82800000Y-152115938D03*
%TO.P,SW1,3,C*%
%TO.N,unconnected-(SW1-Pad3)*%
X82800000Y-150115938D03*
%TO.P,SW1,4,A*%
%TO.N,GND*%
X87800000Y-154115938D03*
%TO.P,SW1,5,B*%
%TO.N,Net-(IC1-Pad4)*%
X87800000Y-152115938D03*
%TO.P,SW1,6,C*%
%TO.N,unconnected-(SW1-Pad6)*%
X87800000Y-150115938D03*
%TD*%
D19*
%TO.P,D10,1,K*%
%TO.N,/LED_Cathode*%
X98471623Y-130815938D03*
%TO.P,D10,2,A*%
%TO.N,/Feedback_V*%
X100691623Y-130815938D03*
D20*
%TO.P,D10,3*%
%TO.N,N/C*%
X99581623Y-130815938D03*
%TD*%
D19*
%TO.P,D13,1,K*%
%TO.N,Net-(D13-Pad1)*%
X103471623Y-113015938D03*
%TO.P,D13,2,A*%
%TO.N,/Feedback_V*%
X105691623Y-113015938D03*
D20*
%TO.P,D13,3*%
%TO.N,N/C*%
X104581623Y-113015938D03*
%TD*%
D10*
%TO.P,VCC,1*%
%TO.N,/LED_Cathode*%
X87081624Y-135415938D03*
%TD*%
D21*
%TO.P,GND,1*%
%TO.N,GND*%
X89581624Y-158565939D03*
%TD*%
D12*
%TO.P,D20,1,K*%
%TO.N,/LED_Cathode*%
X97616624Y-140084738D03*
D11*
X97616624Y-136154738D03*
D14*
%TO.P,D20,2,A*%
%TO.N,/Feedback_V*%
X101546624Y-136154738D03*
D13*
X101546624Y-140084738D03*
D15*
%TO.P,D20,5*%
%TO.N,N/C*%
X99581624Y-138119738D03*
%TD*%
D22*
%TO.P,D1,1,K*%
%TO.N,VCC*%
X101581623Y-158515938D03*
%TO.P,D1,2,A*%
%TO.N,/SW*%
X97581623Y-158515938D03*
%TD*%
D19*
%TO.P,D14,1,K*%
%TO.N,Net-(D15-Pad2)*%
X98471623Y-113015938D03*
%TO.P,D14,2,A*%
%TO.N,Net-(D13-Pad1)*%
X100691623Y-113015938D03*
D20*
%TO.P,D14,3*%
%TO.N,N/C*%
X99581623Y-113015938D03*
%TD*%
D19*
%TO.P,D11,1,K*%
%TO.N,Net-(D11-Pad1)*%
X101471624Y-122415939D03*
%TO.P,D11,2,A*%
%TO.N,/Feedback_V*%
X103691624Y-122415939D03*
D20*
%TO.P,D11,3*%
%TO.N,N/C*%
X102581624Y-122415939D03*
%TD*%
D23*
%TO.P,IC1,1,SET*%
%TO.N,/Feedback_V*%
X101731623Y-155390938D03*
%TO.P,IC1,2,GND_1*%
%TO.N,GND*%
X101731623Y-154740938D03*
%TO.P,IC1,3,GND_2*%
X101731623Y-154090938D03*
%TO.P,IC1,4,CTRL*%
%TO.N,Net-(IC1-Pad4)*%
X101731623Y-153440938D03*
%TO.P,IC1,5,SW_1*%
%TO.N,/SW*%
X97431623Y-153440938D03*
%TO.P,IC1,6,SW_2*%
X97431623Y-154090938D03*
%TO.P,IC1,7,N/C*%
%TO.N,unconnected-(IC1-Pad7)*%
X97431623Y-154740938D03*
%TO.P,IC1,8,VIN*%
%TO.N,VCC*%
X97431623Y-155390938D03*
D24*
%TO.P,IC1,9,EP*%
%TO.N,unconnected-(IC1-Pad9)*%
X99581623Y-154415938D03*
%TD*%
D21*
%TO.P,VCC,1*%
%TO.N,VCC*%
X109581624Y-158565939D03*
%TD*%
D19*
%TO.P,D15,1,K*%
%TO.N,/LED_Cathode*%
X93471624Y-113015938D03*
%TO.P,D15,2,A*%
%TO.N,Net-(D15-Pad2)*%
X95691624Y-113015938D03*
D20*
%TO.P,D15,3*%
%TO.N,N/C*%
X94581624Y-113015938D03*
%TD*%
D19*
%TO.P,D12,1,K*%
%TO.N,/LED_Cathode*%
X95471624Y-122415938D03*
%TO.P,D12,2,A*%
%TO.N,Net-(D11-Pad1)*%
X97691624Y-122415938D03*
D20*
%TO.P,D12,3*%
%TO.N,N/C*%
X96581624Y-122415938D03*
%TD*%
D25*
%TO.P,L1,1,1*%
%TO.N,/LED_Cathode*%
X93031623Y-149065938D03*
%TO.P,L1,2,2*%
%TO.N,/SW*%
X93031623Y-153765938D03*
%TD*%
D26*
%TO.N,VCC*%
X101619124Y-158478438D02*
X101581624Y-158515938D01*
D27*
X101581624Y-159715938D02*
X101581624Y-158515938D01*
X101131624Y-160165938D02*
X101581624Y-159715938D01*
X94956623Y-160165938D02*
X101131624Y-160165938D01*
X94131623Y-159340937D02*
X94956623Y-160165938D01*
%TO.N,/Feedback_V*%
X105550000Y-153481441D02*
X105550000Y-153287500D01*
X103959062Y-155390938D02*
X104450480Y-154899520D01*
D26*
X105550000Y-153287500D02*
X105550000Y-145000000D01*
D27*
X104450480Y-154899520D02*
X104450480Y-154580961D01*
X101731623Y-155390938D02*
X103959062Y-155390938D01*
X104450480Y-154580961D02*
X105550000Y-153481441D01*
D26*
%TO.N,/SW*%
X93031623Y-153765938D02*
X93031623Y-154315938D01*
D27*
X97431623Y-154090938D02*
X93356624Y-154090938D01*
D26*
X97231623Y-158515938D02*
X97581624Y-158515937D01*
D27*
X97431624Y-153440938D02*
X93356623Y-153440938D01*
D26*
X93031623Y-154315938D02*
X97231623Y-158515938D01*
%TO.N,/LED_Cathode*%
X93031624Y-149065938D02*
X93031624Y-145265938D01*
D28*
%TO.N,Net-(IC1-Pad4)*%
X101731623Y-152890938D02*
X100956623Y-152115938D01*
X100956623Y-152115938D02*
X87800000Y-152115938D01*
X101731624Y-153440938D02*
X101731623Y-152890938D01*
D27*
%TO.N,Net-(R1-Pad1)*%
X105550000Y-156687500D02*
X105550000Y-155112500D01*
D29*
%TO.N,Net-(D11-Pad1)*%
X101471624Y-122415938D02*
X97691623Y-122415938D01*
%TO.N,Net-(D13-Pad1)*%
X103471624Y-113015938D02*
X100691623Y-113015938D01*
%TO.N,Net-(D15-Pad2)*%
X98471623Y-113015938D02*
X95691622Y-113015938D01*
D26*
%TO.N,Net-(D22-Pad2)*%
X99581623Y-106070938D02*
X99581623Y-104958536D01*
X99581623Y-106070938D02*
X98271624Y-107380938D01*
X98271624Y-107380938D02*
X97546623Y-107380938D01*
X99581623Y-104760938D02*
X99581623Y-106070938D01*
X101616624Y-107380938D02*
X97546623Y-107380938D01*
X99581623Y-104958536D02*
X98074025Y-103450938D01*
X100891624Y-107380939D02*
X99581623Y-106070938D01*
X101616624Y-107380938D02*
X100891624Y-107380939D01*
X101616623Y-103450938D02*
X100891624Y-103450938D01*
X98074025Y-103450938D02*
X97546624Y-103450938D01*
X101616623Y-103450938D02*
X97546624Y-103450938D01*
X100891624Y-103450938D02*
X99581623Y-104760938D01*
%TD*%
%TA.AperFunction,Conductor*%
%TO.N,VCC*%
G36*
X119201200Y-147029324D02*
G01*
X119269309Y-147049367D01*
X119315769Y-147103051D01*
X119327124Y-147155324D01*
X119327124Y-159258331D01*
X119307122Y-159326452D01*
X119290219Y-159347426D01*
X116513111Y-162124533D01*
X116450799Y-162158559D01*
X116424016Y-162161438D01*
X97207623Y-162161438D01*
X97139502Y-162141436D01*
X97093009Y-162087780D01*
X97081623Y-162035438D01*
X97081623Y-160025746D01*
X107823625Y-160025746D01*
X107823745Y-160029640D01*
X107826414Y-160072832D01*
X107827750Y-160082411D01*
X107871672Y-160283012D01*
X107875319Y-160294371D01*
X107955930Y-160481998D01*
X107961665Y-160492472D01*
X108076293Y-160661461D01*
X108083906Y-160670663D01*
X108228426Y-160814931D01*
X108237639Y-160822526D01*
X108406830Y-160936861D01*
X108417314Y-160942577D01*
X108605074Y-161022857D01*
X108616445Y-161026486D01*
X108817104Y-161070054D01*
X108826724Y-161071376D01*
X108868011Y-161073829D01*
X108871726Y-161073939D01*
X109309509Y-161073939D01*
X109324748Y-161069464D01*
X109325953Y-161068074D01*
X109327624Y-161060391D01*
X109327624Y-161055823D01*
X109835624Y-161055823D01*
X109840099Y-161071062D01*
X109841489Y-161072267D01*
X109849172Y-161073938D01*
X110291431Y-161073938D01*
X110295325Y-161073818D01*
X110338517Y-161071149D01*
X110348096Y-161069813D01*
X110548697Y-161025891D01*
X110560056Y-161022244D01*
X110747683Y-160941633D01*
X110758157Y-160935898D01*
X110927146Y-160821270D01*
X110936348Y-160813657D01*
X111080616Y-160669137D01*
X111088211Y-160659924D01*
X111202546Y-160490733D01*
X111208262Y-160480249D01*
X111288542Y-160292489D01*
X111292171Y-160281118D01*
X111335739Y-160080459D01*
X111337061Y-160070839D01*
X111339514Y-160029552D01*
X111339624Y-160025837D01*
X111339624Y-158838054D01*
X111335149Y-158822815D01*
X111333759Y-158821610D01*
X111326076Y-158819939D01*
X109853739Y-158819939D01*
X109838500Y-158824414D01*
X109837295Y-158825804D01*
X109835624Y-158833487D01*
X109835624Y-161055823D01*
X109327624Y-161055823D01*
X109327624Y-158838054D01*
X109323149Y-158822815D01*
X109321759Y-158821610D01*
X109314076Y-158819939D01*
X107841740Y-158819939D01*
X107826501Y-158824414D01*
X107825296Y-158825804D01*
X107823625Y-158833487D01*
X107823625Y-160025746D01*
X97081623Y-160025746D01*
X97081623Y-159796438D01*
X97101625Y-159728317D01*
X97155281Y-159681824D01*
X97207623Y-159670438D01*
X98838614Y-159670437D01*
X98856689Y-159670437D01*
X98892441Y-159663326D01*
X98918749Y-159658094D01*
X98918751Y-159658093D01*
X98930924Y-159655672D01*
X98941244Y-159648777D01*
X98941245Y-159648776D01*
X99004791Y-159606315D01*
X99015107Y-159599422D01*
X99059490Y-159532999D01*
X99064462Y-159525558D01*
X99071357Y-159515239D01*
X99082224Y-159460607D01*
X99823624Y-159460607D01*
X99823994Y-159467428D01*
X99829518Y-159518290D01*
X99833144Y-159533542D01*
X99878299Y-159653992D01*
X99886837Y-159669587D01*
X99963338Y-159771662D01*
X99975899Y-159784223D01*
X100077974Y-159860724D01*
X100093569Y-159869262D01*
X100214017Y-159914416D01*
X100229272Y-159918043D01*
X100280137Y-159923569D01*
X100286951Y-159923938D01*
X101309508Y-159923938D01*
X101324747Y-159919463D01*
X101325952Y-159918073D01*
X101327623Y-159910390D01*
X101327623Y-159905822D01*
X101835623Y-159905822D01*
X101840098Y-159921061D01*
X101841488Y-159922266D01*
X101849171Y-159923937D01*
X102876292Y-159923937D01*
X102883113Y-159923567D01*
X102933975Y-159918043D01*
X102949227Y-159914417D01*
X103069677Y-159869262D01*
X103085272Y-159860724D01*
X103187347Y-159784223D01*
X103199908Y-159771662D01*
X103276409Y-159669587D01*
X103284947Y-159653992D01*
X103330101Y-159533544D01*
X103333728Y-159518289D01*
X103339254Y-159467424D01*
X103339623Y-159460610D01*
X103339623Y-158822095D01*
X104342001Y-158822095D01*
X104342338Y-158828614D01*
X104352257Y-158924206D01*
X104355149Y-158937600D01*
X104406588Y-159091784D01*
X104412761Y-159104962D01*
X104498063Y-159242807D01*
X104507099Y-159254208D01*
X104621829Y-159368739D01*
X104633240Y-159377751D01*
X104771243Y-159462816D01*
X104784424Y-159468963D01*
X104938710Y-159520138D01*
X104952086Y-159523005D01*
X105046438Y-159532672D01*
X105052854Y-159533000D01*
X105277885Y-159533000D01*
X105293124Y-159528525D01*
X105294329Y-159527135D01*
X105296000Y-159519452D01*
X105296000Y-159514884D01*
X105804000Y-159514884D01*
X105808475Y-159530123D01*
X105809865Y-159531328D01*
X105817548Y-159532999D01*
X106047095Y-159532999D01*
X106053614Y-159532662D01*
X106149206Y-159522743D01*
X106162600Y-159519851D01*
X106316784Y-159468412D01*
X106329962Y-159462239D01*
X106467807Y-159376937D01*
X106479208Y-159367901D01*
X106593739Y-159253171D01*
X106602751Y-159241760D01*
X106687816Y-159103757D01*
X106693963Y-159090576D01*
X106745138Y-158936290D01*
X106748005Y-158922914D01*
X106757672Y-158828562D01*
X106758000Y-158822146D01*
X106758000Y-158784615D01*
X106753525Y-158769376D01*
X106752135Y-158768171D01*
X106744452Y-158766500D01*
X105822115Y-158766500D01*
X105806876Y-158770975D01*
X105805671Y-158772365D01*
X105804000Y-158780048D01*
X105804000Y-159514884D01*
X105296000Y-159514884D01*
X105296000Y-158784615D01*
X105291525Y-158769376D01*
X105290135Y-158768171D01*
X105282452Y-158766500D01*
X104360116Y-158766500D01*
X104344877Y-158770975D01*
X104343672Y-158772365D01*
X104342001Y-158780048D01*
X104342001Y-158822095D01*
X103339623Y-158822095D01*
X103339623Y-158788053D01*
X103335148Y-158772814D01*
X103333758Y-158771609D01*
X103326075Y-158769938D01*
X101853738Y-158769938D01*
X101838499Y-158774413D01*
X101837294Y-158775803D01*
X101835623Y-158783486D01*
X101835623Y-159905822D01*
X101327623Y-159905822D01*
X101327623Y-158788053D01*
X101323148Y-158772814D01*
X101321758Y-158771609D01*
X101314075Y-158769938D01*
X99841739Y-158769938D01*
X99826500Y-158774413D01*
X99825295Y-158775803D01*
X99823624Y-158783486D01*
X99823624Y-159460607D01*
X99082224Y-159460607D01*
X99086123Y-159441005D01*
X99086122Y-158293824D01*
X107823624Y-158293824D01*
X107828099Y-158309063D01*
X107829489Y-158310268D01*
X107837172Y-158311939D01*
X109309509Y-158311939D01*
X109324748Y-158307464D01*
X109325953Y-158306074D01*
X109327624Y-158298391D01*
X109327624Y-158293824D01*
X109835624Y-158293824D01*
X109840099Y-158309063D01*
X109841489Y-158310268D01*
X109849172Y-158311939D01*
X111321508Y-158311939D01*
X111336747Y-158307464D01*
X111337952Y-158306074D01*
X111339623Y-158298391D01*
X111339623Y-157106133D01*
X111339503Y-157102238D01*
X111336834Y-157059046D01*
X111335498Y-157049467D01*
X111291576Y-156848866D01*
X111287929Y-156837507D01*
X111207318Y-156649880D01*
X111201583Y-156639406D01*
X111086955Y-156470417D01*
X111079342Y-156461215D01*
X110934822Y-156316947D01*
X110925609Y-156309352D01*
X110756418Y-156195017D01*
X110745934Y-156189301D01*
X110558174Y-156109021D01*
X110546803Y-156105392D01*
X110346144Y-156061824D01*
X110336524Y-156060502D01*
X110295237Y-156058049D01*
X110291522Y-156057939D01*
X109853739Y-156057939D01*
X109838500Y-156062414D01*
X109837295Y-156063804D01*
X109835624Y-156071487D01*
X109835624Y-158293824D01*
X109327624Y-158293824D01*
X109327624Y-156076055D01*
X109323149Y-156060816D01*
X109321759Y-156059611D01*
X109314076Y-156057940D01*
X108871818Y-156057940D01*
X108867923Y-156058060D01*
X108824731Y-156060729D01*
X108815152Y-156062065D01*
X108614551Y-156105987D01*
X108603192Y-156109634D01*
X108415565Y-156190245D01*
X108405091Y-156195980D01*
X108236102Y-156310608D01*
X108226900Y-156318221D01*
X108082632Y-156462741D01*
X108075037Y-156471954D01*
X107960702Y-156641145D01*
X107954986Y-156651629D01*
X107874706Y-156839389D01*
X107871077Y-156850760D01*
X107827509Y-157051419D01*
X107826187Y-157061039D01*
X107823734Y-157102326D01*
X107823624Y-157106041D01*
X107823624Y-158293824D01*
X99086122Y-158293824D01*
X99086122Y-158243823D01*
X99823623Y-158243823D01*
X99828098Y-158259062D01*
X99829488Y-158260267D01*
X99837171Y-158261938D01*
X101309508Y-158261938D01*
X101324747Y-158257463D01*
X101325952Y-158256073D01*
X101327623Y-158248390D01*
X101327623Y-158243823D01*
X101835623Y-158243823D01*
X101840098Y-158259062D01*
X101841488Y-158260267D01*
X101849171Y-158261938D01*
X103321507Y-158261938D01*
X103336746Y-158257463D01*
X103337951Y-158256073D01*
X103339622Y-158248390D01*
X103339622Y-157571269D01*
X103339252Y-157564448D01*
X103333728Y-157513586D01*
X103330102Y-157498334D01*
X103284947Y-157377884D01*
X103276409Y-157362289D01*
X103199908Y-157260214D01*
X103187347Y-157247653D01*
X103085272Y-157171152D01*
X103069677Y-157162614D01*
X102949229Y-157117460D01*
X102933974Y-157113833D01*
X102883109Y-157108307D01*
X102876295Y-157107938D01*
X101853738Y-157107938D01*
X101838499Y-157112413D01*
X101837294Y-157113803D01*
X101835623Y-157121486D01*
X101835623Y-158243823D01*
X101327623Y-158243823D01*
X101327623Y-157126054D01*
X101323148Y-157110815D01*
X101321758Y-157109610D01*
X101314075Y-157107939D01*
X100286954Y-157107939D01*
X100280133Y-157108309D01*
X100229271Y-157113833D01*
X100214019Y-157117459D01*
X100093569Y-157162614D01*
X100077974Y-157171152D01*
X99975899Y-157247653D01*
X99963338Y-157260214D01*
X99886837Y-157362289D01*
X99878299Y-157377884D01*
X99833145Y-157498332D01*
X99829518Y-157513587D01*
X99823992Y-157564452D01*
X99823623Y-157571266D01*
X99823623Y-158243823D01*
X99086122Y-158243823D01*
X99086122Y-157590872D01*
X99071357Y-157516637D01*
X99015107Y-157432454D01*
X98930924Y-157376204D01*
X98856690Y-157361438D01*
X98814432Y-157361438D01*
X97207623Y-157361439D01*
X97139502Y-157341437D01*
X97093009Y-157287781D01*
X97081623Y-157235439D01*
X97081623Y-156224938D01*
X97101625Y-156156817D01*
X97155281Y-156110324D01*
X97207623Y-156098938D01*
X97213508Y-156098938D01*
X97228747Y-156094463D01*
X97229952Y-156093073D01*
X97231623Y-156085390D01*
X97231623Y-155321438D01*
X97251625Y-155253317D01*
X97305281Y-155206824D01*
X97357623Y-155195438D01*
X97505623Y-155195438D01*
X97573744Y-155215440D01*
X97620237Y-155269096D01*
X97631623Y-155321438D01*
X97631623Y-156080822D01*
X97636098Y-156096061D01*
X97637488Y-156097266D01*
X97645171Y-156098937D01*
X98092346Y-156098937D01*
X98100558Y-156098399D01*
X98207156Y-156084366D01*
X98222971Y-156080128D01*
X98355616Y-156025185D01*
X98369799Y-156016997D01*
X98483703Y-155929594D01*
X98495279Y-155918018D01*
X98582682Y-155804114D01*
X98590870Y-155789931D01*
X98633000Y-155688220D01*
X98677548Y-155632939D01*
X98749409Y-155610438D01*
X100172426Y-155610437D01*
X100446689Y-155610437D01*
X100483945Y-155603027D01*
X100508749Y-155598094D01*
X100508751Y-155598093D01*
X100520924Y-155595672D01*
X100583602Y-155553791D01*
X100651353Y-155532577D01*
X100719820Y-155551360D01*
X100766706Y-155603027D01*
X100808534Y-155688220D01*
X100814393Y-155700154D01*
X100897917Y-155783533D01*
X101003946Y-155835361D01*
X101029302Y-155839060D01*
X101068495Y-155844778D01*
X101068499Y-155844778D01*
X101073021Y-155845438D01*
X103924606Y-155845438D01*
X103939416Y-155846311D01*
X103973500Y-155850345D01*
X103982764Y-155848653D01*
X103982767Y-155848653D01*
X104031742Y-155839709D01*
X104035644Y-155839060D01*
X104084898Y-155831654D01*
X104084901Y-155831653D01*
X104094213Y-155830253D01*
X104100780Y-155827100D01*
X104107945Y-155825791D01*
X104160529Y-155798476D01*
X104164019Y-155796733D01*
X104217415Y-155771092D01*
X104222710Y-155766197D01*
X104222849Y-155766104D01*
X104229228Y-155762790D01*
X104234316Y-155758444D01*
X104271898Y-155720862D01*
X104275464Y-155717432D01*
X104310860Y-155684712D01*
X104317774Y-155678321D01*
X104321492Y-155671921D01*
X104327099Y-155665661D01*
X104438220Y-155554540D01*
X104500532Y-155520514D01*
X104571347Y-155525579D01*
X104628183Y-155568126D01*
X104645297Y-155599404D01*
X104652929Y-155619764D01*
X104658309Y-155626943D01*
X104658311Y-155626946D01*
X104704234Y-155688220D01*
X104739596Y-155735404D01*
X104746776Y-155740785D01*
X104824684Y-155799174D01*
X104867199Y-155856033D01*
X104872225Y-155926852D01*
X104838165Y-155989145D01*
X104824684Y-156000826D01*
X104739596Y-156064596D01*
X104734215Y-156071776D01*
X104658311Y-156173054D01*
X104658309Y-156173057D01*
X104652929Y-156180236D01*
X104602202Y-156315552D01*
X104595500Y-156377244D01*
X104595500Y-156997756D01*
X104602202Y-157059448D01*
X104652929Y-157194764D01*
X104658309Y-157201943D01*
X104658311Y-157201946D01*
X104683413Y-157235439D01*
X104739596Y-157310404D01*
X104790546Y-157348589D01*
X104833059Y-157405446D01*
X104838085Y-157476264D01*
X104804025Y-157538558D01*
X104775885Y-157558287D01*
X104776268Y-157558906D01*
X104632193Y-157648063D01*
X104620792Y-157657099D01*
X104506261Y-157771829D01*
X104497249Y-157783240D01*
X104412184Y-157921243D01*
X104406037Y-157934424D01*
X104354862Y-158088710D01*
X104351995Y-158102086D01*
X104342328Y-158196438D01*
X104342000Y-158202854D01*
X104342000Y-158240385D01*
X104346475Y-158255624D01*
X104347865Y-158256829D01*
X104355548Y-158258500D01*
X106739884Y-158258500D01*
X106755123Y-158254025D01*
X106756328Y-158252635D01*
X106757999Y-158244952D01*
X106757999Y-158202905D01*
X106757662Y-158196386D01*
X106747743Y-158100794D01*
X106744851Y-158087400D01*
X106693412Y-157933216D01*
X106687239Y-157920038D01*
X106601937Y-157782193D01*
X106592901Y-157770792D01*
X106478171Y-157656261D01*
X106466760Y-157647249D01*
X106322525Y-157558342D01*
X106323683Y-157556464D01*
X106278495Y-157516668D01*
X106259041Y-157448389D01*
X106279590Y-157380431D01*
X106309468Y-157348578D01*
X106360404Y-157310404D01*
X106416587Y-157235439D01*
X106441689Y-157201946D01*
X106441691Y-157201943D01*
X106447071Y-157194764D01*
X106497798Y-157059448D01*
X106504500Y-156997756D01*
X106504500Y-156377244D01*
X106497798Y-156315552D01*
X106447071Y-156180236D01*
X106441691Y-156173057D01*
X106441689Y-156173054D01*
X106365785Y-156071776D01*
X106360404Y-156064596D01*
X106275316Y-156000826D01*
X106232801Y-155943967D01*
X106227775Y-155873148D01*
X106261835Y-155810855D01*
X106275316Y-155799174D01*
X106353224Y-155740785D01*
X106360404Y-155735404D01*
X106395766Y-155688220D01*
X106441689Y-155626946D01*
X106441691Y-155626943D01*
X106447071Y-155619764D01*
X106497798Y-155484448D01*
X106504500Y-155422756D01*
X106504500Y-154802244D01*
X106497798Y-154740552D01*
X106488358Y-154715369D01*
X106450221Y-154613640D01*
X106447071Y-154605236D01*
X106441691Y-154598057D01*
X106441689Y-154598054D01*
X106365785Y-154496776D01*
X106360404Y-154489596D01*
X106339253Y-154473744D01*
X106251946Y-154408311D01*
X106251943Y-154408309D01*
X106244764Y-154402929D01*
X106155046Y-154369296D01*
X106116843Y-154354974D01*
X106116841Y-154354974D01*
X106109448Y-154352202D01*
X106101598Y-154351349D01*
X106101597Y-154351349D01*
X106051153Y-154345869D01*
X106051152Y-154345869D01*
X106047756Y-154345500D01*
X105632891Y-154345500D01*
X105564770Y-154325498D01*
X105518277Y-154271842D01*
X105508173Y-154201568D01*
X105537667Y-154136988D01*
X105543796Y-154130405D01*
X105582796Y-154091405D01*
X105645108Y-154057379D01*
X105671891Y-154054500D01*
X106047756Y-154054500D01*
X106051153Y-154054131D01*
X106101597Y-154048651D01*
X106101598Y-154048651D01*
X106109448Y-154047798D01*
X106116841Y-154045026D01*
X106116843Y-154045026D01*
X106155046Y-154030704D01*
X106244764Y-153997071D01*
X106251943Y-153991691D01*
X106251946Y-153991689D01*
X106353224Y-153915785D01*
X106360404Y-153910404D01*
X106379590Y-153884804D01*
X106441689Y-153801946D01*
X106441691Y-153801943D01*
X106447071Y-153794764D01*
X106497798Y-153659448D01*
X106504500Y-153597756D01*
X106504500Y-152977244D01*
X106497798Y-152915552D01*
X106447071Y-152780236D01*
X106441691Y-152773057D01*
X106441689Y-152773054D01*
X106365785Y-152671776D01*
X106360404Y-152664596D01*
X106336176Y-152646438D01*
X106251946Y-152583311D01*
X106251943Y-152583309D01*
X106244764Y-152577929D01*
X106236362Y-152574779D01*
X106236358Y-152574777D01*
X106236269Y-152574744D01*
X106236194Y-152574687D01*
X106228485Y-152570467D01*
X106229094Y-152569354D01*
X106179505Y-152532102D01*
X106154806Y-152465540D01*
X106154500Y-152456763D01*
X106154500Y-147147505D01*
X106174502Y-147079384D01*
X106228158Y-147032891D01*
X106280576Y-147021505D01*
X119201200Y-147029324D01*
G37*
%TD.AperFunction*%
%TD*%
%TA.AperFunction,Conductor*%
%TO.N,/Feedback_V*%
G36*
X116492137Y-97690440D02*
G01*
X116513111Y-97707343D01*
X119290219Y-100484450D01*
X119324245Y-100546762D01*
X119327124Y-100573545D01*
X119327123Y-105288967D01*
X119327122Y-119180776D01*
X119307120Y-119248897D01*
X119257472Y-119293473D01*
X118848429Y-119497995D01*
X117512257Y-120166081D01*
X117504130Y-120169790D01*
X117494489Y-120173784D01*
X117482323Y-120176204D01*
X117472008Y-120183097D01*
X117472007Y-120183097D01*
X117460098Y-120191055D01*
X117456113Y-120193369D01*
X117456164Y-120193450D01*
X117450920Y-120196751D01*
X117445387Y-120199517D01*
X117440500Y-120203310D01*
X117440498Y-120203311D01*
X117436248Y-120206609D01*
X117429002Y-120211831D01*
X117408455Y-120225561D01*
X117408453Y-120225563D01*
X117398140Y-120232454D01*
X117392961Y-120240204D01*
X117385594Y-120245922D01*
X117379449Y-120256702D01*
X117367212Y-120278169D01*
X117362511Y-120285775D01*
X117348786Y-120306316D01*
X117341890Y-120316637D01*
X117340071Y-120325783D01*
X117335454Y-120333882D01*
X117333902Y-120346191D01*
X117333902Y-120346192D01*
X117330811Y-120370714D01*
X117329379Y-120379533D01*
X117327124Y-120390871D01*
X117327124Y-120397062D01*
X117326517Y-120403225D01*
X117326423Y-120403216D01*
X117326135Y-120407806D01*
X117322791Y-120434333D01*
X117326069Y-120446303D01*
X117326807Y-120456682D01*
X117327124Y-120465616D01*
X117327124Y-124366260D01*
X117326807Y-124375194D01*
X117326069Y-124385573D01*
X117322791Y-124397543D01*
X117324343Y-124409855D01*
X117326135Y-124424070D01*
X117326423Y-124428660D01*
X117326517Y-124428651D01*
X117327124Y-124434814D01*
X117327124Y-124441005D01*
X117328332Y-124447076D01*
X117328332Y-124447079D01*
X117329379Y-124452340D01*
X117330811Y-124461162D01*
X117333611Y-124483370D01*
X117335454Y-124497994D01*
X117340071Y-124506093D01*
X117341890Y-124515239D01*
X117348785Y-124525558D01*
X117348786Y-124525560D01*
X117362511Y-124546101D01*
X117367212Y-124553707D01*
X117385594Y-124585954D01*
X117392961Y-124591672D01*
X117398140Y-124599422D01*
X117408453Y-124606313D01*
X117408455Y-124606315D01*
X117429002Y-124620045D01*
X117436248Y-124625267D01*
X117440498Y-124628565D01*
X117445387Y-124632359D01*
X117450920Y-124635125D01*
X117456164Y-124638426D01*
X117456113Y-124638507D01*
X117460097Y-124640820D01*
X117482323Y-124655672D01*
X117494496Y-124658093D01*
X117504123Y-124662081D01*
X117512243Y-124665787D01*
X117951117Y-124885224D01*
X119257472Y-125538402D01*
X119309456Y-125586757D01*
X119327123Y-125651100D01*
X119327124Y-140180775D01*
X119307122Y-140248896D01*
X119257473Y-140293473D01*
X117512243Y-141166088D01*
X117504122Y-141169794D01*
X117494495Y-141173782D01*
X117482322Y-141176203D01*
X117460094Y-141191056D01*
X117456115Y-141193367D01*
X117456166Y-141193448D01*
X117450923Y-141196749D01*
X117445387Y-141199516D01*
X117440496Y-141203312D01*
X117440494Y-141203313D01*
X117436257Y-141206601D01*
X117429015Y-141211821D01*
X117408452Y-141225561D01*
X117408449Y-141225564D01*
X117398139Y-141232453D01*
X117392960Y-141240203D01*
X117385593Y-141245921D01*
X117379447Y-141256703D01*
X117367211Y-141278168D01*
X117362512Y-141285772D01*
X117341889Y-141316636D01*
X117340070Y-141325780D01*
X117335453Y-141333880D01*
X117333902Y-141346188D01*
X117333901Y-141346190D01*
X117330811Y-141370707D01*
X117329378Y-141379535D01*
X117327123Y-141390870D01*
X117327123Y-141397060D01*
X117326516Y-141403223D01*
X117326422Y-141403214D01*
X117326134Y-141407805D01*
X117322790Y-141434332D01*
X117326068Y-141446302D01*
X117326806Y-141456681D01*
X117327123Y-141465615D01*
X117327123Y-145366260D01*
X117326806Y-145375194D01*
X117326068Y-145385573D01*
X117322790Y-145397543D01*
X117324342Y-145409855D01*
X117326134Y-145424070D01*
X117326422Y-145428661D01*
X117326516Y-145428652D01*
X117327123Y-145434815D01*
X117327123Y-145441005D01*
X117328331Y-145447075D01*
X117328331Y-145447079D01*
X117329378Y-145452340D01*
X117330811Y-145461168D01*
X117335453Y-145497995D01*
X117340070Y-145506095D01*
X117341889Y-145515239D01*
X117348783Y-145525556D01*
X117362512Y-145546103D01*
X117367211Y-145553707D01*
X117385593Y-145585954D01*
X117392960Y-145591672D01*
X117398139Y-145599422D01*
X117408449Y-145606311D01*
X117408452Y-145606314D01*
X117429015Y-145620054D01*
X117436257Y-145625274D01*
X117440494Y-145628562D01*
X117445387Y-145632359D01*
X117450923Y-145635126D01*
X117456166Y-145638427D01*
X117456115Y-145638508D01*
X117460093Y-145640818D01*
X117482322Y-145655672D01*
X117494495Y-145658093D01*
X117504122Y-145662081D01*
X117512242Y-145665787D01*
X117742285Y-145780808D01*
X118552605Y-146185969D01*
X118604589Y-146234324D01*
X118622178Y-146303108D01*
X118599787Y-146370481D01*
X118544527Y-146415054D01*
X118496551Y-146424666D01*
X100961575Y-146465103D01*
X100893408Y-146445258D01*
X100846791Y-146391709D01*
X100836525Y-146321459D01*
X100865870Y-146256810D01*
X100877219Y-146245247D01*
X100913466Y-146212782D01*
X100913478Y-146212769D01*
X100916789Y-146209804D01*
X101085777Y-146008770D01*
X101224752Y-145785930D01*
X101330942Y-145545732D01*
X101402229Y-145292967D01*
X101403662Y-145282295D01*
X101436763Y-145035862D01*
X101436764Y-145035854D01*
X101437190Y-145032680D01*
X101440859Y-144915938D01*
X101422311Y-144653969D01*
X101379636Y-144455750D01*
X101367972Y-144401575D01*
X101367972Y-144401573D01*
X101367036Y-144397228D01*
X101276137Y-144150836D01*
X101151428Y-143919710D01*
X100995397Y-143708461D01*
X100832617Y-143543103D01*
X100799083Y-143480525D01*
X100796411Y-143454624D01*
X100797916Y-141443643D01*
X100817969Y-141375538D01*
X100871660Y-141329085D01*
X100923916Y-141317738D01*
X101274509Y-141317738D01*
X101289748Y-141313263D01*
X101290953Y-141311873D01*
X101292624Y-141304190D01*
X101292624Y-141299622D01*
X101800624Y-141299622D01*
X101805099Y-141314861D01*
X101806489Y-141316066D01*
X101814172Y-141317737D01*
X102316293Y-141317737D01*
X102323114Y-141317367D01*
X102373976Y-141311843D01*
X102389228Y-141308217D01*
X102509678Y-141263062D01*
X102525273Y-141254524D01*
X102627348Y-141178023D01*
X102639909Y-141165462D01*
X102716410Y-141063387D01*
X102724948Y-141047792D01*
X102770102Y-140927344D01*
X102773729Y-140912089D01*
X102779255Y-140861224D01*
X102779624Y-140854410D01*
X102779624Y-140356853D01*
X102775149Y-140341614D01*
X102773759Y-140340409D01*
X102766076Y-140338738D01*
X101818739Y-140338738D01*
X101803500Y-140343213D01*
X101802295Y-140344603D01*
X101800624Y-140352286D01*
X101800624Y-141299622D01*
X101292624Y-141299622D01*
X101292624Y-139956738D01*
X101312626Y-139888617D01*
X101366282Y-139842124D01*
X101418624Y-139830738D01*
X102761508Y-139830738D01*
X102776747Y-139826263D01*
X102777952Y-139824873D01*
X102779623Y-139817190D01*
X102779623Y-139315069D01*
X102779253Y-139308248D01*
X102773729Y-139257386D01*
X102770103Y-139242134D01*
X102724948Y-139121684D01*
X102716410Y-139106089D01*
X102639909Y-139004014D01*
X102627348Y-138991453D01*
X102525273Y-138914952D01*
X102509678Y-138906414D01*
X102389224Y-138861257D01*
X102370877Y-138856895D01*
X102309231Y-138821678D01*
X102276411Y-138758722D01*
X102274024Y-138734313D01*
X102274024Y-137505162D01*
X102294026Y-137437041D01*
X102347682Y-137390548D01*
X102370881Y-137382579D01*
X102389226Y-137378218D01*
X102509678Y-137333062D01*
X102525273Y-137324524D01*
X102627348Y-137248023D01*
X102639909Y-137235462D01*
X102716410Y-137133387D01*
X102724948Y-137117792D01*
X102770102Y-136997344D01*
X102773729Y-136982089D01*
X102779255Y-136931224D01*
X102779624Y-136924410D01*
X102779624Y-136426853D01*
X102775149Y-136411614D01*
X102773759Y-136410409D01*
X102766076Y-136408738D01*
X101418624Y-136408738D01*
X101350503Y-136388736D01*
X101304010Y-136335080D01*
X101292624Y-136282738D01*
X101292624Y-136225899D01*
X110073625Y-136225899D01*
X110073833Y-136231009D01*
X110084706Y-136364705D01*
X110086476Y-136375258D01*
X110139591Y-136582123D01*
X110143325Y-136592669D01*
X110232134Y-136786643D01*
X110237670Y-136796350D01*
X110359427Y-136971535D01*
X110366600Y-136980114D01*
X110517448Y-137130962D01*
X110526027Y-137138135D01*
X110701212Y-137259892D01*
X110710919Y-137265428D01*
X110904893Y-137354237D01*
X110915439Y-137357971D01*
X111122303Y-137411085D01*
X111132858Y-137412856D01*
X111266554Y-137423731D01*
X111271660Y-137423938D01*
X111809509Y-137423938D01*
X111824748Y-137419463D01*
X111825953Y-137418073D01*
X111827624Y-137410390D01*
X111827624Y-137405822D01*
X112335624Y-137405822D01*
X112340099Y-137421061D01*
X112341489Y-137422266D01*
X112349172Y-137423937D01*
X112891585Y-137423937D01*
X112896695Y-137423729D01*
X113030391Y-137412856D01*
X113040944Y-137411086D01*
X113247809Y-137357971D01*
X113258355Y-137354237D01*
X113452329Y-137265428D01*
X113462036Y-137259892D01*
X113637221Y-137138135D01*
X113645800Y-137130962D01*
X113796648Y-136980114D01*
X113803821Y-136971535D01*
X113925578Y-136796350D01*
X113931114Y-136786643D01*
X114019923Y-136592669D01*
X114023657Y-136582123D01*
X114076771Y-136375259D01*
X114078542Y-136364704D01*
X114089417Y-136231008D01*
X114089624Y-136225902D01*
X114089624Y-135688053D01*
X114085149Y-135672814D01*
X114083759Y-135671609D01*
X114076076Y-135669938D01*
X112353739Y-135669938D01*
X112338500Y-135674413D01*
X112337295Y-135675803D01*
X112335624Y-135683486D01*
X112335624Y-137405822D01*
X111827624Y-137405822D01*
X111827624Y-135688053D01*
X111823149Y-135672814D01*
X111821759Y-135671609D01*
X111814076Y-135669938D01*
X110091740Y-135669938D01*
X110076501Y-135674413D01*
X110075296Y-135675803D01*
X110073625Y-135683486D01*
X110073625Y-136225899D01*
X101292624Y-136225899D01*
X101292624Y-135882623D01*
X101800624Y-135882623D01*
X101805099Y-135897862D01*
X101806489Y-135899067D01*
X101814172Y-135900738D01*
X102761508Y-135900738D01*
X102776747Y-135896263D01*
X102777952Y-135894873D01*
X102779623Y-135887190D01*
X102779623Y-135385069D01*
X102779253Y-135378248D01*
X102773729Y-135327386D01*
X102770103Y-135312134D01*
X102724948Y-135191684D01*
X102716410Y-135176089D01*
X102692228Y-135143823D01*
X110073624Y-135143823D01*
X110078099Y-135159062D01*
X110079489Y-135160267D01*
X110087172Y-135161938D01*
X111809509Y-135161938D01*
X111824748Y-135157463D01*
X111825953Y-135156073D01*
X111827624Y-135148390D01*
X111827624Y-135143823D01*
X112335624Y-135143823D01*
X112340099Y-135159062D01*
X112341489Y-135160267D01*
X112349172Y-135161938D01*
X114071508Y-135161938D01*
X114086747Y-135157463D01*
X114087952Y-135156073D01*
X114089623Y-135148390D01*
X114089623Y-134605977D01*
X114089415Y-134600867D01*
X114078542Y-134467171D01*
X114076772Y-134456618D01*
X114023657Y-134249753D01*
X114019923Y-134239207D01*
X113931114Y-134045233D01*
X113925578Y-134035526D01*
X113803821Y-133860341D01*
X113796648Y-133851762D01*
X113645800Y-133700914D01*
X113637221Y-133693741D01*
X113462036Y-133571984D01*
X113452329Y-133566448D01*
X113258355Y-133477639D01*
X113247809Y-133473905D01*
X113040945Y-133420791D01*
X113030390Y-133419020D01*
X112896694Y-133408145D01*
X112891588Y-133407938D01*
X112353739Y-133407938D01*
X112338500Y-133412413D01*
X112337295Y-133413803D01*
X112335624Y-133421486D01*
X112335624Y-135143823D01*
X111827624Y-135143823D01*
X111827624Y-133426054D01*
X111823149Y-133410815D01*
X111821759Y-133409610D01*
X111814076Y-133407939D01*
X111271663Y-133407939D01*
X111266553Y-133408147D01*
X111132857Y-133419020D01*
X111122304Y-133420790D01*
X110915439Y-133473905D01*
X110904893Y-133477639D01*
X110710919Y-133566448D01*
X110701212Y-133571984D01*
X110526027Y-133693741D01*
X110517448Y-133700914D01*
X110366600Y-133851762D01*
X110359427Y-133860341D01*
X110237670Y-134035526D01*
X110232134Y-134045233D01*
X110143325Y-134239207D01*
X110139591Y-134249753D01*
X110086477Y-134456617D01*
X110084706Y-134467172D01*
X110073831Y-134600868D01*
X110073624Y-134605974D01*
X110073624Y-135143823D01*
X102692228Y-135143823D01*
X102639909Y-135074014D01*
X102627348Y-135061453D01*
X102525273Y-134984952D01*
X102509678Y-134976414D01*
X102389230Y-134931260D01*
X102373975Y-134927633D01*
X102323110Y-134922107D01*
X102316296Y-134921738D01*
X101818739Y-134921738D01*
X101803500Y-134926213D01*
X101802295Y-134927603D01*
X101800624Y-134935286D01*
X101800624Y-135882623D01*
X101292624Y-135882623D01*
X101292624Y-134939854D01*
X101288149Y-134924615D01*
X101286759Y-134923410D01*
X101279076Y-134921739D01*
X100928892Y-134921739D01*
X100860771Y-134901737D01*
X100814278Y-134848081D01*
X100802893Y-134795649D01*
X100804387Y-132799843D01*
X100824440Y-132731737D01*
X100878131Y-132685284D01*
X100930387Y-132673937D01*
X100996292Y-132673937D01*
X101003113Y-132673567D01*
X101053975Y-132668043D01*
X101069227Y-132664417D01*
X101189677Y-132619262D01*
X101205272Y-132610724D01*
X101307347Y-132534223D01*
X101319908Y-132521662D01*
X101396409Y-132419587D01*
X101404947Y-132403992D01*
X101450101Y-132283544D01*
X101453728Y-132268289D01*
X101459254Y-132217424D01*
X101459623Y-132210610D01*
X101459623Y-131088053D01*
X101455148Y-131072814D01*
X101453758Y-131071609D01*
X101446075Y-131069938D01*
X100805682Y-131069938D01*
X100806062Y-130561938D01*
X101441507Y-130561938D01*
X101456746Y-130557463D01*
X101457951Y-130556073D01*
X101459622Y-130548390D01*
X101459622Y-129421269D01*
X101459252Y-129414448D01*
X101453728Y-129363586D01*
X101450102Y-129348334D01*
X101404947Y-129227884D01*
X101396409Y-129212289D01*
X101319908Y-129110214D01*
X101307347Y-129097653D01*
X101205272Y-129021152D01*
X101189677Y-129012614D01*
X101069229Y-128967460D01*
X101053974Y-128963833D01*
X101003109Y-128958307D01*
X100996295Y-128957938D01*
X100933357Y-128957938D01*
X100865236Y-128937936D01*
X100818743Y-128884280D01*
X100807357Y-128831844D01*
X100808457Y-127363041D01*
X100828510Y-127294935D01*
X100850392Y-127269278D01*
X100913473Y-127212778D01*
X100913474Y-127212777D01*
X100916791Y-127209806D01*
X101085778Y-127008771D01*
X101224754Y-126785931D01*
X101227019Y-126780809D01*
X101329146Y-126549799D01*
X101330944Y-126545732D01*
X101402231Y-126292968D01*
X101437192Y-126032681D01*
X101440861Y-125915938D01*
X101422313Y-125653969D01*
X101367038Y-125397227D01*
X101276139Y-125150835D01*
X101151430Y-124919708D01*
X100995399Y-124708460D01*
X100846832Y-124557541D01*
X100813297Y-124494964D01*
X100810624Y-124469054D01*
X100810950Y-124032906D01*
X100831003Y-123964800D01*
X100884693Y-123918347D01*
X100954975Y-123908296D01*
X101019534Y-123937837D01*
X101021825Y-123939972D01*
X101028140Y-123949423D01*
X101112323Y-124005673D01*
X101186557Y-124020439D01*
X101471577Y-124020439D01*
X101756690Y-124020438D01*
X101792442Y-124013327D01*
X101818750Y-124008095D01*
X101818752Y-124008094D01*
X101830925Y-124005673D01*
X101841245Y-123998777D01*
X101852711Y-123994028D01*
X101853738Y-123996507D01*
X101904369Y-123980651D01*
X101959389Y-123996806D01*
X101960539Y-123994029D01*
X101972003Y-123998778D01*
X101982323Y-124005673D01*
X102056557Y-124020439D01*
X102091038Y-124020439D01*
X102924449Y-124020438D01*
X102992569Y-124040440D01*
X103025274Y-124070873D01*
X103063339Y-124121663D01*
X103075900Y-124134224D01*
X103177975Y-124210725D01*
X103193570Y-124219263D01*
X103314018Y-124264417D01*
X103329273Y-124268044D01*
X103380138Y-124273570D01*
X103386952Y-124273939D01*
X103419509Y-124273939D01*
X103434748Y-124269464D01*
X103435953Y-124268074D01*
X103437624Y-124260391D01*
X103437624Y-124255823D01*
X103945624Y-124255823D01*
X103950099Y-124271062D01*
X103951489Y-124272267D01*
X103959172Y-124273938D01*
X103996293Y-124273938D01*
X104003114Y-124273568D01*
X104053976Y-124268044D01*
X104069228Y-124264418D01*
X104189678Y-124219263D01*
X104205273Y-124210725D01*
X104307348Y-124134224D01*
X104319909Y-124121663D01*
X104396410Y-124019588D01*
X104404948Y-124003993D01*
X104450102Y-123883545D01*
X104453729Y-123868290D01*
X104459255Y-123817425D01*
X104459624Y-123810611D01*
X104459624Y-122688054D01*
X104455149Y-122672815D01*
X104453759Y-122671610D01*
X104446076Y-122669939D01*
X103963739Y-122669939D01*
X103948500Y-122674414D01*
X103947295Y-122675804D01*
X103945624Y-122683487D01*
X103945624Y-124255823D01*
X103437624Y-124255823D01*
X103437624Y-122143824D01*
X103945624Y-122143824D01*
X103950099Y-122159063D01*
X103951489Y-122160268D01*
X103959172Y-122161939D01*
X104441508Y-122161939D01*
X104456747Y-122157464D01*
X104457952Y-122156074D01*
X104459623Y-122148391D01*
X104459623Y-121021270D01*
X104459253Y-121014449D01*
X104453729Y-120963587D01*
X104450103Y-120948335D01*
X104404948Y-120827885D01*
X104396410Y-120812290D01*
X104319909Y-120710215D01*
X104307348Y-120697654D01*
X104205273Y-120621153D01*
X104189678Y-120612615D01*
X104069230Y-120567461D01*
X104053975Y-120563834D01*
X104003110Y-120558308D01*
X103996296Y-120557939D01*
X103963739Y-120557939D01*
X103948500Y-120562414D01*
X103947295Y-120563804D01*
X103945624Y-120571487D01*
X103945624Y-122143824D01*
X103437624Y-122143824D01*
X103437624Y-120576055D01*
X103433149Y-120560816D01*
X103431759Y-120559611D01*
X103424076Y-120557940D01*
X103386955Y-120557940D01*
X103380134Y-120558310D01*
X103329272Y-120563834D01*
X103314020Y-120567460D01*
X103193570Y-120612615D01*
X103177975Y-120621153D01*
X103075900Y-120697654D01*
X103063343Y-120710211D01*
X103025276Y-120761004D01*
X102968416Y-120803519D01*
X102924450Y-120811439D01*
X102381250Y-120811438D01*
X102356439Y-120811438D01*
X102281904Y-120826378D01*
X102271608Y-120833271D01*
X102271607Y-120833271D01*
X102224593Y-120864744D01*
X102224590Y-120864746D01*
X102219473Y-120868172D01*
X102139862Y-120947784D01*
X102077551Y-120981808D01*
X102006735Y-120976744D01*
X101946003Y-120928691D01*
X101922002Y-120892772D01*
X101922001Y-120892771D01*
X101915108Y-120882455D01*
X101830925Y-120826205D01*
X101756691Y-120811439D01*
X101471671Y-120811439D01*
X101186558Y-120811440D01*
X101150806Y-120818551D01*
X101124498Y-120823783D01*
X101124496Y-120823784D01*
X101112323Y-120826205D01*
X101102003Y-120833100D01*
X101102002Y-120833101D01*
X101101748Y-120833271D01*
X101028140Y-120882455D01*
X101024695Y-120887610D01*
X100966156Y-120919576D01*
X100895341Y-120914511D01*
X100838505Y-120871964D01*
X100813694Y-120805444D01*
X100813373Y-120796361D01*
X100813701Y-120358339D01*
X100833754Y-120290233D01*
X100855634Y-120264578D01*
X100916789Y-120209803D01*
X101085777Y-120008769D01*
X101224752Y-119785929D01*
X101330942Y-119545731D01*
X101342121Y-119506095D01*
X101372735Y-119397543D01*
X101402229Y-119292966D01*
X101406838Y-119258649D01*
X101436763Y-119035861D01*
X101436764Y-119035853D01*
X101437190Y-119032679D01*
X101440859Y-118915937D01*
X101422311Y-118653968D01*
X101379636Y-118455749D01*
X101367972Y-118401574D01*
X101367972Y-118401572D01*
X101367036Y-118397227D01*
X101276137Y-118150835D01*
X101151428Y-117919709D01*
X100995397Y-117708460D01*
X100852066Y-117562859D01*
X100818532Y-117500281D01*
X100815859Y-117474372D01*
X100817662Y-115066844D01*
X100837715Y-114998738D01*
X100891406Y-114952285D01*
X100943662Y-114940938D01*
X105231624Y-114940938D01*
X105231624Y-114933144D01*
X105248363Y-114913827D01*
X105308089Y-114875444D01*
X105357193Y-114871077D01*
X105380132Y-114873569D01*
X105386951Y-114873938D01*
X105419508Y-114873938D01*
X105434747Y-114869463D01*
X105435952Y-114868073D01*
X105437623Y-114860390D01*
X105437623Y-114855822D01*
X105945623Y-114855822D01*
X105950098Y-114871061D01*
X105951488Y-114872266D01*
X105959171Y-114873937D01*
X105996292Y-114873937D01*
X106003113Y-114873567D01*
X106053975Y-114868043D01*
X106069227Y-114864417D01*
X106189677Y-114819262D01*
X106205272Y-114810724D01*
X106307347Y-114734223D01*
X106319908Y-114721662D01*
X106396409Y-114619587D01*
X106404947Y-114603992D01*
X106450101Y-114483544D01*
X106453728Y-114468289D01*
X106459254Y-114417424D01*
X106459623Y-114410610D01*
X106459623Y-113288053D01*
X106455148Y-113272814D01*
X106453758Y-113271609D01*
X106446075Y-113269938D01*
X105963738Y-113269938D01*
X105948499Y-113274413D01*
X105947294Y-113275803D01*
X105945623Y-113283486D01*
X105945623Y-114855822D01*
X105437623Y-114855822D01*
X105437623Y-112743823D01*
X105945623Y-112743823D01*
X105950098Y-112759062D01*
X105951488Y-112760267D01*
X105959171Y-112761938D01*
X106441507Y-112761938D01*
X106456746Y-112757463D01*
X106457951Y-112756073D01*
X106459622Y-112748390D01*
X106459622Y-111621269D01*
X106459252Y-111614448D01*
X106453728Y-111563586D01*
X106450102Y-111548334D01*
X106404947Y-111427884D01*
X106396409Y-111412289D01*
X106319908Y-111310214D01*
X106307347Y-111297653D01*
X106205272Y-111221152D01*
X106189677Y-111212614D01*
X106069229Y-111167460D01*
X106053974Y-111163833D01*
X106003109Y-111158307D01*
X105996295Y-111157938D01*
X105963738Y-111157938D01*
X105948499Y-111162413D01*
X105947294Y-111163803D01*
X105945623Y-111171486D01*
X105945623Y-112743823D01*
X105437623Y-112743823D01*
X105437623Y-111176054D01*
X105433148Y-111160815D01*
X105431758Y-111159610D01*
X105424075Y-111157939D01*
X105386954Y-111157939D01*
X105380135Y-111158308D01*
X105355032Y-111161035D01*
X105285149Y-111148506D01*
X105233135Y-111100184D01*
X105232306Y-111098282D01*
X105231624Y-111097691D01*
X105231624Y-111090938D01*
X100946732Y-111090938D01*
X100878611Y-111070936D01*
X100832118Y-111017280D01*
X100820732Y-110964844D01*
X100821011Y-110592669D01*
X100821285Y-110225899D01*
X110073624Y-110225899D01*
X110073832Y-110231009D01*
X110084705Y-110364705D01*
X110086475Y-110375258D01*
X110139590Y-110582123D01*
X110143324Y-110592669D01*
X110232133Y-110786643D01*
X110237669Y-110796350D01*
X110359426Y-110971535D01*
X110366599Y-110980114D01*
X110517447Y-111130962D01*
X110526026Y-111138135D01*
X110701211Y-111259892D01*
X110710918Y-111265428D01*
X110904892Y-111354237D01*
X110915438Y-111357971D01*
X111122302Y-111411085D01*
X111132857Y-111412856D01*
X111266553Y-111423731D01*
X111271659Y-111423938D01*
X111809508Y-111423938D01*
X111824747Y-111419463D01*
X111825952Y-111418073D01*
X111827623Y-111410390D01*
X111827623Y-111405822D01*
X112335623Y-111405822D01*
X112340098Y-111421061D01*
X112341488Y-111422266D01*
X112349171Y-111423937D01*
X112891584Y-111423937D01*
X112896694Y-111423729D01*
X113030390Y-111412856D01*
X113040943Y-111411086D01*
X113247808Y-111357971D01*
X113258354Y-111354237D01*
X113452328Y-111265428D01*
X113462035Y-111259892D01*
X113637220Y-111138135D01*
X113645799Y-111130962D01*
X113796647Y-110980114D01*
X113803820Y-110971535D01*
X113925577Y-110796350D01*
X113931113Y-110786643D01*
X114019922Y-110592669D01*
X114023656Y-110582123D01*
X114076770Y-110375259D01*
X114078541Y-110364704D01*
X114089416Y-110231008D01*
X114089623Y-110225902D01*
X114089623Y-109688053D01*
X114085148Y-109672814D01*
X114083758Y-109671609D01*
X114076075Y-109669938D01*
X112353738Y-109669938D01*
X112338499Y-109674413D01*
X112337294Y-109675803D01*
X112335623Y-109683486D01*
X112335623Y-111405822D01*
X111827623Y-111405822D01*
X111827623Y-109688053D01*
X111823148Y-109672814D01*
X111821758Y-109671609D01*
X111814075Y-109669938D01*
X110091739Y-109669938D01*
X110076500Y-109674413D01*
X110075295Y-109675803D01*
X110073624Y-109683486D01*
X110073624Y-110225899D01*
X100821285Y-110225899D01*
X100822095Y-109143823D01*
X110073623Y-109143823D01*
X110078098Y-109159062D01*
X110079488Y-109160267D01*
X110087171Y-109161938D01*
X111809508Y-109161938D01*
X111824747Y-109157463D01*
X111825952Y-109156073D01*
X111827623Y-109148390D01*
X111827623Y-109143823D01*
X112335623Y-109143823D01*
X112340098Y-109159062D01*
X112341488Y-109160267D01*
X112349171Y-109161938D01*
X114071507Y-109161938D01*
X114086746Y-109157463D01*
X114087951Y-109156073D01*
X114089622Y-109148390D01*
X114089622Y-108605977D01*
X114089414Y-108600867D01*
X114078541Y-108467171D01*
X114076771Y-108456618D01*
X114023656Y-108249753D01*
X114019922Y-108239207D01*
X113931113Y-108045233D01*
X113925577Y-108035526D01*
X113803820Y-107860341D01*
X113796647Y-107851762D01*
X113645799Y-107700914D01*
X113637220Y-107693741D01*
X113462035Y-107571984D01*
X113452328Y-107566448D01*
X113258354Y-107477639D01*
X113247808Y-107473905D01*
X113040944Y-107420791D01*
X113030389Y-107419020D01*
X112896693Y-107408145D01*
X112891587Y-107407938D01*
X112353738Y-107407938D01*
X112338499Y-107412413D01*
X112337294Y-107413803D01*
X112335623Y-107421486D01*
X112335623Y-109143823D01*
X111827623Y-109143823D01*
X111827623Y-107426054D01*
X111823148Y-107410815D01*
X111821758Y-107409610D01*
X111814075Y-107407939D01*
X111271662Y-107407939D01*
X111266552Y-107408147D01*
X111132856Y-107419020D01*
X111122303Y-107420790D01*
X110915438Y-107473905D01*
X110904892Y-107477639D01*
X110710918Y-107566448D01*
X110701211Y-107571984D01*
X110526026Y-107693741D01*
X110517447Y-107700914D01*
X110366599Y-107851762D01*
X110359426Y-107860341D01*
X110237669Y-108035526D01*
X110232133Y-108045233D01*
X110143324Y-108239207D01*
X110139590Y-108249753D01*
X110086476Y-108456617D01*
X110084705Y-108467172D01*
X110073830Y-108600868D01*
X110073623Y-108605974D01*
X110073623Y-109143823D01*
X100822095Y-109143823D01*
X100822587Y-108486342D01*
X100842640Y-108418238D01*
X100896331Y-108371785D01*
X100948587Y-108360438D01*
X102261449Y-108360437D01*
X102366688Y-108360437D01*
X102402440Y-108353326D01*
X102428748Y-108348094D01*
X102428750Y-108348093D01*
X102440923Y-108345672D01*
X102451243Y-108338777D01*
X102451244Y-108338776D01*
X102514790Y-108296315D01*
X102525106Y-108289422D01*
X102581356Y-108205239D01*
X102583776Y-108193071D01*
X102586656Y-108186119D01*
X102631204Y-108130838D01*
X102703064Y-108108338D01*
X104196198Y-108108338D01*
X104264319Y-108128340D01*
X104310812Y-108181996D01*
X104318781Y-108205195D01*
X104323142Y-108223540D01*
X104368298Y-108343992D01*
X104376836Y-108359587D01*
X104453337Y-108461662D01*
X104465898Y-108474223D01*
X104567973Y-108550724D01*
X104583568Y-108559262D01*
X104704016Y-108604416D01*
X104719271Y-108608043D01*
X104770136Y-108613569D01*
X104776950Y-108613938D01*
X105274507Y-108613938D01*
X105289746Y-108609463D01*
X105290951Y-108608073D01*
X105292622Y-108600390D01*
X105292622Y-108595822D01*
X105800622Y-108595822D01*
X105805097Y-108611061D01*
X105806487Y-108612266D01*
X105814170Y-108613937D01*
X106316291Y-108613937D01*
X106323112Y-108613567D01*
X106373974Y-108608043D01*
X106389226Y-108604417D01*
X106509676Y-108559262D01*
X106525271Y-108550724D01*
X106627346Y-108474223D01*
X106639907Y-108461662D01*
X106716408Y-108359587D01*
X106724946Y-108343992D01*
X106770100Y-108223544D01*
X106773727Y-108208289D01*
X106779253Y-108157424D01*
X106779622Y-108150610D01*
X106779622Y-107653053D01*
X106775147Y-107637814D01*
X106773757Y-107636609D01*
X106766074Y-107634938D01*
X105818737Y-107634938D01*
X105803498Y-107639413D01*
X105802293Y-107640803D01*
X105800622Y-107648486D01*
X105800622Y-108595822D01*
X105292622Y-108595822D01*
X105292622Y-107252938D01*
X105312624Y-107184817D01*
X105366280Y-107138324D01*
X105418622Y-107126938D01*
X106761506Y-107126938D01*
X106776745Y-107122463D01*
X106777950Y-107121073D01*
X106779621Y-107113390D01*
X106779621Y-106611269D01*
X106779251Y-106604448D01*
X106773727Y-106553586D01*
X106770101Y-106538334D01*
X106724946Y-106417884D01*
X106716408Y-106402289D01*
X106639907Y-106300214D01*
X106627346Y-106287653D01*
X106525271Y-106211152D01*
X106509676Y-106202614D01*
X106389222Y-106157457D01*
X106370875Y-106153095D01*
X106309229Y-106117878D01*
X106276409Y-106054922D01*
X106274022Y-106030513D01*
X106274022Y-104801362D01*
X106294024Y-104733241D01*
X106347680Y-104686748D01*
X106370879Y-104678779D01*
X106389224Y-104674418D01*
X106509676Y-104629262D01*
X106525271Y-104620724D01*
X106627346Y-104544223D01*
X106639907Y-104531662D01*
X106716408Y-104429587D01*
X106724946Y-104413992D01*
X106770100Y-104293544D01*
X106773727Y-104278289D01*
X106779253Y-104227424D01*
X106779622Y-104220610D01*
X106779622Y-103723053D01*
X106775147Y-103707814D01*
X106773757Y-103706609D01*
X106766074Y-103704938D01*
X105418622Y-103704938D01*
X105350501Y-103684936D01*
X105304008Y-103631280D01*
X105292622Y-103578938D01*
X105292622Y-103178823D01*
X105800622Y-103178823D01*
X105805097Y-103194062D01*
X105806487Y-103195267D01*
X105814170Y-103196938D01*
X106761506Y-103196938D01*
X106776745Y-103192463D01*
X106777950Y-103191073D01*
X106779621Y-103183390D01*
X106779621Y-102681269D01*
X106779251Y-102674448D01*
X106773727Y-102623586D01*
X106770101Y-102608334D01*
X106724946Y-102487884D01*
X106716408Y-102472289D01*
X106639907Y-102370214D01*
X106627346Y-102357653D01*
X106627193Y-102357538D01*
X112723304Y-102357538D01*
X112725599Y-102415938D01*
X112733615Y-102619960D01*
X112734843Y-102626685D01*
X112765212Y-102792967D01*
X112780798Y-102878311D01*
X112863913Y-103127437D01*
X112865905Y-103131424D01*
X112865906Y-103131426D01*
X112941072Y-103281856D01*
X112981300Y-103362366D01*
X113130619Y-103578412D01*
X113133641Y-103581681D01*
X113294591Y-103755796D01*
X113308888Y-103771263D01*
X113312342Y-103774075D01*
X113509096Y-103934257D01*
X113509100Y-103934260D01*
X113512553Y-103937071D01*
X113516375Y-103939372D01*
X113668451Y-104030929D01*
X113737548Y-104072529D01*
X113850782Y-104120478D01*
X113975286Y-104173199D01*
X113975290Y-104173200D01*
X113979384Y-104174934D01*
X113983676Y-104176072D01*
X113983679Y-104176073D01*
X114228940Y-104241103D01*
X114228944Y-104241104D01*
X114233237Y-104242242D01*
X114237646Y-104242764D01*
X114237652Y-104242765D01*
X114408132Y-104262942D01*
X114494041Y-104273110D01*
X114756593Y-104266923D01*
X114837166Y-104253512D01*
X115011263Y-104224534D01*
X115011267Y-104224533D01*
X115015653Y-104223803D01*
X115019894Y-104222462D01*
X115019897Y-104222461D01*
X115261807Y-104145955D01*
X115261809Y-104145954D01*
X115266053Y-104144612D01*
X115270064Y-104142686D01*
X115270069Y-104142684D01*
X115498779Y-104032859D01*
X115498780Y-104032858D01*
X115502798Y-104030929D01*
X115506504Y-104028453D01*
X115717460Y-103887497D01*
X115717464Y-103887494D01*
X115721162Y-103885023D01*
X115916789Y-103709804D01*
X116085777Y-103508770D01*
X116224752Y-103285930D01*
X116330942Y-103045732D01*
X116338255Y-103019804D01*
X116365582Y-102922908D01*
X116402229Y-102792967D01*
X116414599Y-102700871D01*
X116436763Y-102535862D01*
X116436764Y-102535854D01*
X116437190Y-102532680D01*
X116439115Y-102471438D01*
X116440758Y-102419160D01*
X116440758Y-102419155D01*
X116440859Y-102415938D01*
X116422311Y-102153969D01*
X116408960Y-102091954D01*
X116367972Y-101901575D01*
X116367972Y-101901573D01*
X116367036Y-101897228D01*
X116276137Y-101650836D01*
X116151428Y-101419710D01*
X116041783Y-101271263D01*
X115998046Y-101212047D01*
X115998043Y-101212044D01*
X115995397Y-101208461D01*
X115811158Y-101021304D01*
X115794735Y-101008770D01*
X115605926Y-100864677D01*
X115602386Y-100861975D01*
X115373247Y-100733651D01*
X115369088Y-100732042D01*
X115132468Y-100640500D01*
X115132462Y-100640498D01*
X115128313Y-100638893D01*
X115123981Y-100637889D01*
X115123978Y-100637888D01*
X115054258Y-100621728D01*
X114872472Y-100579592D01*
X114610827Y-100556931D01*
X114606392Y-100557175D01*
X114606388Y-100557175D01*
X114353042Y-100571118D01*
X114353035Y-100571119D01*
X114348599Y-100571363D01*
X114091021Y-100622598D01*
X114086811Y-100624076D01*
X114086809Y-100624077D01*
X113942143Y-100674880D01*
X113843231Y-100709616D01*
X113839280Y-100711669D01*
X113839274Y-100711671D01*
X113711773Y-100777903D01*
X113610175Y-100830679D01*
X113503338Y-100907025D01*
X113400122Y-100980784D01*
X113400118Y-100980787D01*
X113396501Y-100983372D01*
X113206474Y-101164649D01*
X113203718Y-101168144D01*
X113203717Y-101168146D01*
X113146286Y-101240997D01*
X113043885Y-101370892D01*
X112911978Y-101597987D01*
X112910310Y-101602104D01*
X112910307Y-101602111D01*
X112843551Y-101766924D01*
X112813384Y-101841402D01*
X112750072Y-102096281D01*
X112723304Y-102357538D01*
X106627193Y-102357538D01*
X106525271Y-102281152D01*
X106509676Y-102272614D01*
X106389228Y-102227460D01*
X106373973Y-102223833D01*
X106323108Y-102218307D01*
X106316294Y-102217938D01*
X105818737Y-102217938D01*
X105803498Y-102222413D01*
X105802293Y-102223803D01*
X105800622Y-102231486D01*
X105800622Y-103178823D01*
X105292622Y-103178823D01*
X105292622Y-102236054D01*
X105288147Y-102220815D01*
X105286757Y-102219610D01*
X105279074Y-102217939D01*
X104776953Y-102217939D01*
X104770132Y-102218309D01*
X104719270Y-102223833D01*
X104704018Y-102227459D01*
X104583568Y-102272614D01*
X104567973Y-102281152D01*
X104465898Y-102357653D01*
X104453337Y-102370214D01*
X104376836Y-102472289D01*
X104368298Y-102487884D01*
X104323141Y-102608338D01*
X104318779Y-102626685D01*
X104283562Y-102688331D01*
X104220606Y-102721151D01*
X104196197Y-102723538D01*
X102703063Y-102723538D01*
X102634942Y-102703536D01*
X102586654Y-102645755D01*
X102583777Y-102638809D01*
X102581356Y-102626637D01*
X102525106Y-102542454D01*
X102440923Y-102486204D01*
X102366689Y-102471438D01*
X102266691Y-102471438D01*
X100953184Y-102471439D01*
X100885063Y-102451437D01*
X100838570Y-102397781D01*
X100827184Y-102345345D01*
X100827239Y-102272614D01*
X100827836Y-101475482D01*
X100827933Y-101345596D01*
X100847986Y-101277490D01*
X100869868Y-101251834D01*
X100913465Y-101212785D01*
X100913472Y-101212777D01*
X100916791Y-101209805D01*
X101085778Y-101008770D01*
X101224754Y-100785930D01*
X101247867Y-100733651D01*
X101329146Y-100549799D01*
X101330944Y-100545732D01*
X101402231Y-100292968D01*
X101437192Y-100032680D01*
X101440861Y-99915938D01*
X101422313Y-99653969D01*
X101367038Y-99397227D01*
X101276139Y-99150835D01*
X101151430Y-98919709D01*
X100995399Y-98708460D01*
X100939408Y-98651582D01*
X100866280Y-98577297D01*
X100832745Y-98514720D01*
X100830072Y-98488810D01*
X100830590Y-97796344D01*
X100850643Y-97728238D01*
X100904333Y-97681785D01*
X100956590Y-97670438D01*
X116424016Y-97670438D01*
X116492137Y-97690440D01*
G37*
%TD.AperFunction*%
%TD*%
%TA.AperFunction,Conductor*%
%TO.N,/LED_Cathode*%
G36*
X98334260Y-97690440D02*
G01*
X98380753Y-97744096D01*
X98392139Y-97796563D01*
X98391504Y-98434325D01*
X98371434Y-98502426D01*
X98352476Y-98525370D01*
X98220172Y-98651582D01*
X98206475Y-98664648D01*
X98043885Y-98870892D01*
X98041648Y-98874744D01*
X97914212Y-99094140D01*
X97914209Y-99094146D01*
X97911978Y-99097987D01*
X97813385Y-99341402D01*
X97750072Y-99596281D01*
X97723304Y-99857538D01*
X97725599Y-99915938D01*
X97733615Y-100119960D01*
X97780798Y-100378311D01*
X97863913Y-100627437D01*
X97904236Y-100708136D01*
X97966760Y-100833265D01*
X97981301Y-100862367D01*
X98130619Y-101078412D01*
X98133635Y-101081674D01*
X98133640Y-101081681D01*
X98305873Y-101268001D01*
X98305878Y-101268005D01*
X98308889Y-101271263D01*
X98312337Y-101274071D01*
X98312338Y-101274071D01*
X98342105Y-101298306D01*
X98382303Y-101356826D01*
X98388553Y-101396143D01*
X98387607Y-102345564D01*
X98367537Y-102413664D01*
X98313835Y-102460104D01*
X98261607Y-102471438D01*
X97021507Y-102471439D01*
X96796558Y-102471439D01*
X96760806Y-102478550D01*
X96734498Y-102483782D01*
X96734496Y-102483783D01*
X96722323Y-102486204D01*
X96712003Y-102493099D01*
X96712002Y-102493100D01*
X96657572Y-102529470D01*
X96638140Y-102542454D01*
X96581890Y-102626637D01*
X96579470Y-102638805D01*
X96576590Y-102645757D01*
X96532042Y-102701038D01*
X96460182Y-102723538D01*
X94967048Y-102723538D01*
X94898927Y-102703536D01*
X94852434Y-102649880D01*
X94844465Y-102626681D01*
X94840104Y-102608336D01*
X94794948Y-102487884D01*
X94786410Y-102472289D01*
X94709909Y-102370214D01*
X94697348Y-102357653D01*
X94595273Y-102281152D01*
X94579678Y-102272614D01*
X94459230Y-102227460D01*
X94443975Y-102223833D01*
X94393110Y-102218307D01*
X94386296Y-102217938D01*
X93888739Y-102217938D01*
X93873500Y-102222413D01*
X93872295Y-102223803D01*
X93870624Y-102231486D01*
X93870624Y-103578938D01*
X93850622Y-103647059D01*
X93796966Y-103693552D01*
X93744624Y-103704938D01*
X92401740Y-103704938D01*
X92386501Y-103709413D01*
X92385296Y-103710803D01*
X92383625Y-103718486D01*
X92383625Y-104220607D01*
X92383995Y-104227428D01*
X92389519Y-104278290D01*
X92393145Y-104293542D01*
X92438300Y-104413992D01*
X92446838Y-104429587D01*
X92523339Y-104531662D01*
X92535900Y-104544223D01*
X92637975Y-104620724D01*
X92653570Y-104629262D01*
X92774024Y-104674419D01*
X92792371Y-104678781D01*
X92854017Y-104713998D01*
X92886837Y-104776954D01*
X92889224Y-104801363D01*
X92889224Y-106030514D01*
X92869222Y-106098635D01*
X92815566Y-106145128D01*
X92792367Y-106153097D01*
X92774022Y-106157458D01*
X92653570Y-106202614D01*
X92637975Y-106211152D01*
X92535900Y-106287653D01*
X92523339Y-106300214D01*
X92446838Y-106402289D01*
X92438300Y-106417884D01*
X92393146Y-106538332D01*
X92389519Y-106553587D01*
X92383993Y-106604452D01*
X92383624Y-106611266D01*
X92383624Y-107108823D01*
X92388099Y-107124062D01*
X92389489Y-107125267D01*
X92397172Y-107126938D01*
X93744624Y-107126938D01*
X93812745Y-107146940D01*
X93859238Y-107200596D01*
X93870624Y-107252938D01*
X93870624Y-108595822D01*
X93875099Y-108611061D01*
X93876489Y-108612266D01*
X93884172Y-108613937D01*
X94386293Y-108613937D01*
X94393114Y-108613567D01*
X94443976Y-108608043D01*
X94459228Y-108604417D01*
X94579678Y-108559262D01*
X94595273Y-108550724D01*
X94697348Y-108474223D01*
X94709909Y-108461662D01*
X94786410Y-108359587D01*
X94794948Y-108343992D01*
X94840105Y-108223538D01*
X94844467Y-108205191D01*
X94879684Y-108143545D01*
X94942640Y-108110725D01*
X94967049Y-108108338D01*
X96460183Y-108108338D01*
X96528304Y-108128340D01*
X96576592Y-108186121D01*
X96579469Y-108193067D01*
X96581890Y-108205239D01*
X96588783Y-108215556D01*
X96588784Y-108215557D01*
X96611634Y-108249754D01*
X96638140Y-108289422D01*
X96722323Y-108345672D01*
X96796557Y-108360438D01*
X96992427Y-108360438D01*
X98255492Y-108360437D01*
X98323613Y-108380439D01*
X98370106Y-108434095D01*
X98381491Y-108486560D01*
X98379404Y-110582124D01*
X98379023Y-110965064D01*
X98358953Y-111033164D01*
X98305251Y-111079604D01*
X98253023Y-111090938D01*
X93931624Y-111090938D01*
X93931624Y-111098732D01*
X93914885Y-111118049D01*
X93855159Y-111156432D01*
X93806055Y-111160799D01*
X93783115Y-111158307D01*
X93776296Y-111157938D01*
X93743739Y-111157938D01*
X93728500Y-111162413D01*
X93727295Y-111163803D01*
X93725624Y-111171486D01*
X93725624Y-114855822D01*
X93730099Y-114871061D01*
X93731489Y-114872266D01*
X93739172Y-114873937D01*
X93776293Y-114873937D01*
X93783114Y-114873567D01*
X93808217Y-114870841D01*
X93878099Y-114883370D01*
X93930114Y-114931692D01*
X93930944Y-114933595D01*
X93931624Y-114934184D01*
X93931624Y-114940938D01*
X98248937Y-114940938D01*
X98317058Y-114960940D01*
X98363551Y-115014596D01*
X98374937Y-115067063D01*
X98372562Y-117452394D01*
X98352492Y-117520495D01*
X98333535Y-117543437D01*
X98283804Y-117590879D01*
X98220171Y-117651582D01*
X98206474Y-117664648D01*
X98043885Y-117870891D01*
X97911978Y-118097986D01*
X97910310Y-118102103D01*
X97910307Y-118102110D01*
X97815058Y-118337268D01*
X97813384Y-118341401D01*
X97750072Y-118596280D01*
X97723304Y-118857537D01*
X97725599Y-118915937D01*
X97733615Y-119119959D01*
X97734415Y-119124339D01*
X97765212Y-119292966D01*
X97780798Y-119378310D01*
X97782207Y-119382533D01*
X97850074Y-119585954D01*
X97863913Y-119627436D01*
X97865905Y-119631423D01*
X97865906Y-119631425D01*
X97878022Y-119655672D01*
X97981300Y-119862365D01*
X98130619Y-120078411D01*
X98133641Y-120081680D01*
X98305872Y-120268000D01*
X98305877Y-120268005D01*
X98308888Y-120271262D01*
X98312336Y-120274069D01*
X98312337Y-120274070D01*
X98323197Y-120282912D01*
X98363395Y-120341433D01*
X98369645Y-120380748D01*
X98369210Y-120817572D01*
X98349140Y-120885673D01*
X98295438Y-120932113D01*
X98225154Y-120942147D01*
X98160603Y-120912589D01*
X98150828Y-120901497D01*
X98150778Y-120901547D01*
X98142001Y-120892770D01*
X98135108Y-120882454D01*
X98050925Y-120826204D01*
X97976691Y-120811438D01*
X97691671Y-120811438D01*
X97406558Y-120811439D01*
X97375723Y-120817572D01*
X97344498Y-120823782D01*
X97344496Y-120823783D01*
X97332323Y-120826204D01*
X97322003Y-120833100D01*
X97310537Y-120837849D01*
X97309510Y-120835370D01*
X97258879Y-120851226D01*
X97203859Y-120835071D01*
X97202709Y-120837848D01*
X97191245Y-120833099D01*
X97180925Y-120826204D01*
X97106691Y-120811438D01*
X96732954Y-120811438D01*
X96362672Y-120811437D01*
X96356439Y-120811437D01*
X96281904Y-120826377D01*
X96281240Y-120823064D01*
X96230868Y-120828539D01*
X96167344Y-120796833D01*
X96152269Y-120780079D01*
X96099908Y-120710213D01*
X96087348Y-120697653D01*
X95985273Y-120621152D01*
X95969678Y-120612614D01*
X95849230Y-120567460D01*
X95833975Y-120563833D01*
X95783110Y-120558307D01*
X95776296Y-120557938D01*
X95743739Y-120557938D01*
X95728500Y-120562413D01*
X95727295Y-120563803D01*
X95725624Y-120571486D01*
X95725624Y-124255822D01*
X95730099Y-124271061D01*
X95731489Y-124272266D01*
X95739172Y-124273937D01*
X95776293Y-124273937D01*
X95783114Y-124273567D01*
X95833976Y-124268043D01*
X95849228Y-124264417D01*
X95969678Y-124219262D01*
X95985273Y-124210724D01*
X96087348Y-124134223D01*
X96099905Y-124121666D01*
X96137972Y-124070873D01*
X96194832Y-124028358D01*
X96238799Y-124020438D01*
X97072198Y-124020437D01*
X97106690Y-124020437D01*
X97142442Y-124013326D01*
X97168750Y-124008094D01*
X97168752Y-124008093D01*
X97180925Y-124005672D01*
X97191245Y-123998776D01*
X97202711Y-123994027D01*
X97203738Y-123996506D01*
X97254369Y-123980650D01*
X97309389Y-123996805D01*
X97310539Y-123994028D01*
X97322003Y-123998777D01*
X97332323Y-124005672D01*
X97406557Y-124020438D01*
X97691577Y-124020438D01*
X97976690Y-124020437D01*
X98012442Y-124013326D01*
X98038750Y-124008094D01*
X98038752Y-124008093D01*
X98050925Y-124005672D01*
X98061245Y-123998777D01*
X98061246Y-123998776D01*
X98124792Y-123956315D01*
X98135108Y-123949422D01*
X98142001Y-123939106D01*
X98150778Y-123930329D01*
X98153976Y-123933527D01*
X98189973Y-123903569D01*
X98260434Y-123894866D01*
X98324414Y-123925640D01*
X98361601Y-123986118D01*
X98366021Y-124019324D01*
X98365583Y-124459053D01*
X98345514Y-124527151D01*
X98326561Y-124550089D01*
X98206473Y-124664648D01*
X98043883Y-124870891D01*
X98041646Y-124874743D01*
X97914210Y-125094139D01*
X97914207Y-125094145D01*
X97911976Y-125097986D01*
X97910306Y-125102109D01*
X97853164Y-125243188D01*
X97813383Y-125341402D01*
X97812312Y-125345715D01*
X97812310Y-125345720D01*
X97786368Y-125450155D01*
X97750070Y-125596281D01*
X97723302Y-125857538D01*
X97725597Y-125915938D01*
X97733613Y-126119960D01*
X97780796Y-126378312D01*
X97863911Y-126627438D01*
X97981299Y-126862367D01*
X98130617Y-127078413D01*
X98133633Y-127081675D01*
X98133638Y-127081682D01*
X98280909Y-127240998D01*
X98308887Y-127271264D01*
X98316228Y-127277241D01*
X98356427Y-127335758D01*
X98362679Y-127375079D01*
X98361228Y-128832064D01*
X98341158Y-128900165D01*
X98287456Y-128946605D01*
X98235228Y-128957939D01*
X98166954Y-128957939D01*
X98160133Y-128958309D01*
X98109271Y-128963833D01*
X98094019Y-128967459D01*
X97973569Y-129012614D01*
X97957974Y-129021152D01*
X97855899Y-129097653D01*
X97843338Y-129110214D01*
X97766837Y-129212289D01*
X97758299Y-129227884D01*
X97713145Y-129348332D01*
X97709518Y-129363587D01*
X97703992Y-129414452D01*
X97703623Y-129421266D01*
X97703623Y-130543823D01*
X97708098Y-130559062D01*
X97709488Y-130560267D01*
X97717171Y-130561938D01*
X98359505Y-130561938D01*
X98358999Y-131069938D01*
X97721739Y-131069938D01*
X97706500Y-131074413D01*
X97705295Y-131075803D01*
X97703624Y-131083486D01*
X97703624Y-132210607D01*
X97703994Y-132217428D01*
X97709518Y-132268290D01*
X97713144Y-132283542D01*
X97758299Y-132403992D01*
X97766837Y-132419587D01*
X97843338Y-132521662D01*
X97855899Y-132534223D01*
X97957974Y-132610724D01*
X97973569Y-132619262D01*
X98094017Y-132664416D01*
X98109272Y-132668043D01*
X98160137Y-132673569D01*
X98166951Y-132673938D01*
X98231276Y-132673938D01*
X98299397Y-132693940D01*
X98345890Y-132747596D01*
X98357276Y-132800064D01*
X98355288Y-134795864D01*
X98335218Y-134863964D01*
X98281516Y-134910404D01*
X98229288Y-134921738D01*
X97888739Y-134921738D01*
X97873500Y-134926213D01*
X97872295Y-134927603D01*
X97870624Y-134935286D01*
X97870624Y-136282738D01*
X97850622Y-136350859D01*
X97796966Y-136397352D01*
X97744624Y-136408738D01*
X96401740Y-136408738D01*
X96386501Y-136413213D01*
X96385296Y-136414603D01*
X96383625Y-136422286D01*
X96383625Y-136924407D01*
X96383995Y-136931228D01*
X96389519Y-136982090D01*
X96393145Y-136997342D01*
X96438300Y-137117792D01*
X96446838Y-137133387D01*
X96523339Y-137235462D01*
X96535900Y-137248023D01*
X96637975Y-137324524D01*
X96653570Y-137333062D01*
X96774024Y-137378219D01*
X96792371Y-137382581D01*
X96854017Y-137417798D01*
X96886837Y-137480754D01*
X96889224Y-137505163D01*
X96889224Y-138734314D01*
X96869222Y-138802435D01*
X96815566Y-138848928D01*
X96792367Y-138856897D01*
X96774022Y-138861258D01*
X96653570Y-138906414D01*
X96637975Y-138914952D01*
X96535900Y-138991453D01*
X96523339Y-139004014D01*
X96446838Y-139106089D01*
X96438300Y-139121684D01*
X96393146Y-139242132D01*
X96389519Y-139257387D01*
X96383993Y-139308252D01*
X96383624Y-139315066D01*
X96383624Y-139812623D01*
X96388099Y-139827862D01*
X96389489Y-139829067D01*
X96397172Y-139830738D01*
X97744624Y-139830738D01*
X97812745Y-139850740D01*
X97859238Y-139904396D01*
X97870624Y-139956738D01*
X97870624Y-141299622D01*
X97875099Y-141314861D01*
X97876489Y-141316066D01*
X97884172Y-141317737D01*
X98222667Y-141317737D01*
X98290788Y-141337739D01*
X98337281Y-141391395D01*
X98348667Y-141443862D01*
X98346643Y-143477121D01*
X98326573Y-143545222D01*
X98307614Y-143568166D01*
X98209701Y-143661570D01*
X98209697Y-143661574D01*
X98206474Y-143664649D01*
X98043885Y-143870892D01*
X97911978Y-144097987D01*
X97910310Y-144102104D01*
X97910307Y-144102111D01*
X97815058Y-144337269D01*
X97813384Y-144341402D01*
X97750072Y-144596281D01*
X97723304Y-144857538D01*
X97725599Y-144915938D01*
X97733615Y-145119960D01*
X97734415Y-145124340D01*
X97765212Y-145292967D01*
X97780798Y-145378311D01*
X97863913Y-145627437D01*
X97865905Y-145631424D01*
X97865906Y-145631426D01*
X97881224Y-145662081D01*
X97981300Y-145862366D01*
X98130619Y-146078412D01*
X98280178Y-146240204D01*
X98295616Y-146256905D01*
X98327168Y-146320505D01*
X98319327Y-146391067D01*
X98274582Y-146446189D01*
X98203076Y-146468434D01*
X89869783Y-146467418D01*
X80583736Y-146466286D01*
X80515617Y-146446276D01*
X80469131Y-146392614D01*
X80459036Y-146322339D01*
X80488537Y-146257762D01*
X80527402Y-146227588D01*
X81265805Y-145858386D01*
X81651004Y-145665787D01*
X81659124Y-145662081D01*
X81668751Y-145658093D01*
X81680924Y-145655672D01*
X81703153Y-145640818D01*
X81707131Y-145638508D01*
X81707080Y-145638427D01*
X81712323Y-145635126D01*
X81717859Y-145632359D01*
X81722752Y-145628562D01*
X81726989Y-145625274D01*
X81734231Y-145620054D01*
X81754794Y-145606314D01*
X81754797Y-145606311D01*
X81765107Y-145599422D01*
X81770286Y-145591672D01*
X81777653Y-145585954D01*
X81796035Y-145553707D01*
X81800734Y-145546103D01*
X81814463Y-145525556D01*
X81821357Y-145515239D01*
X81823176Y-145506095D01*
X81827793Y-145497995D01*
X81832435Y-145461168D01*
X81833868Y-145452340D01*
X81834915Y-145447079D01*
X81834915Y-145447075D01*
X81836123Y-145441005D01*
X81836123Y-145434815D01*
X81836730Y-145428652D01*
X81836824Y-145428661D01*
X81837112Y-145424070D01*
X81838904Y-145409855D01*
X81840456Y-145397543D01*
X81837178Y-145385573D01*
X81836440Y-145375194D01*
X81836123Y-145366260D01*
X81836123Y-141465616D01*
X81836440Y-141456682D01*
X81837178Y-141446303D01*
X81840456Y-141434333D01*
X81837112Y-141407806D01*
X81836824Y-141403215D01*
X81836730Y-141403224D01*
X81836123Y-141397061D01*
X81836123Y-141390871D01*
X81833868Y-141379536D01*
X81832435Y-141370708D01*
X81829345Y-141346191D01*
X81829344Y-141346189D01*
X81827793Y-141333881D01*
X81823176Y-141325781D01*
X81821357Y-141316637D01*
X81800734Y-141285773D01*
X81796035Y-141278169D01*
X81783799Y-141256704D01*
X81777653Y-141245922D01*
X81770286Y-141240204D01*
X81765107Y-141232454D01*
X81754797Y-141225565D01*
X81754794Y-141225562D01*
X81734231Y-141211822D01*
X81726989Y-141206602D01*
X81722752Y-141203314D01*
X81722750Y-141203313D01*
X81717859Y-141199517D01*
X81712323Y-141196750D01*
X81707080Y-141193449D01*
X81707131Y-141193368D01*
X81703152Y-141191057D01*
X81680924Y-141176204D01*
X81668751Y-141173783D01*
X81659124Y-141169795D01*
X81651004Y-141166089D01*
X81027640Y-140854407D01*
X96383625Y-140854407D01*
X96383995Y-140861228D01*
X96389519Y-140912090D01*
X96393145Y-140927342D01*
X96438300Y-141047792D01*
X96446838Y-141063387D01*
X96523339Y-141165462D01*
X96535900Y-141178023D01*
X96637975Y-141254524D01*
X96653570Y-141263062D01*
X96774018Y-141308216D01*
X96789273Y-141311843D01*
X96840138Y-141317369D01*
X96846952Y-141317738D01*
X97344509Y-141317738D01*
X97359748Y-141313263D01*
X97360953Y-141311873D01*
X97362624Y-141304190D01*
X97362624Y-140356853D01*
X97358149Y-140341614D01*
X97356759Y-140340409D01*
X97349076Y-140338738D01*
X96401740Y-140338738D01*
X96386501Y-140343213D01*
X96385296Y-140344603D01*
X96383625Y-140352286D01*
X96383625Y-140854407D01*
X81027640Y-140854407D01*
X79905774Y-140293474D01*
X79853791Y-140245120D01*
X79836124Y-140180777D01*
X79836124Y-136225899D01*
X85073625Y-136225899D01*
X85073833Y-136231009D01*
X85084706Y-136364705D01*
X85086476Y-136375258D01*
X85139591Y-136582123D01*
X85143325Y-136592669D01*
X85232134Y-136786643D01*
X85237670Y-136796350D01*
X85359427Y-136971535D01*
X85366600Y-136980114D01*
X85517448Y-137130962D01*
X85526027Y-137138135D01*
X85701212Y-137259892D01*
X85710919Y-137265428D01*
X85904893Y-137354237D01*
X85915439Y-137357971D01*
X86122303Y-137411085D01*
X86132858Y-137412856D01*
X86266554Y-137423731D01*
X86271660Y-137423938D01*
X86809509Y-137423938D01*
X86824748Y-137419463D01*
X86825953Y-137418073D01*
X86827624Y-137410390D01*
X86827624Y-137405822D01*
X87335624Y-137405822D01*
X87340099Y-137421061D01*
X87341489Y-137422266D01*
X87349172Y-137423937D01*
X87891585Y-137423937D01*
X87896695Y-137423729D01*
X88030391Y-137412856D01*
X88040944Y-137411086D01*
X88247809Y-137357971D01*
X88258355Y-137354237D01*
X88452329Y-137265428D01*
X88462036Y-137259892D01*
X88637221Y-137138135D01*
X88645800Y-137130962D01*
X88796648Y-136980114D01*
X88803821Y-136971535D01*
X88925578Y-136796350D01*
X88931114Y-136786643D01*
X89019923Y-136592669D01*
X89023657Y-136582123D01*
X89076771Y-136375259D01*
X89078542Y-136364704D01*
X89089417Y-136231008D01*
X89089624Y-136225902D01*
X89089624Y-135882623D01*
X96383624Y-135882623D01*
X96388099Y-135897862D01*
X96389489Y-135899067D01*
X96397172Y-135900738D01*
X97344509Y-135900738D01*
X97359748Y-135896263D01*
X97360953Y-135894873D01*
X97362624Y-135887190D01*
X97362624Y-134939854D01*
X97358149Y-134924615D01*
X97356759Y-134923410D01*
X97349076Y-134921739D01*
X96846955Y-134921739D01*
X96840134Y-134922109D01*
X96789272Y-134927633D01*
X96774020Y-134931259D01*
X96653570Y-134976414D01*
X96637975Y-134984952D01*
X96535900Y-135061453D01*
X96523339Y-135074014D01*
X96446838Y-135176089D01*
X96438300Y-135191684D01*
X96393146Y-135312132D01*
X96389519Y-135327387D01*
X96383993Y-135378252D01*
X96383624Y-135385066D01*
X96383624Y-135882623D01*
X89089624Y-135882623D01*
X89089624Y-135688053D01*
X89085149Y-135672814D01*
X89083759Y-135671609D01*
X89076076Y-135669938D01*
X87353739Y-135669938D01*
X87338500Y-135674413D01*
X87337295Y-135675803D01*
X87335624Y-135683486D01*
X87335624Y-137405822D01*
X86827624Y-137405822D01*
X86827624Y-135688053D01*
X86823149Y-135672814D01*
X86821759Y-135671609D01*
X86814076Y-135669938D01*
X85091740Y-135669938D01*
X85076501Y-135674413D01*
X85075296Y-135675803D01*
X85073625Y-135683486D01*
X85073625Y-136225899D01*
X79836124Y-136225899D01*
X79836124Y-135143823D01*
X85073624Y-135143823D01*
X85078099Y-135159062D01*
X85079489Y-135160267D01*
X85087172Y-135161938D01*
X86809509Y-135161938D01*
X86824748Y-135157463D01*
X86825953Y-135156073D01*
X86827624Y-135148390D01*
X86827624Y-135143823D01*
X87335624Y-135143823D01*
X87340099Y-135159062D01*
X87341489Y-135160267D01*
X87349172Y-135161938D01*
X89071508Y-135161938D01*
X89086747Y-135157463D01*
X89087952Y-135156073D01*
X89089623Y-135148390D01*
X89089623Y-134605977D01*
X89089415Y-134600867D01*
X89078542Y-134467171D01*
X89076772Y-134456618D01*
X89023657Y-134249753D01*
X89019923Y-134239207D01*
X88931114Y-134045233D01*
X88925578Y-134035526D01*
X88803821Y-133860341D01*
X88796648Y-133851762D01*
X88645800Y-133700914D01*
X88637221Y-133693741D01*
X88462036Y-133571984D01*
X88452329Y-133566448D01*
X88258355Y-133477639D01*
X88247809Y-133473905D01*
X88040945Y-133420791D01*
X88030390Y-133419020D01*
X87896694Y-133408145D01*
X87891588Y-133407938D01*
X87353739Y-133407938D01*
X87338500Y-133412413D01*
X87337295Y-133413803D01*
X87335624Y-133421486D01*
X87335624Y-135143823D01*
X86827624Y-135143823D01*
X86827624Y-133426054D01*
X86823149Y-133410815D01*
X86821759Y-133409610D01*
X86814076Y-133407939D01*
X86271663Y-133407939D01*
X86266553Y-133408147D01*
X86132857Y-133419020D01*
X86122304Y-133420790D01*
X85915439Y-133473905D01*
X85904893Y-133477639D01*
X85710919Y-133566448D01*
X85701212Y-133571984D01*
X85526027Y-133693741D01*
X85517448Y-133700914D01*
X85366600Y-133851762D01*
X85359427Y-133860341D01*
X85237670Y-134035526D01*
X85232134Y-134045233D01*
X85143325Y-134239207D01*
X85139591Y-134249753D01*
X85086477Y-134456617D01*
X85084706Y-134467172D01*
X85073831Y-134600868D01*
X85073624Y-134605974D01*
X85073624Y-135143823D01*
X79836124Y-135143823D01*
X79836124Y-125651100D01*
X79856126Y-125582979D01*
X79905775Y-125538402D01*
X81212130Y-124885224D01*
X81651004Y-124665787D01*
X81659125Y-124662081D01*
X81668752Y-124658093D01*
X81680925Y-124655672D01*
X81703154Y-124640818D01*
X81707132Y-124638508D01*
X81707081Y-124638427D01*
X81712324Y-124635126D01*
X81717860Y-124632359D01*
X81722753Y-124628562D01*
X81726990Y-124625274D01*
X81734232Y-124620054D01*
X81754795Y-124606314D01*
X81754798Y-124606311D01*
X81765108Y-124599422D01*
X81770287Y-124591672D01*
X81777654Y-124585954D01*
X81796036Y-124553707D01*
X81800735Y-124546103D01*
X81801250Y-124545332D01*
X81821358Y-124515239D01*
X81823177Y-124506095D01*
X81827794Y-124497995D01*
X81829638Y-124483370D01*
X81832436Y-124461168D01*
X81833869Y-124452340D01*
X81834916Y-124447079D01*
X81834916Y-124447075D01*
X81836124Y-124441005D01*
X81836124Y-124434815D01*
X81836731Y-124428652D01*
X81836825Y-124428661D01*
X81837113Y-124424070D01*
X81838905Y-124409855D01*
X81840457Y-124397543D01*
X81837179Y-124385573D01*
X81836441Y-124375194D01*
X81836124Y-124366260D01*
X81836124Y-123810607D01*
X94703625Y-123810607D01*
X94703995Y-123817428D01*
X94709519Y-123868290D01*
X94713145Y-123883542D01*
X94758300Y-124003992D01*
X94766838Y-124019587D01*
X94843339Y-124121662D01*
X94855900Y-124134223D01*
X94957975Y-124210724D01*
X94973570Y-124219262D01*
X95094018Y-124264416D01*
X95109273Y-124268043D01*
X95160138Y-124273569D01*
X95166952Y-124273938D01*
X95199509Y-124273938D01*
X95214748Y-124269463D01*
X95215953Y-124268073D01*
X95217624Y-124260390D01*
X95217624Y-122688053D01*
X95213149Y-122672814D01*
X95211759Y-122671609D01*
X95204076Y-122669938D01*
X94721740Y-122669938D01*
X94706501Y-122674413D01*
X94705296Y-122675803D01*
X94703625Y-122683486D01*
X94703625Y-123810607D01*
X81836124Y-123810607D01*
X81836124Y-122143823D01*
X94703624Y-122143823D01*
X94708099Y-122159062D01*
X94709489Y-122160267D01*
X94717172Y-122161938D01*
X95199509Y-122161938D01*
X95214748Y-122157463D01*
X95215953Y-122156073D01*
X95217624Y-122148390D01*
X95217624Y-120576054D01*
X95213149Y-120560815D01*
X95211759Y-120559610D01*
X95204076Y-120557939D01*
X95166955Y-120557939D01*
X95160134Y-120558309D01*
X95109272Y-120563833D01*
X95094020Y-120567459D01*
X94973570Y-120612614D01*
X94957975Y-120621152D01*
X94855900Y-120697653D01*
X94843339Y-120710214D01*
X94766838Y-120812289D01*
X94758300Y-120827884D01*
X94713146Y-120948332D01*
X94709519Y-120963587D01*
X94703993Y-121014452D01*
X94703624Y-121021266D01*
X94703624Y-122143823D01*
X81836124Y-122143823D01*
X81836124Y-120465616D01*
X81836441Y-120456682D01*
X81837179Y-120446303D01*
X81840457Y-120434333D01*
X81837113Y-120407806D01*
X81836825Y-120403215D01*
X81836731Y-120403224D01*
X81836124Y-120397061D01*
X81836124Y-120390871D01*
X81833869Y-120379536D01*
X81832436Y-120370708D01*
X81829346Y-120346191D01*
X81829345Y-120346189D01*
X81827794Y-120333881D01*
X81823177Y-120325781D01*
X81821358Y-120316637D01*
X81800735Y-120285773D01*
X81796036Y-120278169D01*
X81790239Y-120268000D01*
X81777654Y-120245922D01*
X81770287Y-120240204D01*
X81765108Y-120232454D01*
X81754798Y-120225565D01*
X81754795Y-120225562D01*
X81734232Y-120211822D01*
X81726990Y-120206602D01*
X81722753Y-120203314D01*
X81722751Y-120203313D01*
X81717860Y-120199517D01*
X81712324Y-120196750D01*
X81707081Y-120193449D01*
X81707132Y-120193368D01*
X81703153Y-120191057D01*
X81680925Y-120176204D01*
X81668752Y-120173783D01*
X81659125Y-120169795D01*
X81651004Y-120166089D01*
X79905774Y-119293474D01*
X79853791Y-119245120D01*
X79836124Y-119180777D01*
X79836124Y-114410607D01*
X92703625Y-114410607D01*
X92703995Y-114417428D01*
X92709519Y-114468290D01*
X92713145Y-114483542D01*
X92758300Y-114603992D01*
X92766838Y-114619587D01*
X92843339Y-114721662D01*
X92855900Y-114734223D01*
X92957975Y-114810724D01*
X92973570Y-114819262D01*
X93094018Y-114864416D01*
X93109273Y-114868043D01*
X93160138Y-114873569D01*
X93166952Y-114873938D01*
X93199509Y-114873938D01*
X93214748Y-114869463D01*
X93215953Y-114868073D01*
X93217624Y-114860390D01*
X93217624Y-113288053D01*
X93213149Y-113272814D01*
X93211759Y-113271609D01*
X93204076Y-113269938D01*
X92721740Y-113269938D01*
X92706501Y-113274413D01*
X92705296Y-113275803D01*
X92703625Y-113283486D01*
X92703625Y-114410607D01*
X79836124Y-114410607D01*
X79836124Y-112743823D01*
X92703624Y-112743823D01*
X92708099Y-112759062D01*
X92709489Y-112760267D01*
X92717172Y-112761938D01*
X93199509Y-112761938D01*
X93214748Y-112757463D01*
X93215953Y-112756073D01*
X93217624Y-112748390D01*
X93217624Y-111176054D01*
X93213149Y-111160815D01*
X93211759Y-111159610D01*
X93204076Y-111157939D01*
X93166955Y-111157939D01*
X93160134Y-111158309D01*
X93109272Y-111163833D01*
X93094020Y-111167459D01*
X92973570Y-111212614D01*
X92957975Y-111221152D01*
X92855900Y-111297653D01*
X92843339Y-111310214D01*
X92766838Y-111412289D01*
X92758300Y-111427884D01*
X92713146Y-111548332D01*
X92709519Y-111563587D01*
X92703993Y-111614452D01*
X92703624Y-111621266D01*
X92703624Y-112743823D01*
X79836124Y-112743823D01*
X79836124Y-110225900D01*
X85073624Y-110225900D01*
X85073832Y-110231010D01*
X85084705Y-110364706D01*
X85086475Y-110375259D01*
X85139590Y-110582124D01*
X85143324Y-110592670D01*
X85232133Y-110786644D01*
X85237669Y-110796351D01*
X85359426Y-110971536D01*
X85366599Y-110980115D01*
X85517447Y-111130963D01*
X85526026Y-111138136D01*
X85701211Y-111259893D01*
X85710918Y-111265429D01*
X85904892Y-111354238D01*
X85915438Y-111357972D01*
X86122302Y-111411086D01*
X86132857Y-111412857D01*
X86266553Y-111423732D01*
X86271659Y-111423939D01*
X86809508Y-111423939D01*
X86824747Y-111419464D01*
X86825952Y-111418074D01*
X86827623Y-111410391D01*
X86827623Y-111405823D01*
X87335623Y-111405823D01*
X87340098Y-111421062D01*
X87341488Y-111422267D01*
X87349171Y-111423938D01*
X87891584Y-111423938D01*
X87896694Y-111423730D01*
X88030390Y-111412857D01*
X88040943Y-111411087D01*
X88247808Y-111357972D01*
X88258354Y-111354238D01*
X88452328Y-111265429D01*
X88462035Y-111259893D01*
X88637220Y-111138136D01*
X88645799Y-111130963D01*
X88796647Y-110980115D01*
X88803820Y-110971536D01*
X88925577Y-110796351D01*
X88931113Y-110786644D01*
X89019922Y-110592670D01*
X89023656Y-110582124D01*
X89076770Y-110375260D01*
X89078541Y-110364705D01*
X89089416Y-110231009D01*
X89089623Y-110225903D01*
X89089623Y-109688054D01*
X89085148Y-109672815D01*
X89083758Y-109671610D01*
X89076075Y-109669939D01*
X87353738Y-109669939D01*
X87338499Y-109674414D01*
X87337294Y-109675804D01*
X87335623Y-109683487D01*
X87335623Y-111405823D01*
X86827623Y-111405823D01*
X86827623Y-109688054D01*
X86823148Y-109672815D01*
X86821758Y-109671610D01*
X86814075Y-109669939D01*
X85091739Y-109669939D01*
X85076500Y-109674414D01*
X85075295Y-109675804D01*
X85073624Y-109683487D01*
X85073624Y-110225900D01*
X79836124Y-110225900D01*
X79836124Y-109143824D01*
X85073623Y-109143824D01*
X85078098Y-109159063D01*
X85079488Y-109160268D01*
X85087171Y-109161939D01*
X86809508Y-109161939D01*
X86824747Y-109157464D01*
X86825952Y-109156074D01*
X86827623Y-109148391D01*
X86827623Y-109143824D01*
X87335623Y-109143824D01*
X87340098Y-109159063D01*
X87341488Y-109160268D01*
X87349171Y-109161939D01*
X89071507Y-109161939D01*
X89086746Y-109157464D01*
X89087951Y-109156074D01*
X89089622Y-109148391D01*
X89089622Y-108605978D01*
X89089414Y-108600868D01*
X89078541Y-108467172D01*
X89076771Y-108456619D01*
X89023656Y-108249754D01*
X89019922Y-108239208D01*
X88979357Y-108150607D01*
X92383625Y-108150607D01*
X92383995Y-108157428D01*
X92389519Y-108208290D01*
X92393145Y-108223542D01*
X92438300Y-108343992D01*
X92446838Y-108359587D01*
X92523339Y-108461662D01*
X92535900Y-108474223D01*
X92637975Y-108550724D01*
X92653570Y-108559262D01*
X92774018Y-108604416D01*
X92789273Y-108608043D01*
X92840138Y-108613569D01*
X92846952Y-108613938D01*
X93344509Y-108613938D01*
X93359748Y-108609463D01*
X93360953Y-108608073D01*
X93362624Y-108600390D01*
X93362624Y-107653053D01*
X93358149Y-107637814D01*
X93356759Y-107636609D01*
X93349076Y-107634938D01*
X92401740Y-107634938D01*
X92386501Y-107639413D01*
X92385296Y-107640803D01*
X92383625Y-107648486D01*
X92383625Y-108150607D01*
X88979357Y-108150607D01*
X88931113Y-108045234D01*
X88925577Y-108035527D01*
X88803820Y-107860342D01*
X88796647Y-107851763D01*
X88645799Y-107700915D01*
X88637220Y-107693742D01*
X88462035Y-107571985D01*
X88452328Y-107566449D01*
X88258354Y-107477640D01*
X88247808Y-107473906D01*
X88040944Y-107420792D01*
X88030389Y-107419021D01*
X87896693Y-107408146D01*
X87891587Y-107407939D01*
X87353738Y-107407939D01*
X87338499Y-107412414D01*
X87337294Y-107413804D01*
X87335623Y-107421487D01*
X87335623Y-109143824D01*
X86827623Y-109143824D01*
X86827623Y-107426055D01*
X86823148Y-107410816D01*
X86821758Y-107409611D01*
X86814075Y-107407940D01*
X86271662Y-107407940D01*
X86266552Y-107408148D01*
X86132856Y-107419021D01*
X86122303Y-107420791D01*
X85915438Y-107473906D01*
X85904892Y-107477640D01*
X85710918Y-107566449D01*
X85701211Y-107571985D01*
X85526026Y-107693742D01*
X85517447Y-107700915D01*
X85366599Y-107851763D01*
X85359426Y-107860342D01*
X85237669Y-108035527D01*
X85232133Y-108045234D01*
X85143324Y-108239208D01*
X85139590Y-108249754D01*
X85086476Y-108456618D01*
X85084705Y-108467173D01*
X85073830Y-108600869D01*
X85073623Y-108605975D01*
X85073623Y-109143824D01*
X79836124Y-109143824D01*
X79836124Y-102357538D01*
X82723303Y-102357538D01*
X82725598Y-102415938D01*
X82733614Y-102619960D01*
X82738325Y-102645757D01*
X82777818Y-102861998D01*
X82780797Y-102878312D01*
X82863912Y-103127438D01*
X82981300Y-103362367D01*
X83130618Y-103578413D01*
X83133634Y-103581675D01*
X83133639Y-103581682D01*
X83305872Y-103768002D01*
X83305877Y-103768006D01*
X83308888Y-103771264D01*
X83512552Y-103937073D01*
X83516369Y-103939371D01*
X83733732Y-104070234D01*
X83733736Y-104070236D01*
X83737548Y-104072531D01*
X83873155Y-104129953D01*
X83975281Y-104173199D01*
X83975286Y-104173201D01*
X83979384Y-104174936D01*
X83983681Y-104176075D01*
X83983686Y-104176077D01*
X84106311Y-104208590D01*
X84233238Y-104242244D01*
X84237655Y-104242767D01*
X84237656Y-104242767D01*
X84316333Y-104252079D01*
X84494042Y-104273112D01*
X84756594Y-104266925D01*
X84837167Y-104253514D01*
X85011264Y-104224536D01*
X85011268Y-104224535D01*
X85015654Y-104223805D01*
X85019895Y-104222464D01*
X85019898Y-104222463D01*
X85261809Y-104145957D01*
X85261811Y-104145956D01*
X85266055Y-104144614D01*
X85270066Y-104142688D01*
X85270071Y-104142686D01*
X85498781Y-104032861D01*
X85498782Y-104032860D01*
X85502800Y-104030931D01*
X85612609Y-103957559D01*
X85717456Y-103887502D01*
X85717460Y-103887499D01*
X85721164Y-103885024D01*
X85724481Y-103882053D01*
X85724485Y-103882050D01*
X85913474Y-103712778D01*
X85913475Y-103712777D01*
X85916792Y-103709806D01*
X86085779Y-103508771D01*
X86224755Y-103285931D01*
X86227020Y-103280809D01*
X86272107Y-103178823D01*
X92383624Y-103178823D01*
X92388099Y-103194062D01*
X92389489Y-103195267D01*
X92397172Y-103196938D01*
X93344509Y-103196938D01*
X93359748Y-103192463D01*
X93360953Y-103191073D01*
X93362624Y-103183390D01*
X93362624Y-102236054D01*
X93358149Y-102220815D01*
X93356759Y-102219610D01*
X93349076Y-102217939D01*
X92846955Y-102217939D01*
X92840134Y-102218309D01*
X92789272Y-102223833D01*
X92774020Y-102227459D01*
X92653570Y-102272614D01*
X92637975Y-102281152D01*
X92535900Y-102357653D01*
X92523339Y-102370214D01*
X92446838Y-102472289D01*
X92438300Y-102487884D01*
X92393146Y-102608332D01*
X92389519Y-102623587D01*
X92383993Y-102674452D01*
X92383624Y-102681266D01*
X92383624Y-103178823D01*
X86272107Y-103178823D01*
X86329147Y-103049799D01*
X86330945Y-103045732D01*
X86402232Y-102792968D01*
X86414602Y-102700871D01*
X86436766Y-102535863D01*
X86436767Y-102535855D01*
X86437193Y-102532681D01*
X86440862Y-102415938D01*
X86422314Y-102153969D01*
X86408964Y-102091958D01*
X86367975Y-101901574D01*
X86367975Y-101901572D01*
X86367039Y-101897227D01*
X86276140Y-101650835D01*
X86151431Y-101419708D01*
X85995400Y-101208460D01*
X85955713Y-101168144D01*
X85814291Y-101024484D01*
X85811160Y-101021303D01*
X85807621Y-101018602D01*
X85807614Y-101018596D01*
X85669119Y-100912901D01*
X85602388Y-100861973D01*
X85542841Y-100828625D01*
X85377140Y-100735828D01*
X85377139Y-100735828D01*
X85373249Y-100733649D01*
X85369090Y-100732040D01*
X85132470Y-100640498D01*
X85132464Y-100640496D01*
X85128315Y-100638891D01*
X85123983Y-100637887D01*
X85123980Y-100637886D01*
X84911724Y-100588688D01*
X84872473Y-100579590D01*
X84610828Y-100556929D01*
X84606393Y-100557173D01*
X84606389Y-100557173D01*
X84353043Y-100571116D01*
X84353036Y-100571117D01*
X84348600Y-100571361D01*
X84091021Y-100622596D01*
X83843232Y-100709614D01*
X83839281Y-100711667D01*
X83839275Y-100711669D01*
X83614125Y-100828625D01*
X83610175Y-100830677D01*
X83396501Y-100983370D01*
X83393276Y-100986447D01*
X83393273Y-100986449D01*
X83220172Y-101151581D01*
X83206474Y-101164648D01*
X83043884Y-101370891D01*
X83005443Y-101437072D01*
X82914211Y-101594139D01*
X82914208Y-101594145D01*
X82911977Y-101597986D01*
X82910307Y-101602109D01*
X82841045Y-101773111D01*
X82813384Y-101841402D01*
X82812313Y-101845715D01*
X82812311Y-101845720D01*
X82799517Y-101897227D01*
X82750071Y-102096281D01*
X82723303Y-102357538D01*
X79836124Y-102357538D01*
X79836124Y-100573545D01*
X79856126Y-100505424D01*
X79873029Y-100484450D01*
X82650136Y-97707343D01*
X82712448Y-97673317D01*
X82739231Y-97670438D01*
X98266139Y-97670438D01*
X98334260Y-97690440D01*
G37*
%TD.AperFunction*%
%TD*%
%TA.AperFunction,Conductor*%
%TO.N,GND*%
G36*
X104887392Y-147021434D02*
G01*
X104934000Y-147074989D01*
X104945500Y-147127579D01*
X104945500Y-152456763D01*
X104925498Y-152524884D01*
X104871842Y-152571377D01*
X104863731Y-152574744D01*
X104863642Y-152574777D01*
X104863638Y-152574779D01*
X104855236Y-152577929D01*
X104848057Y-152583309D01*
X104848054Y-152583311D01*
X104791683Y-152625559D01*
X104739596Y-152664596D01*
X104734215Y-152671776D01*
X104658311Y-152773054D01*
X104658309Y-152773057D01*
X104652929Y-152780236D01*
X104602202Y-152915552D01*
X104595500Y-152977244D01*
X104595500Y-153597756D01*
X104602202Y-153659448D01*
X104604975Y-153666845D01*
X104604976Y-153666849D01*
X104608363Y-153675884D01*
X104613544Y-153746692D01*
X104579475Y-153809206D01*
X104153469Y-154235212D01*
X104142380Y-154245067D01*
X104115421Y-154266320D01*
X104102427Y-154285121D01*
X104081738Y-154315055D01*
X104079456Y-154318248D01*
X104044271Y-154365885D01*
X104041857Y-154372758D01*
X104037716Y-154378750D01*
X104025970Y-154415893D01*
X104019854Y-154435231D01*
X104018609Y-154438960D01*
X103998987Y-154494835D01*
X103998704Y-154502039D01*
X103998671Y-154502210D01*
X103996505Y-154509058D01*
X103995980Y-154515729D01*
X103995980Y-154568899D01*
X103995883Y-154573845D01*
X103993622Y-154631398D01*
X103995519Y-154638553D01*
X103995980Y-154646928D01*
X103995980Y-154659070D01*
X103975978Y-154727191D01*
X103959075Y-154748165D01*
X103807707Y-154899533D01*
X103745395Y-154933559D01*
X103718612Y-154936438D01*
X101657623Y-154936438D01*
X101589502Y-154916436D01*
X101543009Y-154862780D01*
X101531623Y-154810438D01*
X101531623Y-154522823D01*
X101931623Y-154522823D01*
X101936098Y-154538062D01*
X101937488Y-154539267D01*
X101945171Y-154540938D01*
X102938588Y-154540938D01*
X102952359Y-154536894D01*
X102954388Y-154523355D01*
X102950051Y-154490405D01*
X102945814Y-154474593D01*
X102941492Y-154464159D01*
X102933901Y-154393569D01*
X102941492Y-154367717D01*
X102945813Y-154357286D01*
X102950051Y-154341469D01*
X102954339Y-154308898D01*
X102952128Y-154294716D01*
X102938971Y-154290938D01*
X101949738Y-154290938D01*
X101934499Y-154295413D01*
X101933294Y-154296803D01*
X101931623Y-154304486D01*
X101931623Y-154522823D01*
X101531623Y-154522823D01*
X101531623Y-154021438D01*
X101551625Y-153953317D01*
X101605281Y-153906824D01*
X101657623Y-153895438D01*
X102390225Y-153895438D01*
X102394774Y-153894768D01*
X102394779Y-153894768D01*
X102411671Y-153892281D01*
X102430021Y-153890938D01*
X102938588Y-153890938D01*
X102952359Y-153886894D01*
X102954388Y-153873355D01*
X102950051Y-153840405D01*
X102945813Y-153824590D01*
X102890870Y-153691945D01*
X102882682Y-153677762D01*
X102795279Y-153563858D01*
X102783706Y-153552285D01*
X102760418Y-153534415D01*
X102718551Y-153477076D01*
X102711123Y-153434453D01*
X102711123Y-153307336D01*
X102709944Y-153299323D01*
X102702292Y-153247346D01*
X102702292Y-153247345D01*
X102700866Y-153237660D01*
X102676121Y-153187260D01*
X102653443Y-153141070D01*
X102653442Y-153141068D01*
X102648853Y-153131722D01*
X102565329Y-153048343D01*
X102459300Y-152996515D01*
X102428978Y-152992091D01*
X102394751Y-152987098D01*
X102394747Y-152987098D01*
X102390225Y-152986438D01*
X102262123Y-152986438D01*
X102194002Y-152966436D01*
X102147509Y-152912780D01*
X102136123Y-152860438D01*
X102136123Y-152826872D01*
X102133058Y-152817438D01*
X102129227Y-152805647D01*
X102124612Y-152786425D01*
X102122672Y-152774177D01*
X102121121Y-152764382D01*
X102116618Y-152755546D01*
X102116617Y-152755541D01*
X102110992Y-152744502D01*
X102103425Y-152726235D01*
X102099594Y-152714446D01*
X102099593Y-152714445D01*
X102096528Y-152705010D01*
X102083415Y-152686961D01*
X102073081Y-152670100D01*
X102067449Y-152659046D01*
X102062949Y-152650214D01*
X101220138Y-151807403D01*
X101220134Y-151807400D01*
X101197346Y-151784612D01*
X101177467Y-151774483D01*
X101160612Y-151764154D01*
X101150576Y-151756863D01*
X101142552Y-151751033D01*
X101121327Y-151744137D01*
X101103061Y-151736571D01*
X101083178Y-151726440D01*
X101061136Y-151722949D01*
X101041910Y-151718333D01*
X101030123Y-151714503D01*
X101030121Y-151714503D01*
X101020689Y-151711438D01*
X89160571Y-151711438D01*
X89092450Y-151691436D01*
X89044161Y-151633654D01*
X89042155Y-151628810D01*
X89039734Y-151616637D01*
X88983484Y-151532454D01*
X88899301Y-151476204D01*
X88825067Y-151461438D01*
X87800166Y-151461438D01*
X86774934Y-151461439D01*
X86739182Y-151468550D01*
X86712874Y-151473782D01*
X86712872Y-151473783D01*
X86700699Y-151476204D01*
X86690379Y-151483099D01*
X86690378Y-151483100D01*
X86629985Y-151523454D01*
X86616516Y-151532454D01*
X86560266Y-151616637D01*
X86545500Y-151690871D01*
X86545501Y-152541004D01*
X86548751Y-152557342D01*
X86556881Y-152598219D01*
X86560266Y-152615239D01*
X86616516Y-152699422D01*
X86700699Y-152755672D01*
X86774933Y-152770438D01*
X87799834Y-152770438D01*
X88825066Y-152770437D01*
X88860818Y-152763326D01*
X88887126Y-152758094D01*
X88887128Y-152758093D01*
X88899301Y-152755672D01*
X88909621Y-152748777D01*
X88909622Y-152748776D01*
X88973168Y-152706315D01*
X88983484Y-152699422D01*
X89039734Y-152615239D01*
X89042156Y-152603064D01*
X89044163Y-152598219D01*
X89088712Y-152542939D01*
X89160572Y-152520438D01*
X90101123Y-152520438D01*
X90169244Y-152540440D01*
X90215737Y-152594096D01*
X90227123Y-152646438D01*
X90227124Y-153824590D01*
X90227124Y-154991004D01*
X90230980Y-155010390D01*
X90238889Y-155050154D01*
X90241889Y-155065239D01*
X90248784Y-155075558D01*
X90248785Y-155075560D01*
X90289139Y-155135953D01*
X90298139Y-155149422D01*
X90382322Y-155205672D01*
X90456556Y-155220438D01*
X90734728Y-155220438D01*
X93029040Y-155220437D01*
X93097161Y-155240439D01*
X93118135Y-155257342D01*
X94478636Y-156617843D01*
X94512662Y-156680155D01*
X94507597Y-156750970D01*
X94465050Y-156807806D01*
X94420157Y-156824550D01*
X94421121Y-156827834D01*
X94388499Y-156837413D01*
X94387294Y-156838803D01*
X94385623Y-156846486D01*
X94385623Y-157518823D01*
X94390098Y-157534062D01*
X94391488Y-157535267D01*
X94399171Y-157536938D01*
X95096508Y-157536938D01*
X95111747Y-157532463D01*
X95112952Y-157531073D01*
X95113735Y-157527472D01*
X95147759Y-157465159D01*
X95210071Y-157431133D01*
X95280886Y-157436197D01*
X95325951Y-157465158D01*
X96040218Y-158179425D01*
X96074244Y-158241737D01*
X96077123Y-158268520D01*
X96077124Y-158876117D01*
X96077124Y-159441004D01*
X96091889Y-159515239D01*
X96098785Y-159525559D01*
X96103534Y-159537025D01*
X96099314Y-159538773D01*
X96113233Y-159583026D01*
X96094538Y-159651517D01*
X96041783Y-159699029D01*
X95987256Y-159711438D01*
X95197074Y-159711438D01*
X95128953Y-159691436D01*
X95107978Y-159674533D01*
X94898027Y-159464581D01*
X94864002Y-159402269D01*
X94861123Y-159375486D01*
X94861122Y-159073968D01*
X94861122Y-159070550D01*
X94854753Y-159011914D01*
X94806540Y-158883303D01*
X94801160Y-158876124D01*
X94801158Y-158876121D01*
X94759051Y-158819939D01*
X94751786Y-158810245D01*
X94726938Y-158743740D01*
X94741990Y-158674357D01*
X94786309Y-158627536D01*
X94833796Y-158598150D01*
X94845197Y-158589114D01*
X94955609Y-158478509D01*
X94964621Y-158467098D01*
X95046627Y-158334058D01*
X95052774Y-158320877D01*
X95102114Y-158172124D01*
X95104981Y-158158748D01*
X95114295Y-158067841D01*
X95114552Y-158062812D01*
X95110148Y-158047814D01*
X95108758Y-158046609D01*
X95101075Y-158044938D01*
X93166738Y-158044938D01*
X93151499Y-158049413D01*
X93150294Y-158050803D01*
X93148623Y-158058486D01*
X93148623Y-158061376D01*
X93148960Y-158067891D01*
X93158517Y-158159995D01*
X93161411Y-158173394D01*
X93211004Y-158322045D01*
X93217178Y-158335224D01*
X93299411Y-158468111D01*
X93308447Y-158479512D01*
X93419052Y-158589924D01*
X93430463Y-158598936D01*
X93476725Y-158627452D01*
X93524218Y-158680224D01*
X93535642Y-158750296D01*
X93511435Y-158810277D01*
X93462091Y-158876117D01*
X93462089Y-158876120D01*
X93456706Y-158883303D01*
X93408493Y-159011914D01*
X93402123Y-159070549D01*
X93402124Y-159611326D01*
X93402493Y-159614720D01*
X93402493Y-159614726D01*
X93406941Y-159655672D01*
X93408493Y-159669962D01*
X93456706Y-159798573D01*
X93462086Y-159805752D01*
X93462088Y-159805755D01*
X93502598Y-159859806D01*
X93539079Y-159908482D01*
X93546256Y-159913861D01*
X93641806Y-159985473D01*
X93641809Y-159985475D01*
X93648988Y-159990855D01*
X93657392Y-159994005D01*
X93657393Y-159994006D01*
X93770204Y-160036296D01*
X93770205Y-160036296D01*
X93777599Y-160039068D01*
X93785449Y-160039921D01*
X93785450Y-160039921D01*
X93832837Y-160045069D01*
X93836234Y-160045438D01*
X93858173Y-160045438D01*
X94141172Y-160045437D01*
X94209292Y-160065439D01*
X94230268Y-160082342D01*
X94610879Y-160462954D01*
X94620733Y-160474043D01*
X94641982Y-160500997D01*
X94649729Y-160506351D01*
X94649733Y-160506355D01*
X94690695Y-160534666D01*
X94693915Y-160536967D01*
X94733965Y-160566548D01*
X94733967Y-160566549D01*
X94741546Y-160572147D01*
X94748421Y-160574561D01*
X94754412Y-160578702D01*
X94805431Y-160594837D01*
X94810854Y-160596552D01*
X94814610Y-160597805D01*
X94870496Y-160617431D01*
X94877703Y-160617714D01*
X94877870Y-160617747D01*
X94884720Y-160619913D01*
X94891391Y-160620438D01*
X94944561Y-160620438D01*
X94949507Y-160620535D01*
X95007060Y-160622796D01*
X95014215Y-160620899D01*
X95022590Y-160620438D01*
X96205623Y-160620438D01*
X96273744Y-160640440D01*
X96320237Y-160694096D01*
X96331623Y-160746438D01*
X96331623Y-162035438D01*
X96311621Y-162103559D01*
X96257965Y-162150052D01*
X96205623Y-162161438D01*
X82739231Y-162161438D01*
X82671110Y-162141436D01*
X82650136Y-162124533D01*
X80551351Y-160025746D01*
X87823625Y-160025746D01*
X87823745Y-160029640D01*
X87826414Y-160072832D01*
X87827750Y-160082411D01*
X87871672Y-160283012D01*
X87875319Y-160294371D01*
X87955930Y-160481998D01*
X87961665Y-160492472D01*
X88076293Y-160661461D01*
X88083906Y-160670663D01*
X88228426Y-160814931D01*
X88237639Y-160822526D01*
X88406830Y-160936861D01*
X88417314Y-160942577D01*
X88605074Y-161022857D01*
X88616445Y-161026486D01*
X88817104Y-161070054D01*
X88826724Y-161071376D01*
X88868011Y-161073829D01*
X88871726Y-161073939D01*
X89309509Y-161073939D01*
X89324748Y-161069464D01*
X89325953Y-161068074D01*
X89327624Y-161060391D01*
X89327624Y-161055823D01*
X89835624Y-161055823D01*
X89840099Y-161071062D01*
X89841489Y-161072267D01*
X89849172Y-161073938D01*
X90291431Y-161073938D01*
X90295325Y-161073818D01*
X90338517Y-161071149D01*
X90348096Y-161069813D01*
X90548697Y-161025891D01*
X90560056Y-161022244D01*
X90747683Y-160941633D01*
X90758157Y-160935898D01*
X90927146Y-160821270D01*
X90936348Y-160813657D01*
X91080616Y-160669137D01*
X91088211Y-160659924D01*
X91202546Y-160490733D01*
X91208262Y-160480249D01*
X91288542Y-160292489D01*
X91292171Y-160281118D01*
X91335739Y-160080459D01*
X91337061Y-160070839D01*
X91339514Y-160029552D01*
X91339624Y-160025837D01*
X91339624Y-158838054D01*
X91335149Y-158822815D01*
X91333759Y-158821610D01*
X91326076Y-158819939D01*
X89853739Y-158819939D01*
X89838500Y-158824414D01*
X89837295Y-158825804D01*
X89835624Y-158833487D01*
X89835624Y-161055823D01*
X89327624Y-161055823D01*
X89327624Y-158838054D01*
X89323149Y-158822815D01*
X89321759Y-158821610D01*
X89314076Y-158819939D01*
X87841740Y-158819939D01*
X87826501Y-158824414D01*
X87825296Y-158825804D01*
X87823625Y-158833487D01*
X87823625Y-160025746D01*
X80551351Y-160025746D01*
X79873029Y-159347424D01*
X79839003Y-159285112D01*
X79836124Y-159258329D01*
X79836124Y-158293824D01*
X87823624Y-158293824D01*
X87828099Y-158309063D01*
X87829489Y-158310268D01*
X87837172Y-158311939D01*
X89309509Y-158311939D01*
X89324748Y-158307464D01*
X89325953Y-158306074D01*
X89327624Y-158298391D01*
X89327624Y-158293824D01*
X89835624Y-158293824D01*
X89840099Y-158309063D01*
X89841489Y-158310268D01*
X89849172Y-158311939D01*
X91321508Y-158311939D01*
X91336747Y-158307464D01*
X91337952Y-158306074D01*
X91339623Y-158298391D01*
X91339623Y-157519064D01*
X93148694Y-157519064D01*
X93153098Y-157534062D01*
X93154488Y-157535267D01*
X93162171Y-157536938D01*
X93859508Y-157536938D01*
X93874747Y-157532463D01*
X93875952Y-157531073D01*
X93877623Y-157523390D01*
X93877623Y-156851053D01*
X93873148Y-156835814D01*
X93871758Y-156834609D01*
X93864075Y-156832938D01*
X93836185Y-156832938D01*
X93829670Y-156833275D01*
X93737566Y-156842832D01*
X93724167Y-156845726D01*
X93575516Y-156895319D01*
X93562337Y-156901493D01*
X93429450Y-156983726D01*
X93418049Y-156992762D01*
X93307637Y-157103367D01*
X93298625Y-157114778D01*
X93216619Y-157247818D01*
X93210472Y-157260999D01*
X93161132Y-157409752D01*
X93158265Y-157423128D01*
X93148951Y-157514035D01*
X93148694Y-157519064D01*
X91339623Y-157519064D01*
X91339623Y-157106133D01*
X91339503Y-157102238D01*
X91336834Y-157059046D01*
X91335498Y-157049467D01*
X91291576Y-156848866D01*
X91287929Y-156837507D01*
X91207318Y-156649880D01*
X91201583Y-156639406D01*
X91086955Y-156470417D01*
X91079342Y-156461215D01*
X90934822Y-156316947D01*
X90925609Y-156309352D01*
X90756418Y-156195017D01*
X90745934Y-156189301D01*
X90558174Y-156109021D01*
X90546803Y-156105392D01*
X90346144Y-156061824D01*
X90336524Y-156060502D01*
X90295237Y-156058049D01*
X90291522Y-156057939D01*
X89853739Y-156057939D01*
X89838500Y-156062414D01*
X89837295Y-156063804D01*
X89835624Y-156071487D01*
X89835624Y-158293824D01*
X89327624Y-158293824D01*
X89327624Y-156076055D01*
X89323149Y-156060816D01*
X89321759Y-156059611D01*
X89314076Y-156057940D01*
X88871818Y-156057940D01*
X88867923Y-156058060D01*
X88824731Y-156060729D01*
X88815152Y-156062065D01*
X88614551Y-156105987D01*
X88603192Y-156109634D01*
X88415565Y-156190245D01*
X88405091Y-156195980D01*
X88236102Y-156310608D01*
X88226900Y-156318221D01*
X88082632Y-156462741D01*
X88075037Y-156471954D01*
X87960702Y-156641145D01*
X87954986Y-156651629D01*
X87874706Y-156839389D01*
X87871077Y-156850760D01*
X87827509Y-157051419D01*
X87826187Y-157061039D01*
X87823734Y-157102326D01*
X87823624Y-157106041D01*
X87823624Y-158293824D01*
X79836124Y-158293824D01*
X79836124Y-153690871D01*
X81545500Y-153690871D01*
X81545501Y-154541004D01*
X81560266Y-154615239D01*
X81616516Y-154699422D01*
X81700699Y-154755672D01*
X81774933Y-154770438D01*
X82799834Y-154770438D01*
X83825066Y-154770437D01*
X83860818Y-154763326D01*
X83887126Y-154758094D01*
X83887128Y-154758093D01*
X83899301Y-154755672D01*
X83909621Y-154748777D01*
X83909622Y-154748776D01*
X83970015Y-154708422D01*
X83983484Y-154699422D01*
X84039734Y-154615239D01*
X84054500Y-154541005D01*
X84054499Y-154108506D01*
X84590365Y-154108506D01*
X84591148Y-154115597D01*
X84609076Y-154277993D01*
X84667676Y-154438123D01*
X84671912Y-154444426D01*
X84671913Y-154444429D01*
X84758540Y-154573345D01*
X84758543Y-154573348D01*
X84762780Y-154579654D01*
X84768400Y-154584768D01*
X84768402Y-154584770D01*
X84883283Y-154689303D01*
X84888899Y-154694413D01*
X84903075Y-154702110D01*
X85028921Y-154770438D01*
X85038752Y-154775776D01*
X85203686Y-154819046D01*
X85290596Y-154820411D01*
X85366582Y-154821605D01*
X85366585Y-154821605D01*
X85374181Y-154821724D01*
X85381586Y-154820028D01*
X85381587Y-154820028D01*
X85442472Y-154806083D01*
X85540393Y-154783657D01*
X85652664Y-154727191D01*
X85685945Y-154710453D01*
X85685948Y-154710451D01*
X85692728Y-154707041D01*
X85788129Y-154625560D01*
X85816617Y-154601229D01*
X85816618Y-154601228D01*
X85822389Y-154596299D01*
X85848036Y-154560607D01*
X86292001Y-154560607D01*
X86292371Y-154567428D01*
X86297895Y-154618290D01*
X86301521Y-154633542D01*
X86346676Y-154753992D01*
X86355214Y-154769587D01*
X86431715Y-154871662D01*
X86444276Y-154884223D01*
X86546351Y-154960724D01*
X86561946Y-154969262D01*
X86682394Y-155014416D01*
X86697649Y-155018043D01*
X86748514Y-155023569D01*
X86755328Y-155023938D01*
X87527885Y-155023938D01*
X87543124Y-155019463D01*
X87544329Y-155018073D01*
X87546000Y-155010390D01*
X87546000Y-155005822D01*
X88054000Y-155005822D01*
X88058475Y-155021061D01*
X88059865Y-155022266D01*
X88067548Y-155023937D01*
X88844669Y-155023937D01*
X88851490Y-155023567D01*
X88902352Y-155018043D01*
X88917604Y-155014417D01*
X89038054Y-154969262D01*
X89053649Y-154960724D01*
X89155724Y-154884223D01*
X89168285Y-154871662D01*
X89244786Y-154769587D01*
X89253324Y-154753992D01*
X89298478Y-154633544D01*
X89302105Y-154618289D01*
X89307631Y-154567424D01*
X89308000Y-154560610D01*
X89308000Y-154388053D01*
X89303525Y-154372814D01*
X89302135Y-154371609D01*
X89294452Y-154369938D01*
X88072115Y-154369938D01*
X88056876Y-154374413D01*
X88055671Y-154375803D01*
X88054000Y-154383486D01*
X88054000Y-155005822D01*
X87546000Y-155005822D01*
X87546000Y-154388053D01*
X87541525Y-154372814D01*
X87540135Y-154371609D01*
X87532452Y-154369938D01*
X86310116Y-154369938D01*
X86294877Y-154374413D01*
X86293672Y-154375803D01*
X86292001Y-154383486D01*
X86292001Y-154560607D01*
X85848036Y-154560607D01*
X85921892Y-154457826D01*
X85985492Y-154299615D01*
X86009518Y-154130800D01*
X86009674Y-154115938D01*
X85989189Y-153946657D01*
X85950331Y-153843823D01*
X86292000Y-153843823D01*
X86296475Y-153859062D01*
X86297865Y-153860267D01*
X86305548Y-153861938D01*
X87527885Y-153861938D01*
X87543124Y-153857463D01*
X87544329Y-153856073D01*
X87546000Y-153848390D01*
X87546000Y-153843823D01*
X88054000Y-153843823D01*
X88058475Y-153859062D01*
X88059865Y-153860267D01*
X88067548Y-153861938D01*
X89289884Y-153861938D01*
X89305123Y-153857463D01*
X89306328Y-153856073D01*
X89307999Y-153848390D01*
X89307999Y-153671269D01*
X89307629Y-153664448D01*
X89302105Y-153613586D01*
X89298479Y-153598334D01*
X89253324Y-153477884D01*
X89244786Y-153462289D01*
X89168285Y-153360214D01*
X89155724Y-153347653D01*
X89053649Y-153271152D01*
X89038054Y-153262614D01*
X88917606Y-153217460D01*
X88902351Y-153213833D01*
X88851486Y-153208307D01*
X88844672Y-153207938D01*
X88072115Y-153207938D01*
X88056876Y-153212413D01*
X88055671Y-153213803D01*
X88054000Y-153221486D01*
X88054000Y-153843823D01*
X87546000Y-153843823D01*
X87546000Y-153226054D01*
X87541525Y-153210815D01*
X87540135Y-153209610D01*
X87532452Y-153207939D01*
X86755331Y-153207939D01*
X86748510Y-153208309D01*
X86697648Y-153213833D01*
X86682396Y-153217459D01*
X86561946Y-153262614D01*
X86546351Y-153271152D01*
X86444276Y-153347653D01*
X86431715Y-153360214D01*
X86355214Y-153462289D01*
X86346676Y-153477884D01*
X86301522Y-153598332D01*
X86297895Y-153613587D01*
X86292369Y-153664452D01*
X86292000Y-153671266D01*
X86292000Y-153843823D01*
X85950331Y-153843823D01*
X85928916Y-153787149D01*
X85863484Y-153691945D01*
X85836636Y-153652881D01*
X85836635Y-153652880D01*
X85832334Y-153646622D01*
X85812343Y-153628810D01*
X85710691Y-153538242D01*
X85705021Y-153533190D01*
X85697070Y-153528980D01*
X85561037Y-153456954D01*
X85561035Y-153456953D01*
X85554324Y-153453400D01*
X85544256Y-153450871D01*
X85396317Y-153413711D01*
X85396313Y-153413711D01*
X85388946Y-153411860D01*
X85381347Y-153411820D01*
X85381345Y-153411820D01*
X85310429Y-153411449D01*
X85218432Y-153410967D01*
X85211052Y-153412739D01*
X85211050Y-153412739D01*
X85060006Y-153449001D01*
X85060002Y-153449002D01*
X85052627Y-153450773D01*
X84901104Y-153528980D01*
X84895382Y-153533972D01*
X84895380Y-153533973D01*
X84786666Y-153628810D01*
X84772609Y-153641073D01*
X84674562Y-153780581D01*
X84612622Y-153939449D01*
X84611630Y-153946982D01*
X84611630Y-153946983D01*
X84600589Y-154030850D01*
X84590365Y-154108506D01*
X84054499Y-154108506D01*
X84054499Y-153690872D01*
X84045698Y-153646622D01*
X84042156Y-153628812D01*
X84042155Y-153628810D01*
X84039734Y-153616637D01*
X83983484Y-153532454D01*
X83899301Y-153476204D01*
X83825067Y-153461438D01*
X82800166Y-153461438D01*
X81774934Y-153461439D01*
X81739182Y-153468550D01*
X81712874Y-153473782D01*
X81712872Y-153473783D01*
X81700699Y-153476204D01*
X81690379Y-153483099D01*
X81690378Y-153483100D01*
X81629985Y-153523454D01*
X81616516Y-153532454D01*
X81560266Y-153616637D01*
X81545500Y-153690871D01*
X79836124Y-153690871D01*
X79836124Y-151690871D01*
X81545500Y-151690871D01*
X81545501Y-152541004D01*
X81548751Y-152557342D01*
X81556881Y-152598219D01*
X81560266Y-152615239D01*
X81616516Y-152699422D01*
X81700699Y-152755672D01*
X81774933Y-152770438D01*
X82799834Y-152770438D01*
X83825066Y-152770437D01*
X83860818Y-152763326D01*
X83887126Y-152758094D01*
X83887128Y-152758093D01*
X83899301Y-152755672D01*
X83909621Y-152748777D01*
X83909622Y-152748776D01*
X83973168Y-152706315D01*
X83983484Y-152699422D01*
X84039734Y-152615239D01*
X84054500Y-152541005D01*
X84054499Y-151690872D01*
X84039734Y-151616637D01*
X83983484Y-151532454D01*
X83899301Y-151476204D01*
X83825067Y-151461438D01*
X82800166Y-151461438D01*
X81774934Y-151461439D01*
X81739182Y-151468550D01*
X81712874Y-151473782D01*
X81712872Y-151473783D01*
X81700699Y-151476204D01*
X81690379Y-151483099D01*
X81690378Y-151483100D01*
X81629985Y-151523454D01*
X81616516Y-151532454D01*
X81560266Y-151616637D01*
X81545500Y-151690871D01*
X79836124Y-151690871D01*
X79836124Y-149690871D01*
X81545500Y-149690871D01*
X81545501Y-150541004D01*
X81560266Y-150615239D01*
X81616516Y-150699422D01*
X81700699Y-150755672D01*
X81774933Y-150770438D01*
X82799834Y-150770438D01*
X83825066Y-150770437D01*
X83860818Y-150763326D01*
X83887126Y-150758094D01*
X83887128Y-150758093D01*
X83899301Y-150755672D01*
X83909621Y-150748777D01*
X83909622Y-150748776D01*
X83970015Y-150708422D01*
X83983484Y-150699422D01*
X84039734Y-150615239D01*
X84054500Y-150541005D01*
X84054499Y-150108506D01*
X84590365Y-150108506D01*
X84591148Y-150115597D01*
X84609076Y-150277993D01*
X84667676Y-150438123D01*
X84671912Y-150444426D01*
X84671913Y-150444429D01*
X84758540Y-150573345D01*
X84758543Y-150573348D01*
X84762780Y-150579654D01*
X84768400Y-150584768D01*
X84768402Y-150584770D01*
X84883283Y-150689303D01*
X84888899Y-150694413D01*
X84903075Y-150702110D01*
X85028921Y-150770438D01*
X85038752Y-150775776D01*
X85203686Y-150819046D01*
X85290596Y-150820411D01*
X85366582Y-150821605D01*
X85366585Y-150821605D01*
X85374181Y-150821724D01*
X85381586Y-150820028D01*
X85381587Y-150820028D01*
X85442472Y-150806083D01*
X85540393Y-150783657D01*
X85616561Y-150745349D01*
X85685945Y-150710453D01*
X85685948Y-150710451D01*
X85692728Y-150707041D01*
X85788129Y-150625560D01*
X85816617Y-150601229D01*
X85816618Y-150601228D01*
X85822389Y-150596299D01*
X85921892Y-150457826D01*
X85985492Y-150299615D01*
X86009518Y-150130800D01*
X86009674Y-150115938D01*
X85989189Y-149946657D01*
X85928916Y-149787149D01*
X85866998Y-149697058D01*
X85862746Y-149690871D01*
X86545500Y-149690871D01*
X86545501Y-150541004D01*
X86560266Y-150615239D01*
X86616516Y-150699422D01*
X86700699Y-150755672D01*
X86774933Y-150770438D01*
X87799834Y-150770438D01*
X88825066Y-150770437D01*
X88860818Y-150763326D01*
X88887126Y-150758094D01*
X88887128Y-150758093D01*
X88899301Y-150755672D01*
X88909621Y-150748777D01*
X88909622Y-150748776D01*
X88970015Y-150708422D01*
X88983484Y-150699422D01*
X89039734Y-150615239D01*
X89054500Y-150541005D01*
X89054499Y-149690872D01*
X89039734Y-149616637D01*
X88983484Y-149532454D01*
X88899301Y-149476204D01*
X88825067Y-149461438D01*
X87800166Y-149461438D01*
X86774934Y-149461439D01*
X86739182Y-149468550D01*
X86712874Y-149473782D01*
X86712872Y-149473783D01*
X86700699Y-149476204D01*
X86690379Y-149483099D01*
X86690378Y-149483100D01*
X86629985Y-149523454D01*
X86616516Y-149532454D01*
X86560266Y-149616637D01*
X86545500Y-149690871D01*
X85862746Y-149690871D01*
X85836636Y-149652881D01*
X85836635Y-149652880D01*
X85832334Y-149646622D01*
X85812343Y-149628810D01*
X85710691Y-149538242D01*
X85705021Y-149533190D01*
X85697070Y-149528980D01*
X85561037Y-149456954D01*
X85561035Y-149456953D01*
X85554324Y-149453400D01*
X85546959Y-149451550D01*
X85396317Y-149413711D01*
X85396313Y-149413711D01*
X85388946Y-149411860D01*
X85381347Y-149411820D01*
X85381345Y-149411820D01*
X85310429Y-149411449D01*
X85218432Y-149410967D01*
X85211052Y-149412739D01*
X85211050Y-149412739D01*
X85060006Y-149449001D01*
X85060002Y-149449002D01*
X85052627Y-149450773D01*
X84901104Y-149528980D01*
X84895382Y-149533972D01*
X84895380Y-149533973D01*
X84786666Y-149628810D01*
X84772609Y-149641073D01*
X84674562Y-149780581D01*
X84612622Y-149939449D01*
X84611630Y-149946982D01*
X84611630Y-149946983D01*
X84600589Y-150030850D01*
X84590365Y-150108506D01*
X84054499Y-150108506D01*
X84054499Y-149690872D01*
X84039734Y-149616637D01*
X83983484Y-149532454D01*
X83899301Y-149476204D01*
X83825067Y-149461438D01*
X82800166Y-149461438D01*
X81774934Y-149461439D01*
X81739182Y-149468550D01*
X81712874Y-149473782D01*
X81712872Y-149473783D01*
X81700699Y-149476204D01*
X81690379Y-149483099D01*
X81690378Y-149483100D01*
X81629985Y-149523454D01*
X81616516Y-149532454D01*
X81560266Y-149616637D01*
X81545500Y-149690871D01*
X79836124Y-149690871D01*
X79836124Y-147181285D01*
X79856126Y-147113164D01*
X79909782Y-147066671D01*
X79961850Y-147055285D01*
X91575030Y-147030194D01*
X92300852Y-147028626D01*
X92369016Y-147048481D01*
X92415624Y-147102036D01*
X92427124Y-147154626D01*
X92427124Y-147485439D01*
X92407122Y-147553560D01*
X92353466Y-147600053D01*
X92301124Y-147611439D01*
X90456557Y-147611439D01*
X90420805Y-147618550D01*
X90394497Y-147623782D01*
X90394495Y-147623783D01*
X90382322Y-147626204D01*
X90372002Y-147633099D01*
X90372001Y-147633100D01*
X90311608Y-147673454D01*
X90298139Y-147682454D01*
X90241889Y-147766637D01*
X90227123Y-147840871D01*
X90227124Y-150291004D01*
X90241889Y-150365239D01*
X90298139Y-150449422D01*
X90382322Y-150505672D01*
X90456556Y-150520438D01*
X93031414Y-150520438D01*
X95606689Y-150520437D01*
X95642441Y-150513326D01*
X95668749Y-150508094D01*
X95668751Y-150508093D01*
X95680924Y-150505672D01*
X95691244Y-150498777D01*
X95691245Y-150498776D01*
X95754791Y-150456315D01*
X95765107Y-150449422D01*
X95821357Y-150365239D01*
X95836123Y-150291005D01*
X95836122Y-147840872D01*
X95821357Y-147766637D01*
X95765107Y-147682454D01*
X95680924Y-147626204D01*
X95606690Y-147611438D01*
X93762124Y-147611438D01*
X93694003Y-147591436D01*
X93647510Y-147537780D01*
X93636124Y-147485438D01*
X93636124Y-147151469D01*
X93656126Y-147083348D01*
X93709782Y-147036855D01*
X93761850Y-147025469D01*
X102321609Y-147006975D01*
X104819228Y-147001579D01*
X104887392Y-147021434D01*
G37*
%TD.AperFunction*%
%TD*%
M02*
