%TF.GenerationSoftware,KiCad,Pcbnew,(6.0.5)*%
%TF.CreationDate,2023-08-08T13:51:24+01:00*%
%TF.ProjectId,Beacon-driver,42656163-6f6e-42d6-9472-697665722e6b,1.0*%
%TF.SameCoordinates,Original*%
%TF.FileFunction,Soldermask,Top*%
%TF.FilePolarity,Negative*%
%FSLAX46Y46*%
G04 Gerber Fmt 4.6, Leading zero omitted, Abs format (unit mm)*
G04 Created by KiCad (PCBNEW (6.0.5)) date 2023-08-08 13:51:24*
%MOMM*%
%LPD*%
G01*
G04 APERTURE LIST*
G04 Aperture macros list*
%AMRoundRect*
0 Rectangle with rounded corners*
0 $1 Rounding radius*
0 $2 $3 $4 $5 $6 $7 $8 $9 X,Y pos of 4 corners*
0 Add a 4 corners polygon primitive as box body*
4,1,4,$2,$3,$4,$5,$6,$7,$8,$9,$2,$3,0*
0 Add four circle primitives for the rounded corners*
1,1,$1+$1,$2,$3*
1,1,$1+$1,$4,$5*
1,1,$1+$1,$6,$7*
1,1,$1+$1,$8,$9*
0 Add four rect primitives between the rounded corners*
20,1,$1+$1,$2,$3,$4,$5,0*
20,1,$1+$1,$4,$5,$6,$7,0*
20,1,$1+$1,$6,$7,$8,$9,0*
20,1,$1+$1,$8,$9,$2,$3,0*%
%AMOutline5P*
0 Free polygon, 5 corners , with rotation*
0 The origin of the aperture is its center*
0 number of corners: always 5*
0 $1 to $10 corner X, Y*
0 $11 Rotation angle, in degrees counterclockwise*
0 create outline with 5 corners*
4,1,5,$1,$2,$3,$4,$5,$6,$7,$8,$9,$10,$1,$2,$11*%
%AMOutline6P*
0 Free polygon, 6 corners , with rotation*
0 The origin of the aperture is its center*
0 number of corners: always 6*
0 $1 to $12 corner X, Y*
0 $13 Rotation angle, in degrees counterclockwise*
0 create outline with 6 corners*
4,1,6,$1,$2,$3,$4,$5,$6,$7,$8,$9,$10,$11,$12,$1,$2,$13*%
%AMOutline7P*
0 Free polygon, 7 corners , with rotation*
0 The origin of the aperture is its center*
0 number of corners: always 7*
0 $1 to $14 corner X, Y*
0 $15 Rotation angle, in degrees counterclockwise*
0 create outline with 7 corners*
4,1,7,$1,$2,$3,$4,$5,$6,$7,$8,$9,$10,$11,$12,$13,$14,$1,$2,$15*%
%AMOutline8P*
0 Free polygon, 8 corners , with rotation*
0 The origin of the aperture is its center*
0 number of corners: always 8*
0 $1 to $16 corner X, Y*
0 $17 Rotation angle, in degrees counterclockwise*
0 create outline with 8 corners*
4,1,8,$1,$2,$3,$4,$5,$6,$7,$8,$9,$10,$11,$12,$13,$14,$15,$16,$1,$2,$17*%
G04 Aperture macros list end*
%ADD10C,3.500000*%
%ADD11RoundRect,0.750000X0.750000X0.750000X-0.750000X0.750000X-0.750000X-0.750000X0.750000X-0.750000X0*%
%ADD12Outline5P,-0.725000X0.725000X0.725000X0.725000X0.725000X-0.725000X-0.290000X-0.725000X-0.725000X-0.290000X90.000000*%
%ADD13Outline5P,-0.725000X0.725000X0.725000X0.725000X0.725000X-0.290000X0.290000X-0.725000X-0.725000X-0.725000X90.000000*%
%ADD14Outline5P,-0.725000X0.725000X0.290000X0.725000X0.725000X0.290000X0.725000X-0.725000X-0.725000X-0.725000X90.000000*%
%ADD15Outline5P,-0.725000X0.290000X-0.290000X0.725000X0.725000X0.725000X0.725000X-0.725000X-0.725000X-0.725000X90.000000*%
%ADD16RoundRect,0.250000X0.450000X-0.262500X0.450000X0.262500X-0.450000X0.262500X-0.450000X-0.262500X0*%
%ADD17RoundRect,0.225000X0.250000X-0.225000X0.250000X0.225000X-0.250000X0.225000X-0.250000X-0.225000X0*%
%ADD18R,2.000000X0.800000*%
%ADD19R,0.520000X2.700000*%
%ADD20Outline5P,-1.350000X0.500000X1.350000X0.500000X1.350000X-0.500000X-1.050000X-0.500000X-1.350000X-0.200000X270.000000*%
%ADD21RoundRect,0.625000X0.625000X1.375000X-0.625000X1.375000X-0.625000X-1.375000X0.625000X-1.375000X0*%
%ADD22R,2.500000X1.800000*%
%ADD23RoundRect,0.100000X0.625000X0.100000X-0.625000X0.100000X-0.625000X-0.100000X0.625000X-0.100000X0*%
%ADD24R,1.680000X1.880000*%
%ADD25R,5.100000X2.400000*%
G04 APERTURE END LIST*
D10*
%TO.C,D21*%
X103582622Y-105415938D02*
G75*
G03*
X103582622Y-105415938I-1000J0D01*
G01*
%TO.C,D22*%
X95582624Y-105415938D02*
G75*
G03*
X95582624Y-105415938I-1000J0D01*
G01*
%TO.C,D20*%
X99582624Y-138119738D02*
G75*
G03*
X99582624Y-138119738I-1000J0D01*
G01*
%TD*%
D11*
%TO.C,VCC*%
X87081623Y-109415939D03*
%TD*%
D12*
%TO.C,D21*%
X101616622Y-103450938D03*
D13*
X101616622Y-107380938D03*
D14*
X105546622Y-107380938D03*
D15*
X105546622Y-103450938D03*
%TD*%
D12*
%TO.C,D22*%
X93616624Y-103450938D03*
D13*
X93616624Y-107380938D03*
D15*
X97546624Y-103450938D03*
D14*
X97546624Y-107380938D03*
%TD*%
D16*
%TO.C,R1*%
X105550000Y-155112500D03*
X105550000Y-153287500D03*
%TD*%
D11*
%TO.C,VCC*%
X112081623Y-109415938D03*
%TD*%
%TO.C,VCC*%
X112081624Y-135415938D03*
%TD*%
D17*
%TO.C,C1*%
X94131623Y-159340938D03*
X94131623Y-157790938D03*
%TD*%
D16*
%TO.C,R2*%
X105550000Y-158512500D03*
X105550000Y-156687500D03*
%TD*%
D18*
%TO.C,SW1*%
X82800000Y-154115938D03*
X82800000Y-152115938D03*
X82800000Y-150115938D03*
X87800000Y-154115938D03*
X87800000Y-152115938D03*
X87800000Y-150115938D03*
%TD*%
D19*
%TO.C,D10*%
X98471623Y-130815938D03*
X100691623Y-130815938D03*
D20*
X99581623Y-130815938D03*
%TD*%
D19*
%TO.C,D13*%
X103471623Y-113015938D03*
X105691623Y-113015938D03*
D20*
X104581623Y-113015938D03*
%TD*%
D11*
%TO.C,VCC*%
X87081624Y-135415938D03*
%TD*%
D21*
%TO.C,GND*%
X89581624Y-158565939D03*
%TD*%
D13*
%TO.C,D20*%
X97616624Y-140084738D03*
D12*
X97616624Y-136154738D03*
D15*
X101546624Y-136154738D03*
D14*
X101546624Y-140084738D03*
%TD*%
D22*
%TO.C,D1*%
X101581623Y-158515938D03*
X97581623Y-158515938D03*
%TD*%
D19*
%TO.C,D14*%
X98471623Y-113015938D03*
X100691623Y-113015938D03*
D20*
X99581623Y-113015938D03*
%TD*%
D19*
%TO.C,D11*%
X101471624Y-122415939D03*
X103691624Y-122415939D03*
D20*
X102581624Y-122415939D03*
%TD*%
D23*
%TO.C,IC1*%
X101731623Y-155390938D03*
X101731623Y-154740938D03*
X101731623Y-154090938D03*
X101731623Y-153440938D03*
X97431623Y-153440938D03*
X97431623Y-154090938D03*
X97431623Y-154740938D03*
X97431623Y-155390938D03*
D24*
X99581623Y-154415938D03*
%TD*%
D21*
%TO.C,VCC*%
X109581624Y-158565939D03*
%TD*%
D19*
%TO.C,D15*%
X93471624Y-113015938D03*
X95691624Y-113015938D03*
D20*
X94581624Y-113015938D03*
%TD*%
D19*
%TO.C,D12*%
X95471624Y-122415938D03*
X97691624Y-122415938D03*
D20*
X96581624Y-122415938D03*
%TD*%
D25*
%TO.C,L1*%
X93031623Y-149065938D03*
X93031623Y-153765938D03*
%TD*%
M02*
