%TF.GenerationSoftware,KiCad,Pcbnew,(6.0.5)*%
%TF.CreationDate,2023-08-08T13:51:24+01:00*%
%TF.ProjectId,Beacon-driver,42656163-6f6e-42d6-9472-697665722e6b,1.0*%
%TF.SameCoordinates,Original*%
%TF.FileFunction,Profile,NP*%
%FSLAX46Y46*%
G04 Gerber Fmt 4.6, Leading zero omitted, Abs format (unit mm)*
G04 Created by KiCad (PCBNEW (6.0.5)) date 2023-08-08 13:51:24*
%MOMM*%
%LPD*%
G01*
G04 APERTURE LIST*
%TA.AperFunction,Profile*%
%ADD10C,0.010000*%
%TD*%
%TA.AperFunction,Profile*%
%ADD11C,0.200000*%
%TD*%
%TA.AperFunction,Profile*%
%ADD12C,0.001000*%
%TD*%
G04 APERTURE END LIST*
D10*
X86181625Y-102415938D02*
G75*
G03*
X86181625Y-102415938I-1600001J0D01*
G01*
X101181622Y-118915937D02*
G75*
G03*
X101181622Y-118915937I-1599999J0D01*
G01*
X101181624Y-99915938D02*
G75*
G03*
X101181624Y-99915938I-1600000J0D01*
G01*
X116181622Y-102415938D02*
G75*
G03*
X116181622Y-102415938I-1599999J0D01*
G01*
X101181624Y-125915938D02*
G75*
G03*
X101181624Y-125915938I-1600001J0D01*
G01*
D11*
X119581624Y-100415938D02*
X119581622Y-119415938D01*
X117581624Y-120415938D01*
X117581624Y-124415938D01*
X119581623Y-125415938D01*
X119581624Y-140415938D01*
X117581623Y-141415937D01*
X117581623Y-145415938D01*
X119581624Y-146415938D01*
X119581624Y-159415938D01*
X116581624Y-162415938D01*
X82581624Y-162415938D01*
X79581624Y-159415937D01*
X79581624Y-146415938D01*
X81581623Y-145415938D01*
X81581623Y-141415938D01*
X79581624Y-140415938D01*
X79581624Y-125415938D01*
X81581624Y-124415938D01*
X81581624Y-120415938D01*
X79581624Y-119415938D01*
X79581624Y-100415937D01*
X82581623Y-97415938D01*
X116581624Y-97415938D01*
X119581624Y-100415938D01*
D10*
X101181622Y-144915938D02*
G75*
G03*
X101181622Y-144915938I-1599999J0D01*
G01*
D12*
%TO.C,SW1*%
X85750000Y-150115938D02*
G75*
G03*
X85750000Y-150115938I-450000J0D01*
G01*
X85750000Y-154115938D02*
G75*
G03*
X85750000Y-154115938I-450000J0D01*
G01*
%TD*%
M02*
